<svg id="svg4946" xmlns="http://www.w3.org/2000/svg" viewBox="0 0 178.79 249.65"><defs><style>.cls-1{fill:#fff;stroke:#000;stroke-width:1px;}.cls-2{fill:#d40000;}</style></defs><title>10HEART</title><g id="layer1"><g id="g11103-4-9"><g id="g10276-9-9"><rect id="rect10278-0-6" class="cls-1" x="0.5" y="0.5" width="177.79" height="248.65" rx="8.5"/></g><path id="path10308-5-1" class="cls-2" d="M48.06,117.49s-3.71-6.1-8.73-13.28c-3.35-4.8-6-10-6.28-14.48-.29-5.12,2.42-10.26,7.32-10.51s6.88,4,7.69,7.41c.81-3.46,2.8-7.65,7.7-7.41s7.6,5.39,7.32,10.51c-.25,4.47-2.93,9.68-6.29,14.48C51.78,111.39,48.06,117.49,48.06,117.49Z" transform="translate(0.1 0.1)"/><path id="path10310-7-8" class="cls-2" d="M14.11,56.2S12.34,53.65,10,50.66c-1.6-2-2.88-4.16-3-6a3.88,3.88,0,0,1,3.49-4.38c2.34-.1,3.29,1.65,3.67,3.09.39-1.44,1.33-3.19,3.67-3.09a3.87,3.87,0,0,1,3.49,4.38c-.12,1.87-1.4,4-3,6C15.88,53.65,14.11,56.2,14.11,56.2Z" transform="translate(0.1 0.1)"/><path id="path10312-3-5" class="cls-2" d="M164.47,193.25s-1.77,2.54-4.16,5.53c-1.6,2-2.88,4.17-3,6-.13,2.13,1.16,4.27,3.49,4.37s3.29-1.64,3.67-3.08c.39,1.44,1.34,3.19,3.67,3.08a3.85,3.85,0,0,0,3.49-4.37c-.12-1.87-1.4-4-3-6C166.24,195.79,164.47,193.25,164.47,193.25Z" transform="translate(0.1 0.1)"/><path id="path10314-8-8" class="cls-2" d="M89.29,98.75s-3.72-6.1-8.73-13.28c-3.35-4.8-6-10-6.28-14.48C74,65.87,76.7,60.73,81.6,60.48s6.88,4,7.69,7.41c.81-3.46,2.8-7.65,7.7-7.41s7.6,5.39,7.32,10.51c-.25,4.48-2.94,9.68-6.29,14.48C93,92.65,89.29,98.75,89.29,98.75Z" transform="translate(0.1 0.1)"/><path id="path10318-3-7" class="cls-2" d="M48.06,64.75s-3.71-6.11-8.73-13.28c-3.35-4.81-6-10-6.28-14.49-.29-5.12,2.42-10.25,7.32-10.5s6.88,3.95,7.69,7.41c.81-3.46,2.8-7.66,7.7-7.41s7.6,5.38,7.32,10.5c-.25,4.48-2.93,9.68-6.29,14.49C51.78,58.64,48.06,64.75,48.06,64.75Z" transform="translate(0.1 0.1)"/><path id="path10322-4-6" class="cls-2" d="M130.52,117.49s-3.72-6.1-8.73-13.28c-3.35-4.8-6-10-6.28-14.48-.29-5.12,2.42-10.26,7.32-10.51s6.88,4,7.69,7.41c.81-3.46,2.8-7.65,7.69-7.41s7.61,5.39,7.32,10.51c-.25,4.47-2.93,9.68-6.28,14.48C134.24,111.39,130.52,117.49,130.52,117.49Z" transform="translate(0.1 0.1)"/><path id="path10324-9-8" class="cls-2" d="M130.52,64.75s-3.72-6.11-8.73-13.28c-3.35-4.81-6-10-6.28-14.49-.29-5.12,2.42-10.25,7.32-10.5s6.88,3.95,7.69,7.41c.81-3.46,2.8-7.66,7.69-7.41s7.61,5.38,7.32,10.5c-.25,4.48-2.93,9.68-6.28,14.49C134.24,58.64,130.52,64.75,130.52,64.75Z" transform="translate(0.1 0.1)"/><path id="path10332-8-6" class="cls-2" d="M89.29,150.7s-3.72,6.1-8.73,13.28c-3.35,4.8-6,10-6.28,14.48C74,183.58,76.7,188.72,81.6,189s6.88-3.94,7.69-7.4c.81,3.46,2.8,7.65,7.7,7.4s7.6-5.38,7.32-10.5c-.25-4.48-2.94-9.68-6.29-14.48C93,156.8,89.29,150.7,89.29,150.7Z" transform="translate(0.1 0.1)"/><path id="path10334-5-0" class="cls-2" d="M130.52,132s-3.72,6.1-8.73,13.28c-3.35,4.8-6,10-6.28,14.48-.29,5.12,2.42,10.26,7.32,10.5s6.88-3.94,7.69-7.4c.81,3.46,2.8,7.65,7.69,7.4s7.61-5.38,7.32-10.5c-.25-4.48-2.93-9.68-6.28-14.48C134.24,138.06,130.52,132,130.52,132Z" transform="translate(0.1 0.1)"/><path id="path10336-3-5" class="cls-2" d="M48.06,132s-3.71,6.1-8.73,13.28c-3.35,4.8-6,10-6.28,14.48-.29,5.12,2.42,10.26,7.32,10.5s6.88-3.94,7.69-7.4c.81,3.46,2.8,7.65,7.7,7.4s7.6-5.38,7.32-10.5c-.25-4.48-2.93-9.68-6.29-14.48C51.78,138.06,48.06,132,48.06,132Z" transform="translate(0.1 0.1)"/><path id="path10338-2-9" class="cls-2" d="M130.52,184.7s-3.72,6.11-8.73,13.28c-3.35,4.81-6,10-6.28,14.49-.29,5.11,2.42,10.25,7.32,10.5s6.88-3.95,7.69-7.41c.81,3.46,2.8,7.66,7.69,7.41s7.61-5.39,7.32-10.5c-.25-4.48-2.93-9.68-6.28-14.49C134.24,190.81,130.52,184.7,130.52,184.7Z" transform="translate(0.1 0.1)"/><path id="path10340-9-7" class="cls-2" d="M48.06,184.7s-3.71,6.11-8.73,13.28c-3.35,4.81-6,10-6.28,14.49-.29,5.11,2.42,10.25,7.32,10.5s6.88-3.95,7.69-7.41c.81,3.46,2.8,7.66,7.7,7.41s7.6-5.39,7.32-10.5c-.25-4.48-2.93-9.68-6.29-14.49C51.78,190.81,48.06,184.7,48.06,184.7Z" transform="translate(0.1 0.1)"/><g id="g7724-24-8-9-7"><g id="g8345-9-7-5-1"><path id="path31-8-2-9-8" class="cls-2" d="M6.13,37.75V11.43H8.68V37.75Z" transform="translate(0.1 0.1)"/><path id="path33-2-3-1-6" class="cls-2" d="M16.23,11.43c-2.45,0-4.42,2.25-4.42,5V32.72c0,2.79,2,5,4.42,5h1.43c2.45,0,4.43-2.24,4.43-5V16.46c0-2.78-2-5-4.43-5ZM17,13.92a2.55,2.55,0,0,1,2.61,2.5V32.9a2.62,2.62,0,0,1-5.23,0V16.42A2.55,2.55,0,0,1,17,13.92Z" transform="translate(0.1 0.1)"/></g></g><g id="g7724-2-5-0-2-7"><g id="g8345-5-0-9-6-9"><g id="g10963-5-1"><path id="path31-1-3-2-1-5" class="cls-2" d="M172.45,211.7V238H169.9V211.7Z" transform="translate(0.1 0.1)"/><path id="path33-5-5-3-3-1" class="cls-2" d="M162.35,238c2.45,0,4.42-2.25,4.42-5V216.73c0-2.79-2-5-4.42-5h-1.43c-2.45,0-4.43,2.24-4.43,5V233c0,2.78,2,5,4.43,5Zm-.74-2.49A2.55,2.55,0,0,1,159,233V216.55a2.62,2.62,0,0,1,5.23,0V233a2.56,2.56,0,0,1-2.62,2.51Z" transform="translate(0.1 0.1)"/></g></g></g></g></g></svg>