<svg id="svg4946" xmlns="http://www.w3.org/2000/svg" viewBox="0 0 178.79 249.65"><defs><style>.cls-1{fill:#fff;stroke:#000;stroke-width:1px;}</style></defs><title>10SPADE</title><g id="layer1"><g id="g8542-3-6"><g id="g8587-4-9"><rect id="rect7263-6-4" class="cls-1" x="0.5" y="0.5" width="177.79" height="248.65" rx="8.5"/><path id="path7293-3-2" d="M48.06,26.47C40.71,37,32.85,43,32.72,51.19c0,2.65,1.39,7.15,5.87,8,2.91.56,6.92-1.8,7-6.58,0-1,1-.93,1,.37a27.22,27.22,0,0,1-3.34,11.76h9.63A27.08,27.08,0,0,1,49.54,53c0-1.3,1-1.33,1-.37.08,4.78,4.08,7.14,7,6.58,4.49-.86,5.92-5.36,5.87-8C63.27,43,55.41,37,48.06,26.47Z" transform="translate(0.1 0.1)"/><path id="path7295-4-8" d="M14.11,40.25C10.68,44.62,7,47.14,6.94,50.55a3.32,3.32,0,0,0,2.75,3.34A2.85,2.85,0,0,0,13,51.14c0-.39.47-.38.46.16a10.37,10.37,0,0,1-1.56,4.9h4.5a10.37,10.37,0,0,1-1.56-4.9c0-.54.47-.55.47-.16a2.85,2.85,0,0,0,3.26,2.75,3.32,3.32,0,0,0,2.75-3.34c-.06-3.41-3.74-5.93-7.17-10.3Z" transform="translate(0.1 0.1)"/><path id="path7297-5-1" d="M48.06,170.23c-7.35-10.49-15.21-16.53-15.34-24.71,0-2.65,1.39-7.16,5.87-8,2.91-.56,6.92,1.8,7,6.59,0,.95,1,.93,1-.38A27.17,27.17,0,0,0,43.25,132h9.63a27,27,0,0,0-3.34,11.75c0,1.31,1,1.33,1,.38.08-4.79,4.08-7.15,7-6.59,4.49.86,5.92,5.37,5.87,8C63.27,153.7,55.41,159.74,48.06,170.23Z" transform="translate(0.1 0.1)"/><path id="path7299-3-5" d="M164.47,209.2c-3.43-4.37-7.1-6.89-7.17-10.3a3.32,3.32,0,0,1,2.75-3.34,2.85,2.85,0,0,1,3.27,2.75c0,.39.47.38.46-.16a10.34,10.34,0,0,0-1.56-4.9h4.5a10.45,10.45,0,0,0-1.56,4.9c0,.54.47.55.47.16a2.85,2.85,0,0,1,3.27-2.75,3.32,3.32,0,0,1,2.74,3.34c-.06,3.41-3.74,5.93-7.17,10.3Z" transform="translate(0.1 0.1)"/><path id="path7301-4-0" d="M130.52,26.47C123.17,37,115.31,43,115.18,51.19c0,2.65,1.39,7.15,5.87,8,2.91.56,6.91-1.8,7-6.58,0-1,1-.93,1,.37a27.35,27.35,0,0,1-3.34,11.76h9.62A27.35,27.35,0,0,1,132,53c0-1.3,1-1.33,1-.37.09,4.78,4.09,7.14,7,6.58,4.48-.86,5.91-5.36,5.87-8C145.73,43,137.87,37,130.52,26.47Z" transform="translate(0.1 0.1)"/><path id="path7303-7-8" d="M48.06,79.21c-7.35,10.5-15.21,16.53-15.34,24.72,0,2.65,1.39,7.16,5.87,8,2.91.55,6.92-1.8,7-6.59,0-1,1-.93,1,.38a27.21,27.21,0,0,1-3.34,11.75h9.63a27.08,27.08,0,0,1-3.34-11.75c0-1.31,1-1.33,1-.38.08,4.79,4.08,7.14,7,6.59,4.49-.86,5.92-5.37,5.87-8C63.27,95.74,55.41,89.71,48.06,79.21Z" transform="translate(0.1 0.1)"/><path id="path7305-6-7" d="M89.29,60.47C81.94,71,74.08,77,74,85.19c0,2.65,1.39,7.16,5.87,8,2.91.55,6.91-1.8,7-6.59,0-1,1-.93,1,.38a27.21,27.21,0,0,1-3.34,11.75H94.1A27.2,27.2,0,0,1,90.77,87c0-1.31,1-1.33,1-.38.09,4.79,4.09,7.14,7,6.59,4.48-.86,5.92-5.37,5.87-8C104.5,77,96.64,71,89.29,60.47Z" transform="translate(0.1 0.1)"/><path id="path7309-8-5" d="M130.52,79.21c-7.35,10.5-15.21,16.53-15.34,24.72,0,2.65,1.39,7.16,5.87,8,2.91.55,6.91-1.8,7-6.59,0-1,1-.93,1,.38a27.35,27.35,0,0,1-3.34,11.75h9.62A27.35,27.35,0,0,1,132,105.74c0-1.31,1-1.33,1-.38.09,4.79,4.09,7.14,7,6.59,4.48-.86,5.91-5.37,5.87-8C145.73,95.74,137.87,89.71,130.52,79.21Z" transform="translate(0.1 0.1)"/><path id="path7313-6-8" d="M48.06,223c-7.35-10.49-15.21-16.53-15.34-24.72,0-2.65,1.39-7.15,5.87-8,2.91-.55,6.92,1.8,7,6.59,0,1,1,.93,1-.37a27.22,27.22,0,0,0-3.34-11.76h9.63a27.08,27.08,0,0,0-3.34,11.76c0,1.3,1,1.33,1,.37.08-4.79,4.08-7.14,7-6.59,4.49.87,5.92,5.37,5.87,8-.13,8.19-8,14.23-15.34,24.72Z" transform="translate(0.1 0.1)"/><path id="path7315-7-3" d="M130.52,223c-7.35-10.49-15.21-16.53-15.34-24.72,0-2.65,1.39-7.15,5.87-8,2.91-.55,6.91,1.8,7,6.59,0,1,1,.93,1-.37a27.35,27.35,0,0,0-3.34-11.76h9.62A27.35,27.35,0,0,0,132,196.46c0,1.3,1,1.33,1,.37.09-4.79,4.09-7.14,7-6.59,4.48.87,5.91,5.37,5.87,8-.13,8.19-8,14.23-15.34,24.72Z" transform="translate(0.1 0.1)"/><path id="path7317-0-2" d="M89.29,189C81.94,178.48,74.08,172.44,74,164.26c0-2.65,1.39-7.16,5.87-8,2.91-.56,6.91,1.8,7,6.59,0,.95,1,.93,1-.38a27.17,27.17,0,0,0-3.34-11.75H94.1a27.16,27.16,0,0,0-3.33,11.75c0,1.31,1,1.33,1,.38.09-4.79,4.09-7.15,7-6.59,4.48.86,5.92,5.37,5.87,8C104.5,172.44,96.64,178.48,89.29,189Z" transform="translate(0.1 0.1)"/><path id="path7319-5-6" d="M130.52,170.23c-7.35-10.49-15.21-16.53-15.34-24.71,0-2.65,1.39-7.16,5.87-8,2.91-.56,6.91,1.8,7,6.59,0,.95,1,.93,1-.38A27.31,27.31,0,0,0,125.71,132h9.62A27.31,27.31,0,0,0,132,143.71c0,1.31,1,1.33,1,.38.09-4.79,4.09-7.15,7-6.59,4.48.86,5.91,5.37,5.87,8C145.73,153.7,137.87,159.74,130.52,170.23Z" transform="translate(0.1 0.1)"/><path id="path31-5-4-7" d="M6.13,37.75V11.43H8.68V37.75Z" transform="translate(0.1 0.1)"/><path id="path33-4-6-8" d="M16.23,11.43c-2.45,0-4.42,2.25-4.42,5V32.72c0,2.79,2,5,4.42,5h1.43c2.45,0,4.43-2.24,4.43-5V16.46c0-2.78-2-5-4.43-5ZM17,13.92a2.55,2.55,0,0,1,2.61,2.5V32.9a2.62,2.62,0,0,1-5.23,0V16.42A2.56,2.56,0,0,1,17,13.92Z" transform="translate(0.1 0.1)"/><g id="g8583-6-9"><path id="path31-5-5-6-7" d="M172.45,211.7V238H169.9V211.7Z" transform="translate(0.1 0.1)"/><path id="path33-4-3-7-9" d="M162.35,238c2.45,0,4.42-2.25,4.42-5V216.73c0-2.79-2-5-4.42-5h-1.43c-2.45,0-4.43,2.24-4.43,5V233c0,2.78,2,5,4.43,5Zm-.74-2.49A2.55,2.55,0,0,1,159,233V216.55a2.62,2.62,0,0,1,5.23,0V233a2.56,2.56,0,0,1-2.62,2.51Z" transform="translate(0.1 0.1)"/></g></g></g></g></svg>