<svg id="svg4946" xmlns="http://www.w3.org/2000/svg" viewBox="0 0 178.79 249.65"><defs><style>.cls-1{fill:#fff;stroke:#000;stroke-width:1px;}.cls-2{fill:#e2cf00;}.cls-3{fill:#131f67;}.cls-4{fill:#d40000;}</style></defs><title>11CLUB</title><g id="layer1"><g id="g5584"><g id="g11322-4-2"><rect id="rect6355-6-85-3-39-1-8" class="cls-1" x="0.5" y="0.5" width="177.79" height="248.65" rx="8.5"/><path id="path147-6-9-8-7-0-5-6-79-2-4" d="M164.47,209.2c3.13-.07,4.53-3.74,2.22-6.59-.34-.41-.37-.65.24-.25,1.56,1.08,4.55.37,4.71-3,.19-4.09-5.3-5.27-6.33-.92-.06.46-.42.45-.33-.21a13.88,13.88,0,0,1,1.35-5h-3.72a14.1,14.1,0,0,1,1.36,5c.08.66-.28.67-.33.21-1-4.35-6.52-3.17-6.33.92.15,3.32,3.14,4,4.7,3,.62-.4.58-.16.25.25-2.32,2.85-.92,6.52,2.21,6.59Z" transform="translate(0.1 0.1)"/><path id="path147-6-9-8-7-4-5-62-3-3-7" d="M14.11,40.25C11,40.32,9.58,44,11.9,46.84c.33.41.37.65-.25.25C10.09,46,7.1,46.72,7,50c-.19,4.09,5.3,5.27,6.33.92.05-.46.41-.45.32.2a13.88,13.88,0,0,1-1.35,5H16a13.88,13.88,0,0,1-1.35-5c-.09-.65.27-.66.32-.2,1,4.35,6.52,3.17,6.33-.92-.15-3.32-3.14-4-4.7-2.95-.61.4-.58.16-.24-.25,2.31-2.85.91-6.52-2.22-6.59Z" transform="translate(0.1 0.1)"/><path id="path35-5-6-2" d="M14,11.43v2.76H16.7s.06,2.65.08,8.29c0,5.47.14,8.18-.21,9.74-.94,3.59-6.13,3.61-7.17,1a10.29,10.29,0,0,1-.46-4.18H6.06s0,.76,0,1.7c0,4,1.35,6,4.47,6.72s7-.45,8.3-3.2c.8-1.57.71-1.67.73-11.14,0-6.32.11-9,.11-9h2.46V11.43Z" transform="translate(0.1 0.1)"/><path id="path35-6-4-1-2" d="M164.56,238v-2.76h-2.68s-.06-2.65-.08-8.29c0-5.47-.14-8.18.21-9.74.94-3.59,6.13-3.61,7.17-1a10.36,10.36,0,0,1,.46,4.19h2.88s0-.77,0-1.7c0-4-1.36-6-4.48-6.73s-7,.46-8.3,3.21c-.8,1.56-.71,1.67-.73,11.14,0,6.32-.1,8.95-.1,8.95h-2.46V238Z" transform="translate(0.1 0.1)"/></g><g id="g5275-8-4-5"><g id="layer1-1-8-4-5"><g id="g3799-8-1-3"><path id="path3306-4-9-5" class="cls-2" d="M129.1,24.27c.68-1,3.63,5.84,5.52,11,.93,2.54,2.17,4.63,1.66,5.3-1.35,1.37-4.84.14-7.37-1.81a22.29,22.29,0,0,1-4.62-5.17Zm23.77,5.05.1,4A90.25,90.25,0,0,0,144.35,42l9.06.05c-.08,49.23.07,147.9.07,147.9s-10.07-10.24-9.82-10.27c0,0-.29-59.62-.33-99.72-.08-.19,5.27-.2,5.6-2.82.23-1.74-5.6-1.5-5.69-1.61,0-18-.05-30.75-.05-30.75l-5.36-.18ZM121.42,47.88c.78,1.56,2,7.54,3,7.4,4.36-1.45,5.76,5,1.26,5.33-1.71.13-3.61-2.11-4.68-4.88-.52-1.46,0-8.43.46-7.85Zm-1,9c1.28,2.11,2.51,9.8,4.85,9.36a2.71,2.71,0,0,1,3.29,3c-1.09,4.62-8.92.23-11-.83A52.54,52.54,0,0,0,120.44,56.85ZM137,78.54c-1.79,4.07-1.31,7.41.21,11.5-4.64,2-9.23,4.39-13.81,6.79,0,0-.22-16,1.29-23.36.53-1.11,2.41-.22,3.5.32A72.48,72.48,0,0,1,137,78.54ZM54.48,152.18c1,7.57.26,19.36-1.08,24-.52,1.58-11.29-5.54-12.06-6,2.12-3.94-.78-13.11-.47-11.47.75-.52,13.37-7.29,13.61-6.52Zm4.63,31.43c-.2.49-1,6.16-1.26,6.18-.81.07-2-5.55-4.09-7.41-3.94.46-4.4-2.22-3.63-3.51-.19-.57,1.27-1.8,2.63-1.69C56.16,178.51,60.73,179.69,59.11,183.61Zm45.13,9.68s-3,16.67-3,16.65C94,211,86.92,212.22,80.41,211.47c1.28-17.32,3.31-32.31,8.86-34.91l-11.5-9.28s-12.77,8-12,7.87c.32-.09.57-6.8.76-17.66-.33-28.33-16.58-57-17.21-56.73-.34-.23,13.84-1.34,24,3.07l.46-37.53s-5-2.53-6-3.7C65.91,56.07,71,54.41,74,56c1.41-5,3.56-17.23,3.63-17.22a94.91,94.91,0,0,1,20.82-1.61,111.74,111.74,0,0,0-2.28,16C95.25,61.83,93.48,70,89,72c.8-.32,11.34,8.92,11.34,8.92L113.09,73c-4.13,27,2.94,53.23,15.14,74.44-6.15.71-13.11.38-24-2.89,0,0,.61,37.6.62,37.39,12,4.76,5.46,14-.63,11.36Zm-46.75,3.37c0,.38-.22,4.63-.22,4.63-1.7-2-3.07-7.88-3.41-7.78,0,0-2.18.34-2.86-.39-2.22-2.37,0-5.17,2.18-4.64s4.62,4.35,4.31,8.18ZM34.9,69.2s.47,66.67.46,100.09c-8.4-.14-6.75,4.55.11,4.06l0,30.81,4.55.16s-8.56,9-14,14.71l-.13-2.91,8.27-9-8.56,0,0-147.84ZM49.19,224.05c-2.07.45-4.23-9.15-7.83-15,4.09-2.46,10.53,2.21,12,6C52.4,218.23,49.13,224,49.19,224.05Z" transform="translate(0.1 0.1)"/><path id="path3304-4-6-6" class="cls-3" d="M154.6,230V19.46H24V230Zm-43.29-44.34c-.18-.34-.47-.83-.47-.83a2.18,2.18,0,0,0,.54-.22c15.14-5.63,31.33-18.18,31.61-18.54v13.88l10,10.6v37.62H113.63l-11.55-19.4c.7-5.09,2.5-14.93,2.5-14.93,1,.26,4.63.6,6.56-2.19.92-1.33,1.41-3.14.17-6Zm-73.8-43.3L36,144.26l2.63-.12-1.81,2,2.92.07-2.27,1.94,3.07,0-2.28,1.91,3.36-.15L39.23,152l3.32,0-2.48,2.1,3.25,0L41.21,156l2.84,0-3.21,2.26a13.88,13.88,0,0,0-5.05-1l0-15.24Zm-2.29,26.42c-7.5,0-9.1,4,0,4.65-.17,10.13.4,30.39.4,30.39l4.94.13S27.29,218.29,26,219.46C24.91,171.2,25,59.16,25,59.16L35.07,69.32,35.18,101c3.39,3.44,5.32,8.47,7.34,11.72l5.53,2.7-1.3,4.47.55,1.27L49,114.85,43,112l-.64-1.3,1-6-5.72-2-1-1.37L37,95.55l-1.2-.37V94l1.2.1.42-6.53-1.62-.47V85.65s1,0,1.41,0a8.79,8.79,0,0,1,1.69,1.72l-.57,7.25,7.25,1.46.54.77-1.33,7.24,7.62,2.34c-.79-1.93-1.82-3.74-2.68-5.64,1-.31,2.13-.37,3.19-.6.29-9.79,0-20,.26-29.18,6.13-.44,3.26.15,5.92.1A1.9,1.9,0,0,0,61,69.25a1.87,1.87,0,0,0-.87-1.59l1.06-.38L63,69.38,59.17,73.1l0,1.07L64,69.35l-2.07-2.41,1.23-.64,1.9,2s4.07-4.19,3.82-4.27a1.29,1.29,0,0,1-.51-.46c-2.9-6.3,1.06-9.31,5.85-7.57,1.21-5.79,2.37-11,3.33-17,3.58-1.36,20.4-2.14,20.58-1.83,0,0,.43.41.45.61s.48-.55.48-.55c0-.36,14.66.36,21.89,1.75a6.52,6.52,0,0,1,.09,1.62c-.12,1.84,0,1.82-1.65,1.55-3.41-.23-6.05,1-7.1,4-.59,1.69-.32,3.21.58,7.73s.89,3.92.78,4.51-.87,1.47-1.94,2.35c-.81.66-.89,1.91-.24,1.22a4.77,4.77,0,0,1,1.94-1.26c1.66-.88,1.61-1.72.63-5.32-.46-1.69-.94-3.52-1-3.73,0-.66.19-.39,1.18.29a21.24,21.24,0,0,0,2,1.23c2,1.07,1.11-.1-.81-1.38-1.5-1.12-1.75-1.6-.45-1.06a7,7,0,0,0,4.75-.26c.3-.16.52-.14.56.13.07.42-.19,1.48-.3,3.93-.28,6.19-1.73,12.8-5.83,16.61-5.86,5.46-15.5,1.76-20.85-3.3l-.58.88c3.59,3,9.81,6.81,15.87,6.08-2.53,2.12-8.12,5.64-8.12,5.64-3.84-2.79-6.66-5.58-10.87-8.61l-.74.49,11.58,9.23,12.47-8.27s-.51,7.93-.71,10.83l5.41-4.81L113.46,73l4.42-4.57s-.75.1.07-1.31c1.25-2.54,2-6.63,2.57-10.79-.11-3.1.65-6.53.89-9.26a24.43,24.43,0,0,0,1.83,6.22c.87,2.24,1.21,2.23,2.18,1.9,5.29-.45,2.9,9.82-3.35,3.1-.28-.28-.73-.63-.75-.56a35.68,35.68,0,0,0,2.35,7.06c.73,1.32.74,1.5,1.82,1.39,2-.21,2.73.52,2.93,2.67-.27,4.07-4.65,2.35-7.45,1.1-.26-.2,1.31,1.44,1.88,2a3.23,3.23,0,0,1,.88,1.29l-.16,2.16-4.3,3.94,3.53,5.24-.14,1.87L118.88,91l4,4.38L123,97l-3.26,4.37,4.37,3.53.22,1.4s-2.81,5.23-2.74,5.42,4.75,3.41,4.75,3.41l.47,2.2-2,5.58,4.87,2.79.89,2.52-1.37,5.17,5,2.34,1.44,2.91-.94,5.44,5.66,1.68,1.5,2.39-.2,4.78,1.39.14,0,1.18h-1.55a8.89,8.89,0,0,1-.05,2.53c-.29,4-.31,3.86.64,4,2,.35,1.55,1.59-.51,1.36-.31,0-.58-.06-.8-.1-.54-.11-1-.81-1-.81l.45-7.41L133,152.61l-.68-.93,1.21-6.86-6.79-2-.91-1.66,1.92-7.14-6.84-3-.45-1.33,2.9-6.34L117,120.27l-.39-1.52,3.49-6.54-7.24-5.3s.19.52.48,1.39l5.74,4.12L116.21,118s-.23-.4-.48-.32c.15.93.27,1.87.33,2.79l3,7.77-9.6,6.49c4.11,2.48,9.3,2.4,14.06,3.33a6.73,6.73,0,0,0,.57,1.27c1.39,2.23,2.63,5.07,4.18,8a9.31,9.31,0,0,1-2.86.71c-1.69,9.55-3.37,20.55-6.06,28.86a2.14,2.14,0,0,0-2.13,2.15,2.16,2.16,0,0,0,.73,1.62l-.83.22c-.39,0-2-1.74-2-1.74l4-4,0-1.33c-1.61,1.69-5.16,5.34-5.16,5.34l2.14,2.25-1.06.5L113.38,180l-3.88,4-1-.69a47.27,47.27,0,0,1,4.12-4.33c-1-1.21-5-5.05-5-5.05v1.32l3.9,3.81-3.8,3.81-.22.25s-3-1.31-3.2-1.3c1.28,1.06,3.58,2,4.83,2.88,5.67,3.36.29,10.31-4.94,8.59-.15-.56-2.88,14.66-2.58,15.5-.27,2.36-.33,2,.48,3.38,2.43,5.64,9.53,16.31,9.53,16.31l-63.89.41A24.53,24.53,0,0,0,49.6,225a22.65,22.65,0,0,1-4.9-8.7,15.6,15.6,0,0,0-3.63-7.18c0-.06.06-.15.18-.22,5-1.79,10.8,2.54,12.57,7.48l2.9-4.75c-1.31-.15,19.3,2.35,24.35,1.72-.45-.09-1-.46-.68-1.89.52-2.45,1.43-11.34,1.43-11.34,1-8.64,1.8-19.51,7.48-23.1a10.3,10.3,0,0,0-1.62-1.4s.67.71.69.79a.72.72,0,0,1-.31.54A14.19,14.19,0,0,0,85.44,180c-4.68-4.08-12-7.6-16.42-6.14-1.75.36-2.52,2.05-3.44.68a99.62,99.62,0,0,0,.65-22c-.72-14.32-3.87-22.53-7-32.67,1.61-.57,9.83-6.11,9.83-6.11.05-.71-9.92-3-13.83-2.6,0,0-.81-.79-.81-.62l.08.15a1.91,1.91,0,0,0-1,1.66,1.89,1.89,0,0,0,1.88,1.9,2.12,2.12,0,0,0,.57-.08c.49,1.21.91,2.27.91,2.27L51.36,114l1.8-6.09-.6-1.36-2.21,7.94,7.07,3,.48,1.41L55,125l6.32,3.76.27,1.2-3.4,6.46,6.12,4.73-4.48,5.82,5.51,4.65-.06.77-4.57,5.29,4.72,4.87.13,2-5.14,4.6,4.44,6.49a19.85,19.85,0,0,0-4.1,4.09l-1.08-.47,3.94-3-4.21-6.12-4.45,4,2.41,3.95-1.47-.67-1.34-2.12.22-2.16,4.39-4-3.78-5.49,0-1s2.35-2.72,4.06-4.73l-4.79-5.31,3.92-5-4.93-4.22.14,1.26,3.64,3.09L54.58,151c-.2,2.05.24,5.56-.8,7.11,1.68,1.65.8,5.64,0,6.93,1.6,1.91.68,6.11-.34,6.28,1.23,1.55.74,4.68-.29,5.7-.32.18,4.38,1.88,7.35,3.93-2.47,4.62-1.9,9-2.67,10.54a79.81,79.81,0,0,0-3.62-8.78c-.13-.24-.39-.19-.78-.19-4.91-.44-4.44-4.51-.76-5.55,0,0-7.48-5.61-11.28-6.23,0-.1,0-.23.12-.49a14,14,0,0,0,.93-4.76,20.32,20.32,0,0,0-1-6.42l1.56-1c.31-1.34,2-1.37,2.21-2.32-.37-4.09-8.32-19.77-10-21.54-.63,11.18.58,23.33,0,34.49ZM37,140.24l-1.29,1.07,0-1.69Zm-1.26-2.59.65.49-.65.73Zm80-20q-.18-1.16-.42-2.28a2.15,2.15,0,0,0-.54-4.22,2.63,2.63,0,0,0-.49.06c-.33-1.18-.65-2.19-.9-2.94L113,108c1.16,4.08-1.1,6.27,2.24,9.66,0,.17.29.12.54,0ZM46.84,228.3,26,228.16v-7.71l16-17.13-6.18-.08L36,173.86A29.13,29.13,0,0,0,40.83,171l9.74,5.42.7.36a3.69,3.69,0,0,0-.84.46,3.42,3.42,0,0,0-1,3.85c.82,2.2,2.51,1.8,3.92,1.81,1.17.9,2.17,3.94,3,6a13.54,13.54,0,0,1,.84,2.07,5.88,5.88,0,0,1,.08.88s-.19-.06-.46-.63c-1.56-3.28-5.18-4.87-7.11-1.76-1,1.9-.3,4.08,1.34,4.69a8.26,8.26,0,0,0,2.21,0c.1-.06,1.23,1.61,2.84,7.11.66,2.28.84,7.2.21,7.91-1.07,1.3-1.34,3.13-2.24,4.44-.41.82-.39.31-1-.61-2.19-3.13-6-5.56-9.56-5.4-2.5.1-3.27,1-2.68,1.69a11.76,11.76,0,0,1,2.72,5.12c1.05,4,2.16,7.62,5,10.76Zm10.55-19.14c-.26-.25,0-.64,0-1.33.12-1.77.15-1.79,1.16-1.34a5.92,5.92,0,0,0,6.33-1.7c2.09-2.27,2.15-4.61.85-9.23-1.48-5.19-1.45-5.88.33-6.94,1.07-.92,2.17-2.84,1.76-2.83a.79.79,0,0,0-.33.25,19.47,19.47,0,0,1-1.85,1.45c-2.07,1.43-2.72,2.15-1.77,4.78s1.7,5.13,1.31,5.29c-.19.07-.91-.77-1.35-1a21.16,21.16,0,0,0-3-1.48c-.33,0,0,.23,1,.85,2.49,1.64,3.51,3.13,1.11,2.19a5.17,5.17,0,0,0-3.42,0c-.9.29-1.36.59-1.46.25a35.7,35.7,0,0,1,.09-4.85c0-.11.15-1.2.27-2.43.46-4.67,1.25-8.61,3.29-11.15,6.84-8.48,14.61-6,23.34.78-3.25,9.08-3,16.15-3.83,19a3.05,3.05,0,0,1-2.19-.53A9.24,9.24,0,0,0,75,198c-1.24-.06-1.45.11-1.34-.26s2.08-.87,3.3-1.12c2.22-.47,2.06-1,.19-.82a12.64,12.64,0,0,0-5.89,2.32c-1.39.93-1.44.93-1.07,2.1.09.28.28.71-.39,1s-.59.54-.2.86c.1.07.35.09.45.17s0,.54,0,.6c2.54,2.16,7,2.21,10.71,0a.54.54,0,0,1,.19.76c-.38.85-4.35,1.87-7.16,1.92-1.29,0-1.54-.15-3.47-.74-.79-.25-1.24-.31-1.31-.19-.17.28.12,1.1.73,1.54,2.07,1.49,5.07,1.37,9.17-.27,2.2-.87,2-1.17,1.26,3.18-.2,1.21-.42,2.14-.42,2.14S60.55,210.48,57.39,209.16Zm3-4.09a3.7,3.7,0,0,1-2.49-.79c-.79-.88,0-1.16,1.3-.68A5.52,5.52,0,0,0,64,203c.91-.57,1.1-.26.34.55A5.62,5.62,0,0,1,60.35,205.07Zm14.59-1.52c-1.77,0-3.39-.31-4-1.06s0-.75,1.49-.16a9.45,9.45,0,0,0,7.35-.6c1.21-.6,1.58-.72,1.41,0C80.44,202.81,77.53,203.53,74.94,203.55ZM60.79,203c-1.69,0-3.12-.4-2.86-1.28.1-.32.18-.13,1.39.25a7.71,7.71,0,0,0,4.29-.23c1.44-.42,1.72-.51,1.07.11A6,6,0,0,1,60.79,203Zm-3.44-.86c-1.71-2.64-2-6.52-3.83-8.62-3.36.62-5-2.55-2.12-4.67,1.44-.8,3.19-.2,4.48,1.92a8.74,8.74,0,0,1,1.61,4.53C57.38,198,57.53,199.44,57.35,202.14ZM77,200.93l-.74-.09c-.54-1.84-1.75-2-2.48,0l-.56-.1C74.1,198.36,76.25,198.26,77,200.93Zm1.15,0c-.31,0-.57-.31-.7-.74-.29-1,0-.86.71-.44s1.21.69.81.86A2.68,2.68,0,0,1,78.18,200.89Zm-6.39-.62c-.26-.32-.32-.57,0-.8a6.61,6.61,0,0,1,.88-.39c.3-.1.48,0,.36.41a3.08,3.08,0,0,1-.49,1.11A.89.89,0,0,1,71.79,200.27Zm-9,.22-.59,0c-.62-1.69-2.06-1.64-2.62-.18H59C60,197.67,62,198.14,62.76,200.49Zm1.07-.22c-.57,0-1.12-.82-.81-1.24.31-.26,1.71,0,1.83.56C64.9,199.9,64.39,200.27,63.83,200.27Zm-5.47-.16a.3.3,0,0,1-.26-.3c-.14-.69.68-.94.86-.67S58.63,199.83,58.36,200.11Zm13-7.37a2.69,2.69,0,0,0,1.94-2.93,2.18,2.18,0,0,0-1.45-2.15c-1.65-.38-2.79.78-4.48,1.24-.72.2-.55,1.14-.09,1.55s1.52.2,2.75-.75c2.42-1.86,3,1.72.8,2.35C70.48,192.15,70.64,192.94,71.36,192.74Zm71.47-82.38-.94-.28.94-1.11s0,1,0,1.39Zm-2.62-3.83,1.93-2.19-2.63.2,1.79-1.86-2.74-.12,2-2.09-2.69.06,2-2-2.54-.08L139,96.59l-2.79.21,2-2.21-3,0,2.27-2.06-3,0,.89-1-.79-.41c-.81.38-5.49,1.85-5.65,3,1,.28,4.08-1.28,4.28-1,1.22,5.41,6.48,17.38,9.95,20.87l.25-33.82c.53-.5,1.38-.25,1.92-.47,1.76.09,4.7-2.87,3.16-3.45-.8-.18-5.25-1-5.26-1.17-.55-9.8.33-19.66-.07-30.12-1.25-.19-5.31-.42-5.31-.42s14.91-15.65,15.2-15.34c-.35,16.78-.16,49.56.13,49.68a26.52,26.52,0,0,1-.35,3.06l.33,104.3a2.68,2.68,0,0,0,.26.77c.31.51.33.64.35,2.2a2.41,2.41,0,0,1,0,1.22h0l-10.2-10.84V149.25S134,134.92,131.73,128.3c-4.87-9.86-4.35-24.23-7.3-29.73h-.18c-.07-.8-.08-1.12-.2-1.25-.22-1.79-.46-4.24-.46-4.24l1.07-1.71-1.19-1.53v-4.1l1.59-1.62-1.46-1.86.41-3.82,1.13-1-.64-.87a13.6,13.6,0,0,1,.15-3c.17-1.08,1.22-.93,3.41.19a49.64,49.64,0,0,1,8.71,4.88c-.15,2-2.6,6.53.81,11.53,1.26,1,4.92.61,5.24.75l0,15.42m0,1.78-1.65.29,1.67-1.68Zm-78.63,77c.14,0,.3-.14.52-.38s.6-.19,1.52-.13a3.68,3.68,0,0,0,1.91-.21c.74-.27.76-.27,1.28,0a2.63,2.63,0,0,0,2.06.17,2.6,2.6,0,0,1,2,.09c.57.28.75.23,1-.29a11.29,11.29,0,0,1,.67-1.36c.61-.93.46-1.09-.81-.69a6.09,6.09,0,0,1-3.7-.06,4.15,4.15,0,0,0-3.3.31,2.93,2.93,0,0,1-3.37-.27c-.63-.54-.6-.13-.43,1S63.82,185.17,64.16,185.13Zm43.3-3.93a2.15,2.15,0,0,0,0-4.29C106.9,177.38,106.61,181.11,107.46,181.2Zm-41.16,0a8.14,8.14,0,0,1,5.09-.44c1.58.48,1.2-.71-.51-.86-1.2-.1-1.12-.1-.19-1s-.19-.68-.73-.22-2.34.4-3.31,0c-.43-.2-.47.61,0,.79,1.28.44,1,.48-.42.93-.51.12-.53,1,0,.82Zm41.16-.7c-.68-.25-.25-2.74,0-2.85a1.43,1.43,0,0,1,0,2.85Zm11.37-.09c-.55.19-.93-.72-.93-1.33a1.42,1.42,0,0,1,1.42-1.43c1,.94,1.13,2,0,2.58l-.51.18Zm-5.61-2.1,4.56-4.63-4.47-4.55-4.48,4.65Zm-53.94-1.83a1.19,1.19,0,1,1,1.18-1.19A1.18,1.18,0,0,1,59.28,176.46Zm54-1.56a1.19,1.19,0,1,1,1.18-1.19A1.18,1.18,0,0,1,113.26,174.9Zm-48.41-1.13-3.26-4.42,4-3.6L65.38,168a1.9,1.9,0,0,0-.33,3.64Zm54.33-.25,0-1.2-4.11-4.09,4.07-4.25,0-1.17-5.06,5.42Zm-11.62,0,5-5.18L107.74,163l-.06,1.35,3.8,4-3.88,3.87Zm-72.51-.83a2.2,2.2,0,0,1-2.17-1c-.21-.38-.32-.7-.63-.84-.59-.28-1.4-.09-1.44.11a4.22,4.22,0,0,1,1.12.26c.8.72.67,1.18-.47,1.09-.36,0-1.39,0-1.41-.43-.23-1.39,1.61-2.41,3.95-2.22,1.68.28,1.68-.37,1.8-1.27a6.06,6.06,0,0,1,.54-1.15c.59-1.06.79-.91.37-1.33a3.42,3.42,0,0,1-.91-1.78l0-5.63s3.51,0,4.73.91c1.28,2.34,2.15,7.39.27,10.17a16.64,16.64,0,0,1-2.72,2.11A5.05,5.05,0,0,1,35.05,172.69Zm19.84-.63.13-1.63a1.9,1.9,0,0,0,.29-3.66l.11-1.41L58,169.12ZM65.11,171a1.27,1.27,0,0,1,.21-2.3Zm54.3-.59c1.8-.94,1.18-4.59,0-4.29a2.15,2.15,0,0,0,0,4.29Zm-11.76-.06a2.14,2.14,0,0,0,0-4.28C106.09,166.52,107,170.24,107.65,170.31Zm-52.58-.54.19-2.34a1.27,1.27,0,0,1-.19,2.34Zm64.34-.12a1.43,1.43,0,0,1,0-2.85C119.88,166.71,120.18,169.4,119.41,169.65Zm-11.76-.05c-1-.08-.16-2.51,0-2.85a1.43,1.43,0,0,1,0,2.85Zm-47.78-1.36,4.7-4.71-4.64-5.15-3.86,4.73Zm53.46-.89,4.51-4.67-4.26-4.43L109.09,163ZM143,164.79,141.31,163H143Zm-82.75-.17a1.19,1.19,0,1,1,1.18-1.19A1.19,1.19,0,0,1,60.24,164.62Zm53.12-.65a1.19,1.19,0,1,1,1.18-1.18A1.19,1.19,0,0,1,113.36,164Zm-5.83-1.39,5-5.17-4.81-5.16-.06,1.23,3.85,3.9-3.91,4Zm11.72,0,0-1.31-4-4,4.2-4.25-.17-1.14-5.17,5.37Zm-53.79-1.42-3.6-3.61,3.59-4v2.09a1.9,1.9,0,0,0,0,3.59ZM55.52,161l0-1.47a1.9,1.9,0,0,0-.09-3.7l0-1.17,2.85,3.17Zm83.36-.66s-1.2-1.29-1.61-1.82a2.13,2.13,0,0,0-1.61-3.53,2.1,2.1,0,0,0-.94.22c-.22-.32-1.18-1.66-1.18-1.66l5.66.91Zm-31.32-.86a2.14,2.14,0,0,0,0-4.28C105.42,155.6,105.84,159.35,107.56,159.45Zm11.87-.08c3-.33,2.25-4.22,0-4.29a2.15,2.15,0,0,0,0,4.29Zm-64-.53-.07-2.38a1.27,1.27,0,0,1,.07,2.38Zm52.09-.11c-1.38-.5-1-2.94,0-2.85a1.43,1.43,0,0,1,0,2.85Zm11.87-.08a1.43,1.43,0,0,1,0-2.85A1.42,1.42,0,0,1,119.43,158.65Zm-54-.13a1.27,1.27,0,0,1-.64-1.1,1.26,1.26,0,0,1,.64-1.11Zm71.36-.61-1.65-2.15a1.52,1.52,0,0,1,.49-.09,1.42,1.42,0,0,1,1.16,2.24Zm-76.73-1,3.89-4.7L59.2,148l-3.4,4.22Zm53.23-.56,4.77-4.88L114.72,148l1.87.21,2.7,2.77.06-.92-1.47-1.69,1.57,0c.56-.88-3-.91-5-1.25-2.54-.43-8.06-2.47-6.84-1l1.39.35-1.32,1.59,0,1.2,2.27-2.45.77.18-3.22,3.34.22,1,4-4.08,1.15.26-4,4.14Zm-53.43-2.81a1.19,1.19,0,1,1,1.19-1.19A1.18,1.18,0,0,1,59.89,153.56Zm53.59-.62a1.19,1.19,0,1,1,1.18-1.18A1.18,1.18,0,0,1,113.48,152.94Zm26.76-.34s.31-3.9.48-5.78l-6.17-1.66-.77,6.24Zm2.69-.29-.86,0,.15-3.64.83.9Zm-11.42-1.58s-.62-1-1.33-2.11a2.14,2.14,0,0,0-2.14-3.56c-.27-.52-.79-1.36-.79-1.36l5.29,1.56Zm-66.24-.4-4.16-3.4,3.23-4,.22,1.71a1.9,1.9,0,0,0,.46,3.68Zm71.85-.06a1.19,1.19,0,1,1,1.18-1.18A1.18,1.18,0,0,1,137.12,150.27Zm-83-.37a1.9,1.9,0,0,0,0-3.8C53.69,145.79,53.57,149.36,54.1,149.9Zm0-.64c-.11-.57-.25-2.66,0-2.53a1.27,1.27,0,0,1,0,2.53ZM129.78,148c-.47-.75-1-1.56-1.38-2.29l.26,0a1.42,1.42,0,0,1,1.42,1.43A1.44,1.44,0,0,1,129.78,148Zm-64.84-.33a1.26,1.26,0,0,1-1-1.23,1.28,1.28,0,0,1,.7-1.14Zm-5.63-1.11,3.51-4.74-5.33-4.17-3,5.18Zm80.11-1.93-4-1.17.75-4.08a5.77,5.77,0,0,0,.58,1.18,2.14,2.14,0,0,0,1.86,3.18h.17C139.16,144.26,139.42,144.63,139.42,144.63Zm-5.88-1,1.29-6.51-6-2.42-1.45,6.88Zm-74.91,0a1.19,1.19,0,1,1,1.18-1.19A1.18,1.18,0,0,1,58.63,143.59Zm79.68-.6a1.43,1.43,0,0,1-1.08-1.39,2.28,2.28,0,0,1,0-.26C137.59,141.89,138,142.47,138.31,143Zm-84.75-.18,3.2-6.06-5.44-3.82.38,1.29,3.89,2.87-2.26,4.17Zm77.33-2.19a1.19,1.19,0,1,1,1.18-1.19A1.19,1.19,0,0,1,130.89,140.62Zm-5.63-.61L124,137.79a2.14,2.14,0,0,0-1.27-3.86,2.1,2.1,0,0,0-.51.06l-.92-2,5.54,2.44Zm-72.93,0a1.48,1.48,0,0,0,1.31-.53,1.9,1.9,0,0,0-1.31-3.27C50.9,136.54,51.67,139.84,52.33,140Zm11.46-.52-4.5-3.24,2.63-5.1s.26,1,.6,2.41a1.9,1.9,0,0,0,.8,3.62h0C63.52,138,63.68,138.79,63.79,139.47Zm-11.46-.11c-.78-.24-.52-2.45,0-2.53a1.2,1.2,0,0,1,1.26,1.26A1.27,1.27,0,0,1,52.33,139.36Zm71.34-2.24-1.15-2.46.2,0a1.43,1.43,0,0,1,1.42,1.43A1.4,1.4,0,0,1,123.67,137.12Zm-60.47-.6a1.27,1.27,0,0,1-.53-2.34c.18.74.36,1.54.53,2.34Zm-5.94-.65,3.09-6.13-5.7-3.5L52,132.17Zm76.33-1.18-3.51-1.6,1-3.65.43.89a2.13,2.13,0,0,0,1.56,3.27ZM128,133l1.72-6.13L124.29,124l-2.5,6.17Zm4.61-.22a1.41,1.41,0,0,1-.77-1.27,1.33,1.33,0,0,1,0-.28Zm-76.4-.5a1.19,1.19,0,1,1,1.18-1.19A1.19,1.19,0,0,1,56.25,132.24Zm-5.2-.33,2.61-6.42-6-3.33.45,1.17,4.44,2.57-1.91,4.65Zm74.79-2.14a1.19,1.19,0,1,1,1.18-1.19A1.18,1.18,0,0,1,125.84,129.77Zm-76.68-1a1.9,1.9,0,0,0,1.89-1.9,1.87,1.87,0,0,0-1.89-1.9C47.26,125.06,48.23,128.83,49.16,128.82ZM120,128.6a12.53,12.53,0,0,1-.87-2,2.16,2.16,0,0,0,.93-1.78,2.14,2.14,0,0,0-2-2.14l-.24,0-.34-1.29,4.71,2.49A31.8,31.8,0,0,1,120,128.6Zm-70.81-.42c-.55-.23-.7-2.46,0-2.53a1.27,1.27,0,0,1,0,2.53Zm11.61-.74-4.63-2.67,2.33-5,.69,2.31a1.9,1.9,0,0,0,1,3.47Zm58.08-1.59-.74-2.46a1.29,1.29,0,0,1,1.21,1.4A1.4,1.4,0,0,1,118.85,125.85Zm-58.85-1a1.26,1.26,0,0,1-.64-2.16Zm69.12-.16-3.59-2.11,1.62-4.2.47,1.52a2.13,2.13,0,0,0,1.08,3.46Zm-74.79-.09,2.17-5.85-6.28-3.32-1.57,6Zm74.09-2.14a1.43,1.43,0,0,1-.6-1.17,1.62,1.62,0,0,1,.08-.49Zm-4.69-.29,2.55-5.94L121,112.72l-2.76,6.19Zm-71.37-1A1.19,1.19,0,1,1,53.54,120,1.18,1.18,0,0,1,52.36,121.2Zm-6.21-2.61a2,2,0,0,0,.84-1.68A1.9,1.9,0,0,0,45.1,115a3.91,3.91,0,0,0-.63.07C43.93,115.82,44.7,118.63,46.15,118.59Zm76,.17a1.19,1.19,0,1,1,1.18-1.18A1.18,1.18,0,0,1,122.14,118.76Zm-77.32-3.05a.61.61,0,0,1,.28-.06,1.27,1.27,0,0,1,.79,2.25C44.8,118.72,44.64,115.54,44.82,115.71Zm70.34-1c-.21-1-.45-1.9-.69-2.76a1,1,0,0,1,.3,0,1.43,1.43,0,0,1,.39,2.8ZM49.33,114,51,107.42l-6.29-2.31-1.2,6.23Zm76.63-.09-3.34-2.32a32,32,0,0,1,2-4l.26,1.21a2.15,2.15,0,0,0,.82,3.87Zm-70.54-.32a1.25,1.25,0,0,1-1.25-1.26.84.84,0,0,1,.5-.86c.27.62.65,1.24,1,2.08A.73.73,0,0,1,55.42,113.59Zm70.1-1.73a1.43,1.43,0,0,1-.48-2.27Zm-5-1,3-5.29-4.44-3.42-3.47,5.29Zm-73.3-.18a1.19,1.19,0,1,1,1.19-1.19A1.19,1.19,0,0,1,47.21,110.72Zm-5.44-1.65-.77-1.2a1.89,1.89,0,0,0-1.51-3,1.84,1.84,0,0,0-.41,0l-.62-1,3.94,1.42Zm77.84-1.41a1.19,1.19,0,1,1,1.18-1.19A1.18,1.18,0,0,1,119.61,107.66Zm-79-.38-1.16-1.82h0A1.19,1.19,0,0,1,40.62,107.28Zm73.32-.08,4.29-5.72-5.69-4.24.09,1.27,4.16,3-3.17,4.24Zm-62.62-1.93-5.67-1.79,1.21-5.65,1.34,2.23a1.91,1.91,0,0,0-.59,1.38,1.89,1.89,0,0,0,1.88,1.9,2,2,0,0,0,.61-.1Zm61.67-1a2.14,2.14,0,0,0-.22-4.27.37.37,0,1,0,0,.72,1.42,1.42,0,0,1,.09,2.84l.11.71Zm-69.36-.6,1-6.54L38.2,95.76l-.48,5.93Zm80.18-.16-3-2.25L123.08,98l.13.93a2.15,2.15,0,0,0,.5,3.77Zm-74.32-.82a1.26,1.26,0,0,1-1-2.08l1.22,2A1.12,1.12,0,0,1,49.49,102.7Zm20.24-.88c-.17,0-.41-.08-.36-.18s1.08-1.24,1.08-1.24l-.12-1.05-1.82,2.07-.73-.27,2.56-2.61.11-1-3.4,3.37-1.45-.41,4-3.92L65,92l-4.56,4.68,3.24,3.57-1.6-.15a9.79,9.79,0,0,0-2.67-2.67l.13.93c.06,0,1.5,1.37,1.28,1.6l-1.28-.1c-1.5.41,1.83,1,5,1.51,1.66.06,6.52,2.21,5.36.57l-.21-.07Zm53.86,0a1.42,1.42,0,0,1-.58-1.14,1.43,1.43,0,0,1,.31-.89Zm-82.31-1.14a1.19,1.19,0,1,1,1.18-1.18A1.18,1.18,0,0,1,41.28,100.72Zm77.6-.11,3.69-4.71-4.18-4-4.28,5ZM36.09,99.4l-.29-.05V96.14l.46.1Zm28.78-1.49a1.19,1.19,0,1,1,1.18-1.19A1.18,1.18,0,0,1,64.87,97.91Zm53.44-.34a1.19,1.19,0,1,1,1.18-1.19A1.18,1.18,0,0,1,118.31,97.57Zm-5.69-.93,4.76-5.71-5.11-5.31v1.19l4,4.18-3.72,4.37Zm-53.26-.53,4.91-5L59.38,86l-.12,1.15L63,91,59.5,94.68Zm10.78-.51V94.24L67.06,91.1l3.14-3.23,0-1.37-4.46,4.62ZM45,95l-5.77-1.09.35-5.49L41,90.11a1.9,1.9,0,0,0,1.51,3,1.78,1.78,0,0,0,.83-.2Zm77.8-1L120,91l2.72-3.09,0,1a2.15,2.15,0,0,0-1.29,2,2.12,2.12,0,0,0,1.37,2Zm-10.55-.76a2.15,2.15,0,0,0,0-4.18v.75a1.43,1.43,0,0,1,0,2.68Zm-41.83-.2c.88-.59.49-3.86,0-3.81a1.91,1.91,0,0,0,0,3.81Zm-11.18-.32a1.9,1.9,0,0,0,0-3.8C58.44,89.23,58.78,92.56,59.27,92.75Zm-16.76-.24a1.26,1.26,0,0,1-1.26-1.26,1.35,1.35,0,0,1,.17-.63l1.5,1.82A1.14,1.14,0,0,1,42.51,92.51Zm27.94-.08a1.27,1.27,0,0,1,0-2.53C70.39,90.35,70.69,92.48,70.45,92.43Zm52.34-.29a1.44,1.44,0,0,1-.64-1.19,1.47,1.47,0,0,1,.59-1.17Zm-63.52,0c-.16-.51-.35-2.62,0-2.53a1.27,1.27,0,0,1,0,2.53ZM65,90.28l4.6-4.61-4.7-4.82-4.44,4.76ZM118.06,90l4.12-4.47-4-5.18L113.55,85Zm22.33-.16c-1.27,0-2.45-.22-2.93-1.07-1.94-2.61-1.38-8,0-9.82,3-2.76,4.72-3.49,8.13-2.86-.39,1.55,1.24,2.38,1.48,2,0,0,.16-.27,0-.29a1.18,1.18,0,0,1-.94-1.56c1.3,0,2.14,0,2.27.6.08.36-.12.91-.88,1.53s-5,.7-5,.7A4.69,4.69,0,0,1,142.1,81c-.36.59-.86,1.25-.51,1.52a2.08,2.08,0,0,1,1.07,1.71c.16,1.61-.09,5.47,0,5.52C141.94,89.79,141.15,89.87,140.39,89.87Zm-75.4-3a1.19,1.19,0,1,1,1.18-1.19A1.18,1.18,0,0,1,65,86.88Zm53-.46a1.19,1.19,0,1,1,1.18-1.19A1.18,1.18,0,0,1,118,86.42ZM59.37,85.3l4.81-4.93L59.05,75l.16,1.44L62.9,80.3l-3.61,3.79Zm10.86-.09.13-1.37L67,80.24l3.09-3.19,0-1.55-4.55,4.82Zm52.65-1.86-2.72-3.84,3.24-2.85-.08,1.09a2.15,2.15,0,0,0-.32,4.07Zm-10.18-.76c.07-.79.11-1.44.15-2a2.16,2.16,0,0,0,1.53-2.06,2.14,2.14,0,0,0-1.24-1.94c.06-.62.13-1.3.24-2.15l3.25,4.78Zm-76.88-.22L35.71,69,26,58.87V21.1H65.77L76,38.44c.2.35.5.23.72.56l-3,16.29c-4.77-2.21-8.79,3.51-6.19,8.15C52.78,68.85,35.82,82.37,35.82,82.37Zm23.52-.08a1.9,1.9,0,0,0,0-3.8C58,79.12,58.67,82.27,59.34,82.29Zm11-.11c.53-.6.83-3.83,0-3.8a1.92,1.92,0,0,0-1.89,1.9A1.9,1.9,0,0,0,70.34,82.18Zm-11-.52c-1-.74-.09-2.36,0-2.53a1.27,1.27,0,0,1,0,2.53Zm11-.12a1.26,1.26,0,0,1,0-2.52C70.27,79.23,70.66,81.46,70.34,81.54Zm52.72-.5a1.42,1.42,0,0,1,.2-2.52Zm-10.15-1.27c.06-.91.1-1.66.16-2.41a1.39,1.39,0,0,1,.59,1.15A1.42,1.42,0,0,1,112.91,79.77Zm-47.86-.44,4.48-4.51-4.67-4.88-4.44,4.73Zm53.35-1.17,4.7-3.79-3-4.66-1-.64-4.3,3.7Zm18.86-.31L126.2,71.91s2.87-1.2,2.79-3.13c-.12-2.15-1.4-3.91-4-3.25-.58.08-.85-.16-1.41-1.48-1.08-2.54-2.15-5.32-1.73-5.23a8.44,8.44,0,0,0,2.75,1.87,3.12,3.12,0,0,0,3.85-4.22c-.88-2.08-2.34-2.2-3.8-2a1,1,0,0,1-.54-.56,22.52,22.52,0,0,1-1.72-5.22c-.85-4-1-9-.42-10.26.86-1.74,2-4.1,2-4.1,2.31,4.42,7.33,8.3,13,6.93.19-.12.23-.75,0-1.11-1.83-2.42-2.14-4.64-2.8-7-1.67-6.09-5.06-9.58-5-8.95L131,21s15.35-.07,21.64,0v7.42l-16.46,17,6.52.27-.23,29.23C140.06,75.35,137.26,77.85,137.26,77.85ZM65,76a1.19,1.19,0,1,1,1.18-1.19A1.18,1.18,0,0,1,65,76Zm53.93-1.21a1.19,1.19,0,1,1,1.18-1.18A1.18,1.18,0,0,1,118.9,74.77ZM70.25,73.68l-.12-1.17L66.9,69.1l3-3.06c.44-.6,1.56-.47,1.91-.51-.25-.75-.92-.66-1.6-1l-4.36,4.48Zm0-2.65c.78-.24.64-3.6,0-3.8a1.9,1.9,0,0,0,0,3.8Zm-11.1-.51a7.9,7.9,0,0,1,0-2.53,1.27,1.27,0,0,1,0,2.53Zm11.1-.12a1.27,1.27,0,0,1,0-2.53C70.37,68.16,70.65,70.36,70.2,70.4Zm38.9-.61a2,2,0,0,1,.65,0c.66,0,1.47.47,1.65.38s.14-.53.13-.72-.52-.24-.73-.37-.24-.3.14-.39.6-.1.81-.4.14-.52-.08-.52c-1.31,0-3,.56-4.54,0-.9-.33-1.48-.53-1.62-.4-.3.26.75,1.26,1.75,1.45s1.38.11,1,.42c-.17.15-.4.09-.42.21a.63.63,0,0,0,.46.68c.3,0,.53-.26.75-.35Zm-5.63-3.16a1,1,0,0,0,.46-.25c.6-.4,1.54-.93,3.79-.31a6.06,6.06,0,0,0,3.44-.18,3.49,3.49,0,0,1,2.26,0c.71.34,1.48.86,1.34.33a12.24,12.24,0,0,1-.09-1.39c0-1.09-.1-2-.88-1.14-.34.37-.75.37-1.52.07-.55-.22-.94-.37-1.36-.09a2.17,2.17,0,0,1-2.23.12,1.91,1.91,0,0,0-1.75.21c-1.11.69-1.81,0-2.24-.68-.33-.55-.5.24-1.12,1.89C103.25,66,103.15,66.63,103.47,66.63Zm5.31-6.13c.6-.34,1.44-.45,2-.85,1.3-.9.08-1.65-.81-1.46a3.87,3.87,0,0,0-1.27.58c-1.62,1.08-2.52.93-2.67-.38s2-2.06,1.8-2.72c-.27-.42-1.33.16-2,1C104,59.36,106.1,62,108.78,60.5Zm-8.4-7.43a17.42,17.42,0,0,0,7.17-2.57c1.31-1,1.66-1.28,1.11-1.69s-.89-.39-.2-1.1a3.88,3.88,0,0,0,.67-.89c0-.52-3.11-2-4.89-2.28a11.4,11.4,0,0,0-4.79.52c-1.58.64-1.63,1.07-.14.63a11.43,11.43,0,0,1,4-.5,12.52,12.52,0,0,1,3.23.75c1.91.69,1.58,1.48-.35.8A9.65,9.65,0,0,0,98.5,47c-1,.47-1.31.84-1.5.68a1.82,1.82,0,0,1-.18-.37c-.06-.17-.07.44-.16,1.4-.08.8-.15,1.86-.15,1.86a3.12,3.12,0,0,0,.15-.66c0-1.39.65-1.4,2.56-.33,2.23,1.23,3.32,1.11,5.45,1.1.93,0,1,.26-.34.7-.62.21-1.58.54-3,1C100.14,52.71,99.82,53.13,100.38,53.07Zm16.87-2.81c-.81,0-1.54-.7-1.75-2l.81.06c.27,2,1.71,1.55,2.28.36l.71,0A2.54,2.54,0,0,1,117.25,50.26Zm-2.06-.13a4.67,4.67,0,0,1-2-.94c-.1-.25.48-.52,1-.67s.46-.2.65.15S115.59,50.11,115.19,50.13Zm3.89-.09a1.79,1.79,0,0,1,.78-1.11.4.4,0,0,1,.38.68c-.29.15-1.1.73-1.16.43Zm-15.69-.11a2.26,2.26,0,0,1-2.06-2.23h.52c.48,2.57,2.44,2,2.88.16l.61.17c-.51,1.33-1.25,1.86-2,1.89Zm2-.18c-.28,0-.25-.21.09-.89.16-.32.27-.51.55-.5a1.07,1.07,0,0,1,.83.49c.13.29-.18.53-.84.74a4,4,0,0,1-.63.16Zm-4.31-.19a3.28,3.28,0,0,1-1-.35c-1.32-.58-1.48-.82-.79-1.15a6.78,6.78,0,0,1,.77-.33c.61-.2.6.14.76.57.09.24.21.47.33.72S101.32,49.56,101.1,49.56Zm19.28-2.17a15.94,15.94,0,0,1-1.64-.64,6.8,6.8,0,0,0-4.57.28c-.75.24-1,.39-.71-.05A6.09,6.09,0,0,1,116,45.74c2-.49,4.53.44,4.53,1.44,0,.15-.07.21-.17.21Zm-6.46-1.66c-.19,0,0-.3.41-.77A4.66,4.66,0,0,1,117,43.57c2.1-.37,3.84.2,3.86,1.39,0,.85-.14.86-1.17.32a6.78,6.78,0,0,0-4.45-.05,7.48,7.48,0,0,0-1.16.49ZM97.78,44.59c1.6-.43,3.29-.85,4.83-1.15A9.81,9.81,0,0,1,108,44c.93.46,1.26.19.85-.71a2.87,2.87,0,0,0-1.87-1.62c-1.74-.61-5.81.38-8.83,1.95-1.76.79-1.42,1.27-.32.93Zm26.25-12-2.72,4.64c-18.42-3.58-38.35-1-44.45-.13,0,0-6.66-11.08-9-15-.23-.41-.85-1.81-.85-1.81l62.89,0c-.88,1.78-1.72,4.08-1.72,4.08,1.92.77,3.41,3.66,4.34,6.1.81,2.13,2.21,7.35,4.05,9.9C133.3,42.25,125.18,38.14,124,32.55Z" transform="translate(0.1 0.1)"/><path id="path3302-0-9-2" class="cls-4" d="M67.5,20.8h62.28l-8.11,16.31a144.49,144.49,0,0,0-44.82.33L67.5,20.8ZM152.65,34l.13,7.82-8.07-.18ZM84.55,86.6l-.09,23.73A102.2,102.2,0,0,0,74.72,104l.12-24.56Zm27.15,5.19c.57,13.42,2.51,18.66,3.77,25.46l-11.55,7.51,0-27.55Zm31.57,23.54-.06,33.05c-10.62-15.35-17.33-30.95-19.18-52,2.89-1.17,5.71-2.46,8.67-3.51a137,137,0,0,0,10.57,22.46ZM35.77,101.72c9.81,12.53,15.66,29.23,18.75,49.81l-9,4.38c-3-7.26-6-15-9.78-21Zm38.34,22.17,0,27.64-7.67,5A129,129,0,0,0,62.62,131Zm20.18,14.55a48.78,48.78,0,0,0,9.06,5.62l-.47,24.52-8.66-6.7ZM33.45,207.53s-5.4,5.51-7.4,7.3L26,207.35Zm68,3.57,10.07,17.27-63.1.53,8.1-17.39C73.21,214.58,87.51,213.2,101.43,211.1Z" transform="translate(0.1 0.1)"/><path id="path3300-3-9-0" d="M72.51,55.73A8.09,8.09,0,0,0,69.4,59c-1.09,2.16-.1,4.28-.43,4.29-2-.61-1.43-4.47-.73-5.66a4.17,4.17,0,0,1,2.91-1.94c1.16-.2,1.36.07,1.36.07Zm-3.28,8.44a.93.93,0,0,1,.85.34,1.6,1.6,0,0,0,1,.61c.32,0,.47,0,.47.19s-.14.16-.67.11c-.31,0-1,.48-1,.48v36.48a43.5,43.5,0,0,0-10.4-2.26L59.32,67.6s-4.8,2.53-6.55,3.54l-.06,29.11-3.41.38,5.38,11c.75-.58,11.34.41,14,2.14L59,119.81c1,3,1.88,5.88,2.7,8.93,0,.09.2.09.23.18.19.74.34,1.08.52,1.83,0,.13,0,.36,0,.5a111.16,111.16,0,0,1,3.79,25.31c0,.08-.34,0-.34,0l.06,5.22.35-.23,0,2.37-.35.34c0,.46,0,1.33,0,1.33l.45.28-.23,4-.46.07-.25,6.27,12.23-8s8,5.75,11.47,8.73c-3.84,2.63-4.86,7.75-5.81,12a70,70,0,0,0-1.57,11.19,108.84,108.84,0,0,1-1.46,11.28c-.3,1.48-.29,1.64.14,1.67.15,0,0,.06-.34.11-7.85.31-16.27-.86-23.75-1.84,0,0-1.85,3.47-2.49,4.74a17.09,17.09,0,0,0-.77-2,13,13,0,0,0-4.76-4.56,13.88,13.88,0,0,0-3.86-1.3,6.37,6.37,0,0,0-2.88.48c-.31.13-.55.3-.56.46s.25.33.56.63a4.6,4.6,0,0,1,.79,1.1,27.1,27.1,0,0,1,1.84,4.71c1.3,3.46,2.27,7.65,5.27,9.49l-2.07,4.16,65.08,0L102.4,212.2l-.4-.69c-.3-.54-.42-.46-.42-.46q1-8.94,2.82-17.6s.13.46,2,.43c5.6-.08,7.56-6.34,2.88-9.11-.44-.26-1.19-.76-1.93-1.16-.21-.11-2.9-1.69-2.9-1.69l3.22,1.45.23-37.53s6.71,2,11.13,2.22l0,32.54,6.17-3.35.28-29.1,3.38-.22s-1.28-2.74-1.56-3.31c-.58-1.16-2-3.72-3-5.34-.34-.58-1.16-1.85-1.16-1.85a34.73,34.73,0,0,1-13.31-2.68l9.7-6.34c-4-11.48-9.1-28.28-6.29-55.39l-.67.44-.19,2.92L100.3,84.73,85.41,72.67l1.32,0c3.8.13,6.48-3.77,7.39-7,1.62-5.75,1.83-7.16,2.58-16.28a81.85,81.85,0,0,1,1.73-10.52,7.49,7.49,0,0,0,.32-1.9,90.29,90.29,0,0,0-21.42,1.88s-2.51,12-3.4,17a4.48,4.48,0,0,0-2.36-.68c-5.87.64-5.37,8.74-2.34,9ZM95.38,228.11,92.3,217.25l7.54-.71L106.11,228ZM49,228.26l7.75-16.54c16.27,2.3,25.66,2.52,44.54-.17L111.12,228l-2.59,0-7.4-13.16-11,1.1,3,12.05-2.9.09-3-11.83-17,.09-1.62,11.71-3.14,0,2.09-12-10.05-1.27-5.8,13.38Zm21.82-.15,1-10.06,14.07-.1,2.25,10.17Zm-17,.19,4.77-11.93,7,.93-1.91,10.84Zm-8.59-11.69c-.31-1-.62-2-.7-2.22-1.13-3.1-1.6-4.12-2.34-5.15-.12-.17-.16-.15,0-.3,3.42-1.68,9.6,2.46,11.09,6.25l-1,1.9c-.43-.85-.1-1.68-.39-2.44-.07-.33-.77,2.19-.77,2.19a7.17,7.17,0,0,1-.77-3.27c0-.33-.89,1.44-.89,1.44a7.79,7.79,0,0,1-1-4.07c-1.24,1.52-.46,2.38-2.38-1.47-.22.4-.11.82-.4.71a7.29,7.29,0,0,0-2.46-.8c.56.71,1.65,1.08,2,2a5.44,5.44,0,0,0-.92,0,7,7,0,0,1,2.66,2c-.22.08-1.11-.07-1.07,0,1.33,1.2,3.32,2.17.44,1.9,1.87,1.32,3.95,2.24.7,2.14,2.32,1.1,3,1.78,2.51,2-.24.11-.93-.31-2,.05,1.87.76,2.63,1.11,2.71,1.36s-.8.47-1.4,1.13c0,0,.75-.17,1.07.18,0,0-.36,1.05-.64,1.66-2.37-2.16-3.3-5.22-3.92-7.19Zm-20,4.2,15.65-17-5.06-.07L35.59,173c-1.77-.24-4.83,0-6-1.19-.72-1.07,2.07-3.17,3.63-2.73a6.45,6.45,0,0,0,2.34.06L35.46,135c3.35,6.24,5.9,10.19,9.6,21-1.07.75-2.17,1.33-2.36,1.46,1.43,3.45,2.41,8.87.43,13.6l-1.37-.82a16.1,16.1,0,0,0-.27-11.09l-.38.39a10.85,10.85,0,0,1,.67,1.66,9.84,9.84,0,0,1,.57,2.81,15.12,15.12,0,0,1-.42,4.87c-.15.48-.36,1.2-.47,1.42a2.59,2.59,0,0,0-.22.48c4,1.65,6.92,4.05,10.39,5.76l.33.17c.44.25.33.33-.36.61-1.45.58-2,1.28-2,2.7,0,2,1.11,2.79,3.45,2.66.85-.05.91,0,1.06.26.35.68,1.58,3.4,1.58,3.5a10.74,10.74,0,0,0,.57,1.36,17,17,0,0,1,1.26,3.35c.11.56.44.79.52.2a33.32,33.32,0,0,1,2.3-9.22,12.05,12.05,0,0,0,.56-1.45c-.11-.09-2-1-2.84-1.32-3.41-1.41-4.95-2.28-4.43-2.49s.5-.4.59-1.13c.25-1.91.22-2.88-.1-3.49s-.32-.67.22-1,.37-.31.5-1.9a21.2,21.2,0,0,0,.05-3.1L54,165.1,54.9,164l.19-5-1.16-.89L55,157.1l-.39-4.52A2.19,2.19,0,0,1,55,152c-1.84-19.1-9-38.35-19.63-51.47l-.1-31.38L24.78,58.59Zm.82-2v-2.48l8.87-9.61-8.87-.15v-2.1l13.62,0Zm.13-4.2,0-6.93h6.63Zm60.87-3.49-1.38.05c0-1.39.6-7.84,1.26-13.48.74-6.37,2.26-11.86,2.55-11.86l1.34.82c-2.22,7.3-2.81,16.69-3.77,24.47Zm-6.28.2c.2-3.94,1-6.7,1.27-11.36.31-5.69,1.28-12.78,3.83-18.65a8.73,8.73,0,0,1,4.67-4.72c3.89-1.53,7.2,3.32,4.57,6.9-2.09,2.82-5.35,2.78-6.34-.07C88,181,90.58,178.07,92.68,179c1.46.64,1.09,3.28-.55,3.9-.68.26-1.25-.61-.92-1.38.27-.61.29-1-.06-.74-1.48,1-.37,3.55,1.47,2.62,2.45-1.25,2-4.92-.43-5.08-3.13-.3-5.54,3.57-7.08,10.92-1.7,8.22-1.27,15.58-2.9,22Zm4-.14-1.65.05c.14-.61.16-1.26.27-2,.65-4.32,1-10.61,1.7-15.55.93-7,2.61-11.2,2.65-10.68a7.51,7.51,0,0,0,1.13,2.2A52.23,52.23,0,0,0,86.06,198C85.55,202.62,85.41,206.92,84.77,211.16Zm7-.4-1.44.07a155.65,155.65,0,0,1,2.7-21.19c.25-1.09.33-1.56.53-1.65s.61.27,1.53.78C93.71,188.57,92.59,204.47,91.79,210.76Zm-2.25.13-1.56.16c.23-3.34.79-8.59,1.42-13.32.76-5.72,1.75-10.79,2.25-10.72l1.3.46C92.08,187.19,89.93,204.26,89.54,210.89Zm3-.16c1-7,1.12-15.16,3.24-21.69l1.46.69c-.4-.13-1.44,4.25-1.79,9.2-.31,4.31-1.08,9-1.31,11.61Zm2.42-.26c.58-2.47.58-6.1,1-9.14.54-3.75,1.11-11.38,2-11.21l1.49.76c-.78-.23-2.15,14.22-3,19.36Zm3.94-.61-1.52.21c.73-5.65,2.05-18.81,2.84-18.9l1.42.76A172,172,0,0,0,98.87,209.86Zm.94-.22c.63-6.2,1.22-12.49,2.54-17.31l1.55.71s-1.08,5.3-1.59,9-.58,4.2-.74,5.16a10,10,0,0,1-.46,2.19Zm-66.73-6.36.15-29.79,1.72.07-.07,29.77ZM29,203.05a1.19,1.19,0,1,1,1.18-1.19A1.18,1.18,0,0,1,29,203.05Zm27.82-10.94c-1.22-2.25-2.16-3.07-3.24-3.5a2.91,2.91,0,0,0-3.65,3.81c.51,1.41,1.82,1.62,3.47,1.34,0,0,.71.51,1.55,3.05a53,53,0,0,0,2.54,6.13C57.59,199.15,58.47,195.21,56.82,192.11Zm-29.57,8.17a1.19,1.19,0,1,1,1.18-1.19A1.19,1.19,0,0,1,27.25,200.28Zm3.24-.05a1.19,1.19,0,1,1,1.18-1.18A1.18,1.18,0,0,1,30.49,200.23Zm26.47.29c-1.09-2.28-1.33-4-2.39-6.07-.46-.91-.88-1.68-.88-1.68-3.47,1.64-4.81-2.5-2-3.81s5.89,3.63,5.58,8.95a19.42,19.42,0,0,1-.32,2.61Zm-28-3.08a1.19,1.19,0,0,1,0-2.38,1.19,1.19,0,0,1,0,2.38Zm-3.12-2.24v-2.53l6.17-6v2.45Zm81.12-1.95c-1.18,0-1.74-.37-1-.68,2.59-1,3.74-2.68,3.88-5.56,0-1.46-.17-1.65.72-.84C112.85,189.38,109.57,193.27,106.93,193.25Zm-2.17-1a2.5,2.5,0,0,1-.85-.12c-.7-.22-.44-.23.73-1,2.23-1.49,2.91-3,3-5.93,0-.45-.07-.83,0-1s.21-.1.31-.1a1.23,1.23,0,0,1,.81.91c1.41,2.84-1.2,7.15-4,7.26Zm-2.41-1a1.28,1.28,0,0,1-.5-.09c-.54-.28-.34-.32.66-1a7,7,0,0,0,2.85-5.23c.14-1.34-.89-2.93.93-1.62,1.27,1.07,1,3.84-.34,5.74a5.65,5.65,0,0,1-3.6,2.23Zm-76.54.58v-2.89L32,183v3Zm74.56-1.5c-.7,0-1-.46-.2-1a6.94,6.94,0,0,0,3.08-6.19c-.11-1.52-.17-1.79.8-.78,1.55,1.61.45,6-2.56,7.64A2.41,2.41,0,0,1,100.37,190.3Zm-2.05-.85c-1.15,0-1.31-.55-.28-1.28a7.57,7.57,0,0,0,3.24-6c0-1,.07-1.15.52-.81,2.27,1.74-.16,7.82-3.23,8.09Zm-40.57-.19c-.28,0-.79-1-1.57-3.12a21.53,21.53,0,0,0-2.25-4.68,1.84,1.84,0,0,0-.77.27c-2.59,1.37-4.41-2.51-1.86-3.95,1.82-1,3.53.08,5.11,3.29,1.86,3.78,2.38,6.59,1.47,8.11a.12.12,0,0,1-.13.08Zm38.47-1a1.67,1.67,0,0,1-.9-.19c-.67-.35-.57-.61.45-1.22a5.18,5.18,0,0,0,2.09-1.94A5.41,5.41,0,0,0,99,181c0-1.52.45-1.6,1.35-.25,1.55,2.32-1.56,7.35-4.1,7.46Zm-2.59-1.36c-1,0-1.68-.39-.71-.91,3.09-1.64,4.39-4,3.8-6.91-.18-.91.85-.14,1.48,1.1.92,1.81-.78,5.31-3.09,6.38a3.66,3.66,0,0,1-1.48.34ZM58.71,184.2c-.19,0-.42-.53-.91-1.81-.32-.83-.76-1.82-1-2.21a2.24,2.24,0,0,1-.33-.8c.18-.29,1.61.2,2.1.72a3.76,3.76,0,0,1,.47,3.63c-.14.3-.25.48-.37.47ZM29,182a1.19,1.19,0,0,1,0-2.38A1.19,1.19,0,0,1,29,182Zm121.12-1.92a1.19,1.19,0,1,1,1.18-1.19A1.18,1.18,0,0,1,150.12,180.09Zm-48.8-.35c-1.29,0-1.69-.57-1.91-2.54-.14-1.35-.43-1.48-2.55-1.12s-3-.23-3.14-2.56c-.12-1.84-.11-1.82-2.65-1.84s-2.76-.27-3-2.85c-.21-1.91-.14-1.86-2.6-1.83-2.72,0-3-.16-3.15-2.58-.15-2-.28-2.09-2-1.95a35.62,35.62,0,0,1-5.37,0c-1.45-.32-1.51-.26-1.82,1.71-.41,2.58-.92,2.91-4.08,2.59-1.56-.16-1.74-.13-2,1.25-.29,1.83-.66,2.37-.66.78,0-4,.28-4.2,2.94-3.49,2,.54,2,.13,2.24-1.81.19-1.71.47-2.41,1.1-2.68a6.64,6.64,0,0,1,2.77.16,30.56,30.56,0,0,0,3.64.09c4.43,0,4.48-.06,4.47,3.07,0,1.31.29,1.6,2.61,1.53,2.91-.09,2.75-.17,3.25,3.34.17,1.22.27,1.27,2.68,1.23,2.62,0,3.22-.07,3.06,2.15-.14,2,.35,2.55,2.54,2s2.78.45,3,2.25.36,1.26,1.47,1.35,1.09,1.49-.22,1.62l-.61.06Zm-74.15-.61a1.19,1.19,0,1,1,1.18-1.19A1.18,1.18,0,0,1,27.17,179.13Zm3.33-.07a1.19,1.19,0,1,1,1.18-1.19A1.18,1.18,0,0,1,30.5,179.06Zm117.85-2a1.19,1.19,0,1,1,1.18-1.18A1.18,1.18,0,0,1,148.35,177.08Zm3.31,0a1.19,1.19,0,1,1,1.18-1.19A1.18,1.18,0,0,1,151.66,177.06Zm-61.71-1-12.28-9.22-11.62,7.82.07-2.85,11.54-7.71,14.56,11.33Zm-61.11-.14A1.19,1.19,0,1,1,30,174.72,1.19,1.19,0,0,1,28.84,175.91ZM49,174.35,46,169.6,49,167.47l-2.65-3.4,2.85-2.94-3.13-2L49,155,53,153.21,49,158.57l3.36,2.32-3.19,3.45L52,168.11l-3,2.33,3.2,5.28L52,176Zm53.83,1.05L81.21,159.18s-2-1.51-2.57-1.88c-1.21-.77-1.45-.46-2.66.37-2.72,1.63-9.32,6.15-9.32,6.15l0-2.34s6.64-5,10.31-7.07a1.37,1.37,0,0,1,1.47.29c8,6.38,16.22,12.57,24.34,18.82Zm-49.57-.25c-.09-.17-.38-.23-.52-.45L50,170.57l3-2.42-2.78-3.67,3.48-3.56-3.56-2.43a34.7,34.7,0,0,1,3.88-5l0,2.64-1.43,1.73L54.3,159v3.63l-1.66,1.77L54.16,166l-.27,4-1.45,1.16,1.2,1.65Zm96.86-.81a1.19,1.19,0,1,1,1.18-1.19A1.18,1.18,0,0,1,150.07,174.34ZM26,170l6-5.58V167l-6,5.93Zm120.6,2.72v-3.06l6.41-5.95v3ZM26,169.23v-3l6-5.67v3Zm7.06-.48L33,70.11l-7-7.42V60.23l8.81,9.19L35,168.67Zm113.54.29v-3.43l6.41-5.88V163Zm-43.84-.63-8.48-6.63,0-23.13a55.26,55.26,0,0,0,8.79,5.46Zm-74-7.48A1.19,1.19,0,1,1,30,159.75,1.18,1.18,0,0,1,28.83,160.93Zm62.94-1.13,0-23.6,1.67,1.53.1,23.41Zm57.89-.23a1.19,1.19,0,1,1,1.18-1.18A1.18,1.18,0,0,1,149.66,159.57Zm-122.4-1.68a1.19,1.19,0,0,1,0-2.38,1.19,1.19,0,0,1,0,2.38Zm3.36-.15a1.19,1.19,0,1,1,1.18-1.18A1.18,1.18,0,0,1,30.62,157.74Zm60.2.12L85.65,153,91,147.92l0,2.34-3,2.88,3,3.1Zm-2-.43-4.31-3.2.67-.82Zm59.05-.72a1.19,1.19,0,1,1,1.18-1.18A1.18,1.18,0,0,1,147.91,156.71Zm3.46-.06a1.19,1.19,0,1,1,1.18-1.19A1.18,1.18,0,0,1,151.37,156.65Zm-84.73-.43c-.83-9.44-1.41-16-3.83-24.88L74,124.17l-.1,27.35ZM35.9,134.62,36,102.19c10.52,15.06,16.2,32.66,18,49.34,0,0-5.65,2.62-8.39,4.23C42.68,148.91,43.93,148.92,35.9,134.62Zm-7.21,20.23a1.19,1.19,0,1,1,1.18-1.19A1.18,1.18,0,0,1,28.69,154.85Zm120.92-1.27a1.19,1.19,0,1,1,1.18-1.19A1.19,1.19,0,0,1,149.61,153.58Zm-65.8.1-4.09-3.14v-2.38l4.89,4.74Zm1.4-1.25-5.12-5.09L85.46,142l5.3,5.05Zm-38.56-.18,4.94-2C49.7,133,44.8,120.1,38.19,109.65L38,133.78c3.42,5.43,6,12,8.61,18.47Zm-20.75-.36v-2.7L32,143.52v2.69Zm59.32-1.49,3.26-3.2L85.2,144,82,147.2Zm61.42.36v-2.88l6.11-5.93V145Zm-68.7-1.62,0-27.54,1.35-.64-.09,28.77Zm7.34-.41-1.48-1.5,1.55-1.57,1.46,1.5Zm-59.38-.29v-3.12L32,139.55l.11,3Zm68-11.71c-6.34-5.52-11.21-13.89-16.56-18.58A39.19,39.19,0,0,0,67,112.42a29.28,29.28,0,0,0-9-1.51l-2.58-.06-1.09-1.95,1.8,0,.12-6.88a32.74,32.74,0,0,0-5.62.25L50,101a45.31,45.31,0,0,1,33.66,9.6c3.52,2.91,6.38,6.46,9.86,11.63,6.69,10.5,18.49,15.58,29.47,15.69l.91,1.43-1.83-.07a29.83,29.83,0,0,0-.21,3.57c0,2.53,0,3,.18,3.05a25.18,25.18,0,0,0,5.23-.1l.82,1.48c-13.09,1.36-26-3.22-34.14-10.59Zm52.74,10.37v-2.82l6.11-5.79v2.83Zm-67.07-.24.16-2.52,2.91-2.9-3.09-3,.07-2.11,5.46,5.09Zm39.86-.9c.28,0,.45,0,.48-.08s0-1.2.27-5.13c.09-1.43.19-1.44-1-1.58-1,0-3.26-.62-4.76-.8-1.26-.17-1,.22-1.35,1.24s-.6,2.09-1.08,3.67-.24,1.5,2.6,2A35.3,35.3,0,0,0,119.43,146Zm-28.38.24-4.94-4.95,4.86-5,.08,2.4a35.47,35.47,0,0,0-2.88,2.74L91,144.36Zm24.76-1.6-.53-.88-1.27-.21.22-.89-.64-.92.79-.6,0-1.11,1,0,.87-.62.68.87,1,0-.05,1.24.64.55-.77.7.1,1.1-1.23-.21Zm8-1.5-.78-.51.8-.56,0-.85.49-.41,1.79,3.52-1.16-.47-.89.59Zm-14.37.82c.62,0,.71-1.18,1.38-3.38,1-3.08,1-2.79-.8-3.43-.81-.29-2.35-.81-3.17-1.2-2-.94-2-.94-2.75.34-.33.57-1,2-1.4,2.69-1.09,1.8-1.12,1.71.89,2.69,1.18.57,1.9.8,4.39,1.82a4.83,4.83,0,0,0,1.46.47Zm-2-2-.87-.55-1,.41-.2-1.06-1.07-.42.3-1-.47-.78.91-.18.67-1.44,1,.71,1.06-.39.29.79,1.09.53-.39.88.54,1.18-1.24.09Zm-21.9-1.08-5.45-5.38,5-5,5.45,5.39Zm-56.88-1a1.19,1.19,0,1,1,1.18-1.19A1.18,1.18,0,0,1,28.69,139.82Zm71.44-.26c.31,0,.49-.3.77-.86.11-.24.78-1.51,1.41-2.49,1.4-2.2,1.4-2.09,0-3a30.78,30.78,0,0,1-3.13-2.57c-1.09-1-1-.75-3.31,1.6-1.53,1.54-2.47,2-1.87,2.78,1.44,1.24,2.63,2.15,4.2,3.35,1,.77,1.57,1.14,1.92,1.14ZM85.31,139l3.22-3.17-3.63-3.3-3,3.1ZM140.39,140l0-24.78c-3.53-6.08-7.16-12.21-9-19l-5.19,2.55C128.59,119,134.36,130.22,140.39,140Zm9.23-1.55a1.19,1.19,0,1,1,1.18-1.19A1.19,1.19,0,0,1,149.62,138.48Zm-64.35-1.33-1.55-1.43,1.43-1.56,1.57,1.63Zm-58-.23a1.19,1.19,0,1,1,1.18-1.19A1.19,1.19,0,0,1,27.25,136.92Zm3.17-.12a1.19,1.19,0,1,1,1.18-1.19A1.19,1.19,0,0,1,30.42,136.8Zm69,.08-.9-.67-1,.45-.08-1.24-1-.48.61-.88-.37-1.16,1,0,.8-1.06.73.7,1.41-.1.22,1.21.62.49-.48.8.35,1.06-1.21.09Zm52-1.33a1.19,1.19,0,1,1,1.18-1.18A1.18,1.18,0,0,1,151.36,135.55Zm-3.4,0a1.19,1.19,0,1,1,1.18-1.19A1.18,1.18,0,0,1,148,135.52Zm-68.35-2.83,2.81-2.64-2.77-2.91.08-2.23,4.93,4.93-5,4.94Zm27.83.57,10.57-7,.64,1.77-9.42,6.2Zm-78.59.58A1.19,1.19,0,1,1,30,132.65,1.19,1.19,0,0,1,28.85,133.84Zm63.34-.72c.49,0,1-.62,1.94-1.63s2-2.16,2.26-2.33c.73-.52.7-.64-.58-2.08-.39-.44-1.12-1.33-1.63-2s-1.31-1.48-1.47-1.65c-.52-.55-.81-.43-3.19,1.29-2.89,2.08-2.88,1.77-.22,5.23C90.83,131.94,91.56,133.16,92.19,133.12Zm57.47-.73a1.19,1.19,0,1,1,1.18-1.19A1.18,1.18,0,0,1,149.66,132.39Zm-62-.43-1.91-2.06.17-.2ZM26,131.5v-3.57l5.88-5.46v3.26Zm65.86-1-.71-1-1.21.08.18-1.17-.65-.47.63-.88.05-1.12,1,.24.82-1,.81,1,1-.11,0,1.16,1,.55-.69.75,0,1.3-1.41.05Zm-29.09-.08-.59-1.8L76.85,119l1.29,1.49Zm38.49-1.2-1.17-.89,15.43-10,.47,1.31Zm45.14.38v-3l6.51-6.31v3.06Zm-61.11-.71-.19.16-5-4.88,1-1Zm13.93-1.43-.13-28.78,1.34.94-.1,27.3Zm-.82-.66-1.1-1,1-1ZM26,127v-2.92l5.88-5.61v3Zm120.4-1.4v-2.74l6.51-6.26v2.77Zm-60.68-.37a1.14,1.14,0,0,0,.62-.32c.24-.19.83-.61,1.32-.92a26,26,0,0,0,3.33-2.4c.14-.33-1.64-2.67-4.1-5.46-1-1.1-1-1.31-1.92-.34-.77.89-3.61,3.31-3.53,3.95s1.13,1.59,3.55,4.88C85.29,125,85.48,125.22,85.69,125.23Zm10.94-.3-3.87-5.57.51-.52L98,123.55Zm7.56-.66V97.42l7.27-5.19c-.13-.07.89,16.13,3.67,24.77Zm-18.07-1L85.41,122l-1.08.18.14-1.23-.91-.72.9-1.25-.12-.89,1.06.25,1-1L87,118.6l1.39,0-.19,1.22,1,.82-1.05.63L88,122.36l-.91-.08Zm-6.3-.21L79.7,122l.64.56Zm18.57-2v1.57l-4.63-4.49,4.73-4.46,0,2.12-2.7,2.58ZM60.11,122l-.66-2L69,114.14l1.91,1Zm-31.36-3.31a1.19,1.19,0,1,1,1.18-1.18A1.18,1.18,0,0,1,28.75,118.72Zm60.58-3.86,3.34,3.37-.42.46Zm-8.62,3c1.13-1,3.55-3.79,3.55-4.25s-3.35-3.37-5.36-4.66c-.63-.41-.88-.42-1.13,0-3.47,5.22-3.62,5-2.25,6.06a38.2,38.2,0,0,0,4.15,3.23c.47.23.56.09,1-.33Zm12.53-.26-5.51-5.31,5.11-5L98.15,113Zm56.29-.4a1.19,1.19,0,1,1,1.18-1.18A1.18,1.18,0,0,1,149.53,117.23Zm-69.65-1.07-.93-.83-1.1.29-.25-1.1-1.07-.39L77.1,113,77,111.6l1.08.21.74-1.16,1.09,1.1,1.25-.1-.06,1.23,1.1.54-.7.81.44,1.11-1.32-.21Zm-52.7-.49a1.19,1.19,0,1,1,1.19-1.19A1.18,1.18,0,0,1,27.18,115.67Zm69-2.8-3.26-3.36-3,2.9,3.19,3.38Zm-65.7,2.75a1.19,1.19,0,1,1,1.18-1.18A1.18,1.18,0,0,1,30.44,115.62Zm120.71-1.23a1.19,1.19,0,0,1,0-2.38,1.19,1.19,0,0,1,0,2.38Zm-3.46,0a1.19,1.19,0,1,1,1.18-1.19A1.18,1.18,0,0,1,147.69,114.37ZM93,114.11l-1.48-1.54,1.37-1.46,1.54,1.59Zm-20.16-1.06c.76-.54,2.82-4.48,3.18-5.34a6,6,0,0,0-2.24-1.43c-1.07-.5-4.51-1.89-4.82-2-.69-.17-.81.09-.93.54-.06.24-.33,1.16-.64,2.15-1.06,3.48-1.38,3.32.2,3.85.55.18,2.27.76,3.35,1.26S72.53,113.06,72.88,113.05Zm-44-.63A1.19,1.19,0,1,1,30,111.24,1.19,1.19,0,0,1,28.85,112.42Zm56.38-1.63L85,87.45l1.82,1.43,0,23.42Zm8.12-4,5-5.14,0,2.62-2.81,2.56,2.86,3-.06,2A61.71,61.71,0,0,1,93.35,106.82Zm56.2,4.47a1.19,1.19,0,1,1,1.18-1.18A1.18,1.18,0,0,1,149.55,111.29Zm-77.39.06-1-.85-.85.51-.49-.87L68.59,110l.55-1.34-.71-1,1.18-.22.3-1.42,1.16.69.88-.38.65,1.2,1.37.06-.75,1.31.71,1-1,.07Zm15.47-.1v-2.06L89.82,107l-2.19-2.4,0-2.39,4.53,4.64ZM64.37,109.9c.45,0,.46-.5.81-2.08.08-.34.32-1.26.54-2,.66-2.36.74-2.4-1.3-2.81-1.18-.18-6.29-1.37-6.39-.56-.13,1.4-.21,4.67-.23,5.78,0,.38,0,.73.41.77,2.33.28,4.92.9,6.16.94Zm19.9-.1a102.68,102.68,0,0,0-9-5.84l-.09-24,9.15,6.85ZM26,109.73v-2.94l6.1-5.86v2.81Zm35.73-1-.53-1.14-1.11.37v-1.36l-1-.62,1.19-.56.1-1.65,1.21.37,1-.62.88.93,1.08,0-.39,1.47.69.68-1,.5-.08,1.31-1.09-.65Zm84.47.22v-2.84l6.64-6.14v2.48Zm-92.78-1.78L52,104.62l.53-1,1,.5,1.1-.41L54.43,105l.85.68-.86.79,0,1Zm39.32-.83L87.69,101l5.18-5.38L98,101ZM26,103l6.1-5.7v2.77L26,105.88Zm120.2,2.31v-2.77l6.64-6.25v2.56Zm-53.47-1,3.3-3.29-3.28-3.31L89.48,101Zm0-1.88L91.31,101l1.35-1.42L94.12,101Zm5.68-2L93.35,95.2l.58-.68L98.4,98ZM87.57,100l-.14-2.35,2.75-2.36-2.51-2.66-.07-2.44,4.78,4.95ZM28.76,97.61a1.19,1.19,0,1,1,1.18-1.19A1.18,1.18,0,0,1,28.76,97.61Zm120.65-1.44a1.19,1.19,0,0,1,0-2.38,1.19,1.19,0,0,1,0,2.38Zm-24.17-.73,3.73-5.6-2.94-2,2.78-3.76-2.89-3.5,2.91-2.51-3-5.08a14.94,14.94,0,0,1,3.44,1.56l2.23,4.26L129,81.06l2.6,3-2.73,3.25,2.74,1.93-3,4.61Zm-97.9-.74a1.19,1.19,0,1,1,1.18-1.19A1.18,1.18,0,0,1,27.34,94.7Zm73.25.09L74.88,74.87,75,72.22,100.7,92.09l10.91-7.75-.09,2.82Zm-70.1-.25a1.19,1.19,0,1,1,1.18-1.19A1.18,1.18,0,0,1,30.49,94.54ZM90.32,92l.27,0L93.39,94l-.61.69S90.94,92.65,90.32,92Zm57.34,1.15A1.19,1.19,0,1,1,148.84,92,1.18,1.18,0,0,1,147.66,93.14Zm3.18,0A1.19,1.19,0,1,1,152,91.94,1.18,1.18,0,0,1,150.84,93.13ZM28.76,91.56a1.19,1.19,0,1,1,1.18-1.19A1.18,1.18,0,0,1,28.76,91.56Zm120.66-1.31a1.19,1.19,0,1,1,1.18-1.2A1.19,1.19,0,0,1,149.42,90.25ZM26,88V85.41l5.77-5.61v2.53Zm77.81-.78c-.86,0-2,0-3.56-.09-1.32,0-2.78-.08-3.25-.06-1.83.05-2.43-.58-2.46-2.57,0-1.77,0-1.77-2.33-1.86-2.77-.12-3.51-.84-3.54-3.47q0-1.55-2.46-1.2c-2.55.36-3,0-3.34-2.37-.25-2-.12-1.89-2.45-1.87-2.51,0-3.07-.41-3.1-2.35,0-1.13-.29-1.47-1.26-1.55s-1.49-.63-1-1.16a3,3,0,0,1,1.33-.17c1.6,0,2.12.48,2.42,2.33.21,1.28.34,1.34,2.47,1.28,2.71-.07,2.92.09,3.22,2.47.25,2,.59,2.26,2.92,1.81,1.7-.32,2.6.43,2.82,2.35.25,2.16.34,2.24,2.75,2.32s3.08.52,3.1,2c0,2.26.32,2.47,3.29,2.38a30.88,30.88,0,0,1,3.76.07c1.79.18,1.78.19,2-1.54.27-2.6.65-2.83,4.06-2.58,1.42.1,1.53,0,1.62-1,.12-1.37.63-2.21,1-1.69.2.27.21.29,0,2.29-.22,2.23-.25,2.25-3.15,2-2-.16-1.87-.23-2.08,1.57-.25,2.18-.21,2.68-2.78,2.71Zm42.3.2V84.58l6.73-6.29v2.78Zm-20.93-3.38-1.47-2,.48-3.75,1.24-.94-.88-1.78.28-2.19.35-.2L127.67,78l-2.89,2.56,3,3.63-2.8,3.8L127.85,90l-3.5,5.17c-.6.74-.64-2.19-.64-2.19l1.45-2.21-1.62-1.4h0V85.91Zm-1.85,1.7-.16,4.69,1.26,1-1,1.62.07,4.16.29.2c2.43,29.78,16.92,47.37,19.19,51.36a1.6,1.6,0,0,1,.41,1.43c0,.44-.06,3.07,0,5.83.09,14.11,0,23.78,0,23.78l10.66,11.42-.06-4.18-.53-.38v-19l.44,0s.14-5.11.1-8.63l-.63,0,0-13.07.54-.06,0-8.47h-.58s-.14-8.88.07-13.2l.44,0,0-8.42-.5,0,0-12,.61-.09-.17-7.95-.49,0c-.18-4.91-.1-13.4-.1-13.4l.57,0-.14-7.89-.41,0,.12-13.86.37,0-.14-8.19-.4,0,.07-6.8.27,0,.07-2.54-.3-.68V33l.22-.09.07-4.56L137,45.13l6.08.19v5.42c0,9-.12,16.2.15,24.94a4.65,4.65,0,0,0,1.34.21c3.13.18,4,.44,4,1.19,0,.94-1.41,2.1-2.58,2.11a2.18,2.18,0,0,0-.72.27l.38,99.42,7.4,7.79,0,2.47-9.11-9.7-.34-99.36-.34.16,0,33.37c-4.67-7-7.29-14-9.88-20.94l-1,.34a3.21,3.21,0,0,0,.33.12A81,81,0,0,0,143,115.2l-.07,32.34c-11.13-15.81-16.51-30-18.75-50.53l5.64-2.83.54-.73,4.26-2.14L135,92l2.58-1.8c-2-3.49-1.92-8.52-.3-11.18l-.7-.44a13,13,0,0,0,.27,11.17L135,90.93c-2.78-5.76-1.49-12-.18-13.57,0,0-2-1.28-3.45-2.07A26.94,26.94,0,0,0,126.48,73a1.88,1.88,0,0,0-1.89.1L124,76.35l.9,1.23-1,.84-.48,4.93,1.12,1.14ZM26,84.45V81.28l5.77-5.49v3.12Zm120.11-3.4,6.73-6.21v2.58l-6.73,6.36ZM28.33,76.82a1.19,1.19,0,1,1,1.18-1.19A1.18,1.18,0,0,1,28.33,76.82ZM143.46,74.9V45.61h1.78l-.08,29.65Zm5.95.27a1.19,1.19,0,0,1,0-2.38,1.19,1.19,0,0,1,0,2.38ZM30,74a1.19,1.19,0,1,1,1.19-1.19A1.19,1.19,0,0,1,30,74ZM26.83,74A1.19,1.19,0,1,1,28,72.8,1.19,1.19,0,0,1,26.83,74ZM147.56,72.2A1.19,1.19,0,1,1,148.74,71,1.18,1.18,0,0,1,147.56,72.2Zm-60.81,0c-6.15-.77-4.52-7.26-1.93-8.61,3.54-1.65,6.36,1.68,4.11,5-1.66,2.48-4.8.84-3.59-1.87.69-1.53,2.11-1.35,2.09.19-.5,1.47,0,.95.36.43C89,65.73,86.52,64,85.23,65.61a3.46,3.46,0,0,0-.69,3.1c.47,1.59,2.3,2.53,4.38,1.05,2.48-3,3.8-6.86,4.54-11.19,1.56-9.21,1.63-18.91,3-21.37l1.46,0c-2.12,10.54-2.13,19.57-4.39,27.88C92.38,69.24,89.53,72.18,86.75,72.17Zm64,0A1.19,1.19,0,1,1,152,70.93,1.19,1.19,0,0,1,150.79,72.12Zm-25-.17A3.13,3.13,0,0,0,129,68.84c-.16-2.09-1.39-3-3.42-2.82-1.09.12-1.06.13-1.79-1.18a38.51,38.51,0,0,1-2.41-7c.83,1.11,2.78,3.18,4.58,3.09s3.56-2,2.1-4.59a2.9,2.9,0,0,0-3.56-1.1c-2.1-3.29-2.5-6.58-3.17-10.4,0,0-.83,8.17-1.08,11.44-.48,5-1.15,8.23-3.08,12.19a36.06,36.06,0,0,0,5,2.33,9.42,9.42,0,0,1,2.09.72A2.6,2.6,0,0,0,125.82,72ZM28.2,71.29a1.19,1.19,0,1,1,1.18-1.19A1.18,1.18,0,0,1,28.2,71.29Zm94.3-2.63A17.38,17.38,0,0,1,120,62a24.74,24.74,0,0,1,.4-4c.1-.68.35,0,.81,1.45,1.92,6.08,2.42,7.24,3.75,6.94a3.15,3.15,0,0,1,2.06.08c1.69.94,1.84,4.07-.62,4.67-1.94.43-3.2-1.31-3.89-2.45Zm0,1.52c-2.45-1-4-2.44-3.57-4.82.2-.9.33-1.64.57-1.54s.66,1.19,1.42,3C121.13,67.45,122.88,70.16,122.54,70.18ZM82,70.07c-.13,0-.34-.1-.61-.36-1.94-1.91-.89-6.23,1.69-7.47,1.06-.73,3-.61,3,.09,0,.28-.06.35-.33.36-2.17,0-4.47,3-3.83,6.23.08.49.22,1.13.06,1.15Zm67.39-1a1.19,1.19,0,1,1,1.18-1.19A1.18,1.18,0,0,1,149.36,69Zm-69.42-.37A1.49,1.49,0,0,1,79,68.1c-1.82-2.21-.34-6,2.52-7.25,1.09-.6,2-.19,1.78.42a5.87,5.87,0,0,0-3.6,5.8C79.8,68.08,80.13,68.63,79.94,68.66Zm38.6-.4-.67-.32.28-.57A3.14,3.14,0,0,0,118.54,68.26ZM77.86,68a.93.93,0,0,1-.77-.25c-1.18-1.15-1.37-4.37-.24-6a9.31,9.31,0,0,1,2.67-2.24,2.79,2.79,0,0,1,1.92.28c.32,0-.14.31-.74.66C78.57,61.74,77.15,64,77.53,66,77.75,67.3,78.14,68,77.86,68Zm-2.15-1a1.9,1.9,0,0,1-1.28-1c-1.4-2-.23-6.27,2.63-7.16,1.91-.58,2.62,0,1.08.88-2.22,1.3-3.37,3.84-2.73,5.86.3,1,.6,1.37.3,1.39ZM73.39,65.5a1.65,1.65,0,0,1-1.41-1A5.34,5.34,0,0,1,72.23,60a4.91,4.91,0,0,1,3.61-2.51,2.08,2.08,0,0,1,1,.15c.67.29.44.34-.82,1a5.54,5.54,0,0,0-2.89,5.68C73.29,65.26,73.65,65.5,73.39,65.5Zm72.76.44V62.81l6.55-6.23v3.07Zm-55.71-.4a15.66,15.66,0,0,1-1-2.28c1.54-2.22,2-5.86,2.21-8.63.87-7.82,1.77-17.27,2.16-17.36l1.71,0c-.65-.43-1.49,13-2.81,21.48-.1.67-1.52,7.22-2.31,6.83ZM70.6,64.15c-2.25-1.53-1-6.32,2.09-7.5,1.13-.44,1.55-.49,2.07,0,.32.32.63.42-.2.72A4.72,4.72,0,0,0,71,62.68c0,.62.63,2.24-.4,1.47Zm18.22-1.33-1-.66a57.61,57.61,0,0,0,2-11c.55-4.58,1-9.28,1.69-13.77L93,37.34c-.82,2.77-1.2,10.52-2,17-.47,3.28-1,7.8-2.19,8.46ZM87,61.74,85.73,61A58.22,58.22,0,0,0,87,55.17c.61-4.31.84-9.54,2.23-17.58l1.42-.12c-.36,2.58-1,8.33-1.61,13.63C88.38,57.24,87.33,61.89,87,61.74Zm59.11.21V58.87l6.55-6.07v2.84ZM84.82,60.77l-1.27-.71a86.93,86.93,0,0,0,1.69-9.63c.57-4.15,1-8.19,1.77-12.76l1.51-.09c-.75,3.5-1.61,11.72-2.29,17.51C85.83,58.46,85,60.84,84.82,60.77Zm36.1-6.91A51.64,51.64,0,0,1,121.4,48c.2-.12.82,5.26,3,7.69a2.46,2.46,0,0,1,3.11,3.73C124,62.4,120.92,55.93,120.92,53.86Zm-38.07,6L81,59c.23,0,.66-1.23,1.08-3.21,1.29-6,2.56-17.92,2.77-17.91l1.41-.12c-.46,3.19-1.08,8.24-1.74,12.7-.75,5.06-1.44,9.37-1.68,9.4ZM80.3,58.69l-1.39-.84a8,8,0,0,0,.87-2.45c1.25-6,1.82-11.3,2.59-17.13l1.52-.2c.11-.17-1.31,11.48-2.49,17.37a8.08,8.08,0,0,1-1.1,3.25Zm-2.17-1-1.49-.74c1.62-4.62,1.77-9,3.33-18.3l1.57-.29a164.33,164.33,0,0,1-2.83,18.11A2.61,2.61,0,0,1,78.13,57.64ZM76,56.56l-1.68-.68,3.51-17,1.42-.19c-.88,4.91-1.34,10.58-2.53,15A26.74,26.74,0,0,1,76,56.56Zm73.11-2.7a1.19,1.19,0,1,1,1.18-1.18A1.18,1.18,0,0,1,149.11,53.86Zm-1.55-2.78a1.19,1.19,0,1,1,1.18-1.19A1.19,1.19,0,0,1,147.56,51.08Zm3.08-.08a1.19,1.19,0,1,1,1.18-1.18A1.18,1.18,0,0,1,150.64,51Zm-1.48-2.73a1.19,1.19,0,1,1,1.19-1.19A1.19,1.19,0,0,1,149.16,48.27Zm-10.68-4,14.16-14.42.05,2.88L143,42.34l9.78.15,0,1.95ZM145,41.55l7.59-7.28.07,7.4Zm-8.1-.53s0-.27-.67-1.52c-2.07-3.62-2.55-7-4.38-10.84a11.34,11.34,0,0,0-3.42-4.39l2.28-4.19-64.32.14,10.3,18.07a123.1,123.1,0,0,1,44.82-.08A49.24,49.24,0,0,0,124,33.39C126,39,132.62,42.57,136.87,41Zm-2.34-.49c-3.4,0-6.23-1.57-8.75-5-.8-1.1-1.11-1.59-1.11-2a12.51,12.51,0,0,1,1.14-2.24,23,23,0,0,1,.76,2.51c.91-3.38,1.28.54,1.63,1.57,1.11-3.27,1.71,1.23,1.66,2.44,1.51-2.1,1.42,1.35,2.16,2,0-1.82,1.08-.58,2.45-.19-.72-1-2.12-1.7-.33-1.92-1.78-1.24-2.68-1-.95-1.74-1.33-.74-3.53-1.63-1.1-2.12-1.48-.94-3.87-1.33-1.3-2.23-1.94-1.2-4.53-1.11-.89-2.07-1.32-.77-3.64-1.06-1-1.74a9.47,9.47,0,0,1-1.1-.65l1.12-1.78a1.21,1.21,0,0,1,.68.33c1.19,1.25,2.35,3.55,3.39,6.77a56.68,56.68,0,0,0,2.67,7c.54,1.1.49,1.15-1.09,1.17ZM77.09,36.46,68.2,21.17l2.11,0,7.85,13.09L88.75,33,85.26,21.32l3.15-.08,3.12,11.51a142.14,142.14,0,0,1,16.47.09l1.66-11.68,3,.1-1.9,11.56,9.94,1.28,5.39-13,3.1-.06c-2,3.4-7,14.38-7.94,15.46C99.61,33,88.37,34.92,77.09,36.46Zm2.08-3.54L72.44,21.15l10.81,0L86.88,32Zm40.44-.35a27.57,27.57,0,0,0-6.73-.84l2-10.53,9.58,0Zm-27-1.23L90.11,21.11l18-.09-1.49,10.19C101.92,30.93,97.3,31.19,92.65,31.34Z" transform="translate(0.1 0.1)"/></g></g></g><path id="path147-0-8-1-3-6-4-3-4" d="M130.52,223c7.82-.17,11.33-9,5.54-15.81-.84-1-.93-1.57.61-.61,3.9,2.6,11.37.89,11.76-7.08.47-9.82-13.25-12.65-15.83-2.21-.14,1.1-1,1.08-.82-.49a32.67,32.67,0,0,1,3.39-12.08h-9.3a32.47,32.47,0,0,1,3.38,12.08c.22,1.57-.68,1.59-.81.49-2.58-10.44-16.3-7.61-15.83,2.21.38,8,7.86,9.68,11.76,7.08,1.54-1,1.45-.39.61.61-5.79,6.83-2.28,15.64,5.54,15.81Z" transform="translate(0.1 0.1)"/><path id="path147-0-8-1-0-3-83-9-4-0" d="M48.07,26.47c7.82.17,11.32,9,5.53,15.81-.84,1-.93,1.57.61.61C58.11,40.29,65.59,42,66,50c.47,9.82-13.25,12.65-15.83,2.21-.13-1.1-1-1.08-.81.49a32.47,32.47,0,0,0,3.38,12.08H43.42A32.66,32.66,0,0,0,46.8,52.67c.21-1.57-.68-1.59-.82-.49C43.41,62.62,29.68,59.79,30.16,50c.38-8,7.85-9.68,11.75-7.08,1.54,1,1.46.39.62-.61-5.8-6.84-2.29-15.64,5.53-15.81Z" transform="translate(0.1 0.1)"/></g></g></svg>