<svg id="svg4946" xmlns="http://www.w3.org/2000/svg" viewBox="0 0 178.79 249.65"><defs><style>.cls-1{fill:#fff;stroke:#000;stroke-width:1px;}.cls-2{fill:#d40000;}.cls-3{fill:#131f67;}.cls-4{fill:#e2cf00;}</style></defs><title>11DIAMOND</title><g id="layer1"><g id="g7094"><rect id="rect7098-3" class="cls-1" x="0.5" y="0.5" width="177.79" height="248.65" rx="8.5"/><path id="path7130-4" class="cls-2" d="M14.45,56.2a45.25,45.25,0,0,0-5.8-8,44.81,44.81,0,0,0,5.8-8,44.76,44.76,0,0,0,5.79,8A45.2,45.2,0,0,0,14.45,56.2Z" transform="translate(0.1 0.1)"/><path id="path7134-0" class="cls-2" d="M164.14,209.2a44.81,44.81,0,0,0-5.8-8,45.25,45.25,0,0,0,5.8-8,45.2,45.2,0,0,0,5.79,8A44.76,44.76,0,0,0,164.14,209.2Z" transform="translate(0.1 0.1)"/><path id="path7136-1" class="cls-2" d="M48.25,64.75c-4.13-6.83-8.48-13.47-13.91-19.14,5.43-5.67,9.78-12.31,13.91-19.14,4.13,6.83,8.47,13.47,13.9,19.14C56.72,51.28,52.38,57.92,48.25,64.75Z" transform="translate(0.1 0.1)"/><path id="path7154-5" class="cls-2" d="M130.34,223c-4.14-6.83-8.48-13.47-13.91-19.14,5.43-5.67,9.77-12.31,13.91-19.14,4.13,6.83,8.47,13.47,13.9,19.14C138.81,209.52,134.47,216.16,130.34,223Z" transform="translate(0.1 0.1)"/><path id="path6263-5" class="cls-3" d="M24.28,229.65V19.8h130V229.65Zm46.81-175c-4.65-1.27-4.54,3.36-1.14,3.53,3.82.33,5.45-6.18,3.63-8.75C73.58,49.47,72,54.38,71.09,54.69ZM40.92,80.85l-5.59,2.5,0,4.18a22.93,22.93,0,0,0,5.61-6.68ZM79,206.35c-1.1-.56-2.42-1.75-2.22-2s.7.08,1.24.33c4.36,1.84,7.75,1.72,13-.17.39-.14,1,.61.76,1-2.3,3.42-9.76,2.2-12.73.78Zm-2.3-5.13c-1-1.5.33-.36.77.07,3.23,3,7.61,4,11.36,1.19A.49.49,0,0,0,89,202c-.11-.28-.11,0-1.72.58-3.6,1.35-6.64.24-9.6-2-1.22-1-1.79-1.41-1.79-1.66s.23-.36.64-.29c.25,0,1,.19,1.48.23.91.08.84,0,1.76-.39a9.39,9.39,0,0,1,5.86-.88,10,10,0,0,0,1.16.22c.46-.15-.22-.76-2-2.15a5.23,5.23,0,0,1-.92-.75c-.22-.37,0-.46.27-.46.72,0,3.95,2.71,5.06,4.32.34.49.57.54.57,1a2,2,0,0,0,.42,1.77A7.23,7.23,0,0,1,91,203c0,.05-.08.32-.45.07-.17,0-.26-.22-.57-.17a5.75,5.75,0,0,0-1.2.48c-4.53,2.92-8.7,1.5-12.09-2.11Zm9.92-.2a4.85,4.85,0,0,0-.77-2.16,2,2,0,0,0-3.1-.16,9.06,9.06,0,0,0-1,2.13,6.72,6.72,0,0,0,.93.21,2.52,2.52,0,0,1,.75-1.9,1.42,1.42,0,0,1,1.42,0c.59.29.84,1.47.85,1.92a2.07,2.07,0,0,0,.9,0Zm-5.48-2.42c-.63.29-1.46.48-1.65.91s.63.74,1.09.93c.64.3.65.19.86-.3l.46-1.08c.48-.92,0-.8-.76-.46Zm6.91,1.61c.37-.37.44-.61.11-1a2.6,2.6,0,0,0-1-.54c-.59-.2-.85-.44-.48.36l.53,1.15c.27.55.51.4.87.06ZM27.67,161A23.55,23.55,0,0,0,30.92,160c.79-.3.88-.29.57-.72a2,2,0,0,1-.16-1.13l.06-.71a4.85,4.85,0,0,0-4.13,1.45c-.5.61-.45,2,.41,2.2Zm-.28,3.43c.42.42.54.44,1.79,0a5,5,0,0,1,2-.7c1.51-.41,1.51-.25,1.08-1.21a2.11,2.11,0,0,1-.2-1.23c.07-.49.13-.56-.14-.64-.72-.23-4.08,1-4.68,2a1.31,1.31,0,0,0,.15,1.8Zm78.08,33.16c.06.78.08,2,.08,2.62,0,1.26.47,1.55,1,.86.53-1.64.74-4.23,2-5.54.94-.27,2.09.2,2.76-.45a1.85,1.85,0,0,0-1.08-3.3c-2.88,0-5,3.46-4.77,5.81Zm7-4a2.41,2.41,0,0,1-3.1,2.31c-.65-.17-.84,0-1.28.91a33.64,33.64,0,0,0-1.58,6.82c-.11,1.51-.66,5.45-.26,6.7C110.87,216,115.71,222,121,227.82h31.58V190.66L143.53,182l0-13.74q-14.69,6.93-29.32,14c2.13,6.84-5.09,8.27-6.67,3.69-1.37,1.26-2.5,8.05-2,8.39,0,0,.18.24.48-.3a5.47,5.47,0,0,1,1.85-2C109.94,190.77,112.36,191.39,112.5,193.61Zm-25.06-.7a2.13,2.13,0,0,1,.56-3.67,4.3,4.3,0,0,1,3,.17,4.28,4.28,0,0,0,2.77.28c.71-.08.58,1.43-.17,1.82-.53.27-1.74.14-3.21-.7-2.55-1.45-3.66.43-2.09,2.13.88.93-.62.18-.84,0ZM35.1,170.42a1.43,1.43,0,0,0-.48-2.69,1.45,1.45,0,0,0-.91,2.68c0,.24-.61,0-.94-.2-.51-.38,0-1.87-.52-1.93a29.7,29.7,0,0,0-4.26,1.5c-1.58.9-.1,2.93.82,2.7,1.91-.49,4.5-.91,6.29-2.06Zm-7.87-2.91c0,.91.28,1.31.87,1.32a27.35,27.35,0,0,0,3.55-1.18c.91-.3,1.27-.63.58-1.2a1.37,1.37,0,0,1-.29-1.23c.24-.75.06-.79-.26-.82a11.63,11.63,0,0,0-2.88,1c-1,.37-1.16.54-1.41,1.07a3.06,3.06,0,0,0-.16,1.07Zm10.26,11.67a7.42,7.42,0,0,0,.69-2.21c-.1-.65-.58-.8-1-.38s-.37,1.17-.68,1.71a1,1,0,0,0-.19.55.73.73,0,0,0,1.19.33Zm4-8.58C57.31,153.77,67.09,130.46,50,98.33c-1.05-1-2.51,2.3-2.7,2.43l-2.18,1.91c11.57,20,9.56,43-4.59,59.37v1c0,2.29.69,2.19,1.65,1.12s.34-.2-.08.24-.92,1.14-1.08,1.34c.19,1.37,1,3.92.51,4.83Zm-1.05-5.06a13.56,13.56,0,0,1-.42-2.29c-.05-.52-.08-1-.1-1.52a18.63,18.63,0,0,0-.92-3.85,3,3,0,0,0-2.23-1c-.84-.05-.91,0-1.09.24-.3.47-.09,2.85.22,3.72a3.63,3.63,0,0,1-.14,2.59c-.1.37-.14.4,0,.42.79-.05,1-1,1.37-.73a4,4,0,0,1-.54,1.7,4.72,4.72,0,0,0,0,3.45,1.91,1.91,0,0,1,0,1.54,8.91,8.91,0,0,0-.29,2.3,2.63,2.63,0,0,1,0,2.2,5.64,5.64,0,0,0-.58,3.28c.11.35.4.05.62-.55.33-1.19.71-1.46,1.69-1.46.7,0,.77.25,1-.06a14.13,14.13,0,0,0,1.85-4,8.84,8.84,0,0,0-.4-6ZM48,177.46a2.47,2.47,0,0,0,1.09-1.38c0-.35-2.65-2.92-3.75-3.64-.5-.32-.74-.09-1.62,1.1s-.88,1.07-.74,1.27a35.48,35.48,0,0,0,3.77,2.5,1.61,1.61,0,0,0,1.25.15Zm5-4.58c-.4-.31-3.56-3.83-4.5-4-.36-.07-1.51,1.24-1.51,1.54a25.45,25.45,0,0,0,3.38,3.44,2.85,2.85,0,0,0,1,.64C51.79,174.27,52.93,173.35,53,172.88Zm3.36-3.32c0-.21-.35-.64-1.2-1.48C53,165.94,51.77,165,51.39,165a3.47,3.47,0,0,0-1.21,1.85c.14.26,3.77,3.56,4.24,3.88.58.56,1.85-.74,1.93-1.14Zm3.41-3.41c.09-.31-.09-.58-.55-1l-2.57-2.53c-2.29-2.25-2.29-2.26-3-1.2s-.75,1.09,1.48,3.27,2.93,2.79,3.3,2.79A2.48,2.48,0,0,0,59.76,166.15Zm-25.46-2a1.13,1.13,0,0,0-1.08.2c-1.68,1.44.71,3.28,1.69,2.13a1.37,1.37,0,0,0-.61-2.33Zm29-1.5c0-.24-.49-.78-2.19-2.4-4.2-4-4-3.86-4.48-3.61a3.09,3.09,0,0,0-.85,1.63c0,.3.4.72,3.51,3.63,1.83,1.71,2.37,2.14,2.68,2.14.5-.25,1.3-.78,1.33-1.39Zm-28.85.15a1.23,1.23,0,1,0-1.66-1.07,1.22,1.22,0,0,0,1.66,1.07Zm32.3-3.52c0-.48-7.19-7.22-7.71-7.22-.34,0-.59.28-.92,1s-.25,1.05.1,1.39c.52.5,1.91,1.78,3.23,3,.78.71,1.67,1.55,2,1.88a4.61,4.61,0,0,0,1.86,1.35,3.17,3.17,0,0,0,1.45-1.43ZM34,158.37a1,1,0,0,0-.26-.75,1,1,0,0,0-1.64.45C31.92,159.71,34,159.78,34,158.37Zm5.33-52.45,1.4-4.31,4.3-.11.6-4.28,4.43-.64.07-4.42,4.23-.58-.26-4.74,3.92-.93-.2-4.39,3.57-1.1-.14-3.82.61-.48-1.54-1.57L59,75l0,3.93-3.56,1.15.37,4.34-3.6.82,0,4.73L48,90.41l-.29,4.17-4,.79-.6,4.08-3.91.27L38,103.31l-2.59,0v2.4ZM86.12,183c-.14-.33.21-.28.83.11a4.78,4.78,0,0,0,2.24.75,16.12,16.12,0,0,0,2.21-.4,5.49,5.49,0,0,1,3.26-.18c.86.12,1.73.21,1.93.21a2.55,2.55,0,0,0,1.82-1.08c.71-1.22.54,1,.54,1.24,0,1.14.15,2.44-.66,1.83a2,2,0,0,0-2,0,1.63,1.63,0,0,1-2,.07c-.64-.26-1-.31-1.47.14s-1.84.32-2.54.09c-1.2-.2-1.88-.37-2.68.27-.43.24-.54.06-.87-.9s-.57-2-.62-2.13Zm3.06-.8c-.08-.12.56-.76,1-1a8.09,8.09,0,0,1,5.64,0c.94.35,1.09.95.17.82-1.92-.4-4.32-.73-6.18.15a.93.93,0,0,1-.63,0Zm1.62-3c-1.31-.49-2-1-2-1.17s.28-.15,1.31.13a6.72,6.72,0,0,0,4.45.31c1-.36,1.5-.6,1.5-.38a2,2,0,0,1-1.1,1.2,6.37,6.37,0,0,1-4.2-.09Zm28.46-3.65,1-.13-.34-4.07,3.58-1.07-.25-4,3.82-1.32-.22-4.55,4-.79.52-4,3.75-.27.78-4.34,4-.13.83-3.61,2.68,0v-2h-4.18l-.88,3.9-3.94.12-.83,4.28-4.13,0-.53,4.62-3.88.64v5l-3.75,1,.29,4.26-3.74,1.36.43,4.06Zm25-95.46a1.67,1.67,0,0,0-.57,1.76,1.38,1.38,0,0,0,2.6-.05,1.12,1.12,0,0,0-.69-1.25c-.09,0-.4,0-.57-.17s.62-.5,1.06-.36a1.71,1.71,0,0,1,1,1.53c0,.24-.06.6,0,.72A13.9,13.9,0,0,0,150,81.5c1.63-.45,2.22-1.38,1.86-2.48-.3-.91-1.24-1.27-2.46-.81-1.68.63-3.65.94-5.12,1.9ZM74.84,180c5.51-3.88,8.75-6.09,15.82-6.48-2.52-1-2.94-2.4-3.64-3.71a35.73,35.73,0,0,0-17.57,6.25A14.6,14.6,0,0,1,74.84,180Zm30.7-5.38a28.51,28.51,0,0,0-9.15-3.92l-2.52,2.63a51.54,51.54,0,0,1,11.67,1.29Zm25.64-24.88C114,123.21,125.53,99.87,137.51,85c.38-.49.47-.51.39-.9a27.77,27.77,0,0,1-.17-4.58c-22.14,22-22.71,50.63-8.82,73.36,1-.89,3-2.08,2.27-3.15Zm2.59-2.27c-2.83-4.72-17.89-30.27,5.11-58.77a12.9,12.9,0,0,0-.25-2,3,3,0,0,0-.79-1.37c-9.66,14.53-23.7,32.71-6.16,64.29ZM120.59,99.38a3.4,3.4,0,0,0,.85-1.73c0-.38-.27-.69-2.87-3.33-3.46-3.52-4-4-4.5-4s-1.51,1-1.51,1.43c0,.19,1,1.29,3.42,3.69,4.46,4.46,4.25,4.28,4.61,4Zm3.19-6.48c0-.21-.32-.63-1.08-1.41a42.82,42.82,0,0,0-5.1-4.68A2.85,2.85,0,0,0,116.18,88a.51.51,0,0,0,0,.68c.35.55,4.82,4.8,6.08,5.86.77.7,1.45-1.07,1.49-1.6Zm1.73-2.63a3.12,3.12,0,0,0,.94-1.77,26.76,26.76,0,0,0-2.52-2.71c-2.66-2.65-2.81-2.75-3.48-2.16s-1,1.08-.9,1.3a67,67,0,0,0,4.89,5C125.08,90.43,125.16,90.45,125.51,90.27Zm20.31-.2a1.13,1.13,0,0,0-1.2-1.91,1.19,1.19,0,0,0-.56,1.25A1.28,1.28,0,0,0,145.82,90.07Zm2.47-.31c2.12-.55,3.14-.93,3.58-1.59.31-.45.34-.74,0-1.48s-.69-.9-2-.17c-.91.5-2.94.74-3.65,1.16-.28.24-.14.24.09.38.51.33.76.55.7,1-.12.93,0,1.08,1.31.72Zm-2.24-3.32c1-.53.82-1.8-.32-2.31a1.33,1.33,0,0,0-1.26,2.32A2,2,0,0,0,146.05,86.44Zm3.42-.52c1.49-.51,2.06-.91,2.49-1.73a2.29,2.29,0,0,0,.15-1.58c-.07-1-.55-.84-1.94-.34-.67.26-3.91,1.17-3.95,1.51,1.56.89,1.16,1.36,1.17,2.5.08.26.82.08,2.08-.36ZM129.2,84.4c0-.43-4.15-4.51-4.59-4.51-.69,0-1.67,1.07-1.52,1.66A48,48,0,0,0,127.54,86C128.22,86.43,129.16,85.05,129.2,84.4Zm2.39-2.54a4.64,4.64,0,0,0,.71-.81c.45-.65.41-1-.12-1.36-.2-.13-1.07-.92-1.94-1.76a15.94,15.94,0,0,0-1.83-1.61c-.71-.1-2,1.05-1.87,1.64a31.44,31.44,0,0,0,4,3.92C131,82.18,131.19,82.18,131.59,81.86Zm5.63-6.07a7.16,7.16,0,0,0-1.88-1.21c-3.54-1.93-3.6-1.94-4.71-1-.38.31-.69.66-.69.78a11.1,11.1,0,0,0,1.75,1.88c2,1.92,2.53,2.33,2.81,2.33C135.08,78.1,137.13,76.32,137.22,75.79ZM142.17,74a4.36,4.36,0,0,0,.69-2.71.88.88,0,0,0-1,.06,8,8,0,0,0-.84,2.8c.11.27.8.15,1.18-.15Zm-38.65,77.3a5.5,5.5,0,0,0,2-1.28c1-.88,4.24-2.83,4.6-3.61.15-.45,0-1.09-.3-1.14s-.31.16-2.46,1.71c-1.44,1-4,2.92-4.37,3.31A.81.81,0,0,0,103.52,151.28Zm-.3,12.49c2.21-1.54,4-3.13,6.88-4.91a1.14,1.14,0,0,0,.12-1.09c-.16-.44-.4-.27-1.27.34-2.12,1.43-4.3,3.12-6.13,4.37-.59.4-1.08.62-1,.85s1.07.38,1.36.44Zm2.15.94c1.45-1.19,3.19-2.33,4.75-3.48a1.28,1.28,0,0,0,0-1.25c-.18-.24,0-.19-.46.05-.63.36-4.39,2.93-5.09,3.51-.41.33-.75.5-.65.62a3.64,3.64,0,0,0,1.4.55Zm1.83.92c.3-.2,2.88-1.85,3.09-2.07s.17-1.38-.06-1.47c-.66.52-4.1,2.62-4.11,3a1.89,1.89,0,0,0,1.08.58Zm2.76.23c.4-.36.48-.42.48-.83,0-.74-.16-.71-1.22,0-.73.48-1.18.81-1,1.1.53.82,1.27.17,1.79-.31Zm.28,1.51c.21-.07.21-.18.18-.44s-.07-.27-.38-.27C109.2,166.69,110,167.45,110.24,167.37Zm-10-4.14A7.86,7.86,0,0,1,102,160c3.47-3.08,2.41-6.88.22-10,2.84-4,5.67-8.2,8.11-12.07v-6.28l.33,0c-.11,13.72.51,36.21.51,36.21l2.82,2.15-.38.19c.47-.07-8.21-5.52-13.38-7.07Zm2.55-1.56c2.4-1.82,4.74-3.25,7.12-5.18.26-.21.41-.22.41-.7,0-.9-.16-.91-1-.27-.4.28-1.84,1.29-3.22,2.22a32.08,32.08,0,0,0-3,2.14c-1.34,1.56-1.84,2.29-1.7,2.51s.42,0,1.46-.72Zm2.62-4.41c1.23-.81,4.19-2.87,4.46-3.12.47-.44.55-1.14.13-1.22a28.8,28.8,0,0,0-4.43,3c-.94.72-1.15.88-1.15,1.56C104.37,157.83,104.62,157.76,105.36,157.26Zm1.23-3.2c3.79-2.69,3.69-2.47,3.61-3.47,0-.34-.1-.49-.26-.52a8.88,8.88,0,0,0-1.54,1c-.75.53-1.65,1.24-2.1,1.56-1.31.91-1.75,1.16-1.75,1.68s.14.84.37.84A11.91,11.91,0,0,0,106.59,154.06Zm-.54-2.08a47.74,47.74,0,0,0,3.93-3c.31-.4.26-1.28-.15-1.28-1.75,1.17-3.86,2.71-5.34,3.93-.19.17-.43.33-.51.55a.86.86,0,0,0,.49.68c.29,0,.73-.33,1.58-.92Zm-1.14-4.18c1.33-.91,2.54-2,3.87-2.89,1-.68,1.27-.89,1.21-1.75,0-.49-.46-.21-2.15.91a9.61,9.61,0,0,0-2.24,1.71c-.3.72-1.31,1.38-1.37,2.2,0,.3.2.15.68-.18Zm4.09-5.43c1-.68,1.12-.7,1-1.6-.14-1.13-.26-1.06-1.23.43-.65,1-.87,1.27-.77,1.45s.35.14,1-.29Zm-3.72-8.31c-.11-.5-.27-.39-.78.06-1,.83-1.1,1.44-.51,1.75.32.17.56.15.74-.26A4.69,4.69,0,0,0,105.28,134.06ZM100,142a2.56,2.56,0,0,0-1.11-1.3c-.42-.22-.68-.18-1.08.33s-.2.76.36,1.47c.41.51.57.68.9.68.39-.15,1-.68.93-1.18ZM79.43,161.74c-.27-.53-.85-1.08-1.11-1a1,1,0,0,0-.55.75,1.07,1.07,0,0,0,.88.87C79.28,162.28,79.66,162.18,79.43,161.74Zm2.5-.8a16.14,16.14,0,0,0-1.78-1.84c-.28,0-.93.69-.93,1a4.27,4.27,0,0,0,1.3,1.81C81.34,161.81,82.84,161.9,81.93,160.94Zm3.1.16a25.41,25.41,0,0,0-3.33-3.52c-.29,0-.86.64-.86.93A10.33,10.33,0,0,0,82.73,161c.45.48.49.55,1,.46s1.4,0,1.26-.34Zm5.38-.73c0-.65-.35-1-1.72-2.5-.5-.54-1.34-1.48-1.87-2.09-1-1.17-1.47-1.53-1.88-1.54a1.11,1.11,0,0,0-.82.86,59.91,59.91,0,0,0,4.82,5.59c.51.55.74.71,1.23.45.28-.19.23-.52.23-.77Zm-4-7.78c-.51.42-.7.59-.7.88s4.36,5.23,4.75,5.23c.23,0,.19,0,.33-.54.27-1.57-.16-2-1.29-3.07-.76-.69-2.29-3.08-3.09-2.5Zm7.71-3.22c-1.22-1.46-1.9-2.13-2.15-2.13a1.19,1.19,0,0,0-.69.46c-.46.44-.41.42-.13.93a6.84,6.84,0,0,0,.94,1.17c.67.7,1,.92,1.34.58s1-.64.69-1Zm-.64-3.65a1.14,1.14,0,0,0-.8.83,7.59,7.59,0,0,0,1.68,2.11c.56.5.82.63,1.21.3a1,1,0,0,0,.05-1.13c-.5-.56-1.58-2.08-2.14-2.11Zm3.43.36a5.6,5.6,0,0,0-1.65-2.21c-.33,0-1,.77-1,1.12a2.83,2.83,0,0,0,.72,1.14c.89,1,1.12,1.26,1.31,1.1A1.72,1.72,0,0,0,96.94,146.08Zm1.4-1.83c.09-.35-.13-.72-.63-1.35-.63-.78-.93-.84-1.52-.23a1,1,0,0,0-.32.53,5.63,5.63,0,0,0,1.55,2c.56-.07.74-.48.92-.91Zm-2.29,4.12a1.49,1.49,0,0,1-.86,1.14c-4,2.88-3.87,7.58-4.72,11.91C84,161.35,73.8,164,73.86,164.15l34.34-34.71s.42.11.16.41c-2.78,2-2.6,5.9-4.43,7.85-3.05,3.69-5.89,6.9-7.88,10.67ZM77.41,162.55c0-.39-.31-.5-.62-.18s-.19.55.25.5c.23,0,.34-.12.37-.32ZM88,161.09c.13-.33-.17-.64-2-2.68s-2.29-2.56-2.61-2.56a1.59,1.59,0,0,0-.94,1,2.84,2.84,0,0,0,.65.93c.36.38,1,1.14,1.51,1.68A12,12,0,0,0,86.1,161a1.51,1.51,0,0,0,1,.2C87.79,161.22,87.93,161.24,88,161.09Zm3.18-6.51a7.44,7.44,0,0,0,.31-.92,17.34,17.34,0,0,0-2.75-2.95c-.47-.3-1.37.7-1.14,1.29a14.77,14.77,0,0,0,1.55,1.83c1,1.08,1.51,1.58,1.68,1.56s.19-.28.35-.81Zm1-2.53a1.75,1.75,0,0,0,.31-.74,4.24,4.24,0,0,0-1-1.29c-1.05-1.18-1.32-1.32-1.89-.76s-.38.8.63,1.94c1.26,1.43,1.4,1.6,1.91.85Zm9-11.28c.39-.46.4-.69,0-1.12l-.49-.59c-.32-.38-.75-.32-1.19.18a1.4,1.4,0,0,0-.35.57,2.75,2.75,0,0,0,.5.73c.62.73,1,.81,1.49.23Zm1.38-1.78c.26-.41.14-.85-.35-1.31s-.71-.45-1-.08-.37.66.1,1.19,1,.68,1.29.2Zm1.1-1.48a.71.71,0,0,0,0-1.1c-.31-.39-.63-.5-1-.33-.57.31-.51.83.05,1.42.34.35.5.39.87,0Zm-26.27,74c7,.79,14.59,1.35,27.9-.73l.07-4.53c-4.15,3.25-9.61,1-9.92-2.71a38.55,38.55,0,0,1,1.6-9.91c.55-2,.71-2.82.19-3.22-1.15-.65-3.19-.73-3.71-2.08-.25-.72-.27-1.48.09-.93a6.81,6.81,0,0,0,2.53,1.09c1.81.41,2.1.54,2.3,1.29a10,10,0,0,1-.64,3.54A19.76,19.76,0,0,0,97,196.4c0,.35.28.41.59.31a12,12,0,0,0,1.16-1c1.74-1.54,2.24-1.5.76,0-.59.6-1.4,1.43-1.4,1.49,0,.33.3.29,1,0a7.6,7.6,0,0,1,4.49.21c1.33.67,1.39.64,1.36-1.39a46.64,46.64,0,0,0-2.09-11.77C101,179,97.09,174,91.32,174.22c-7,.37-11.27,3.17-16,6.53,2.89,6.42-1.28,11.33-2.79,12-.15.07,1.89,6.53,2.76,9.81.79,3,2.12,9,2.12,9ZM107.27,56.73c-.16-.42-4.07-13.18-5.16-18.52-10.57-.62-18.39-1.5-27.69,1.15,0,0-.2,3.6-.11,3.77.1.44.42.43.68.29,4.3-2.37,9-1.3,9.28,4.53.12,2.23-.62,3.8-.76,5.92-.12,1.84-1.57,4.3-.69,5.71a5.2,5.2,0,0,0,1.58.87c1.58.68,2.2,1.3,2.31,2.33.17.72-.26,1.2-.39.46-.09-.46-.17-.87-2.12-1.54s-2.41-1.41-2.6-1.8a2.25,2.25,0,0,1,0-1.82,20.41,20.41,0,0,0,1-4.65c0-.32-.37-.17-.83.22a23.45,23.45,0,0,1-3.12,2.06,5.06,5.06,0,0,1,1.1-1.35,14.17,14.17,0,0,0,1.89-2c0-.32-.13-.1-.94.14a6.63,6.63,0,0,1-4.16-.15C75.62,52,75,51.74,74.83,52c-.35,5.69.5,11.55,2.88,16.12,2.13,4.15,6.56,9.35,13.23,8.19,6.88-1.21,13.58-6.76,13.34-6.77-2.57-5.82.36-10.17,3-12.77ZM52.69,211.92c-3-3.06-10.74-6.39-16-7.92-.42-.09-.84-.29-.84.21l-.07,10.51-9.5,8.87v4.23H46.52l13.3-19.54s.64-.12.71-.24a93.07,93.07,0,0,0-8.45-22.82,4.46,4.46,0,0,1-6.35-.61c-1.68-1.88-.65-5.19.94-6.4a24,24,0,0,0-5.94-3.3c-.38-.09-.95.67-1.13,1.37-.34,1.13-.89,2.14-1.26,3.28-.41.95-.81,1.1-1.42.83-1-.28-1.2-.38-1.2-.38l0,12.35a26,26,0,0,1,16.94,19.56ZM83,79.91l2.16-2.35A60.48,60.48,0,0,1,74,75.21,36.84,36.84,0,0,0,83,79.91ZM71.12,73.3c3.81,1.27,8.63,4.24,14.65,3.12-5.48-2.18-9.65-7.27-11.42-17.65-.39,2-1.2,6.2-2.46,6.65-1.77-6.88-8.91-2.88-6,2.74C58.6,73.14,49.9,76,42,79.79c0,0-1.18,3.65-7.09,8.66-1.12-5.87.21-14.57-.48-20.46l-9.27-8.77a32.87,32.87,0,0,1,0,4.66,3.1,3.1,0,0,0,1,.73c.6,33.79-.2,67.19-.2,97.88-.09,18.81.41,38.41.13,56.17l-.34.64v4.25l9.46-9a80.43,80.43,0,0,1,.06-11.3c6,1.2,11.54,4,16.53,7.1.63.17-3.06-12.3-16.49-17.84,0,0,0-3.89,0-12.36,0-8.17-.12-9-.31-9.17-.54.59-7.41,2.91-7.76,2.52.18.06-1.94-14.46-.1-16.66l6.57.13c1.88,1.53,1.13-.33,2.22-.63.65-.18,3.69,1,3.69,1,12.53-14.82,11.28-39.19,2.29-52.9-2.31,1.88-4.75,4.42-7.06,5.51,0-.08-.05-7.56-.05-7.56,12-7.7,25-30,24.17-30.08A60.09,60.09,0,0,1,64.07,78L52.25,95.1c2.71,5.46,5.45,10.42,7.23,15.22.24.65,1,.63,1.16,1.31s-.55,1.4-.45,2c2.49,9.56,3.06,19.7.6,28.88-.52,2.07.43,3.75,1.7,5.3.1.14-1.18-1.11-1.3-1.18-.44-.27-1.18.66-1.33,1.84.1.72.49.85,1,1.43.91.76,4.53,4.34,6.13,6,1.41,1.45,1.78,1.51,2.74.49.27-.26.55-.6.81-.81,0,.08.4-.29.52-.41l21.34-20.87c2.48-2.42-21.31,21.9-21.31,21.9L56.73,170.35c-2.92,2.89-3.31,3.52-3.43,3.74-.21.38.94.37,1.47.29a3.35,3.35,0,0,1-.93.11c-3-.41-4,2.66-5.92,3.33-5,3.56-1.64,9.29,3.14,7.4l1.17-.57a107.8,107.8,0,0,1,9.05,23.79l-.79.36-12.62,19h71.58c-5.14-5.13-9.51-11.43-14-16.14-7.14,2.14-28.72,1.7-28.38.77,0,0-3.27-13.26-5.12-19.77,5.87-5,5.27-13-3.25-16.55a31.88,31.88,0,0,1,18.53-7c2,5,6.62,5.34,8.81.74,0-.05,8.23,2.53,11.26,5.32-4.49-.46-8.93-1.36-13.42-1.57a16.56,16.56,0,0,1,9.27,10.32c.63,1.67,1.6,7.19,1.86,7.21,0,0,1.5-6.37,2.66-6,3,6.2,8.07,1.54,5.92-3.4,7.55-3.61,16-7.65,23-11,2-3.07,7-8.88,7.34-8.91,0,0,9.17-52.63,9.17-70.22-.3-21.15.37-44.7-.54-64.48V21.5H133.26L119.44,41.82a2.19,2.19,0,0,0-.11.46,97.54,97.54,0,0,0,8.11,22.81c5.24-4,9.66,2.56,5.73,6.36-.74.71-.54.89.2,1.38s5.7,3,5.93,3c.9-1.34,1.16-3.32,1.77-4.83.15-.57.58-.64,1.45-.54,1.11.13,1.11.59,1.07-6.51l0-6.1c-6.72-3.1-15.62-11-16-19.19,3.88,2.83,12.81,7,15.19,7.32,1.05.29.89-1.53.92-2.27.29.19.39,3,.39,3-3.94-1.2-6-.95-15.86-6.67,1.69,8.07,9.75,14.43,15.6,17.33,0,0,.24,3.83.23,8.12,0,13.09.09,13.67.09,13.67a40.48,40.48,0,0,0,4.11-1.27c1.6-1.28,4.16-.3,4.51.64.52,4.94,0,9.52-.09,14.24-2.72.19-4.22.77-5.56.82-.87-.11-1.41-.12-1.85-.62-1.3-2.81-1.22-1-1.38,1.09-.12.62-3.37-.47-3.7-.65-14.07,16.22-12.87,34.9-3.31,52.2a57.49,57.49,0,0,1,7-4.44c.06,2.2.1,6.73.1,6.73-11,8.09-24.2,29.54-23.75,29.6l-4.48-5.35s2.82-4.49,3.81-5.68a7.58,7.58,0,0,0,.19-1.52l6.84-9.91c-2.92-6.61-6.92-11.69-8-18.15-4.56-20.64.38-30.91,0-31.7,0,0-.06-.41-.16-.49s0-.24.21-.54c.32-.57.84-1.74.67-2.09s-3.83-4-7-7c-1.67-1.61-1.61-1.79-2.47-.92-.32.33-1.1,1.25-1.1,1.25C97.3,106,88.21,115.71,76.71,127l-.55-.5c16.72-16.66,33.6-33.15,50.17-50l-2.92,0c.09-.21.21-.41.38-.46A9.16,9.16,0,0,0,128.12,75c2.36-1.76,5.75-4.11,6-6.43-.17-4.46-3.93-5.11-6.65-2.93a83.47,83.47,0,0,1-8.35-22.58c-.08-.38-.61-1-.69-1.46.81-2.53,13.62-20,13.62-20H60.13L73.82,37.9c0-.65,19.51-3,28.45-.23L107.71,57c-4.94,4.79-6.4,12.66,2.69,16.76.18.39-.86,1-.86,1,.14-.24.39-.48.29-.7a20,20,0,0,1-5.07-3.79c-5.47,4.28-10.59,6.66-15.6,6.88,0,0,2.65,1.79,3.16,3.76,0,0-.25,0-.31-.1-.54-.67-1.79-2.82-2.84-3.45a4.6,4.6,0,0,0-4.25.85L83,80.12c-4.37-1.34-9.23-3.51-11.9-6.82Zm-.73,47.4,2-2a10.17,10.17,0,0,1,2.31-5.35c1.87-2.25,3.93-4.36,5.46-6.36,1.82-2.41,2.82-4.58,2.33-5.59,2.73-.49,5.23-2.9,5.31-7.27A18.28,18.28,0,0,1,89,88.56s19-.65,32.1-13.15c0,0,.91.2.7.37a45.65,45.65,0,0,1-16.46,11L71,121.14Zm3.81-3.94c.51-.52.63-.68.34-.93-.45-.36-1.3.4-1.3,1.16,0,.49.38.34,1-.23ZM76,115c.4-.39.39-.68,0-1s-1.14-.18-1.37.57.67,1.06,1.32.45Zm1.56-1.59a1.94,1.94,0,0,0,.38-.55c0-.26-.65-.87-.94-.87a1.41,1.41,0,0,0-1,1c0,.29.66.89,1,.89A1.25,1.25,0,0,0,77.54,113.42Zm1.48-3c-.47-.4-.78-.4-1.16,0s-.4,1,.13,1.42.58.38,1.13,0S79.66,111,79,110.47Zm1.73-.27c.51-.42.43-.77-.12-1.33s-1-.58-1.44,0a1.12,1.12,0,0,0-.18.53,2.66,2.66,0,0,0,1.21,1.08,1,1,0,0,0,.53-.31Zm1.67-1.65c.43-.45.37-.77-.25-1.4s-.87-.58-1.33-.15-.38.9.16,1.43S81.94,109.06,82.42,108.55Zm1.88-1.91c.32-.33.23-.31,0-.67a4.29,4.29,0,0,0-1.64-1.49c-.36,0-.68.58-.67,1.15s.27.8,1,1.36c.48.38.33.41.7.2a2.48,2.48,0,0,0,.61-.55Zm1.5-1.37c.68-.77.55-.92-1.08-2.64-.56-.59-.67-.65-1.07-.62s-.4.12-.59.52c-.36.73-.09,1.1.93,2.2S85.2,106,85.8,105.27Zm1.67-1.8a1.16,1.16,0,0,0,.44-.67,6.61,6.61,0,0,0-1.79-2c-.34-.19-.69-.08-1.12.29-.26.23-.25.28-.19.53a7.6,7.6,0,0,0,2.08,2.2A1.12,1.12,0,0,0,87.47,103.47Zm1.66-1.61a1.75,1.75,0,0,0,.5-.79,7.07,7.07,0,0,0-1.86-2.2c-.37-.2-.59-.12-1,.4s-.26.87.58,1.85,1.06,1.2,1.21,1.2A2.12,2.12,0,0,0,89.13,101.86Zm1.57-1.69c.36-.22.83-.68.64-1.06a30.35,30.35,0,0,0-3-3.18c-.52-.28-.51.13-.51,1.44v.68L89,99.18c1.67,1.64,1.3,1.24,1.69,1Zm2-1.87a1.46,1.46,0,0,0,.38-.65c-1-1.27-4-5.26-4.59-5.11-.06,0-.08,0-.12.13a5,5,0,0,0-.09,1.9c1,.91,3.19,3.89,3.69,4.08.31.11.44-.06.73-.35Zm1.61-1.7a1.12,1.12,0,0,0,.35-.54,4,4,0,0,0-.69-1c-.36-.42-1-1.28-1.55-1.89-2.84-3.55-3-3.81-3.47-3.45a1.54,1.54,0,0,0-.21,1.38,49.26,49.26,0,0,0,4.34,5.25C93.74,97,93.87,97.06,94.34,96.6ZM96,95a1.3,1.3,0,0,0,.44-.68,5.64,5.64,0,0,0-.93-1.28C95,92.52,94.2,91.56,93.71,91c-1.28-1.57-1.29-1.63-2.24-1.73-1.43-.14-1.24.17.39,2.08.39.46,1.14,1.37,1.65,2,1.21,1.53,1.75,2.09,2,2.09s.24-.14.48-.37Zm1.67-1.63c.74-.63.59-.83-1.81-3.31-.79-.82-.84-.94-1.45-.94s-.81.12-.81.42a39.89,39.89,0,0,0,3.35,4c.3.12.34.14.72-.17Zm1.75-1.8a1.33,1.33,0,0,0,.35-.6,4.6,4.6,0,0,0-1.31-1.69,1.94,1.94,0,0,0-.91-.54,2.08,2.08,0,0,0-1.23.43,9.12,9.12,0,0,0,1.76,2.24c.6.64.84.69,1.34.16Zm1.53-1.52c.39-.39.38-.74,0-1.26s-.37-.42-1-.42c-1.12,0-1.15.29-.29,1.22C100.3,90.31,100.48,90.53,100.92,90.09Zm1.64-1.62c.44-.55.07-.86-.65-.53a.59.59,0,0,0-.29.37C101.4,88.88,102.14,89,102.56,88.47ZM75.13,93.14c-1.58,1-4.25,2.91-6.06,4.18a5.77,5.77,0,0,0,0,1.51c1-.7,4.33-2.82,5.83-4,.07-.44.18-1.23.23-1.68ZM78,88.53c-.05-.27-.23-.1-.7.3s-5.83,4.39-7.21,5.36a5.68,5.68,0,0,0-1.08.82,2.8,2.8,0,0,0,.09,1.44c1.13-.87,6.5-4.47,6.58-4.6.55-.88,1.79-2.43,2.32-3.32Zm-.6,11.67s-6.39,7.7-8.45,11.54c0,0,0,4.39-.07,6.92l-.35.1s0-6.78-.12-14.13c-.21-18.38-.39-22.84-.39-22.84L66,80.26l-.09-.72S75.11,86,79.61,87c-3.29,5.16-6.33,7.15-2.17,13.16Zm-7.59,9.21c.13-.31,0-.29-.22-.28a.37.37,0,0,0-.31.39c0,.22,0,.27.18.24A.6.6,0,0,0,69.85,109.41Zm1.54-2.28c.92-1.14,1.68-1.87,1.82-2.71a18.5,18.5,0,0,0-4,2.74c0,1.26-.25,1.41.78.85.46-.24.83-.55,1.44-.88Zm.29-2.81c1-.83,4.6-2.77,5-3.73a.69.69,0,0,0-.43-.81c.06,0-5.17,3.2-7.08,4.84a1,1,0,0,0,0,.88c.21.55.63.1,2.51-1.18Zm-1.2-1.52c1.08-.72,3.62-2.48,4.25-2.92,1.08-.75,1.3-1,.91-1.56a.52.52,0,0,0-.72-.19c-3.12,2.17-3.39,2.54-5.75,4.06a1.41,1.41,0,0,0,.12,1.29c.18,0,.48-.21,1.19-.68Zm0-2.35a48.18,48.18,0,0,0,4.47-3.32c.11-.25.14-1.23,0-1.33-1.06.8-3.88,2.53-5.81,4.1,0,.32-.11,1,0,1.2.39.17.5,0,1.33-.65ZM70.13,93c2.07-1.54,4-2.87,6.13-4.31,1.82-1.21,2.12-1.48,1.42-1.85a1.58,1.58,0,0,0-1-.21c-2.42,2-5.12,3.83-7.68,5.73a10.23,10.23,0,0,0,0,1.1c0,.38.49.05,1.18-.46Zm-.28-2.19c.17-.15,1.25-.87,2.4-1.7,3.09-2.25,3.46-2.46,3.46-2.7,0-.65-.9-.79-1.71-.13-1.49,1.22-5,3.43-5,3.75a2.59,2.59,0,0,0,0,1.12c.17.26.42,0,.86-.34Zm.89-3c3.14-2.2,3-2.09,3-2.49s-.31-.19-.79-.22-.46.09-1.32.75C69.81,87.23,69.14,87.61,69,88c-.06.12-.11.63,0,.75S69.43,88.72,70.74,87.8ZM71,85.62a10.58,10.58,0,0,0,1.15-1c.09-.23-.38-.65-.73-.65s-.67.19-1.61,1-1,.56-.94,1a4.79,4.79,0,0,0,.12.84C69.14,87,69.57,86.76,71,85.62ZM69.67,84.2c.67-.56.81-.68.32-1.16s-.95-.55-1.22-.28a6.48,6.48,0,0,0,0,1.59c0,.37.47.23.92-.15ZM83.91,72.1a3.77,3.77,0,0,1,2-1.28,5.63,5.63,0,0,1,3.47.37c.83.42,1.74,1.43.4.81A8.15,8.15,0,0,0,85,71.89c-.71.36-1,.45-1,.21Zm-.86-4.24a8,8,0,0,1,1.89.38,8.53,8.53,0,0,0,4.9-.34c.42-.12.63.17.37.39a6.85,6.85,0,0,1-3.11,1.09c-2.23.21-4.64-.94-4-1.52Zm-11-3.31c1-.47,2.12-7,1.75-8.16-1.17,1.79-2.48,2.59-4.35,2.28-3-.51-3.17-4.27-.8-4.65.94-.15,2.09.47,2.28.32,1-.47,1.8-3.86,2-5s.45-4.06.49-5c.08-2,0-5,0-5L58.63,21.5H26.25s-.07,24.9,0,37.67l9,8.87.12,14.33c10.3-4.5,20.28-9.24,30-14.35-1.13-1.36-1.1-4.78,1-6.07a3.64,3.64,0,0,1,5.71,2.6Zm8.17,3c.07-.81.67-1.47.71-2.3,0-.18.15-.39.63-.13s.83.1,1.54-.23a2.52,2.52,0,0,1,2.61-.18,1.17,1.17,0,0,0,1.42,0,2.75,2.75,0,0,1,2.38-.46c1.07.38,1.44.58,2,.29.31-.15.69-.71.76-.67.44.65.35,1.68.63,2.25.49,1,.3,1.68-.28,1.2-1.23-1-2.18-1-3.93-.6a6.31,6.31,0,0,1-2.68.32c-3.53-.42-3.77-.32-4.48.16s-1.23.52-1.35.33Zm9.46-6.4c-1-.26-2.18-1.18-3-.94a1.2,1.2,0,0,1-1.1-1.82c.91-.89,2.33,0,2.88.42,1.19.91,1.36,1,1.84,1,2,0,1.61-1.89.65-2.57-.57-.6-.63-1-.51-1.13s.77,0,1.39.62c1.18,1.11,1.21,3.34-.24,4A2.35,2.35,0,0,1,89.71,61.19Zm4.14-6.43a23.43,23.43,0,0,1-3-2.71c-.72-.91-1-1.48-.92-2.21.07-.57.16-.9-.21-1.09a1.86,1.86,0,0,1-.68-1.5c0-.13.46,0,.72.28.33,0,.27-.15.63-.39,3.77-2.53,6.79-2,10.37-.3,1,.5,3.74,2.56,2.29,1.89-.09,0-1-.45-2-.94-3.11-1.48-6.56-2.39-9.37-.47-.49.34-.78.6-.4.6,1.58-.31,3.14-1,4.77-.87,2.42,0,3.88,1.23,5.7,2.06s2.35,1.18,1.63,1.91c-.2.23-.36.22-1.32.15s-1.1-.05-1.68.32a8.74,8.74,0,0,1-5.21,1.35c-2.05-.18-2.27-.34-2.32,0s.42.51,1,1.07A13.73,13.73,0,0,1,95,55C95.19,55.31,94.41,55.17,93.85,54.76Zm-.58-3.29a4.55,4.55,0,0,0-.73-1.58c-.25-.26-.46-.16-1,.23s-.46.52-.08.86C92.27,51.71,93.28,51.89,93.27,51.47Zm3.09.14c.83-.4,1.67-1.82,1.29-2.28-.23-.28-.43,0-.86.75a4.26,4.26,0,0,1-.72,1c-.68.47-1.57,0-1.95-1-.22-.63-.46-1-.73-.79-.47.43.07,2,1,2.4A2.54,2.54,0,0,0,96.36,51.61Zm2.58-.23c.84-.26,1.24-.64,1.17-1s-.67-.66-1.08-.66c-.18,0-.54,0-.67.17a7.73,7.73,0,0,0-.76,1.66c.1.25.38.13,1.34-.16Zm2.9-6.27c-4.19-1.61-7.5-2.25-11.48-.55-1.28.56-2,.61-2.07.16s.87-1.51,1.86-2a10.58,10.58,0,0,1,8.92,0,23,23,0,0,1,4,2.79C103.05,45.64,102.78,45.48,101.84,45.11Zm49,47c1-.53,1.46-1.57.85-2.18a.85.85,0,0,0-.64-.18,20.12,20.12,0,0,0-3.48,1c-.33.18-.21.49.11.77a1.2,1.2,0,0,1,.27.73c0,.4-.05.76.22.7a11.41,11.41,0,0,0,2.67-.82Zm-3.72,1a1.23,1.23,0,0,0-.59-1.67c-.39-.2-.69-.09-1,.36C144.8,93.13,146.64,93.72,147.14,93.09Zm-3.74.63c.16-1.73.08-6.85.08-6.85a3.76,3.76,0,0,1-1.52.82,10.94,10.94,0,0,1,.79-1.76A12,12,0,0,0,143,83c-.06-.87-.66-.89,0-2.43a3.19,3.19,0,0,0,0-2.6,1.19,1.19,0,0,1,.23-1.38c.43-.57.26-.85.26-2,0-1.64,0-1.91-.5-.58-.74,1.1-1.09.89-2.22.75-1.09,2.46-2.37,5-2.42,7.15,0,1.33,0,1.53.78,4.32a7.5,7.5,0,0,1,.43,2.64,7.59,7.59,0,0,0,.29,2.28c.32,1.18,1.64,3.13,3.64,2.61Zm-38,110.41v-2.47s-3.94,1.22-5.94.47c-2.06-.56-2-.66-2-.44.07.4,1.6,1.21,3,1.54a10.25,10.25,0,0,0,4-.29c.55-.17.61,0,.39.16-2.42,1.89-5.48,1-7.41-.55-1-1-1.71-1-1.16.34,2.65,5.37,9.21,2.2,9.14,1.24Zm-2.66-3.67.9,0a5.39,5.39,0,0,0-.74-2,2.14,2.14,0,0,0-3.15.12,5.86,5.86,0,0,0-.68,1.91h.72c.26-.69,1.4-3.94,2.95,0Zm-3.58-2.37a3.84,3.84,0,0,0-2.17.73c-.21.22-.21.25,0,.57.52.69,1.32,1,1.38.76a8.56,8.56,0,0,0,.76-2.06Zm5.92,1.74a1.67,1.67,0,0,0-1-1.59c-.31-.07-.61-.14-.52.2a9,9,0,0,0,.51,1.41c.14.31.23.47.53.35s.44-.15.52-.37Zm38.45-32.71v-4.19a55.8,55.8,0,0,0-5.7,7.08ZM79.14,51.91c.9-.39,1.55-1.55,1.33-2.15-.14-.36-.51-.07-.89.47-.6.88-.76,1-1.29,1s-.78-.14-1.17-.9-.46-.83-.7-.52c-.12.14-.11.34,0,.87A1.79,1.79,0,0,0,79.14,51.91Zm2.44-.44c1-.34,1.19-.45,1.14-.78s-.83-.8-1.28-.72a4.37,4.37,0,0,0-1.11,1.76C80.44,51.92,80.77,51.75,81.58,51.47Zm-5.71-.57a2,2,0,0,0-.16-.71.58.58,0,0,0-1,.37c0,.37.52.79,1,.79S75.93,51.43,75.87,50.9Zm5.59-2.5c1.41.53,2.12.59,1.36-.13-1.06-1.17-5.88-2.51-8.47-.6-.19.26-.15,1.27.05,1.22a7.71,7.71,0,0,1,7.06-.49Zm-4.82-4c-1.18.4-2.29,1-2.44,1.59-.23.93.19.94,1.74.45a7.46,7.46,0,0,1,5.92.63c1.29.94,1.67.63,1.45-.16-.72-2.61-4.75-3.09-6.67-2.51Z" transform="translate(0.1 0.1)"/><path id="path6265-7" class="cls-4" d="M152.61,27.57l-8.71,8.64L144,46.44c.88,1.61-13.43-4.58-15.69-6.45.26,6.83,9.57,14.61,15.62,17.46l.17,21.86a23.7,23.7,0,0,1,7.78-2.26C153.09,62.19,154.1,42.84,152.61,27.57ZM104.2,38.28c-.85,0-1.36.24-1.35.79-.25,0,3.22,12.77,4.8,18.12-3.08,3.11-6.29,8.52-1.69,13.52a21.59,21.59,0,0,0,4.48,3c.76.74-9.34,7.27-18.33,7.27-2.88-6.33-6.91-2.83-9.13-.62-1.74-.15-8.21-4-11.52-6.23a6.67,6.67,0,0,1,0-1.12c.23,1.51,13,4.77,13.56,3.25-.37,0-5.72-3.62-7.26-7.2a69.78,69.78,0,0,1-3.53-9.57c-.71,2-.47,4.88-2.43,5.9-.59-6.67-10.1-3.27-5.37,3.25A62.14,62.14,0,0,0,58.9,72,44.19,44.19,0,0,0,79.58,87.09c-1,2.21-7.15,7.19-2.13,13,.23.18-4.79,5.67-7.27,10-1.86,3.24-1.29,5.72-1.08,5.8a103.26,103.26,0,0,0,10.63-14.43c-.06.91,8.08.42,7.94-6.92a21,21,0,0,1,1.3-6c12.42.58,23.09-3.85,32.12-13.15,0,0,1.83.52,3,.7A9,9,0,0,0,130.57,73c1.35-1.1,2.7-2.15,3.18-3.28,1.77-7.64-6-4.66-6.39-4.25-4.46-6.07-8.23-23.32-8.84-23.45-2.48-.51-11-3.77-14.33-3.71ZM73.61,50c-.33,0-1.53,5.37-2.59,5.32-4.48-2.89-4.57,3.1-.72,2.82,3.26-.23,5.08-5.49,3.32-8.13ZM25.71,60.15c.15,32.45.73,64.9,1.49,97.34,2.93-.72,5.06-1.27,7.93,0,.27-9.22-.54-32.5-.35-55,10.94-8.53,18.63-17.93,24-30.23L42.1,80.05s-5.46,7.84-7.2,8.35c-.25-1.12-.53-14.39-.3-20.08ZM62.83,80.22,59.55,85s.08,16.35.26,24.22c.14,1.57,1.56,3,.42,4.41.7,0,3.73,21.21.85,29.8-.52,1.54,0,2.63.77,3,4.12,4.57,6.38,9,11.81,6.36C79.58,147.33,88,137.82,88,137.82L65.75,116.75c-1.9-5.1-2.92-36.53-2.92-36.53Zm81.05,68.16c-10.1,9.05-19.33,18.32-23.11,29.6,5.4-2.18,10.54-4.83,15.79-7.28,2.54-3.06,4.5-6,7.41-8.93,0,0,.32,13.29.06,20,2.63,1.95,8.87,8.07,8.87,8.07s1.72-94.48-2-96.88c-3.61.7-5.42,2-6.77-2.17-.95,19.23-.25,57.62-.25,57.62Zm-35-53.17c-3.88,3.18-17.24,16.3-17.21,16.44,3.54,5.95,17.53,17.87,24.23,24.53l1,33.95c1-1.33,1.71-2.58,2.78-3.91,0,0-.18-17.19-.59-25.25-.12-2.38-.67-4.26-.5-4.48-1.89-9.78-2.67-20.58,0-31.07-6.33-5.46-8.34-9.1-9.68-10.21ZM110,134l0,0c-3.28,4.68-9.55,14.84-10,14.81-.13-.3-6.47,0-7.67,4-1,3-1.09,5.72-1.82,8.79-12.73-.42-22.05,3.62-31.87,12.68-4.81,0-8.38,1.08-10.05,3.11-2.49,1.81-3.16,3.36-3,5.25.22,3.42,6.26,3.91,6.57,1.49.3,0,5.9,12.82,6.45,15,1.32,3.53,2.74,10.14,2.9,10.15,2.26.15,14.92,3.7,15,2.41,1.19-.51-4.41-18.86-4.41-18.86,9.78-8.22-1-17-3.53-16.68a35.73,35.73,0,0,1,19-7c1.09,3.92,6.15,5.94,8.7.72,0,0,10.95,3.93,10.91,5.23-4.51-.68-8.22-1-12.74-1.47,8.65,4.71,8.92,10.91,10.69,17.09a62.71,62.71,0,0,1,2.52-5.87c2.93,6.52,8.52,2,6.21-3.27l7-3.23c.8-.41-10.38-13-20.55-14.79a28.67,28.67,0,0,1,1.24-2.59c2.55-2.51,4.53-6.18.63-10.57,2.57-3.6,8.54-12.3,8.16-12.45,0,0,.12-4.07-.19-4ZM26.33,174.06c-.09,0-.27,30.16-.06,45.13a28.23,28.23,0,0,0-.42,3.94l9.26-8.72.28-11.26c2.42-.58,17.49,7.08,16.29,7,1.15-.49-7-15.83-16.42-17.53-.17-8.69-.26-18.53-.51-21.17A70.17,70.17,0,0,0,26.33,174.06Zm82.22,18.15c-2.59.77-3.67,6.23-2.83,8.88.15.49,0,.6.47.12,1-1.49.69-4.45,2.47-6C113.38,196.62,112.91,190.48,108.55,192.21Z" transform="translate(0.1 0.1)"/><path id="path6267-4" class="cls-2" d="M48.56,227.78l12.26-18.56c14.63,4.9,29.57,5,44.67,2.57l13.5,16h-5.52L105,215.62c-3.08.72-6.28,1-9.47,1.47l4,10.69H95.16L92,217.2a100.25,100.25,0,0,1-17.4-1L72.8,227.78H68.4l3-11.92a86.24,86.24,0,0,1-9.85-2.14l-9,14.06Zm14-10.92,5.09,1.38-2.49,9.54H55.89Zm13.14,10.92,1.44-8.43a65.5,65.5,0,0,0,12.58.76L92,227.78ZM99.83,220l4-1.06,6,8.88h-7.31ZM41.26,166.34c19.58-22.82,17-46.77,6.16-66.1l2.3-2.37c12.51,20.6,15.17,49.89-7.88,72.58C41.6,169.09,41.26,166.34,41.26,166.34Zm78.09-25.59c2.81,4.8,4.53,9.65,7.51,14.48l-7.06,9.55ZM35.1,155.86c-.18-15.05,0-45.56,0-45.56l6.61-5.07c7.91,9.62,12.22,35-2,51.83-1-.75-3.84-.44-4.67-1.2Zm93.81-3c-18.12-30.63-8.82-53,8.64-72.83,0,1.53.08,3.09.22,4.61-15,17.2-21,42.64-6.29,65.66Zm-32.82-4.45,8.26-11.27s1.56-4.48,2.88-5.81l1.51-1.34c.51.49,1.54,1.52,1.54,1.52l-.91,3.47q-4.59,7.06-9.66,14.14S96.79,148.58,96.09,148.38ZM140,93.69c.26-.3,3.54,1.07,3.54,1.07l.21,46.3-6.56,4.22c-1.91,1-16.77-29.41,2.81-51.59ZM70.9,113.19c3-4.07,6.13-7.6,9-11.34a14.37,14.37,0,0,0,2.72.3c.21.11-.66,3.1-2.8,5.17-5.88,7-7.22,8.34-7.43,11.25-.07.93-2.14,2-2.14,2L68.78,119a19.26,19.26,0,0,1,2.12-5.81ZM52.27,95.43,59,86.59l.48,23ZM73.78,37.86l-13-16.29h6.3L74.82,33.1,84.1,32,80.84,21.57h3.84l2.72,10.3c5.69.13,11.25.58,16.66,1.12l2.77-11.42h3.92l-3.56,12,10.48,2.76L127,21.57h4.64l-13.23,19c-17.31-5.21-31.2-4.61-44.64-2.7ZM111.3,31l3-9.48h8.87L116.34,32.4ZM89.84,28.73,88,21.57h15.63l-2,8a70.35,70.35,0,0,0-11.74-.85ZM71.09,21.57h6.24L79.76,29l-3.59.41Z" transform="translate(0.1 0.1)"/><path id="path6269-8" d="M58.73,20.52,73.8,38.58c3.14-1.13,19-2.94,28.45-.77,1.66,6.5,3.41,13,5.26,19,0,0-.59.7-1,1.14-6.06,7-1.77,13.76,3.77,16-1,2.08-11.63,7.26-18.1,6.65,0-.07-2-4.76-6-3.17-1.38.54-2,1.58-3,2.6-3.86-1.17-9-3.71-11.62-6.51,5,2.47,9.85,3.81,14.76,3.15a6.14,6.14,0,0,0-1.3-.82c-.41-.2-1.41-.8-2.22-1.34a15.35,15.35,0,0,1-5.36-6.58c-1.8-3.22-2.09-6.68-3.08-9.74-.52,1.57-.75,5.7-2.11,6.56-.35.23-.42.16-.68-.72-1-3.17-4.85-2.77-6.11-.51a5.22,5.22,0,0,0,.26,4.61l-2.31,1.29v.38l-1.42.68-.29-.2C55,73.39,48.52,76.72,41.78,79.78c0,0-3.58,6-6.86,8.32l-.13-20.21-9.7-8.78,0,4.81.69.73c.14,33.84,0,67.13,0,97.85l0,28.27-.59,0,0,3.3.66.15-.09,4.65-.35,0-.05,2.95.53.08v16.64l-.52.68V224l10.13-9.64.23-11c8,1.51,16.34,7.26,16.34,7.26-1.4-9.19-11.12-16.76-16.71-18.27l0-21.77a36,36,0,0,1-6.2,2c-1,.14-1.41,0-1.89-.74-.35-.54-.36-1,0-2.14a1.41,1.41,0,0,0-.05-1.17,3.53,3.53,0,0,1,0-2.35,2.24,2.24,0,0,0-.13-1.86c-.31-.75-.33-.89-.2-1.33.34-1.14.36-1.32.18-1.83a2.89,2.89,0,0,1,0-2.36c1.5-2.51,4.85-1.89,6.66-1.8.92,1,1.47,1.6,1.56.11.64-1.78,3.14,0,4.31.8,9.94-13.35,14.85-31.42,2.38-54L35,109.51v-7c9.2-5.92,19.55-19.39,24-30,1.49,1.75,3.2,3.47,4.81,5.24l-1,1.77-.31-.18A129.56,129.56,0,0,1,51.77,95a156.27,156.27,0,0,1,7.59,16.15l.57-.26.51,1.64-1,.3c3.39,11.16,3.5,21.49,1,31l.6,2.53s3.59,3.49,4.56,4.51l5.35,5.2,3.28-3.22-.19-.27L102.72,124l1.79,1.72c-17.6,17.76-48.17,48.42-48.17,48.42l-1.06.16a12,12,0,0,1-2.06.08,2.58,2.58,0,0,0-1.8.32A7.22,7.22,0,0,0,49,176.85a2.52,2.52,0,0,1-1.2.9c-6,3.58-.57,10.79,4.52,7a95.14,95.14,0,0,1,8.65,23.72,3.23,3.23,0,0,1-.67.29L46.82,228.7H52l.54-.92H48.65L61,209.9a100.15,100.15,0,0,0,44.78,2.35l12.74,15.53h-5l.72.92,6.54.1-15-17.71c-5.36,1.44-19.51,2.59-28.38,1.09-1.36-6.61-3.6-13.79-5.25-19.5,8.46-6.64,2.11-15.41-3.12-16.63-.25-.48,10.6-7.09,18.33-6.63,2.21,5.33,7.06,4.54,8.8.57,3.2,1.18,7.37,2.36,10.67,5a73.89,73.89,0,0,0-13.71-1.56c8,3.11,10.23,9.65,11.21,15.82a13.71,13.71,0,0,0,.73,2.34c.68-2.23,1.23-4.53,2.57-6.44.62,2.19,2.89,3.88,5.17,2.58,1.33-1,1.79-2.61,1.37-4.9-.12-.63-.18-1-.18-1l1.78-1,.23.2s2-.84,2.91-1.31c.15-.07-.18-.37-.18-.37l18-8.48a70,70,0,0,1,7.16-8.75c.08,7.53.06,10.62.06,19.56l1,1c.9.88,2.86,2.71,7.28,6.77a13.58,13.58,0,0,0,1.69,1.37l-.14-131.65h-.14V56.68h.2V50.08L153.6,50V47.9l.24-.18,0-17.78-.28-.05,0-4.27-10,10.6.08,10c-4.47-.58-10-3.44-13.79-5.75-1.23-.75-1.92-.95-1.88-.52.54,5.95,9.14,15,15.75,17.44V79.78s1.56-.78,2.51-1.18l.14.39,2.14-.88.17-.46,1.85-.23c0,.37.08.32.08.32,1.65.46,2.37,1.59,1.71,2.85-.23.42-.28,1-.08,1.18.71,1.13.9,2.12,0,3.19a1.14,1.14,0,0,0,0,1.43c.9,1.8.39,1.68-.28,2.75-.15.81.73,1.34.44,2.1a3,3,0,0,1-1,1.36c-.42.31-.77-.26-.77-.26a14.48,14.48,0,0,1-2.29.76c-.94.3-2.57.85-3.13-.42-.32-.73-.06-1.4-.08-2.21l-1.39-.15,0,3.7c-.79.42-3.93-1.19-3.93-1.19-13.5,17.53-13.12,37-3.11,53.25.1.27,7.05-4.76,7.05-4.76s0,4.12.05,6.35A92.16,92.16,0,0,0,120.28,177l-3.79-4.5a2.69,2.69,0,0,0,.67-2.18l2.74-4.1,0-1.07,7.14-10c.11.6-7.37-13.42-8.37-18l.5-.14c-3.36-12.72-2.67-21.63-.25-32l-.69-.67L108.84,95l-2.29,2.13c-.11.11-.69,0-.81.16-5,4.65-9.72,9.33-14.44,14.19-.12.12.08.64,0,.77-4.72,4.87-9.62,9.5-14.41,14.37l-1.74-1.67C92,107.94,124,76.43,124,76.43a.52.52,0,0,1,.36-.26,10.35,10.35,0,0,0,2.55-.49c1.06-.24,1.23-.32,1.67-.78a9.57,9.57,0,0,1,1-.87c.47-.34,1.52-1.23,3.18-2.67a4.55,4.55,0,0,0,1.61-3.31,4,4,0,0,0-3.12-4,5.28,5.28,0,0,0-2.86.76c-.54.37-.8.54-1,.37A100.81,100.81,0,0,1,119,42c-.08-.46,0-.6.34-1.17l1.13-1.77c4.31-6.72,8.72-12.36,12.49-18.55h-5.32L127,21.57h4.38l-13,18.81c-24-7.87-43.76-2.88-44.23-2.77l-13-16h5.95l-.72-1.05Zm11.71,0,.66,1.05h6.23L77,20.52Zm10.4,1.05h3.84l-.22-1.05H80.52Zm6.88-1.05L88,21.57h15.63l.28-1.05Zm19.11,1.05h3.92l.29-1.05H107.1Zm7.75-1.05-.33,1.05h8.88l.66-1.05Zm38,7.26.14,2.92-6.4,6.76V46.9l-1.86-.44-.07-9.75ZM150.76,34c.06,2.89-.41,5.66.35,8.61a25,25,0,0,1,1.24,4.86l-2.11,0c-.27-.86-.38-1.82-.69-2.88a16.76,16.76,0,0,1-.84-8.19Zm-46.09,4.71c.08.15.33,1.37.57,2.5a107.93,107.93,0,0,0,4.11,15.53c1.92,5.92,4.77,13.37,7.55,16.82.36.43.54.92.41,1.14s-1.35-.15-2.11-1a12.58,12.58,0,0,1-1.35-2.07c-1-1.82-2.27-4.46-2.4-4.88,0-.17-.56-1.48-1.14-2.9-1-2.5-1.59-4.21-2.43-7-.67-2.2-1.28-4.51-2-6.83a85.16,85.16,0,0,1-2.59-10.29,5.31,5.31,0,0,1-.21-1.23A1.54,1.54,0,0,1,104.67,38.71Zm.68.24c-.12-.1,1.1-.12,1.49.21a6.13,6.13,0,0,1,.5,1.78A129.94,129.94,0,0,0,112,58.18a66.06,66.06,0,0,0,5.33,12.27,24.71,24.71,0,0,0,2.68,3.75c.64.75.69.86.52,1.06s-.58.23-1.29-.11a5.79,5.79,0,0,1-2-2l-.78-1.11a80.6,80.6,0,0,1-6.68-15.64,116.22,116.22,0,0,1-4.38-16.85c0-.21,0-.42,0-.62Zm3.89.8a4.17,4.17,0,0,1,.66,1.92c1.29,5.3,2.35,10,3.87,14.4.82,2.34,1.53,4.68,2.41,6.89a37.72,37.72,0,0,0,5.23,9.41,12.51,12.51,0,0,0,3,2.59c.74.44.85.55.8.81s-.78.32-1,.3a6.74,6.74,0,0,1-3.37-1.77c-3.55-3.84-6.08-10.13-7.93-15.29-3.18-8.88-5.74-20-5.25-19.64,0-.26,1.27,0,1.58.38Zm1.53.33a1.55,1.55,0,0,1,.39.06c.66.18.75.27.91,1,1.13,5.08,2.33,9.55,3.67,13.81a79.27,79.27,0,0,0,5,12.69A14.05,14.05,0,0,0,126.52,74a13.69,13.69,0,0,1,1.25.68s0,.22,0,.36-.25.26-.78.25a4.73,4.73,0,0,1-2.75-1c-2.79-1.93-5.23-6.3-6.31-8.77a100.72,100.72,0,0,1-3.61-9.58,108.4,108.4,0,0,1-4.06-15.39c0-.3.2-.46.55-.45Zm41.81,8.29,0,1.79c-7,.47-14.23-2.5-20-5.18,4.36,5.79,9,10.94,20,12l0,1.86c-14.33-.21-24.42-14.75-23.89-18.37,5.89,3.82,16.54,8.23,23.89,7.9ZM113,40.75a1.86,1.86,0,0,1,1,.34c1.17,4.38,2,9.25,4,14.13,2.37,6,3.69,11.29,8.1,16.23,1.38,1.41,4.06,1.37,4.06,1.37s-.33.76-.79.89a5,5,0,0,1-2.32,0c-2.56-1.08-4.51-3.81-5.52-5.67-.94-1.38-3.25-7.11-5.15-12.94-2.07-6.35-3.77-13-3.58-14.28A.61.61,0,0,1,113,40.75Zm2.36.74a1.6,1.6,0,0,1,.66.19c.29.14.41.22.56.77.1.35.08.89.26,1.78a81.44,81.44,0,0,0,3.73,11.91A71.07,71.07,0,0,0,125,66a21.11,21.11,0,0,0,2.26,3.51c1.48,1.48,4,1.55,4.72.09a2.48,2.48,0,0,0-.48-2.84c-.63-.6-2-.35-2.09.38,0,.19.35.1.87,0,1.43-.16,1.88,2.38,0,2.8-2.33.54-3.95-2.62-1.89-4.56,3.49-2.37,6.15.87,5.33,4a4.24,4.24,0,0,1-3.89,2.85c-2.28.07-3.22-.63-5.56-4-2.67-4.3-3.83-8.5-5.72-13.2a57.3,57.3,0,0,1-3.52-13.34.31.31,0,0,1,.33-.19Zm2.21.73a2.26,2.26,0,0,1,.83.24,1.83,1.83,0,0,1,.28.23c3.14,11.46,5.75,18.34,8.42,23.18a3.71,3.71,0,0,1-.22,1.15c-.32.45-.48.34-.89-.37-1.68-3.25-3.27-6.84-4.76-10.54a61.42,61.42,0,0,1-4-13.15c0-.55-.09-.71.3-.74Zm21.16,6.56a.81.81,0,1,1-.8.8A.8.8,0,0,1,138.77,48.78Zm-65.18-.15c-.93,1.27-1.7,5.82-2.66,5.87s-2.36-.63-3.2.34c-1,1.17-.39,2.47.86,3.18a4.42,4.42,0,0,0,2.54.14c3.05-1,4.2-6,2.46-9.53Zm68.23,1.19A1.17,1.17,0,1,1,140.66,51,1.16,1.16,0,0,1,141.82,49.82Zm-68.18.56a6.66,6.66,0,0,1-1.38,6.81,3.2,3.2,0,0,1-4,.15,1.53,1.53,0,0,1,1.14-2.64,2.32,2.32,0,0,1,1.56,1c1.06.11,2.28-5.27,2.72-5.36Zm72.22.64a1.31,1.31,0,1,1-1.31,1.31A1.31,1.31,0,0,1,145.86,51Zm4.64.92a1.34,1.34,0,1,1-1.34,1.34A1.33,1.33,0,0,1,150.5,51.94ZM107.33,58c.2,0,.34.19.47.58.28.8.27.89-.15,1.43-4.11,5.7-.37,11.53,5.59,12.16.5,0,.76.61,1,1.27,0,.31,0,.31-1.39.33a7.77,7.77,0,0,1-2-.16,10.84,10.84,0,0,1-5.69-4.2c-1.21-2-1.41-4.1-.67-6.89a8.53,8.53,0,0,1,2-3.93C106.88,58.23,107.14,58,107.33,58Zm39,.64.07,19.56L144.3,79l.08-20.81Zm3.94.75q3.88,9.67.36,17.73l-2.36.34c3.24-7.57,1.86-13,0-18.22ZM26,60.5l8.42,8,.29,88.62-1.34-.47-.54-87.17L26,63.16Zm82.16.25h0c.23,0,.43.31.62.84a1.25,1.25,0,0,1,0,1.29c-1.15,2.83-.21,5.53,2.64,6.38.68.21.79.32,1.19,1.17.26.54.37.74.27.86s-.51.16-1.58-.07a6.85,6.85,0,0,1-3.85-9.79c.24-.42.46-.65.66-.68ZM74.35,60.4a22.79,22.79,0,0,1,.8,3.85c-.23,1.37-2.18,3.57-3.88,4.37-1.58.61-4,.3-5-.75-3.63-4.26,3.14-8.53,4.84-4.1,1,2.91-3.14,3.6-3.32,1.36,0-.57.18-.75.72-1.13s.42-.63,0-.63a1.81,1.81,0,0,0-.9,2.94c1.42,1.49,3.17.62,4.38-.47,1.62-1.46,1.94-3.57,2.32-5.44Zm35.12,3.24c.08,0,1.75,4,2,4.55-.06.4-.49.37-1.24-.15a2.93,2.93,0,0,1-1.29-2.12C108.81,65.48,108.65,63.9,109.47,63.64ZM75.7,65.32c.36,0,.74,1.35.57,2-.3,1.19-3.42,3.21-5.62,3.63l-1.05.19a1.82,1.82,0,0,1-1.53-.73c-.39-.4-.58-.8-.49-.89s1.09.1,1.94.09c2.39,0,4.24-1.7,5.66-3.75.22-.32.45-.58.52-.58Zm-47.56,1s1.62,1.46,2.48,2.31c-.1,3.9-1.54,8.14-1.53,11.63,0,3,2,5.57,2.19,8.22a14.77,14.77,0,0,1-1.22,6.17,13.85,13.85,0,0,0-1.2,5.56c.1,4.32,3.2,9,2.11,13.31-1,4-2.18,6.33-1.88,8.46.6,4.11,2.78,7.75,2.2,11.17-.54,3.18-2,6.36-1.82,9.24.18,3.31,1.41,6.08,1.76,9.11a21.72,21.72,0,0,1-.33,5l-2.27.19c1.25-4.66-.61-8.87-1.32-13.35-.61-3.81,1.1-6.84,1.61-10.09a12.19,12.19,0,0,0-1-6.52c-2-4.75-1.27-7.84.15-12,1.76-4.4-.66-7.89-1.26-12.11a17.91,17.91,0,0,1,1.3-9.44c1-3.11,1.3-4.92-.22-7.9a10.25,10.25,0,0,1-1.21-5.49c.5-4.93,1.83-7.7,1.5-13.52Zm48.64,2c.35,0,.53.25.53.75,0,.92-1.37,2.09-3.79,3.23-1.26.59-2,.68-2.72.33s-.65-.61.1-.83a11.33,11.33,0,0,0,4.76-2.68,3.9,3.9,0,0,1,1.12-.8Zm-11,.64c6.25,6.69,12.37,10.14,17.06,11.75l-.74,1.75C76,80,69.71,76.71,64.4,69.58Zm12,1.09a2.17,2.17,0,0,1,.8,1,2.69,2.69,0,0,1-.51.9,5,5,0,0,1-1.81,1.37c-1.4.77-2.25,1-2.85.63s-.4-.59,1.1-1.47a17.6,17.6,0,0,0,2.31-1.64A7.53,7.53,0,0,1,77.86,70ZM61.31,71A38.08,38.08,0,0,0,80.77,85.16l-1.22,1.65c-7.08-2.44-14-6.86-20.32-14.64Zm17.87.86c.26,0,.84.66.84,1a1.12,1.12,0,0,1-.25.57,11.78,11.78,0,0,1-2.31,1.74,1.31,1.31,0,0,1-1.35,0c-.62-.31-.52-.57.49-1.22a12.92,12.92,0,0,0,1.65-1.3,3.79,3.79,0,0,1,.93-.73Zm-20.58.51c-.15.19-7.53,17.14-23.19,29.16l-.07-2.81c8.67-6.89,15-16.32,19.73-24.56Zm22.07,1.22c.24,0,.4.16.57.47s0,.72-.89,1.38a1.6,1.6,0,0,1-1.21.49c-1.16,0-1.13-.3.15-1.45.66-.59,1.08-.88,1.38-.89Zm30.23.84,3.26.25c.88.61-12.75,9.55-22.2,8.75l.25-2.14C100.5,81.53,111.12,74.82,110.9,74.43Zm-28,.84c.75.42,1.68.92,1.45,1.08a6.67,6.67,0,0,1-3.07-.2c-.38-.2-.36-.31.17-.9S82.21,74.88,82.91,75.27Zm-29.09-.54C48.65,83.87,42.5,92.22,35.37,97.65l-.1-4.83C42.06,87.58,47.19,78,47.21,78Zm64.76.59,1.59.92c-9.86,9.15-20.51,13.09-30.74,12.1l.82-1.85c16.6,1.31,27.63-11,28.33-11.17Zm2.4.32s.53-.07.47,0a76,76,0,0,1-10.71,8.56c-13.94,14.35-25.87,25.67-38,38.44l-2-2,1.76-1.87c0-3.68,4.51-7.8,7.17-11,1.12-1.26,3.21-4.49,3-5.85a3.06,3.06,0,0,1-.09-.43c4.22-.84,5.23-4.27,5.32-7.3a19.58,19.58,0,0,1,1.15-5.53C108.15,90.22,120.46,76.14,121,75.64ZM87.7,77.76a3.84,3.84,0,0,1,3.8,4.14c0,1-.37,1.79-1.75,4.49-1.34,2.3-1.51,3.7-2,6.36l-1.36-1.22-2.47,2.23,0-3.25s.86-1.09,2.23-2.63c1.75-1.95,3.33-4.45,3.25-5.85a2,2,0,0,0-3-1.63c-1.31.92-1.92,2.59-2.69,7.57-.14.89-.27,1.93-.34,2.15a13.19,13.19,0,0,1-2.1,2.42,30.56,30.56,0,0,1-.91-3.66l-1.93.32a25.36,25.36,0,0,0,5.08-8.41c1-1.88,2.35-3,4.23-3Zm-41.83.77S42,86.5,35.32,91.68l0-3.12a32.52,32.52,0,0,0,6.88-8.25Zm92.14.2c-13.29,13.79-30.63,39.18-9.11,74.85l2.85-3.29c-17.34-32.26-5-49,6.36-65.75ZM66.15,79.87C70,82.64,74.1,85.4,79.36,87.14c-.28.94-7.5,7-2.32,12.66.21.29-.34,1-1.18,2-2.48,3.39-5,5.8-7,9.61l-.08,7.17-2.07-1.83Zm71.35.66.09,4.09c-19.75,24-17.52,45.69-6.36,65.63l-2.14,2.18c-18.29-31.55-6.88-55.33,8.41-71.9ZM88.79,83c-.87,2.3-4.68,6.25-4.68,6.25s.5-3.84.82-5.06a7.76,7.76,0,0,1,1.33-2.77C87.8,79.68,89.33,81.6,88.79,83Zm-26.2-2.16L63,113l-2.78-2.8-.4-24.63Zm-3.75,6.3L59.39,109a130.17,130.17,0,0,0-6.74-13.66Zm21.92,6.85a11,11,0,0,0,1.09-1.12c1.44-1.46,1.57-1.47,1.44.5-.05.75,0,1.72,0,1.72.84-.49,2.83-2.84,3.39-2.42a3.62,3.62,0,0,1,.79,2.59,6,6,0,1,1-10.07-4.36c.44-.46,1.7-1.32,2.3-1.15.75,1.37.72,2.89,1.07,4.24Zm63.48-2.33a3.59,3.59,0,0,0,2.15,2.49c-.2,31.32,0,86.77,0,86.77l6.28,5.91,0,2.59-8.33-7.65s-.45-65.39,0-90.11Zm6.25,1.45c.22,3-.29,6.22.23,9.34.51,2.15,1.29,4.09,1.35,6.21a14.91,14.91,0,0,1-.89,5.74,13.08,13.08,0,0,0-.77,4.08c-.31,2.62.54,5,1.19,7.1.86,2.77.62,6.13-.76,10.56a8.52,8.52,0,0,0-.52,3.71c.19,3,1.27,5.91,1.82,8.89.3,1.7,0,3.93-1.06,7.71a25.61,25.61,0,0,0-.8,4.79,13.82,13.82,0,0,0,.63,3.68c1.45,3.82,1.52,4.51,1.6,6.81a13.55,13.55,0,0,1-1.1,5c-1,2.43-.35,4.92,0,7.65l-2.51-2.15a9.26,9.26,0,0,1,.21-6.26c1-2.73,1.22-3,1.2-4.55,0-2.08-1.21-4.55-1.7-6a12.28,12.28,0,0,1,0-7.9,40.92,40.92,0,0,0,1.19-5.07c.26-2.07.06-3.7-1-7.84a17,17,0,0,1-.64-4.82,21.8,21.8,0,0,1,.83-6,14.06,14.06,0,0,0-.27-9,14.91,14.91,0,0,1-.92-6.78,10.61,10.61,0,0,1,1.05-3.64,11.28,11.28,0,0,0,.44-7.82,37.2,37.2,0,0,1-1.21-12.65Zm-7.05,1.72c-.21,21.47,0,46,0,46s-6.34,4.45-6.32,4.22c-8.17-13.51-11.29-33.41,3-51.36a18.72,18.72,0,0,0,3.33,1.1ZM46.92,99.9c11.58,21.65,13.08,43.52-6.05,66a11.79,11.79,0,0,1,.2,5.64c3.74-2.91,33.65-32.85,8.46-74.54Zm59-1.76,5.69.33.38,4.9-1.84,1.83s0-1-.06-1.92a5,5,0,0,0-.29-2,15.36,15.36,0,0,0-.28,2.73l-.08,2.1-.64.64c-.85.85-1,.78-1-.41-.07-2.6-.06-2.78-.25-2.59a8.5,8.5,0,0,0-.2,2.34,14.19,14.19,0,0,1-.16,2.27,3.84,3.84,0,0,1-1.5,1.34c-.26,0-.25-.38-.25-2,0-1.37-.14-2.12-.36-1.61a22.19,22.19,0,0,0-.16,2.57,13.55,13.55,0,0,1-.16,2.23c-.24.44-1.35,1.39-1.55,1.31s-.35-.91-.34-2.27c0-.66.1-1.22-.15-1.4s-.3.59-.23,2.53l0,2.12-.71.78c-1.13,1.17-1.21,1.11-1.21-.9,0-1.6,0-2.3-.32-2.17s-.19.9-.13,2.47a7.64,7.64,0,0,1-.06,2.28,6,6,0,0,1-.81.92c-.37.36-.83.87-.88.87-.09-1.7-.23-5.33-.23-5.33l-5.93-.27a11.48,11.48,0,0,1,1.73-1.72c.27-.14.68-.16,2.17-.1a16.39,16.39,0,0,0,2.5-.08c.44-.18-.49-.33-1.79-.41-.88-.07-1.1,0-2.07-.18l.86-.9.65-.64,1.89.06a10.33,10.33,0,0,0,2.13,0c1.11-.22.07-.48-1.21-.48s-2,0-2-.28a4.83,4.83,0,0,1,1.79-1.63c.21,0,1.22-.08,2.26-.09,1.77,0,2.42,0,2.32-.33s-1.28-.21-2.06-.25c-2.18,0-2.28-.08-.79-1.39l.72-.63,1.36,0c2.06.06,3.06,0,3.06-.22a5.6,5.6,0,0,0-2.48-.35H102a17.31,17.31,0,0,1,1.64-1.79l1.84,0c1.34,0,2.17.07,2.19-.18s-.48-.24-1.1-.24a6.19,6.19,0,0,1-2-.21c-.14-.14.12-.54.7-1.06l.6-.54Zm-56.28.06c15.9,26,10.16,54.15-7.57,71.66l-.52-3.42C58.27,146,61.19,125,47.65,100.21Zm29.57,3.49c-2.85,4.31-7.22,8.55-8.86,12.06-.34.4-.45,1.29-1,1.46-.26,0-.35-.49-.28-1.64a4,4,0,0,1,.54-2c2.26-4.12,4.87-7.08,7.75-11Zm.67.42,2.64.17a13.63,13.63,0,0,1-2.31,4.42c-1.2,1.55-2.64,3.12-4.31,5-2.43,2.77-3.65,5.6-3.54,6.84a21.56,21.56,0,0,1-1.8,1.74L69,118.9c1.14-5.86,6.67-11.25,10.86-16.79Zm32.29,2.38.86.05a27.12,27.12,0,0,1,4.85.48,3.35,3.35,0,0,1,.2,1,8.68,8.68,0,0,1-.38,2.9,12.72,12.72,0,0,1-.61,2.2c-.34.35-.48,0-.63-1.59-.1-1-.13-1.66-.26-1.58a6.57,6.57,0,0,0-.15,1.84c.09,2,.08,2.49-.54,3.09-1.09,1.06-1.15,1-1.23-.92a10.29,10.29,0,0,0-.27-2c-.24-.24-.32.84-.32,2.67v1.94l-.51.56c-.68.74-.9.85-1.14.6s-.1-.49-.1-1.6c0-1.3-.23-2-.48-1.8,0,0,0,1.31-.06,2.4s0,2.07,0,2.16a4.88,4.88,0,0,1-1.49,1.51c-.26,0-.47-1.44-.47-2.61,0-.78-.16-.92-.33-.49a21.54,21.54,0,0,0-.07,2.19v1.79l-.73.75c-1,1-1.12,1-1.13-.43,0-1.18-.08-1.81-.32-1.81s-.16.56-.16,1.9a9.6,9.6,0,0,1-.14,2,4.11,4.11,0,0,1-.7.94,2.63,2.63,0,0,1-.72.58,3.2,3.2,0,0,1-.27-1.6c0-.1,0-.81,0-1.57,0-1.82.09-1.75-2.81-1.84-3.4-.1-3.45-.12-2.42-1.12s.83-.9,3.09-.75c1.81.12,2,.11,2.21-.07s.17-.23.14-.27a11.5,11.5,0,0,0-1.54-.14c-2.24-.13-2.43-.29-1.48-1.24l.53-.54h2.29a10.38,10.38,0,0,0,2.66-.16c.15-.24-.46-.3-1.93-.38-.79,0-1.54-.12-1.66-.15-.37-.11-.23-.49.4-1.08l.61-.57h2c1.88,0,2.8-.13,2.8-.37s-.38-.25-1.34-.26c-1.36,0-2.27-.15-2.33-.34a6.36,6.36,0,0,1,1.32-1.54l2.06.07c2.07.07,2.72,0,2.72-.36,0-.19-.88-.33-2-.26-.74,0-1.64-.13-1.64-.39a2.65,2.65,0,0,1,.67-.86l.66-.66,2,.08a14.18,14.18,0,0,0,2.41,0c.33-.23-.44-.41-1.71-.48-2-.11-2.08-.26-1-1.24ZM41.9,105.57c10.44,18.73,8.88,36.37-2.24,51.39a10.13,10.13,0,0,0-4.09-1.31l-.28-45.21Zm74.65,7.32c.21,0,.21.31.15,1a8.63,8.63,0,0,1-.2,1.36c-.12.31-.21.33-1.23.18s-1.13-.37.14-1.62c.61-.61,1-.93,1.14-1Zm-56,.84s1.37,0,2.06,0c0,0,.1,3.5.39,5.52l4.47.22L65.7,121.3l-3.39-.11s-1-5-1.79-7.46Zm53.31,2.12a7.51,7.51,0,0,1,2.47.47c.15.15.16.52,0,2.79,0,.81-.1,2.56-.11,3.89,0,2.39,0,2.4-.3,2.44s-.4-.07-.5-1.65a5,5,0,0,0-.28-1.71c-.12,0-.11.75-.11,2.37v2.1a7.14,7.14,0,0,1-1.1.89c-.25,0-.38-.39-.51-1.49s-.24-1.85-.38-1.61a16.5,16.5,0,0,0,0,2.21l.12,1.78-.78.79c-.81.81-.91.88-1,.67-.3-.81.13-4.5-.6-5a19.52,19.52,0,0,0-2.2-.14c-1.89-.08-3-.11-3.22-.34s.73-1.17,1.19-1.38.7-.16,2.26,0c1.8.12,2.71.1,2.47-.13a10.09,10.09,0,0,0-1.7-.26c-1.45-.15-2-.29-2-.56a6.92,6.92,0,0,1,1.25-1.47l.7.07,2,.22c.73.09,2.2.1,1.6,0,.2-.19-.56-.39-1.6-.52-2-.24-2.14-.47-1.15-1.44l.6-.6c1,.08,2.08.1,3.1.26.75.12,1.16.08,1.16-.18s-.37-.17-1.28-.35c-.33-.06-2,0-2.05-.54.4-.55,1.12-1.56,1.84-1.61ZM68,120.1c.3,0,.31.72.34,2.65,0,2.12.07,2.49.25,2.67s.61.23,2.47.33c2.84.14,2.92.18,1.91,1.15-.7.67-.73.59-1.3.52a14.14,14.14,0,0,0-3.79,0c-.15.24,0,.29,1.39.39,1.67.13,2.13.19,2.13.47a2.16,2.16,0,0,1-.63.82l-.63.59-1.76-.07c-1.86-.07-2.81-.1-2.81.15s1.06.32,2.74.49a2.93,2.93,0,0,1,.9.12c.06.18-.78,1.24-1.31,1.63s-.57.14-2.42.1-2.06,0-1.71.38c.08.08.4.09,1.1.14,1.17.08,1.72.26,1.72.55a4.29,4.29,0,0,1-1.53,1.59c-.44.2-.62.21-1.58.08-.75-.1-.9-.26-.88-1,0-.32.07-2.39.13-4.61.11-4.27.14-4.49.71-4.41.24,0,.3.33.36,1.78s.13,1.85.39,1.85c.09,0,.11-.62,0-2.1-.09-2.31-.1-2.65.6-3.32.32-.3.57-.54.71-.32a12.21,12.21,0,0,1,.3,2.81c0,.92.35,1.12.43.24,0-1.39,0-2.63-.06-4.12l.86-.85c.45-.45.74-.73.92-.74Zm-5.55,1.73a17.5,17.5,0,0,1,2.52,0,8.56,8.56,0,0,1-2.19,2.18A6.3,6.3,0,0,1,62.44,121.83Zm53.92,4.2.4,2.85-3.1-.21Zm-41.89.46h.06c.22.08.28.63.37,3.28a11.74,11.74,0,0,0,.21,2.32c.09.11.48.16,1.2.16s1.68,0,2.45.08c1.66.1,1.7.17.71,1.15l-.67.66-2.08-.08c-2.14-.09-2.49-.06-2.49.24s.36.29,1,.28c.27,0,1,0,1.51.08,1.25.11,1.28.21.35,1.21l-.67.73-.65-.09a15.88,15.88,0,0,0-4,0c-.26.25.08.36,1.33.44,1.94.12,2.28.18,2.28.4a2.44,2.44,0,0,1-.61.8l-.61.61-2.46-.13c-1.73,0-2.32,0-2.36.12s.22.25,2,.44,2,.35,1.31,1.16-1,1-2.33.86a11.5,11.5,0,0,0-3.22,0c-.34.22,0,.36,1.07.44,1.59.12,2.52.29,2.52.53a2.85,2.85,0,0,1-1,1.33l-.42.32-1.82-.19c-1.81-.19-2.74-.1-2.48.16a5.42,5.42,0,0,0,1.5.24c1.36.1,2,.28,2,.56a4,4,0,0,1-.78.92,4.94,4.94,0,0,1-.92.71l-5.6-.5a9.06,9.06,0,0,1,.27-3.73c.51-2.46.72-3,1-2.55a6.63,6.63,0,0,1,.18,1.13c.11,1,.35,1.61.5,1.61s.16-.59-.05-2c-.3-1.92-.33-2,.4-2.77s1-.82,1.18-.52c0,.09.12,1,.2,1.69.13,1.28.21,1.58.37,1.41s.19-.47.07-2.38l-.15-1.85L66,135c.75-.76.84-.82,1-.62a6.55,6.55,0,0,1,.27,1.88c.08,1.4.19,1.86.4,1.66a26.53,26.53,0,0,0-.06-4c-.06-.48,0-.55.58-1.23s1.1-1.15,1.3-1.16.4.8.41,1.86a4,4,0,0,0,.19,1.72c.27.37.3-.91.24-2.18l-.07-2.31.74-.74c.71-.71.77-.74,1-.54s.15.55.22,1.72c.1,1.61.41,2.39.5,1.27a4,4,0,0,0,0-1.09,12.17,12.17,0,0,1-.1-1.77c0-.94,0-1.19.27-1.56a4.22,4.22,0,0,1,1.62-1.41Zm32.4,1.75s1.25,1.08,1.25,1.38A5.36,5.36,0,0,1,107,131c-1.24,1.22-1.36,1.42-1.5,2.73a7.62,7.62,0,0,1-.87,2.29c-.44.88-1.07,1.91-1.07,1.91a111,111,0,0,0-7.31,9.53c-.2.46-.21.92-.41,1.3a1.58,1.58,0,0,1-.66.58,5.65,5.65,0,0,0-1,.63,6.67,6.67,0,0,0-2.51,3.91c-.2.88-.32,1.67-.68,4.37-.14,1.11-.63,3-.63,3-7.44-.1-14.41,1.19-20.62,4.7Zm9.95,1.15,1.65,7.54-1.7,0-.17-5.47-5.32-.51,1.9-1.84Zm-8.08.69c.46.47,1,1,1.44,1.48-1.43,4.77-5.93,11-10.41,17.09l-3.28-.35a92.22,92.22,0,0,1,6.75-9,16.53,16.53,0,0,0,2.15-3.48,20,20,0,0,0,1.11-3.42c.78-.93,2.25-2.29,2.24-2.31Zm1.77,1.67,2.48,2.52L113.6,170A45.63,45.63,0,0,0,100.45,163l.84-1.92.92-1c3.28-3.54,2.55-7.36.06-10.06,3-4.43,5.78-7.73,8.08-12.05l0-3a12.64,12.64,0,0,1,.19-3.29Zm-29.68,1.49c.26,0,.29.64.36,2.51a10.51,10.51,0,0,0,.25,2.76c.15.24.3.26,2.36.33s2.63.12,2.63.36a3.43,3.43,0,0,1-.62.74l-.62.62-1.94,0c-1,0-2.25,0-2.28.05s.47.37,1.41.37a11.37,11.37,0,0,1,1.63.15c.37.14.2.51-.6,1.28l-.8.77-1.76,0a18,18,0,0,0-2.3.06c-.53.18-.26.33.62.34,1.48,0,2.5.14,2.55.37a2.32,2.32,0,0,1-.62.92l-.66.71-2.59-.11c-2.44,0-2.77.2-.73.4.78.08,2,.27,2,.28a.38.38,0,0,1,.15.2c.09.23-.89,1.34-1.42,1.61a1.18,1.18,0,0,1-.93.05,11.45,11.45,0,0,0-3.18.05c-.21.13.25.27.91.29,1,0,2.18.3,2.18.54a3.67,3.67,0,0,1-1,1.29c-.25.21-.84,0-2.47.07a5.56,5.56,0,0,0-1.87.22,2.42,2.42,0,0,0,1.27.34,8.5,8.5,0,0,1,1.74.28c.17.17-1.09,1.66-1.09,1.66L68,152.61l-.5-5.72.46-.52c1-1.2,1.25-1,1.46,1.12.15,1.56.26,2,.49,1.81a9.88,9.88,0,0,0,0-2.29c-.07-1.08-.12-2.07-.12-2.19,0-.3,1.22-1.59,1.46-1.54s.37.58.49,2c.11,1.2.16,1.53.4,1.29a5.79,5.79,0,0,0,0-2.26l-.15-2,.52-.61c1-1.24,1.25-1.11,1.37.91.09,1.35.22,2.07.47,2.07a11.28,11.28,0,0,0,0-2.55l-.08-2.3.65-.66a2.84,2.84,0,0,1,.81-.66c.25,0,.4.58.56,1.94.18,1.53.23,1.79.38,1.64a10.72,10.72,0,0,0,0-2.17l-.18-2.28.79-.81a3.26,3.26,0,0,1,1-.77c.24,0,.4.74.42,1.71a3.69,3.69,0,0,0,.37,1.9c.1.1.13-.46.1-2.08,0-2.51-.1-2.7,1-3.87.3-.31.5-.51.64-.53Zm29.06,1,0,3.5c-1.4,3-4.62,7.38-7.89,12.08l-1.71-.92a93.36,93.36,0,0,0,9.58-14.66Zm-46.72,1.1h.26c.88,0,.9.36.08,1.13a2.18,2.18,0,0,1-.88.58c-.26,0-.27,0-.19-.71s.19-1,.73-1Zm53.32,2.52,2.41,2.38.6,25.55L117,170Zm3,3.37a94.74,94.74,0,0,0,6.93,13.83L120,164.2Zm-21.69,8c3,0,5.69,2.31,6,4.7a5.78,5.78,0,0,1-3.08,6.61,4.53,4.53,0,0,1-1.28.3c-.28-1.65-.16-3.24-.53-4.92a20.93,20.93,0,0,1-2.17,2.47c-.41.23-.59.29-.53-.24,0-.93.09-3,.09-3l-3.42,3.55a6,6,0,0,1-.61-1.27,6.18,6.18,0,0,1,2.53-7.28,5.45,5.45,0,0,1,3-.93Zm45.56-.21.07,3.12c-5.38,4.18-13,13-19.61,24.44l-2.9,1.22c4.46-10.67,13.87-21.54,22.44-28.78Zm.06,4.11.06,4.65a70.75,70.75,0,0,0-12.45,15.37c-2.09,1-6,2.92-6,2.92-.49-.12,10.56-17.36,18.36-22.94Zm-47.84,4c.22,0,.21.42.14,1a4.33,4.33,0,0,1-.82,2.54c-1.73,2.06-4.49,4.85-4.87,7.45-.19,1.39.89,2.69,2,2.56,3.31-.42,3.66-6.3,3.94-9.2a8.73,8.73,0,0,1,.29-1.55,12.87,12.87,0,0,1,2.38-2.46L99,162l1.86-.62c-5.25,7.14-3.74,7.59-6.51,10.52-2.57,2.71-7.56-.38-6.28-4.52,1.1-2.78,2.82-5.57,3.29-8.55.12-.89.19-1.5.19-1.5l1.2,2.49a20.08,20.08,0,0,1,2.83-2.69Zm48,1.55,0,3.2a67.23,67.23,0,0,0-7.05,8.7l-4,1.81c2.59-4.94,6.84-9.57,11-13.71Zm-48.5,2.83a12.25,12.25,0,0,1-.32,4.21c-.28,1.29-1.52,5.06-3.47,4.17-1.67-1.47.36-4.2,1.38-5.49.79-.93,1.65-1.93,2.41-2.89Zm-5.23.38-1.08,2.32c-9.73,0-19.17,3.52-27.58,10.64l-2.13-.7A43.14,43.14,0,0,1,89.91,161.85Zm10.22,1.78c11,3.68,16,9.05,20.17,14.67l-1.73.89c-4.35-5.63-9.71-10.78-19.69-13.77ZM87.58,167.1l-.47,2c-6.14.19-12.61,2.37-18.92,6.75l-2.27-.36A38.55,38.55,0,0,1,87.58,167.1Zm28.05,13.43-1.95.92c-5.81-7.55-11.06-9.7-17-11.62l.65-1.68a31.51,31.51,0,0,1,18.33,12.38Zm-81-8.9.17,20.15-1.4-.28L33.2,172Zm-3.25,1.09c-2.67,10-.6,12.62.37,18.47l-2.21-.36a26.78,26.78,0,0,1-.56-17.6Zm67.18,1.54c.17.16-.13.65-.54.9s-.31.19-1,0-1.41-.81-1.41-1a16.27,16.27,0,0,1,2.9.17Zm1.89.14c.36,0,1.42,0,1.49.36s-.39.52-1.24,1.1c-1.29.88-1.73,1-2.11.63s-.25-.8.35-1.36a2,2,0,0,1,1.51-.73Zm-44,.22a4.88,4.88,0,0,1,2.86,2c.81,1.27,1.74,2.57,2.49,3.85a54.38,54.38,0,0,1,4.12,8.9,118.94,118.94,0,0,1,6,21.12c0,.58-.53.57-.94.43a.84.84,0,0,1-.48-.32c-.6-1.7-.8-3.44-1.26-5.14a112.14,112.14,0,0,0-3.74-12.72,88.18,88.18,0,0,0-4.59-10.81,25.14,25.14,0,0,0-4.23-5.86,13.1,13.1,0,0,1-1-1c0-.29.29-.46.81-.46Zm46.84.23c.68.17,2.34.37,1.71.91a13.09,13.09,0,0,0-4.31,2.86,2.56,2.56,0,0,1-.92-1.14C100.74,176.25,102,175.73,103.26,174.85Zm-43.48,0c1,0,1.92,1.22,2.37,2,3,4.4,5.54,10.68,7.65,16.83a98.94,98.94,0,0,1,4.32,17.51c-.05.14-.33.2-.65.19-.62,0-.7-.14-.86-.63A143.57,143.57,0,0,0,66.43,189a63.53,63.53,0,0,0-5.07-10.52c-1.48-2.17-2.32-3.31-2.25-3.48s.29-.17.57-.17ZM53.1,175c1.31,0,3.48,1.56,4.95,3.56,3.12,4.28,4.91,9.29,6.76,14.15a100.14,100.14,0,0,1,4.58,16.63c.16.7.42,1-.24,1.22-1-.28-1-.25-1.26-1.47s-.5-2.62-.87-4c-2.11-7.58-4.46-16-8.38-22.85-4.7-7.54-6.07-5.44-6.82-6.77.06-.3.58-.51,1.28-.52Zm11.32,1.84c4,7,5.82,11.37,7,15.63,1.86,6.45,4.07,11.59,5,19.12a5.63,5.63,0,0,1-1.49-.15,4.56,4.56,0,0,1-.48-1.55,127.43,127.43,0,0,0-4.22-16.56,70.61,70.61,0,0,0-7.15-15.83c-.83-1.36-1-1.9-.48-1.93.91.07,1.31.77,1.73,1.27Zm42.09-.75a1.42,1.42,0,0,1,.61.09c.53.19.7.31.73.52s-.28.41-1.32.65a10.79,10.79,0,0,0-3.5,2,7.57,7.57,0,0,1-1.07.88c-.26,0-.86-.67-.86-1a8.66,8.66,0,0,1,5.41-3.15Zm-55.67.18c3.42.1,6.1,4.08,7.5,6.77.55,1.05,1.25,2.19,1.79,3.39a115,115,0,0,1,6.28,19c.56,2.4,1.2,4.15,1,4.62a1.19,1.19,0,0,1-1.15-.19c-.18-.14-.27-.69-.58-1.69-.8-2.57-2.12-9.91-5.57-17.62a53.47,53.47,0,0,0-4.62-9.68,7.83,7.83,0,0,0-4.79-3.46c-.87-.14-1.13,0-1.08-.51,0-.3.13-.38.59-.53a2.39,2.39,0,0,1,.66-.1Zm21.38,15.9c-.24,0-.44-.45-.6-1.18-.08-.36-.18-.62.49-1,4.25-4.52.6-11.16-4.73-11.74-.5-.07-1.14-.08-1.32-.15a5.9,5.9,0,0,1-1-1.5c7.37-1.79,15.19,8.78,7.14,15.61Zm36.71-14.77c.44.11,1.4,1,1.28,1.19s-1,.24-2.16.45c-2.54.45-3.62,2.11-4.8,3.34-.26.08-.5-.1-.73-.5a2.34,2.34,0,0,1-.31-.79c1.31-1.92,4.84-3.87,6.72-3.69ZM49.11,178a6.88,6.88,0,0,1,5.52,2.75c4.42,6.63,9.39,21.38,10.57,28.65-.12.23-.43.26-1,.08-.35-.1-.3-.21-.52-.88a150.86,150.86,0,0,0-4.7-15.16c-.93-2.44-2-4.81-3-7-.64-1.35-1.94-3.75-2.44-4.49a4,4,0,0,0-5-2.12,2.24,2.24,0,0,0-.56,3.7,2.14,2.14,0,0,0,3.06-.49,1,1,0,0,0,0-1,.24.24,0,0,0-.38.05c.08,1.28-1.56,1.37-2.28.86-1.14-.86-.38-3.57,2.74-2.48a2.26,2.26,0,0,1,1,3.11,2.88,2.88,0,0,1-2.89,1.89,3.54,3.54,0,0,1-3.63-3.37,4.4,4.4,0,0,1,2.13-3.82,2,2,0,0,1,1.41-.38Zm18.24,1c5.23.24,7.63,6.41,4.88,10.13-.7.89-1.14.73-1.44-.42-.15-.47-.31-.54.11-.91,2.45-2.35.44-6.92-3.6-7.1a6,6,0,0,1-.83-1.69,2.89,2.89,0,0,1,.88,0Zm43.61.43c.39.1,1.23.9,1.23,1.19s-.16.27-1.09.11c-2.2-.4-4.4.88-6.24,3.66-.89,1.67-1,1.51-1.47.07-.25-.73-.25-.72.69-2.08a7.47,7.47,0,0,1,6.87-3Zm2,2.83c1.84,1.67,1,5.36-1.5,5.74-2.2.25-4.14-2.12-2.76-3.74.89-1,2-1.07,2.71-.23s.41,2.05-.61,2.17c-.12,0-.21.13-.21.2,0,.22.9.16,1.21-.09a1.94,1.94,0,0,0,.07-2.47,2.18,2.18,0,0,0-2.36-.85c-1.48.53-3,2.53-3.84,5.06-.24.71-.38,1.37-.49,1.53-.21.32-.19.31-.39.19a6.53,6.53,0,0,1-.48-2.24,8.26,8.26,0,0,1,.89-2.64c1.6-3,5.19-5,7.76-2.63Zm-44.84-.75c2.15.13,3.84,3.17,2.91,5.28-.29.39-.7.66-.9.41-.07-.09-.4-1.08-.85-2.13s-.88-2.09-1-2.34C68,182,67.73,181.45,68.16,181.46Zm-14.54,1.76a88.77,88.77,0,0,1,6.17,14.14,77.48,77.48,0,0,1,3,10.75c.06.33.14.51,0,.65s-1.41-.36-1.41-.36c-2-7-3.68-14.1-8.54-23.07a3,3,0,0,1-.27-.58,2.38,2.38,0,0,1,.44-1.67c.14-.15.33-.16.59.14ZM26.25,191.4c11.53.77,20.45,5.64,25.22,18.51a49.08,49.08,0,0,0-25.09-8.44l0-1.78c10.62-.09,21,5.45,20.76,5.37-4-8.16-13.87-11.47-20.89-11.68Zm80,2.6a6.65,6.65,0,0,0-1,2.08c0,.32.1,2.31.15,3.48a7.54,7.54,0,0,0,.22,2.27.54.54,0,0,0,.77.06,2.84,2.84,0,0,0,.27-.71c1-3.61,1.4-5,1.78-5.4s.34-.3,1.39-.18a2.11,2.11,0,0,0,1.61-3.73c-2-1.14-4.24.78-5.14,2.13Zm2.48.76c-1.68,1.39-1.73,3.38-2.24,5.22-.28,1.24-.66,1.89-.82,0-.28-2.58.08-4.51,1.2-6a3.94,3.94,0,0,1,2.85-1.94c2.2-.16,2.42,1.59,1.81,2.53a2,2,0,0,1-2.8.2Zm-79.46.84a1.51,1.51,0,1,1-1.5,1.5A1.5,1.5,0,0,1,29.3,195.6Zm4.79,1A1.35,1.35,0,1,1,32.75,198,1.34,1.34,0,0,1,34.09,196.63Zm4.36,1.47a1.1,1.1,0,1,1-1.09,1.1A1.09,1.09,0,0,1,38.45,198.1Zm3.1,2a.85.85,0,1,1-.85.84A.85.85,0,0,1,41.55,200.07Zm-10.85,2.7a9.21,9.21,0,0,0,.3,4.46c.85,2.49.47,7,.47,7L29,216.7a52.47,52.47,0,0,0,.33-6.77c-.09-1.3-.68-2.52-.83-3.83a25.43,25.43,0,0,1,.07-3.64Zm4.05.75.09,10.64-8.57,8.32v-2.2L33.57,213l-.16-9.86Zm21.14,24.26-.56.92H65l.2-.92Zm12.51,0-.22.92h4.47l.15-.92Zm7.34,0-.14.92H92.21l-.24-.92Zm19.42,0,.27.92h4.42l-.36-.92Zm7.4,0,.32.92h7.61l-.63-.92Z" transform="translate(0.1 0.1)"/><path id="path35-67-2-1-9" class="cls-2" d="M14.36,11.43v2.76H17s.07,2.65.09,8.29c0,5.47.13,8.18-.22,9.74-.93,3.59-6.13,3.61-7.16,1a10.48,10.48,0,0,1-.47-4.18H6.4s0,.77,0,1.7c0,4,1.35,6,4.48,6.73s7-.46,8.3-3.21c.8-1.57.71-1.67.72-11.14,0-6.32.11-9,.11-9h2.46V11.43Z" transform="translate(0.1 0.1)"/><path id="path35-6-7-1-4" class="cls-2" d="M164.22,238v-2.76h-2.67s-.06-2.65-.09-8.29c0-5.47-.13-8.18.22-9.74.93-3.59,6.13-3.61,7.16-1a10.55,10.55,0,0,1,.47,4.19h2.87s0-.77,0-1.7c0-4-1.35-6-4.47-6.73s-7,.46-8.31,3.21c-.79,1.57-.7,1.67-.72,11.14,0,6.32-.11,8.95-.11,8.95h-2.46V238Z" transform="translate(0.1 0.1)"/></g></g></svg>