<svg id="svg4946" xmlns="http://www.w3.org/2000/svg" viewBox="0 0 178.78 249.65"><defs><style>.cls-1{fill:#fff;stroke:#000;stroke-width:1px;}.cls-2{fill:#d40000;}.cls-3{fill:#e2cf00;}.cls-4{fill:#131f67;}</style></defs><title>11HEART</title><g id="layer1"><g id="g5943"><rect id="rect10346-5-7" class="cls-1" x="0.5" y="0.5" width="177.79" height="248.65" rx="8.5"/><path id="path10378-7-1" class="cls-2" d="M14.11,56.2S12.34,53.65,10,50.66c-1.6-2-2.88-4.16-3-6a3.88,3.88,0,0,1,3.49-4.38c2.34-.1,3.29,1.65,3.67,3.09.39-1.44,1.33-3.19,3.67-3.09a3.87,3.87,0,0,1,3.49,4.38c-.12,1.87-1.4,4-3,6-2.39,3-4.16,5.54-4.16,5.54Z" transform="translate(0.1 0.1)"/><path id="path10380-5-9" class="cls-2" d="M164.47,193.25s-1.77,2.54-4.16,5.53c-1.6,2-2.88,4.17-3,6a3.88,3.88,0,0,0,3.49,4.38c2.34.1,3.29-1.65,3.67-3.09.39,1.44,1.34,3.19,3.67,3.09a3.87,3.87,0,0,0,3.49-4.38c-.12-1.87-1.4-4-3-6C166.24,195.79,164.47,193.25,164.47,193.25Z" transform="translate(0.1 0.1)"/><path id="path35-67-2-8-6" class="cls-2" d="M14,11.43v2.76H16.7s.06,2.65.08,8.29c0,5.47.14,8.18-.21,9.74-.94,3.59-6.13,3.61-7.17,1a10.29,10.29,0,0,1-.46-4.18H6.06s0,.76,0,1.7c0,4,1.35,6,4.47,6.72s7-.45,8.3-3.2c.8-1.57.71-1.67.73-11.14,0-6.32.11-9,.11-9h2.46V11.43Z" transform="translate(0.1 0.1)"/><path id="path35-6-7-4-8-8" class="cls-2" d="M164.56,238v-2.76h-2.67s-.07-2.65-.09-8.29c0-5.47-.13-8.18.21-9.74.94-3.59,6.14-3.61,7.17-1a10.55,10.55,0,0,1,.47,4.19h2.87s0-.77,0-1.7c0-4-1.35-6-4.48-6.73s-7,.46-8.3,3.21c-.8,1.57-.71,1.67-.73,11.14,0,6.32-.1,8.95-.1,8.95h-2.46V238Z" transform="translate(0.1 0.1)"/><g id="g3347-7-8-1"><g id="g3498-4-3-9"><g id="g2997-9-2-6"><g id="g3884-5-1-3"><g id="g3000-2-1-2"><path id="path2993-7-5-1" class="cls-3" d="M152.87,29.41l-9.17,6-.13,7c-5.43-2.61-7.8-6.9-8.65-11.92-1.54,2-1.23,11.77-1.23,11.77a11.06,11.06,0,0,0-2.8,2.53,30.1,30.1,0,0,0,3.35,3.93c0-.05-1.13,10.22.22,10.63,1.24-4.38,2.89-8.2,9-12.2,0,0,.1,16.31-.29,32.06-2.57-1.77-8-5-11.52-8.22,4.56-5.89-.08-13.56-6.88-8.47-4.4-2.39-5.07-13.67-6.16-19.59-.21-1.18-1.24-4.66-1.24-4.66s-14.5-4-20.73-3.7c5.23,13.68,4.21,30.34-18.94,33.46C66.57,73.1,53.75,78.77,41.29,89.37,39,105.15,30.88,112.92,25.16,117.21c0,6.4-.05,12.73.22,19.18,0,0,5.22-3.45,6.05-2.8,4.37,28.51,20.39,34.17,18.79,35-.26.13-5.25,5.27-5.25,5.27L25.42,160.9c-.67,19.72-.28,39.83,0,59.58,3.45-2,9.79-6.64,9.79-6.64l.1-6.71c0-.64,8.89,5.59,8.91,13,.7.48,2.22-10.67.83-11.87l3.66-3.79-3.94-3.8s1-6.31-1-9.95a14.16,14.16,0,0,1-8.21,10.92s-.14-30.42-.31-30.45L47.49,179c-6.65,9.09,5.06,12,6.43,7.62,7.56,7.06,4.65,15.51,8,25.53l21.44,4c-8.84-16.45.75-35.19,18.11-33.85a42,42,0,0,0,6.19-3.32,64.43,64.43,0,0,0-4.88-6.82l-37.14-.62,17.31-32.56-11.39-.37s9.26-19.69,7.26-21.27c-.7-.56-.41-6.91-.41-6.91l10.17.38c.4-4.54-4.92-21.86-12.43-33.19l41.75.38-23.5,32.88,12.62.36L99.45,126.7l1.21,12.11-11.2.36c1.93,16.79,14.36,34.47,18.73,39.93,7.22-1.72,20.71-12.07,29.08-18.51,1.08-11.26,4.95-20.85,15-28l0-18.54s-5.76,3.74-5.76,3.48c0-4-2.07-12.37-5.91-19.81-4.13-8-10.91-15.23-12.46-15.68,3.58-5.44,5.11-5.93,5.06-6L152.8,88.58ZM54.47,68.94a22.9,22.9,0,0,1-7.1,1.41c-5.91.3-10.42.78-12.82,5.64-.49,1.48.58,2,1.37,2.42C40.37,72.86,52.22,80.19,54.47,68.94ZM28.22,94.41c0,.79.88,2.07,1.31.74a5,5,0,0,0,0-3.44C28.38,91,28.24,93.64,28.22,94.41Zm64,26.86-5.77,0,0,6.79h5.81ZM149,155.11c-.13.67-.75,3.71.66,3.18C151.29,157,149.87,151.1,149,155.11Zm-5.44,17.06c-.68-1-2.79,1.48-4.52,1.58-7.69.41-13.36-.62-14.32,7.45,4.44-2.84,10.65-1.55,14.66-2.47C142.24,177.77,145.56,175.14,143.53,172.17Z" transform="translate(0.1 0.1)"/><path id="path3504-0-2-5" class="cls-4" d="M24,230V19.46H154.6V230ZM30,93.55c.11-2-.72-2.86-1.44-1.47-.17.33-.73,3.85.6,4C30,96.12,29.91,94.42,30,93.55Zm-2.11,2.38c0-.48-.3-.69.35-4.85-1.24-.48-2.31-2.5-1.41-3.78.35-.5.25-.61.11-1a2,2,0,0,1,.78-2.54c.62-.42.64-.53.45-1.09a2.41,2.41,0,0,1,1.33-3.3c.94-.33.76-.37.86-1,.22-1.35,1-2.16,2.31-2s1.33.12,1.44-.49c.29-1.7,2.34-3.55,5-4.81,1.33-.62,3.53-1.06,7.75-1,2.41,0,5.42-.37,7.11-1.86.28-.26.67-.94.81-.85.31.22.23,1.91-.38,3.44-1.8,4.49-4.24,5.72-11.12,5.68-2-.1-5.07.18-6.35,1.49-.39.41-.64.79-.5,1,2.85.4,5.78,1.7,7.49,7.34a176.18,176.18,0,0,1,23.63-14.4c-1.23-6.74,4.6-7.78,7.87-6.44a2.47,2.47,0,0,0-.05-1,5.15,5.15,0,0,0-.9-2c-.16-.31-1.07-.89-.89-1.35.29-.75.16-1-.46-1.65-.41-.45-.14-1.41,0-1.79.13-.73.6-1.76.18-2.15-.65-.6-2.85-1.61-4-2.42s-1.28-1.74.56-4.75c.84-1.76,1.63-3.64,2.3-4.89,1-1.91,1.12-3.16.5-4.25A5.87,5.87,0,0,1,72,36.16S64.41,25.55,61.3,21.31H25.82v80.74l6.1-5.83-1.65-2c-.24,1.13,0,2.25-1.42,2.31A.87.87,0,0,1,27.85,95.93Zm21,108c.2-3.2-1.33-8.45-3.63-12.08a39.45,39.45,0,0,1-.26,8.83Zm55.76,8.36c-.28-.09-2.6-.23-4.06-.31a12.14,12.14,0,0,1-10.06-5.79c-.51-.79-.3-.75.84.14,3.21,2.51,6.21,4,8.85,3.64,3.73-.54,5.75.84,5.23,2.44C105.32,212.72,105.29,212.54,104.61,212.32ZM92,205.18c-.75-.65-.81-1,.08-.35,2.71,1.81,6,4.76,10,3,.84-.54.07-.47-1.34-.32-2.14.23-4.76-.86-8-3.09-1.57-1.09-.88-2,.89-1.15a4.9,4.9,0,0,0,1.46.48c1.74-1.16,5.4-1.15,5.31-1.14.42-.36-1-.94-3-1.71-1.32-.5-1.64-.7-.66-.74a6.22,6.22,0,0,1,3.19,1,12.26,12.26,0,0,0,2.93,1.7c.8.06,1.61.18.24.81-.62.29-.57.37-.49,1.07a2.12,2.12,0,0,0,.68,1.7c.85.94,1.22,2.69,0,1.59-.27-.12-.29.12-1,.4-4.19,1.19-7.31-.66-10.36-3.31Zm7.73.31a5.43,5.43,0,0,0,.64-1.32c-.08-.51-.54-.35-.77-.06-.39.48-.93,1.19-.48,1.43C99.29,205.65,99.5,205.75,99.69,205.49Zm-1.43-.33.94-1.67c-.24-.11-3.39.55-2.9,1A5.87,5.87,0,0,0,98.26,205.16Zm3.56-5.59A2.21,2.21,0,0,1,101,196c.91-.93,2.44-.85,4.27.28.64.4,1,.6,1.48.44.74-.28,1,.14,1,.72-.13,1.28-2.12,1.59-3.37.13-1.65-1.93-3.45-.58-2.93.81.27.71.79.83,1.39,1.09C102.83,199.64,102.24,199.79,101.82,199.57ZM95.26,191c2.38-.64,5.93,1.89,7.85,1.54.83-.18.71,1-.15,1.46s-2.45.17-5.5-1.42c-2.51-1.36-4.54.89-2.86,2.57a2.05,2.05,0,0,0,1.53.52c.85,0,1.1.19,0,.47a2.88,2.88,0,0,1-2.36-.67A2.61,2.61,0,0,1,95.26,191Zm-50.41-7.38a6.24,6.24,0,0,1,1.48-4.43l-10.7-7.28.16,29.1c5.3-3.38,7-7.64,7.35-13.13,10.47,11.76,7.2,26.08.66,34.24-.27-5-1.76-10.89-7.8-13.91v5.95l-10.17,7.14v7h23.8L61,211.2c-2.07-7.59-1.76-13.9-3.15-17.37-1-2.85-3-6.54-4.33-6C49.21,191.32,44.94,187.29,44.85,183.59Zm9,3.36c3.71,2.68,4.7,7.06,5.46,11,0,0,2,13.19,2,13.36a1.72,1.72,0,0,1-.47,2c-3.43,4.71-10.12,14.82-10.12,14.82l65.61.38c-3.5-5.1-6.23-10.15-9.56-14.35a10.25,10.25,0,0,0-.81-4,2.15,2.15,0,0,1-.32-2.33c1-2.16,2-4.49,2.83-6.46,1.7-3.79,1.9-3.82-.42-5-2.75-1.6-3.24-2.13-2.66-4,.21-.66.23-.93-.62-1.11-.39-.08-1.35-.31-2-.48-1.86-.59-1.32-.23-2,.25-.52.26-1-.72-1.57-1.88-.69-1.34-.87-1.37.28-.68,2.14,1.27,5.92.78,4.59-.7a3,3,0,0,1-1.19-2.71c.07-1.61.1-2.09-1-2.31a15.2,15.2,0,0,0-6.59.25c-6.2,1.55-11.17,6.93-13,10.94-.42.7.55.66,1,.66,2-.18,3.47,3.07,2.14,4.52-.61.65-1.23.25-.57-.59a1.85,1.85,0,0,0-2-2.77c-2.06.59-2.12,3.26-2.37,5.12-.7,5.35,2,12.51,2.67,14,0,0,.15.22.1.22s-.38.3-.51.14c-.48-.54-1.68-4.92-2.33-8.05-1.27-8.66,1-16.62,8.15-21.14,6.36-4.6,9.56-3.61,13.17-3.82,1.23-.45,2.94-1.12,4.24-1.76,11.33-5.92,21.65-11.72,31.15-19.41,6.94-5.26,10.25-9.52,16.2-14.89l-.6-30s-.6-.5-.6-1c.39-2-3.12,1.34-5.38,2.47-1.41-13.77-8.84-27.3-17.83-35.22l.37-.51s3,2,4.51,3V82.84l-3.62-2.28c-.16-.7-.07-.81.72-.81l2.9,2.15V80.14l-2.35-1.5.75-1,1.26.82c-.53-1.39.22-1.34,1-.42a6,6,0,0,1,.91,1.47c.07.2.27.68.27.68l2.06,1.53a4.3,4.3,0,0,1,0-1c.35-1.08,2.83,2.43,2.52,2.51l2.11,1.52c.49-.76,2.37.76,2.45,1.51.16.33,7.26,4.91,7.26,4.91l.08-2.53.76-1,.35-58.44-9.42,6-.11,7.08c-4.45-1.45-8.31-7.91-8.87-11.95-.29-.16-1.58,8-.9,11.51a32.39,32.39,0,0,0-3.14,2.94l3.57,3.92a74.17,74.17,0,0,0-.55,9c.15,1.42.18,1.56.6,1.56a.72.72,0,0,0,.65-.69c.84-3.57,3.59-9.14,8.36-11,.31,0,0,31.83,0,31.83L131.5,71.37c-.58-.51.78-.48,1.61-3.17,2.14-7-5.29-9.41-8.16-5.38-.48,0-2.45-2.45-2.75-3.47-2.18-4.42-2.6-9.44-3-13.45a49.82,49.82,0,0,0-1.48-6.63,2.56,2.56,0,0,1,.32-2.56c2.74-5.68,8-9.59,10-15.32l-65.78-.22c4.16,3.45,7.78,13.08,11.58,14.32-1.82.23-1.2,1.83-.5,3.54.87,2.11.78,2.55-1.43,6.89-3.23,6.38-3.4,5.82-.18,7.79,2,1.28,2.35,1.56,2.06,3.29s-.37,1.2,1.27,1.34a6.61,6.61,0,0,1,2,.42c.45.2.79.49,1.37.3,1-.32,1-.09,1,.63a4.18,4.18,0,0,0,.62,1.16c.37.62.2.72-.49.29-2.11-1.34-5.65-.77-4.35.69a8,8,0,0,1,1.12,3.58c.08,1.77,1.23,2.39,3.64,2,4.62-.35,15-6.1,17.47-12.57-5.34,1.83-4.24-4.75-2.34-4.54a6.65,6.65,0,0,0-.52,1.83c-.06,2.35,1.9,2.53,3.25.87.59-.88,1.31-4.12,1-7.79A58,58,0,0,0,96.25,34.6c7.64,18.28.62,26.32-10.1,31.56C82,67.88,81.47,67.87,79.05,68c-1.66.13-3.15,1-4.74,1.48-9.18,4.4-20.46,9.88-30.56,18A126.79,126.79,0,0,0,25,104l0,32.25c1.72-.27,4.51-2,6.16-2.91,1.9,12,8.07,26,18.31,34.34,0,0-.25.45-.25.45-1.46-1-2.92-1.94-4.33-2.68l-.07,1.53,3.44,2.38c.09.37-.59.88-.59.88l-2.84-2,0,1.57,2.2,1.4c.59.6-.72.91-.72.91l-1.31-1a5.45,5.45,0,0,1,.06.9c-.34,1.15-2.22-1.4-2.56-2.67l-1.86-1.1c.27.75-.4.86-.92.67-1.39-.71-1.32-1.9-1.61-2.6l-2.46-1.57c-.42,2.36-2.93-1-2.53-1.75L30,160.88a2.33,2.33,0,0,1-1.68,0c-.53-.35-.72-1.79-.72-1.79L25.66,158V160l19.49,13.65-.28.53-20.33-14,.82,60.56,9.92-6.87c-.19-2.27.22-4.3,0-6.88,5.09,3.18,6.8,5.35,9,12a19.22,19.22,0,0,0,.55-10.82,9.71,9.71,0,0,0,3.22-3.72c-1.22-1.69-2.42-2.16-3.71-3.73-.1-1.92,1-7.61-.49-9.49,0,0-2.73,8.27-8.63,10.76-.18-8.74,0-30.71,0-30.71s6.06,4.2,9.16,5.9c1.45.78,2.46,1.27,2.48,1.82,0,.28-.57.64-.83,1a10.27,10.27,0,0,0-.57,4.46,4.66,4.66,0,0,0,1.37,2.88C48.89,189.53,52.45,188.55,53.86,187ZM65.6,171.48l23.31-32.71a111.13,111.13,0,0,0,13.57,33.06Zm11.53-34.39s1.62-3.23,2.37-5H76.64l1.71-1.92H82.6l-2.27,4.86h1.8l2.5-4.86h6.63l-2.32,4.86h1.52l2.48-4.86H99.1l-2.16,4.86h1.44l1.27-2.45.31,4.46H93.84l2.41-5h-2l-2.73,5H85.82l2.48-5H86.12l-2.73,5ZM96,119.67l2.47-5.24h-2l-2.73,5.13H87.68l2.4-5.07H88.56c-1,1.6-2.68,4.84-2.68,4.84H79.4s1.83-3.44,2.56-5.13h-1.6l-1.3,2.09c-.46-.78-.16-2.85-.24-3.72h6.11l-2.45,5h2l2.67-5h6.45l-2.62,5h1.52l2.61-4.76h6.56l-2.3,4.76h2l-.9,2.06Zm-6-9.13-1.24.24C87.15,97.2,79.66,83.36,76.49,77.65l37.27.52Zm43.76-78.38a22.35,22.35,0,0,0-3.79,12.27l3.38-2.71C133.11,33.92,133.73,32.16,133.73,32.16ZM130,45a20.56,20.56,0,0,0,3.33,12.23,60.48,60.48,0,0,1,.62-8.4ZM37.71,154.49l-12-8.33V148L40,157.74ZM35.54,150c-3.23-1.63-9.88-6.66-9.88-6.66V145l10.59,7.47a.35.35,0,0,0,.59-.08C36.42,151.7,35.92,150.74,35.54,150Zm-3-7.23-6.92-4.85v1.51c1.78,1.6,7.62,5.39,7.62,5.39Zm-6.92-5.95,6.51,4.22-.4-1.87L27.14,136Zm117-58.53L143,48.23c-6.79,3.22-8.13,12.6-7.91,12.89-6.75-7-9.3-22,.18-32.16.71,3.25.95,8,7.65,12.27l.17-6.38,9.36-6V21.31H129.92c-3.49,4.44-7,9.6-10.44,14.31-1.3,1.77-1.62,2.6-1.37,3.52,2.27,8.19,1.82,18.28,6.59,23,6.39-6,12.39,3.06,7.41,8.66ZM45.38,208.41c.86,2.74.27,8.27.21,8.27,1-.56,3.84-8.57,3.14-11.58M81.33,58.17c-1.59-.45-2.79-1.14-4.48-1-1.32.14-1.77-.3-1-1,1-.9,2.08-1.27,4-.24C85.81,59,86,54.51,83.34,54.19c-.75-.09-.71-.58,0-.45C87.49,53.9,86.24,59.37,81.33,58.17Zm-6.89-4.5c-.78-.29-1.72-.77-2.06-.67-.88.23-.91-.25-.8-.82.25-1.38,1.65-1.13,3.51.06,2.66,1.7,3.68-.75,1.26-2.06-.82-.45-.56-.57-.09-.59,1.26-.05,2.45,1.67,2.12,3.08C77.53,54.93,75.47,54,74.44,53.67Zm7.8-4.17c-1.72-.3-4.22-2.62-5.37-2.78-.65-.08-1.42,0-1.63-.26-.63-.8,1.17-.8,1.29-1.09,0-.68,0-1.1,0-1.33-.32-.43-1.57-2.16-1.53-3,0,0,.66.46,1,.47,3.08-1.63,5.18-.91,7.77.24,1.07.48,3.84,2.63,3.87,3,.06.57-1.17-.51-2.13-1.16C83.14,41.91,81,40.73,78,41.71c-.46.16-.38.25,1.15.16s2.71.36,4.61,1.61c.47.31,1,.84,1.39,1,2.39,1.15,2.91,2.27,1.39,2-.33-.07-1-.41-1.58-.63-1.1-.39-.71-.27-1.76.22a7.79,7.79,0,0,1-2,.63c-.56.09-2.38.07-1.58.84a10.21,10.21,0,0,0,3.24,1.88C83.59,49.71,83.05,49.64,82.24,49.5Zm.2-3.73c1.12-.42.25-1.36-1.18-1.57-.33-.05-1,1.5-1.05,1.83S81.83,46,82.44,45.77Zm-3.09.16a5.86,5.86,0,0,0,1.12-1.61c0-.8-1-.58-1.26.26C78.92,45.59,78.9,46.22,79.35,45.93Zm-3.59-6.46c-.92-.41-2.18-2.2-.74-1.9a25.92,25.92,0,0,0,3,.16,13.39,13.39,0,0,1,9.3,4c1.24,1.3,1.33,2.26.06,1.37C82.86,39,80.1,39.77,75.76,39.47Zm34.93,139.16-1.25.67c0,.69.25.59.8,1.08a7.9,7.9,0,0,1-1.33.09c-.91-.06-1.12-.05-.72.6.19.29.45.73.45.73a2.89,2.89,0,0,1-1.25-.09c-1.13-.31-1.71-.16-1.28.47l.35.5a14.78,14.78,0,0,1-2.35-.92l-1.06.32c2.13,4.18,9.72,1.55,7.64-3.45Zm37-6c1.17-1,.6-2.2-1.11-3.09-.71-.37-.64-.37-1.8.31-1.42.84-1.52.88-.51,2C145.5,173.15,146.83,173.39,147.69,172.67Zm-4.35-2.79c1.08-.48.67-.4.6-1.53-.31-1.3.42-1.4.79-2.61.15-.67-.41-.42-1.5.6-.9.75-1.17.94-1.17.57s-.61-1.1-1.26-1.21-.49-.21,0-.9a3.92,3.92,0,0,0,.68-4c-.78-1.69-1-1.93-2.77-.46-.88.81-2.14,1.44-2.74,2.46-.43.74-.18,1.46.5,2.92,1.71,3.66,4.35,5.3,6.83,4.2Zm6.06,0c1.9-.75,1.13-2.81-1.84-4.88-1.79-1.25-2.3-1.24-.78.11,1,.87,1.13,1.18.71,1.8s-.71,1.13-.37,1.61C147.67,169.3,148.6,170.22,149.4,169.91ZM42.33,166.48l-2.07-1.31V167l2.07,1.24Zm103.59,1.63a2.39,2.39,0,0,0,.77-1.47c.09-.83-1.26-.63-1.91.29S144.91,168.82,145.92,168.11Zm4.64-2.83c.95-1,.49-2.05-1.45-3.31-.75-.49-1.13-.81-1,.16,0,.3-.29.69-.5.93-.68.75-.38.89,1.54,2.11C150.08,165.79,150,165.84,150.56,165.28ZM42.33,163.37l-2.07-1.25v1.63l2.07,1.4ZM37.8,165l0-1.64-2.69-1.79,0,1.83Zm105.61-.66c-.35.93,1,.51,1.12.41.24-.47,0-.51-.09-.56S143.25,164.25,143.41,164.34Zm.6-1.18c.48-.16.54-.1.47-1-.1-1.3.1-1.41,1-2,.69-.46.69-.39.68-1.19,0-1,0-1.38,1.32-1.57.52-.09.81-.21.86-.62.07-.69-1-1.85-2.41-2.52a34.85,34.85,0,0,0-4.12,3.6l-.53.56.63,1.18c1,1.83.81,2.51.24,4.94-.12.65.38.56.51-.23S142.9,163.37,144,163.16Zm4.68-6.49c-.24,1.47.53,2.38,1.25,1.65a8.93,8.93,0,0,0,.45-4.18C148.9,152.55,148.75,156.31,148.69,156.67Zm-23.84,24.46c5.51-3.23,12.58-.59,16.56-3.24,1.86-2,3.72-3.36,2.67-4.77-.82-1.11-1.35-1.28-1.35-1.28a9.1,9.1,0,0,1-7.2,2C128.37,173.6,125,175.85,124.85,181.13Zm9.41-7.69c3.5.12,6.35-.49,7.65-1.51.81-.63.93-.74-.34-.84-2.72-.22-5.47-3.39-6.34-6.45-.17-.64-.38-1.32-.38-1.32-7.25,5.8-23.2,14.94-23.2,14.94,1,4.94-2.51,7.89-7.35,6.13-.84-.07-.73,1-.57,1.46a4.18,4.18,0,0,0,1,1.44c.72.62.86,1,.75,1.62s-.1.56.31.78c.73.39.69.95.29,2.1-.42,1.61-.45,2,.7,2.78,1.49,1,4.41,2,4,3.45a68.73,68.73,0,0,1-4,9.13,3.15,3.15,0,0,0,0,2.9c.51,1,.45,2.19,1.11,3.11,3.67,5.45,6.82,10.17,10.16,15.1h34.49V147.88s-5.81,5.31-5.8,5.69,1.27,1.15,1.8,1.24c0-.25,0-1.2.07-1.54.05-.49,1.6-.36,2.12.06.36.3.25,2.23-.12,3.81-.3,1.28-.26,1.3.29,2.05a3.57,3.57,0,0,1,.82,2.7,3,3,0,0,0,.11,1.37,3.12,3.12,0,0,1-.14,2.68c-.6.83-.61,1-.48,1.4.49,1.54.31,2.85-1.4,3.51a1.62,1.62,0,0,0-.6.8c-.75,2.46-2.15,2.45-4.06,1.75-1.35,5.29-6.86,6.62-10.83,6.46-4.13-.16-8.34.15-10.21,2.86.44-6.42,3.31-9.52,10.2-9.28Zm12.47-10.67a.8.8,0,0,0,.2-1.46c-.91-.73-2,0-1.52,1.05C145.65,163,146.05,163,146.73,162.77ZM37.91,160.44l-2.75-1.91,0,1.71L37.92,162Zm5.2,1.41-2-2.34C35.42,156,30.44,152,25.66,148.87l0,2.17,1.36.69s.12-.47.21-.75c.18-.52,1.75.94,2.26,2.11l.4.94,1.84,1s0-.53,0-.67c0-1.12,2,.41,2.88,2.23.21.44.5.91.5.91l1.73,1c.69-.93,2.43.35,2.87,1.49.57,1.44,1.56,1.56,1.6,1.57Zm-10.37-.32v-1.66L29.87,158l0,1.68Zm118.17.14c.07-.44-.36-2.14-1-2.23-.4-.06-1,.55-1,1S150.83,162.14,150.91,161.67Zm-2.34-2c.63-.69-.16-1.58-1.12-1.27-1.14.37-.74,1.4.53,1.43C148.26,159.81,148.44,159.8,148.57,159.65Zm-116-1.22v-1.59L30,155.08l-.05,1.55Zm-5.21-.56,0-1.53-1.74-1.22V157Zm.06-4.58-1.78-1.16v1.65l1.86,1.07Zm7.23-5c-.19-.49-.94-2-.94-2l-8.07-5.65v1.74l9,6.09Zm-3.78-13.43-.09-.71-.72.39Zm-1.71.18-1.13.61,3.41,2.22-.27-1.58Zm118.4-18.74.88-.64-1.55-1.06-.12,1.07Zm1.57-1,1.16-1-3.86-2.73.27,1.7Zm2.74-1.43v-1.17l-6.26-4.24.43,2.13c1.1.64,2.45,1.58,3.87,2.57C150.82,113.75,150.82,114,151.89,113.82Zm0-2.16v-1.85L144.64,105l.59,2.17Zm0-2.78v-1.95l-8.78-5.81,1,2.57Zm0-4.88-11.06-7.43,1.42,2.85,9.64,6.47Zm0-2.84L138,91.9l1.56,2.59,12.32,8.36Zm0-3h-.52c0,1.33-1.47.36-2-1.1-.41-1-.5-1.22-.5-1.22l-2.79-1.89c.05.38.22,1.48.22,1.48l-1.89-1.15s-.54-1.83-.56-1.84l-3.22-2.19c.07.37.13,1-.08,1a3.88,3.88,0,0,1-1.43-1.07,3.25,3.25,0,0,1-.54-1.37L136,87.13l-.65.07s-.36-.24-.69-.51A4,4,0,0,0,132.39,85s1.84,2.16,2.83,3.44a12.31,12.31,0,0,0,2,2l14.66,9.82Zm0-3-1.13-.68.08,1.79,1,.72ZM37.56,91.18c.07-.11-.22-.24-.54-.94a5.08,5.08,0,0,1-.44-4.18c.2-.87-.59-1.25-.95-.32-.29.73-.73,1.13-1.15,1.08s-.48.12-.3.67a1.85,1.85,0,0,1-.89,2c-.64.16-.76.57-.58,1.16.3,1-.75,1.81-1.58,1.77-1.28-.08-.78,1.09.77,2.21.57.41.82.63,1.27.42C34.34,94,36.51,92.38,37.56,91.18Zm111.19,3.59-.07-1.71-3.22-2.18.4,2.29Zm3.14-.72V92.33l-1.32-.85.06,1.83ZM30.58,91.39c.3.31.61.34,1.1,0s.35-.75-.24-1S30.11,91,30.58,91.39Zm-1-.76a1,1,0,0,1,.7-.86c.66,0,.55-.39-.21-.85-.36-.22-1-.72-1.22-.89-1.13-.82-2.22.45-1.38,1.52C28.2,90.45,29.24,91,29.61,90.63ZM148.43,91.7l-.25-1.9-2.91-1.94L145.5,90ZM42.61,87.07a1.36,1.36,0,0,0,.19-.84,7.58,7.58,0,0,0-1.54-3.78,7.36,7.36,0,0,0-2.21-2.06c-2.22-1.15-5.19-.65-4.76.83.31,1,.24,1.83-.62,2.34-.58.34-.66.8,0,.8a3.06,3.06,0,0,0,2.12-1.19c.7-1.1,1.1-1.74.94,0-.06.75,0,.7,1.19.64,1.57-.08,1.28.21.36.92a3.49,3.49,0,0,0-.93,4.28c.42.92.71,1.41,1.26,1.29A33.58,33.58,0,0,0,42.61,87.07Zm100.68,2.22-2.87-1.9.11,2,3.1,1.83Zm-110-1.86c-1-1.32-2.28.37-1.49,1.12C32.42,89.06,33.88,88.53,33.33,87.43Zm-2.48.19c-.13-.41.62-1.08.74-1.34.35-.77-2.76-2.92-3.72-1.65-.67.88-.21,1.75,1.59,3C30.54,88.3,31.06,88.3,30.85,87.62ZM143,86.34l-2.65-1.66,0,1.75,2.81,1.7Zm-4.67,1.56V86.12l-2.67-1.87,0,1.85ZM34.61,85.79c.49-.48.32-.64-.61-.59-.6,0-.78-.06-.82.21C33.1,86,34.11,86.28,34.61,85.79Zm-2.22-.67c0-.13-.29-.37-.83-.83-1-.88-1.16-1.42-.16-2.11,1.43-1-.07-2.36-1.73-1.79a1.56,1.56,0,0,0-.55,2.68C30.22,83.8,32.2,85.9,32.39,85.12Zm106-1.79-2.62-1.8v1.75l2.62,1.54Zm-105.45.12c1.16-.6,1.23-2.1.06-1.55-.49.23-1.12.84-1.12,1.12C31.83,83.56,32.29,83.75,32.89,83.45ZM33.74,80c1.52-.82,1.29-1.58-.22-2.53-1.84-1-3.13,1-1.62,2.36C32.7,80.56,32.88,80.47,33.74,80Zm2-1.48c2.46-2.65,4.09-2.51,7.34-2.44,8.39.07,11-4,10.7-6.77-4.08,2-7.72.94-11.6,1.53-6.69,1.5-7.47,4.66-7.94,6.46Zm33.62-9c2.16,0,2.06.08,1.17-1.7,2.11.29,3,1.3,2.26-.8,1.12.4,1.79.7,2.94,1.09l.73-.43C72,63.32,67,67,68.34,71.38L70,70.59Z" transform="translate(0.1 0.1)"/><path id="path3502-5-8-1" class="cls-2" d="M80.19,228.31l1-5,9.23.45s1.08,3.16,1.51,4.58Zm-21.33-.12,4.9-8.12,7,1.9-1.6,6.34Zm13.54.12,2.1-8.66c-4-.88-7.73-1.46-12.13-2.65l-7.13,11.3L51,228.19c3.69-4.94,10.45-14.92,10.45-14.92a91.53,91.53,0,0,0,46.83,3.42s5.79,7.67,7.87,11.82l-4.09-.2-5.07-8.52c-3.54.38-7,.85-10.7,1l2.52,7.51H94.71l-2.31-7.49c-4.42-.17-8.14.17-13.44-.66l-1.87,8.15Zm29.23,0-1.4-5.33,5-.59s2.31,4.07,3.57,5.91ZM56.89,178.8C63.09,169.34,85,139,85,139l3.22.13s-19.59,27.37-29,41.17ZM25.27,164.09l7.63,5.51L33,212.54,25.2,218ZM57,93.84l4.62,9.07C42,121.58,45.8,143.48,56.32,159.1A30.85,30.85,0,0,1,52,166.31c-14.24-9.42-18.57-33.89-18.46-34.15C49.23,118.12,51.34,113.66,57,93.84Zm80.25,66.89c1-13.82,7.76-22.85,15.31-28.37l.38,14.06C148,151.18,142.74,156.09,137.22,160.73Zm-20.5-13.92c17.2-16.11,17.78-39,5.25-55.79l5.13-7.18c7.27,7.8,14.4,16,17.43,35C133.64,127.44,124,141.67,121.45,156ZM93,128.07l0-6.59,6.44,0L99.23,128Zm-13.61,0-.09-6.57,6.36,0-.1,6.65Zm11-17.57s21.32-29.94,29.69-40.74L121.9,71,93.54,110.61ZM40.63,89.51c0,11.81-7.57,21.17-15.28,27.28l.11-13.45Zm112-57,0,52.42-7.2-4.35.61-44ZM118.3,35.63C102,31.39,87.22,30.12,71.65,33.47c-2-2.43-8.86-12.55-8.86-12.55l3.94.06,5.57,9,10.62-1.39-2.73-7.28,4.37,0,2.19,7.13c0-.05,8.63.09,13.45.66.76-2.65,2.18-7.91,2.18-7.91h4.83c-.62,2.53-2.29,8.55-2.29,8.55a111.3,111.3,0,0,1,11.34,2.5c2.57-3.64,5-7.28,7.29-10.93l4.7,0C126.86,23.6,118.56,35.75,118.3,35.63Zm-3-6.29-7.18-1.68L110,21.31H120ZM74,27.05l-3.34-5.9h6.43l2.13,5.19Zm14.6-1.2-1-4.7H99.34l-1.2,5Z" transform="translate(0.1 0.1)"/><path id="path3500-9-6-1" d="M61.94,20.76l10.39,15a83.86,83.86,0,0,1,23.9-1.19s1.78,5.38,2.38,8a21.54,21.54,0,0,1-.13,10.27c-1.22,3.94-1.87,5.13-4.62,7.84A25,25,0,0,1,86,66c-4.11,1.72-4.53,1.71-6.95,1.82a4.56,4.56,0,0,0-2.64.6c-.27.09-.45.38-.69.46a1.5,1.5,0,0,1-.59,0,163.7,163.7,0,0,0-31.7,18.26c-.1.07-.15.37-.24.44-.65.54-1.25.94-1.88,1.42-.08.07-.28,0-.36,0A186.93,186.93,0,0,0,24.45,103.7l.19,33.43s4.23-2.18,6.4-3.51a53.92,53.92,0,0,0,18.12,34.26L44.75,174l-20.32-14,.29,61.69,10.8-7.53v-6.51c3.22,2.18,6.36,3,8.65,12.93C46,217,45.83,211.86,45,208.4a16.23,16.23,0,0,0,3.58-4l-4-3.57s1-8.65-.85-10.39c-1.5,3.93-2.7,8.09-8.29,11.12l-.07-30.05c2.79,1.77,5.43,3.76,8.18,5.58l.38-.07,2.86,2s-.31.61-.58,1c-3.47,5.27,2.31,11.74,7,7.85,1.84-1.52,5.3,4.81,5.95,10.91.66,3.93,1,8.82,2.09,12.24a1.69,1.69,0,0,1-.51,2.16c-3.6,5.08-10.83,15.32-10.83,15.32h5.21l.38-.6H51.65c3.31-4.42,6.47-9.56,9.91-13.88,12.8,4.83,33.76,6,46.42,3,2.61,3.68,5.16,7.53,7.67,11.28H112l.5.79h4.93l-10.38-15.32c-7.15,2.13-24.58,1.3-24.27,1.12,0,0-.05-.12-.65-1.85-3-9.7-3.27-18.3,4.24-25.25,4-3.56,8.44-5.91,13.42-5.46,2.22,0,2.27-.16,3.19-.58a10.47,10.47,0,0,1,1.57-.48l5-2.8.67-.13,1.45-.77.3-.35,2.34-1.2.26,0,3.17-1.82,0-.26,1.25-.77.29.31a154.12,154.12,0,0,0,17.45-12.34l.31.12C143,156.52,151,149,153.37,146.14l-.13-14.31-.2-.17L153,115.81h-.46l0-2c-2.6,1-5.46,3.38-5.65,3.28A55.81,55.81,0,0,0,129,82.29l4.29-5.93,19.9,13.43.05-3.93h.25c.24-15,.37-54,.37-54l-.19,0V28.7l-10.17,6.51-.14,6.58c-4.51-1.48-7.36-6.91-8.31-11.75-1.31.53-1.92,5.63-1.44,12.08A10.77,10.77,0,0,0,130.41,45a27.37,27.37,0,0,0,3.68,3.7c-.28.61-.88,9.23-.28,10.3.27.79,1.21.68,1.21-.15,1.37-6.73,7.73-11.14,8.08-10.73l-.15,31-11.29-7.94c2.37-2.68,2.87-7.21-.12-9.43a4.45,4.45,0,0,0-6.62,1.08c-3.66-2.4-4.9-11.28-5.43-14.75A42.25,42.25,0,0,0,118.42,42a20.81,20.81,0,0,1-.73-3.7,1.89,1.89,0,0,1,.54-1.47l11-15.63-5.61,0,0,.1H128l-9.9,14.11A96.17,96.17,0,0,0,71.2,32.53L63,21l3.71,0-.15-.24Zm8.62.13.15.28,6.42,0-.1-.24Zm9.51,0,.12.34,4.38,0L84.43,21l-4.36,0Zm22.34.12,0,.16h4.82l0-.16Zm-14.78,0,.05.19H99.31l0-.18Zm22.41.1-.05.17H120l.08-.16Zm42.37,8.59,0,2.12-6.75,4.31c-.17,9.06-.43,44-.43,44l-1.61-1.07L144,35.37s6-3.84,8.44-5.63Zm-17.7,1.71h.23l.07.49h-.4l.1-.49Zm.48,1.28.18.67h-1l.17-.64.64,0Zm17,.35v1.38l-5.82,3.65V36.73Zm-18,1.15,1.53,0L136,35h-1.92Zm-37.38.41,1,.15a47.32,47.32,0,0,1,3.34,15.37,66.37,66.37,0,0,0,4.11,15.72l-1.49,0a77.44,77.44,0,0,1-4-14.93,26,26,0,0,1-.16-3.13,48.1,48.1,0,0,0-2.84-13.16Zm1.91.22,1.3.14c.91,4,2.24,7.7,2.77,11.68.86,6.37,1.32,12.88,4.39,19.16H106a53.51,53.51,0,0,1-3.75-13.46c-.58-2.75-.58-4.81-.89-7.29a64.76,64.76,0,0,0-2.6-10.22Zm2,.19,1.3.19c.85,3.94,2.32,8.27,2.71,11.83.79,7.24,1.92,14,4.2,18.79l-.91,0c-3.52-6.84-3.57-12.93-4.56-19.34-.58-3.78-1.81-7.55-2.74-11.44Zm2.07.3,1.15.18c.8,3.92,2.23,8.35,2.56,12.32a50.69,50.69,0,0,0,4.45,18l-1.08,0c-3.15-5.53-3.57-12.32-4.55-19.19C104.82,42.92,103.59,39.1,102.83,35.35Zm49.39,0v1.72l-5.82,3.74V39.13Zm-47.51.33,1.2.19c.77,3.78,2.21,7.81,2.55,11.49a59.07,59.07,0,0,0,4.31,18.48l-1.1.07a49,49,0,0,1-4.44-18.07C106.94,44.05,105.48,39.4,104.71,35.69Zm31.7,0,.42,1-2.79.14,0-1.14,2.34,0Zm-29.73.36,1.43.28c1.51,6,1.91,11.73,2.94,17.46,1.28,7.11,2.64,10.69,3.75,12l-1.18,0c-2.88-6.16-3.9-12.28-4.57-18.63-.4-3.74-1.62-7.43-2.37-11.16Zm2.18.41,1.09.22a106.93,106.93,0,0,1,2.45,14c1,8.47,3.85,14.91,4.45,15.21l-1.2-.06c-2.61-3.61-3.57-9.74-4.85-18.41-.56-3.81-1.12-7.39-1.94-10.94Zm1.75.35,1.22.3s1.1,4.33,1.93,10.08c.69,4.79,1,14.22,6.24,19.64,2.6,2.71,7.16,5.06,10.28,2.51a4.26,4.26,0,0,0,1.39-4.92c-1.35-3.26-5.9-2.7-4.39.72.17.82-.9.86-1.64.06a2.12,2.12,0,0,1,0-2.74c1.18-1.89,4.31-2.09,6.15-.39,2.94,2.89,1.67,7.84-2.05,9.42-4.29,1.82-9.82-2-12-5.55-3.63-6.28-4.19-12.23-5-18.57-.43-3.42-1.26-7-2-10.56Zm1.84.5,1.23.31s1.36,6.1,1.81,9.71c.55,4.46,1.16,9.71,3.07,13.77A15.26,15.26,0,0,0,123.21,67,5.61,5.61,0,0,0,128,68.3c2.3-.5,2.4-4.07.2-4.08-1.12,0-.39-1.09.54-1.12,3.31-.11,3.41,5.12.29,6.29-3.56,1.33-7.42-1.19-9.81-4.35-4.17-6.5-4-12.44-4.92-17.68A100.88,100.88,0,0,0,112.45,37.33Zm25,.19.76,1-4.2,0,0-1,3.42,0Zm-23.18.33,1.18.42a88,88,0,0,1,1.91,10.31c.85,5.39,1.13,9.87,3.91,13.76,1.16,1.62,3.34,3.78,4.72,4,.85.18,1.73,0,1.95-.66.35-1.06,1.26-.57,1.28.39a1.78,1.78,0,0,1-1.33,1.63c-4.09.7-7.83-4.44-9-7-1.53-3.8-2.19-8-2.86-13.33C115.8,45.13,114.45,38,114.29,37.85Zm37.93.19,0,1.71-5.8,3.67V41.76Zm-36.15.34,1.33.36A81,81,0,0,1,119.16,48c.67,5.21,2.11,11.26,4.8,14.39a7.7,7.7,0,0,1,.52.69c.19.42,0,1.14-.24,1.14-4.79-2.49-5.92-12.53-6.33-15.93A81.18,81.18,0,0,0,116.07,38.38Zm18.61.8,4.23.12,1,1-5.59,0C133.73,39.63,134.1,39.7,134.68,39.18Zm17.54,1.39V42l-5.82,3.7V44.23ZM134.83,41l6.18.11,2.17,1.3-9.44-.08L134.83,41Zm17.39,1.8v1.7l-5.82,3.66v-1.6Zm-19.68.32,10.5.11,0,1.14-11.39-.29Zm-1.37,1.95,11.88,0,0,1.27-10.8-.11-1.11-1.19Zm21.05.2v1.77l-5.82,3.62V49Zm-18.81,1.85,9.1,0-1,1-6.86-.07-1.25-1Zm18.81.63v1.67L146.4,53.1V51.45Zm-12,1.27-1.11,1.08L134.44,50l.16-1Zm12,1.18V52l-5.82,3.56V54Zm-17.85.65,3.89.09-.59.82h-3.41l.11-.92Zm-35,1.43c.59,4.5,3.85,13.59,3.85,13.58l-1.28,0a61.66,61.66,0,0,1-3.2-11.2c-.1-.52.25-2.28.63-2.4Zm34.75.26,3,.05-.65,1.16H134l.1-1.21Zm18.1.27v1.57L146.4,58V56.55ZM134,54.41l2,.06-.47,1.07-1.54,0Zm18.2.84v1.67l-5.82,3.62V58.93Zm-54.07.36a77.06,77.06,0,0,0,3.25,10.3l-1.1,0c0,.15-2.58-5.91-2.85-8.5-.13-.55.16-1.62.7-1.82ZM134,56.3l1.18.06L135,57l-1,0,0-.7Zm.11,1.48.61,0-.15.58h-.38l-.08-.6Zm18.11,0v1.35l-5.82,3.7V61.58ZM96.69,58c.88,2.63,1.77,5.31,2.81,7.88l-1.3,0a55.23,55.23,0,0,1-2.15-6A1.84,1.84,0,0,1,96.69,58Zm-1.3,1.75,2.17,6.08H96.33c-.51-1.22-1.08-2.59-1.48-3.85S94.48,60.6,95.39,59.71Zm56.83.38V61.7l-5.82,3.61V63.93Zm-58.29,1.3c.28,0,.3.33.55,1l1.19,3.37-1.52,0a10.5,10.5,0,0,1-.83-3c0-.5-.13-1,.22-1.2a1,1,0,0,1,.39-.16Zm-1.62,1.26c.26,0,.36.48.56,1.17l.63,2-1.42,0a4.26,4.26,0,0,1-.45-2.58c.32-.37.53-.53.68-.53Zm59.91,0v1.68l-5.82,3.51V66.29ZM90.85,63.87l.6,1.94-1.28,0a3.71,3.71,0,0,1-.09-1.53Zm-1.67,1,0,0c.18.85,0,.91,0,.9H87.45a9.1,9.1,0,0,1,1.73-.91Zm63,.5V66.7l-5.82,3.64V69ZM83,67.48l35,.1,1.16,1.66s-3.4.09-14.54,0c-9.39.12-28.24-.2-28.24-.2l1.83-.87A21.7,21.7,0,0,0,83,67.48Zm69.21.2v1.47l-5.82,3.54V71.26ZM53.8,69.1a15.43,15.43,0,0,1-7.4,1.39c-4.22-.34-10.68,1.43-12,5.5-.41,1.44-.41,1.48.36,2.21.39.36.76.64.83.61a9,9,0,0,1,2.55-2,13.47,13.47,0,0,1,4-.53c4.49-.2,5.5-.39,6.62-.69,2.45-.65,4.93-3.07,5.07-5.77A2.39,2.39,0,0,0,53.8,69.1Zm-.12.36c-.47,5.63-6.55,6.37-9.22,6.21-5.41-.33-7.55,1.29-8.4,2.3-.29.27-.45.2-.41,0,.63-3.12,5.65-3.24,8.18-3.2C50,75,51.59,72,51.42,72c-.47.21-.82.39-1.3.62-.2.09-.16,0-.69-.35,0,0-.62,1.43-1.41.11,0,.07-.57,1.18-1.65.14,0,.11-.65,1.06-1.71.09-1,.85-1.46.38-1.89-.21-.31.18-1.23,1.43-2,.09-.82.52-1.16,1.09-1.86.75-1.64.29-3.06,2-3.64,3.53-.18.53-.55.61-.59,0-.2-1.62,2.45-4.41,5.11-5.19a20.29,20.29,0,0,1,8-.86A16.84,16.84,0,0,0,53.68,69.46Zm66.35.43L121.67,71,93.14,110.46l-2.52-.07L120,69.89Zm-45.76,0h3.24v5.37h-2.8l-1-1.48a1.75,1.75,0,1,0-.86-1.51,2.28,2.28,0,0,0,0,.26l-1-1.56s.44-.26,1.5-.74C73.61,70.14,74.27,69.92,74.27,69.92Zm10,0h5.5v5.37h-5.5Zm12,0H102v5.41l-5.69,0V69.92Zm12.29,0h5.68v5.37h-5.68Zm43.54.12.09,1.68-5.82,3.55V73.61Zm-40.91.56a1.85,1.85,0,1,0,1.84,1.84A1.84,1.84,0,0,0,111.22,70.6ZM87,70.7a1.84,1.84,0,1,0,1.84,1.84A1.84,1.84,0,0,0,87,70.7Zm12,0a1.85,1.85,0,1,0,1.84,1.84A1.85,1.85,0,0,0,99,70.73Zm6.2.22a1.55,1.55,0,1,1-1.55,1.55A1.55,1.55,0,0,1,105.21,71ZM80.82,71a1.55,1.55,0,1,1-1.54,1.54A1.54,1.54,0,0,1,80.82,71Zm36.55,0a1.44,1.44,0,0,1,1,.37l-1.68,2.29a1.43,1.43,0,0,1,.72-2.66ZM93.22,71a1.55,1.55,0,1,1-1.54,1.55A1.54,1.54,0,0,1,93.22,71Zm-18.63.11a1.16,1.16,0,1,1-1.15,1.15A1.15,1.15,0,0,1,74.59,71.15Zm-3.53.06a83.53,83.53,0,0,1,17.31,39.05l-1.65-.08A85.29,85.29,0,0,0,69.55,71.82l1.51-.61Zm40.16,0A1.23,1.23,0,1,1,110,72.44,1.22,1.22,0,0,1,111.22,71.22Zm-24.2.1a1.22,1.22,0,1,1-1.21,1.22A1.22,1.22,0,0,1,87,71.32Zm12,0a1.22,1.22,0,1,1-1.22,1.21A1.22,1.22,0,0,1,99,71.36Zm30.5.87c.65,5-.63,8.15-4.39,8.67-4.81.66-5.43,1-5.46,5.59,0,5.41-.83,7-4.65,7.4-4.29.48-5.29,1-4.91,6.35.29,3.91-1.25,5.57-4.56,6.29-2.58.57-4.82,1.44-5.78,4l-2.37,0c.62-4.11,4.74-6.08,7.39-6.22,2.85-.67,3.45-1.63,3-6.65-.34-3.77,1-4.92,5.46-5.78,3.53-.7,4.4-1.72,4.2-4.61-.41-6.22,0-7.16,3.52-7.91,1.8-.43,4.72-.62,5.83-2,1.27-1.57,1-2.9.83-4.82l1.91-.4Zm22.71.17V74l-5.82,3.6V76Zm-85.54,1c-1.25,5.39,3,6.56,5.63,7.47,3,1.06,3.77,2.59,3.43,8-.26,4,.18,4.94,2.8,6.33,4,2.07,5.07,5,3.29,9.32-1.09,2.66-.52,3.4.18,5.72l-1.94,0a6.44,6.44,0,0,1-.38-6c1.65-3.74,1.6-5.62-2.09-7.31-2.85-1.3-3.73-2.53-3.91-5.21a19.71,19.71,0,0,1,.2-4.15c.33-3.09-.77-4.43-5.33-6.13-2-.75-3.42-2.52-3.83-5.32a7.19,7.19,0,0,1,0-1.68l2-.92Zm68.23.58,17.35,11.58-.12,2.58-18.4-12.34Zm-11.18.26a1.53,1.53,0,1,1-1.52,1.52A1.52,1.52,0,0,1,123.73,74.2Zm-54.59.66a1.39,1.39,0,1,1-1.38,1.39A1.38,1.38,0,0,1,69.14,74.86Zm83,.17-.06,1.55-5.71,3.54V78.57L152.17,75ZM75.32,76h39.53l-1,1.37L76.07,77Zm-13.71.07C66.86,83,72,90,76,103.36l-1.7.65A79.59,79.59,0,0,0,60,77l1.6-.91Zm90.61,1.22V79l-4.38,2.67-1.29-.84Zm-92.93.19.78,1s-.84.66-1.79,1.34c-2.59,1.86-2.93,2.07-3.1,3.28-.41,2.87,2.54,4.28,5.49,2.62,1.06-.48,3.38-2,3.38-2l.67,1s-3.33,2.5-5.28,3.07c-4.29,1.24-7.49-4.21-4.32-7.44a15.55,15.55,0,0,1,2.32-1.69C58.27,78.21,59.29,77.52,59.29,77.52Zm17.65.67,36.42.22L90.1,110.3l-1-.06c-1.8-11.93-6.28-22.35-12.13-32ZM61.06,79.54l2.12,3a18.59,18.59,0,0,1-3.67,2.58c-1.84,1-3.83-.82-2.67-2.47S61.06,79.54,61.06,79.54Zm91.16.31V81.4L149.7,83l-1.16-.73ZM60.79,81a5.24,5.24,0,0,0-3.25,2.2.89.89,0,0,0,.06,1.07c.35.45.76.42,2-.23C62,82.76,62.5,82,61.41,81.2a1,1,0,0,0-.53-.16Zm-.08.64c.16,0,.34,0,.5,0,.42.18.29.71-.15.84-.1-.16-.84-.18-.8.58-.18.43-.17.39-.71.45a.6.6,0,0,0-.67.32c-.38.21-.84.14-.93-.08s.23-.86.49-.86.35-.18.58-.33c0-.42.48-.48.62-.47a.83.83,0,0,0,.82-.35A.35.35,0,0,1,60.71,81.68Zm91.51.37v2.4l-1.83-1.17Zm-101.07.3a67.58,67.58,0,0,1,14.45,27.8l-1.33.92c-2-8.12-5.1-16.69-14.26-27.84Zm77.61.14a54.51,54.51,0,0,1,17.66,34.8l-1.65,1A55.8,55.8,0,0,0,127.7,83.88Zm-5.93.71a1.53,1.53,0,1,1-1.52,1.53A1.52,1.52,0,0,1,122.83,83.2Zm-73.53.6s1.4,1.43,1.4,1.78c0,.67-.55,1.06-3.75,2.23-.54.2-2.91.74-2.91.74L44,87.4c1.2-.43,4.45-1.21,4.68-1.9.12-.28-.46-1-.33-1Zm22.11.29A1.39,1.39,0,1,1,70,85.48,1.38,1.38,0,0,1,71.41,84.09Zm55.83.4A56,56,0,0,1,144.08,119c-11.68,9.52-19.62,21.5-22.77,36.48-1.56-2.6-2.88-5.6-4.32-8.52,15.58-13.74,18.86-38.47,5.38-55.81l4.87-6.65ZM65.92,86.36l.7,1.09s-.15.13-2.33,1.49c-3.2,2-3.72,3.29-2.66,5.32s2.31,2.19,5.74.53c1.21-.59,2.24-1.21,2.24-1.21l.55,1.14a16.7,16.7,0,0,1-4.49,2.34c-2.79,1-5.42-.72-5.91-3.94-.36-2.34.66-3.6,4.72-5.91C64.93,87,65.92,86.36,65.92,86.36Zm47.78.52a1.53,1.53,0,1,1-1.52,1.52A1.52,1.52,0,0,1,113.7,86.88Zm-62,.06.92.86a9.84,9.84,0,0,1-2.66,2c-2,1.23-2.24,1-1.23,1.89,1.89,1.6,4.5,5.14,4.49,6s-.8,1.7-2.31,2.38c-.82.37-4.09,1.54-4.57,1.62-1,.11-1.23.49-.27,1.36,1.62,1.87,3,5.86,2.45,7.08-.63,1.37-1.38,1.6-7.39,1.88-.68,0-1-.17-.64.71A21.84,21.84,0,0,1,41.61,117c.48,2.41.4,3.5-.54,4-.54.28-4.72.18-6.44-.16-2-.39-2.19-.41-1.87.88.41,1.78.67,6.56-.67,7.48-.56.36-1.16.27-3.62-.56-1.56-.53-2.92-1.13-2.92-1.13l0-1.48c1.28.53,4.77,2,5.77,1.56,1.18-1.69-.46-7.64-1.09-8.91-.75-1.52,0-1.85,1.78-.91.91.65,8.77,3.76,8.33,1-.48-2.64-1.34-5.64-3-7.53s-.77-2.46.94-1.69c3,1.35,9.27,1,9-.39-.41-2.28-2.48-5.37-5.31-7.77-.79-.67-.82-1,.11-1.12,2.64-.21,10.21-1,9.15-2.77a18.38,18.38,0,0,0-3.15-3.94,13.81,13.81,0,0,0-4.16-2.34L44,90c3.45-.28,5.24-1.32,7.78-3.1ZM43.39,88c-1.24,13-6.66,23.7-17.84,31.16l-.06-1.45C35.32,110.31,40,99.78,41.32,89.59L43.39,88Zm9.49.62.92.82a8.51,8.51,0,0,1-1.56,1.42c-1,.8-.67.49,0,1.43.63.75,1.74,2.26,1.74,2.26l-.33,2a33.72,33.72,0,0,0-3.86-4.65c-.88-.91-.83-.93.43-1.59.93-.52,1.7-1.15,2.63-1.7Zm14.34.2h0S69,92.08,69,92.37c-1.07,1-3.87,2.45-5,2.11-1.77-.57-2-2.46-.34-3.58a20.48,20.48,0,0,1,3.54-2.07ZM78,89.92a1.38,1.38,0,1,1-1.38,1.38A1.38,1.38,0,0,1,78,89.92ZM66.84,90a11.24,11.24,0,0,0-3.33,2c-.26.19,0,1.13.2,1.46s.92.35,1.64-.05c.3-.17.84-.44,1.2-.61,1-.47,1.43-.82,1.4-1.21S67.37,90,66.84,90Zm-26.44.51c.28,1.46-.59,4-1.09,5.46-2.94,3.86-7.21,5.83-11.26,7.18a5.72,5.72,0,0,1-2.11.15A99.13,99.13,0,0,1,40.4,90.54Zm26.51.09a.63.63,0,0,1,.52.78c-.64.34-1,0-.91.53,0,0,.07.75-.86.77a.82.82,0,0,0-.81.11c-.65.27-1.21-.3-.51-.62.19-.09.66-.24.79-.53s.37-.65.69-.45c.18,0,.56,0,.69-.23-.05-.31.17-.34.33-.35Zm-38,.65c-.16,0-.27,0-.31,0-.27.26-.71,4.28-.42,4.57s1.48.52,1.58,0a36.65,36.65,0,0,0,.42-4.09c0-.24-.79-.53-1.27-.57Zm.44.44c.14,0,.26.22.34.56a11.89,11.89,0,0,1-.34,2.81c-.16.59-.62.46-.8-.09a5.47,5.47,0,0,1,.32-2.87C29,91.82,29.18,91.69,29.32,91.72Zm26,0,1,1.19c-2,19.39-15.84,36.16-30.58,42.81l0-1.29c16.86-8.88,27-23.67,29.66-42.71Zm66.71.08,1.82,2.52-2.61.08Zm-78.4.82c.91,0,5.71,3,5.07,4.44-.51,1.18-4.53,1.27-6.37,1.11L42.58,97a7.69,7.69,0,0,0,2.7,0c2.25-.15,2.09-.92-.49-2.56-1.11-.69-1.36-.87-1.36-.87l.18-1Zm13.31,1.59a67.81,67.81,0,0,1,4.22,8.53c-18.15,17.18-16.75,40.58-5.3,55.94l-4.93,6.68a56.82,56.82,0,0,1-17-33.38C48.26,121.6,55,106.09,56.92,94.22Zm67.42.76,1.09,2.08-2.61,0ZM113.1,96a1.53,1.53,0,1,1-1.52,1.53A1.52,1.52,0,0,1,113.1,96Zm-42.24.41.51,1.18c0,.15-3.67,1.32-4.86,2.83a3.25,3.25,0,0,0-.38,3.84c1.06,1.43,1.8,1.63,3.58,1.08a23.06,23.06,0,0,0,4-1.79l.23.6s-2.06,1.22-3.64,2.11a3.91,3.91,0,0,1-1.92.46,4.26,4.26,0,0,1-2.53-7.47,21.41,21.41,0,0,1,3.13-1.85Zm47.48.73c11.84,17.14,3.73,35.91-3.91,42.55l-.21-2a32.38,32.38,0,0,0,3-39.53l1.09-1Zm7.62.77.93,2.12-2.75-.29Zm-47.73.7A1.38,1.38,0,1,1,76.85,100,1.38,1.38,0,0,1,78.23,98.63Zm38.7.27c10.38,15.12,4.59,39.24-15.21,46.58l-.1-1.69c20.19-8.46,22.17-31,14.06-43.71l1.25-1.18Zm-45,.09,1.31,3.55a10,10,0,0,1-4.15,1.75c-1.46.33-2.59-2.19-1.47-3.16A11.71,11.71,0,0,1,71.94,99ZM38.27,99c.25,0,0,.6-.64,2.12-1.38,3.35-1.47,3.42-5,4a17.61,17.61,0,0,1-4.44.23c-1.94-.19-2.77-.74-1.51-1A31.55,31.55,0,0,0,37,99.8,5.43,5.43,0,0,1,38.27,99Zm66,.42a1.71,1.71,0,1,1-1.7,1.71A1.7,1.7,0,0,1,104.24,99.42Zm-51.59.47-.15,1.32s-2.1,1.11-3.1,1.53c-.76.31-.82.38-.57,1.09A26.5,26.5,0,0,0,50.27,107l-.88,2a23.6,23.6,0,0,0-2.09-5.38c-.93-1.31-1.11-1.47.35-1.74A30.83,30.83,0,0,0,52.65,99.89Zm18.8.43c-1,0-3.18.91-3.39,1.74-.12.47,0,1.13.4,1.27A4.31,4.31,0,0,0,72.25,102c.18-.25-.09-.76-.28-1.09S71.85,100.3,71.45,100.32Zm0,.7h.06c.17,0,.81.8.09.73A.78.78,0,0,0,71,102c0,.38-.58.53-.84.4a.43.43,0,0,0-.51.22c-.4.29-.9.28-1,.07s.27-.73.62-.71a1.68,1.68,0,0,0,.56-.37c.11-.4.54-.33.81-.31s.58-.28.85-.31Zm55.76.07.76,2.12L125.3,103Zm-12.6.46a1.32,1.32,0,0,1,.92,2,1.87,1.87,0,0,1-1.91.69,2,2,0,0,1,.32,2.62c-1,1-2.92-.54-2.77-.68Zm-73.9.78S45,106,45,107.57a.83.83,0,0,1-.68,1c-1.65.55-6.23-.86-6.23-.86l.59-1.12c.72.2,4.27,1.12,4.58.67s-3-3.68-3-3.69Zm20.79,1.51.5,1.75-1.72-.43Zm66.87.31.45,2.42-2.74-.64Zm-52.28,0,.41,1.42c-18.19,8.46-23.5,27.89-14,43.93L61.46,151C48.77,130.38,61.63,109.43,76.14,104.19Zm-41.42,1.43c.36,0,.43.2.43.41a16.12,16.12,0,0,1-2.43,3.18c-1.29.52-6.27-1.57-7-3.18-.15-.47.34-.27,1.44,0,2.8.8,5.63-.3,7.57-.37Zm48.47,0A1.39,1.39,0,1,1,81.81,107,1.37,1.37,0,0,1,83.19,105.65Zm-23.43,0,.24,2.15-2.11-.12Zm-33.88,1.67A11.81,11.81,0,0,0,31.11,110c1.12.25.8.37-.25,1.45s-.89,1.15-1.88.64c-1.66-.84-3.46-2.75-3.39-3.79C25.62,107.85,25.7,107.35,25.88,107.35Zm103.33.24.34,2.29L127,109Zm-72,.82.84,2.06-2.29-.06,1.45-2Zm56.91.5a1.39,1.39,0,0,1,1.51,1.47,7,7,0,0,1-.07.77c1.35-.86,3.14-.15,3.09,1.24-.08,2-1,2-2.6,1.73.86,1.42-.16,2.8-1.77,2.27s-1.19-2-.5-3a3.58,3.58,0,0,0-.39,7c-.81-1.25-1-2.74.74-3s2.31,1,1.61,2.48c1.52-.53,3,.35,2.5,1.83-.56,1.8-2.15,1.68-3.09.58a1.57,1.57,0,0,1-2.06,2.17c-1.86-1-.94-2.77.3-3.24-4.78-.49-5.89,6.14-2.36,7.09-.91-.57-1-3.18,1-2.83s1.55,2.3.25,3.16c1.57-.33,3,1,2.09,2.44-1.13,1.64-2.69.47-3.26-.65.18,1.5-.77,2.45-2,1.89-2.1-1-.55-3.38,1.09-3.22-3.33-2-7.86,2.16-5.19,5.59-.1-1.56.67-2.84,1.74-2.66a1.77,1.77,0,0,1,1.49,2,2.53,2.53,0,0,1-1.92,1.44c2.55.29,2.76,2.09,1.71,3-1.79,1.52-2.62-.23-3-1.25-.36,2.54-3.34,1.67-3.45-.16-.1-2,2.21-2,2.64-1.85a6.88,6.88,0,0,0-3.75-2.16v-1.16a18.33,18.33,0,0,0,8-21.44l.47-.54c1.26,1,2.53,3,4.86,2.28a8,8,0,0,1-.81-.65c-1.2-1.19-.53-2.59,1.15-2.66Zm-51,1.46.81,1.19c-11.75,13.8-9.61,29.59-2.85,40l-1,1.19c-6-7.69-10.86-26.32,3-42.42Zm-37.22.18a20.09,20.09,0,0,1,2.52,2.15c.7.57.69.67.12,1.21-1.31,1.26-2-.57-2.46-1.31-.51-1-.56-2-.18-2Zm45.81.08a1.63,1.63,0,0,1,1.42,1.65,5.58,5.58,0,0,0,0,.56,6.41,6.41,0,0,0,.46-.69c1-1.69,3.16-.72,2.8,1.21-.16.91-1.69,1.26-2.1,1,.39,1.08,1.46,1.34,2.76,1.8.46.09,1.24.31,1.24.31l0,.73c-7.05,4.45-11,12-8.45,22.33L69,140.58c-1.42-3.43-2.72-3.35-5.05-3.49a6.23,6.23,0,0,1,.91.81c.71.84.39,2.3-.59,2.46-2.27.35-2.29-1.26-2-2.36,0,0-.41.34-.61.47a1.38,1.38,0,0,1-2.12-1.18c-.1-1.1.27-1.81,1.4-1.95a4.79,4.79,0,0,1,1,0s-.23-.43-.35-.67c-.54-1.06.64-2,1.73-1.74,1.71.42,1.57,1.9.58,3.06,2.66.2,4.05-1.54,3.85-3.27a3.59,3.59,0,0,0-3.29-3.61s.34.53.48.78a1.46,1.46,0,0,1-1.36,2.12,1.51,1.51,0,0,1-1.44-2.12c.1-.25.54-.57.47-.6s-.64.16-.8.19a1.53,1.53,0,0,1-1.7-2.23,2,2,0,0,1,2.55-.67c.14.05.32.25.34.21a3.65,3.65,0,0,0-.12-.52c-.29-1.12.25-1.72,1.45-1.64,1.69.11,2.32,1.49,1.19,2.73l-.74.8c0,.24,2.4.42,3.61-.84,1.39-1.46,1.61-4.51.21-5.5l-.69-.49c.66,1.34-.56,2.88-1.65,2.59-2.16-.53-2-2.3-.55-2.86A5.38,5.38,0,0,1,63.85,120a1.46,1.46,0,0,1,.32-2.17,2,2,0,0,1,2.76.64c.36-1.12.88-1.88,2.41-1.27,1.08.51,1.07,2-.11,2.73a5.87,5.87,0,0,1-1,.48,5.09,5.09,0,0,0,2.24.59,3.7,3.7,0,0,0,3.31-4.94,5.3,5.3,0,0,0-.68-1,3.91,3.91,0,0,1-.2,1,1.61,1.61,0,0,1-2.57.41,1.33,1.33,0,0,1,0-2,3.6,3.6,0,0,1,1.32-.77c-.63-.21-1.34-.37-1.65-1a1.46,1.46,0,0,1,.68-1.87,1.67,1.67,0,0,1,1-.21Zm58.18.26.16,2.44-2.7-1ZM55.31,111l1,2.21H53.77l1.54-2.2Zm52.46,0c2.36,8.75-1,15-7.25,20l-.7-.92c4.92-4.19,8.61-9.14,7-17.94Zm-72.34,0s3.64,4.74,2.92,6.34c-1,1.53-6.72-1.76-6.64-1.94l.72-.69c.91.37,3.75,1.94,4.38,1.69.22-1.43-1.46-3.28-2.09-4.51Zm43.42,0,27.68.51-.83,1.46h-2.16l-4.27,7.59H79.37l-.52-9.56Zm-31.07.76-1,1.74c-.89.27-3.6.32-3.81.5a28.31,28.31,0,0,1,.68,3.51L42.63,119c-.29-1.68-.76-3.8-1.18-5.36-.36-1.33-.26-1,2.55-1.25a24,24,0,0,0,3.78-.5Zm5.68,2.09,1.14,2-2.31,0Zm-27.72.14c.12,0,.84.75,1,1-.05.53-.87.82-1,.63a6.49,6.49,0,0,1,0-1.59A0,0,0,0,1,25.74,114.07Zm104.42,0,0,2.53-2.74-1.21Zm21.77.57,0,1.64c-9.94,4.88-24.78,17.95-29,41.41l-.87-.95a61.8,61.8,0,0,1,29.92-42.1Zm-100,2.26,1.24,1.87-2.24.25Zm78.31.72L130,119.9l-2.7-1.5Zm-51.95.47c0,.53.06.92.09,1.45-6.13,4-8.2,10.24-7.18,18.12L70.32,139A18.31,18.31,0,0,1,78.26,118.12Zm-50.16.31s2.33,5.27,1.41,6.51c-.89.73-3-.49-3.9-1l0-1.26s.72.37,1.44.66c1.48.66,1.49-.12.67-2.33-.28-.77-.57-1.67-.57-1.67Zm121.21.15a19.08,19.08,0,0,0,2.64,1l0,1.49-4.17-1.5,1.55-1Zm-98.86,1.63L52,121.88l-2.22.52Zm96.85.19a2.6,2.6,0,0,1,.48,0,15.36,15.36,0,0,1,4.13,1.15v1.66a37.79,37.79,0,0,0-4.46-1.39c-1.15-.16-1.09.49-1.09,2.13a14.32,14.32,0,0,0,1.6,6.44c.88,1.84.42,2.33-1,1.51-2.57-1.77-8.06-3.11-8.9-2.08s.84,6.34,2.82,8.86c.8,1,.85,1.19.47,1.59s-.79.34-1.66.06c-2.85-.91-7-1.11-8.17-.34s1.89,6.05,4.47,7.76c1.67,1.19,1.35,1.79-1.35,1.85-4.42,0-7.81,1-7.62,2.22.32,2,3.18,4.87,6.46,6.37,2,.82,1.17,1.15-.17,1.62a44.19,44.19,0,0,0-6.48,3.1l-1-1.3s2.12-1.34,4.41-2.64c.54-.3.52-.41-.24-1-2.45-2.06-4.24-4.35-4.62-5.9s.38-2.45,2.61-3.3a17.28,17.28,0,0,1,3.09-.95c1.75-.4,1.78-.45,1-1.8l-1.22-2.21c-2.6-4.47-1.23-6.08,4.82-6.17,1.48-.08,1.76-.09,1.68-.6-.32-2.11-1.25-4.52-1.12-6.3.28-2.69,3-3.34,7.88-2.13,1.12.28,1.2.22,1-.69-.87-3.83-.07-7.32,2.18-7.48Zm-17.31.3-.42,2.6L127,121.58Zm-96.49.61,7.11.47-1.13,1.33-4.3-.08L35,126.71l-1.37,1.19Zm46.12.28h5.86l0,6.22H79.59l0-6.22Zm7,0h5.45v6.22l-5.4.06-.05-6.27Zm6.53,0H99l-.06,6.22H93.13v-6.22Zm51.07.5a36.56,36.56,0,0,0,.33,5.73c-.1.37-.35.31-1.88,0a23.09,23.09,0,0,0-4-.46l1.23-1.31c1,.12,1.81.11,2.85.24,0-1,0-3,0-3l1.45-1.12Zm-94.68,1.23L51.15,125l-2.09.54Zm79.91.54-.65,2.66-2.37-2.14Zm19.16.07a4.56,4.56,0,0,1,3.27,1.34v1.36l-2.33-1.06a13.5,13.5,0,0,0,1.34,4.35l-1.11.52a9.32,9.32,0,0,1-1.68-4.75c0-.65-.08-1.73.5-1.76Zm-99.87,2.68,1.94,1.16-2.15.88Zm80,.6-1,2.73-2.08-2.36Zm-103.08.87,5.24,1.78-.93,1-4.36-1.38Zm73.59.72.43,9.69-27.72-.23,1-1.37h1.8l4.74-8Zm-50.84.76L50.41,131l-2.14.94Zm103.63.85V132c-6.69,5-13.93,13.5-15.16,28.61L135,162.16c.88-14.75,7-24.93,17-31.75Zm-24.41.06-1,2.46-1.93-2.29Zm8,.45a38.65,38.65,0,0,0,1.14,6,23.26,23.26,0,0,0-5.56.43l.93-1.66s.85-.09,1.6-.24c1.56-.31,1.39-.12,1-1.47a13.24,13.24,0,0,1-.35-1.54A14.71,14.71,0,0,1,135.54,130.92Zm5.11.31c1.82,0,4.55,1.65,5.78,2.59l-.65.72c-.18.06-2.73-1.31-4.74-1.63a25.53,25.53,0,0,0,2.42,4.34l-.93.93c-.29-.07-3.92-5.45-3-6.67A1.87,1.87,0,0,1,140.65,131.23ZM33.26,132.49C35.65,147,41.37,157,50.4,166l-.92,1.2a56.15,56.15,0,0,1-17.92-33.79l1.7-.94Zm14.93.61,2,1.07-2,1.17Zm103.77.05,0,2.13L150.72,134a8,8,0,0,1,1.24-.89Zm-25.73.43L124.9,136l-1.74-2.32Zm23.83,1.06c1.77.25,2.34,3.79,1.75,4.48a23.79,23.79,0,0,0-3.81-2.59A7.79,7.79,0,0,1,150.06,134.64Zm-28.45,1.82,2.83.27-1.5,2.34Zm-73.39,0,2.2,1.08-2,1.42Zm99.6,1a2.92,2.92,0,0,1,1.3.45c2,1.11,3,2.33,2.93,3.42-.05.5-.33.6-.65.23a9.63,9.63,0,0,0-4.24-1.83c-1.28-.25-1.4-.36-1-1C146.73,137.91,147.21,137.5,147.82,137.5Zm-34.11,1a64.71,64.71,0,0,0,15.22,28l-1.4,1.2c-5.14-5.91-10.79-12.83-15.41-27.8Zm6.12.62,2.83.43L121,141.7Zm-40,.13c.33,0-1,5-5.48,5.31-2.85.47-3.17,1-3.21,5.4-.06,6-1,7.45-5.94,7.82-3.26.25-3.69.91-3.14,5.6.53,4.46-1.15,6.73-5.3,6.73-3.59.3-5.07,2-5.07,5.31,0,1.36,0,1.68,0,1.68l-2.32.19a30.29,30.29,0,0,1,.18-3.27c.71-4.32,2.55-6.05,6.44-6,3-.23,3.47-.71,3.37-5.28s-.18-4.62,1-5.83a4.65,4.65,0,0,1,3.24-1.29c4.91-.46,5.3-.79,5.29-5.84-.46-4.2.7-6.77,3.36-7,5.38-.43,5.25-3.36,5-3.48l2.5,0Zm11,0c3.15,17.06,13.14,33,18.61,38.94l-1.07.57c-8-9.94-15.24-21.37-18.83-39.49l1.29,0Zm-5.7,0,2.5,0L58.92,179.89l-1.51-1.14,27.76-39.46Zm3.49,0c2.7,9.84,4.83,19.46,13.32,32.33l-36-.24Zm10,0c.21-.09,1,5-.21,7.32-1.13,3.17-.58,5,1.89,6.11,4.24,2,5.3,4,4.77,8.84-.38,3.41.65,5.06,3.84,6.16,3.81,1.3,5.47,3.36,5.45,6.72a4.28,4.28,0,0,1-.19,1.11L112,176.86s0-.46.11-1c.55-3.73-.15-4.75-4.54-6.51-4.15-1.66-5.18-3.58-4.47-8.37a7.07,7.07,0,0,0-.74-4.33c-1.08-1.94-3.48-1.93-5.21-3.7-1.42-1.51-1.58-3.63-.37-7.26.76-2.24.87-3.1.28-5-.38-1.23-.53-1.34-.53-1.34Zm-50,.54,2.44.68-1.84,1.92Zm97.05.51a9.18,9.18,0,0,1,3.79.94c3,1.52,3.6,2.77.93,2.09a12.73,12.73,0,0,0-5.76.23c-2.21.55-2.16.57-1.4-.77C144.15,141.2,144.4,140.43,145.63,140.4Zm-11,.64a15.06,15.06,0,0,1,5.46,1.16l-.56,1a14.44,14.44,0,0,0-4.32-.64,14.87,14.87,0,0,0,2.85,3.48l-.45,1c-.11.13-3.51-2.72-4.19-4.64C133.12,141.45,133.4,141.07,134.64,141Zm-40,.22A1.66,1.66,0,1,1,93,142.92,1.65,1.65,0,0,1,94.6,141.26Zm34.19.05s2.69,5.34,2.52,5.54c-1.66.74-3.49,1.12-5.32,1.79l.35-1.55a11.81,11.81,0,0,0,2.66-.83c1-.37-1.07-3.11-1.07-3.11Zm-10.93.4,2.79.5-1.86,2.09Zm-52.16,0c.66,0,1.68,1.23,1.68,1.23L64,147.65a1.46,1.46,0,0,1,.21-2.85c.34,0,1,.06,1,.06a2.8,2.8,0,0,1-.72-.59C63.47,143.07,64.4,141.83,65.7,141.73Zm44.48,1.16c3.92,0,4,4.86,3.22,6.46-.55,1.1-1.38,1.71-3.89,2.85a8.33,8.33,0,0,1-2.42.92l-.52-1.17s1.27-.56,2.63-1.11c2.83-1.15,3.51-2,3.2-4.07-.44-2.9-2.67-3.35-7-1.41-.5.23-1.13.46-1.13.46l-.3-.59a29.2,29.2,0,0,1,5.36-2.28A6.38,6.38,0,0,1,110.18,142.89Zm-60.73.52,2.22.74-1.62,1.6Zm99,.63c2,0,3.58.32,3.58,1,0,.33-.08.36-1.84.6-2.68.38-7.16,2.67-9.68,4.8-1.49,1.26-1.11,1-.48-.86s1.56-4,2.06-4.32C143.32,144.46,146.19,144,148.41,144Zm-32.1.25,1.89.41L117,145.9Zm-6.33,1a1.24,1.24,0,0,1,1.27,1c.58,1.4,0,2.22-2.18,3.17a13.43,13.43,0,0,1-3,1.27L104.73,147s.43-.16,1.87-.75A10,10,0,0,1,110,145.32Zm-6.39.45A82.08,82.08,0,0,0,119,172.9l-1.37.86A79.15,79.15,0,0,1,102.07,146Zm48.31.38c.19,0,.28.09.25.23,0,.52-7.86,8-12.36,11.8-2,1.73-2,1.72-2.15,1.5a21.56,21.56,0,0,1,1.29-6.69,24.64,24.64,0,0,1,12.14-6.76A3.07,3.07,0,0,1,151.9,146.15Zm-42.25.06a8.94,8.94,0,0,0-2.38.74c-1.54.6-1.67,1.32-1,2.21.3.39.61.31,2.09-.28s2.17-.87,2.26-1.41A1,1,0,0,0,109.65,146.21Zm.14.42a.55.55,0,0,1,.53.56c0,.25-.35.48-.71.48a1,1,0,0,0-.64.27c-.19.28-.32.56-.67.49a1.12,1.12,0,0,0-.73.07c-.69.61-1.38.11-1.06-.5a.72.72,0,0,1,.59-.23c.2,0,.64,0,.71-.28s.52-.37.83-.36a.72.72,0,0,0,.68-.26.77.77,0,0,1,.41-.24Zm-35.55.09a1.66,1.66,0,1,1-1.65,1.66A1.65,1.65,0,0,1,74.24,146.72Zm-23.9,0,2.51.34-1.58,2Zm50,1.27a1.66,1.66,0,1,1-1.65,1.66A1.66,1.66,0,0,1,100.31,148Zm-48.85,1.88,2.72.17-1.56,2.09Zm14.34.39A1.66,1.66,0,1,1,64.15,152,1.65,1.65,0,0,1,65.8,150.3Zm67.84,1c1.13,0,2.44.09,2.44.09l-.32,1.28c-1.38.13-3.15-.25-4.63.37.55.9,3.77,2.18,4.13,2.49a11.06,11.06,0,0,1-.27,1.35c.09.31-5.45-2.25-5.64-4.42C129.36,151.77,131.75,151.37,133.64,151.34Zm-19.06,1.32c3.15,0,4.7,4.44,3.48,6.39a9.19,9.19,0,0,1-3,2.85c-.7.45-2.53,1.35-2.53,1.35l-.83-1.28s.73-.3,1.42-.67c1.74-1,5.26-3.08,3.56-5.93-1-1.55-2.39-1.85-5.36-.33a16.62,16.62,0,0,1-2.72,1.23l-.56-1C108.17,155.33,112.45,152.75,114.58,152.66Zm10.14.17a18.8,18.8,0,0,0,4.78,5.65s-2.56,1.65-4.09,2.7l-.9-1.06,2.2-1.89-2.48-3.47Zm-71.61.29h2.47l-1.06,2.23-1.41-2.24Zm95.73.41a42.27,42.27,0,0,0-.44,4.65,2.12,2.12,0,0,0,1.46.72,11.62,11.62,0,0,0,.59-5A2.83,2.83,0,0,0,148.84,153.53Zm.75.43a.32.32,0,0,1,.21,0c.3.15.28.37.28.65a7.68,7.68,0,0,1-.28,3.05c-.23.52-.75.32-.77-.38,0-1,.17-1.77.22-2.64C149.28,154.28,149.4,154,149.59,154Zm-35.2,1.32c1.62.12,2.25,1.48,1.65,2.46-1.47,1.88-3,2.22-4.89,3.31l-1.92-3.6S113,155.33,114.39,155.28Zm0,.8a7.67,7.67,0,0,0-2.65,1.1c-1.1.54-1.46,1.38-.71,2.14.82.93,3.71-1.28,4.19-1.81a.82.82,0,0,0-.17-1.2A1.06,1.06,0,0,0,114.34,156.08Zm-59.21.16,2.42,0-1.3,1.85Zm59.16.28a.62.62,0,0,1,.28.09.52.52,0,0,1-.21,1c-.29.08-.8.08-.81.47s-.45.4-.71.36-.7-.06-.78.26-.39.46-.7.14-.18-.76.47-.83a.82.82,0,0,0,.62-.45c0-.28.18-.44.49-.38a1.18,1.18,0,0,0,1-.57A.61.61,0,0,1,114.29,156.52Zm-13.87.14a1.66,1.66,0,1,1-1.65,1.66A1.65,1.65,0,0,1,100.42,156.66Zm-35.26,3.05a1.66,1.66,0,1,1-1.65,1.66A1.65,1.65,0,0,1,65.16,159.71Zm69.54,1.4v1.25s-2.57,1.21-4.1,1.91c-.5.27-.31.8-.28,1.34l-.73.5s-1-.75-1.15-1.22c-.38-1.51,4.42-3.32,6.25-3.78Zm-109,.07,18.91,13L43.27,176l-17.56-12-.06-2.88Zm94.95.42c1.23,0,2.18.71,3.1,2.14,1.82,2.85.9,5.09-2.87,7.38l-1.77,1.08-.89-1.11s1.28-.75,1.81-1.08c3.1-2,4-3.71,2.61-5.67s-2.7-1.73-6.53.71a11.85,11.85,0,0,1-1.7.88l-.84-1.14s2.17-1.12,2.91-1.59A8.26,8.26,0,0,1,120.6,161.6Zm-13.21.85a1.66,1.66,0,1,1-1.65,1.66A1.66,1.66,0,0,1,107.39,162.45Zm-51.23.47a1.66,1.66,0,1,1-1.65,1.65A1.65,1.65,0,0,1,56.16,162.92Zm64.37,1.32a1.42,1.42,0,0,1,1.35,1c.66,1.6-.23,2.79-3.46,4.61l-.85.46-2.38-3.3s.84-.57,1.63-1.05C118.59,164.81,119.72,164.27,120.53,164.24Zm-.32.79a1.11,1.11,0,0,0-.53.18,9.4,9.4,0,0,0-2.87,1.87c-.38.53-.21,1.06.52,1.74.61.41,3.78-1.94,3.86-2.62C120.92,165.48,120.67,165,120.21,165Zm-94.42.18.53.35-.53.42Zm94.45.39a.7.7,0,0,1,.48.18.54.54,0,0,1-.41.86c-.25.05-.62.11-.74.49a.86.86,0,0,1-.78.44.46.46,0,0,0-.61.32.6.6,0,0,1-1,.07c-.22-.24.18-.93.45-.92,0,0,.34.09.69-.39a.78.78,0,0,1,.76-.54c.3.1.47-.23.59-.41A1.09,1.09,0,0,1,120.24,165.6ZM27.05,166l.76.52-2,1.43v-1.15Zm1.47,1,1,.69-3.76,2.71v-1.47Zm1.93,1.23,1.09.73-5.75,3.9v-1.51Zm2.07,1.06v1.25l-6.73,4.71V174Zm.76.9,1.45,1,.36,42.48L26,219.91v-1.86l7.62-5.52-.37-42.34Zm109.39,1.15c-2,2.33-4.77,2.48-7.14,2.42-6.41.09-10.39.43-11.22,8.1,2.61-2,5.38-2.21,8.59-2.12,4.06,0,5.88-.27,7.53-1.1,2.66-1.33,4.33-3.7,4-5.37C144.13,172.91,143.3,171.43,142.67,171.34Zm-110.15.37v1.47l-6.73,4.52v-1.49Zm76.85.14a1.66,1.66,0,1,1-1.65,1.65A1.65,1.65,0,0,1,109.37,171.85ZM65.43,172c11.9.37,37.15.22,37.15.22l1.35,1.95-39.71-.42Zm77.51.07c.36,0,.41.46-.34,1.2-1.42,1.4-2.9,2.09-7.58,2-4.94-.09-6.86.7-8.14,2.9-.37.64-.37.89.17.41s1.48-1.58,1.9-.59c.84-.56,1.57-1.39,2-.33.24-.06,1.67-1.49,2-.22.68-.76,1.27-1,1.59.08,1-.46,1.48-1.33,2-.13.78-.56,1.37-1.26,1.82-.19.67-.2,1.34-1.42,1.73-.45a8.47,8.47,0,0,0,3.15-2.86c.56-1.26,1.07-.42.44.87-1.63,3.17-4.42,4.32-10.81,4.33-3.88,0-5.49.39-6.71,1.1-2,1.14-.9-1.74.47-3.49,1.73-2.2,3.7-2.85,9.1-2.65,2.95,0,4.84-.4,5.64-1A3.53,3.53,0,0,1,142.94,172.09Zm-87.71.67a1.66,1.66,0,1,1-1.66,1.66A1.65,1.65,0,0,1,55.23,172.76ZM32.52,174v1.5l-6.73,4.6v-1.52Zm32.54.72h5.22v5.53H65.06Zm11.7,0h5.62v5.53H76.76Zm12.51.18h5.42v5.35H89.27ZM101,175l3.61.12s2,2.56,2.85,3.74l-2.67,1.37H101V175Zm-33.45.37a1.85,1.85,0,1,0,1.84,1.84A1.84,1.84,0,0,0,67.57,175.36Zm12,.18a1.85,1.85,0,1,0,1.84,1.85A1.84,1.84,0,0,0,79.58,175.54Zm12.28.05a1.85,1.85,0,1,0,1.84,1.84A1.84,1.84,0,0,0,91.86,175.59ZM62.55,176a1.43,1.43,0,0,1-.83,2.59,1.4,1.4,0,0,1-.75-.22Zm5,0a1.22,1.22,0,1,1-1.22,1.22A1.22,1.22,0,0,1,67.57,176Zm30.29.05a1.48,1.48,0,1,1-1.47,1.48A1.48,1.48,0,0,1,97.86,176Zm6.22,0a1.85,1.85,0,1,0,1.84,1.85A1.85,1.85,0,0,0,104.08,176Zm-30.55.06a1.48,1.48,0,1,1-1.47,1.48A1.48,1.48,0,0,1,73.53,176.09Zm6,.08a1.22,1.22,0,1,1-1.22,1.22A1.22,1.22,0,0,1,79.58,176.17Zm-47.06,0v1.49l-6.73,4.71v-1.46Zm59.34,0a1.23,1.23,0,1,1-1.22,1.22A1.22,1.22,0,0,1,91.86,176.21Zm-6.16.16a1.48,1.48,0,1,1-1.48,1.48A1.48,1.48,0,0,1,85.7,176.37Zm18.38.29a1.22,1.22,0,0,1,0,2.44,1.22,1.22,0,0,1,0-2.44Zm-52.34,1.28a10.61,10.61,0,0,1,8.44,4.21C63.07,186,65,191,65.88,197.48c.44,3.22,1.94,12.88,2.79,15.16l-1.17-.22c-.16.08-1.66-6.08-2.61-14.21a32,32,0,0,0-2.73-10.44c-2-4.05-5.37-8.34-9.87-8.68-2.63-.2-5.1,1.45-5.36,3.78A3.68,3.68,0,0,0,49,187c1.39.57,3,.15,3.23-1.74a1.91,1.91,0,0,0-.12-.92,1.24,1.24,0,0,1,1.39.73,3.17,3.17,0,0,1-2.13,3.28c-2.58.85-5.56-1.71-5.79-4.32a6,6,0,0,1,3.59-5.66A8,8,0,0,1,51.74,177.94Zm-19.22.84v1.52L25.79,185v-1.53Zm19.36,1c3.77-.11,7.43,4.1,9,6.87a33.14,33.14,0,0,1,3.34,11.82c.75,7.35,2.16,13.37,2.45,13.64l-1-.22c-.22.14-1.63-6.5-2.49-13.89a30.79,30.79,0,0,0-3.85-11.42c-1.68-2.93-3.95-5.11-6.64-5.43-1.68-.17-3.41.32-3.75,2.1a1.73,1.73,0,0,0,1.6,2.16l.62.05c.65.12-.37,1.18-1.05,1.09a3.1,3.1,0,0,1-1.62-5.29A5.21,5.21,0,0,1,51.88,179.75Zm8.06,1.08,42.28.43s0,.76-2.59.63a13.43,13.43,0,0,0-5.17.69l-33.21-.08Zm-27.42.49v1.41l-6.73,4.72V185.9Zm19.65.6a4.34,4.34,0,0,1,2.26.56c5.24,3,7.24,10.59,7.93,15.34.94,7,2,13.58,2.32,13.74l-1.14-.25a94.49,94.49,0,0,1-2.18-12.94c-.62-5.53-2.51-11.08-6.25-13.42-2.4-1.64-2.87-1.8-4-.85s-1.93-.41-1.13-1.42A3.21,3.21,0,0,1,52.17,181.92Zm-19.65,1.9V185l-6.73,4.7v-1.37Zm30.77,0c.08-.08,3.64,6,4.76,15.5.59,5,2.28,13.58,2.55,13.65l-1.23-.14c-1.26-5-2-9.82-2.63-14.12-.76-4.87-1.37-9.2-4.39-14.85l.94,0Zm.8.05,1.1,0a46.35,46.35,0,0,1,4.58,14.76,71.88,71.88,0,0,0,2.92,14.85l-1.18-.32c-1.48-4.15-2-9.17-2.8-14.37-.88-5.75-2.26-10.75-4.62-14.94Zm6.79,0c1.92,5,3.17,7.38,4.05,13.53a89.63,89.63,0,0,0,3.84,17.06l-1.11,0a67.32,67.32,0,0,1-3.44-15.83A48.29,48.29,0,0,0,70,183.93l.88,0Zm-1.89,0c.1-.15,3.66,7,4.49,14.86a72.82,72.82,0,0,0,3.44,15.4l-1.13,0c-1.32-1.52-2.3-8.75-3.39-15.49A50.55,50.55,0,0,0,68,183.94h1Zm-2.88,0h1a47.76,47.76,0,0,1,4.56,14.85c1,7.08,2,13.47,3.11,15.14l-1.23-.08a75.67,75.67,0,0,1-3.08-15.32,44.08,44.08,0,0,0-4.37-14.59Zm5.58.05h1.2a44.73,44.73,0,0,1,4.39,15.16,73,73,0,0,0,3.29,15.53l-1-.06a73.47,73.47,0,0,1-3.81-16.12A52,52,0,0,0,71.69,184Zm7.39,0a54.46,54.46,0,0,1,2.68,8.79l-.68,1.32A96.62,96.62,0,0,0,77.63,184Zm-5.47,0,1.46,0a68.35,68.35,0,0,1,4.15,14.1s.35,1.84.37,2.44c-.08,5.11.8,8.75,2.69,14.24l-.86-.06a69.37,69.37,0,0,1-3.36-15.25A44.46,44.46,0,0,0,73.61,184Zm3.37,0a113.25,113.25,0,0,1,3.68,11,4.12,4.12,0,0,1-.66,2.38c-1.22-4.42-2.25-9-4.14-13.35Zm2.76,0,1.16,0,2.31,6.63-.91,1C81.63,189.56,80.93,187.14,79.74,184.1Zm6.76.05.84,2-.91.77a22.5,22.5,0,0,1-1.17-2.74Zm1.71,0,.43,1.15-.77.58-.59-1.71Zm-6.62,0h1.19c.48,1.39,1.76,4.8,1.76,4.8l-.86.9s-1.61-4.31-2.09-5.71Zm1.84,0h1.06c.32.91,1.31,3.41,1.31,3.41l-.73.7Zm5.53.05,1.05.05-.13.26-.65.32Zm-34.28,1.47c4.38,2.32,5.59,9.25,6.06,13.06A109,109,0,0,0,62.69,211l-1-.15s-.71-3.42-1.21-6.67c-.41-2.71-.73-5-.85-6-.07-.65-.17-1.4-.24-1.68a18.55,18.55,0,0,0-1.59-5A11.28,11.28,0,0,0,55.54,188a8,8,0,0,1-1.11-1.29C54.19,186.22,54.68,185.69,54.68,185.69Zm-22.16.36v1.3l-6.73,4.77v-1.49Zm0,2.29v1.51l-6.73,4.45V193Zm0,2.57v1.39L25.79,197v-1.45Zm11.24,1.41h.59l0,1-.91-.06.28-.92Zm-11.24,1.21V195l-6.73,4.46v-1.4Zm10.54.56,1.43,0,0,1-1.83-.07.42-1Zm-.82,1.65,2.33,0v1l-2.89,0,.56-1Zm-9.72.21v1.57L25.79,202v-1.58Zm8.53,1.63,3.42,0,0,.81-4.09,0Zm-8.53.91V200l-6.73,4.32V203Zm7.1.73,4.7.06-.12.79-5.36,0,.78-.83Zm-7.1,1.66v1.48l-6.73,4.39v-1.41Zm5.34,0L44,201l1.3,1.18-9.62.06,2.14-1.39ZM36,203.06l10.62.13.75.69-11.41,0,0-.86Zm-3.47.33V205l-6.73,4.42V208ZM36,204.77l11.78,0-.86,1L36,205.8l0-1ZM32.52,206v1.43L25.79,212v-1.64Zm3.18.75,10.19,0-1.2.94-7,.17-2-1.14Zm-3.18,1.77v1.36l-6.73,4.84v-1.53Zm6.16.17,6,0,.11.8H39.63Zm1.66,1.66,4.59,0,.21,1-4.08-.06-.72-1Zm-7.82.73v1.27L25.79,217V215.6Zm12.72,1,.06,1-2.74.1-.77-1,3.45-.06Zm0,1.75,0,1.05-1.91,0-.43-1,2.36-.07Zm-1.7,1.86H45l-.13.8H43.73l-.21-.82ZM44,217.6h.74l-.13.63h-.37Zm14.89,10.59-.35.45H69l.12-.45Zm13.57,0-.19.61H77l.13-.61Zm7.75.12-.14.58H92.17l-.2-.58Zm14.52,0,.25.7H99l-.27-.7Zm14.1,0h-7.17l.25.78h7.42l-.5-.79Z" transform="translate(0.1 0.1)"/></g></g></g></g></g><path id="path163-0-2-5-8-7-5-0-7-4" class="cls-2" d="M48.06,64.75s-3.71-6.11-8.73-13.28c-3.35-4.81-6-10-6.28-14.49-.29-5.12,2.42-10.25,7.32-10.5s6.88,3.95,7.69,7.41c.81-3.46,2.8-7.66,7.7-7.41s7.6,5.38,7.32,10.5c-.25,4.48-2.93,9.68-6.29,14.49-5,7.17-8.73,13.28-8.73,13.28Z" transform="translate(0.1 0.1)"/><path id="path163-0-2-5-8-7-7-8-0-0-6" class="cls-2" d="M130.52,184.7s-3.72,6.11-8.73,13.28c-3.35,4.81-6,10-6.28,14.49-.29,5.11,2.42,10.25,7.32,10.5s6.88-3.95,7.69-7.41c.81,3.46,2.8,7.66,7.69,7.41s7.61-5.39,7.32-10.5c-.25-4.48-2.93-9.68-6.28-14.49C134.24,190.81,130.52,184.7,130.52,184.7Z" transform="translate(0.1 0.1)"/></g></g></svg>