<svg id="svg4946" xmlns="http://www.w3.org/2000/svg" viewBox="0 0 178.78 249.65"><defs><style>.cls-1{fill:#fff;stroke:#000;stroke-width:1px;}.cls-2{fill:#131f67;}.cls-3{fill:#d40000;}.cls-4{fill:#e2cf00;}</style></defs><title>11SPADE</title><g id="layer1"><g id="g6392"><rect id="rect7331-9-9" class="cls-1" x="0.5" y="0.5" width="177.79" height="248.65" rx="8.5"/><path id="path7363-8-9" d="M14.11,40.25C10.68,44.62,7,47.14,6.94,50.55a3.32,3.32,0,0,0,2.75,3.34A2.85,2.85,0,0,0,13,51.14c0-.39.47-.38.46.16a10.37,10.37,0,0,1-1.56,4.9h4.5a10.37,10.37,0,0,1-1.56-4.9c0-.54.47-.55.47-.16a2.85,2.85,0,0,0,3.27,2.75,3.32,3.32,0,0,0,2.74-3.34c-.06-3.41-3.74-5.93-7.17-10.3Z" transform="translate(0.1 0.1)"/><path id="path7367-3-1" d="M164.47,209.2c-3.43-4.37-7.1-6.89-7.17-10.3a3.32,3.32,0,0,1,2.75-3.34,2.85,2.85,0,0,1,3.27,2.75c0,.39.47.38.46-.16a10.34,10.34,0,0,0-1.56-4.9h4.5a10.45,10.45,0,0,0-1.56,4.9c0,.54.47.55.47.16a2.85,2.85,0,0,1,3.27-2.75,3.32,3.32,0,0,1,2.74,3.34c-.06,3.41-3.74,5.93-7.17,10.3Z" transform="translate(0.1 0.1)"/><path id="path35-7-9-2" d="M14,11.43v2.76H16.7s.06,2.65.08,8.29c0,5.47.14,8.18-.21,9.74-.94,3.59-6.13,3.61-7.17,1a10.29,10.29,0,0,1-.46-4.18H6.06s0,.76,0,1.7c0,4,1.35,6,4.47,6.72s7-.45,8.3-3.2c.8-1.57.71-1.67.73-11.14,0-6.32.11-9,.11-9h2.46V11.43Z" transform="translate(0.1 0.1)"/><path id="path35-7-8-1-4" d="M164.56,238v-2.76h-2.68s-.06-2.65-.08-8.29c0-5.47-.14-8.18.21-9.74.94-3.59,6.13-3.61,7.17-1a10.36,10.36,0,0,1,.46,4.19h2.88s0-.77,0-1.7c0-4-1.36-6-4.48-6.73s-7,.46-8.3,3.21c-.8,1.56-.71,1.67-.73,11.14,0,6.32-.1,8.95-.1,8.95h-2.46V238Z" transform="translate(0.1 0.1)"/><g id="g3851-4-2-7-4"><path id="path4037-8-0-2" class="cls-2" d="M24,19.46V230H154.6V19.46Zm41.5,1.16,59.17.21-9.18,14c-12-3.79-31.36-1.33-41.36.58-2.63-4.39-6.44-9.9-8.63-14.82Zm-39.78.54h38l8.92,16.2c.32.45,0,1.38-.18,1.91a41.23,41.23,0,0,1-4.3,8.57C66,51.33,65.26,54.53,66,56.68a2.2,2.2,0,0,1,.17,1,5,5,0,0,1-2.25,3.17c-.84.13-2.57.24-3.57,1.23a5.27,5.27,0,0,0-1.46,4.36,10.1,10.1,0,0,0,.16,1.33C47.71,72.48,39.58,78,39.85,78.2c-.11,0-10-4.58-14.15-5.7Zm101.06,0h26.07V95.59L143,89.12c.82-.58,1.32-.91,2.19-1.5.15-.05.44-.05.63-.09,1.74-.39,3-1.69,2.35-3-.41-.92.15-.86.66-1.61a2.06,2.06,0,0,0,.09-2.29c-.18-.35-.08-.49.22-1.14a2.28,2.28,0,0,0-.81-3.2c-.11-.16.11-.41.16-.64a2.19,2.19,0,0,0-1.4-2.81c-.6-.15-.8-.26-.59-.79.38-.94-.12-1.3-.89-1.6-1.31-.52-.94-.6.67-1.33,3.31-1.48,4.09-5.89,1.82-9.9-.29-.51-1.07-1.7-1.59-2.5s-1.21-1.74-1.21-1.74l4.38-6.1a48.36,48.36,0,0,1-4.13-5.59c.25-1,3.31-4.08,3.7-7.08.62-4.7-3-7.71-6.34-7.35-2.35.24-5.24,1.74-5,6.09a10.2,10.2,0,0,0,1.56,4.44c.67,1.27,1.53,2.61,2.37,3.89l-4.41,6,4.45,5.63s-.06.09-.15.25a43.94,43.94,0,0,0-2.29,4c-1.64,3.24-2.23,6.8,1.15,9.31a7.58,7.58,0,0,1,1.29.92c.33.32.13.57-.4.7a10.61,10.61,0,0,0-1.93.38,21.17,21.17,0,0,0-5.74,3.23,16.43,16.43,0,0,0-3,4.6c-.9,1.9-1.16,2.33-1.16,2.33l-15.48-9.9s-.4-.31-.51-.43c-.28-.32-.18-.51,0-.86a4.32,4.32,0,0,0,.1-1.87,3.09,3.09,0,0,1,.74-2.5,1.78,1.78,0,0,0,.22-1.48c-.24-.73-.27-.5.2-1,.18-.22.4-.33.43-.57s0-.89,0-1.94c0-2.1,0-1.93,1.17-2.85,1.47-1.15,2-1.69,2.26-2.21.33-.75,0-1.31-.83-2.8-.38-.68-1-1.59-1.25-2.11A18,18,0,0,1,115,46.77a3.71,3.71,0,0,1,0-3.34c.64-1.14.82-1.83.8-4.13,0-2.13-.18-1.93.36-2.65C120.29,31.28,126.76,21.16,126.76,21.16Zm16.57,8h.27a5.51,5.51,0,0,1,3.73,1.61c1.61,1.61,1.5,3.93,1,6.34a8,8,0,0,1-.92,2.14,5.88,5.88,0,0,0-.5.84A14.2,14.2,0,0,1,146,41.5c-.47.72-1,1.71-1,1.71a24.13,24.13,0,0,0,2.1,3c1,1.5,1.66,2.81,1.74,2.73a5.82,5.82,0,0,1-.61,1.12,47,47,0,0,0-3.1,4.61c0,.07-.22.14-.22.22,0,.27.4.59,1,1.39,3.54,4.85,4,8.94,1.38,11.34a4.91,4.91,0,0,1-4,1.42,5.16,5.16,0,0,1-4.65-5.64,7.13,7.13,0,0,1,.91-3.6,21.39,21.39,0,0,1,1.86-3.43A15.64,15.64,0,0,0,142.42,55a51.64,51.64,0,0,0-3.57-4.65,4.79,4.79,0,0,1-.68-1.17l4-5.86A13.79,13.79,0,0,0,140.9,41c-1.58-2.36-2.61-4.87-2.6-6.28C138.33,31.21,140.63,29.15,143.33,29.15Zm9.88,83.72c-2.35,1.24-4.62,5.49-.17,2.53l.11,2.44c-2.31,3.28-6.84.87-5.69-2.53-3.13.41-3.62-2.76-3.46-4.27-4.11-.89-2.69-5.24-2.69-5.24-2.38-2-2.8-4.06-.87-6.25-1.95-1.2-2.5-2-4.63-2.86,1.64,14.56,9.51,22.12,17.8,28.86-.22,0-.25,4.69-.77,3.83-11.83-8.83-19.44-18.92-20.75-35.23-.1.25-5.61-4.26-6.52-4-1.91,26.42,19.17,43.79,27.94,47.22a30.3,30.3,0,0,1,0,3.69c-13.29-5.78-28.07-22.76-30.91-42.95l-7.84,12.11L111.8,109,124.48,89l-8.57-5.36-14,22.06s-.37,1.84.64,1.82c19.59,2.09,48.73,25.58,39,63.8-.84-.33-2.19-1-2.26-1,1.53-3.29,5.81-24.63-7-41.87-5.88-7.9-15-16.31-29.67-18.79,1.22,2.5.69,8.15.69,8.15l3.41.69A10.39,10.39,0,0,1,104.1,115c-.64-2.06.3-3.27,2.57-2,.91.51,1.14.49,2-.17,1.83-1.36,3.93,0,3.44,2.31-.07.33,0,.54.89.62a8,8,0,0,1,5.25,2.7c.63.81.77.69,1.33.2,1.38-1.19,3.66.46,3.25,2.31-.23,1-.1,1.31.39,1.51,2.69,1.13,3.35,1.84,4.19,4.19.3.87.56,1.15.71,1.1s.56-.18,1-.33c2-.76,3.18,1.67,1.76,3.57-.29.38-.08.76.44,1a6.82,6.82,0,0,1,3,5.37c.07.86.16.86,1,.83,2.23-.1,3.29,2.9,1.48,4-.63.39-.52.88,0,1.46a5.38,5.38,0,0,1,1.49,4.4c-.15,2.33,0,2.28.74,2.56,2.16.82,1.76,4.27-.36,4.26,1.52,3.55-.49,7.88-.42,8,4.07,2.28.4,4.71-.79,4.28,0,0-.6,1.6.08,2.42-3.57,4.72-8.25,5.5-13.43,7.84l-.16-16.6c2.16,1.73,4.29,3.34,6.43,4.95,0,0,.54-.16,0-.62-1-.87-3.33-2.41-4-3a89.78,89.78,0,0,1-7.67-7.32c-.42-.8-1-.34-1-.29a38.38,38.38,0,0,0,1.93,3.49c1.76,2.44,3.48,5.16,3.3,7.85a10,10,0,0,1-.94,3.81c-.25,1-1.9-.18-1.48-1,.73-2.39,1.34-4.34-1.28-8.16a53.5,53.5,0,0,1-2.93-5.26l-1.06.26,0,21.66c-.89,0-3.14.62-2.68.64,7-1.4,9.17,8.62,2.39,8.95-1.29,0-2.62,2.25-2.75,3.45,0,2.91.48,6-1.65,8.78a27.6,27.6,0,0,0-1.34,2.82c-2.61,4.6-3.77,7.24-3.5,8.43.06.3.13.71.13.71A94.88,94.88,0,0,1,83,213.68a98.18,98.18,0,0,1,4.91-12.39c1.56-3.08,2.36-5.18,1.92-5.81-6.62.33-5.35-9.37,1-9,0,0,1.59-5.58,3.37-8.11,1.69-.93,5.08.34,7-.91,4.48-1.37,7.42,3.91,7.42,3.91l1.21-5-39.64-.19s-3.86,1.6-5.94.74a18.72,18.72,0,0,1-3.24-2S76.26,150.4,78.48,146.9c.18-.28-.39-.89-.39-.9-.09-.79-18.15,28.26-18.15,28.26-10.19-6.52-23-14.76-34.37-22l0-10.89c8.25-5.19,7.51-7.31-.13-1.65-.1.09-.16-4.09-.16-4.09,5.82-5.19,1-3.56-.17-1.77,0-1.29-.27-3.05.56-3.82,2.54-2.34,5.54-.19,5.69,3.27,3.31.65,2.9,3.56,3.76,4.72,3.38,1.91,1.6,4.8,2.44,5.78,3.56,2.25,1.08,5.85.32,5.77.45.3,4.88,3.26,5.26,3.15-.39-15.53-15.93-28-18-29.57l.37-3.35s21.41,13.67,21.22,35.6l6.83,4.05C52.92,137,42.71,121.7,25.5,112l-.23-4.17c14.45,6.71,27.86,20.3,31,42.57l8-12.4,2.82,1.36L54.22,160l8,5.26c6.22-8.17,11.41-18.2,14.57-23-.08-.44-.25-1.06-.25-1.06C46,136.17,28.74,107.56,37,77.67l2.12.94c-6.38,22.13,4,54,37.3,60.52-.07-2.36-.48-8.15-.48-8.15s-4.38-1.31-3.73-.78c1.07.91,3.47,4.85,2.46,6.25a5.28,5.28,0,0,1-3.3-1.29c-.5-.37-.52-.29-1.08.32-1.57,1.67-3.86.71-3.88-1.59,0-1-.05-1.18-1.43-1.19-2.09,0-3-.37-4.29-2-.89-1.19-.81-1.2-1.86-.84a2.15,2.15,0,0,1-3-2.7c.31-.77,0-1-.94-1.17-1.78-.3-3.79-2.52-4.16-4.35-.08-.37-.26-.46-1.31-.42-2.06.07-3.2-1.18-2.39-2.92.44-1,.57-1.33-.26-2a6,6,0,0,1-2-2.27,8.9,8.9,0,0,1-.65-2.84c-.09-.56-.27-.65-1-.74-2.13-.28-3-2.45-1.41-3.86.48-.43.48-.42-.25-1.36-1.39-1.79-1.91-4.14-1.3-5.71a.77.77,0,0,0-.5-1.06c-1.94-.48-2-2.63-.11-3.84.54-.35.56-.58.16-1.29-.72-1.23-.68-4.47,0-6,.44-1,.44-1-.25-1.46a2.26,2.26,0,0,1,.69-3.95c.85-.21.9-.32.68-1.35-.41-1.83-.48-2.3.6-3,3-1.92,10.59-5.61,10.59-5.61l2.52-1.19s.25,15.34.09,17.16c-.1.78.61,1.25,1.42,2.06,1.7,1.66,2.62,3.67,4.88,5.06,0,0,1.41-.78,2.28-1.34l.08-21.86c.18-.5.3-.55.88-.62s1.69-.23,2.09-.35c1-.28,1.13-.67-.15-.54-.38,0-1,.2-1.6.33-4,1.19-6.94-5-3.91-8.13A9.59,9.59,0,0,1,64.32,61c.29,0,1.14-1,1.72-2a2.86,2.86,0,0,0,.5-2.66c-.71-2,0-5.19,2.07-8.62a31.34,31.34,0,0,0,5-10.69c8.07-1,14.92-3,22.22-2.53.28,2.46-8,17-6.26,17.82,6.5,1.55,4.29,9.24-.66,9-.74,0-.81.06-1.28,1.69-.9,2.39-1.48,4.21-2.44,6.43,0,.57-3.23.42-5.93.4-1.16.89-6.14,3.31-8.86-2.88l-.1,5.29s37.23-.59,43.85.24c.14-1.66,3.68,1.28,3.68,1.28L99.62,102.24l.85.83c2.62-3.18,18.43-28.62,18.43-28.62l34.21,22c-.29,3.28,0,10.62,0,10.62-9.39,5-6.52,7.51-.05,1.48Zm-56.68-78a134.93,134.93,0,0,1,14.55.86c4.25.68,4,.55,4,3.64,0,2.19,0,2.14-.58,3.19-1,1.93-.86,3.84.78,6.51A31.82,31.82,0,0,1,118.06,54c0,.57-.1,1.27-1.48,2.23-1.63,1.14-1.94,1.93-1.92,3.08,0,.94-.16,1.24-.72,1.24a9.46,9.46,0,0,0-1.86.76,4.49,4.49,0,0,1-2.9.7c-.7,0-1-.27-1.23-.2-.37.18-.72,1.43-.71,1.8,0,.13.24,0,.66-.09,2.31-.79,5.75-.43,5.85-.09.47.42.47,1.08-.24,1.75a2.5,2.5,0,0,0-.47,2.2c.26,1.5.07,2.1-.71,2.62-2.35,1.59-5.49,1.79-10.52.83-5.29-1-8.91-3-11.92-6.64-1.35-1.61-1.68-2.18-1-2.29a10.89,10.89,0,0,0,2.58-.66c3.72-1.6,3.65-8.4-1.36-9.11C88,52,94.31,42.39,96.53,34.87Zm4.78,4.69c-1.8,1-2.74,2.23-2.74,2.9,0,.27.06.22.92-.34,2.49-1.64,9.06-4,11.41-2.64,1.69,1,2.35.68,1.37-.68C110,35.6,103.77,38.22,101.31,39.56Zm6.43,1.07a3.81,3.81,0,0,0-.82.09c-1.74.38-3.64,1.81-5.23,3.07a11.9,11.9,0,0,0-2,2.17c-.39.72.47,1.52,1.64.88a1.56,1.56,0,0,1,1.4-.2,13.78,13.78,0,0,0,5.91.94c.25.06.23.12.15.35a8.54,8.54,0,0,1-2.34,2.15c-.64.47-1.19.86-1.24.93-.19.31.66.34,1.59-.19a14,14,0,0,0,3.78-3.74,1.27,1.27,0,0,0,.25-.37c.09-.3-.47-.18-.77-.26-.12,0-.1-.36-.13-.51a5.81,5.81,0,0,1,.13-1.59c.06-.45.54-.8.86-1.13,1.4-1.45,1.29-2.11-.59-1a1.82,1.82,0,0,1-.87.32c-2.77.09-4.37,0-6.68,1.92-1,.83-1.64.91-.73,0,1.4-1.13,3.14-2.73,5.07-3.15,1.17-.29,2.28.6,2.79.37,0-.64-1-1.1-2.12-1.09Zm-.4,4a2.91,2.91,0,0,1,.6,1.65c0,.43-.77.25-.87,0l-.4-1.2C106.5,44.73,107,44.5,107.34,44.63Zm-1.41.25a4.79,4.79,0,0,1,.61,1.65c-.13.43-2.85-.15-3.19-.63a3.48,3.48,0,0,1,2.58-1Zm4.77,7.75A1,1,0,0,0,110,53a2.58,2.58,0,0,0,.65,4.08c.72.34,1.8.09,3.41-.4a7,7,0,0,1,1.46-.34.87.87,0,0,0,.52-1.41c-.5-.51-1.71-.44-3,.56a2.64,2.64,0,0,1-1.66.74c-1.29,0-1.92-1.34-.6-2.74.44-.47.29-.8-.06-.82Zm-9.07,9.18c1.52,1.23,4.43.59,6.38-.7,1.74-1.15,2.46-1.49,3.86-1.25,1.71.29,1.65-.38.91-1.22s-2.92-.67-4.66.48c-3.86,2.55-5.25,3-6.37,1.6s.23-3.38,1.64-2.35c1.16.79,1.15.2.67-.34-2.8-2.35-4.82,1.86-2.43,3.78ZM88.08,63a20.82,20.82,0,0,0,6.6,6l0,.46-9,0A64.12,64.12,0,0,0,88.08,63ZM57.45,69.44c-.19,3.71.47,5.89,2.65,8.48,2.32,2.76,2.14,7.06.65,9.71-.65,1.18-2-.27-1.36-1,.9-1.13,1-3.88.52-5.6-.95-2.84-3.11-4.24-4-7.24a18.37,18.37,0,0,1-.2-3.59Zm2.83.31c.16,0,.41.14.78.46,1.28,1.11,1.06,4.27-.4,6.3-.45.61-.82.44-1.25-.13s-.38-.63.11-1.63a6.88,6.88,0,0,0,.57-3.6C60,70.23,60.05,69.79,60.28,69.75Zm83,1.08c1.13,0,2.54.23,2.67.63s-.14.9-.77,1.17c-1.66.69-3.84-.28-3.29-1.47C142,71,142.58,70.84,143.25,70.83Zm-2.86.27a1.88,1.88,0,0,1,.78.17c.54.28-.31,2.18,2.38,2.14.65.1,1.12,0,1,.24s-1.29,1.09-2.54,1.28c-3.76.55-3.59.37-3.42,3a9.37,9.37,0,0,1-.24,3.36c-.41,1.82-.57,3.58-.29,3a14.54,14.54,0,0,0,1.29-4.6c0-2,.72-2.45,1-1,.12,1-.32,1.54.34,2.54.38.56.55.55.3,1.42a1.29,1.29,0,0,0,.2,1.39c.27.39.54.48.31,1A1.7,1.7,0,0,0,143,87.52c.52,0,.67.27.51.46a2.27,2.27,0,0,1-1.28.61L130.26,81s.89-1.77,1.15-2.24c1.71-3.75,3.07-5.46,8.08-7.42A2.54,2.54,0,0,1,140.39,71.1Zm6.34,2.47c.33,0,.57.16.85.51.73.94.09,2.11-1.71,3.12-1.54.88-2,1-2.32-.39a1.87,1.87,0,0,0-.41-.67c-.36-.33-.28-.6.17-.84a13.37,13.37,0,0,0,1.47-.76A4.62,4.62,0,0,1,146.73,73.57Zm-5.08,2.72a2.1,2.1,0,0,1,1,.28.86.86,0,0,1,0,1.4c-1,.39-2.47-.13-2.34-1C140.42,76.51,141,76.28,141.65,76.29Zm6.14,1a.87.87,0,0,1,.8.48c.57.86-.09,1.73-2,2.66-1.24.6-2.83.87-2.73.51a4.57,4.57,0,0,0-.56-1.93c-.07-.24,0,0,1.6-.52a8,8,0,0,0,1.57-.68A2.93,2.93,0,0,1,147.79,77.25ZM58.3,79.5a7.38,7.38,0,0,0-.59,5.23c.34,1.84.75,2.76,2.64,5.47,1.43,2.07,1.89,2.87,1.55,3.53-.25.35-.8.67-1.14.34-.7-.92-1.12-2-1.81-3-2.64-3.87-2.82-4.85-3.16-7.9-.15-1.4.65-4.37,1.34-4.81S58.54,79,58.3,79.5Zm61-1a6.35,6.35,0,0,0-1.54,2.39c.08.55.53.19,1.72-1.56C119.78,79,119.58,78.49,119.31,78.53Zm22.73,1c1.06,0,1.43,1,1,1.47a1.15,1.15,0,0,1-1.94-.83C141.06,79.69,141.26,79.47,142,79.48Zm5.86,1.34c.61,0,.69.63.36,1.5s-.88,1-2.33,1.4c-1.74.54-2,.46-2.29-1.13-.1-.62,0-.48,1.55-.91a15.82,15.82,0,0,0,1.92-.68A2.21,2.21,0,0,1,147.9,80.82Zm-102.73.72.43,3.22.7-2.41Zm97.08,1.08c.85,0,1.31.77.88,1.23A1.17,1.17,0,0,1,142,84C141.29,83.47,141.42,82.62,142.25,82.62ZM116.1,84.31l1.67,1-13.55,21.35-1.63,0-.15-.34Zm30.75.2c1,0,1.09.93-.13,1.79a2.94,2.94,0,0,1-1.48.42c-.6,0-1-.13-1.06-.55-.26-1-.41-1.27.52-1.21a2.89,2.89,0,0,0,1.1-.19A3.18,3.18,0,0,1,146.85,84.51Zm-4.14.94c.69,0,1.13.75.66,1.11s-1.28.18-1.28-.51C142.09,85.62,142.21,85.44,142.71,85.45ZM45.21,87l-3.68,3.25c1.35,1.6,2.48,3.19,3.65,4.87Zm74.54.2c1.6-.06,2.12.71,1.37,1.23a4,4,0,0,1-3.09.5c-1.55-.29-.31-1.53,1.38-1.7Zm-1.7,2.33a4.4,4.4,0,0,1,1.42.29c1,.35,2.35,1.45,2.29,2-.1,1-2,.48-3.45-.93C117.38,90,117.34,89.51,118.05,89.49Zm-1.41,0c.9.09,1.81,3.15,1.11,4.09s-1.91-1.06-1.69-2.62c.09-.62.24-1.43.49-1.46Zm-59.25.68c.51.12,1.16.82,1,1.36-.1.21-.31.15-.55.09a1.23,1.23,0,0,1-.66-1.24C57.24,90.26,57.29,90.18,57.39,90.18Zm68.75.52,2.66,1.81-2.66.1Zm-11,3.65c2,0,2.47.67,1,1.48a5,5,0,0,1-3,.12C111.8,95.51,113.32,94.34,115.1,94.35Zm16.54,1.38.14,1.85-5.14.45-.26-1.93Zm-17.75.92a3.68,3.68,0,0,1,1.67.52c1.39.72,2.19,1.92,1.47,2.3a2.56,2.56,0,0,1-2.64-.93C113.3,97.4,113.21,96.69,113.89,96.65Zm-1.74,0c.93.06,1.74,2.61,1.12,3.87-.33.69-.76.54-1.37-.6s-.62-3,.06-3.25Zm-66.75.72-2.24,4.5,4.06,3.54Zm86.87,3.47.36,1.78-4.93,1.21-.48-1.94Zm-21.51.35a2.33,2.33,0,0,1,1.48.44c.45.39.36.57-.71,1-1.88.77-4.21.3-2.86-.85A3.32,3.32,0,0,1,110.76,101.19Zm32-.11c-1.88,1.26-.07,2,1.27,1A2.14,2.14,0,0,0,142.76,101.08Zm-33.39,2.53c1.35,0,4,1.88,3.43,2.76-.31.49-2.08.08-2.78-.6-.92-.88-1.41-2.06-.9-2.15A1,1,0,0,1,109.37,103.61Zm-1.69.08c.69-.13,1.8,3.1,1,3.93-.31.31-.4.29-.93-.17a2.9,2.9,0,0,1-.24-3.6A.35.35,0,0,1,107.68,103.69Zm41.35,1.7a2,2,0,0,0-.67-.68C141.82,107.21,143.5,109.6,149,105.39Zm-15.5.23.65,1.8-5,2-.73-2ZM48.67,109,47,113.44a12.7,12.7,0,0,1,5.14,1.64Zm86.51,1.3,1,1.77-4.67,2.52-.93-1.87ZM26.77,113.78l1.91,1.35-2.81,3.48-.25-.49,0-2.89Zm111,1.1,1.12,1.62-4.49,3.12-1.1-1.77ZM31.59,117l2.06,1.58-3.26,3.93-2-1.5Zm22.7,1-.09,4.72,4.85.19Zm56.14,2.13,5.52,3.17-.84-4.84A46.55,46.55,0,0,0,110.43,120.07Zm30.31-1,1.29,1.59-4.15,3.48-1.33-1.66ZM35.8,120.48l1.92,1.78-3.39,3.65-1.78-1.67Zm108.49,2.59,1.49,1.51L142,128.51,140.51,127ZM40.17,125l1.49,1.74-3.87,3.07-1.44-1.74Zm22.31.41L63.56,130c-.07-.34,4.82-1.38,5.46-1Zm57,.39,4.63,4.87.52-4.69Zm28.59.77,1.68,1.3-3.11,4.41-1.89-1.48ZM43.5,129.5l1.38,2-4.06,2.42-1.15-1.76Zm109,.47.26.25v3.15l-1.28,1.89-1.76-1Zm-26.15,3.54,4.09,7.42,1.15-5.54a12,12,0,0,1-5.24-1.88Zm-79.58,1,1,2.14-4.28,2-1-2.13Zm2.31,5.11.79,2.14-4.56,1.51-.72-2.07ZM28.68,143.5l1.42,1C37.49,140.61,35.19,139.47,28.68,143.5ZM70.47,141c.28,0,.6.36.86,1.21.39,1.28.18,2.88-.69,2.86-.59-.07-.81-1.58-.81-2,0-1.29.28-2,.64-2.05Zm4,.77,1.76.19v.5l-14,22.22-1.7-1.08Zm-7.55.52a3.23,3.23,0,0,1,2.1,1.15,3.69,3.69,0,0,1,1,1.78c0,.22-.39.14-.75.08a4.21,4.21,0,0,1-2.74-1.56c-.54-1-.23-1.46.4-1.45Zm64.48.79,1.87,9.1c.58-2.28,1.81-3.59,2.71-5.38A12.92,12.92,0,0,1,131.45,143.11ZM50.87,145l.43,2.35-4.72,1.09-.49-2.28Zm17.62.81h.19c1.73.19,2,.58.82,1.36-.71.47-2.61.53-2.93,0s.91-1.39,1.92-1.4Zm-34.28,1.39,1.46.85C38.18,146.19,35.44,145.83,34.21,147.15Zm31.79.79c.53,0,.85.95,1,1.81a2.66,2.66,0,0,1-.08,2c-.4.52-.78.61-1.1.1C64.93,150.37,65,147.93,66,147.94Zm-3.89,1.37a2.42,2.42,0,0,1,.92.19c1.22.46,2.85,2.33,2.16,2.59-1,.38-3.23-.73-3.65-1.85-.21-.57,0-.92.57-.93ZM52,150.82l.11,2.32-5,.2L47,151Zm12.17,2a3.35,3.35,0,0,1,1.37.22c.71.31.2.87-1,1.29a3.16,3.16,0,0,1-2.35,0C61.21,153.57,62.7,152.82,64.17,152.77Zm-38.47.28c3.41,2.06,10.46,6.65,10.46,6.65a2.92,2.92,0,0,0-1,.58,3.13,3.13,0,0,1-.77.5,5.19,5.19,0,0,1-1,.25c-2.19.47-3.27,1.71-2.58,3.25.27.61.34.51-.13,1-1.31,1.25-1.15,1.62-.68,3.21,0,.23-1.56,2.14-.18,3.59.77.66.8.25.53,1.76-.1.91.15,1.65,1.47,1.91.74.34.73.22.47.85a1.22,1.22,0,0,0,.7,1.59c.58.36.81.45.4.77-4.41,2.25-5.77,6.18-1.61,12,.5.69,1.73,2.61,1.73,2.61-1.4,2.08-2.74,3.79-4.18,5.65L33.45,205a43.44,43.44,0,0,0-3.22,5.32c-1.46,3.18-.5,7.64,3.7,9a5.46,5.46,0,0,0,5.66-1.63,7.24,7.24,0,0,0,.77-7.11,28.64,28.64,0,0,0-3.62-5.79l4.46-5.59s-3.08-4.41-4.3-6c8.37-10.23,1.53-13.09.22-14-.21-.14-.16-.79-.16-.79,7.52-.86,10.09-5,12.3-10.2,4.48,2.88,10.9,6.76,15.4,9.79.44.4.72.65.65.87a9,9,0,0,0-.23,1.86c.21,1.36.11,2-.44,2.49s-.41.71-.33,1.24c.14.91.28,1-.13,1.47s-.67.83-.58,2.22a4.4,4.4,0,0,1-.05,1.92c-.28.63-1,1-2.06,1.73-1.76,1.38-1.52,1.81.91,6.81,2.07,4.27,2.31,5.25,1.51,6.76a7,7,0,0,0-.83,4.06c0,.46.06,1,.06,1.21,0,.59,0,.52-.34.89a12.89,12.89,0,0,0-1,1.26c-2.89,4.33-10.5,15.44-10.5,15.44H25.7Zm35.9,2c.3,0,.66.51,1.07,1.59a2.51,2.51,0,0,1-.17,2.13c-.76.83-1.81-1.12-1.48-2.66C61.17,155.43,61.36,155.07,61.6,155.06Zm71.9-1.17c0,3.94-.08,9.06-1.44,12.83l1.54.69c-.5-3.87.12-7,3.68-8.72a12.46,12.46,0,0,1-3.78-4.8Zm-75.73,2.48a1.46,1.46,0,0,1,.42.08,4.15,4.15,0,0,1,1.71.93c.73.74,1.48,1.64,1.29,1.72-1.21.53-4.28-1.09-3.87-2.35A.46.46,0,0,1,57.77,156.37Zm-5.38.17,0,1.93-3-1.89Zm67.85.93c.48,0,1.23.67,1.11,1.11s-.46.43-.79-.07S120,157.5,120.24,157.47ZM60,159.86c.72,0,1.34.14,1.41.51s-.55.82-1.23,1c-1.68.52-2.95.19-2.49-.64C58,160.2,59.11,159.88,60,159.86Zm58.83,2.19c-.71,1.28-.8,5.36.46,7,2,2.16,3.77,5,3.56,8.7l-1.88.84c.1-3.07,0-5.07-2.43-7.72-2.86-3.11-2.19-8.49-1.2-10.07S119.45,161.48,118.87,162.05Zm-82.42-1.7c.61,0,1.34.32,2.67,1.2,3.41,2.4,5.25,3.33,8.63,5.71.49.46.47.39.38.76a12.43,12.43,0,0,1-10.59,9.55c-.64.09-.31-.31-.7-1.09a2.1,2.1,0,0,0-2-1.15c-2.29,0-.33-1.3,2.47-1.67a5.24,5.24,0,0,0,2.63-.82c.13.06-.49-3.86.14-5.24.32-1.24,0-1.84-.33-1.07a13.08,13.08,0,0,0-.68,3c-.14,1.09-.37,1.24-.63.71a1.87,1.87,0,0,1,.07-1.26c.21-1-1.09-1.8-.82-2.74a1.68,1.68,0,0,0-.45-1.94,2.11,2.11,0,0,1-.18-1.23,2,2,0,0,0-1.36-2c-.39-.2-.27-.41.13-.61a1.33,1.33,0,0,1,.58-.16Zm-2.78,1.4a2.36,2.36,0,0,1,.65.08c.45.27.81,1.83.31,1.89a7.17,7.17,0,0,0-1.22.23c-1.52.44-2.24.38-2.21-.49S32.48,161.77,33.67,161.75Zm2,.16c.6,0,1.09.71.71,1.08a.69.69,0,0,1-1.14-.45c0-.3.14-.63.43-.63Zm.41,2.43a1.27,1.27,0,0,1,.57.12c.56.26.88,1.22.52,1.57a1.31,1.31,0,0,1-1.45-.18C35,165.22,35.36,164.37,36.1,164.34Zm-1.89.14c.35,0,.6.12.66.36s0,.39.06.68c.14.46.43.81.18,1-1.17-.07-3.59,1.39-4.29,1.32s-.66-.62-.15-1.49a5,5,0,0,1,3.54-1.87Zm.71,2.83c.25,0,.3.12.19.49a2.5,2.5,0,0,0,.17,1.3c.19.44.54.69.36.86s-1.3.29-2.14.6c-1.09.61-4.15,2.41-3.38-.48.25-1,1.37-1.64,3.33-2.32A8.54,8.54,0,0,1,34.92,167.31Zm1.6,0a1.25,1.25,0,0,1,1.25.78c.71,1.41-1.32,1.61-2,.44-.39-.7.11-1.17.72-1.22Zm.39,3.28c1.06,0,1.87,1.32,1.11,1.81a2.56,2.56,0,0,1-1.93.12c-1-.43-.52-1.94.82-1.93Zm101.15,0a77.54,77.54,0,0,0,14.77,5.47v52.14H116.6L106.68,211s-.33-.56-.44-.81a1.85,1.85,0,0,1,0-1.33,29.78,29.78,0,0,1,2.24-5.11c2.4-4.39,5.8-9.2,4-13.42-.21-.48,1.9-3.1,1.9-3.1,3.26.27,6-1.85,5-6.85,6.8-2.78,12.4-5,18.71-9.72ZM35,170.9c.09,0-.19,1.14.39,1.84.36.56.3.54-.92,1a6,6,0,0,0-1.17.85c-1.75,1.56-3.48-.48-1.79-2.11A6.28,6.28,0,0,1,35,170.92ZM118.12,172c.59.1,1.35.88,1.11,1.31a6.15,6.15,0,0,0-.94,3.55c-.08,1.6.19,1.83-.42,1.56-.4-.19-1.14-.51-1.31-.91C116.18,176.55,117.16,171.81,118.12,172Zm-83.65,4a2.12,2.12,0,0,1,1.71.69c.32.41.35.76,0,.93-.75.4-3.26.19-3.38-.32C32.63,176.5,33.52,176,34.47,176Zm37.92,1a25,25,0,0,1,9.39,1.87,17.74,17.74,0,0,1,8.16,6.84c.24.49-.25.49-.67.54A5.08,5.08,0,0,0,87,195.5a4,4,0,0,0,2.23.69c1-.09-4.44,10.33-6.61,16.83-6.7-.28-11.77.75-18.32-1.5-.7-1.17-.54-3.75,0-5.08s1.09-2.14.79-3.53c-.52-2.43-2.74-5.58-3.48-7.58-.65-1.53-.61-2.1.53-3a8.4,8.4,0,0,0,2-1.77c.35-.48.2-.59.21-1.69,0-1.32,0-1.12,1.07-1.31a8.74,8.74,0,0,0,2-.72,3.2,3.2,0,0,1,3.27-.26c.37.1.33-.28.49-.78a4.88,4.88,0,0,0,.21-.69c0-.22-.51-.16-1-.09a11.72,11.72,0,0,1-4.69.05c-.75-.28-.75-.79-.31-1.62a2.62,2.62,0,0,0,.51-2.3c-.2-1.95.07-2.36,1-3,1.14-.8,3.21-1.18,5.59-1.17Zm11.06,1.72h9.94A25.44,25.44,0,0,0,90.71,185c-.09.18-.19.36-.42.13A20.35,20.35,0,0,0,83.45,178.72Zm-8.24,7a10.45,10.45,0,0,0-4.55,1.67,5.06,5.06,0,0,1-3.65.93c-.77-.14-.87,0-1,.22-.45,1.12,1.23,2.33,2.93,1.54.49-.21,4.28-2.17,4.49-2.34a7.94,7.94,0,0,1,2.21-.64,1.83,1.83,0,0,1,1.87,2.14c-.2,1.51-2.35,1.59-2.49.24-.11-1-.55-.58-.59-.07a2.68,2.68,0,0,0,.69,1.66c1.82,1.13,4.22-1.08,3.07-3.35A3.1,3.1,0,0,0,75.21,185.71ZM67.05,191a29.11,29.11,0,0,1-3.37.83c-1.1.24-1,1.11-.33,1.56s1.19.14,3.11-1.08a1.63,1.63,0,0,1,2,2.57c-.95.81-.3,1,.35.53,1.67-1.24.71-4.88-1.76-4.41Zm5.84,6.41a1.56,1.56,0,0,0-.68.19A7.85,7.85,0,0,0,69,199.82c-.12.2,0,.53-.11.79s-.21.46-.18.6.43.25.49.37a5.39,5.39,0,0,1-.06,2.48c-.06.41-.67.53-.91.78-.8.81-.6,1,.25.74.59-.22.34-.63,1.81-.34a6.91,6.91,0,0,0,4.9-1c1.66-.92,2.26-1.43,2.32-1.32s0,.28-1.16,1.26c-3,2.46-5.17,3-6.83,2.11-.5-.34-.9-.48-.52.25a2.83,2.83,0,0,0,.73.51c1.71.77,3.85.12,6.58-2,.6-.47,1.13-1,1.82-1.58,2.26-1.89,1.67-2.75-.89-1.83-.8.29-1,0-2.12-.45a8.16,8.16,0,0,0-3.63-.65c-1.46,0-1.68.11-1.68-.13a4.14,4.14,0,0,1,2.1-1.9C73,198,73.32,197.43,72.89,197.4Zm2.69,4.67c.27.27-.12.45-1.17,1a9.57,9.57,0,0,1-1.23.52c-.09.17-1.09-2.08-.82-2.19A7.68,7.68,0,0,1,75.58,202.07Zm-3.83-.24a6.36,6.36,0,0,1,.52,1.54c0,.15.13.37-.11.36s-.49.05-.6-.13a4.29,4.29,0,0,1-.42-1.9C71.32,201.46,71.65,201.63,71.75,201.83Zm8.69,4a1.2,1.2,0,0,0-.51.22c-4.21,2.48-9.25,3.77-12.5,2.54-1.09-.41-1.29-.26-.89.48a2.72,2.72,0,0,0,1.65,1.36c2.65.73,6.92-.33,10.2-2.48,1.34-.88,2.44-2.13,2-2.12Zm24.76,6.64s8.16,15.29,8.88,16l-60.48-.26,10.19-14.39c.09.81,24.58,4.17,41.41-1.36Z" transform="translate(0.1 0.1)"/><path id="path4035-6-4-6" class="cls-3" d="M54,228.26l9.76-14.4c14.45,2.74,27.45,1.29,41.68-1.24l9.48,16Zm76.59-53.65-.07-8.54,3,1.11c-1-4,1.58-8.13,4-8.3-7.61-5.72-1.29-11.85-1.42-12-8.32-4.29-4.15-10.86-4.72-11.45-10.14-2.63-6.18-10.66-7-9.83-5.9,1.77-9.15-3.16-9.25-7.18-5.11,2.89-13-1.2-10.53-5.8,0,0,2.71,1.28,3.19,1,4.17-3,3.84,1.32,4.71,2.26,3.11-.45,4.94,1.93,5.72,3.08,4.58,0,4.4-1.09,4.44,3.35,3.45.88,3.31,2.74,5.32,5.29,4.35,0,3.62,1.46,2.63,3.87,3.14,2.49,3.4,4.45,3.92,6.71,3.42,1.24,4,1.75,1.8,4.63,3,4.52,1.57,7.14,2,7.39,3.77,2.71,1.88,3.7.24,4.74.57,3.61,1,4.14-.3,7.81,4.33,3.07-.69,4.45-.95,4.39v3ZM25.64,152.33l-.09-10.59,36.74,23.69-4.65,7.27Zm48.8,15.59,8.68-18.15L80,130l24.89.54c2.8,6.35,4.48,11.74,11.65,22.25L109,155.13l.26,12.72Zm21.28-4.77a2.19,2.19,0,0,1-.34-1.12c.09-.3.32-.29.62-.13,1,.52,2.11,1,2.89,0a1.39,1.39,0,0,0,0-1.65c-.6-1.21-2.47-.34-3.11-.29s-.81-.48-.33-1.18a1.82,1.82,0,0,0,.52-1c.33-2.77-4.41-1.79-2.77.9.75,1,.32,1.6-.78,1A1.8,1.8,0,0,0,89.55,161a1.67,1.67,0,0,0,2.6,1.12c.27-.15.48-.32.67-.4.54-.24.93,0,.75.56-.48.77-1,1.86-.58,2.59a1.62,1.62,0,1,0,2.73-1.73Zm57.41-55.62-36.8-23.8A51.71,51.71,0,0,0,121.22,76l31.95,20.51Zm-57.55-8,3.77,19.22-25.69.36C72.25,112.62,63.42,98,63.44,98.27L70.3,81.46l34.1,0Zm-9.64-7.16c.65-.59.61-1.5-.11-2.53s-.38-1.7.73-1a2.91,2.91,0,0,0,2.26.29,1.51,1.51,0,0,0,1.06-1.8c-.15-1-1.28-1.3-2.5-.86-.35.08-.56.36-.86.5-.66.29-.92-.5-.32-1.52A1.57,1.57,0,0,0,85,82.94a1.55,1.55,0,0,0-1.55,2.18c.76,1.16.21,2-.89,1.2-1.57-1.13-3.63.3-2.77,2,.41.81,1.76,1,3,.51,1-.43,1.32.07.7,1.1-1.26,2.13.81,4,2.52,2.44ZM48.66,73.46,48.39,83.7c-3.85-2.35-3.28-2.37-3.42-2.34a7.35,7.35,0,0,1-3.45,8.75c5.88,5.5,2.7,9.37,1.74,12A8.51,8.51,0,0,1,47,113.57c7.4,0,7.25,6.5,7.46,9.2,9.16-.58,7.93,6.72,9.14,7.35,4.43-2,9.61-1.3,11,4.65.89,3.37-2.37.12-3.8.26-5,3.14-4.08-1.65-4.37-2.32-4.19.4-4.75-1.6-6.59-3-4.52.87-4.15-.62-3.88-3.36-3.55-.72-4.32-2.93-5.74-5.09-4.9.15-2.9-3.3-2.88-4-.6-.53-3.41-3.3-3.55-6.46-5-1.42-1.87-4-1.69-4.82-1.9-2.37-2.4-4.11-1.77-7.1-4.46-2.08-.73-4-.42-5.21-1.45-3.89-.39-5.05.18-7.15-2.87-3.36-1.15-3.18,1-5.22.27-.37-.47-2-.43-3Zm25.81-38L66.41,21.11H124s-6.26,8.66-8.69,13C100.91,31.87,87.48,32.94,74.47,35.5Z" transform="translate(0.1 0.1)"/><path id="path4039-1-1-4" class="cls-4" d="M34.31,218.91c-5.05-1.14-5.91-7.47-1.17-12.74a4.17,4.17,0,0,0,.64-1.08c-1.63-2.53-2.39-3.41-4.06-5.92,1.47-2.23,3.2-3.92,4.31-5.85-.07-.34-.56-.67-1.15-1.54-3.42-5-3.79-7-2.06-10a4.93,4.93,0,0,1,7.9-.66c2.56,2.68,2.44,5.11-.89,10.06-.73,1.08-1.26,2.07-1.26,2.07.92,1.85,2.49,3.57,4.08,5.89a54.55,54.55,0,0,0-4.28,5.64,2.23,2.23,0,0,0,.42.77c5.29,6,4.87,12.85-1.11,13.43A7,7,0,0,1,34.31,218.91Zm42.53-76.3c-.14-.23-19,30.28-19,30.28L60,174.27,78,146.07c.27.21.53.45.48.8,0,0-14.88,24.2-17.36,28.07A37.81,37.81,0,0,0,65,177.27c5.54-2.72,28.62-.37,44-1.3.06,0-.23,5.37-.23,5.37s-3.5-4-4.2-4.06c-3.49-.12-7.15,1.36-9.78,1.19-1.68.52-3.59,6.62-4,8.14-3-.35-6,2.84-5.29,5.8,1,3.3,2.71,3.05,4.56,3.1-.17,3.74-6.77,13.57-6.8,18.42,7-.55,14.54-.68,21.74-2.85a69.13,69.13,0,0,1,6.12-12.88,10.46,10.46,0,0,0,1.21-6.75c-.29-2,.59-2.54,1.37-4,.47-.88,2.23-.85,2.46-.91,4.58-1.33,2.94-7.24,1-8.29-2.43-1.31-5.87.72-7.19-1.94-1.39-2.81-.94-8.63-.94-8.63l-34.59.16s9.77-18.53,9.53-18.67c-2.68-1.46-7-6.55-7.07-6.6ZM53.7,159.48c.17-1.88.47-32.33-28.37-47.47l.15-4c.18-.21,26.23,11.73,30.7,42.75l8-12.57,3,1.16c-4.37,6.55-13.06,22.46-13.48,20.13Zm-17.51-11c1.19-3.52-.76-1.65-2.53-1.8-1.22-.66-2.41-1.51-3.54-2.25,8.43-4.46,3.41-4.24-1.5-1.11-1.27-.69-2.88-2.2-3-2.07,9.51-6.11,5.94-6.23-.15-1.81.21-4.14.07-2.59.15-4,5.18-5.55.35-2.54,0-2.47-1.28-5.53,4.83-4.38,5.39-.19,1.07.8,3.19,1.78,3.81,5.22,2.93,1.86,2.62,3.4,2.49,5.64,1.15,1.13,4.11,3.52.65,5.72ZM25.26,123.25l.19-3.06c.4-1.25,22.64,14.59,21,34.93.27-.14-2.46-1.42-3.24-2.12C43.25,138,27.33,124.87,25.26,123.25Zm127.55,17.18c-14.84-6.79-28.93-23.05-29.67-44.21l-8.38,14-3-1.25c.28.23,6.63-11.54,13.17-19.67,1.84,26.69,12.33,39.1,28.22,48.12ZM75.1,130.67c-14.38-1.78-35.17-21.32-29-47.8C47,80.18,60.89,95.08,60.89,95.08,61,94.4,73.37,114.32,73,118.21c10.45,3,30.86.15,30.86.15,17,3.79,34.71,22,28.31,48a76.84,76.84,0,0,1-8.29-6.4c-11.45-11-15.08-20.12-19.14-30.14-14.66-1.32-28.41,1.3-29.66.83ZM153,108.61a32.72,32.72,0,0,1,.13,4c-3.82,4.15-4.21,4.23.58,2.89-.6,4-3.55,4.64-5.3,3.28-.65-.49-.65-3.24-.65-3.24-2.91-.73-3.91-1.6-3.49-4.72-3.35-.39-3.22-2-2.94-5.41-3.05-1.71-2.29-4.44-.49-5.6l1.51,1c-.48.43-.25,3.13,2.42,1.12,0,0,2.14,1.77,3.16,2.46-7.72,5-3,3.86,1.72.61.89.61,2.11,1.6,2.75,2C146.08,111.61,144,115.36,153,108.61Zm.37,16.86-.25,3.58c-15.26-9.32-19.39-21.6-20.52-34.68,0,0,2,1.5,3,2.12,1.36,16.88,16.85,28.28,17.79,29ZM69.75,81.18l36.58.24-9.7,18.51,5.12,6s12.71-19.76,19.1-30.11l-2.21-1.32-18.24,28.6-.73-.8,18-28.58c-1.07-.71-3.12-1.84-3.12-1.84s-31.15.5-44.69.45a33.75,33.75,0,0,0,.53-5.17c2,2.86,4.14,5.41,8.8,2.6,0,0,5.5.19,5.7-.08a72.34,72.34,0,0,0,3.26-8.37c5.32-.35,4.79-2.91,5.39-3.75-.41-7.54-4.64-3.48-4.28-6.22,1.2-4.88,7.32-15.93,6.55-16.9-1.58-1-17.23,2-21.78,2.59-.42-.16-2.65,7.09-5,10.19-2.55,3.37-3.46,7-2.16,10.4-1.35,3.75-3.94,3.37-6,4.43-2.36,2.55-1.71,6.45.54,8,1.56,1,4,1,6.41-1ZM142.44,55l-4.28-5.74,4.15-6c-1.64-2.59-4.34-6.56-3.85-9.7,1-6.24,9.48-5.32,10.21.64.4,2.77-1.62,6.16-3.67,9.05,1.35,2.47,1.94,2.87,3.91,5.7-1.18,2.06-4,6.09-4,6.09,1.78,3,4.25,6.28,4.08,9.31-.19,2.61-3,5.25-5.7,4.7C135,67.28,139.62,58.46,142.44,55Z" transform="translate(0.1 0.1)"/><g id="g4049-4-4-2"><path id="path4033-2-3-3" d="M65.05,20.45c2.26,4.26,8.71,15.73,8.71,15.73,15.32-3.17,28.21-4,41.75-1l9.67-14.64Zm2,.87h2.77l5.44,11.16,9.37-1.87L83,21.34l2.65,0L87,30.27l13.77-.35,1.79-8.6,2.54,0-1.82,8.74,10.9,1.47,5.34-10.24h3.67L115.09,34A96.37,96.37,0,0,0,74.31,35Zm5.23,0h8.09l1.94,7.53a18.38,18.38,0,0,1-6,1.28C74.87,27.54,73.34,23.79,72.27,21.32Zm15.6,0h12.3l-1,6.41-10.32.33Zm19.51,0h9.48l-3.74,7.79-7.16-1Zm36.11,7.79a7.38,7.38,0,0,0-1.54.15c-2.46.51-3.75,2.4-3.77,5.48,0,1.41,1,3.91,2.62,6.26a22.15,22.15,0,0,1,1.29,2.22L138,49.27,142.35,55s-.68.8-1.09,1.38c-2,2.84-2.95,5.5-2.82,7.68a5.46,5.46,0,0,0,4.1,5,5.26,5.26,0,0,0,4.78-1.33A5,5,0,0,0,149,63.94c0-2.15-1-4.77-3.09-7.62a8.11,8.11,0,0,1-.84-1.38s2.91-4.14,4-6l-4-5.71c3.16-4.74,3.8-5.79,3.89-8.71A5.46,5.46,0,0,0,143.49,29.11Zm-.4.35h.41c3.61.28,5.52,3,5,6.4-.49,3.28-3.45,6.34-3.93,7.4a67,67,0,0,0,4.12,5.59c-1.14,2.07-4.09,6.08-4.09,6.08a6,6,0,0,0,.36.6c3.07,4.34,3.92,6.4,3.71,9a4.83,4.83,0,0,1-3.82,4.26,5.22,5.22,0,0,1-6.18-4.75c-.19-2.69,1.54-5.31,2.89-7.35.58-.85,1.07-1.67,1.07-1.67l-4.38-5.73c1.34-2.11,3-4.18,4.26-6l-1.26-2c-2.4-3.78-3.07-5.72-2.7-7.81A4.7,4.7,0,0,1,143.09,29.46Zm.33,1.94a3.56,3.56,0,0,0-3.12,2.44c-.74,2.66,2.07,6.7,3.35,7.78,2.4-2.75,3.92-5.83,3-8A3.7,3.7,0,0,0,143.42,31.4Zm.33.86c2.42.05,3.32,2.92,1.45,6.18a19.61,19.61,0,0,1-1.59,2.28s-.89-1.1-1.42-1.94c-2.16-3.38-1.61-6,1.05-6.48A3,3,0,0,1,143.75,32.26ZM95.59,33.75a111.64,111.64,0,0,0-22.24,2.78,28.65,28.65,0,0,1-4.83,11.14c-2.11,3.43-2.87,6.42-2.16,8.47s-1.14,4.77-3.12,5a4.11,4.11,0,0,0-4,4.36c-.07,3.89,2.62,6.28,6.27,5a.79.79,0,0,1,.61.2l-.21,22.27a15,15,0,0,0-5.18,1.7,56,56,0,0,0-8.45-8.15c-.07-5,.13-9.94-.09-14.89A59.72,59.72,0,0,0,41.4,77.41c-1.08.72-1.19,1.12-.78,3,.23,1,.17,1.14-.68,1.34-1.74.43-2.29,3.2-.81,4.14.69.44.69.46.25,1.47a8.05,8.05,0,0,0,0,5.75c.4.71.38.94-.16,1.29-1.86,1.2-1.73,3.79.21,4.27.49.12.62.33.46.76-.61,1.56-.06,3.93,1.34,5.73.72.94.72.93.24,1.36a2.43,2.43,0,0,0,1.41,4.21c.73.09.74.1.82.65a8.84,8.84,0,0,0,.71,2.81,6.17,6.17,0,0,0,2,2.37c.83.64.83.65.39,1.59-.81,1.74.48,3.47,2.54,3.4,1,0,1,0,1.12.33a6.29,6.29,0,0,0,4.32,4.26c.91.15,1.06.36.75,1.14a1.86,1.86,0,0,0,1.08,2.69,2,2,0,0,0,2,.13c1-.36,1.06-.35,1.95.84A4.27,4.27,0,0,0,64.81,133c1.38,0,1.43.05,1.44,1a2.27,2.27,0,0,0,4,1.59c.56-.61.56-.6,1.07-.24,2.21,1.62,4.17,2,4,.53a9.58,9.58,0,0,0-3-5.7l3.21.83c.14,3.74.28,8.25,1.06,11.37l-14.3,22.72s-.87-.53-1.78-1.16c-1.35-.92-3-2-4-2.64a15.42,15.42,0,0,1-1.7-1.15c-.49-.42.31-1,.48-1.4,3.29-5.87,8.45-12.92,12.2-19.77l-3.63-1.4c-2.78,4.36-4.83,7.87-7.41,11.9-2.58-18.86-15.76-35.41-31.72-42.38l.06,4.93a51.88,51.88,0,0,1,28.38,47A19.37,19.37,0,0,1,50,157.14c-1-.64-2.87-1.89-3.1-2,.77-23-22.13-36.67-22.17-36,0,0-.15,3-.21,4.36,9.76,6.53,17.43,18.4,18.2,29,0,.09-4.58-2.85-4.58-2.85a3.29,3.29,0,0,0,0-5.83c-.61-.28-.65-.41-.34-1.24.63-1.7-.53-4.26-2.12-4.69-.69-.19-.81-.38-.84-1.35A3.31,3.31,0,0,0,32,133.11c-.49-.1-.49-.11-.52-.72-.15-3.46-3.54-4.87-6.08-2.53a4.05,4.05,0,0,0-.59.76l0,3.75c.87-.48,2.19-2.11,2.73-2s.31.47-1,1.63c-.88.75-1.72,1.54-1.72,1.54l.05,4.94c1.45-.94,2.9-2,4.26-2.94,1.17-.81,1.77-1.08,1.91-.84s-.1.61-.76,1c-1.79,1.19-3.86,2.58-5.36,3.75v3.4l.29.42.09,3-.27.07V152L60.2,174.49l17.92-28.22.3.3-17.93,28.1a9.8,9.8,0,0,0,1.43,1c.72.39,1.6.92,2.37,1.43a1.89,1.89,0,0,0,1.66,1c.61-.67,3.31-1.39,3.56-1.7,10-.14,38.82,0,38.82,0l.16,4.6c-1.29-4.46-5.46-5.38-8.74-3.38H94.36s-3.19,5.72-3.65,8.71c-2.27-.31-5.28,1.89-5.43,4.13-.37,3.18,1.73,5.49,4.46,5a15,15,0,0,1-2,5.6,84.35,84.35,0,0,0-4.37,10.42c-.85,2.31-.56,2.72-.42,2.78,8-.12,15.43-.89,23.06-3.35,0,0-.14-.54-.21-.85-.27-1.23.77-3.75,3.7-9,2.27-4,2.91-5.56,3.14-7.46a7.42,7.42,0,0,0-.24-3c0-.17-.15-.41-.12-.59a9.31,9.31,0,0,1,2.13-3.28s.66-.12.93-.15c4.16-.29,5.44-5.93,1.94-8.47a4.91,4.91,0,0,0-4.53-.65l0-21.86,2.52.1,2.78-1.37c4.46,3.8,7.37,7.69,12.17,10.61l-.07.2-3.57-2.44v14.32a66.35,66.35,0,0,0,11.69-7.13l-.75-.65,0-2c3.49.27,3.83-4.16,1-4.69a4.23,4.23,0,0,1,.34-.92,6.63,6.63,0,0,0,.35-5.37c-.39-1.15-.37-1.43.09-1.43,2.12,0,1.93-3.74-.24-4.57-.74-.28-.69,0-.54-2.37a5.59,5.59,0,0,0-1.61-4.47c-.48-.58-.44-.86.19-1.25,1.81-1.1.5-4.28-1.73-4.19-.87,0-.87,0-.94-.83a6.94,6.94,0,0,0-3.15-5.37c-.52-.28-.59-.51-.3-.9,1.42-1.9.09-4.5-1.92-3.74l-.91.33c-.16.05-.28-.17-.59-1-.84-2.35-1.58-3.08-4.24-4.2-.52-.22-.55-.37-.32-1.44.41-1.85-2.14-3.57-3.51-2.37-.56.48-.58.48-1.21-.33a8.37,8.37,0,0,0-5.13-2.64c-.87-.08-1-.14-.93-.48a2.23,2.23,0,0,0-3.56-2.38c-.88.66-1.1.68-2,.17-1.9-1.06-2.73-1.1-2.93-.14a6.77,6.77,0,0,0,.31,2.34,5.83,5.83,0,0,0,2.37,3.29s-2.17-.6-2.72-.71c0-.06-.16-7.54-1.59-11.78L116,83.79,124,89l-12.76,20.13,3.71,1.51s5-8.22,7.56-12.25c1.7,20,17.2,37.56,31.24,42.76-.05,0,0-2.87.11-4.28-14.82-6.51-28.91-24.7-28-46.53l6,3.8c1.72,17.5,9.36,27.75,22.09,36.42v-5.36c-8.77-6.47-16.05-14.93-18-28.47,0,0,3,1.88,4.3,2.77a5.61,5.61,0,0,0-.57.37c-1.59,1.32-1.11,4,1,5.57.34.25.34.25,0,1.1a3.22,3.22,0,0,0,2,4.17c1,.24,1,.23,1,1.32,0,2.11.89,3.08,3.15,3.58.3.07.32.1.31,1a3,3,0,0,0,4.19,2.92,25.52,25.52,0,0,0,2.53-1.91V114s-.87.71-1.5,1.29c-1.1,1-1.45,1.16-1.45.53,0-.45.51-1,1.57-1.83a14.91,14.91,0,0,0,1.38-1.28V108.3a3.38,3.38,0,0,1-.46-1.71,11.67,11.67,0,0,1,.16-1.28H154v-5.06l-.64-.5,0-3.35L118.55,73.92l-18.14,28.79-.46-.53,18.16-28.61-4.82-3.07-2.91,1.43s-20.16-.32-39.83-.07c0,0,0-.54,0-2.07,0-1.92.09-2.19.45-1.38A5.09,5.09,0,0,0,76,71.22a4.84,4.84,0,0,0,2.91-.89c.54-.28.64-.29,3.16-.27,2.7,0,3.19-.08,3.19-.66a56.58,56.58,0,0,0,2.41-6.47c.25-.91.37-1.31.58-1.49s.29-.11.69-.14a4.09,4.09,0,0,0,3.45-1.43c2.5-2.51,1.07-7.6-2.55-7.62-1,0-.3-2.55,1.72-6.68a67.65,67.65,0,0,0,3.48-7.79,18.43,18.43,0,0,0,1.13-4ZM95.4,35c.5.42-.75,3.5-3,8.17a50.72,50.72,0,0,0-3.09,7.18c-.11.4-.28,1-.36,1.29a1.55,1.55,0,0,1-.71.94c-.31.22-.73.54-1,.71-.61.49-.75.34-.6-.65a25.44,25.44,0,0,1,2.68-7.22A75.49,75.49,0,0,0,93,36.79c.23-.7.33-1.41.71-1.66A2.38,2.38,0,0,1,95.4,35Zm-2.72.18c.35.24-1.29,4.46-4.12,10.33C85,52.81,84.83,57.94,88,59.19c2.51,1,5-1.77,3.49-3.78a1.79,1.79,0,0,0-2.9,0c-.31.54.11,1.17.65.41.78-1.12,2.35.17,2,1.49a2.35,2.35,0,0,1-2.32,1.48c-3.47-.69-2.82-5.58.79-5.85,3.44-.26,5,4.36,2.51,7a4.11,4.11,0,0,1-3.34,1.28c-2.25,0-4.35-1.86-4.14-3.57a6.65,6.65,0,0,0-.19-4.08,2.85,2.85,0,0,1-.36-1.29c0-1.39,1.17-3.55,3.73-8.88a49.67,49.67,0,0,0,2.6-7.32c.2-.61.1-.78.33-.87A2.86,2.86,0,0,1,92.68,35.17Zm-3,.07c.53,0-.68,3.87-2.2,7.15-1.16,2.51-2.74,5.74-3.91,8.72-.38.63-.63.68-1.4.27s-.6-1.17,1.4-5.15a61.72,61.72,0,0,0,4-9.86,1.35,1.35,0,0,1,.57-1,3.36,3.36,0,0,1,1.56-.16Zm-2.81.43c.28.37-1.56,5.56-4.39,11.41-.61,1.24-1,2.38-1.63,3.65a6,6,0,0,1-2,.56c-.59-.08,0-1.17,1.62-4.52C81.89,44,82.27,43.27,83,41.6c.52-1.21,1.27-3.3,2-5.25.06-.16.11-.51.26-.59A2.26,2.26,0,0,1,86.91,35.67ZM84.14,36a1.76,1.76,0,0,1-.1.58,42.75,42.75,0,0,1-2.21,6c-.09.27-.91,2-1.82,3.77s-1.74,3.53-1.85,3.83-.41,1.11-.67,1.79c-1.63,3.49.12,6.25,2.28,6.44,3.38.28,3.7-4.44,1.32-4.89a1.5,1.5,0,0,0-1.89,1.37c-.07.54.6,1.16.59.39,0-1.41,1.93-1.34,2.17-.15.48,2.33-2.17,3.46-3.75,1.64a2.76,2.76,0,0,1-.53-2.38,3.1,3.1,0,0,1,5-2,4.27,4.27,0,0,1-1.94,7.68,4.45,4.45,0,0,1-4.11-1.19,5.23,5.23,0,0,1-1.29-3,8.9,8.9,0,0,1,0-2.31c.32-2.45,2.1-6,3.67-9,1.21-2.51,2.16-5.82,3.26-8.48.31-.23,2-.44,1.93-.08Zm-3,.33c.18.06-.74,3-2,6.08s-3.33,6.79-4.39,9.91c-.33.77-.58.75-1.53-.14-.5-.47-.22-1.16,1.54-4.76a76.56,76.56,0,0,0,4.13-9.2c.19-.62.34-1.38.75-1.62a2.23,2.23,0,0,1,1.55-.27Zm-2.71.7A52.8,52.8,0,0,1,75.62,44c-1,2.06-2,4.35-3,6.48-.56,1.31-.58,1.31-1.52,1.51-1.6.33-1.6.31-.19-2.55.42-.85,1.23-2.41,1.79-3.46A55.57,55.57,0,0,0,76,38.34a3.27,3.27,0,0,1,.64-1.24C76.77,37,78,36.64,78.45,37ZM75,37.37a.79.79,0,0,1,.66.2c.07.65-1.69,4.8-2.77,6.73-.33.58-.65,1.35-1,2a37.05,37.05,0,0,0-3.46,8.13c-.68,2.76,2.49,4.86,4.14,2.84,1-1.21,0-3.41-1.55-2.79-.52.21-.31.44.41.5,1.18.1,1.27,1.92,0,2.33a1.94,1.94,0,0,1-2.42-2,2.73,2.73,0,0,1,4.53-2.08c1.73,1.44,2,4.87-.62,6.19S67.17,59,66.53,55.9c-.48-2.34,0-4.49,2.3-8.1A45,45,0,0,0,73.18,39a4.82,4.82,0,0,1,.57-1.2A2.1,2.1,0,0,1,75,37.37Zm68.67,7.38-3.44,4.36c1,1.44,3.35,4.25,3.35,4.25l3.27-4.2Zm0,2.44L145.09,49,143.46,51l-1.53-1.79Zm.13,9.49s-4.16,4.55-3.2,7.93c.85,3,5.38,3.73,6.49-.67a6.24,6.24,0,0,0,0-1.41C147,60.74,143.79,56.68,143.79,56.68Zm0,.9s1.2,1.73,2,3.26,1.19,5.53-2.16,5.4c-1.81.19-3.54-2.2-2.1-5.12A39.67,39.67,0,0,1,143.79,57.58Zm-68.65.73c.23,0,.46.46.6.83a3.87,3.87,0,0,1-1,2.61,20.59,20.59,0,0,0-2,.76,8,8,0,0,1,.53-2.21c.77-.76,1.43-1.67,1.74-1.94A.19.19,0,0,1,75.14,58.31Zm-8.29.26c.51.57,1,1.08,1,1.43,0,.53-.65,1.17-1.11,1.63S65,61.87,65,61.12A10.25,10.25,0,0,1,66.85,58.57Zm17.6.75a2.74,2.74,0,0,1,1.06,1.57,33.63,33.63,0,0,1-3.31,8.46,5.14,5.14,0,0,1-2.34-.06A29.94,29.94,0,0,0,83.69,61C84,59.89,84.2,59.32,84.45,59.32Zm-1.52.54c.28,0,.38.21.15.81C82,65,79.64,69.5,77.77,70.32a4.57,4.57,0,0,1-6-1.67c-1.14-2-.94-5.15,2.85-5.84,2.23-.23,4.52,1.52,3.33,4.34-1.33,2.09-4.89.93-3.84-1.77.78-1,2.44-.13,1.9,1-.28.56,0,.91.39.52,1.3-1.26-.83-3.43-2.27-2.34-2.35,1.76.55,5.65,3.28,4,.83-.51,2.34-3.36,2.91-5.43a4.68,4.68,0,0,1,1-2.28A3.33,3.33,0,0,1,82.93,59.86ZM76.71,60a1.61,1.61,0,0,1,.5.18c.28.14.6.38.56.7a2.87,2.87,0,0,1-.67,1.55c-.26-.09-1-.37-1.44-.5-.3-.08.1-.73.29-1.08.29-.58.46-.82.7-.84ZM69,60.18c.35,0,.91.39,1.28.44.08.53-.61,1.68-1.71,3-.91,1.1-.91,1.1-1.51-.11-.4-.8-.41-.77.71-2.17.61-.75.9-1.09,1.16-1.18Zm3.52.39a5,5,0,0,1-.25,1.28C71,65.6,68,69.31,65.61,70.23c-3.16,1-6.06-.64-6.13-4.47.08-4.51,5.46-5.76,7.09-1.65.74,1.86-1.27,4.66-3,4.19s-2.47-3.19-1-3.86a1.18,1.18,0,0,1,1.71,1.3c-.07.34,0,.39.15.35.9-.17.43-2-.63-2.41-2-.85-3.52,1.84-2.17,3.85,1.62,2.4,4.16,1.94,5.63-1a8.94,8.94,0,0,1,1-1.61,14.51,14.51,0,0,0,2-2.78,12.08,12.08,0,0,1,.88-1.47A5.1,5.1,0,0,0,72.48,60.57Zm7.09.2c.38,0,.67.25.67.77a10.7,10.7,0,0,1-.93,2.74c-.12.17-.38.76-.42.63A7,7,0,0,0,77.77,63c-.11-.38.22-.75.37-1.09A1.73,1.73,0,0,1,79.57,60.77Zm6.69.58c.46,0,1.11.21,1.24.55.42.73-2.41,7.56-2.52,7.58l-2.11-.09a67.35,67.35,0,0,0,3.21-8Zm28.36,10.81,2.69,1.59-17.72,28.1-2.57-2Zm-44.21.58c16.55.06,39.35,0,39.35,0l-1,1.82s-24.9-.24-38.39-.21ZM48.07,73.89l0,9.23a65.1,65.1,0,0,0-6.92-4.7S45.58,75.44,48.07,73.89Zm70.87.91,1.66,1L102,105.43l-1-2Zm-48.52.42H73v2.92H70.42Zm5.93,0H79.5v2.92H76.35Zm6.88,0h3.23v2.92H83.23Zm6.74,0h3.27v2.92H90Zm6.8,0H100V78.2H96.77Zm6.8.06h3.3V77.4l-.5.86h-2.8Zm17.79,1,31.58,20.39,0,2.81-32.87-21.2Zm-2.07,2.39.27.19-1.34,2-.27-.15ZM70.51,79H106l-1.06,1.79-34.38,0Zm-29.1.91a3.92,3.92,0,0,1,1.43.6c1.74,1,2.84,3,2.08,3.78s-2.24-.76-3.21-2.78C41.19,80.42,41.06,79.91,41.41,79.89Zm62.72,1.77L92.69,99.9c-2.58-3.54-5.48-6.59-11.81-4.53-3.3-2.54-6.79-2.93-10.5-.77l0-12.88Zm-58.87,0,.89.77a10.18,10.18,0,0,0-.55,1.88,10.41,10.41,0,0,0-.34-2.65Zm72.49.19L153,105v2.14L116.52,83.69Zm-77.16.53a1.55,1.55,0,0,1,1.23.59,1.66,1.66,0,0,1-.43,2.31A1.56,1.56,0,0,1,39.29,83,1.79,1.79,0,0,1,40.59,82.38Zm5.83.27,1.92,1.54c-3.34,19,6.2,38.19,26.75,43.94l.24,2.44c0,.11-8.73-2.6-12.56-5.46a39.66,39.66,0,0,1-12.72-14.3,41.8,41.8,0,0,1-4-11.17A47.55,47.55,0,0,1,46.42,82.65Zm-2.18,2.58c.73,0,.81.56.22,1.58a7.18,7.18,0,0,1-3.75,3c-1,.43-1.29.24-1.17-.85.18-1.63,1.31-2.83,3.28-3.46a5.64,5.64,0,0,1,1.42-.27Zm5.66.21.76.64a1.6,1.6,0,1,0,2.1,1.79c.29.24.56.47.77.66a2.52,2.52,0,1,1-3.63-3.09Zm1.28,1.26a1.09,1.09,0,0,1,.26,0l.55.47a.86.86,0,0,1,.09.39.9.9,0,1,1-.9-.9Zm-6.06.58a68.18,68.18,0,0,0-.07,7.58,6.89,6.89,0,0,0-3.29-4.6,14.81,14.81,0,0,0,3.36-3Zm9.26,1.92,1.71,1.48c-1.47,20.12,16.2,27.75,16.67,27.42l.75,2.27c-12.2-4.14-20.64-16.73-19.13-31.17Zm98.41,48.24L152.7,140c-13.84-5.36-29.62-25.14-29.42-44.09-3.55,5.44-5.55,9.07-8.6,14l-2.43-1.16c4-5.94,7.79-12.29,11.8-18.12.45-.66.83-1,.85.48,0,6.52,2,33.34,27.89,46.39ZM40.23,90.78a3.29,3.29,0,0,1,1.88.72c1.27.85,2.69,3.46,2.2,4s-2.32-.1-3.25-1.09C39.21,92.51,39.09,90.85,40.23,90.78ZM51,91a2.52,2.52,0,1,1-2.52,2.51A2.52,2.52,0,0,1,51,91Zm5.65.24,1.65,1.93c.32,16.88,13.68,22.09,13.55,22.13l.41,1.82C71.53,117.26,55.75,110.09,56.67,91.28ZM51,92a1.61,1.61,0,1,0,1.61,1.6A1.61,1.61,0,0,0,51,92Zm0,.71a.9.9,0,1,1-.9.89A.89.89,0,0,1,51,92.66Zm8.53,1.53c.21,0,1.16,1.38,1.16,1.38s-1.05.36-1.5-.09S59,94.18,59.55,94.19Zm73.13.62,2.48,1.69c1.15,11.39,7.69,21.78,17.55,29l-.06,2.82C140.64,120.21,134,109.21,132.68,94.81ZM40,95h.12a1.58,1.58,0,1,1-1.7,1.79A1.71,1.71,0,0,1,40,95Zm20.65,1.52a1.74,1.74,0,0,1,1.24.69c1.09,1.22,1.08,1.58-.07,2-1.61.65-3-.25-2.41-1.63C59.65,96.89,60.1,96.52,60.61,96.52Zm-16.49.06a1.1,1.1,0,0,1,.37.06c1.19.46-1.39,5.17-3.09,5.64-1.08.31-1.31-.11-.95-1.77C40.84,98.68,42.86,96.61,44.12,96.58Zm7.58.11a2.52,2.52,0,1,1-2.53,2.52A2.52,2.52,0,0,1,51.7,96.69Zm0,.91a1.61,1.61,0,1,0,1.6,1.61A1.61,1.61,0,0,0,51.7,97.6Zm-6.32.14A28.49,28.49,0,0,0,47,105.09a10.82,10.82,0,0,0-3.68-3.2C44.27,100.51,45.35,99.12,45.38,97.74Zm6.32.57a.9.9,0,1,1-.9.9A.9.9,0,0,1,51.7,98.31ZM66,98.58a4.18,4.18,0,0,1,4.37,4.18,57.68,57.68,0,0,1,0,6.94l-2.14-3.9c0-1.11.16-2,.08-3A2.36,2.36,0,0,0,65,100.5L64.06,99A5.65,5.65,0,0,1,66,98.58Zm9.27.3a3.61,3.61,0,0,1,4,3.85c.15,4.73-.11,15.51-.11,15.51H73.79L70.87,111a7.49,7.49,0,0,1-.09-1.2c.18-2.31.07-4.88.15-7A4.51,4.51,0,0,1,75.26,98.88Zm-12.35.75a1.2,1.2,0,0,1,.9.34c1.24,1.25,1.23,2.07,0,2.63-1.66.75-2.52.61-3.09-.5S61.68,99.64,62.91,99.63Zm77.81.34,1.35.87s-.28.44-.43.71c-.77,1.32.53,2.09,2.34,1.39a3.47,3.47,0,0,0,.61-.3l1.11.75s-.8.44-1.68.87c-2.26,1.1-3.88.63-4.43-1.28a2.78,2.78,0,0,1,.43-2.26A8.75,8.75,0,0,1,140.72,100Zm-57.25.16a4.71,4.71,0,0,1,4.55,3.7c.2,1-.06,14.42-.06,14.42H79.77l.14-14.06a3.62,3.62,0,0,1,.48-2.4A4.07,4.07,0,0,1,83.47,100.13Zm-8.51.61c-1.66.08-2.6,2.75-.9,4,.72.52.73.62.35,2.4a9.61,9.61,0,0,0,1,6.39c.78,1.29.62.63.22-.53-.51-2.16-.26-3.76,1-6.28,1.12-2.12,2.2-5.38-1.36-6Zm68,.61.74.5-.27.25c-.3.29-.89.33-1.07.11S143,101.35,143,101.35Zm-59,1c-1.78-.06-3,3.24-.67,4,.51.33.6.77.28,1.39a9.41,9.41,0,0,0-.79,3.61,13.28,13.28,0,0,0,.63,3.25c.6,1.48.48.89.32-.81a8.33,8.33,0,0,1,1.44-5.09c1.31-2.18,3.12-5.72-1-6.36l-.18,0Zm-30.61,0a2.52,2.52,0,1,1-2.52,2.52A2.53,2.53,0,0,1,53.32,102.4Zm11.7.26c.44,0,.77.28,1.16.87,1.09,1.63,1,2-1.13,3.11s-3.72-1.85-1.59-3.27a3.71,3.71,0,0,1,1.47-.71Zm-23.11.12c2.35,0,6,3.37,4.23,3.85a2.86,2.86,0,0,1-.71.11C42.48,106.56,39.1,102.75,41.91,102.78Zm11.41.54a1.6,1.6,0,1,0,1.61,1.6A1.6,1.6,0,0,0,53.32,103.32Zm93,.47,1.17.79s-.72.33-1.56.78c-2.29,1.22-3,2.12-2.17,2.92a1,1,0,0,0,1.22.18,34.58,34.58,0,0,0,4.55-2.56l.88.61S146.93,109,145,110c-3,1.53-4.69-1.59-3-3.68C143.28,105.08,144.65,104.66,146.34,103.79Zm-93,.23a.9.9,0,1,1-.9.9A.9.9,0,0,1,53.32,104Zm94.85.84.64.43-2,1.15c-2.13,1.22-2.22,1.25-2.34,1-.1,0,0-.55.7-1A29.23,29.23,0,0,1,148.17,104.86Zm-55.37.06a4.21,4.21,0,0,1,3.77,2.13,8.79,8.79,0,0,1,.47,3.33l0,7.87H88.75a73.12,73.12,0,0,1,0-9.83A4.11,4.11,0,0,1,92.8,104.92Zm-25.63,1.17c.52,0,.91.47,1.41,1.59s.12,1.72-1.43,2.39a1.94,1.94,0,0,1-.5.14,1.76,1.76,0,0,1-1.08-3C66.27,106.48,66.76,106.12,67.17,106.09Zm83.89.8.72.45s-.37.33-3,2.27c-2.16,1.57-2.47,2-2,2.87.36.71,1.15.62,2.24-.21,1.51-1.16,3.88-3.12,3.88-3.12l.08,1.34c-1.56,1.25-3.45,3.39-5,4.2-2.9,1.43-5-2.48-2.33-4.41A63.46,63.46,0,0,1,151.06,106.89Zm-57.94,0c-2.16,0-3,3.18-.64,3.85.67.36.61.54.16,2.14a7.19,7.19,0,0,0-.2,2.9c.17,1,.38.94.29-.09a8.8,8.8,0,0,1,1.17-3c2.15-3,1.59-5.75-.78-5.78Zm-50.27,0a1.6,1.6,0,0,1,1,2.84c-.87.6-2.7-.14-2.7-1.09A1.84,1.84,0,0,1,42.56,107l.29,0Zm4.09.16c.45,0,.71.66.71,2a5.73,5.73,0,0,1-1.81,4.43c-1.65,1.37-2-2.36-.48-4.84C46,107.61,46.55,107.1,46.94,107.1Zm105.63.49c.41,0,.35.31-.12.64s-1,.76-2.91,2.38c-.35.29-.85.67-1.11.85-.64.43-1.19.31-.88-.18A31.13,31.13,0,0,1,152.57,107.59Zm-96.73.09a2.52,2.52,0,1,1-2.52,2.52A2.52,2.52,0,0,1,55.84,107.68Zm0,.91a1.61,1.61,0,1,0,1.61,1.61A1.6,1.6,0,0,0,55.84,108.59Zm-30.2,0c17.08,8.62,27.73,24.74,30.36,43.1l8.29-13.13,2.25.84L54.45,159.11l-.53-.16c-.05-19.21-9.64-37.38-28.31-47.35Zm30.2.66a.9.9,0,1,1-.9.9A.9.9,0,0,1,55.84,109.3Zm-7.05.1a31.58,31.58,0,0,0,3.06,5.36c-1.42-1.34-3-1.28-4.52-1.48Zm20.31.36a.87.87,0,0,1,.74.38c.7,1,.82,1.85.34,2.33a1.39,1.39,0,0,1-2.21-.54A1.56,1.56,0,0,1,69.1,109.76Zm83.75,1.33,0,1.49a9.62,9.62,0,0,1-.66.7,13.62,13.62,0,0,0-2.34,2.66c-.3,1.18.86,1.61,2,.75l1-.75v1.83c-1,.82-1.93,1.63-3.25,1.36a2.22,2.22,0,0,1-1.59-1.61c-.55-2.31,1.69-3.6,3.43-5.15C152,111.88,152.85,111.09,152.85,111.09Zm-93.45,1.3h.13a2.47,2.47,0,1,1-.13,0Zm50.7.57a1.66,1.66,0,0,1,1,2.89,1.79,1.79,0,0,1-2,.31C107.59,115.1,108.72,113,110.1,113Zm-2.74,1.46c.79.85,1.4,3.29.93,3.76-1,1.07-4.06-2.49-3.88-4.81C104.73,112,107.06,114.11,107.36,114.42Zm-36.91-1.33a.57.57,0,0,1,.56.82c-.13.29-.58.32-.94.17C69.46,113.83,69.75,113.08,70.45,113.09Zm-10.92.21a1.61,1.61,0,1,0,1.6,1.61A1.61,1.61,0,0,0,59.53,113.3Zm-12,.71c3,0,6.25,2.4,3.46,2.87a5.26,5.26,0,0,1-5-1.53c-.83-.75-.53-1.14,1-1.31a6.08,6.08,0,0,1,.61,0Zm12,0a.9.9,0,1,1-.9.9A.9.9,0,0,1,59.53,114Zm4.21,2.28h.13a2.46,2.46,0,1,1-.13,0Zm49.63.13a2.48,2.48,0,0,1,1.71.45c.45.41-.22,1.19-1.59,1.86-1.6.78-4.39.67-4.39-.17C109.11,117.44,111.52,116.45,113.37,116.42Zm-60.79.66c1.4,0,1.77,4.34.56,6.41-.63,1.08-1.48.36-2.09-1.77C50.55,120,51.51,117.07,52.58,117.08Zm11.29.12a1.61,1.61,0,1,0,1.61,1.6A1.6,1.6,0,0,0,63.87,117.2Zm52.33.28a1.62,1.62,0,0,1,.47.16c1.52.75,2.64,4.25,1.84,5.81s-2.72-1.52-2.71-4.54c0-1,.07-1.39.35-1.42Zm-67.59.23h.09c1.39,0,2.39,1.94,1.09,2.92a1.86,1.86,0,0,1-2,.15,1.69,1.69,0,0,1,.1-2.88A1.71,1.71,0,0,1,48.61,117.71Zm15.26.2a.9.9,0,1,1-.89.89A.89.89,0,0,1,63.87,117.91Zm-9.43.3a33.33,33.33,0,0,0,4.24,4.34,9.14,9.14,0,0,0-4.13-.06A10.8,10.8,0,0,0,54.44,118.21Zm49.23.25c20.76,4.85,33.44,26.84,28.43,47.47a9.51,9.51,0,0,1-2-1.44,43.5,43.5,0,0,0,.27-14.91,36.8,36.8,0,0,0-26.55-28.64A12.45,12.45,0,0,1,103.67,118.46Zm11.19.15a40.41,40.41,0,0,0,.81,4.11,26,26,0,0,0-4.82-2.68A12,12,0,0,0,114.86,118.61Zm6,.46a1.55,1.55,0,0,1,1.65,1.58,2.15,2.15,0,0,1-.85,1.44,1.58,1.58,0,0,1-2.19-2.07A1.51,1.51,0,0,1,120.84,119.07Zm-52.16.54a2.52,2.52,0,1,1-2.53,2.52A2.52,2.52,0,0,1,68.68,119.61Zm0,.92a1.6,1.6,0,1,0,1.6,1.6A1.6,1.6,0,0,0,68.68,120.53Zm-43,.24c10.32,6.07,19.57,19,20.26,33.61l-2.5-1.63c-1.07-9.84-6.12-20.55-17.84-29.33C25.63,123.42,25.66,122.47,25.71,120.77Zm57.13,0H96.18v2.86l4-2v6.34l-4-2.41v2.77H82.84v-2.91l-4.08,2,0-6.32,4,2.27Zm-14.16.46a.9.9,0,1,1-.9.9A.9.9,0,0,1,68.68,121.23Zm5.24.5h0l.16.92h-.08a1.61,1.61,0,0,0,0,3.21,1.54,1.54,0,0,0,.61-.12l.15.92a2.37,2.37,0,0,1-.76.12,2.52,2.52,0,0,1-.13-5Zm30.12.32h.14a2.52,2.52,0,0,1,.57,5l-.15-.91a1.6,1.6,0,0,0-.42-3.14h-.11l-.16-.91Zm17.71.85c3.12,0,4.41,1.8,1.86,2.56a6.39,6.39,0,0,1-4.26-.51C118.07,124.39,119.83,122.89,121.75,122.9Zm-65.09.17a5,5,0,0,1,2,.37c1.3.62,1.27,1-.12,1.84-1.94,1.11-6.51,0-5.13-1.27A5.28,5.28,0,0,1,56.66,123.07Zm17.39.28.2,0,.28,1.64a1,1,0,0,1-.48.13.9.9,0,1,1,0-1.79Zm30.13.32a.9.9,0,0,1,.9.9.89.89,0,0,1-.6.84Zm5.5.64a2.52,2.52,0,1,1-2.53,2.52A2.52,2.52,0,0,1,109.68,124.31ZM60.52,125a.74.74,0,0,1,.5.21A5.85,5.85,0,0,1,62.69,131c-.57,1.85-2.93-1.44-2.91-4.07C59.79,125.67,60.07,125,60.52,125Zm65.38.22c.21,0,.43.16.65.52.94,1.56.89,4.79-.08,5.79-.55.57-.76.46-1.34-.7C124.15,128.79,124.89,125.16,125.9,125.17Zm-16.22.06a1.6,1.6,0,1,0,1.6,1.6A1.6,1.6,0,0,0,109.68,125.23Zm-47.15.43a47.2,47.2,0,0,0,5.88,3.2,6,6,0,0,0-4.75,1A5.75,5.75,0,0,0,62.53,125.66Zm57.29.33a13,13,0,0,0,4.47.13,13.84,13.84,0,0,0-.27,4.27,27.66,27.66,0,0,0-4.2-4.4Zm-10.14-.06a.9.9,0,1,1-.9.9A.9.9,0,0,1,109.68,125.93Zm-51.18.86a1.5,1.5,0,0,1,.07,2.72c-1.43.93-3.29-.7-2.4-2.1a1.75,1.75,0,0,1,2.33-.62Zm56.24.81a2.52,2.52,0,1,1-2.52,2.52A2.52,2.52,0,0,1,114.74,127.6Zm14.77.42a1.49,1.49,0,0,1,.75.19,1.5,1.5,0,1,1-2,2.06A1.51,1.51,0,0,1,129.51,128Zm-24.35.38c12.43,4.22,20.75,18,18.74,31.3l-1.55-1.46c1.18-7.53-3-21.92-16.8-27.82Zm9.58.12a1.6,1.6,0,1,0,1.61,1.6A1.6,1.6,0,0,0,114.74,128.52Zm0,.7a.9.9,0,1,1,0,1.8.9.9,0,0,1,0-1.8Zm-47.25.16c.63.05,1.7-.06,2,.54.28.75-1.27,2.06-3.23,2.31-.8.05-2.52.25-2.88-.32C63,131.19,65.3,129.4,67.49,129.38ZM28,129.82c1.68-.07,3.57,2.17,1.87,4a36,36,0,0,1-4.14,3.32v-1.23s2.73-2,2.77-2.89a1.1,1.1,0,0,0-1.81-1c-.19.12-.94.73-.94.73l.06-2.06a3.24,3.24,0,0,1,2.19-.87Zm42.92.53c1.25,0,4.13,4.49,3.4,5.4-.58.72-2.93-.88-3.81-2.6-.47-.92-.33-2.56.24-2.78A.32.32,0,0,1,71,130.35Zm19.21.53s.13,10.34-.46,11.32c-2.33,4.22-7.37,2-7.8-1.14-.31-1.9-.12-10.16-.12-10.16Zm.74,0h8s0,14.56-.36,15.39a5.52,5.52,0,0,1-2.17,2.17c-2.37,1-4.89-.43-5.52-3.19-.45-2,0-14.37,0-14.37Zm8.72,0H105s.18.78.39,1.41c.37,1.11,1.63,4.28,1.78,4.47.65.87.69,10.38,0,11.47-2.36,3.52-6.28,2.5-7.72-1.41C99.1,145.57,99.62,130.88,99.62,130.88Zm6.24.36c9.58,4.55,16.92,14.18,16,26.55L120.1,156c.64-8.53-5.87-19.2-13.46-22.37Zm13.2.3a2.52,2.52,0,1,1-2.53,2.51A2.51,2.51,0,0,1,119.06,131.54Zm9.45.25a4.89,4.89,0,0,1,2.94,1c1,.84,1.17,1.51.38,1.76a4.72,4.72,0,0,1-4.54-1.13C126.22,132.41,127.14,131.77,128.51,131.79Zm-9.45.66a1.6,1.6,0,1,0,1.6,1.6A1.61,1.61,0,0,0,119.06,132.45Zm-50.51.2a1.65,1.65,0,0,1,.93,2.85,2.14,2.14,0,0,1-2.08.15A1.67,1.67,0,0,1,68.55,132.65Zm17.77.48a21.18,21.18,0,0,1-1.75,3.7c-1.59,2.65-1.38,4.42.29,5.31a2,2,0,1,0,1.83-3.59c-.85-.49-.85-.5-.55-1.8C86.53,135.11,86.59,133.16,86.32,133.13Zm32.74,0a.9.9,0,1,1,0,1.8.9.9,0,0,1,0-1.8ZM95,133.67c-.11,0,0,.65,0,1.82,0,1.88-.17,2.45-1.38,5-1.54,3.22-1.33,5.42.57,6.13a2.22,2.22,0,0,0,2.94-2.3,1.58,1.58,0,0,0-.93-1.63c-.51,0-1.08-.27-1-.52C95.4,140.23,97.07,136.6,95,133.67Zm31.85.26a8.6,8.6,0,0,0,4.38,1.62,13.47,13.47,0,0,0-.84,4.78,30,30,0,0,0-3.54-6.4Zm-95.08.3a1.51,1.51,0,0,1,.3,0,2.5,2.5,0,0,1,1.87,2.85c-.27,1-.36,1.15-4.2,3.71a18.86,18.86,0,0,1-2.35,1.48l-1.14-.77,2.5-1.67c2.94-2,3.37-2.44,3.07-3.32s-1.43-.76-3.17.58c-2.57,2-2.84,2.11-2.84,2.11V138s1.13-.9,1.61-1.32C28.57,135.86,30.22,134.24,31.72,134.23Zm76.18.51a.41.41,0,0,1,.42.52c0,.13-.22.21-.45.2a.36.36,0,0,1,0-.72Zm25.86,1.37c.54,1.87-.63,5-1.35,5.37-.76.75-1.24,0-1.4-1.92C131,138,132.83,133,133.76,136.11Zm-30.66-1c.24,2.68.32,4.91-.94,7.09-1.64,2.83-1.21,5.25.54,5.78a2.17,2.17,0,0,0,3-2.4,2.46,2.46,0,0,0-1.24-1.48c-.53-.13-.6-.46-.29-1.53a10,10,0,0,0-.5-6.56c-.08-.28-.41-.91-.54-.9ZM109,136a1.69,1.69,0,0,1,1.06,2.93c-.61.56-1,.3-1.64-1.07S108,136,109,136Zm13.69.39a2.52,2.52,0,1,1-2.53,2.52A2.52,2.52,0,0,1,122.66,136.35Zm0,.92a1.6,1.6,0,1,0,1.61,1.6A1.61,1.61,0,0,0,122.66,137.27Zm0,.7a.9.9,0,1,1-.9.9A.9.9,0,0,1,122.66,138Zm-10.83.66a1.36,1.36,0,0,1,.59.12c1.33.64,1.18,2.48-.28,3.58-.93.69-1.33.45-2.19-1.34C109.48,140,110.71,138.68,111.83,138.63Zm-77.1.21a2.32,2.32,0,0,1,.38.06,2.77,2.77,0,0,1,1.9,3.19c-.76,1.87-3.32,2.5-5.26,3.28l-1-.74s1.43-.8,2.81-1.44,1.5-.83,1.41-1.58c-.19-1.47-.9-1.42-4.12.31-1.31.71-2.27,1.33-2.27,1.33l-.72-.58c1.07-.7,1.71-1.09,2.87-1.88,2-1.33,3.06-1.9,3.87-1.94Zm102.42,1.09c.47,1.42-.48,2.67-1.93,2.11a1.62,1.62,0,0,1-.85-2.23C135,138.8,136.84,139,137.15,139.93Zm-28.9-.49,2.27,4.06s0,1.14,0,1.76c.09,2.65.65,3.52,2.2,3.26.11,0,.67-.17.67-.17l1,1.65a14.36,14.36,0,0,1-1.34.53c-1.83.38-4.35-1-4.75-2.82s-.08-8.27-.08-8.27Zm-74.34,1.67c.69,0,.4.57.08.74-1.33.68-2.59,1.41-4,2.21l-.93-.57s.72-.4,1.21-.71A12.21,12.21,0,0,1,33.91,141.11Zm91.2.52a2.52,2.52,0,1,1-2.53,2.52A2.52,2.52,0,0,1,125.11,141.63Zm-10.69.34a1.52,1.52,0,0,1,1.39.76c.67,1.12,0,2.48-1.68,3.21-.91.4-1.07.32-2-1.12-.66-1-.65-1.15.07-1.77a4,4,0,0,1,2.26-1.08Zm-88.62.23L62,165.56l-1,1.75-35.06-22.9Zm107.46.3c2.19,0,5.06,2.58,4.05,3.58a.69.69,0,0,1-.47.18C133.7,146.07,130.24,142.44,133.26,142.5Zm-8.15,0a1.61,1.61,0,1,0,1.6,1.61A1.61,1.61,0,0,0,125.11,142.54Zm-48.3.45,1,2.48-18,28.6L58,172.93Zm48.3.26a.9.9,0,1,1-.9.9A.9.9,0,0,1,125.11,143.25Zm6.61.3a7.74,7.74,0,0,0,4,3.34,5.82,5.82,0,0,0-2.31,4.74A44.42,44.42,0,0,0,131.72,143.55Zm-95.15.86a1.73,1.73,0,0,1,1,.27c3.37,2.31.28,4.59,0,4.41l-1.15-.72c.39-.66,1.29-1.54-.15-2.37a2.7,2.7,0,0,0-2.53.62l-1.2-.82a10.22,10.22,0,0,1,4-1.39Zm79.54,1.3a2.22,2.22,0,0,1,.37,0c1.91.37,1.78,2.38-.21,3.32-1.13.53-1.33.42-2.32-1.27C113.48,147,114.88,145.75,116.11,145.71ZM36,146.45a.59.59,0,0,1,.49.35c.1.53-.88,1.06-.88,1.06l-1.13-.74A4,4,0,0,1,36,146.45Zm101.43.49a.5.5,0,0,1,.56.43c.39,1.57-1.36,4.48-3,4.95-.94.27-1.21-.17-.9-1.47.43-1.82,2.33-3.84,3.31-3.91Zm-58.33.12L82,149.18,64.42,176.89l-3-1.8Zm47.82.22a2.52,2.52,0,1,1-2.53,2.52A2.52,2.52,0,0,1,126.88,147.28Zm0,.92a1.6,1.6,0,1,0,1.6,1.6A1.6,1.6,0,0,0,126.88,148.2Zm0,.7a.9.9,0,1,1-.9.9A.9.9,0,0,1,126.88,148.9ZM86.5,149c1.91,2.15,4,6.95,11.53,4.68a8.84,8.84,0,0,0,10.4,1l0,12.93-33.2,0Zm-60.65.33,32.7,21.48-1,1.8L25.82,152.38Zm91.81,0h.08c1.67.41,1.86,2.07.31,2.71-.83.34-1,.26-1.8-.91a1.9,1.9,0,0,1-.45-1,3.42,3.42,0,0,1,1.86-.84Zm21,1.77a1.66,1.66,0,0,1,.77,3.1,1.63,1.63,0,0,1-2.23-2.2,1.57,1.57,0,0,1,1.46-.9Zm-20.47,1.75c.77,0,1.42.74,1,1.18s-.57.21-1-.26-.5-.92-.06-.92Zm9.37.32A2.52,2.52,0,1,1,125,155.7,2.52,2.52,0,0,1,127.54,153.18Zm7.12.14c1.9,0,4.54,3.18,4.09,4.92-.15.57-1.21.26-2.48-.71C134.55,156.22,133.44,153.31,134.66,153.32Zm-7.12.77a1.61,1.61,0,1,0,1.61,1.61A1.61,1.61,0,0,0,127.54,154.09Zm6.12.33a6.1,6.1,0,0,0,3.44,4.25c-3.69,1.71-4.39,4.59-3.84,8.29l-.86-.53a44.65,44.65,0,0,0,1.26-12Zm-6.12.38a.9.9,0,1,1-.9.9A.9.9,0,0,1,127.54,154.8Zm-.47,4a2.52,2.52,0,0,1,1.39,4.63l-.81-.61a1.6,1.6,0,0,0-.58-3.1,1.59,1.59,0,0,0-1.59,1.48l-.82-.62A2.52,2.52,0,0,1,127.07,158.84Zm11.49.32c1.2,0-.66,3.34-2.38,4.24-1.3.69-2.5.75-2.5.12C133.69,161.86,136.73,159.15,138.56,159.16Zm-11.49,1.3a.9.9,0,1,1,0,1.8,1,1,0,0,1-.9-.9A.9.9,0,0,1,127.07,160.46Zm11.11,3a1.59,1.59,0,0,1,1.42.76,1.42,1.42,0,0,1-.39,1.81,1.55,1.55,0,0,1-2.48-1.85,1.57,1.57,0,0,1,1.45-.72Zm-4.65,1.35a3.72,3.72,0,0,1,3.19,4c-.32.37-2.55-1.31-2.79-1.48A7.37,7.37,0,0,1,133.53,164.84Zm-2.76,1.56a68.47,68.47,0,0,0,6.34,3.8l-6.32,4.05Zm-56.43,1.88,34,.12v1.43l-35,0,.93-1.57ZM73,170.51h2.29v2.79H72.09v-1.54Zm32.71.07h2.76v2.78h-2.76Zm-27,0h3.13v2.78H78.64Zm6.52,0h3.38v2.79H85.16Zm6.93,0h3.25v2.79H92.09Zm7,0h3.11v2.78H99ZM70.7,174.1l37.76.09v1.67l-38.84-.09Zm32.22,3.51a4.17,4.17,0,0,1,3.08,7.25c-2.77,2.76-7.37-.77-5.07-3.88,1.28-1.73,4.44-.33,3.65,1.52a1.15,1.15,0,0,1-2.17-.67c0-.53-.39-.17-.43.39a1.54,1.54,0,0,0,1.53,1.51c2.23,0,2.56-2.95.41-4-1.92-1-3.94.27-4.41,2.72a8.68,8.68,0,0,1-.6,1.41,13.69,13.69,0,0,0-1.3,3.87,4,4,0,0,1-1,.7c-1.09.54-1,.31-.64-1.47,1.18-5.12,3.11-8.42,5.47-9.09a5.75,5.75,0,0,1,1.49-.23Zm11.37.27a4.67,4.67,0,0,1,4.47,3.41c1.36,4.58-4.74,7.39-6.87,3.24-1.18-2.38,1.28-5.21,3.53-4.11,1.85.91,1.73,3.72-.16,3.71-1,.05-1.64-.87-1.08-1.61.29-.29.64-.06.79-.55.06-.2-.23-.36-.93-.22-1.15.23-1,2.56.31,3,2,.69,3.71-1.41,2.76-3.49-1.15-2.5-4.25-2.51-5.66.1a13.22,13.22,0,0,1-.71,1.17c-2.11,2.86-2.28,3.29-2.91,4.88a.34.34,0,0,1-.36.26,4.29,4.29,0,0,0-1.55.28c-.26-.07.09-1.08.11-1.15C107.47,182.38,111.17,178,114.29,177.88Zm-18.4,1.25a31.66,31.66,0,0,0-3,7.88,10.56,10.56,0,0,0-1.55-.66c-.21-.08,0-.31-.05-.66a19.46,19.46,0,0,1,2.94-6.87c.29-.21,2.13-.27,1.71.31ZM98,180c-1.29,1.65-2.63,6-2.91,8.26,0,.34-.11.72-.14.84-.2.67-1.47-.77-1.46-1.67,0-1.52,1.7-6.15,2.9-7.92.42-.62.48-.72,1.37-.75,1.45,0,.81.52.24,1.24Zm-63-1.08a4.94,4.94,0,0,0-.94.12c-1.87.46-4.1,2.44-4.31,4.54a5.07,5.07,0,0,0-.2,2.27c.62,2.81,2.26,4.72,4.28,7.51A50.12,50.12,0,0,1,29.55,199L33.66,205c-1.14,2.24-3.11,3.93-3.61,6.69-.77,3.63,1.14,7.17,5.19,7.5,3,.09,5-2,5.39-5,.16-2.06-.69-4.64-3.74-8.71l-.45-.62a8.5,8.5,0,0,0,.53-.67c1.07-1.45,3.86-5,3.86-5l-4.17-5.89a5.29,5.29,0,0,1,.5-.84c3.41-4.64,4.05-7,3.44-9.3A5.38,5.38,0,0,0,39,180.7a5.55,5.55,0,0,0-4-1.82Zm-.09.57a5.18,5.18,0,0,1,3.82,1.67c2.56,2.68,2.33,4.94-1,9.89-.73,1.09-1.44,2.28-1.44,2.28l4.2,5.79c-1.38,1.94-2.95,3.67-4.39,5.72.73,1.11,1.91,2.3,2.66,3.64a11.58,11.58,0,0,1,1.59,4.42c.33,2.91-1.57,6-4.81,6.09a5.53,5.53,0,0,1-5.48-5.88,9,9,0,0,1,1.37-4.15C32.18,207.58,34,205,34,205l-4.07-5.92,4.31-5.73s-3.13-3.83-4.09-6.59a5.89,5.89,0,0,1,.87-5.19,4.9,4.9,0,0,1,3.93-2.09Zm-2.67,8.31a11.58,11.58,0,0,0,2.79,4,18.51,18.51,0,0,0,2.92-4.45C41.08,179.78,28.93,179.17,32.23,187.76ZM35,191c-1.54-1.79-2.63-3.28-2.74-5.64a2.86,2.86,0,1,1,5.65,0C37.55,187.67,36.35,189.11,35,191Zm75.92-7.35c.12.65.76,1.77.71,2-.3.69-.73,1-1.34,2.17-.13.25-.07.3-.41.24s-.88-.23-1.18-.31-.36-.14-.28-.36c.58-1.33,1.23-2.92,2.5-3.77Zm-10.15,2-.72,1.86c-.07.2-.08.24-.29.19a5.83,5.83,0,0,0-1.18-.05c-.89-.11.79-3.44,1-3.95.37.06.91,1.49,1.15,1.95Zm.68.43h0a5.59,5.59,0,0,1,1.32.42c.23.09.23.1.13.38s-.46,1.59-.73,2c0,.06-1.27-.75-1.63-.9C100.54,187.77,101,186.16,101.43,186.1Zm10.73.22a2.57,2.57,0,0,1,1.22.61c.13.26,0,.53-.46,1.33s-.84,1.47-.94,1.39a5.41,5.41,0,0,1-1.18-1c-.22-.3.19-1,.47-1.46C111.7,186.59,111.91,186.36,112.16,186.32Zm-6.83-.1c.39.09-.22,2.08-.34,2.33a6,6,0,0,1-1.39,1.55c-.23.15-.94-.27-.92-.77a15.13,15.13,0,0,1,.91-2.61,6.38,6.38,0,0,1,1.74-.5ZM89.54,187h.26a4.52,4.52,0,0,1,4.07,2.37c.47.8.47.83.37,1.57a6.94,6.94,0,0,0,.29,4c.52,1.21.44,1.62-.83,4.32s-2.84,6-4,9.08a33.33,33.33,0,0,0-1.3,4c-.2.77-1.14.54-2.07.5-.48.11.68-3.08,2.4-6.89,1.37-3.05,3.24-6.48,4-9.89.61-2.78.41-3.92.08-5.09-1.29-3.4-5.76-2.57-5.75.56.09,2,2.44,3.12,3.31,1.13.14-.91-.31-.38-.69.06-.81,1-2.2-.1-2-1.51a2.16,2.16,0,0,1,3.82-1c1.26,1.6,1,3.24-.84,4.48a2.94,2.94,0,0,1-4.52-.84A4.54,4.54,0,0,1,89.54,187Zm9.29,1.35c1.87,0,3.89,1.6,4.22,2.83.17.84-.1,1.83.2,2.64.25.65.49,1,.31,1.6-1.53,4.92-5.15,10.18-6.94,16-.21.41-.4.46-.86.59-.72.2-1,.18-1.07-.19a7,7,0,0,1,.58-2.29,46,46,0,0,1,2.26-5.32c1.52-2.84,2.36-4.78,3.46-7.21.2-.45.26-.72.58-1.37,1.39-2.8-.18-5.57-3-5.58-2.28,0-3.29,3.54-1.3,4.58s3.39-1.66,1.66-2.6c-.41-.23-.52,0-.19.39.77.93.08,2.17-1,1.67-1.66-.76-.8-3.59,1.13-3.42,3,.25,3.38,4.59.33,5.69-4.19,1.51-6.39-5.22-2.44-7.49a4,4,0,0,1,2.1-.53Zm8.84.14a4.44,4.44,0,0,1,3.21,1.27c2.35,2.25,1.72,5.72-2.24,12.43a45,45,0,0,0-3.25,6.92,1.47,1.47,0,0,1-.71,1c-.69.37-1.47.42-1.57.16-.25-.69,1.71-4.92,5.21-11.58.91-1.78,2.08-3.84,2-5.95a2.65,2.65,0,0,0-3.5-2.33,1.89,1.89,0,0,0-.85,3,1.68,1.68,0,0,0,1.17.54c.58,0,1.24-.55.12-.61a1.17,1.17,0,0,1-.59-2.17c1.44-1,3.1.17,3,2.05-.24,3.78-5.77,3.21-5.92-.68a3.88,3.88,0,0,1,3.92-4Zm-15.62,6.05c.83-.07-.6,4.42-3.12,9.46a89.21,89.21,0,0,0-3.47,8.71c-.29.39-2,.47-2,.06,3.07-9.82,5.24-11.51,6.29-15.25.18-.65.32-1.58.34-1.66C90.85,195.61,91.5,194.69,92.05,194.52Zm-56.87.66-3.25,4.23,3.18,4.5,3.3-4.3Zm70.47,1.31a21.49,21.49,0,0,1-1.7,4.41c-3.19,6.42-4,8.15-4.53,9.87a.83.83,0,0,1-.46.58c-.4.15-1.51.36-1.6.21.68-3.75,5.84-12.29,6.84-16,.4,0,1.42.6,1.45,1Zm2.56-.39c.21,0,.3.07.24.36a25.14,25.14,0,0,1-1.63,3.46c-2.68,5.26-4.09,8.38-4.54,10-.11.37-.17.67-.35.76-.37.2-1.66.72-1.72.16.4-2.38,2-3.93,6-13.86.19-.33.35-.48.53-.51.5-.09.94-.32,1.43-.36Zm-11,1.63a29.83,29.83,0,0,1-2,4.27,60.1,60.1,0,0,0-4,9.49,2.17,2.17,0,0,1-.46,1,5.1,5.1,0,0,1-1.72.15c-.22-1.07,1.49-5.1,3.38-9.33,1-2.3,2.23-4.59,3-6.66C96.05,196.72,97.11,197.24,97.19,197.73Zm2.87-1c.58,0,.13,1-1.24,3.67a58.47,58.47,0,0,0-4,8.84c-.3.78-.65,1.75-.78,2.16s-.33.78-.55.89a2,2,0,0,1-1.59,0c-.28-.34,1.21-4.33,2.65-7.4,1.28-2.58,2.18-4.65,3.28-7,.31-.47.32-.5.63-.56a10.17,10.17,0,0,0,1.65-.55Zm-64.82.51,1.67,2.24-2,2.44-1.64-2.37ZM35,206.87A14.06,14.06,0,0,0,33.54,209c-2.14,3.55-2.2,6.18.33,7.74a3.09,3.09,0,0,0,3.33-.34c2.86-2.49.73-5.91-1.11-8.23A11.59,11.59,0,0,0,35,206.87Zm.11.91a14.61,14.61,0,0,1,2.57,3.8c.82,2.13.3,3.81-1.29,4.59-2.52,1.25-4.8-1.55-3.61-4.53A14.88,14.88,0,0,1,35.09,207.78ZM105.48,212c.24.45-23.93,6-41.75,1.24L52.89,228.89l62.61-.11Zm-.92,1.11s5.82,10.06,8.68,15h-4l-5.72-12.22a64.66,64.66,0,0,1-9.14,1.85l2,10.37h-3l-1.7-9.91a126.7,126.7,0,0,1-13.42.34l-2,9.57H73.17l2-9.51c-3.46-.46-6.91-.9-10.43-1.48l-5.9,11H54.42l9.26-13.79c13.82,2.77,26.57,2.12,40.88-1.19Zm-2.18,5.4,4.54,9.58h-8.6l-1.58-8.55Zm-36.8.7,7.51,1-1.94,7.91H61Zm24.53,1.18,1,7.7h-13l1.44-7.55Z" transform="translate(0.1 0.1)"/></g></g><path id="path153-6-3-1-9-5-1-4" d="M48.06,26.47C40.72,37,32.85,43,32.72,51.19c0,2.65,1.39,7.15,5.87,8,2.91.56,6.92-1.8,7-6.58,0-1,1-.93,1,.37a27.22,27.22,0,0,1-3.34,11.76h9.63A27.08,27.08,0,0,1,49.54,53c0-1.3,1-1.33,1-.37.08,4.78,4.08,7.14,7,6.58,4.49-.86,5.92-5.36,5.87-8C63.27,43,55.41,37,48.06,26.47Z" transform="translate(0.1 0.1)"/><path id="path153-6-3-1-8-6-9-9-4" d="M130.52,223c-7.35-10.49-15.21-16.53-15.34-24.72,0-2.65,1.39-7.15,5.87-8,2.91-.55,6.91,1.8,7,6.59,0,1,1,.93,1-.37a27.2,27.2,0,0,0-3.33-11.76h9.62A27.35,27.35,0,0,0,132,196.46c0,1.3,1,1.33,1,.37.09-4.79,4.09-7.14,7-6.59,4.48.87,5.91,5.37,5.87,8C145.73,206.45,137.87,212.49,130.52,223Z" transform="translate(0.1 0.1)"/></g></g></svg>