<svg xmlns="http://www.w3.org/2000/svg" viewBox="0 0 178.78 249.65"><defs><style>.cls-1{fill:#fff;stroke:#000;stroke-width:1px;}.cls-2{fill:#d40000;}.cls-3{fill:#e2cf00;}.cls-4{fill:#131f67;}</style></defs><title>Asset 1</title><g id="Layer_2" data-name="Layer 2"><g id="svg4946"><g id="layer1"><g id="g4942"><rect id="rect6355-6-85-3-5-0-1" class="cls-1" x="0.5" y="0.5" width="177.79" height="248.65" rx="8.5"/><path id="path147-6-9-8-7-0-5-6-46-4-5" d="M164.57,209.3c3.13-.07,4.53-3.74,2.22-6.59-.34-.41-.37-.65.24-.25,1.56,1.08,4.55.37,4.7-3,.19-4.09-5.3-5.27-6.33-.92-.05.46-.41.45-.32-.21a13.88,13.88,0,0,1,1.35-5h-3.72a14.1,14.1,0,0,1,1.36,5c.08.66-.28.67-.33.21-1-4.35-6.52-3.17-6.33.92.15,3.32,3.14,4,4.7,3,.62-.4.58-.16.25.25-2.32,2.85-.92,6.52,2.21,6.59Z"/><path id="path147-6-9-8-7-4-5-62-9-4-5" d="M14.21,40.35c-3.13.07-4.53,3.74-2.21,6.59.33.41.37.65-.25.25-1.56-1.08-4.55-.37-4.7,3-.19,4.09,5.3,5.27,6.33.92,0-.46.41-.45.32.2a13.88,13.88,0,0,1-1.35,5h3.72a13.88,13.88,0,0,1-1.35-5c-.09-.65.27-.66.32-.2,1,4.35,6.52,3.17,6.33-.92-.15-3.32-3.14-4-4.7-3-.62.4-.58.16-.24-.25,2.31-2.85.91-6.52-2.22-6.59Z"/><path id="path37-5-2-4" d="M8.42,29.14H6.22v-3h2.2s0-1.61.08-4.46c.14-6.08.29-7,2-8.69,3.47-3.31,9.28-.61,9.21,4.35-.1,7,0,13.7-.23,14.65-.36,1.67-.4,1.76-.25,2.07.3.61,2.92.87,2.92.7v3a5.44,5.44,0,0,1-4.43-1.18,6.62,6.62,0,0,1-6.48.79C9.44,36.46,8,34.22,8.42,29.14Zm7.42,5.23c-1.08-1.57-2.92-3.72-4.64-4.48-.11,1.81.05,3.33.68,4.14a2.53,2.53,0,0,0,4,.34Zm.91-17.32c-.81-2.29-2.89-3.06-4.4-1.63-.95.89-1.1,1.83-1.12,6.93,0,3.15,0,4.47,0,4.47,2.95,1,5.71,4.4,5.68,4.36L17,21.67a27.41,27.41,0,0,0-.23-4.62Z"/><path id="path37-3-2-7-4" d="M170.36,220.51h2.2v3h-2.2s0,1.61-.08,4.46c-.14,6.07-.29,7-2,8.69-3.47,3.3-9.28.61-9.21-4.36.1-7,0-13.69.23-14.64.36-1.67.4-1.76.25-2.07-.3-.61-2.92-.88-2.92-.7v-3a5.48,5.48,0,0,1,4.44,1.18,6.55,6.55,0,0,1,6.47-.79c1.84.87,3.24,3.11,2.86,8.19Zm-7.42-5.24c1.08,1.58,2.92,3.73,4.64,4.49.11-1.81-.05-3.33-.68-4.14a2.53,2.53,0,0,0-4-.35ZM162,232.59c.81,2.29,2.89,3.07,4.4,1.64.95-.89,1.1-1.83,1.12-6.93,0-3.15,0-4.47,0-4.47-3-1-5.72-4.4-5.69-4.36L161.8,228a27.24,27.24,0,0,0,.23,4.61Z"/><g id="g5457-6-3-6"><g id="g3405-1-0-4"><path id="path3391-4-8-9-0" class="cls-2" d="M95.65,228.53c.44-6.51.06-13.5.36-18.8-.2-.37.52-1.4.56-1.4a7.13,7.13,0,0,1,0-4.59c4.24-16.23,11.92-28.87,19.84-40.65,6.44,19.47-13.78,33.13-18,50.14-1.41,5.89-1.2,10-1.74,15.33ZM62,228.78l-24-37.3,5.22-2.55,24.72,39.72Zm31.11-69.09c.21,1.07,1,1.65,1.94,1.16s1-.52.43.33a1.73,1.73,0,0,0,2.78,2.07,1.43,1.43,0,0,0,.15-2c-.57-.53-.69-.8.14-.4,2.11.86,3.27-2.2,1.23-3.23a2,2,0,0,0-1.94.38c-.46.48-.53.31-.4-.06a7.49,7.49,0,0,1,.3-1,5.08,5.08,0,0,0,.23-.8l-2.15,0s.18.49.35.91.23.68.31.85c.29.58-.06.37-.64-.07a1.67,1.67,0,0,0-2.43.37A2.38,2.38,0,0,0,93.15,159.69Zm3.1-30.34,4.62-.14L106,143.3c-4.07,6.78-5.17,14.42-.44,22.18l-14.65,0C94.3,153.82,94.84,141.43,96.25,129.35Zm4.83,18.32a1.64,1.64,0,0,0,.14-2.24c-.71-.84-.55-.89.4-.33,1.38.79,2.7-.93,1.88-2.46a1.81,1.81,0,0,0-2.82-.32c-.53.72-.47.06-.06-.89.15-.35.37-1,.37-1l-2.24,0s.28.64.44,1c.41,1.08.42,1.43-.21.73a1.73,1.73,0,0,0-3,1.34,1.49,1.49,0,0,0,2.17,1.49c.61-.36.88-.45.2.39a1.74,1.74,0,0,0,.32,2.27A2,2,0,0,0,101.08,147.67Zm-31,4.39c.18-.13.25,0,.14.14a8.05,8.05,0,0,1-.55.6c-1,1.16.31,2.65,2,2.42,1.14-.16,1.82-2,1-2.68-.28-.19-.49-.22-.7-.48,0-.1,0-.16.13-.12s.46.31.61.35a1.64,1.64,0,0,0,2.14-.91,2.2,2.2,0,0,0-.7-2.3,1.63,1.63,0,0,0-2.21.44c-.58.78-.66,0-.19-1a6.58,6.58,0,0,0,.31-1l-2.06.11s.11.45.29,1c.45,1.16.78,1.5.2.9-2.52-1.49-3.35.53-3.39,1.34a1.78,1.78,0,0,0,3,1.24Zm10.07-22.84,3.71,0c-2.8,14.95-8.54,27.48-18.2,36.1l-18.18-.05-8.76-6.15,3.39-4.42C65.22,157.11,75.05,145.62,80.19,129.22ZM63.46,163.89a1.64,1.64,0,0,0,.82-2.54c-.65-.75-.71-1,.29-.4,1.33.78,2.63-.78,2-2.31a1.75,1.75,0,0,0-2.62-.6c-.81.61-.8.34-.37-.62a8,8,0,0,0,.37-1.24l-2.28,0s.17.54.33.91c.38.86.52,1.25.34,1.26a2.13,2.13,0,0,1-.53-.42,2,2,0,0,0-2.15-.05c-1.36,1.3-.6,3.59,1.14,3.17,1.12-.28,1.37-.7.45.35C60.07,162.74,61.84,164.61,63.46,163.89Zm-14.36-.45a1.53,1.53,0,0,0,.73-2.24c-.53-.71-.8-1.17.15-.53,1.25.64,2.35-.21,2.33-1.64a1.78,1.78,0,0,0-2.93-1.3,1.91,1.91,0,0,1-.51.3c-.15,0,.12-.81.43-1.35.13-.23.35-.7.35-.7l-2.27-.08a8.13,8.13,0,0,0,.3,1.1c.37,1,.45,1.3-.18.74-1.71-1.6-3.54.44-2.82,2.21a1.43,1.43,0,0,0,2.24.5c.63-.49.31.16-.12.67C45.63,162.52,47.34,164.26,49.1,163.44Zm104-37.5.12,2.77L123.8,153.34l-1.23-1.9ZM43.64,131.12c4.24-3,9-8.46,13.6-11.3C60.64,127.67,52.67,135.36,43.64,131.12ZM121,129.68c-3-16.58,14.75-13.13,13.81-11.65ZM25.73,119.54,54.87,95.69l1.33,2L25.46,123Zm79.82-24.06c.09.25,1,1.2,1,1.29-.25-.19-1.75-1-2.48-.22a2.75,2.75,0,0,0-.54,1.76,1.72,1.72,0,0,0,2.88.89c.31-.26.57-.58.63-.47a2.32,2.32,0,0,1-.25.92c-.16.37-.74,1.15-.32,1.15h2.07a4.13,4.13,0,0,0-.32-1c-.47-1-.45-1.55.11-.83,1.09,1.41,3.2.24,3-1.46a1.57,1.57,0,0,0-2.3-1.33c-.1.06-.39.35-.43.35s.19-.46.39-.85c.67-1.28-.33-2.47-1.85-2.34a2.2,2.2,0,0,0-1,.39A1.72,1.72,0,0,0,105.55,95.48Zm25.16-12a49.94,49.94,0,0,0,8.75,6.38l-2.75,4.37C118.06,92.53,104.5,99.93,98.85,120l-3.08.59c1.16-12.52,5.34-24.93,17.69-37.06Zm-17.87,3c0,.59,1.09,1.3.85,1.46s-.76-.5-1-.53c-2.16-.23-2.6,3.13-.47,3.5a2.59,2.59,0,0,0,1.54-.4c.35-.28.58-.51.65-.48s-.16.64-.4,1.09a12.19,12.19,0,0,0-.52,1.27h2.45s-.22-.75-.44-1.29-.34-1.12-.16-1.07.18.23.35.38a1.82,1.82,0,0,0,3-.9c.39-1.34-1.21-2.73-2.33-2-.39.27-.39.07,0-.52a1.77,1.77,0,0,0,0-1.83A2,2,0,0,0,112.84,86.51Zm17.58,4c-.06-.3,0-.21.33.11a1.8,1.8,0,0,0,3.1-.49c.43-1.36-.89-2.91-2-2.38-.59.28-.6.18-.26-.26a1.7,1.7,0,0,0-1.6-2.64,1.65,1.65,0,0,0-1.51,2.49c.27.46.18.56-.3.33-1.41-.69-2.72,1.55-1.69,2.87a2,2,0,0,0,2.81.09c.43-.41.42-.21.11.64s-.56,1.34-.56,1.34l2.43,0A10.35,10.35,0,0,1,130.42,90.49Zm-52.1,30c.71-.18-2.5-10.38-4.85-14.93,2.68-6.43,6.34-12.67.18-21.93l15,0C84,94.12,83.9,120.68,82.81,120.74Zm1.31-11.81a4.37,4.37,0,0,1-.78-1.85c-.09-.53.05-.56.32,0,1.33,1.48,3.14.05,3.15-1.26s-1.25-2.22-2.14-1.62c-.63.42-.8.29-.24-.49a1.61,1.61,0,0,0-1.48-2.51c-1.84,0-2.54,1.74-1.23,3,1,.91.07.37-.7,0-1.51-.63-2.49.9-1.82,2.46a1.59,1.59,0,0,0,2.64.48c.43-.48.84-.75.6,0a10.16,10.16,0,0,1-.79,1.81ZM82,92.52a5.87,5.87,0,0,1-1-2c0-.31.17-.23.67.21,1.61,1.38,3.82-1.1,2.32-2.62a1.26,1.26,0,0,0-1.64-.36c-.75.39-.69.2-.32-.21a1.64,1.64,0,0,0-.08-2.21c-1.64-1.47-4.23.71-2.71,2.28.67.68.35.59-.38.15-1.37-.82-2.9,1.44-1.86,2.78,1.22,1,2.14.53,3-.13.19-.1.35-.14.35-.06s-.85,2.16-.85,2.16ZM62.32,86.23c-.91-.06-1.56-8.63-.45-11.34C64.25,63.45,71.52,55.12,76,48.11,83.29,37.68,82.39,20.34,82.69,21l1,.12s-.79,10.16-.34,14.75c.46,4,.36,4.28.07,4.68-.07.38,0,1.48,0,1.86C80.18,57.4,72.48,72.76,64.53,84.37Zm74.56-26.11L112.39,21.36l5.89-.54c2.18,3.48,23.45,36.6,23.45,36.6Z"/><path id="path3395-8-0-1-6" class="cls-3" d="M36.05,229.47c2.79-10.25-4.76-34.09-9.47-37.2,5.53-.24,12.18-.14,12-.66,0,0,23.51,37.13,23.32,37.33s-25.82.53-25.82.53Zm95.3-58.15c-5.7-.81-3.45-5.56.21-6-.48.08.39-2.37,3.35-3.35.67-1.22,1.19-3.31,1.81-4.28-1.77.58-3.92,2.08-12,.9.7-3.83,8.4-4.48,11.17-3.89,1.61.37,3.19,2.77,3.67,2.82,4.94-.83,11.23,3.66,9.33,8.22-.3.65-1-.78-2.71-1.38-5.38-2-5.75-4.88-7-6.19-.45-.08-2.82,4.64-2.82,4.64l.74,3.21c1.29-.12,7,3.44-.12,5.84-2,6.83-5.68,2-5.67-.49Zm13.5-30.48c-.3-.31.24-2.43,1-3.65a2.11,2.11,0,0,1,1.83-1c.94.16.79,1.54-.46,5.57C147.13,142.33,145.85,142.39,144.85,140.84ZM31.38,112.62c-1.57,0-.16-4.28.8-5.63.31-.42,1.56.47,1.63,1.09C33.92,109.19,32.23,113.06,31.38,112.62Zm-1.11-29c1.91.46,4.92,2.39,6.36,3.45,1.79,1.34,1.3,4,2.73,4.21,1-.48,2.74-4.79,2.74-4.79s.45-2.22-.81-2.9c-3.14-1.7-3.09-3.53-2.89-3.7.93-2.42,2.79-2,3.79-2.12,0-1.33,0-4.13,2.71-3.84,2.39.23,2.63,3.66,1.62,3.69,0-.06,4.52-.65,4.48,2.35,0,1.63-2.72,3.72-3.56,3,0,0,.45,3.25-3.62,4.37-1,1-1.72,5.1-1.72,4.73,2.45-2.22,6.29-2.74,12.36-1.94-3.76,7-14.14,3.72-15,2.36C34.28,90.84,29.38,88.78,30.27,83.59ZM75,66.83c5.53.51,11.58-1.23,16.17-.31.53.07,1.1.85,1.41,1,2.38,1.3,4.87.9,8.69-.55.94-.36,18.47-.23,18.47-.23,4,5.92,11.09,17.06,11.24,16.68,0,0-9.71-.11-14.19.16-3.15.19-1.3.62-3.48.71C98,95.86,95.08,120.81,95.08,120.81s4.87-1.28,6.14.07c6-17.69,17.45-25.76,33.39-24.18,7.36.73,16.15,8,16.15,8L135,117.58c-12.21-6.18-17.44,12-13.74,12.09l31.74-26s.55,2.13.49,2.2c-2.26,3-40.1,33.82-40.1,33.82l-1.66-1.85s-1,.93-1.6,1.55A3.41,3.41,0,0,0,111.2,142c-7.5,6-7.75,17.12-2.22,23.17,0,0-2.45.17-2.71.22-3.11.53-6.33-14.88-.16-22.06-3.12-6.13-5-14.47-5.42-14.86.08,1-4.92.66-4.92.66a169.29,169.29,0,0,1-4.66,36.45l23,.5-9.78,17s-11-.27-15.7-.61c-4.93-2.88-7.78-.69-12.41.38-6.59.19-16.29-.11-16.29,0a79.61,79.61,0,0,0-11.63-17c-.61-1,19.51-.39,19.51-.39s10-15.28,11.89-19.59c1.42-3.37,4.63-15.62,4.63-15.62.15.64-1.82-3.19-6.42-3.1C74.07,152.53,44,161.08,26,144.74l-.17-3,39.83-32.44,1.77,2.06c-.38-.31-24.45,19.8-24,19.67,7.13,3.75,15.39.72,14.43-11.59a135.07,135.07,0,0,0,15.58-13.76c.11-.19,5.49,12.13,5.36,14.5,3.1-1,4.93,1.15,4.87.77-1.11-7.12,5.1-34.14,5.22-37.25-3.45-.27-8-.15-15.21-.43,5.77,11.2,3.77,18.79-4.29,25.7l-1.69-2.13c.68.38,11.77-9.25,2.85-23.65-.41,0-4.71-.39-4.71-.39S74.56,68.82,75,66.83Zm42.8-46.31s25.14-.6,25.15.14A59.17,59.17,0,0,0,152.9,58s-11.14-.4-10.94-.26Z"/><path id="path3393-8-5-4-3" class="cls-4" d="M154.7,19.56H24.08V230.09H154.7Zm-12.28.92s-1.69,22.28,9.9,36.88c-7.08-1.08-11.13,0-15.25,2.93l.56.58c5.68-3.5,10.49-2.58,15.42-2V87.52c0,1.39-5.9.77-9.52-2a17.07,17.07,0,0,1-4.92-4.76c-.31-.49-.63-1-.71-1.08-.33-.38-2.4-4.24-6.19-11.55-1.92-3.71-4.47-8.78-6.54-12.71-1.34-2.55-3.83-7.35-4-7.73-.37-.8-3.08-6.11-4.13-8-2.79-5.1-7.29-14-8.89-17.2-.36-.82-.9-1.21.07-1.18a3.58,3.58,0,0,1,.55.05c.17.08.38-.29.38-.29ZM25.89,141.07v-2.25l38.05-31.46,1.21,1.57ZM62.74,86a4.86,4.86,0,0,1-.5.17c-1-4.36-.42-10.2.73-14.58,1.67-6.09,4.8-11,8.29-15.89C79.22,44.48,82.74,36,82.6,21l1.14.12c0,2.38-.36,4.17-.45,7.33a56.2,56.2,0,0,0,.27,9.28c.18,1.63.28,2.68,0,2.9a1,1,0,0,0-.13.87c0,.45-.08,1.36-.08,1.36-1.82,9-11.6,31.94-20.62,43.15Zm4.75,20.38-2-2.48a1.74,1.74,0,0,1-.16-2.67c4-4.09,4.05-9.3.16-14-.26-.59,1.21-3.59,1.21-3.59l3.06,0C74.52,89.52,75.83,99.82,67.49,106.36ZM70.3,83.22c.1-.4-4.53-.25-4.53-.25,2.87-4.3,5.32-8.73,7.72-13.17,3.73-6.72,8.9-18.49,10.52-27,1.21,10,3,24.79,11.47,25.38,2.79.19,6-1.73,6.55-1.41l17.67-.14a68.67,68.67,0,0,0,12.13,17.17,45.46,45.46,0,0,0,11.26,4.38c2.22.55,2.43.18,6.81.81a8.89,8.89,0,0,0,2.89-.33c-3.49,2.77-7.53,2-12,.8-.25-.07-.51-.14-.77-.23l-3.35,5.06c-7.47-1.77-31.44-.52-37.76,25.65,0,0,.65.33.5.15,5-22.71,26.22-27.24,36.32-25l-.86,1.34c-16.77-2.06-30.43,8.47-33.68,23.4l.33.29c6.29-22.57,32.74-30.93,49.14-15.28l3-2.14-.1,2.9-40.32,33.91-1.61-1.67-.61.48c-1,.87-1.45,1.09-1.16,1.57s1.43,1.58,1.48,1.7c-6.69,5.47-8.81,16-2.46,23.41.71.79.58,1,.45.11-5.7-6.22-5-17.24,2.13-22.46l1.43,1.89c-3.13,6.89-4.79,17.65,3.43,18.58,3,7.94-.44,17.33-4.23,23.63-4,7.26-8.87,13.29-11.9,21.19-1.48,3.3-3.83,13.09-3.7,20.56h-.89c0-3.05.2-6.67.23-9,.12-11.27.11-10.6.36-10.89.08-.09.32-.19.34-.27s-.18-.36-.27-.63a4,4,0,0,1-.22-1.2c0-.42.4-1,.33-1.16-1.77-6.22-1.91-17.4-7.63-22.54-2.8-2.41-6.52-2.51-11.34-.53-10.63,0-9.06.57-17.65.08a79.73,79.73,0,0,0-12.52-17.61c-2.18-2.44-5.21-3.78-8.06-5.55a13.84,13.84,0,0,1,3.86-4.8,7,7,0,0,1,.87-1.23c29,2.8,35.24-25.36,33.92-24.65l-.26.23c-7.91,29-36.09,28-50.25,15.41,0,0-2,1.74-2-.17,0-1.74.63-2.25.63-2.25l39.75-32.54c.73.46,1.51,2,1.83,1.84.74-.39,1.82-1.18,1.78-1.65a19.39,19.39,0,0,0-1.45-2.61c10.63-11.06,5.84-16,2.42-23.57ZM85.37,21.09a.59.59,0,0,1,.51.31c.24.38-.72,2.62-1.32,3s-.61-.06-.2-2.23A1.25,1.25,0,0,1,85.37,21.09Zm58.33.07h9.35V56.64C146.17,46.93,142.61,35.77,143.7,21.16Zm-55.86.06c.23,0,.44.05.5.22.24.6-1.11,3.18-2.78,5.33-.87,1.11-1.31,1.43-1.58,1.17-.22-.51-.22-1.1.58-2a20.08,20.08,0,0,0,2.24-3.54C87,21.79,87.2,21.26,87.84,21.22Zm9.46.13c.27,0,.54,0,.62.12a18.37,18.37,0,0,0,7.73,7.85c.45.26.24.9.39,1.36-3.48-.52-8-5.47-9.27-9.08C96.77,21.33,97,21.34,97.3,21.35Zm5.44,0c.69.71,1.78,1.56,2,2.37a2.55,2.55,0,0,1,.15,1.33c-.6.38-3.61-3.12-3.49-3.53A1.54,1.54,0,0,1,102.74,21.34Zm-13-.05c.3,0,.75,0,.81.22C90.9,23,87.43,29,84.9,30.67c-.9.6-1,.44-.89-.57,0-.67.11-.62,1-1.5a17.83,17.83,0,0,0,3.55-5C89.61,21.44,89.37,21.3,89.71,21.29Zm2.36,0a.88.88,0,0,1,.72.26c.12.2,0,.52-.15.92a26,26,0,0,1-7.32,10.58c-1.3,1-1.52,1-1.61,0-.06-.6.22-.78.83-1.2A17.74,17.74,0,0,0,91,23c.21-.68.13-1.29.5-1.5A1.27,1.27,0,0,1,92.07,21.32ZM109.65,27c.13.23,1.1,1.76.31,1.18a23.26,23.26,0,0,1-1.86-2c-2.23-2.54-2.3-2.38-2.25-3,0-.83-.57-2.18.7-1.83C107.8,22.74,108.58,25.11,109.65,27ZM99.5,21.37a3.63,3.63,0,0,1,.8.09c1.47,2.77,5,5.2,5,5.19a5.38,5.38,0,0,1,0,1.42c-.08.37-5.7-3.91-6.32-6.48C99,21.43,99.24,21.37,99.5,21.37Zm-4,.05c1.32,2.43,4,8,10.43,10.18.46.1.95,1.41.6,1.77a18,18,0,0,1-12-11.92A1,1,0,0,1,95.5,21.42Zm-1.72.47c-.22,0,3,9.39,12.25,12.18.79.25,1.26.6,1.21,1.07s0,.68-.93.23a10.17,10.17,0,0,0-9.1-.41c-.47.24-.94.89-.57,1.3.22.21.75.05,1.42-.21,3.49-1.36,8.83-.56,9.77,1.58.67,1.52.78,2.64.42,2.83s-.76-.37-1.59-1.11c-2.65-2.33-5.82-3-8.35-.74-.54.49-1.08.4-1.27.6s0,.63.19,1.06a1,1,0,0,1,0,.94,4.06,4.06,0,0,0-.2,1.67c.06,1.2.85,2.23,3.12,3.81,1.76,1.23,3.15,1.92,1,.17-3.72-3-4.39-4.25-2-3.21s5.74,0,8.1-1.81c.8,0,1.28-.15,1.7.16,1.76,4.15,3.2,9.67,5.54,15C111.71,60.19,102,68,95,67.67c-6-.24-8.1-10.08-9.42-15.52a34.09,34.09,0,0,1-.9-7.89A.35.35,0,0,1,85,44.2a11.28,11.28,0,0,0,3.6.12c1.6-.38,1.92-.66,2-.43s-.55.91-1.71,1.7c-.51.35-2,1.06-1.82,1.17.35.23,2.13-.72,2.43-1,.46-.4.78-.42,1-.2s.31,0-.54,2.12c-.95,2.36-.86,2.57,1,4A8.34,8.34,0,0,1,92.31,53c.18.29.3.63.38.74.32.42.12-.26-.06-1.33a4.13,4.13,0,0,0-1.54-2c-1-.71-.85-1.4,0-3.79,2.46-7.07,1.84-10.22-.87-11.76-1.23-.69-4.65-.5-5.73.4-.53.45-.46-.43-.37-.49,6.5-4.48,8-8.76,9.68-12.89Zm12.55,3.46a77,77,0,0,1,5.53,6.11,26.62,26.62,0,0,1,1.76,2.92c.11.18.23.38.15.47s-.3-.12-.45-.23c-1.35-1-6.93-7.41-6.93-7.41C106.13,26.16,106,25.81,106.33,25.35Zm1.1,4.33S112.27,35,115,37.59a30.2,30.2,0,0,1,1.56,3.09c0,.12-.59-.33-.59-.33-3.06-2.83-5.89-6-8.83-9,0,0-.23-1.25-.23-1.76C107,29.31,107.31,29.59,107.43,29.68Zm10.5,13.6c.65,1.06,1.12,2,1.44,2.64.51,1,.34,1-.12.65-3.46-2.84-6.36-6.31-9.62-9.48-.42-.44-1.26-1.41-1.26-1.41s-1.07-2.29-.38-2.24c.54.21.89.8,1.23,1.17C110.93,36.45,114.19,39.6,117.93,43.28ZM87.74,35.7a4.39,4.39,0,0,1,3.54,1.2c.64.8.9,2.07.55,2.44s-1-.42-1-.42c-3.36-1.89-4.52-1-6.34-.43-.26.08-.54-.62-.21-1.32.67-1.16,2.37-1.44,3.48-1.47Zm21.15,1.79c3.59,3.62,7.25,7.64,11.14,10.75.54.47.92.77,1.17,1,.51,1,1.69,3.46,1.69,3.46-4.17-2.93-13.56-13-13.46-12.95S108.65,37.92,108.89,37.49Zm-7,.6a5.19,5.19,0,0,1,1.94.43c1.82.72,3,1.49,1.08,1.23a14.07,14.07,0,0,0-4.46-.22c-1.78.29-1.91.48-2.07.2C97.93,39,99.88,38.11,101.85,38.09ZM87,38.3a5.12,5.12,0,0,1,2.06.45c2.21,1,2.6,1.6.72,1.3a11.64,11.64,0,0,0-4.06.19,5.8,5.8,0,0,0-1,.38c-.46.14-.58-.2-.39-.77A2.61,2.61,0,0,1,87,38.3Zm16,2.84.46,0c-.57,3.25-3.8,2.93-4.67.14h.45C101,44,102.28,42.4,103.06,41.14Zm1.8.17c1.5,0,1.4.88-.16,1.48-1.19.47-1.32.38-.89-.51S104.19,41.31,104.86,41.31Zm-15.38.11a2.09,2.09,0,1,1-4.16.28l.38,0c1.33,2.51,2.87,1,3.35-.26Zm1.81.4c.46.32.17.75-.83,1.36s-1.13-.11-.39-1.06A1.05,1.05,0,0,1,91.29,41.82Zm7,0c.18-.06.6.73.24.92-.21.12-.53-.21-.57-.45A.45.45,0,0,1,98.33,41.82Zm12.16.18a102.82,102.82,0,0,0,13.42,12.53,26.37,26.37,0,0,1,1.37,2.8c-.19.24-.29.22-.85-.06a91.56,91.56,0,0,1-13.84-13.5C110.41,43.13,110,42.5,110.49,42Zm-25.84.3c.31,0,.74.68.51,1.1-.2.15-.51-.09-.64-.28a.77.77,0,0,1,0-.69A.21.21,0,0,1,84.65,42.3Zm27,4.15c0-.1,12.61,12.74,14.23,12.5.75.44,2.63,4.1,2.63,4.1s0,.33-.26.17c-2.14-1.06-11.06-8.49-15.62-14A21.68,21.68,0,0,1,111.62,46.45Zm-15,1.89c2.2,1.07,1.25,3.26-1.07,1.86C93.72,49.09,92.27,49,92.28,50a1.09,1.09,0,0,0,1,.93,17.08,17.08,0,0,1,2.62.59c1.38.29,2.42-.07,2.77-.92a2.22,2.22,0,0,0-1.74-2.92c-.92.09-.69.53-.29.71Zm17.43,3.51a89.33,89.33,0,0,0,15,12.78,24.8,24.8,0,0,1,1.33,2.71c0,.2-.23,0-.23,0-4.43-2.57-10.28-7.67-15.81-13.45a14.15,14.15,0,0,1-.7-2.12C113.8,51.72,113.93,51.8,114.05,51.85ZM99.44,54.4c-.2,0-.47.33-.8.51-.67.37-.89.47-2.54,0-.9-.27-1-.25-1.58.15a1,1,0,0,1-1.26.17c-.94-.42-1.38-.11-2.25.19s-1.11-.06-1.86-.23a17,17,0,0,0-.05,3.12s.78-.46,1.2-.67c.73-.37.62-.31,1.68-.27a8.26,8.26,0,0,0,4.16-.23,3.24,3.24,0,0,1,3.21.44c.55.45,1.27.37.85-.45a5.37,5.37,0,0,1-.44-1.73c.06-.59-.07-1-.28-1Zm16.68,2.36c3,2.85,6.61,7.2,15.19,12.24.45.79,1.06,1.83,1.44,2.65,0,.22,0,.42-.24.35A71.79,71.79,0,0,1,116.9,59.7a18.47,18.47,0,0,1-1.32-3C115.66,56.4,116,56.69,116.12,56.76Zm-1.25,1.09L118.15,64l-11.06,0A42.88,42.88,0,0,0,114.87,57.85ZM96.54,58c-1.82.72-2.09.87-3.89.43-1.05-.26-.76.35-.23.61a4.81,4.81,0,0,0,4.06-.32C97,58.4,97.29,57.69,96.54,58ZM94.67,59.9c-1.9,0-3.69.69-3.82,1.46,0,.15.12.32.42.14,1.29-.77,4.49-1,6.91-.15.39.14.46-.1,0-.44A5.51,5.51,0,0,0,94.67,59.9Zm24.14,2.64a70.72,70.72,0,0,0,14.74,10.81,18.94,18.94,0,0,0,1.5,2.79C127.83,72.63,120,65.68,120,65.68a25.71,25.71,0,0,1-1.53-3.16C118.41,62.2,118.71,62.46,118.81,62.54Zm2.46,5.17a83.14,83.14,0,0,0,14.11,9.39c.3.3,1.06,2.1,1.31,2.29s-.3.2-.84-.08c-3.94-1.82-12.37-7.64-12.37-7.64C122.67,70.34,121.51,69,121.27,67.71ZM42.4,91.09A40,40,0,0,0,44,87.19a3.76,3.76,0,0,0,3.32-1.47c.91,0,1.6,0,2.84-.06,0-1.23,0-3,0-3,1.25-1.3,2.1-2.8.16-5.09,0,0-.08-1.07-.11-2.89a19.88,19.88,0,0,0-2.91,0,3.14,3.14,0,0,0-5.38,0s-1.3.07-2.19.07c0,.49-.17,2.64-.17,2.64S35.8,80,39.73,83l0,2.57a15,15,0,0,1,2.22.2s-1.5,3.5-2.49,5.17c-.34.09-.26-.11-.67-1.27a9,9,0,0,0-2.54-3.61c-1.28-1-3-1.3-4.25-2.16s-2-1.9-2.39-1.7a12,12,0,0,0,.19,4.35C30.37,89.1,34,90.72,37,91.93c.23.15.44.38.44.46,0,.42-.4.29-1.39.19a2.13,2.13,0,0,0-2.65,1.55,7.72,7.72,0,0,1-.84,1.23,4.76,4.76,0,0,0-.66.86c-.05.16-.36.94-.67,1.59a3.48,3.48,0,0,0-.53,1.42,31.26,31.26,0,0,0,.18,5.79c.19,1.12,1.61,1.77,2.1,1.86.75.15.89.91.77,1.53-.58,3.09-2.34,5-2.91,4-.15-.26-.31-1.52-.35-1.51a4.29,4.29,0,0,0-.19,1.5,1,1,0,0,0,1.28.6c.87-.32,1.55-1.18,2.08-3.13.22-.8.43-1.25.8-1.31.69,0,1.75,1.46,1.75,1.46-3.54,3-10.35,8.36-10.35,8.36V21.16H81.81A48.87,48.87,0,0,1,78.44,42.3C75.17,49.69,70.1,55.19,66.22,62a36.51,36.51,0,0,0-4.58,25.32A58.14,58.14,0,0,1,49,99.54s-2.87-3-4.46-4.73c0,0,.67,0,1.46-.08,3.64-.41,7.57-.93,9.09-4.73.22-.42.12-.61-.13-.67-2.85.4-5.32,0-6.94.11-3.94.28-5.61,1.65-5.61,1.65Zm.43,2.8s-4.57-2.18-4.9-2.24c-2-.36-6.8-2.87-7.61-4.58-.1-.22-.37-3.34-.46-4,0-.2.12-.19.31,0,.52.36,2.51,1.66,3.24,2,3,1.48,4.21,2.53,5,4.76a6.77,6.77,0,0,0,.49,1.26c.25.26.35.24.65,0A15,15,0,0,0,42,86.17c.08-.2.25-.4.15-.7-.24-.8-.82-1.83-.22-2.62-1.9.09-3.72-1.3-3.49-2.7.51-2.59,1.6-2.12,3.65-2.5-.24-6,5.34-4.53,5.33-.36,6.13.52,3.23,6.21-.33,5.34,1.41,3.23-2.83,4.44-3.43,3.89-.24,1-1.85,4.42-2.19,5.42,4.54-3.24,11.85-1.8,12.91-2C51.75,95.47,43.12,94.12,42.83,93.89Zm81.8-20.4c1.15.89,10.94,7,12.74,7.17,0,0,.87,1,1.58,1.86s.91,1,1,1.12-.26.16-.31.15c-4.4-1.92-8.88-3.94-12.68-7.13a4.46,4.46,0,0,1-.88-1C125.73,75.24,124.73,73.65,124.63,73.49Zm3.24,5c4.48,2.53,8.28,5,12.36,6.29a5.35,5.35,0,0,1,1.16.44c.29.2,1.54,1,1.83,1.15,1.86,1.09,2.05,1,1.59,1.23s-3.78-.76-6.54-1.78c-4.89-1.82-6.62-2.85-8.39-4.45C129.48,80.9,127.62,78.67,127.87,78.44ZM38.68,92.52a2.94,2.94,0,0,1,1.61.71,22,22,0,0,0,3,1.9,4.46,4.46,0,0,0,.46.18l4.4,5-11.33,9.24s-.92-.94-1.21-1.26-.2-.54.15-.88a1.47,1.47,0,0,0,.25-1.15,1.21,1.21,0,0,1,.48-1.31,1.3,1.3,0,0,0,.49-1,1.44,1.44,0,0,1,.61-.81,1.77,1.77,0,0,0,.77-2.13c-.11-.35-.17-.44.28-.74a2.12,2.12,0,0,0,1.07-1.85,1.37,1.37,0,0,0,0-.36c-.16-.84.58-.62,1.19.43a8.79,8.79,0,0,1,.59,2.6c.19,1.26.33,1.61.4,1.43.39-1-.07-4.86-1.24-5.38-1.7-.77-3.12-2.32-2.69-2.93.15-.21.17-.14,1.21.34a9.91,9.91,0,0,0,1.25.52c1.2,0,.47-.48.08-.54a5.29,5.29,0,0,1-2-1.22C38.15,92.78,38.3,92.53,38.68,92.52Zm-2.9.66c1.11,0,1.32.29,1.33,1.24,0,.57.22,1,1.1,2.13.36.46.6.81.58,1s-.15,0-1.37-.16c-.43,0-.65-.06-.8.17-.42.62-1.31,0-1.86-1C33.46,94.4,33.92,93.2,35.78,93.18ZM56.87,94.5l12.05,14.8-1.36,1.06L55.47,95.76Zm-2,.91,1.29,2.19s-3.73,3.2-4.71,4.1c-7.93,6.45-25.83,21.08-25.83,21.08l-.24-2.94Zm-21.74.4c.24,0,.51.3.89.89a12.94,12.94,0,0,0,1.79,2.22c1.47,1.36,1.61,1.23.42,1.36-.47,0-.63,0-.92.72-.87,1.1-3.45-2.82-2.85-4.32C32.69,96.09,32.89,95.8,33.12,95.81Zm4.2,2.12a1.56,1.56,0,0,1,.84.27c.64.26.68.42.58,1s-.55.74-1.42,0c-.67-.63-.55-1.25,0-1.27Zm19.22.36L58,100.12,25.89,126.2v-3C26.67,123.3,47.23,105.33,56.54,98.29Zm-24.9.3c.08,0,.22.27.57.81a9.15,9.15,0,0,0,2.15,2.39c.72.55.8.85.31.85a1,1,0,0,0-.65.49c-.3.52-.33.4-.8.12a3.48,3.48,0,0,1-1.61-1.77,5.12,5.12,0,0,1-.08-2.67C31.57,98.67,31.6,98.59,31.64,98.59Zm5.07,2.08a1.06,1.06,0,0,1,.86,1.7c-.3.29-.57.43-1.17.08-.79-.47-.93-1.19-.28-1.59A1.08,1.08,0,0,1,36.71,100.67Zm-5.27,2.07c.17,0,.48.24,1,.77a6,6,0,0,0,1.37.92c.62.35.65.47.31.75-.14.12-.61.13-.74.5-.37,1.09-1.93-.17-2.08-1.72C31.22,103.18,31.22,102.75,31.44,102.74Zm3.92.13a1,1,0,0,1,.69,1.83c-.44.32-1.56-.25-1.68-.84C34.3,103.48,35,102.85,35.36,102.87Zm24,.89a1.08,1.08,0,1,1-1.08,1.08A1.08,1.08,0,0,1,59.31,103.76Zm-3.21.44A1.08,1.08,0,1,1,55,105.28,1.08,1.08,0,0,1,56.1,104.2Zm-21.54,1.45a.67.67,0,0,1,.2,0c1,0,1,1,.45,1.49a.75.75,0,0,1-1.12,0C33.28,106.53,33.58,105.7,34.56,105.65Zm23.93,1.58a1.08,1.08,0,1,1-1.08,1.07A1.08,1.08,0,0,1,58.49,107.23Zm94.43.06V110L115,141.73l-1.29-1.68Zm-96.61.23-2.81,6.33-.84-1.63h-2.1l.64-1.89L50,108.82Zm59.76,26.33,5-4c-2.15-10.9,6.44-15.24,14.59-12.07l5.08-4.34C131.31,105.46,109.17,110.86,116.07,133.85Zm-67.61-21.3a1.08,1.08,0,1,1-1.07,1.08A1.08,1.08,0,0,1,48.46,112.55Zm-3.26.26a1,1,0,0,1,1,1,1.06,1.06,0,1,1-1-1ZM62.57,115l-5,4c1.28,10.43-3.77,15.74-14.64,12.17l-5.26,4.18C51.92,145.15,70.5,132.51,62.57,115ZM47.33,116A1.08,1.08,0,1,1,46.25,117,1.07,1.07,0,0,1,47.33,116Zm104.21.27a1.08,1.08,0,1,1-1.07,1.08A1.08,1.08,0,0,1,151.54,116.22Zm-106.44.26-3.16,6.29-.79-1.89-2.13,0,.69-2.2-1.33-1.13Zm102.19.66,1,1.67,2.08,0-.78,1.58,1.5,1.55-6.77,1.68ZM37.55,121.71a1.08,1.08,0,1,1-1.08,1.08A1.07,1.07,0,0,1,37.55,121.71Zm-3.1.12a1.08,1.08,0,1,1-1.07,1.08A1.08,1.08,0,0,1,34.45,121.83Zm107.6.64a1.08,1.08,0,0,1,0,2.16,1.08,1.08,0,0,1,0-2.16Zm11,.17V125l-30.82,25.72-1.3-1.67ZM36.61,125a1.08,1.08,0,1,1-1.08,1.08A1.07,1.07,0,0,1,36.61,125Zm107.64.26a1.08,1.08,0,1,1-1.07,1.08A1.08,1.08,0,0,1,144.25,125.24Zm-3,.19a1.08,1.08,0,1,1-1.08,1.08A1.07,1.07,0,0,1,141.21,125.43Zm12,.38-.09,3.06c-9.6,8.21-29.24,24.54-29.17,24.55l-1.49-2.06S144,132.74,153.23,125.81Zm-118.6-.44-3,6.7-1.28-1.8-1.87-.13.45-1.81-1.72-1.18ZM137.34,128l1.89-.37-.33,1.95,1.33,1.4-7,1.54,3.36-6.27Zm10.41,32.68c1.41,2.12,1.32,4.44.73,4.79a21.49,21.49,0,0,0-1.81-1.24c-3.24-1.4-5.83-2.56-6.3-4.63C138.6,155,146.57,158.94,147.75,160.7Zm-17.06-12.42,10.92-8.93a11.08,11.08,0,0,1,2,1.26c.12.43-.19.57-.63,1a1.6,1.6,0,0,0-.35,1.09c0,.61.19.88-.05,1.15-.41,0-.74.52-.73,1s-.42.7-.67.95c-.45.45-.59.54-.88,2.05,0,.15,0,.55-.23.75-.63.06-1.09,1.61-1.37,1.71a1.85,1.85,0,0,1-1.38-1.43,7.34,7.34,0,0,1,.05-2.28,6.79,6.79,0,0,0,.17-1.74c-.12-.45-.42-.17-.41.46a11.05,11.05,0,0,1-.26,1.75c-.16.73-.61,1.7-.41,2.27.3.85,1.39,1.21,1.88,1.67a7.18,7.18,0,0,1,1.72,2c1,1.9,1,2.22.78,3.65-.15.82-1,.68-1.43.35,0,0-3.07-2.25-4.4-3.36a15,15,0,0,1-4.31-5.33Zm4.15,6.13a35.74,35.74,0,0,1,4.22,2.7l-2.78,5.8a11.59,11.59,0,0,1,.71,3.17c3.51-.27,5.41,5.67-.06,5.12.63,3.68-5.27,6.56-5.11,0-6.14.48-4.08-6.51-.29-5.19-.12-3,1.85-3.35,3.24-4.07a12.71,12.71,0,0,0,1.83-4.22l-.28-.89h0c-1.16,2-6.12,2.63-11.57,1.55,1.48-3.51,5.95-3.41,10.09-3.94ZM124,158.83c-.19.7-.19.69.65.6.42,0,2.13,0,3.32,0,2.2.17,5.65.19,7.38-1.14.33-.32.52-.29.58-.12.15.86-1.53,3.67-1.53,3.67l-2.78,1.54s-1.13.05-2.54,0l0,2.5a3.26,3.26,0,0,0,0,5.61l-.1,2.73,2.68.05c1.78,1.71,3.23,1.7,4.86.09h3.09v-3a3.25,3.25,0,0,0,.18-5l0-3-2.37,0s-.5-.38-.51-.69a42.32,42.32,0,0,1,2.07-4c.43-.63.31-.27,1,1.17,1,2.06,2,2.9,4.47,4.12a13.56,13.56,0,0,1,3.69,2.21c.52.5.82.34,1-.4a6.06,6.06,0,0,0-.6-4.79c-1.91-3.18-5.22-3.32-5.75-4.06-.07-.17.61-.38,1.33-.7a10.32,10.32,0,0,0,3.33-4,5.84,5.84,0,0,1,.47-2.17,4.6,4.6,0,0,0,.27-2.31,5.19,5.19,0,0,1,.08-2.33,5.07,5.07,0,0,0-.88-2.8c-.21-1-.16-.77.51-3.11.11-.38.86-3.64-.1-3.86,0,0,.1.13.12.18a5.48,5.48,0,0,1-.14,3c-.75,2.62-.76,2.93-1.45,2.7a14.07,14.07,0,0,1-1.4-1,13.3,13.3,0,0,1,.24-2.44c-.15.41-.25,1.48-.73,1.73-.25.06-.61-.17-1.27-.75-.26-.22-.8-.6-.8-.6s7.75-6.67,10.68-8.88v98.77l-55.67,0c-.7-6.12,1.14-14.22,4.17-22.32,1.88-5,4.57-8.73,7.61-13.22,5.82-8.55,10.23-17.23,8.53-28.24a17.37,17.37,0,0,1-.37-2.86,32.16,32.16,0,0,1,5.57-7.06c3-2.47,7.2-6.16,7.54-5.94a13.32,13.32,0,0,0,3.75,4.69c.27.3.28.56-.35.7-4.16,0-8.44.88-9.83,4.57ZM27.13,130.77a1.08,1.08,0,1,1-1.07,1.08A1.08,1.08,0,0,1,27.13,130.77Zm104.29.24a1.08,1.08,0,1,1-1.08,1.08A1.07,1.07,0,0,1,131.42,131Zm2.34,3a1.08,1.08,0,1,1-1.08,1.08A1.08,1.08,0,0,1,133.76,134Zm-3.48.46a1.08,1.08,0,1,1-1.08,1.08A1.08,1.08,0,0,1,130.28,134.43Zm-3.84,2.46,1.94-.09a15.64,15.64,0,0,0-.51,2.15l1.58,1.17-6.85,1.17,3-6.1Zm-4.68,17.78-11.53-15,1.39-1.13,11.63,14.8Zm-1.41-14.53a1.08,1.08,0,1,1-1.07,1.08A1.08,1.08,0,0,1,120.35,140.14Zm24.24,1.67c.93.73,0,1.76-.9,1.35a.76.76,0,0,1-.1-1.43A.91.91,0,0,1,144.59,141.81Zm1.24.7c1,0,2,2.3,1.83,3s-.55.81-1.91-.34-1.35-1.19-.81-1.8c.3-.35.44-.81.89-.83Zm-22.82.42a1.08,1.08,0,1,1-1.07,1.08A1.08,1.08,0,0,1,123,142.93Zm-3.33.41a1.08,1.08,0,1,1-1.08,1.08A1.07,1.07,0,0,1,119.68,143.34Zm23.62.77c1.06.16,1.33,1,.85,1.56-.67.81-2.15.08-1.8-.89a1,1,0,0,1,1-.67Zm1.9,1.22c.41,0,1,.54,1.73,1.49s.83,1.43.61,2.08c-.32,1-.52,1.13-1.21.2a20,20,0,0,0-1.3-1.63c-.92-1-1.06-.72-.51-1.46C144.77,145.67,145,145.35,145.2,145.33Zm-2.5,1.13c1,.49,1.05,1.13.49,1.59a1.64,1.64,0,0,1-2.06-.73C140.79,146.36,141.81,145.87,142.7,146.46Zm1.62,1.42c.54,0,1,.52,1.64,1.59,1.13,1.82,1.19,2.44.23,3.64-.69.86-.76.91-1.43-.47a10.73,10.73,0,0,0-2.57-3.23c-.41-.33-.55-.79-.26-.82l.8,0a1.19,1.19,0,0,0,1-.37A.91.91,0,0,1,144.32,147.88Zm-3.87,1.42a2.17,2.17,0,0,1,1.63.81c.55.58.48,1.11-.59,1.21-.48.19-1.8-.67-1.81-1.25A.73.73,0,0,1,140.45,149.3Zm2.53,2.11h.08c.45,0,.68.46,1.19,1.48.78,1.57.55,2.42-.79,3.12-.92.47-1.61.61-1.73.07,0-.16,0-.61-.11-1.05a4.6,4.6,0,0,0-.75-2c-.82-1.24-1-1.68-.06-1.32a1.73,1.73,0,0,0,1.54-.12,1.66,1.66,0,0,1,.63-.21Zm-4.56,2.52c-.31,0-.51.19-.43.7.28.14.73,0,1.07.13s.74.91,1.23.79c.05-.63-1.18-1.6-1.87-1.62ZM45.33,164.86c-2.52-1.2-8.74-4-11.74-4-5.57-1.57-5.75-.86-7.7-1.36a20.53,20.53,0,0,1,19.84,5C46.91,165.65,46.27,165.31,45.33,164.86ZM51.9,189.3c5.91,10.29,11.42,21.89,20.65,39.08l-.88.28-35.23.06c1.74-19-8.48-37.07-9.17-36.37,8,.15,14.61-1.39,16-4.35l-1.14-.32c-4.65,4-11.61,4.21-16.25,3,.1-9.89-.31-20.34,0-30.23a14.05,14.05,0,0,1,12.91,5.64C43.91,172.82,47.38,181.42,51.9,189.3ZM35.74,161.89c1.42-.11,9.13,3.07,12.58,5.45a19.83,19.83,0,0,1,2.36,2.9c0,.46-.68-.11-4-2A78.65,78.65,0,0,0,39,164.57l-.35-.15a3.69,3.69,0,0,0-.52-.47c-.9-.7-2.67-1.95-2.38-2.06Zm3.75,3.61a56.6,56.6,0,0,1,13.8,7.7,11.39,11.39,0,0,1,1.82,3.09c-.55-1-10.26-6.86-13.67-8.2Zm2.73,3.72c.42-.25,11.71,6.45,13.37,8.17a11.76,11.76,0,0,1,2.51,3.94c0,.5-.54.07-1.55-.87A53.68,53.68,0,0,0,43.77,172Zm2.09,3.89c5.31,2.26,12,7.68,15.33,10.9a6.33,6.33,0,0,1,1.56,2.61c.07.35-.11.33-.18.51-4.35-5-13.93-10.75-15.2-11.2A19.94,19.94,0,0,1,44.31,173.11Zm17.62,15.65c.61.63,1.57,2.82,1.36,3.09s-.1.06-.35-.12A99.87,99.87,0,0,0,48.4,180.38c-.56-.28-2.44-3.26-2-3.32,3.12,1,12.06,8.19,15.57,11.7ZM49,181.64a3,3,0,0,1,.61.32c5.5,3,13.46,10.71,15,12.55a5.12,5.12,0,0,1,.84,2.25c-.07.5-.27.08-2.49-2.12a79.86,79.86,0,0,0-12-9.76c-.84-.58-.68-.65-1.29-1.72s-.85-1.53-.62-1.52Zm35.15.12c3.93.11,5.46,3.09,7.88,8.59a45.51,45.51,0,0,1,2.89,14.34c0,.26-.47,0-.69,0a7.37,7.37,0,0,0-3.88-.17c-1.11.29-2.17.25-1-.5.37-.24,1.37-1.17,1.9-1.5,1.08-.67.42-.66-.64-.14-.81.4-1.35.91-1.69,1s-.07-.63.12-1.12c1.14-2.82,1.49-4.49-.21-5a4.19,4.19,0,0,1-1.37-.85c-.24-.23-.44-1.14-.51-1.18s-.13.83-.13,1A3.18,3.18,0,0,0,88.07,198c1.18.85,1.42,1.08.77,3.1-.9,2.82-1.09,3.51-1.25,4.17-.1.38-.28,1-.37,1.43a15.19,15.19,0,0,0-.25,4.33c.39,3,3.58,4.44,7.86,2.79.41-.16.58,0,.58,0-3.42,3.49-7.25,5.72-9.48,12.76-2.87-5.81-6.94-10.36-13.69-12.19l-.1-1.21c2.35,1.14,6.92,2.68,9.83.94,1.55-1.06,1.08-1.75-.81-1-2.24.87-6.3.77-8.32-.38a1.1,1.1,0,0,0-1,0c-.11-.68-1.08-3.25-.94-4.22-.08-.14.62-.14.75,0a8.92,8.92,0,0,0,6.36,2.81,5.44,5.44,0,0,0,4-1.89c.11-.09.63-.16.7-.24s0-.32,0-.39a7.24,7.24,0,0,1-.35-.7,1.21,1.21,0,0,1-.17-.79c0-.19.12-.29.22-.42a1.08,1.08,0,0,0,0-.73.45.45,0,0,1-.09-.66c.4-.46-3.44-4-4.19-4-.27,0-.11.51.44.87,1.95,1.31,3.37,3,3,3.23s-1.12-.21-2-.42a7,7,0,0,0-6.26,1c-.87.72-3.17.83-3.17.83,0-1.26-5.33-15.31-5.34-14.7,1.93-2.25,8-7.59,14-9.89a12.92,12.92,0,0,1,5.21-.75Zm-23,3.14,11,.17c-2.77,1.4-7.8,6.42-7.8,6.42-1.44-2.91-1.88-4.36-3.21-6.59Zm-9.52,1.46c.82,0,9.56,7.15,10.8,8.84.15.21,1,1.14,2,2.08,2.26,2.28,3.19,3.59,3.21,4.53,0,.45-.4.16-1-.51a64.44,64.44,0,0,0-13.06-11.66c-.64-.34-2.61-3-1.94-3.27Zm29.89,1.32c-.24,0-.2.23-.07.44,1.39,1.23,5.05,1.18,6.31.19s-.35-.43-.82-.23a5.56,5.56,0,0,1-3.79,0,15,15,0,0,0-1.63-.41Zm3.38,2c-1.28,0-2.62.4-2.32.87.11.17.46.5,1.3,0,1.2-.6,3.69.19,3.76.21.25.06-.83-.72-1.19-.88A4,4,0,0,0,84.91,189.68ZM54.06,191c4.69,2.88,10.42,8.65,13.85,12.78a4.24,4.24,0,0,1,1,2.09c0,.74-.15.33-3.27-2.84a90,90,0,0,0-8.58-7.77c-1.47-1.08-1.73-1.22-2.42-2.49s-.89-1.79-.57-1.77Zm29.26,1a4.38,4.38,0,0,1-3.2-.06c-1-.36-.79,0-.4,1.08a6.55,6.55,0,0,1,.29,1.35c0,.25,0,.27.73-.14s.77-.48,2.13-.16,1.4.2,2-.14.68-.47,1.07-.32a2.87,2.87,0,0,0,2.58-.07,1.09,1.09,0,0,1,1.32,0c.47.24.65.09.47-.38a6.43,6.43,0,0,1-.21-1.23c0-.48-.13-.91-.33-.81a4.66,4.66,0,0,1-2,.76c-1.29,0-2.43-.81-4.44.08Zm-57.43,1c11.7,14.64,9.83,35.75,9.44,35.58l-9.44,0Zm30.65,3a72.61,72.61,0,0,1,13.33,13c.52.68.09.9.36,1.73.09.3-.43-.15-1.91-1.75-1.85-2-4.89-5-6.9-6.74a24.51,24.51,0,0,1-3.29-3c-.37-.54-1.87-3.13-1.59-3.21Zm26.32,1.35h-.15a1.82,1.82,0,0,0-1.08,3.28c.53.49,1.38.79,1.38.52a1.89,1.89,0,0,0-.46-.48c-1.18-.91-1.06-2.34.29-2.36.47,0,.5.16,1.58,1,1.28.91,2.78.92,2.76,0,0-.68-.26-1.37-1.4-1.26a3.12,3.12,0,0,1-1,0,3.35,3.35,0,0,1-.75-.35A2.92,2.92,0,0,0,82.86,197.27Zm-23.28,4.31c3.58,2.41,8.49,7.86,11,11.08a2,2,0,0,1,.38,2c-.06.09-.5-.18-.5-.18-2.9-3.44-6.2-6.56-9.43-9.73C61,204.78,59.12,201.68,59.58,201.58Zm34.68,5.21-.77.39c-1.18-1.76-2.25-1.79-3.14.27l-.58-.14c-.43-.48,1.54-4.95,4.49-.52Zm-.18-1.5c.33,0,.89.19,1,.52a.43.43,0,0,1-.46.63,4.32,4.32,0,0,1-.71-.85C93.78,205.39,93.84,205.29,94.08,205.29ZM81,207.45l-.87,0c-1.64-2.18-2.88-.72-3.61.19l-.93-.13c.15-2.38,4.35-3.21,5.41-.1Zm8.41-1.86a1,1,0,0,1,.38.08,3.09,3.09,0,0,0-.47,1.42c-.34.14-.82.43-1.18.06-.66-.61.36-1.58,1.27-1.56Zm-13.51.25c.41,0,.29,0,.11.2a4,4,0,0,0-.55,1c-.06.26-.1.35-.34.36a10.69,10.69,0,0,1-1.38-.14c-.35-.34,1.11-1.4,2.16-1.43Zm5.23.3c.28,0,.21.36.13.51s-.25.27-.34,0a1.19,1.19,0,0,0-.18-.3c-.13-.17-.12-.18,0-.21Zm14.14,1.73c1,0,.33,1.69-1.07,2.11a5.23,5.23,0,0,1-5.13-.44c-1-.59-1.34-1.21-.44-1,3.38.94,4.2.76,6.24-.56A.66.66,0,0,1,95.22,207.87Zm-32.54-.37c3.36,2.87,5.9,6.11,8.59,9.1a2.27,2.27,0,0,1,.68,1.74c-.12.54-1.23-.75-1.23-.75s-6.57-7.06-6.57-7.06S62.47,207.52,62.68,207.5Zm10.06,1a9.77,9.77,0,0,1,1.44.31c3.24,1,4.22.95,6.09.09,1.18-.54,1.67-.46,1.16.36-.93,1.51-4.23,1.68-6.71.83A6.64,6.64,0,0,1,72.86,209C72.52,208.64,72.44,208.48,72.74,208.49Zm14.94,1a3,3,0,0,1,1,.47c2.71,1.54,4.72,1.26,6.39.22.3-.28.47-.14.51.12.14.95.18,1.62-.25,2.07A3.14,3.14,0,0,1,94,213c-2.63.89-5.82.26-6.44-1.72-.19-1-.32-1.73.11-1.76Zm-21.53,4.25h0c.19,0,.62.41,1.32,1.2,3.61,4.11,5.6,6.47,5.24,7.66,0,0-.06.26-.21.13a24,24,0,0,1-4.81-5.57C66.39,215,65.85,213.76,66.15,213.74Zm29.11,2.89c-3.05,2.34-6.74,7.91-7.08,10.65-.06.53,0,.92-.2,1.11s-.49.16-1,.07c-.28-.05-.21-.08-.28-.4-.26-1.26.94-4.42,3.42-8.14,1.3-1.95,4.25-4.59,5.08-4.61C95.79,215.54,95.25,216.66,95.26,216.63Zm-22.57-1.27a2.85,2.85,0,0,1,1,.31,18.92,18.92,0,0,1,5.52,3.05c3.3,2.71,7,9.12,5.89,9.72-.47.26-.8.1-1-.5a14,14,0,0,0-.79-1.77,19.91,19.91,0,0,0-9.14-8.87c-1.5-.73-1.65-.65-1.77-1.27-.08-.46,0-.66.27-.67Zm22.53,2.36c.27,0,.34.48.24,1.49-.07.82-.12.8-1,1.77a14.94,14.94,0,0,0-4,6.82.69.69,0,0,1-.21.44c-.38.32-.85.16-1.18.16s-.17-.64-.12-.93a20.81,20.81,0,0,1,4.89-8.54c.73-.78,1.16-1.19,1.41-1.21Zm-22,.07c1.45,0,6.6,3.83,8.68,7.21,1.36,2.21,1.73,3.11,1.42,3.44a1.71,1.71,0,0,1-1.28,0c-.35-.13-.48-.67-1.14-1.9a15.17,15.17,0,0,0-6.8-6.76,2.91,2.91,0,0,1-.92-.55c-.17-.37-.4-1.4,0-1.48Zm.78,2.87a12.34,12.34,0,0,1,2.74,1.66c1.84,1.36,4.64,5.5,4.06,6.1a1.43,1.43,0,0,1-1.16.06,22,22,0,0,0-5.56-6.17C73.8,221.78,73.06,220.53,74,220.66Zm-4.09.62c.09,0,.43.32,1.06,1,1.85,2,3,4.11,2.75,5.2-.23.92-.5.42-2.62-3.63C70.25,222.12,69.83,221.31,70,221.28Zm25.29.06a6.11,6.11,0,0,1-.16,2c-.08.4-.35.59-.6.91a11.31,11.31,0,0,0-1.7,3.24c-.31.89-.16,1.1-1.25,1-.51-.07-.38-.2-.19-.79.69-1.92,2.33-5,3.9-6.33Zm-21,2.11c0-.58,5,4.41,4.28,5-.64.11-1,.13-1.29-.1a18.35,18.35,0,0,0-2.88-3.44ZM95,225h0a9.42,9.42,0,0,1-.09,3.37,1.76,1.76,0,0,1-1.37,0,.45.45,0,0,1-.2-.58C93.54,227.22,94.61,225.1,95,225ZM76.33,228.4c-.15.24-1.11.28-1.47,0a4.62,4.62,0,0,1-.1-1.89C75.13,226.28,76.46,228.07,76.33,228.4Z"/><path id="path3389-2-3-5-0" d="M111.45,19.94l.62.81-3.61,0c.59.5,14,27.58,31.12,58.85,2.84,5.49,8.25,7.47,14.53,7.71l-16.64-26.9c1.77-1,5.29-3.56,7.42-3.08.13.65.76.39.77-.19l.77,0,.27.42h3.23l.27-.38,2.79.4c-7.45-9.22-11.38-23.43-10.11-37.29l-24.7.05-.33-.43Zm-3,.83h0ZM80.05,38.82C77.25,47.93,70.3,55.42,66.18,63c-4.42,8.23-5.46,15.4-4.22,23.23l.81.07A135.15,135.15,0,0,0,83.58,42.77c.09-.33-.07-.92,0-1.25a1,1,0,0,1,.09-1c.24-.25.15-1.24,0-2.87a66.26,66.26,0,0,1,0-13c.31-3.37.29-3.89.29-3.89l-1.61,0a50.49,50.49,0,0,1-2.33,18Zm38.8-17.65,2.65,0c.41,8.14,7.24,9.2,8.29,9.08-1.74,5.5,1.14,11.54,8.09,12.39-1.59,5.1,1.23,11.83,6.78,11.64l.59.38a6.72,6.72,0,0,0-.41,2.26,18,18,0,0,0-2.71.43C135,46.53,118.85,21.17,118.85,21.17Zm23.57,0c-.81,9.09,1,21.57,5.26,28.94a4.42,4.42,0,0,1-.22.63c-.41.61-.61.08-.86-.41-.9-1.68-2.61-1.94-3.36-1-1.66,2.27.14,3.16,1.53,4.44-5.69-.35-7.59-6.64-6.27-9.75a4.16,4.16,0,0,0,.7,2.12c1.6,2.44,3.94.39,3.27-1.54a11,11,0,0,0-1.3-2.13,7,7,0,0,0,2-.55,1.58,1.58,0,0,0,.73-1.71,3.53,3.53,0,0,0-.48-1.5,2.31,2.31,0,0,0-1.77-.85c-1.18.08-1.32.89-2.09,1.45-.19-1.46-1.12-2.58-2.65-2.3a2,2,0,0,0-1.28,3c.36.79.86,1,1.37,1.71-8.18-.92-7.29-10.67-6.38-10.49,0,0,.25,0,.17.33-.46,2.38,2.49,3.81,3.78,2.07.83-1.4-1-3.62-1-3.62a8.26,8.26,0,0,0,1.72-.57c2.14-1.23-.14-4.79-2.13-3.91-.69.32-.87,1-1.55,1.31-.46-.51-.48-1.06-1.3-1.52-2.24-1.25-3.65,1.71-2.4,3,.5.52,1.4,1,1.23,1.07-7-.88-6.89-8.18-6.73-8.13Zm-59.76.06h1c-.29,4.33-.9,10.05-.5,14.28.47,4,.49,4.61.2,5s-.18.65-.11,1c.11.67.12.67,0,1A89.26,89.26,0,0,1,80,53c-4.48,12.39-11.78,25.89-17.5,33,0,0-.26,0-.27,0a36.09,36.09,0,0,1,3.53-21.5c3.55-6.85,9.11-12.7,12.41-19.88a49.53,49.53,0,0,0,4.54-23.39Zm35.22,0,23.31,36.4-4.25,2.09L113.08,21.32Zm13.66,7.11a1.1,1.1,0,0,1,0,2.2,1.1,1.1,0,0,1,0-2.2Zm7.74,12.14a1.11,1.11,0,1,1-1.11,1.11A1.11,1.11,0,0,1,139.28,40.44ZM83.72,42.61c.4,1.58-7.4,25.39-18.48,40.54l4.84.1.15.54c6.78,10,2.54,18.94-2.94,23.06l1.9,2.54-1.71,1.39-1.7-2c-13.87,10.44-40.94,33.57-40.94,33.57L25,146l2.11-1.67C40.83,157.69,70,157,77.58,129.42l2,0C75,149.65,56.22,157.56,42,154.21L38.71,159l.89.48c-.16-.26-.31-.35-.07-.58l2.82-3.65c21.22,2.73,34-9.33,38.19-25.66l2.71,0a66.45,66.45,0,0,1-17.87,35.26c-6.59,0-18.18-.18-18.18-.18,4.22,4.11,12.28,16.64,12.6,17.91,0,0,8.3.27,17.19,0,3.26-1.47,7.63-2.07,9.66-1,3.58,1.81,6.95,8.53,8.46,19.31.39,2.78.75,4,.85,4.52,0,.1.27.18.3.16s-.22.49-.23.91a2.23,2.23,0,0,0,.2,1.26c.25.28.22.46.18.58a4.37,4.37,0,0,1-.5.53c-.08,6.28,0,12-.38,19.71h1.23c0-12.43,3.72-23.94,9.48-31.86,3.51-5.2,7.21-10.8,9.26-16.14A30.6,30.6,0,0,0,116.89,163l-.85,0c-5.06-3.48-7.12-10.93-.88-16.24L113,143.91c-6.23,4.84-7.67,13.76-1.21,21.15h-2.53c-6.29-7.89-4.9-17,2.38-23.42L110,139.55l1.77-1.57,1.6,1.76L154,105.65l0-3.73-3.11,2.54c-18.23-16.92-45.26-5-49.22,15.33l-2.48,0c5.2-21.93,24.34-28.12,38.18-25.21l3.42-5.19a20.32,20.32,0,0,1-7.28-4.36,18,18,0,0,1-2.3-2.18c-6.56-7-11-16.62-11.22-16.64l-17.83,0C99.48,67.49,95,69,92.54,67c-5.28-4.28-7.05-12.91-7.78-18.47-.22-1.73-.4-4.73-.57-5.73a.39.39,0,0,0-.47-.16Zm63.22,9.6a1.09,1.09,0,1,1-1.08,1.09A1.08,1.08,0,0,1,146.94,52.21Zm2.32,1.28a13.32,13.32,0,0,1,2.1,3.56c-.41,0-.8.12-1.25-.24A5,5,0,0,0,148.84,54ZM146,55.09c.36.18.65,1.54.4,1.78-.44.09-.73.06-.88-.09A1.91,1.91,0,0,1,146,55.09ZM75.08,67H91.64c2.88,2.22,5.69,1.93,9.78.15h18.41l1,1.9H74.19C74.45,68.32,75.08,67,75.08,67Zm-1.36,3h47.64l1.2,1.94h-50Zm4.6,2.83h5.34l-2,3.37H76.17Zm11.86,0h5.11L93,76.13H88Zm16.5,0-2.14,3.37H99.35l2.23-3.34Zm6.4,0h5.11l-1.91,3.37H111Zm-68.63.52c-3.31,0-2.7,4.37-2.38,4.23C40,77,38.45,78,38.19,79.81A3.06,3.06,0,0,0,41.77,83a3.88,3.88,0,0,0,.32,2.7,11.73,11.73,0,0,1-1.22,3c-1.51,3.16-1.82,3.31-2.5,1.24-.73-2.23-1.87-3.36-4.82-4.8a17.49,17.49,0,0,1-2.48-1.49c-1.32-1-1.33-1-1.27,1,.08,2.63.88,3.78,3.67,5.34a20.88,20.88,0,0,0,4.47,1.83,13.59,13.59,0,0,1,3.38,1.52,8.37,8.37,0,0,0,3.13,1A16,16,0,0,0,52,92.79c1.21-.71,1.67-1.34,2.57-3.13a20.7,20.7,0,0,1-4.46-.21c-2.9-.17-4.34,0-6.55,1.14-1.84,1-1.94,1.14-1.17-.45a22.15,22.15,0,0,0,1-2.44c.32-.85.41-.92,1.21-1a3,3,0,0,0,2.94-3,5.15,5.15,0,0,0,0-1c1.2.18,3.67-.42,3.59-2.92-.07-2.25-1.67-2.76-3.63-2.92A3.15,3.15,0,0,0,44.45,73.28Zm0,.7c2.91,0,2.84,2.69,1.57,4.21l-1.54-1.28-1.25,1.16C41.92,77.2,41.92,74,44.49,74Zm79.42,0,1.43,2.12h-3Zm-54.19,3h5.47L73,80.15H67.82S69,78.17,69.72,77.05Zm17.23,0-2.07,3.22H80.11L82,77.12Zm6.4,0h4.94l-2,3.43H91.45Zm11.62,0h5l-2,3.43H103Zm11.33,0h5.15l-2.13,3.43h-5Zm-71.74.64L47,80.17l-2.39,2.41-2.47-2.37Zm6.23,2.42c-.43,2.88-3.2,2.73-4,1.32l1.13-1.3-1.39-1.36C47.89,76.6,51.12,77.93,50.79,80.11Zm-8.25-1.38-1.32,1.5,1.45,1.4c-.94,1.31-4.54,1.21-3.82-1.94A2,2,0,0,1,42.54,78.73Zm84.19-.37,1.52,2.1-2.85,0ZM67.45,80.93l61.12.2,1.63,2c-21.34.37-42.23-.35-64-.36ZM46,82.24c2.42,1.49.64,4.63-2,4.1-1.94-.86-2.34-2.87-.59-4l1.36,1.13Zm21,1.2H65.25l-1.62,1.91c6.14,6.49,5.91,12.12.19,17l2.3,2.58C72.54,99.47,74,90.81,66.92,83.44Zm6.31.25c3.44,5.4,6.42,15.63-3.84,25l-1.24-1.51C77.08,98.42,75,91.06,71,83.76Zm1,.13,13.88.06c-3,11.36-5,18.06-5.37,35.84l-4,0c.44-.41-2.08-10.73-5-14.31C79.82,94.94,76.51,89,74.18,83.82Zm-43.65,0a6.15,6.15,0,0,1,1.7.89c.86.52,2,1.18,2.49,1.46a6.48,6.48,0,0,1,3.4,3.63c.4,1.16.15,1.18-1,.09a33.81,33.81,0,0,0-4.1-3.1c-.82-.56-1.07-.47-.6.22A8.71,8.71,0,0,0,35,89c1.07.66,2.55,2,2.44,2.17s-.29.17-.81-.06c-.24-.11-1-.43-1.72-.71-3-1.23-4.31-2.75-4.49-5.26C30.31,84.24,30.26,83.84,30.53,83.84Zm63.33,0a3.66,3.66,0,0,1,.47.79c.12.5-.37.95-1.9,1.64-.53.23-1,.36-1,.67.07.73,1.45,1.83,1.28,2.82-.32.76-2.24,1.5-2.72,2.39,0,.61,1.25,1.55,1.07,2.38-.09.25-.5.51-1.09,1-1.22,1.07-1.3,1.23-.85,2.05,1,1.92,1.08,1.78-.34,3.15s-1.4,1.35-.72,2.55.7,1.23-.28,2.05-.93,1-.41,2,.61,1-.23,1.73-1.17,1-.48,2.08.77,1.09,0,2-.86.92-.44,1.52c.53.76.62,1,.08,1.79s-.59.83,0,1.67a2.5,2.5,0,0,1,.38,1.48H84.92a4.21,4.21,0,0,0-.21-1.35c-.49-.89-.48-1.16.1-2s.5-.87-.06-1.67-.47-.81.25-1.74.7-1.25.32-1.73c-.9-1.15-.89-1.64,0-2.4.69-.58.75-.84.16-1.83s-.66-1.06.41-2,1.08-1,.35-2.09-.67-1.17.47-2.23,1.17-1.08.41-2.43-.71-1.25.67-2.49,1.85-1.3.47-2.95c-.76-1.31-.22-1.44,1-2.09,2.2-1.36,1.2-1.27.27-3.28-.77-1.34-.33-1.35,1-2,.34-.15.71-.32,1.09-.53.9-.5.41-1,.41-1Zm2.88,0,6.63.09c-7.68,9.84-11.38,22.44-12.7,35.72l-2.5,0C88,109.32,91.26,96.36,96.74,83.92Zm34,.23c3.79,3.21,6.6,5,8.6,5.76,0,0-2.67,4.46-2.88,4.29A32.44,32.44,0,0,0,98.7,119.63H96.28A53.43,53.43,0,0,1,102.84,99,57,57,0,0,1,114.91,84.1ZM104.32,84l3.27.06s.61.74.89,1c1.4,1.61,1.53,1.29-1.58,3-2,1.11-2.83,1.63-2.94,2.09s.85,1.4,1,2c0,.07-2.66,1.86-3.14,2.11-.68.33-.71.61,0,1.78.77,1.34.7,1.29-.95,2.45s-1.94,1-1.25,2.15c1,1.57.51,1.92-1.74,3.14-.57.31-.59.62-.19,1.68.55,1.49.7,1.34-.47,2.14-1.37,1-1.61,1-1.31,1.56.89,1.69,1.24,2.1.06,2.65-.91.42-.92.66-.43,1.78s.63,1.07-.25,1.71-1.31.45-.51,1.41c.63.76.58,1.36.06,1.82-.44.19-.65,1-.52,1.06l-1.15,0a1.31,1.31,0,0,1,.32-2c.15-.28,0-.48-.39-1.13-.5-.91-.48-1,.24-1.54s.74-.4.26-1.58c-.56-1.37-.54-1.53.35-2.17s.88-.76.29-2-.63-1.27.92-2.3c1.08-.72,1.1-.68.52-2-.39-.93-.11-1.25,1.36-2.26.85-.58.91-.7.52-1.39-1.1-1.9-1.09-2,.8-3.19,1.54-1,1.53-1.09.94-2.43s-.71-1.34,1.41-2.62c1.75-1,1.84-1,1.12-2.25-.89-1.57-.83-1.31,2.66-3.31,1.25-.87,2.39-.57,1.14-2C105,84.75,104.32,84,104.32,84ZM42.7,86.58c.24,0,.43.29.42.84a6.94,6.94,0,0,1-.76,2.32c-.74,1.58-1.48,2.75-1.87,2.75-.91,0-.88-.19.33-2.57.55-1.09,1.12-2.33,1.21-2.57C42.23,86.83,42.49,86.58,42.7,86.58Zm11.22,3.57c0,3.34-10.42,5-11,3.34,1.81-1.43,7.19-.8,8.33-2.08-1.37-.08-3.23.15-4.51.17-1.59,0-4.16.71-4.18,1-.17-.88,2.73-2.53,5-2.64S52.1,90.1,53.92,90.15Zm.89,5.1s-20.35,16.9-30.41,25.08l.07,3.65L56.65,97.52Zm-.07.83L56,97.67,25.83,122.38l-.11-2.59Zm95.51,8.67-1.09,1.17c-29.51-22-56.68,11.43-41.7,35.37a5.85,5.85,0,0,1-1.18,1.07C89.58,114.57,121.54,82,150.25,104.75ZM134,99.93a9.58,9.58,0,0,1,6.06,2.74c1.52,1.83,1.08,2.65-.85.92-2.07-1.51-3.78-1.86-.9-.08a4.42,4.42,0,0,1,1.23,1.25c.1.3-.43,0-2.84-.9A8,8,0,0,1,133,101C132.64,100.23,133.13,99.92,134,99.93Zm-6.21,0a4.56,4.56,0,0,1,1.32.13,9.15,9.15,0,0,1,3.56,1.54c.54.42.37.72-.26.46a15.66,15.66,0,0,0-3.44-1c-.6.06,0,.45.86.67,1.91.48,2.85,1,1.49,1a34.4,34.4,0,0,1-4.66,0c-1.42-.17-3.54-1.46-3-1.93S126.23,100,127.8,100Zm-6,2c2.5,0,3.85,1,1.12,1.16-4.71.74-5.61,1.77-.4.55,1.22-.29,1.19.15.36.56s-1.55.5-2.26.85a10.1,10.1,0,0,1-5.38.22C113.49,104.66,118.82,101.93,121.75,102Zm20.14.43c1.26,0,4,1.87,5.16,3.6.78,1.12.39,1.94-.79,1-.24-.18-1.95-1.64-2-1.67s1.42,1.44,1.65,1.86.65,1.18-.2,1.2c-1.33-.16-4.44-3.66-4.46-5.38C141.2,102.58,141.46,102.39,141.89,102.4Zm-15.7,1c.53,0,.26.26-.74,1-1.8,1.28-.86,1,1.25-.07a8,8,0,0,1,1.68-.64c.28,0,.6-.13.72-.16.57-.18.13.52-.79,1.27a16.89,16.89,0,0,1-5.65,3.16c-1.93.48-2.33.54-1.62-.67,1.13-1.92,2.78-3.45,4.36-3.75A4.62,4.62,0,0,1,126.19,103.38Zm6.49,0a15.22,15.22,0,0,1,3.37.49c1.1.34.81.42-.51.56-2.48.27-1.45.56,1,.52,3.29,0-1.65,1.19-3.25,1.44a15.14,15.14,0,0,1-4.34-.51c-1-.19-.41-1,1.55-1.9A5.17,5.17,0,0,1,132.68,103.41Zm20.33.45.09,2.12-39.82,33.43-1.35-1.5Zm-13.55,1.83c1.59,0,3.88,1.08,3.64,1.75-.1.25-.27.24-1.48-.09-.8-.21-2.22-.44-2-.26a11.1,11.1,0,0,0,1.61.59c1.4.34,3.08,1.14,2.71,1.37-.65.4-1.25.09-2,0-1.92-.27-5.09-1.25-5.61-1.74S137.75,105.71,139.46,105.69Zm-18.57.12c.28,0,.39.28.12.65a12.17,12.17,0,0,0-1,1.68,10.28,10.28,0,0,1-3.45,3.69c-1.28.8-1.46.66-1.35-1a5.67,5.67,0,0,1,3.12-4.4c.8-.11,1.26-.32.42.69-1.5,1.8-.47,1.62.92-.43C120.14,106,120.6,105.79,120.89,105.81Zm-5.17.24c.86,0,1.15.3,0,.82a17.88,17.88,0,0,0-3.2,2.13c-.08.28.7-.15,2-.87,1.74-.95,1.9-.93,1.06.16a12.17,12.17,0,0,1-5,3.35c-2.52.69-2.46.21-1-1.66,1.34-2,2.47-3,4.19-3.57A7,7,0,0,1,115.72,106.05Zm-42.66.31c9.13,15.8,4.06,31.85-6.53,40-11.06,8.56-28.28,8-38.44-2.22l1.41-1.34s16,16.39,36.2,1.85c10.24-7.38,14.47-24.81,6-37Zm-40.87,0h-.07a19.73,19.73,0,0,0-1.7,5,1.24,1.24,0,0,0,.37,1.15c.24.24.62.09.74,0,.77-.35,1.2-.89,1.87-2.59a4.49,4.49,0,0,0,.43-2.44,1.73,1.73,0,0,0-.6-.73A2.73,2.73,0,0,0,32.19,106.4Zm.17.71a1.67,1.67,0,0,1,1.18,1c0,.75-.42,2-.73,1.79-.53-.65-1.13-.24-1.23-.48a5,5,0,0,1,.71-2.32Zm98.56.59A16.52,16.52,0,0,1,142,111.53L140.39,113a17.24,17.24,0,0,0-19.83-.16c-4.75,3.32-9,10.67-4.83,21l-1.49,1.35a18.65,18.65,0,0,1,6-24.53,20.1,20.1,0,0,1,10.26-3Zm-60,1.21c.12,0,.31.41.29.9s-.28,1.38-.68,1.54-.74-1.17-.74-1.17A5.32,5.32,0,0,1,70.92,108.91Zm72.64.47a3.37,3.37,0,0,1,.46,0c.46.06.46.47,0,.86s-.7.44-1.17.1-.43-.52-.08-.78A1.6,1.6,0,0,1,143.56,109.38Zm-77.93.09L67,111.14l-4.67,3.76-.55,0L26.05,144.64V142Zm74.61,4-4.86,4c-9.72-5.07-17.52,4-14.77,12.17l-4.2,3.67c-7.53-20.73,14.47-27.82,23.83-19.87Zm-25.46-3.16s0,0,0,0,.06,0,.1.06a10.31,10.31,0,0,1-.43,3.42,1.64,1.64,0,0,0-.16.54,21.49,21.49,0,0,1-1.6,3.35,8.29,8.29,0,0,0-.62,1.37c-.57,2.72-1.78-1.65-1.35-4.19.2-1.2,1.89-3.66,2.38-3.48.25.09.23.28-.21,1.24-1.22,2.66-1.52,4-.24,1.46C114.16,111.13,114.55,110.37,114.78,110.33Zm-82.62,0a.45.45,0,0,1,.41.32,1.25,1.25,0,0,1,0,.74,1.39,1.39,0,0,1-1.29.9.57.57,0,0,1-.51-.46,1.14,1.14,0,0,1,.31-.9,1.62,1.62,0,0,1,1.07-.6Zm37,.17c.57,0,1.18,1.59.79,2.3s-.37.47-.93-.66a12.56,12.56,0,0,1-.51-1.22l.47-.38a.27.27,0,0,1,.12,0Zm-1,.66a7.92,7.92,0,0,1,.75,2c.09.53.08.43-.51.21a2.79,2.79,0,0,1-.85-.82,6.08,6.08,0,0,0-.38-.58Zm3.64.23c.31,0,.63.3.93,1.06,1.14,2.86,1,6.06-.24,7.57-.21.25-.26.26-.51.11a2.87,2.87,0,0,1,0-1.87,5.92,5.92,0,0,0,.26-1.4c0-1.1-.26-1.24-.41-.22-.16,1.18-.34,2-.66,1.29-.16-.36-.24-.72-.37-1.1C70.2,114.41,70.94,111.48,71.86,111.44Zm-4.92.73s1.08,1.41,1.53,1.92c.16.27.15.34-.1.44-.43.16-1.87-.8-2.44-1.1-.31-.24-.17-.43-.17-.43A12.66,12.66,0,0,1,66.94,112.17Zm42.9.06c.58,0,.58.19,0,1.09-3.46,5-2.76,4.25-.56,1.52,1.22-1.52,1.43-1.67,1.57-1.33a18.32,18.32,0,0,1-2.11,4.29,9,9,0,0,1-2.39,1.82c-1.65.84-1.46.5-.86-1.57C106.23,114.83,108.18,112.24,109.84,112.23ZM64.9,114c9.49,23.68-16.48,34.08-28.2,23.12L38.07,136c16.3,11.1,32.38-6.68,25-20.59C63.09,115.39,63.76,114.83,64.9,114Zm2.2.58c1.56.16,3.87,3,4,4.62.24,1.14-.08,1.33-.63.53-.94-1.73-.82-.63,0,1.09.42.87.52,1.92.08,2-.6-.12-1.9-2.2-2.29-3.06a10,10,0,0,1-1.54-4.34C66.58,114.81,66.72,114.53,67.1,114.53Zm-4.72.77c7.23,13.91-8.31,30.63-24.12,19.82L43,131.35c8.25,4,17.45-.95,14.81-12.38Zm72.07,2.6-13,10.9C118.74,119.76,128.59,114.6,134.45,117.9Zm-24.2,0c.42-.09.78,2.64.86,6.48s.18,4.13-1,2.75a11.41,11.41,0,0,1-1.35-1.61c-.77-1.46-.53-3-.31-5.15.2-2,.91-1.69.79.41-.07,1.35-.06,3,.15,3s.1-.13,0-.32a34,34,0,0,1,.55-5.25C110.09,118,110.17,117.89,110.25,117.88Zm-35.92,1.65c.94.37,1.21,3.52.19,6.57a4.39,4.39,0,0,1-2.12,2.7c-.71.38-.88.26-.56-.4A10.71,10.71,0,0,0,73,124.83c.09-1.35-.62-.26-.56.31-.55,2.52-1.28,2.9-1.19.25a6.54,6.54,0,0,1,1.24-4.14C73,120.58,73.45,119.66,74.33,119.53Zm32.69.32c.38,0,.48.52.13,1.54a29.79,29.79,0,0,0-1,3c.06,0,.94-2.06,1.12-2.39.29-.55.4-.66.66-.63a10.05,10.05,0,0,1-.13,3.32c-.54,2.74-2.39,5.56-3.1,4.72-1.16-1.37-.62-6.91.92-8.6C106.24,120.16,106.72,119.85,107,119.85Zm-49.64.42c1.4,9.67-6.55,13.8-13.42,10.88C44.11,131.12,57.38,120.27,57.38,120.27Zm32.5.18,1.38,1.82,2.54.13-1.3,1.93,1.29,2.46-2.83,0-1.63,1.88L87.92,127l-2.48-.13,1.45-2.31-1.17-2.21,2.67-.13Zm-21.29.83a7.12,7.12,0,0,1,2,2.84c.48,1.84.3,5.33-.36,5.21-.72-2.51-.44-3.81-.69-3.52-.45.46.27,4.32,0,5.27-.11.24-.49-.05-.92-.67-1.16-1.67-1-8.17-.12-9.13Zm84.73,3.92-31.31,26,1.8,2.33,29.57-24.5Zm-45.23.45c.14,0,.45.19,1,.83a16.62,16.62,0,0,1,2.51,4.77c.15.57.39,1.33.53,1.68.22.53.24.68.11.84-.54.67-2.81-1-3.54-2.64-1-2.27-1.06-4.32,0-2.32.37.72.84,1.78.83,1.36a13.93,13.93,0,0,0-.8-2.32C108.53,127.42,107.74,125.72,108.09,125.65Zm44.9.63.06,2.15-29.16,24.49-1.15-1.4Zm-45.54,1.33c.14,0,.21.21.17.65-.13,1.42-.48,4.52-.41,4.8s.46-2.06.56-2.45c.5-2.06,1.26,2.85.8,5-.07.35-.22.91-.3,1.25a5.12,5.12,0,0,1-.41,1.08c-.83,1.31-2.77-3.88-2.44-6.53C105.62,129.81,107,127.56,107.45,127.61Zm-33.73,1.14c.38,0,.45.35.39,1.14-.22,2.71-2,5.56-4,6.31s-2.14.61-1-.8c.88-1.07,1.41-2.18,1.26-2.33s-.28.37-1,1.29c-.89,1.15-1,.17-.23-1.52a7,7,0,0,1,2.68-3.12A5.06,5.06,0,0,1,73.72,128.75Zm17.73.82a86.15,86.15,0,0,1-8.89,35.36H77.34c6.4-9.46,10.48-21.18,11.62-35.32Zm2.3,0a10.09,10.09,0,0,1,1.1,1.37c.35.61.45,1.14-.19,1.59-.74.63-1,.4.16,2,.64.82.43,1-.36,1.65s-.86.75-.11,1.72,1,1.19-.1,2-1,.89-.22,2.06.9,1.07-.42,2.18c-1.12,1-1.15.69-.06,2.45.39.64.37.68-.36,1.33-1.8,1.6-1.71,1.5-1.45,1.92,2,2.83,1.08,2.75-.85,4.1-.39.33-.29.71.58,2.12.74,1.2.63,1.46-1.1,2.66s-1.86,1.41-1,2.68.91,1.16-.53,2.45c-.65.58-1.18,1.12-1.18,1.12H84.51s.67-.62,1.13-1c2.62-1.95,2.61-1.74,1.5-3.15-1-1.24-.88-1.32.11-2,.72-.51,1.68-1,2.4-1.56.39-.28.1-.51-.55-1.74s-.76-1.21.59-2.33,1.5-1.17.7-2.72-.82-1.41.19-2.24c1.51-1.23,1.58-1.17.79-2.6-.63-1.14-.64-1.11.43-2.18s.94-1,.3-2-.61-1.14.24-1.9.79-.77,0-1.82-.74-1,.17-1.76c.48-.42,1-.85.94-1.05a6,6,0,0,0-1-1.93c-.17-.27.18-.35.76-1s.55-.45.11-1.25c-.24-.44-.69-1.17-.69-1.17Zm-8.55,0,.9,0s.16.21.37.43c.59.6.61.95,0,1.27s-.34.74.13,1.43.49.65-.22,1.37-1.12.78-.31,1.92c.47.53.41,1.07-.31,1.55-.55.36-1.47.67-.5,2.05.47,1,.51.93-.48,1.63-1.31.93-1.56.77-1,2.13.66,1.52.73,1.54-.64,2.55-1.6,1.18-1.65,1.28-1,2.69s.69,1.06-1,2.38c-1.24,1-1.52,1-1.15,1.83.68,1.5,1,1.9-1,2.93-2.31,1.19-2.43,1.28-1.32,3.05.91,1.44.7,1.23-.79,2.09-2.15,1.25-3.11,1.79-3.17,2.18s1.68,1.74,1.68,1.74l-3,.08s-1.26-1-1.75-1.51c-1.37-1.33-1.38-.9,3.14-3.1,2.5-1.22,2.29-.94,1.88-1.65-1.2-2.1-1.24-2.31,1-3.46,2-1,1.62-1.06,1.15-2.56-.42-1.31-.35-1.19.68-2,2.5-1.86,2.43-1.67,2-2.58s-.68-1.32-.39-1.76c.9-1.3,2.82-1.57,2-3.12-.37-1-.5-1.22.6-2.08s1-.73.37-1.83-.67-1.17.47-2c.81-.75.8-.73.34-1.45-.62-1-.59-1,.3-1.82.73-.64.86-.67.39-1.38-.61-.94-.51-1.14.3-1.6.5-.29.49-.4.45-.88a5.84,5.84,0,0,0-.26-.62Zm11.28,0,4.19,0a34.73,34.73,0,0,0,5,13.46c-5.29,8.54-4.09,15.63-.85,21.91L91.57,165A117.44,117.44,0,0,0,96.48,129.66Zm-28.75,0c.15,0,.26.23.52.68.84,1.44.25,3.47-1,5.61-.92,1.59-1.09.37-.67-1.93.27-1.44-.46.73-.81,2.48-.18,1-.64,1.71-1.13,1.67s-.32-1.41-.3-1.7c.1-2.1.88-3.58,2.39-5.66C67.32,130.06,67.55,129.71,67.73,129.7Zm42.76,4.1a1.58,1.58,0,0,1,.82.27l1.08.63c1.16.64,1.26.84.7,1.48-.68.8-1.12.5-2.3-.83C110,134.45,110,133.82,110.49,133.8Zm-.39,1.75a1.75,1.75,0,0,1,1,.64c.76.88.67,1.62-.18,1.41-.34-.51-.52-1.28-.85-1.85C110,135.62,110,135.55,110.1,135.55Zm37.42.11a3,3,0,0,0-2.22,2c-.72,3-.72,2.92-.07,3.36l.42.29c.38.3.9.76,1,.67.61,0,1.55-3.91,1.52-4.71s.06-1-.15-1.34A.49.49,0,0,0,147.52,135.66Zm-38,.07a.25.25,0,0,1,.18.08,5.77,5.77,0,0,1,.93,2,1.41,1.41,0,0,1-.12.49c-.42.81-1.08,0-1.15-1.37,0-.78,0-1.14.16-1.17Zm37.87.6h.09c.5,0,.42.54-.27,1.29-.37.4-1.12.58-1.36.34s.38-1.33,1.19-1.56A1.8,1.8,0,0,1,147.41,136.33Zm-84.14.43h.08a.92.92,0,0,1,.65.33,1.78,1.78,0,0,1,0,1.58c-.39,1.4-3,4.1-3.93,4.11-.55-.1,1.77-3.06,1.85-3.56-.18-.17-1.62,1.5-2.29,2.66a6.47,6.47,0,0,1-.84,1.28c-.49.06-1,.37-1,0,.08-1.48,3-4.71,3.95-5.61a2.55,2.55,0,0,1,1.55-.83Zm7,.14c2.24,0-2.16,4.88-5,5.58a6,6,0,0,1-2.63.1c-.12-.19,0-.34.37-.43a15.26,15.26,0,0,0,3.49-2.23c0-.28-1.2.18-2.22.84-.67.43-1,.35-.62-.18a7.88,7.88,0,0,1,6.61-3.68Zm38.63,0c.13,0,.26.26.33.82.41,1.06.43,1.34,0,1.65-.66.53-.82.38-.81-.83,0-1,.22-1.66.43-1.64ZM35.35,138.3s.81.31.47.7-1.23,0-1.24,0Zm112.11,0c.26,0,.27.23.13.85-.08.33-.4,2-1,2.52a3.4,3.4,0,0,1-1.11-.67c-.11-.11-.43-.35-.47-.51a1.6,1.6,0,0,1,.4-1.53,1.14,1.14,0,0,1,.63-.2,3.35,3.35,0,0,0,.85-.28A1.75,1.75,0,0,1,147.46,138.33ZM35.63,139.52a5.32,5.32,0,0,1,1.75.24,22.58,22.58,0,0,1,5.13,2.29c.68.64-1.08,1.33-3.21,1.36-1.12,0-1.33-.22-2.89-1.16-.2-.13-1.11-.73-.84-.95s1.15.09,2.24.64c.35.18,1.21.13,1.21,0a17.54,17.54,0,0,0-3.79-1.51c-1.06-.34-1-.68-.38-.83a5.15,5.15,0,0,1,.78,0Zm-2.12.74s.44.4,1,.83a7.78,7.78,0,0,1,1.88,1.84c.73.9,1.9,3.15,1.77,3.55-.3.94-3.41-.7-6-3.25a18.62,18.62,0,0,1-1.32-1.45l1-.88s.86.71,1.84,1.58c1.85,1.64,1.84,1.08,0-.64l-1-.93C32.71,140.6,33,140.32,33.51,140.26Zm76,.08s1,1,1.36,1.51c-6.06,5.94-8.37,14.24-2.52,23.08h-2.81c-5.25-10.38-2.76-18.19,4-24.58Zm-51.2.24c.37,0,0,.43-.64,1.57-1.24,2.13-1.49,2.67-3.52,3.2a9,9,0,0,1-1.57.07c-.87.11-.48,0,.85-.87,1.85-1.21.28-.59-1.43.29-1,.52-2,.49-2.12.23s.41-.53.7-.8c2.6-2.33,3.4-2.23,5.82-3.08A12.05,12.05,0,0,1,58.3,140.58Zm-10.89,2.13A12.28,12.28,0,0,1,50,143c.51.12,1.36.22.65.86a8.84,8.84,0,0,1-4.59,1.87c-.23,0-3.54-.22-2.83-.94a7.36,7.36,0,0,1,1-.13c1.83-.35,1.34-.64-.92-.52-2.83.15-3-.15-.82-.73a18.78,18.78,0,0,1,4.52-.68Zm15.12.22c1.26,0,2.24.21,2.24.7,0,.78-2.37,2.49-3.94,2.83l-1.16.26a22.12,22.12,0,0,1-3.87-.09c-1.41-.52-.43-.72,2.17-1,1.13-.14,1.67-.43,1.67-.65a4.91,4.91,0,0,0-2.08,0c-1.38.18-1.11-.23.61-1.13A10.66,10.66,0,0,1,62.53,142.93ZM39.23,144a5.63,5.63,0,0,1,1.3.45c1.51.44,3.58.94,5,2.49,1.15,1.12,1.42,1.48,1.18,1.87s-3.84.11-5.34-.53a7,7,0,0,1-2.7-2.12c-1.3-1.91-.76-2.41.9-1.08,2,1.61,2.29,1.77,2.65,1.7.14,0-.21-.36-.88-.86-1.68-1.25-2.5-1.93-2.11-1.92Zm12.29,2.05a6.6,6.6,0,0,1,3.66.87c2,.72,1.54,1.36-2.07,2.26a6.64,6.64,0,0,1-4.94-.68c-2.9-1.8-2.71-2.16.53-1.35,1.07.26,2.13.31,2.2.11s-1.24-.48-2.29-.83-.16-.35,2.11-.37Zm83.58,7.75-.53.27a13.82,13.82,0,0,1-2.23.28,15.65,15.65,0,0,0-4.94,1,8.08,8.08,0,0,0-3.31,3.27c1.48-.1,9.88,1.42,12.2-1.61.49-.64-1.25,4.79-2.14,5-2.21-.26-3.14,3.22-2.92,3.08-2.23.86-4,1.37-3.4,4,.25,1.14,1.4,2.48,3.82,2.14-.66,4.51,4.84,5.68,5.44.24,0,0,1.07-.2,1.48-.25,2.51-.6,3.12-4.27-.56-5.44-1-.3-1.08-.49-1.08-.49a3.36,3.36,0,0,0-.45-2.67c.81-1.94,2.83-5.68,2.83-5.68Zm.39,1.12c.51.68-2.13,1.8-4.94,2a17.28,17.28,0,0,0-2.05.24c-.3.53,5.43.15,7.22-.86.61-.34.66,0,.4.49-2.08,2.68-7.08,2-11,1.55-.22-.23,0-.5.84-1.22a8.46,8.46,0,0,1,5.31-2C132,155.15,135.17,154.55,135.49,154.93Zm3.1,2.77a50.25,50.25,0,0,1-2.24,4.67c-.23.23-1.06.39-1-.5s1.79-4.88,2.27-5A.84.84,0,0,1,138.59,157.7Zm1.19.27c.56,4,3.6,5,6.53,6.26.77.35,1.42,1,2.19,1.39,1.44-2-.18-5.82-2.73-7.07-1.89-.89-3.61-1.59-4.67-1.51-.62,0-1.31.44-1.32.93Zm1.57-.24a11.77,11.77,0,0,1,2.5.55,6.48,6.48,0,0,1,4.87,5.11c0,.1.15,2.05-.29,2-.67-.2-1-.87-2.11-1.33a15.71,15.71,0,0,1-4.39-2.36,4.61,4.61,0,0,1-1.56-2.55c-.11-.82.16-.9.84-.24,1.53,1.22,3,1.64,4.55,2.82.42.32,1.93,1.16.9.12a19.22,19.22,0,0,0-3.84-2.47c-1.52-.73-2.34-1.62-1.47-1.63Zm-116.08,4,17.28,27.12c-4.25,2.25-6.35,3.24-13.41,2.68l0,.36-3-.17c5.18,8.12,11.58,18.71,9.76,37.2l21,0,.36.34c.31.21.77-.37.77-.37l9.49,0,.26.31,4.43,0s-20.24-38-30.41-56.91c-4.18-7.58-8.53-10.94-16.61-10.45Zm109,.9a2.16,2.16,0,0,1,2.27,2.28,4.63,4.63,0,0,1-.66,1.89l-1.54-1.47-1.47,1.48a2.54,2.54,0,0,1-.92-2.4,2.71,2.71,0,0,1,2.32-1.78Zm-17.87.54c1.47,5.72,3.05,13.61-9.63,31.84-7.5,10.79-10,21-10.26,33.38H95.7c.36-6.81.41-19.17.41-19.17l.71-.63a4.65,4.65,0,0,1-.47-1.14c-.24-1,0-.7.58-3.49,2.6-13.47,19.42-40.79,19.42-40.79Zm-67.71,2.62,64.27.3-.86,1.69-62.18-.44Zm85.66.49,2.39,2.34-2.33,2.63-2.46-2.58Zm-2,1-1.3,1.39,1.12,1.19c-1.16,2.45-4.25.54-4.15-1.3.13-2.14,2.62-3,4.33-1.28Zm4.12,2.76,1-1.33-1.17-1.28c1.92-1.91,3.73-.23,3.91,1.36S137.8,172.41,136.47,170.06Zm-76.11-1.62,5.26.05-2,3.68-5.34,0Zm11.73,0h4.83l-2,3.73H70Zm11.41,0h5.13l-2.08,3.73H81.28Zm11.48,0h5.25l-1.91,3.73H92.88Zm11.7,0h5.06l-2,3.73h-5.21Zm-55.87,0h3.4l-1.39,2.45Zm84.77,2.35a2.33,2.33,0,0,1-1.43,4.19,2.38,2.38,0,0,1-1.23-4.27l1.46,1.34Zm-71.51,2H69l-1.86,3.36H62.31Zm11,0h5.42l-1.91,3.35H73.41Zm11.61,0h5.39L90.3,176.2H84.85Zm11.57,0h5.35l-1.67,3.35H96.26ZM54.09,173H57.5l-1.45,2.68Zm2.57,3.89,50.09.44-.85,1.63h-48Zm1.76,2.92,46.94.11-1.08,2.26-16.22-.07c-3.16-2.38-6.78-1.28-10.9.07,0,0-12.42.13-17.3,0Zm-15.61,9.56,24.76,39.23-5.47-.06L38.59,191.61Zm-5,2.55,23.37,36.67c-1.07,0-2.07,0-3.14,0a9.35,9.35,0,0,0-8.28-10.23c1.94-8-3.88-11.37-7.76-12,1.57-10.41-7-11.88-7.13-11.78a9.79,9.79,0,0,0-.23-2.18l3.17-.5Zm-3.79.58c-.05.22.44,2.3-.48,1.92l-.07-1.91Zm-4.92.06c.34,1.38,1,1.65,2,2.57,0,0-1.23.21-1.51,0a12.08,12.08,0,0,1-1.57-2.6Zm3.66,2.33A1.08,1.08,0,1,1,31.73,196,1.07,1.07,0,0,1,32.8,194.87Zm2.12.83c3.08-.2,7.53,3.11,6.36,9.3a10.7,10.7,0,0,0-1-2.06c-2.12-2.87-4.61,1.07-2.93,2.67.82.79,1.21,1.1,1.12,1.17A2.24,2.24,0,0,0,36,210c1.31,2.42,3.14,1.14,4.2-.3,0,0,.65,2.17,1.3,2.45a2.23,2.23,0,0,0,2.82-1.32c.69-1.79-1-2.24-1.36-3.24,3.55.12,8.08,5.34,6,9.86.27-1-.83-3.34-3-2.75-1.07.38-1.44,1.94-.58,3.55a5.51,5.51,0,0,0,.43.71,5.09,5.09,0,0,0-1.17.27c-2.78,1.72.8,6.41,2.87,3.48a6.85,6.85,0,0,1,.55-.75c.35.65.45,1.57,1.07,1.89,2.56,1.29,3.7-1.44,2.63-2.78-.61-.75-1.29-1.62-1.29-1.62-.11-.48,7.67,1.56,6.72,9.16l-20.62,0c1.91-11.67-2.72-25-5.08-29.09l1-1.36c.26.51.69,1.78,1.44,2,2.39.77,3.12-.91,2.8-2.63-.17-.92-1.45-1.66-1.86-1.79Zm5.46,11a1,1,0,1,1-1,1A1,1,0,0,1,40.38,206.68Zm7.74,12.16a1,1,0,1,1-1,1A1,1,0,0,1,48.12,218.84Z"/></g></g><path id="path147-0-8-1-3-6-7-5-8" d="M130.62,223.08c7.82-.17,11.33-9,5.54-15.81-.84-1-.93-1.57.61-.61,3.9,2.6,11.37.89,11.76-7.08.47-9.82-13.25-12.65-15.83-2.21-.14,1.1-1,1.08-.82-.49a32.48,32.48,0,0,1,3.39-12.08H126a32.47,32.47,0,0,1,3.38,12.08c.22,1.57-.68,1.59-.81.49-2.58-10.44-16.3-7.61-15.83,2.21.38,8,7.86,9.68,11.76,7.08,1.54-1,1.45-.39.61.61-5.79,6.83-2.28,15.64,5.54,15.81Z"/><path id="path147-0-8-1-0-3-83-6-6-4" d="M48.17,26.57c7.82.17,11.32,9,5.53,15.81-.84,1-.93,1.57.61.61,3.9-2.6,11.38-.89,11.76,7.08.47,9.82-13.25,12.65-15.83,2.21-.13-1.1-1-1.08-.81.49a32.47,32.47,0,0,0,3.38,12.08h-9.3A32.48,32.48,0,0,0,46.9,52.77c.21-1.57-.68-1.59-.82-.49-2.57,10.44-16.3,7.61-15.82-2.21.38-8,7.85-9.68,11.75-7.08,1.54,1,1.45.39.62-.61-5.8-6.84-2.29-15.64,5.53-15.81Z"/></g></g></g></g></svg>