<svg id="svg4946" xmlns="http://www.w3.org/2000/svg" viewBox="0 0 178.78 249.65"><defs><style>.cls-1{fill:#fff;stroke:#000;stroke-width:1px;}.cls-2{fill:#d40000;}.cls-3{fill:#e2cf00;}.cls-4{fill:#131f67;}</style></defs><title>12CLUB</title><g id="layer1"><g id="g4942"><rect id="rect6355-6-85-3-5-0-1" class="cls-1" x="0.5" y="0.5" width="177.79" height="248.65" rx="8.5"/><path id="path147-6-9-8-7-0-5-6-46-4-5" d="M164.47,209.2c3.13-.07,4.53-3.74,2.22-6.59-.34-.41-.37-.65.24-.25,1.56,1.08,4.55.37,4.71-3,.18-4.09-5.3-5.27-6.34-.92-.05.46-.41.45-.32-.21a13.88,13.88,0,0,1,1.35-5h-3.72a14.1,14.1,0,0,1,1.36,5c.08.66-.28.67-.33.21-1-4.35-6.52-3.17-6.33.92.15,3.32,3.14,4,4.7,3,.62-.4.58-.16.25.25-2.32,2.85-.92,6.52,2.21,6.59Z" transform="translate(0.1 0.1)"/><path id="path147-6-9-8-7-4-5-62-9-4-5" d="M14.11,40.25C11,40.32,9.58,44,11.9,46.84c.33.41.37.65-.25.25C10.09,46,7.1,46.72,7,50c-.19,4.09,5.3,5.27,6.33.92.05-.46.41-.45.32.2a13.88,13.88,0,0,1-1.35,5H16a13.88,13.88,0,0,1-1.35-5c-.09-.65.27-.66.32-.2,1,4.35,6.52,3.17,6.33-.92-.15-3.32-3.14-4-4.7-2.95-.61.4-.58.16-.24-.25,2.31-2.85.91-6.52-2.22-6.59Z" transform="translate(0.1 0.1)"/><path id="path37-5-2-4" d="M8.32,29H6.12V26h2.2s0-1.61.08-4.46c.14-6.08.29-7,2-8.69,3.47-3.31,9.28-.61,9.21,4.36-.1,7,0,13.69-.23,14.64-.36,1.67-.4,1.76-.25,2.07.3.61,2.93.87,2.93.7v3a5.46,5.46,0,0,1-4.44-1.18,6.62,6.62,0,0,1-6.48.79C9.34,36.36,7.94,34.12,8.32,29Zm7.42,5.24c-1.08-1.58-2.92-3.73-4.64-4.49-.11,1.81.05,3.33.68,4.14a2.53,2.53,0,0,0,4,.35ZM16.65,17c-.81-2.3-2.89-3.07-4.4-1.64-.95.89-1.1,1.83-1.12,6.93,0,3.15,0,4.47,0,4.47,3,1,5.71,4.4,5.68,4.36l.08-9.51A27.24,27.24,0,0,0,16.65,17Z" transform="translate(0.1 0.1)"/><path id="path37-3-2-7-4" d="M170.26,220.41h2.2v3h-2.2s0,1.61-.08,4.46c-.14,6.08-.29,7-2,8.69-3.47,3.3-9.28.61-9.21-4.36.1-7,0-13.69.23-14.64.36-1.67.4-1.76.25-2.07-.3-.61-2.92-.87-2.92-.7v-3a5.48,5.48,0,0,1,4.44,1.18,6.57,6.57,0,0,1,6.47-.79c1.84.87,3.24,3.11,2.86,8.19Zm-7.42-5.24c1.08,1.58,2.92,3.73,4.64,4.49.11-1.81,0-3.33-.68-4.14a2.53,2.53,0,0,0-4-.35Zm-.91,17.32c.81,2.29,2.89,3.07,4.4,1.64.95-.89,1.1-1.83,1.12-6.93,0-3.15,0-4.47,0-4.47-3-1-5.72-4.4-5.69-4.36l-.07,9.51a26.24,26.24,0,0,0,.22,4.61Z" transform="translate(0.1 0.1)"/><g id="g5457-6-3-6"><g id="g3405-1-0-4"><path id="path3391-4-8-9-0" class="cls-2" d="M95.55,228.43c.44-6.51.06-13.5.36-18.8-.2-.37.52-1.4.56-1.4a7.13,7.13,0,0,1,0-4.59c4.24-16.23,11.92-28.87,19.84-40.65,6.44,19.47-13.78,33.13-18,50.14-1.41,5.89-1.2,10-1.74,15.33Zm-33.6.25L37.9,191.38l5.22-2.55,24.72,39.72Zm31.1-69.09c.21,1.07,1,1.65,1.94,1.16s1-.52.43.33a1.73,1.73,0,0,0,2.78,2.07,1.43,1.43,0,0,0,.15-2c-.57-.53-.69-.8.14-.4,2.11.86,3.27-2.2,1.23-3.23a2,2,0,0,0-1.94.38c-.46.48-.53.31-.4-.06a7.49,7.49,0,0,1,.3-1,5.08,5.08,0,0,0,.23-.8l-2.15,0s.18.49.35.91.23.68.31.85c.29.58-.06.37-.64-.07a1.67,1.67,0,0,0-2.43.37A2.38,2.38,0,0,0,93.05,159.59Zm3.1-30.34,4.62-.14,5.09,14.09c-4.07,6.78-5.17,14.42-.44,22.18l-14.65,0C94.2,153.72,94.74,141.33,96.15,129.25ZM101,147.57a1.64,1.64,0,0,0,.14-2.24c-.71-.84-.55-.89.4-.33,1.38.8,2.7-.93,1.88-2.46a1.81,1.81,0,0,0-2.82-.32c-.53.72-.47.06-.06-.89.15-.35.37-1,.37-1l-2.24,0s.28.64.44,1c.41,1.08.42,1.43-.21.73a1.73,1.73,0,0,0-3,1.34A1.49,1.49,0,0,0,98.07,145c.61-.36.89-.44.2.39a1.74,1.74,0,0,0,.32,2.27A2,2,0,0,0,101,147.57ZM70,152c.18-.13.25,0,.14.14a8.05,8.05,0,0,1-.55.6c-1,1.16.31,2.65,2,2.42,1.14-.16,1.82-2,1-2.68-.28-.19-.49-.22-.7-.48,0-.1,0-.16.13-.12s.46.31.61.35a1.64,1.64,0,0,0,2.14-.91,2.2,2.2,0,0,0-.7-2.3,1.63,1.63,0,0,0-2.21.44c-.58.78-.66,0-.19-1a6.58,6.58,0,0,0,.31-1l-2.06.11s.11.45.29,1c.45,1.16.78,1.5.2.9-2.52-1.49-3.35.53-3.39,1.34A1.78,1.78,0,0,0,70,152Zm10.07-22.84,3.72,0c-2.81,15-8.55,27.48-18.21,36.1l-18.18-.05L38.66,159l3.39-4.41C65.13,157,75,145.52,80.09,129.12ZM63.36,163.79a1.65,1.65,0,0,0,.83-2.54c-.66-.75-.72-1,.28-.4,1.33.78,2.63-.78,2-2.31a1.75,1.75,0,0,0-2.62-.6c-.81.61-.8.34-.37-.62a8,8,0,0,0,.37-1.24l-2.28,0s.17.54.33.91c.38.86.52,1.25.35,1.26s-.37-.26-.54-.42a2,2,0,0,0-2.15-.05c-1.36,1.3-.6,3.59,1.14,3.17,1.12-.28,1.37-.7.45.35C60,162.64,61.74,164.51,63.36,163.79ZM49,163.34a1.53,1.53,0,0,0,.73-2.24c-.53-.71-.8-1.17.15-.53,1.25.64,2.35-.2,2.33-1.64a1.77,1.77,0,0,0-2.93-1.29,2.08,2.08,0,0,1-.51.29c-.15,0,.13-.81.43-1.35.13-.23.36-.7.36-.7l-2.28-.08a8.13,8.13,0,0,0,.3,1.1c.37,1,.46,1.3-.18.74-1.71-1.6-3.54.44-2.82,2.21a1.43,1.43,0,0,0,2.24.5c.63-.49.31.16-.12.67C45.53,162.42,47.24,164.16,49,163.34Zm104-37.5.12,2.77L123.7,153.24l-1.23-1.9ZM43.54,131c4.24-3,9-8.46,13.6-11.3C60.54,127.57,52.57,135.26,43.54,131Zm77.38-1.44c-3-16.58,14.75-13.13,13.81-11.65ZM25.63,119.44,54.77,95.59l1.33,2L25.36,122.88Zm79.82-24.06c.09.25,1,1.2,1,1.29-.25-.19-1.75-1-2.48-.22a2.81,2.81,0,0,0-.54,1.76,1.72,1.72,0,0,0,2.88.89c.31-.26.57-.58.63-.47a2.32,2.32,0,0,1-.25.92c-.16.37-.74,1.15-.32,1.15h2.07a4.13,4.13,0,0,0-.32-1c-.46-1-.45-1.55.11-.83,1.09,1.41,3.2.24,3-1.46a1.57,1.57,0,0,0-2.3-1.33c-.1.06-.39.35-.43.35s.19-.46.39-.85c.67-1.28-.33-2.47-1.85-2.34a2.25,2.25,0,0,0-1,.39A1.72,1.72,0,0,0,105.45,95.38Zm25.16-12a50.54,50.54,0,0,0,8.75,6.39l-2.75,4.36C118,92.43,104.4,99.83,98.75,119.9l-3.08.59c1.16-12.51,5.34-24.93,17.69-37Zm-17.87,3c0,.59,1.09,1.3.85,1.46s-.76-.5-1-.53c-2.15-.23-2.6,3.13-.47,3.5a2.59,2.59,0,0,0,1.54-.4c.35-.28.58-.51.65-.48s-.16.64-.4,1.09a12.19,12.19,0,0,0-.52,1.27h2.45s-.22-.75-.44-1.29-.34-1.12-.16-1.07.18.23.35.38a1.82,1.82,0,0,0,3-.9c.39-1.34-1.21-2.73-2.33-2-.38.27-.39.07,0-.52a1.77,1.77,0,0,0,0-1.83A2,2,0,0,0,112.74,86.41Zm17.58,4c-.06-.3,0-.21.33.11a1.8,1.8,0,0,0,3.1-.49c.43-1.36-.88-2.91-2-2.37-.59.27-.6.17-.26-.27a1.7,1.7,0,0,0-1.6-2.64,1.65,1.65,0,0,0-1.51,2.49c.27.46.18.56-.3.33-1.4-.69-2.72,1.55-1.69,2.87a2,2,0,0,0,2.81.09c.43-.41.42-.21.11.64s-.56,1.34-.56,1.34l2.43,0A10.35,10.35,0,0,1,130.32,90.39Zm-52.1,30c.71-.18-2.5-10.38-4.85-14.93,2.68-6.43,6.34-12.67.19-21.93l15,0C83.9,94,83.8,120.58,82.71,120.64Zm1.31-11.81a4.51,4.51,0,0,1-.78-1.85c-.09-.53,0-.56.32,0,1.34,1.48,3.14,0,3.15-1.26s-1.25-2.22-2.14-1.62c-.63.42-.8.3-.24-.49a1.61,1.61,0,0,0-1.48-2.51c-1.84,0-2.54,1.74-1.23,3,1,.91.07.37-.7,0-1.51-.63-2.49.9-1.82,2.46a1.59,1.59,0,0,0,2.64.48c.43-.48.84-.75.6,0a10.36,10.36,0,0,1-.79,1.82Zm2.32-16.17a5.87,5.87,0,0,1-1-2c0-.31.17-.23.67.21,1.61,1.38,3.82-1.1,2.32-2.62a1.26,1.26,0,0,0-1.64-.36c-.75.39-.69.2-.32-.21a1.64,1.64,0,0,0-.08-2.21c-1.64-1.47-4.23.71-2.7,2.28.66.68.34.59-.39.15-1.37-.82-2.9,1.44-1.86,2.78,1.22,1,2.14.53,3-.13.19-.1.35-.14.35-.06s-.85,2.16-.85,2.16ZM62.22,86.13c-.91-.06-1.56-8.63-.44-11.34C64.15,63.35,71.42,55,75.94,48c7.25-10.43,6.35-27.77,6.65-27.07l1,.12s-.79,10.16-.34,14.75c.46,4,.36,4.29.07,4.69-.07.37,0,1.47,0,1.85C80.08,57.3,72.38,72.66,64.43,84.27ZM136.78,60,112.29,21.26l5.89-.54c2.18,3.48,23.45,36.6,23.45,36.6Z" transform="translate(0.1 0.1)"/><path id="path3395-8-0-1-6" class="cls-3" d="M36,229.37c2.79-10.25-4.76-34.09-9.47-37.2,5.53-.24,12.18-.14,12-.66,0,0,23.51,37.13,23.32,37.33s-25.82.53-25.82.53Zm95.3-58.15c-5.7-.81-3.45-5.56.21-6.05-.48.08.39-2.37,3.35-3.35.67-1.22,1.2-3.31,1.81-4.28-1.77.58-3.92,2.08-12,.9.7-3.83,8.4-4.48,11.17-3.89,1.61.37,3.19,2.77,3.67,2.82,4.95-.83,11.23,3.66,9.33,8.22-.3.65-1-.78-2.71-1.38-5.38-2-5.75-4.88-7-6.19-.45-.08-2.82,4.64-2.82,4.64l.74,3.21c1.29-.12,7,3.44-.12,5.84-2,6.83-5.68,2-5.67-.49Zm13.5-30.48c-.3-.31.24-2.43,1-3.65a2.11,2.11,0,0,1,1.83-1c.94.16.79,1.54-.46,5.57C147,142.23,145.76,142.29,144.75,140.74ZM31.28,112.52c-1.57,0-.16-4.28.8-5.63.31-.42,1.56.47,1.63,1.09C33.82,109.09,32.13,113,31.28,112.52Zm-1.11-29c1.91.46,4.92,2.39,6.36,3.45,1.79,1.34,1.3,4,2.73,4.21,1-.48,2.74-4.79,2.74-4.79s.45-2.22-.81-2.9c-3.14-1.7-3.09-3.53-2.89-3.7.94-2.42,2.79-2,3.79-2.12,0-1.33,0-4.13,2.71-3.84,2.39.23,2.63,3.66,1.62,3.69,0-.06,4.53-.65,4.48,2.35,0,1.63-2.72,3.72-3.56,3,0,0,.45,3.25-3.62,4.37-.95,1-1.72,5.1-1.72,4.73,2.45-2.22,6.29-2.74,12.36-1.94-3.76,7-14.14,3.72-15,2.36C34.18,90.74,29.28,88.68,30.17,83.49ZM74.9,66.74c5.53.5,11.58-1.24,16.18-.32.52.07,1.09.85,1.4,1,2.38,1.3,4.87.9,8.69-.55.94-.36,18.47-.23,18.47-.23,4,5.92,11.09,17.06,11.24,16.68,0,0-9.71-.11-14.19.16-3.15.19-1.29.62-3.48.71C97.9,95.76,95,120.71,95,120.71s4.87-1.28,6.14.07c6-17.69,17.45-25.76,33.39-24.18,7.36.73,16.15,8,16.15,8L134.9,117.48c-12.21-6.18-17.44,12-13.74,12.09l31.74-26s.55,2.13.49,2.2c-2.26,3-40.1,33.82-40.1,33.82l-1.66-1.85s-1,.93-1.6,1.55a3.41,3.41,0,0,0,1.07,2.66c-7.5,6-7.75,17.12-2.22,23.17,0,0-2.45.18-2.71.22-3.11.53-6.33-14.88-.16-22.06-3.12-6.13-5-14.47-5.42-14.86.08,1-4.92.66-4.92.66A169.29,169.29,0,0,1,91,165.48l23,.5-9.78,17s-11-.27-15.7-.61c-4.93-2.88-7.78-.69-12.41.38-6.59.19-16.29-.11-16.29,0a79.61,79.61,0,0,0-11.63-17c-.61-1,19.51-.39,19.51-.39s10-15.27,11.89-19.59c1.43-3.36,4.63-15.62,4.63-15.62.15.64-1.82-3.19-6.42-3.1C74,152.43,43.94,161,25.86,144.64l-.17-2.95,39.83-32.44,1.77,2.06c-.38-.31-24.45,19.8-24.05,19.68,7.14,3.74,15.39.71,14.43-11.6a135.07,135.07,0,0,0,15.58-13.76c.11-.19,5.49,12.13,5.36,14.5,3.1-1,4.93,1.15,4.87.78-1.11-7.13,5.1-34.15,5.22-37.26-3.45-.27-8-.15-15.21-.43,5.77,11.2,3.77,18.79-4.29,25.7l-1.69-2.13c.69.38,11.77-9.25,2.85-23.65-.41,0-4.71-.39-4.71-.39S74.46,68.72,74.9,66.74Zm42.8-46.32s25.14-.6,25.15.14a59.17,59.17,0,0,0,10,37.37s-11.14-.4-10.94-.26Z" transform="translate(0.1 0.1)"/><path id="path3393-8-5-4-3" class="cls-4" d="M154.6,19.46H24V230H154.6Zm-12.28.92s-1.69,22.28,9.9,36.88c-7.08-1.08-11.13,0-15.25,2.93l.56.58c5.68-3.5,10.49-2.57,15.42-2V87.42c0,1.39-5.9.77-9.52-2a17.07,17.07,0,0,1-4.92-4.76c-.31-.49-.62-1-.71-1.07q-.5-.59-6.19-11.56c-1.92-3.71-4.47-8.78-6.54-12.71-1.34-2.55-3.83-7.35-4-7.73-.37-.8-3.08-6.11-4.13-8-2.79-5.1-7.29-14-8.89-17.2-.36-.82-.9-1.21.07-1.18a3.45,3.45,0,0,1,.55.05c.17.08.38-.29.38-.29ZM25.79,141v-2.25l38.05-31.46,1.21,1.57ZM62.64,85.88a4.86,4.86,0,0,1-.5.17c-1-4.36-.42-10.2.73-14.58,1.67-6.09,4.8-11,8.29-15.89,8-11.2,11.48-19.65,11.34-34.71l1.14.12c0,2.38-.36,4.17-.45,7.33a56.2,56.2,0,0,0,.27,9.28c.18,1.63.28,2.69,0,2.9a1,1,0,0,0-.13.87c0,.45-.08,1.36-.08,1.36-1.82,9-11.6,31.94-20.62,43.15Zm4.75,20.38-2-2.48a1.74,1.74,0,0,1-.16-2.67c4-4.09,4-9.3.16-14-.26-.59,1.21-3.59,1.21-3.59l3.06,0C74.42,89.42,75.73,99.72,67.39,106.26ZM70.2,83.12c.1-.4-4.53-.24-4.53-.24,2.87-4.31,5.32-8.74,7.72-13.18,3.73-6.72,8.9-18.49,10.52-27,1.21,10,3,24.79,11.47,25.38,2.79.19,6-1.73,6.55-1.41l17.67-.14a68.67,68.67,0,0,0,12.13,17.17A45.46,45.46,0,0,0,143,88.06c2.22.55,2.43.18,6.81.81a8.89,8.89,0,0,0,2.89-.33c-3.49,2.77-7.53,2-12,.8-.25-.06-.51-.14-.77-.23l-3.35,5.06c-7.47-1.77-31.44-.52-37.75,25.65,0,0,.64.33.49.15,5-22.71,26.22-27.24,36.32-25l-.86,1.34c-16.77-2.06-30.43,8.47-33.68,23.4l.33.29c6.29-22.57,32.74-30.92,49.14-15.28l3-2.14-.1,2.9-40.32,33.91-1.61-1.67-.61.48c-1,.87-1.45,1.09-1.16,1.57s1.43,1.58,1.48,1.7c-6.69,5.47-8.81,16-2.46,23.41.71.79.58,1,.45.11-5.7-6.22-5-17.24,2.13-22.46l1.43,1.89c-3.13,6.89-4.79,17.65,3.43,18.58,2.95,7.94-.44,17.33-4.23,23.63-4,7.26-8.87,13.29-11.9,21.19-1.48,3.3-3.83,13.09-3.7,20.56h-.89c0-3,.2-6.67.23-9,.12-11.27.11-10.6.36-10.89.08-.09.32-.19.34-.27s-.18-.36-.27-.63a4,4,0,0,1-.22-1.2c0-.41.41-1,.33-1.16-1.77-6.22-1.91-17.4-7.63-22.54-2.8-2.41-6.52-2.51-11.34-.53-10.63,0-9.06.57-17.65.08a79.73,79.73,0,0,0-12.52-17.61c-2.18-2.44-5.21-3.78-8.06-5.55a13.84,13.84,0,0,1,3.86-4.8,7,7,0,0,1,.87-1.23c29,2.8,35.24-25.36,33.92-24.65l-.26.23c-7.91,29-36.09,28-50.25,15.41,0,0-2,1.75-2-.17,0-1.74.63-2.24.63-2.24l39.75-32.55c.73.46,1.51,2,1.83,1.84.74-.39,1.82-1.18,1.78-1.65a19.39,19.39,0,0,0-1.45-2.61c10.63-11.06,5.84-16,2.42-23.57ZM85.27,21a.59.59,0,0,1,.51.31c.24.38-.72,2.62-1.32,3s-.61-.06-.2-2.23A1.25,1.25,0,0,1,85.27,21Zm58.33.07H153V56.54C146.07,46.83,142.51,35.67,143.6,21.06Zm-55.86.06c.23,0,.44.05.5.22.24.6-1.11,3.18-2.78,5.33-.87,1.11-1.31,1.43-1.58,1.17-.22-.51-.22-1.1.58-2a20.08,20.08,0,0,0,2.24-3.54C86.9,21.69,87.1,21.16,87.74,21.12Zm9.46.13c.27,0,.54,0,.62.12a18.37,18.37,0,0,0,7.73,7.85c.45.26.24.9.39,1.36-3.48-.52-8-5.47-9.27-9.08C96.67,21.23,96.93,21.24,97.2,21.25Zm5.44,0c.69.71,1.78,1.56,2,2.37a2.55,2.55,0,0,1,.15,1.33c-.6.38-3.61-3.12-3.49-3.53A1.54,1.54,0,0,1,102.64,21.24Zm-13,0c.3,0,.75,0,.81.22.38,1.53-3.09,7.47-5.62,9.16-.9.6-1,.44-.89-.57,0-.67.11-.62,1-1.5a17.83,17.83,0,0,0,3.55-4.95C89.51,21.34,89.27,21.2,89.61,21.19Zm2.36,0a.88.88,0,0,1,.72.26c.12.2,0,.52-.15.92A26,26,0,0,1,85.22,33c-1.3,1-1.52,1-1.61,0-.06-.6.22-.78.83-1.2a17.74,17.74,0,0,0,6.45-8.89c.21-.68.13-1.29.5-1.5A1.27,1.27,0,0,1,92,21.22Zm17.58,5.63c.13.23,1.1,1.76.31,1.18A23.26,23.26,0,0,1,108,26c-2.23-2.54-2.3-2.38-2.25-3,0-.83-.57-2.18.7-1.83C107.7,22.64,108.48,25,109.55,26.85ZM99.4,21.27a3.63,3.63,0,0,1,.8.09c1.47,2.77,5,5.2,5,5.19a5.38,5.38,0,0,1,0,1.42c-.08.37-5.7-3.91-6.32-6.48C98.94,21.33,99.14,21.27,99.4,21.27Zm-4,.05c1.32,2.43,4,8,10.43,10.18.46.1,1,1.41.6,1.77a18,18,0,0,1-12-11.92A1,1,0,0,1,95.4,21.32Zm-1.72.47c-.22,0,3,9.39,12.25,12.18.79.25,1.26.6,1.21,1.07s0,.68-.93.23a10.17,10.17,0,0,0-9.1-.41c-.47.24-.94.89-.57,1.3.22.21.75.05,1.42-.21,3.49-1.36,8.83-.56,9.77,1.58.67,1.52.78,2.64.42,2.83s-.76-.37-1.59-1.11c-2.65-2.33-5.82-3-8.35-.74-.54.49-1.08.4-1.27.6s0,.63.19,1.06a1,1,0,0,1,0,.94,4.06,4.06,0,0,0-.2,1.67c.06,1.2.85,2.23,3.12,3.81,1.76,1.23,3.15,1.92,1,.17-3.72-3-4.39-4.25-2-3.21s5.73,0,8.09-1.81c.8,0,1.28-.15,1.7.16,1.76,4.15,3.2,9.67,5.54,15-2.79,3.17-12.52,10.93-19.46,10.65-6-.24-8.1-10.08-9.42-15.52a34.09,34.09,0,0,1-.9-7.89.35.35,0,0,1,.27-.06,11.28,11.28,0,0,0,3.6.12c1.6-.38,1.92-.66,2-.43s-.55.91-1.71,1.7c-.51.35-2,1.06-1.82,1.17.35.23,2.13-.72,2.43-1,.46-.4.78-.42,1-.2s.32,0-.54,2.12c-1,2.36-.86,2.57,1,4a9,9,0,0,1,1.37,1.23c.17.29.29.63.37.74.32.42.12-.26-.06-1.33a4.13,4.13,0,0,0-1.54-2c-1-.71-.85-1.4,0-3.79,2.46-7.07,1.84-10.22-.87-11.76-1.23-.69-4.65-.5-5.73.4-.53.45-.45-.43-.37-.49,6.5-4.48,8-8.76,9.68-12.89Zm12.55,3.46a77,77,0,0,1,5.53,6.11,26.62,26.62,0,0,1,1.76,2.92c.11.18.23.38.15.47s-.3-.12-.44-.23c-1.36-1-6.94-7.41-6.94-7.41C106,26.06,105.85,25.71,106.23,25.25Zm1.1,4.33s4.84,5.31,7.61,7.92a32.32,32.32,0,0,1,1.57,3.08c0,.12-.6-.33-.6-.33-3.06-2.83-5.89-6-8.83-9,0,0-.23-1.25-.23-1.76C106.91,29.21,107.21,29.49,107.33,29.58Zm10.5,13.6c.65,1.06,1.12,2,1.44,2.64.51,1,.34,1-.12.65-3.46-2.84-6.35-6.31-9.61-9.48-.43-.44-1.27-1.41-1.27-1.41s-1.07-2.29-.38-2.24c.54.21.89.8,1.24,1.17C110.83,36.35,114.09,39.5,117.83,43.18ZM87.64,35.6a4.39,4.39,0,0,1,3.54,1.2c.64.8.9,2.07.55,2.44s-1-.42-1-.42c-3.36-1.89-4.52-1-6.34-.43-.26.08-.54-.62-.21-1.32.67-1.16,2.37-1.44,3.48-1.47Zm21.15,1.79C112.38,41,116,45,119.93,48.14c.54.47.92.77,1.17,1,.51,1,1.69,3.46,1.69,3.46-4.17-2.93-13.56-13-13.46-12.95S108.55,37.82,108.79,37.39Zm-7,.6a5.19,5.19,0,0,1,1.94.43c1.82.72,3,1.49,1.08,1.23a14.07,14.07,0,0,0-4.46-.22c-1.78.29-1.91.48-2.07.2C97.83,38.89,99.78,38,101.75,38Zm-14.82.21a5.12,5.12,0,0,1,2.06.45c2.21,1,2.6,1.6.72,1.3a11.64,11.64,0,0,0-4.06.19,5.8,5.8,0,0,0-1,.38c-.46.14-.58-.2-.39-.77A2.61,2.61,0,0,1,86.93,38.2ZM103,41l.46,0c-.57,3.25-3.8,2.93-4.67.14h.45C100.91,43.87,102.18,42.3,103,41Zm1.8.17c1.5,0,1.4.88-.16,1.48-1.19.47-1.32.38-.89-.51S104.09,41.21,104.76,41.21Zm-15.38.11a2.09,2.09,0,1,1-4.16.28l.38,0c1.33,2.51,2.87,1,3.35-.26Zm1.81.4c.46.32.17.75-.83,1.36S89.23,43,90,42A1.05,1.05,0,0,1,91.19,41.72Zm7,0c.18-.06.6.74.24.92-.21.12-.53-.21-.57-.45A.45.45,0,0,1,98.23,41.72Zm12.16.18a102.82,102.82,0,0,0,13.42,12.53,26.37,26.37,0,0,1,1.37,2.8c-.19.24-.29.22-.85-.06a91.56,91.56,0,0,1-13.84-13.5C110.31,43,109.91,42.4,110.39,41.9Zm-25.84.3c.31,0,.75.68.51,1.1-.2.15-.51-.09-.64-.28a.81.81,0,0,1,0-.69A.21.21,0,0,1,84.55,42.2Zm27,4.15c0-.1,12.61,12.74,14.23,12.5.75.44,2.63,4.1,2.63,4.1s0,.33-.26.17c-2.14-1.06-11.06-8.49-15.62-14A21.68,21.68,0,0,1,111.52,46.35Zm-15,1.89c2.2,1.07,1.25,3.26-1.07,1.86-1.83-1.11-3.28-1.21-3.27-.25a1.08,1.08,0,0,0,1,.93,17.08,17.08,0,0,1,2.62.59c1.38.3,2.42-.07,2.77-.92a2.23,2.23,0,0,0-1.74-2.92c-.92.09-.69.53-.29.71ZM114,51.75a88.8,88.8,0,0,0,15,12.78,24,24,0,0,1,1.33,2.72c0,.19-.23,0-.23,0-4.43-2.57-10.27-7.67-15.81-13.45a14.15,14.15,0,0,1-.7-2.12C113.7,51.63,113.83,51.7,114,51.75ZM99.34,54.3c-.2,0-.47.33-.8.51-.67.37-.88.47-2.54,0-.9-.27-1-.25-1.58.15a1,1,0,0,1-1.26.17c-.94-.42-1.38-.11-2.25.19s-1.11-.06-1.86-.23a17,17,0,0,0,0,3.12s.78-.46,1.2-.67c.73-.37.62-.31,1.68-.27A8.26,8.26,0,0,0,96,57a3.24,3.24,0,0,1,3.21.44c.55.45,1.27.37.85-.45a5.37,5.37,0,0,1-.44-1.73c.06-.59-.07-1-.28-1ZM116,56.66c3,2.85,6.61,7.2,15.19,12.24.45.79,1.06,1.83,1.44,2.65,0,.22,0,.43-.24.35A71.79,71.79,0,0,1,116.8,59.6a18.47,18.47,0,0,1-1.32-3C115.56,56.3,115.9,56.59,116,56.66Zm-1.25,1.09,3.28,6.19-11.06,0A42.88,42.88,0,0,0,114.77,57.75Zm-18.33.14c-1.82.72-2.09.87-3.89.43-1-.26-.76.36-.23.61a4.81,4.81,0,0,0,4.06-.32C96.86,58.3,97.19,57.59,96.44,57.89ZM94.57,59.8c-1.9,0-3.69.69-3.82,1.46,0,.15.13.32.42.14,1.29-.77,4.49-1,6.91-.15.39.14.46-.1,0-.44A5.51,5.51,0,0,0,94.57,59.8Zm24.14,2.64a70.72,70.72,0,0,0,14.74,10.81A18.94,18.94,0,0,0,135,76c-7.22-3.51-15.09-10.46-15.09-10.46a25.71,25.71,0,0,1-1.53-3.16C118.31,62.1,118.61,62.36,118.71,62.44Zm2.46,5.17A82.47,82.47,0,0,0,135.28,77c.3.3,1.06,2.1,1.31,2.29s-.3.2-.84-.08c-3.93-1.82-12.37-7.64-12.37-7.64C122.57,70.24,121.42,68.85,121.17,67.61ZM42.3,91c.6-1.29,1.22-2.73,1.62-3.9a3.75,3.75,0,0,0,3.31-1.47c.91,0,1.6,0,2.84-.06,0-1.23,0-3,0-3,1.25-1.3,2.1-2.8.16-5.09,0,0-.08-1.07-.11-2.89a19.88,19.88,0,0,0-2.91,0,3.14,3.14,0,0,0-5.38,0s-1.3.07-2.19.07c0,.49-.17,2.64-.17,2.64s-3.79,2.6.14,5.65l-.05,2.57a14.91,14.91,0,0,1,2.22.2s-1.5,3.5-2.49,5.17c-.34.09-.26-.11-.66-1.27A9.13,9.13,0,0,0,36.1,86c-1.28-1-3-1.3-4.25-2.16s-2-1.9-2.39-1.7a12,12,0,0,0,.19,4.35c.62,2.53,4.25,4.15,7.28,5.36.23.15.44.38.44.46,0,.42-.4.29-1.39.19A2.13,2.13,0,0,0,33.33,94a7.72,7.72,0,0,1-.84,1.23,4.41,4.41,0,0,0-.66.87c0,.15-.36.93-.67,1.58a3.48,3.48,0,0,0-.53,1.42,31.26,31.26,0,0,0,.18,5.79c.2,1.13,1.61,1.77,2.1,1.86.75.15.89.91.77,1.54-.58,3.08-2.34,5-2.91,4-.15-.26-.31-1.52-.35-1.51a4.29,4.29,0,0,0-.19,1.5,1,1,0,0,0,1.28.6c.87-.32,1.55-1.18,2.08-3.13.22-.8.43-1.25.8-1.31.69,0,1.75,1.46,1.75,1.46-3.54,3-10.35,8.36-10.35,8.36V21.06H81.71A48.87,48.87,0,0,1,78.34,42.2C75.07,49.59,70,55.09,66.12,61.89a36.51,36.51,0,0,0-4.58,25.32A58.14,58.14,0,0,1,48.89,99.44l-4.46-4.73s.67,0,1.46-.08c3.64-.41,7.57-.93,9.09-4.73.22-.42.13-.61-.13-.67-2.85.4-5.32,0-6.94.11C44,89.62,42.3,91,42.3,91Zm.43,2.8s-4.57-2.18-4.9-2.24c-2-.36-6.8-2.87-7.61-4.58-.1-.22-.37-3.34-.45-4,0-.2.11-.19.3,0,.52.36,2.51,1.66,3.24,2,3,1.48,4.21,2.53,4.95,4.76A6.77,6.77,0,0,0,38.75,91c.25.26.35.24.65,0a15,15,0,0,0,2.51-4.9c.08-.21.25-.41.15-.71-.24-.8-.82-1.83-.22-2.62-1.9.09-3.72-1.3-3.49-2.7.51-2.59,1.6-2.12,3.65-2.5-.24-6,5.34-4.53,5.33-.36,6.13.52,3.23,6.21-.33,5.34,1.41,3.23-2.83,4.44-3.43,3.89-.23,1-1.85,4.42-2.19,5.42,4.54-3.24,11.85-1.8,12.91-2C51.65,95.37,43,94,42.73,93.79Zm81.8-20.4c1.15.89,10.94,7,12.74,7.17,0,0,.87,1,1.58,1.86s.91,1,1,1.12-.25.16-.31.15c-4.4-1.92-8.88-3.94-12.68-7.13a4.46,4.46,0,0,1-.88-1C125.63,75.14,124.64,73.55,124.53,73.39Zm3.24,5c4.48,2.53,8.28,5,12.36,6.29a5.35,5.35,0,0,1,1.16.44c.29.2,1.54,1,1.83,1.15,1.86,1.09,2,1,1.59,1.23s-3.78-.76-6.54-1.78c-4.89-1.82-6.62-2.85-8.39-4.45C129.38,80.8,127.52,78.57,127.77,78.34ZM38.58,92.42a2.94,2.94,0,0,1,1.61.71,22,22,0,0,0,3,1.9l.46.19,4.4,5-11.33,9.24s-.92-.94-1.21-1.26-.2-.54.15-.88a1.47,1.47,0,0,0,.25-1.15,1.21,1.21,0,0,1,.48-1.31,1.3,1.3,0,0,0,.49-1.05,1.44,1.44,0,0,1,.61-.81,1.77,1.77,0,0,0,.77-2.13c-.11-.35-.17-.44.28-.74a2.11,2.11,0,0,0,1.07-1.85,1.37,1.37,0,0,0,0-.36c-.16-.84.58-.62,1.19.43a8.79,8.79,0,0,1,.59,2.6c.2,1.26.33,1.61.4,1.43.39-1-.07-4.86-1.24-5.38-1.7-.76-3.12-2.32-2.69-2.93.15-.21.17-.14,1.21.34a9.91,9.91,0,0,0,1.25.52c1.2,0,.47-.48.08-.54a5.29,5.29,0,0,1-2-1.22C38.05,92.68,38.2,92.43,38.58,92.42Zm-2.9.66c1.11,0,1.32.29,1.33,1.24,0,.57.22,1,1.1,2.13.36.46.6.81.58,1s-.15,0-1.37-.16c-.43,0-.65-.06-.8.17-.42.62-1.31,0-1.86-1C33.36,94.31,33.82,93.1,35.68,93.08Zm21.09,1.33,12,14.79-1.36,1.06L55.37,95.66Zm-2,.9,1.29,2.19s-3.73,3.2-4.71,4.1c-7.93,6.45-25.83,21.08-25.83,21.08l-.24-2.94ZM33,95.71c.24,0,.51.3.89.89a12.94,12.94,0,0,0,1.79,2.22c1.47,1.36,1.61,1.23.42,1.36-.47,0-.63,0-.92.72-.87,1.1-3.45-2.82-2.85-4.32C32.59,96,32.79,95.7,33,95.71Zm4.2,2.12a1.56,1.56,0,0,1,.84.27c.64.27.68.42.58,1s-.55.74-1.42,0c-.67-.63-.55-1.25,0-1.27Zm19.22.36L57.86,100,25.79,126.1v-3C26.57,123.2,47.13,105.23,56.44,98.19Zm-24.9.3c.08,0,.22.27.57.81a9.15,9.15,0,0,0,2.15,2.39c.72.55.8.85.31.85a1,1,0,0,0-.65.49c-.3.52-.33.4-.8.12a3.48,3.48,0,0,1-1.61-1.77,5.12,5.12,0,0,1-.08-2.67C31.47,98.57,31.5,98.49,31.54,98.49Zm5.07,2.08a1.06,1.06,0,0,1,.86,1.7c-.3.29-.57.43-1.17.08-.79-.47-.93-1.19-.28-1.59A1.08,1.08,0,0,1,36.61,100.57Zm-5.27,2.07c.17,0,.48.24,1,.77a5.73,5.73,0,0,0,1.37.92c.62.35.65.47.31.75-.14.12-.61.13-.74.51-.37,1.08-1.93-.18-2.08-1.73C31.12,103.08,31.12,102.65,31.34,102.64Zm3.92.13A1,1,0,0,1,36,104.6c-.44.32-1.56-.25-1.67-.84C34.2,103.38,34.87,102.75,35.26,102.77Zm24,.89a1.08,1.08,0,1,1-1.08,1.08A1.08,1.08,0,0,1,59.21,103.66ZM56,104.1a1.08,1.08,0,1,1-1.08,1.08A1.08,1.08,0,0,1,56,104.1Zm-21.54,1.45h.2c1,0,1,1,.45,1.5a.75.75,0,0,1-1.12,0C33.18,106.43,33.48,105.6,34.46,105.55Zm23.93,1.58a1.08,1.08,0,1,1-1.08,1.07A1.08,1.08,0,0,1,58.39,107.13Zm94.43.06v2.73l-37.95,31.71L113.58,140Zm-96.61.23-2.81,6.33-.84-1.63h-2.1l.64-1.89-1.23-1.51ZM116,133.75l5-4c-2.15-10.9,6.44-15.24,14.59-12.07l5.08-4.34C131.21,105.36,109.08,110.76,116,133.75Zm-67.61-21.3a1.08,1.08,0,1,1-1.07,1.08A1.08,1.08,0,0,1,48.36,112.45Zm-3.26.26a1,1,0,0,1,1,1.05,1.06,1.06,0,1,1-1-1.05Zm17.37,2.2-4.95,4c1.28,10.43-3.77,15.74-14.64,12.17l-5.26,4.18C51.82,145.05,70.41,132.41,62.47,114.91Zm-15.24.94a1.08,1.08,0,1,1-1.08,1.08A1.07,1.07,0,0,1,47.23,115.85Zm104.21.27a1.08,1.08,0,1,1-1.07,1.08A1.08,1.08,0,0,1,151.44,116.12ZM45,116.38l-3.16,6.29-.79-1.89-2.13,0,.69-2.2-1.33-1.13Zm102.19.66,1,1.67,2.08.05-.78,1.58,1.5,1.55-6.77,1.68ZM37.45,121.61a1.08,1.08,0,1,1-1.08,1.08A1.07,1.07,0,0,1,37.45,121.61Zm-3.1.12a1.08,1.08,0,1,1-1.07,1.08A1.08,1.08,0,0,1,34.35,121.73Zm107.6.64a1.08,1.08,0,1,1,0,2.16,1.08,1.08,0,0,1,0-2.16Zm11,.17v2.4l-30.82,25.72-1.3-1.67ZM36.51,124.88A1.08,1.08,0,1,1,35.43,126,1.07,1.07,0,0,1,36.51,124.88Zm107.64.26a1.08,1.08,0,1,1-1.07,1.08A1.08,1.08,0,0,1,144.15,125.14Zm-3,.19a1.08,1.08,0,1,1-1.08,1.08A1.07,1.07,0,0,1,141.11,125.33Zm12,.38-.09,3.06c-9.6,8.21-29.24,24.54-29.17,24.55l-1.49-2.06S143.91,132.64,153.13,125.71Zm-118.6-.44-3,6.7-1.28-1.8L28.42,130l.45-1.81-1.72-1.18Zm102.71,2.65,1.89-.37-.33,2,1.33,1.4-7,1.54,3.36-6.27Zm10.41,32.68c1.41,2.12,1.32,4.44.73,4.79a21.49,21.49,0,0,0-1.81-1.24c-3.24-1.4-5.83-2.56-6.3-4.63C138.5,154.85,146.47,158.84,147.65,160.6Zm-17.06-12.42,10.92-8.93a11.08,11.08,0,0,1,2,1.26c.12.44-.19.57-.63,1a1.6,1.6,0,0,0-.35,1.09c0,.61.19.88-.05,1.15-.41,0-.74.52-.73,1s-.42.7-.67.95c-.45.45-.59.54-.88,2.05,0,.15,0,.55-.23.75-.63.06-1.09,1.61-1.37,1.71a1.85,1.85,0,0,1-1.38-1.43,7.34,7.34,0,0,1,0-2.28,6.79,6.79,0,0,0,.17-1.74c-.12-.45-.42-.17-.41.46a11.05,11.05,0,0,1-.26,1.75c-.16.73-.61,1.7-.41,2.27.3.85,1.39,1.21,1.88,1.67a7.18,7.18,0,0,1,1.72,2c1,1.9,1,2.22.78,3.65-.15.82-.95.68-1.43.35,0,0-3.07-2.25-4.4-3.36a15,15,0,0,1-4.31-5.33Zm4.15,6.13A35.74,35.74,0,0,1,139,157l-2.78,5.8a11.21,11.21,0,0,1,.71,3.17c3.51-.27,5.41,5.67-.06,5.12.63,3.68-5.27,6.56-5.11,0-6.14.48-4.08-6.5-.29-5.19-.12-3,1.85-3.35,3.24-4.07a12.71,12.71,0,0,0,1.83-4.22l-.28-.89h0c-1.16,2-6.12,2.63-11.57,1.55,1.48-3.51,5.95-3.41,10.09-3.94Zm-10.84,4.42c-.19.7-.19.69.65.6.42,0,2.13,0,3.33,0,2.19.17,5.64.19,7.37-1.14.33-.32.52-.29.58-.12.15.86-1.53,3.67-1.53,3.67l-2.78,1.54s-1.13.05-2.54,0l0,2.51a3.25,3.25,0,0,0,0,5.6l-.1,2.73,2.68,0c1.78,1.71,3.23,1.7,4.86.09h3.09v-3a3.25,3.25,0,0,0,.18-5l0-3h-2.37s-.5-.38-.51-.69a42.32,42.32,0,0,1,2.07-4c.43-.63.31-.27,1,1.17,1,2.06,2,2.9,4.47,4.12a13.83,13.83,0,0,1,3.69,2.21c.52.5.82.34,1-.4a6.06,6.06,0,0,0-.6-4.79c-1.91-3.18-5.22-3.32-5.75-4.06-.07-.17.61-.38,1.33-.7a10.32,10.32,0,0,0,3.33-4,5.84,5.84,0,0,1,.47-2.17,4.6,4.6,0,0,0,.27-2.31,5.19,5.19,0,0,1,.08-2.33,5.07,5.07,0,0,0-.88-2.8c-.21-1-.16-.77.51-3.11.11-.38.86-3.64-.1-3.86,0,0,.1.13.12.18a5.48,5.48,0,0,1-.14,3c-.75,2.62-.76,2.93-1.45,2.71a15.8,15.8,0,0,1-1.4-1,13.3,13.3,0,0,1,.24-2.44c-.15.41-.25,1.48-.73,1.73-.25.06-.61-.17-1.27-.75-.26-.22-.8-.6-.8-.6s7.75-6.67,10.68-8.88v98.77l-55.67,0c-.7-6.12,1.14-14.22,4.17-22.32,1.88-5,4.57-8.73,7.61-13.22,5.82-8.55,10.23-17.23,8.53-28.24a17.37,17.37,0,0,1-.37-2.86,32.16,32.16,0,0,1,5.57-7.06c3-2.47,7.2-6.16,7.54-5.94a13.23,13.23,0,0,0,3.75,4.69c.27.3.28.56-.35.7-4.16,0-8.44.88-9.83,4.57ZM27,130.67A1.08,1.08,0,1,1,26,131.75,1.08,1.08,0,0,1,27,130.67Zm104.29.24a1.08,1.08,0,1,1-1.08,1.08A1.08,1.08,0,0,1,131.32,130.91Zm2.34,3a1.08,1.08,0,1,1-1.08,1.08A1.08,1.08,0,0,1,133.66,133.87Zm-3.48.46a1.08,1.08,0,1,1-1.08,1.08A1.08,1.08,0,0,1,130.18,134.33Zm-3.84,2.46,1.94-.09a15.64,15.64,0,0,0-.51,2.15l1.58,1.17-6.85,1.17,3-6.1Zm-4.68,17.78-11.53-15,1.39-1.13,11.63,14.8ZM120.25,140a1.08,1.08,0,1,1-1.07,1.08A1.08,1.08,0,0,1,120.25,140Zm24.24,1.67c.93.73,0,1.76-.9,1.35a.76.76,0,0,1-.1-1.43A.91.91,0,0,1,144.49,141.71Zm1.24.7c1,0,2,2.3,1.83,3s-.55.81-1.9-.34-1.36-1.19-.82-1.8c.3-.35.44-.81.89-.83Zm-22.82.42a1.08,1.08,0,1,1-1.07,1.08A1.08,1.08,0,0,1,122.91,142.83Zm-3.33.41a1.08,1.08,0,1,1-1.08,1.08A1.07,1.07,0,0,1,119.58,143.24Zm23.62.77c1.06.16,1.33,1,.85,1.56-.67.81-2.15.08-1.8-.89a1,1,0,0,1,.95-.67Zm1.9,1.22c.42,0,1,.54,1.73,1.49s.83,1.43.61,2.08c-.32,1-.52,1.13-1.21.2a20,20,0,0,0-1.3-1.63c-.92-1-1.06-.72-.51-1.46C144.67,145.57,144.85,145.25,145.1,145.23Zm-2.5,1.13c1,.49,1.05,1.13.49,1.59a1.64,1.64,0,0,1-2.06-.73C140.69,146.26,141.71,145.77,142.6,146.36Zm1.62,1.42c.54,0,1,.52,1.64,1.59,1.13,1.82,1.19,2.44.23,3.64-.69.86-.76.91-1.43-.47a10.73,10.73,0,0,0-2.57-3.23c-.41-.33-.55-.79-.26-.82l.8,0a1.19,1.19,0,0,0,1-.37A.91.91,0,0,1,144.22,147.78Zm-3.87,1.42A2.17,2.17,0,0,1,142,150c.55.58.48,1.11-.59,1.21-.48.19-1.8-.67-1.81-1.25A.73.73,0,0,1,140.35,149.2Zm2.53,2.11H143c.45,0,.68.46,1.19,1.48.78,1.57.55,2.42-.79,3.12-.92.47-1.61.61-1.73.07,0-.16,0-.61-.11-1a4.6,4.6,0,0,0-.75-2c-.82-1.24-1-1.68-.06-1.32a1.76,1.76,0,0,0,1.54-.11,1.59,1.59,0,0,1,.63-.22Zm-4.56,2.52c-.31,0-.51.19-.43.7.28.14.73,0,1.07.13s.74.91,1.23.79c.05-.63-1.18-1.6-1.87-1.62ZM45.23,164.76c-2.52-1.2-8.74-4-11.74-4-5.57-1.57-5.75-.86-7.7-1.36a20.53,20.53,0,0,1,19.84,5C46.81,165.55,46.17,165.21,45.23,164.76ZM51.8,189.2c5.91,10.29,11.42,21.89,20.65,39.08l-.88.28-35.23.06c1.74-19-8.48-37.07-9.17-36.37,8,.15,14.61-1.39,16-4.35L42,187.58c-4.65,4-11.61,4.21-16.25,3,.1-9.89-.31-20.34,0-30.23A14.05,14.05,0,0,1,38.7,166C43.81,172.72,47.28,181.32,51.8,189.2ZM35.64,161.79c1.42-.11,9.13,3.08,12.58,5.45a19.83,19.83,0,0,1,2.36,2.9c0,.46-.68-.11-4-2a78.65,78.65,0,0,0-7.68-3.65l-.35-.15a3.69,3.69,0,0,0-.52-.47c-.9-.7-2.67-1.95-2.38-2.06Zm3.75,3.61a56.6,56.6,0,0,1,13.8,7.7A11.14,11.14,0,0,1,55,176.2c-.55-1-10.26-6.87-13.67-8.21Zm2.73,3.73c.42-.26,11.71,6.44,13.37,8.16A11.76,11.76,0,0,1,58,181.23c0,.5-.54.07-1.55-.87a53.68,53.68,0,0,0-12.78-8.47ZM44.21,173c5.31,2.26,12,7.68,15.33,10.9a6.22,6.22,0,0,1,1.56,2.61c.07.35-.11.33-.18.51-4.35-5-13.93-10.75-15.2-11.2A19.94,19.94,0,0,1,44.21,173Zm17.62,15.65c.61.63,1.57,2.82,1.36,3.09s-.1.06-.35-.12A99.87,99.87,0,0,0,48.3,180.28c-.56-.28-2.44-3.26-2-3.32,3.12,1,12.06,8.19,15.57,11.7ZM48.9,181.54a3,3,0,0,1,.61.32c5.5,3,13.47,10.71,15,12.55a5.12,5.12,0,0,1,.84,2.25c-.07.5-.27.08-2.49-2.12a79.86,79.86,0,0,0-12-9.76c-.84-.58-.68-.65-1.29-1.72s-.85-1.53-.62-1.52Zm35.15.12c3.93.11,5.46,3.09,7.88,8.59a45.51,45.51,0,0,1,2.89,14.34c0,.26-.47,0-.69,0a7.37,7.37,0,0,0-3.88-.17c-1.11.29-2.17.25-1-.5.37-.24,1.37-1.17,1.9-1.5,1.08-.67.42-.66-.64-.14-.81.4-1.35.91-1.69,1s-.07-.63.12-1.12c1.15-2.82,1.49-4.49-.21-5a4.19,4.19,0,0,1-1.37-.85c-.24-.23-.43-1.14-.51-1.18s-.13.83-.13,1A3.22,3.22,0,0,0,88,197.93c1.18.85,1.42,1.08.77,3.1-.9,2.82-1.09,3.51-1.25,4.17-.1.38-.28,1-.37,1.43a15.19,15.19,0,0,0-.25,4.33c.39,3,3.58,4.44,7.86,2.79.41-.16.58,0,.58,0-3.42,3.48-7.25,5.71-9.48,12.75C83,220.68,78.9,216.13,72.14,214.3l-.1-1.21c2.35,1.14,6.92,2.68,9.83.94,1.55-1.06,1.08-1.75-.81-1-2.24.87-6.3.77-8.32-.38a1.1,1.1,0,0,0-.95,0c-.11-.68-1.08-3.25-.94-4.22-.08-.14.62-.14.75,0A8.94,8.94,0,0,0,78,211.28a5.44,5.44,0,0,0,4-1.89c.11-.09.63-.16.7-.24s0-.32,0-.39-.23-.38-.35-.7a1.21,1.21,0,0,1-.17-.79c0-.19.12-.29.22-.42a1.08,1.08,0,0,0,0-.73.45.45,0,0,1-.09-.66c.4-.46-3.44-4-4.19-4-.27,0-.11.51.44.87,2,1.31,3.37,3,3,3.23s-1.12-.21-2-.42a7,7,0,0,0-6.26,1c-.87.72-3.17.83-3.17.83,0-1.26-5.32-15.31-5.33-14.7,1.92-2.25,8-7.59,14-9.89a12.92,12.92,0,0,1,5.21-.75Zm-23,3.14,11,.17c-2.77,1.4-7.8,6.42-7.8,6.42-1.44-2.91-1.88-4.36-3.21-6.59Zm-9.52,1.46c.82,0,9.56,7.15,10.8,8.84.15.21,1,1.14,2,2.08,2.26,2.28,3.2,3.59,3.21,4.53,0,.45-.4.16-1-.51a64.44,64.44,0,0,0-13.06-11.66c-.64-.34-2.61-3-1.94-3.27Zm29.89,1.32c-.24,0-.2.23-.07.44,1.39,1.23,5,1.18,6.31.19s-.35-.43-.82-.23a5.56,5.56,0,0,1-3.79,0,15,15,0,0,0-1.63-.41Zm3.38,2c-1.28,0-2.62.4-2.32.87.11.17.46.5,1.3,0,1.2-.6,3.69.19,3.76.21.25.06-.83-.72-1.19-.88A4.21,4.21,0,0,0,84.81,189.58ZM54,190.92c4.69,2.88,10.42,8.65,13.85,12.78a4.24,4.24,0,0,1,1,2.09c0,.74-.15.33-3.27-2.84A90,90,0,0,0,57,195.18c-1.47-1.08-1.73-1.22-2.42-2.49s-.89-1.79-.57-1.77Zm29.26,1a4.38,4.38,0,0,1-3.2-.06c-1-.36-.79,0-.4,1.08a6.55,6.55,0,0,1,.29,1.35c0,.25,0,.27.74-.14s.76-.48,2.12-.16,1.4.2,2-.14.69-.47,1.07-.32a2.87,2.87,0,0,0,2.58-.07,1.09,1.09,0,0,1,1.32,0c.47.24.65.09.47-.38a6.43,6.43,0,0,1-.21-1.23c0-.48-.13-.91-.33-.81a4.66,4.66,0,0,1-2,.76c-1.29,0-2.43-.81-4.44.08Zm-57.43,1c11.7,14.64,9.83,35.75,9.44,35.58l-9.44,0Zm30.65,3a72.61,72.61,0,0,1,13.33,13c.52.68.09.9.36,1.73.09.3-.43-.15-1.91-1.75-1.85-2-4.89-5-6.9-6.74A25.25,25.25,0,0,1,58,199c-.37-.54-1.87-3.13-1.59-3.21Zm26.32,1.35h-.15a1.82,1.82,0,0,0-1.08,3.28c.53.49,1.38.79,1.38.52a1.89,1.89,0,0,0-.46-.48c-1.18-.91-1.06-2.34.29-2.36.47,0,.5.16,1.58,1,1.28.91,2.78.92,2.76,0,0-.68-.26-1.37-1.4-1.26a3.12,3.12,0,0,1-1.05,0,3.35,3.35,0,0,1-.75-.35A2.92,2.92,0,0,0,82.76,197.17Zm-23.28,4.31c3.58,2.41,8.5,7.86,11,11.08a2,2,0,0,1,.38,2c-.06.09-.5-.18-.5-.18-2.9-3.44-6.2-6.56-9.43-9.73C60.94,204.68,59,201.58,59.48,201.48Zm34.68,5.21-.77.39c-1.18-1.76-2.25-1.79-3.14.27l-.58-.14c-.43-.48,1.54-5,4.49-.52Zm-.18-1.5c.33,0,.89.19,1,.52a.43.43,0,0,1-.46.63,4.32,4.32,0,0,1-.71-.85C93.68,205.29,93.74,205.19,94,205.19Zm-13.13,2.16-.87,0c-1.64-2.18-2.88-.72-3.61.19l-.93-.13c.15-2.38,4.35-3.21,5.41-.1Zm8.41-1.86a1,1,0,0,1,.38.08,3.09,3.09,0,0,0-.47,1.42c-.34.14-.82.43-1.18.06-.66-.61.36-1.58,1.27-1.56Zm-13.51.25c.41,0,.29,0,.11.2a4,4,0,0,0-.55,1c-.06.26-.1.35-.34.36a10.69,10.69,0,0,1-1.38-.14c-.35-.34,1.11-1.4,2.16-1.43ZM81,206c.28,0,.21.36.13.51s-.25.27-.34,0a1.19,1.19,0,0,0-.18-.3c-.13-.17-.12-.18,0-.21Zm14.14,1.73c1,0,.33,1.69-1.07,2.11a5.23,5.23,0,0,1-5.13-.44c-1-.59-1.34-1.21-.44-1,3.38.94,4.2.76,6.24-.56A.66.66,0,0,1,95.12,207.77Zm-32.54-.37c3.36,2.87,5.9,6.11,8.59,9.1a2.33,2.33,0,0,1,.69,1.74c-.13.55-1.24-.75-1.24-.75s-6.57-7.06-6.57-7.06S62.37,207.42,62.58,207.4Zm10.06,1a10.07,10.07,0,0,1,1.45.31c3.23,1,4.21,1,6.08.09,1.18-.54,1.67-.46,1.16.36-.93,1.51-4.23,1.68-6.71.83a6.64,6.64,0,0,1-1.86-1.09C72.42,208.54,72.34,208.38,72.64,208.39Zm14.94,1a3,3,0,0,1,1,.47c2.71,1.54,4.72,1.26,6.39.22.3-.28.47-.14.51.13.14.94.18,1.61-.25,2.07a3.28,3.28,0,0,1-1.31.59c-2.63.89-5.82.26-6.44-1.72-.19-1-.32-1.73.11-1.76Zm-21.53,4.25h0c.19,0,.62.41,1.32,1.2C71,219,73,221.31,72.64,222.5c0,0-.06.26-.21.13a24.27,24.27,0,0,1-4.81-5.57C66.29,214.9,65.75,213.66,66.05,213.64Zm29.11,2.89c-3,2.34-6.74,7.91-7.08,10.65-.06.53,0,.92-.2,1.11s-.49.16-1,.07c-.28-.05-.21-.08-.28-.4-.26-1.26.94-4.42,3.42-8.14,1.3-1.95,4.25-4.59,5.08-4.61C95.69,215.44,95.15,216.56,95.16,216.53Zm-22.57-1.27a3.08,3.08,0,0,1,1,.31,18.92,18.92,0,0,1,5.52,3.05c3.3,2.71,7,9.12,5.9,9.72-.48.26-.81.1-1-.5a14,14,0,0,0-.79-1.77,19.91,19.91,0,0,0-9.14-8.87c-1.5-.73-1.65-.65-1.77-1.27-.08-.46,0-.66.27-.67Zm22.53,2.36c.27,0,.34.48.24,1.49-.07.82-.12.8-1,1.77a14.94,14.94,0,0,0-4,6.82.69.69,0,0,1-.21.44c-.38.32-.85.16-1.18.16s-.17-.64-.12-.93a20.81,20.81,0,0,1,4.89-8.54c.73-.78,1.16-1.19,1.41-1.21Zm-22,.07c1.45,0,6.6,3.83,8.68,7.21,1.36,2.21,1.73,3.11,1.42,3.44a1.71,1.71,0,0,1-1.28,0c-.35-.13-.48-.67-1.14-1.9a15.17,15.17,0,0,0-6.8-6.76,2.91,2.91,0,0,1-.92-.55c-.17-.37-.4-1.4,0-1.48Zm.78,2.87a12.34,12.34,0,0,1,2.74,1.66c1.84,1.36,4.64,5.5,4.06,6.1a1.43,1.43,0,0,1-1.16.06A22,22,0,0,0,74,222.21C73.7,221.68,73,220.43,73.94,220.56Zm-4.09.62c.09,0,.43.32,1.06,1,1.85,2,3,4.11,2.75,5.2-.23.92-.5.42-2.62-3.63C70.15,222,69.73,221.22,69.85,221.18Zm25.29.06a6.11,6.11,0,0,1-.16,2c-.08.4-.35.59-.6.91a11.57,11.57,0,0,0-1.7,3.24c-.31.89-.16,1.1-1.25,1-.51-.07-.38-.2-.19-.79.69-1.92,2.33-5,3.9-6.33Zm-21,2.11c0-.57,5,4.41,4.28,5-.64.11-1,.13-1.29-.1a18.35,18.35,0,0,0-2.88-3.44Zm20.74,1.57h0a9.42,9.42,0,0,1-.09,3.37,1.76,1.76,0,0,1-1.37,0,.44.44,0,0,1-.2-.57C93.45,227.12,94.51,225,94.87,224.92ZM76.24,228.3a1.51,1.51,0,0,1-1.48,0,4.62,4.62,0,0,1-.1-1.89C75,226.18,76.36,228,76.24,228.3Z" transform="translate(0.1 0.1)"/><path id="path3389-2-3-5-0" d="M111.35,19.84l.62.81-3.61,0c.59.5,14,27.58,31.12,58.85C142.32,85,147.73,87,154,87.23l-16.64-26.9c1.77-1,5.29-3.56,7.42-3.08.13.65.76.39.77-.19l.77,0,.27.42h3.24l.26-.38,2.79.4c-7.45-9.22-11.38-23.43-10.11-37.29l-24.7.05-.33-.43Zm-3,.83s0,0,0,0ZM80,38.72c-2.81,9.11-9.76,16.6-13.88,24.14-4.42,8.23-5.46,15.4-4.22,23.23l.81.07A135.15,135.15,0,0,0,83.48,42.67c.09-.33-.07-.92,0-1.25a1,1,0,0,1,.09-1c.24-.25.15-1.24,0-2.87a66.26,66.26,0,0,1,0-13c.31-3.37.29-3.89.29-3.89l-1.61,0a50.71,50.71,0,0,1-2.32,18Zm38.79-17.65,2.65.05c.41,8.14,7.24,9.2,8.29,9.08-1.74,5.5,1.14,11.54,8.09,12.39-1.59,5.1,1.23,11.83,6.78,11.64l.59.38a6.72,6.72,0,0,0-.41,2.26,19.33,19.33,0,0,0-2.71.43C134.85,46.43,118.75,21.07,118.75,21.07Zm23.57,0c-.81,9.09,1,21.57,5.26,28.94a4.42,4.42,0,0,1-.22.63c-.41.61-.61.08-.86-.41-.9-1.68-2.61-1.94-3.36-1-1.65,2.27.14,3.16,1.53,4.44-5.69-.35-7.59-6.64-6.27-9.75a4.22,4.22,0,0,0,.7,2.13c1.6,2.43,3.94.38,3.27-1.55a11,11,0,0,0-1.3-2.13,7,7,0,0,0,2-.55,1.58,1.58,0,0,0,.73-1.71,3.53,3.53,0,0,0-.48-1.5,2.31,2.31,0,0,0-1.77-.85c-1.18.08-1.32.89-2.09,1.45-.19-1.46-1.12-2.57-2.64-2.3a2,2,0,0,0-1.29,3c.36.79.86,1,1.37,1.71-8.18-.92-7.29-10.67-6.38-10.49,0,0,.25-.05.17.33-.46,2.38,2.49,3.81,3.78,2.07.83-1.4-.94-3.62-.94-3.62a8.24,8.24,0,0,0,1.71-.57c2.14-1.23-.14-4.79-2.13-3.91-.69.32-.87,1-1.55,1.31-.46-.51-.48-1.06-1.3-1.52-2.24-1.25-3.65,1.71-2.4,3,.5.53,1.4,1,1.23,1.07-6.95-.88-6.89-8.18-6.73-8.13Zm-59.76.06h1c-.29,4.33-.9,10.05-.5,14.28.47,4,.49,4.61.2,5s-.18.65-.1,1a1.82,1.82,0,0,1,0,1,89.26,89.26,0,0,1-3.28,10.45c-4.48,12.39-11.78,25.89-17.5,33,0,0-.26,0-.26,0a36,36,0,0,1,3.52-21.5C69.16,57.55,74.72,51.7,78,44.52a49.53,49.53,0,0,0,4.54-23.39Zm35.22,0,23.31,36.4-4.25,2.09L113,21.22Zm13.66,7.11a1.1,1.1,0,0,1,0,2.2,1.1,1.1,0,0,1,0-2.2Zm7.74,12.14a1.11,1.11,0,1,1-1.11,1.11A1.11,1.11,0,0,1,139.18,40.34ZM83.62,42.51c.4,1.58-7.4,25.39-18.48,40.54l4.84.1.15.54c6.78,10,2.54,18.94-2.93,23.06l1.89,2.54-1.71,1.39-1.7-2c-13.87,10.45-40.94,33.57-40.94,33.57l.15,3.71L27,144.25c13.73,13.34,42.85,12.61,50.48-14.93l2,0c-4.62,20.19-23.41,28.1-37.6,24.75l-3.32,4.79.89.48c-.16-.26-.31-.35-.07-.58l2.82-3.65c21.22,2.73,34-9.33,38.19-25.66l2.71,0a66.45,66.45,0,0,1-17.87,35.26c-6.59,0-18.18-.18-18.18-.18,4.22,4.11,12.28,16.64,12.6,17.91,0,0,8.3.27,17.19,0,3.26-1.47,7.63-2.07,9.66-1,3.58,1.81,7,8.53,8.46,19.32.39,2.77.75,3.95.85,4.51,0,.1.27.18.3.16s-.22.49-.23.91a2.23,2.23,0,0,0,.2,1.26c.25.28.22.46.18.58a4.37,4.37,0,0,1-.5.53c-.08,6.28,0,12-.38,19.71h1.23c0-12.43,3.72-23.94,9.48-31.86,3.51-5.2,7.21-10.8,9.26-16.14a30.6,30.6,0,0,0,1.39-17.63l-.84,0c-5.07-3.48-7.13-10.92-.89-16.24l-2.21-2.89c-6.23,4.84-7.67,13.76-1.21,21.15h-2.53c-6.29-7.89-4.9-17,2.38-23.42l-1.63-2.08,1.77-1.57,1.6,1.76,40.63-34.09,0-3.73-3.11,2.54c-18.23-16.92-45.26-5-49.22,15.33l-2.48,0c5.2-21.93,24.34-28.12,38.18-25.21l3.42-5.19A20.26,20.26,0,0,1,133.34,85a18,18,0,0,1-2.3-2.18c-6.56-7-11-16.62-11.22-16.64l-17.83,0c-2.61,1.3-7.09,2.78-9.55.78-5.28-4.28-7-12.91-7.78-18.47-.22-1.73-.4-4.73-.57-5.73a.39.39,0,0,0-.47-.16Zm63.22,9.6a1.09,1.09,0,1,1-1.08,1.09A1.08,1.08,0,0,1,146.84,52.11Zm2.32,1.28a13.22,13.22,0,0,1,2.1,3.57c-.41,0-.8.11-1.25-.25a5,5,0,0,0-1.27-2.85ZM145.9,55c.36.18.65,1.54.4,1.78-.44.09-.73.06-.88-.09A1.91,1.91,0,0,1,145.9,55ZM75,66.87H91.54c2.88,2.22,5.69,1.93,9.78.15h18.41l1,1.9H74.09C74.35,68.22,75,66.87,75,66.87Zm-1.36,3h47.64l1.2,1.94h-50Zm4.6,2.83h5.34l-2,3.37H76.07Zm11.86,0h5.11L92.92,76H87.86Zm16.51,0L104.44,76H99.25l2.23-3.34Zm6.39,0h5.11L116.18,76h-5.29Zm-68.63.52c-3.31,0-2.7,4.37-2.38,4.23-2.08-.47-3.62.52-3.88,2.3a3.06,3.06,0,0,0,3.58,3.14,3.88,3.88,0,0,0,.32,2.7,11.73,11.73,0,0,1-1.22,3c-1.51,3.16-1.82,3.31-2.5,1.24-.73-2.23-1.87-3.36-4.82-4.8A17.49,17.49,0,0,1,31,83.46c-1.32-1-1.33-1-1.27,1.05.08,2.63.88,3.78,3.67,5.34a20.88,20.88,0,0,0,4.47,1.83,13.59,13.59,0,0,1,3.38,1.52,8.37,8.37,0,0,0,3.13,1,16,16,0,0,0,7.54-1.52c1.21-.71,1.67-1.34,2.57-3.13A20.7,20.7,0,0,1,50,89.35c-2.9-.17-4.34,0-6.55,1.15-1.84,1-1.94,1.13-1.17-.46a22.15,22.15,0,0,0,1-2.44c.32-.85.41-.92,1.21-1a3,3,0,0,0,2.94-3,5.15,5.15,0,0,0,0-1c1.2.18,3.67-.42,3.59-2.92-.07-2.25-1.67-2.76-3.63-2.92A3.15,3.15,0,0,0,44.35,73.18Zm0,.7c2.91,0,2.84,2.69,1.57,4.21l-1.54-1.28L43.17,78C41.82,77.1,41.82,73.86,44.39,73.88Zm79.42,0L125.24,76h-2.95ZM69.62,77h5.47l-2.2,3.1H67.72S68.88,78.07,69.62,77Zm17.23,0-2.07,3.22H80L81.92,77Zm6.4,0h4.94l-2,3.43H91.35Zm11.62,0h5l-2,3.43h-4.93Zm11.33,0h5.15l-2.12,3.43h-5Zm-71.74.64,2.46,2.48-2.39,2.41-2.47-2.37ZM50.69,80c-.43,2.89-3.2,2.73-4,1.32L47.83,80l-1.39-1.36C47.79,76.5,51,77.83,50.69,80Zm-8.25-1.38-1.32,1.5,1.45,1.4c-.93,1.31-4.54,1.21-3.82-1.94A2,2,0,0,1,42.44,78.63Zm84.19-.37,1.52,2.1-2.85,0ZM67.35,80.83l61.12.2,1.63,2c-21.34.37-42.23-.34-64-.36ZM45.86,82.14c2.42,1.49.64,4.63-2,4.1-1.94-.86-2.34-2.87-.59-4l1.36,1.13Zm21,1.2H65.15l-1.62,1.91c6.14,6.49,5.91,12.13.19,17l2.3,2.58C72.44,99.37,73.86,90.71,66.82,83.34Zm6.31.25c3.44,5.4,6.42,15.63-3.84,25l-1.24-1.51C77,98.32,74.89,91,70.88,83.66Zm1,.13L88,83.78c-3,11.36-5,18.06-5.37,35.84l-4,0c.44-.41-2.07-10.73-5-14.31C79.72,94.84,76.41,88.93,74.08,83.72Zm-43.65,0a6.15,6.15,0,0,1,1.7.89c.86.52,2,1.18,2.49,1.46A6.48,6.48,0,0,1,38,89.72c.4,1.16.15,1.18-1,.09a33,33,0,0,0-4.1-3.1c-.82-.56-1.07-.46-.6.22a8.71,8.71,0,0,0,2.56,1.95c1.07.66,2.55,2,2.44,2.17s-.29.17-.81-.06c-.24-.11-1-.43-1.72-.71-3-1.23-4.31-2.75-4.49-5.26C30.21,84.14,30.16,83.74,30.43,83.74Zm63.33.05a4.05,4.05,0,0,1,.48.79c.11.5-.38,1-1.91,1.64-.53.24-1,.36-1,.67.07.73,1.45,1.83,1.28,2.82-.32.76-2.24,1.5-2.72,2.39,0,.61,1.25,1.55,1.07,2.38-.09.25-.5.51-1.09,1-1.22,1.07-1.3,1.23-.85,2.06,1,1.91,1.08,1.77-.34,3.14s-1.4,1.35-.72,2.55.7,1.23-.28,2-.93,1-.41,2,.61,1-.23,1.73c-1,.88-1.17,1-.48,2.08s.77,1.09,0,2-.85.92-.44,1.52c.53.76.62,1,.08,1.79s-.59.83,0,1.67a2.53,2.53,0,0,1,.38,1.49H84.82a4.21,4.21,0,0,0-.21-1.35c-.49-.89-.48-1.16.1-2s.5-.87-.06-1.67-.47-.81.25-1.74.7-1.25.32-1.73c-.9-1.15-.89-1.64,0-2.4.69-.58.75-.84.16-1.83s-.66-1.06.41-2,1.08-1,.35-2.09-.67-1.17.47-2.23,1.17-1.08.41-2.43-.71-1.25.67-2.49,1.85-1.3.47-3c-.76-1.31-.22-1.44,1-2.09,2.21-1.36,1.2-1.27.28-3.28-.78-1.34-.34-1.35,1-2,.34-.15.71-.32,1.09-.53.9-.5.41-1,.41-1Zm2.88,0,6.63.09c-7.68,9.84-11.37,22.44-12.7,35.72l-2.5,0C87.91,109.22,91.16,96.26,96.64,83.82Zm34,.23c3.78,3.21,6.59,5,8.59,5.76,0,0-2.67,4.46-2.88,4.29A32.44,32.44,0,0,0,98.6,119.53H96.18a53.43,53.43,0,0,1,6.56-20.6A57,57,0,0,1,114.81,84Zm-26.45-.16,3.27.06s.61.74.89,1c1.4,1.61,1.53,1.29-1.58,3-2,1.11-2.83,1.63-2.94,2.09s.85,1.4,1,2c0,.07-2.67,1.86-3.15,2.11-.68.33-.71.61,0,1.78.77,1.34.7,1.29-1,2.45s-1.94,1-1.25,2.15c1,1.57.51,1.92-1.74,3.14-.57.31-.59.62-.19,1.68.55,1.49.7,1.34-.47,2.14-1.37,1-1.61,1-1.31,1.56.89,1.69,1.24,2.1.06,2.65-.9.42-.92.66-.43,1.78s.63,1.07-.25,1.71-1.31.45-.51,1.41c.63.76.58,1.36.06,1.82-.44.19-.65,1-.52,1.06l-1.15,0a1.31,1.31,0,0,1,.32-2c.15-.28,0-.48-.39-1.13-.5-.91-.48-1,.24-1.54s.74-.4.26-1.58c-.56-1.37-.54-1.53.35-2.17s.88-.76.29-2-.63-1.27.92-2.29c1.08-.73,1.1-.69.52-2-.39-.93-.11-1.25,1.37-2.26.84-.58.9-.7.51-1.39-1.1-1.9-1.09-2,.8-3.19,1.55-1,1.53-1.09.94-2.43s-.71-1.34,1.41-2.61c1.75-1,1.84-1,1.12-2.26-.89-1.57-.83-1.31,2.66-3.31,1.25-.87,2.39-.57,1.14-2C104.9,84.65,104.22,83.89,104.22,83.89ZM42.6,86.48c.24,0,.43.29.42.84a6.94,6.94,0,0,1-.76,2.32c-.74,1.58-1.48,2.75-1.87,2.75-.91,0-.88-.19.33-2.57.55-1.09,1.12-2.33,1.21-2.57C42.13,86.73,42.39,86.48,42.6,86.48Zm11.22,3.57c0,3.34-10.42,5-11,3.34,1.81-1.43,7.19-.8,8.33-2.08-1.37-.08-3.23.15-4.51.17-1.59,0-4.16.71-4.18,1-.17-.88,2.73-2.53,5-2.64S52,90,53.82,90.05Zm.89,5.1s-20.35,16.9-30.41,25.08l.07,3.65L56.55,97.42Zm-.07.83,1.3,1.59L25.73,122.28l-.11-2.59Zm95.51,8.68-1.09,1.16c-29.51-22-56.68,11.43-41.7,35.37a6,6,0,0,1-1.18,1.08C89.48,114.47,121.44,81.94,150.15,104.66Zm-16.24-4.83a9.58,9.58,0,0,1,6.06,2.74c1.52,1.83,1.08,2.65-.85.92-2.07-1.51-3.78-1.86-.9-.08a4.42,4.42,0,0,1,1.23,1.25c.11.3-.43,0-2.84-.9a8,8,0,0,1-3.72-2.91C132.54,100.13,133,99.82,133.91,99.83Zm-6.21,0A4.56,4.56,0,0,1,129,100a9.15,9.15,0,0,1,3.56,1.54c.54.42.37.72-.26.46a15.66,15.66,0,0,0-3.44-1c-.6.06,0,.45.86.67,1.91.48,2.85,1,1.49,1a34.4,34.4,0,0,1-4.66,0c-1.42-.17-3.54-1.46-3-1.93S126.13,99.89,127.7,99.88Zm-6,2c2.5,0,3.85,1,1.12,1.16-4.71.74-5.61,1.77-.4.55,1.22-.29,1.19.15.36.57s-1.55.49-2.26.84a10.1,10.1,0,0,1-5.38.22C113.39,104.56,118.72,101.83,121.65,101.87Zm20.14.43c1.26,0,4,1.87,5.16,3.6.78,1.12.39,1.94-.79,1-.24-.18-1.95-1.64-2-1.67s1.42,1.44,1.65,1.86.65,1.18-.2,1.2c-1.33-.16-4.44-3.66-4.46-5.38C141.1,102.48,141.36,102.29,141.79,102.3Zm-15.7,1c.53,0,.26.26-.74,1-1.8,1.28-.86,1,1.25-.07a8,8,0,0,1,1.68-.64c.28-.05.6-.13.72-.16.57-.18.13.52-.79,1.27a16.89,16.89,0,0,1-5.65,3.16c-1.93.48-2.33.54-1.62-.67,1.13-1.92,2.78-3.45,4.36-3.75A4.62,4.62,0,0,1,126.09,103.28Zm6.49,0a15.22,15.22,0,0,1,3.37.49c1.1.34.81.42-.51.56-2.48.27-1.45.57,1,.52,3.29,0-1.65,1.19-3.25,1.44a15.14,15.14,0,0,1-4.34-.51c-1-.19-.41-1,1.55-1.9A5.17,5.17,0,0,1,132.58,103.31Zm20.33.45.09,2.12-39.82,33.43-1.35-1.5Zm-13.55,1.83c1.59,0,3.88,1.08,3.64,1.75-.1.25-.27.24-1.48-.09-.8-.21-2.22-.44-2-.26a11.1,11.1,0,0,0,1.61.59c1.4.34,3.08,1.14,2.71,1.37-.65.4-1.25.09-2,0-1.92-.27-5.09-1.25-5.61-1.74S137.65,105.61,139.36,105.59Zm-18.57.12c.28,0,.39.28.12.65a12.17,12.17,0,0,0-1,1.68,10.19,10.19,0,0,1-3.45,3.69c-1.28.8-1.46.66-1.35-1a5.71,5.71,0,0,1,3.12-4.4c.8-.11,1.26-.32.42.69-1.5,1.8-.47,1.62.92-.43C120,105.93,120.5,105.69,120.79,105.71Zm-5.17.24c.86,0,1.15.3,0,.82a17.88,17.88,0,0,0-3.2,2.13c-.08.28.7-.15,2-.87,1.75-1,1.9-.93,1.06.16a12.17,12.17,0,0,1-5,3.35c-2.52.69-2.46.21-1-1.66a7.59,7.59,0,0,1,4.19-3.57A7,7,0,0,1,115.62,106ZM73,106.26c9.13,15.8,4.06,31.85-6.53,40-11.06,8.56-28.28,8-38.44-2.22l1.41-1.34s16,16.39,36.2,1.85c10.24-7.38,14.47-24.81,6-37Zm-40.87,0H32a19.73,19.73,0,0,0-1.7,5,1.24,1.24,0,0,0,.37,1.15c.24.24.62.09.74,0,.77-.35,1.2-.89,1.88-2.59a4.56,4.56,0,0,0,.42-2.44,1.73,1.73,0,0,0-.6-.73A2.9,2.9,0,0,0,32.09,106.3Zm.17.71a1.67,1.67,0,0,1,1.18,1c0,.75-.42,2-.73,1.79-.53-.65-1.13-.24-1.23-.48A4.89,4.89,0,0,1,32.2,107Zm98.56.59a16.52,16.52,0,0,1,11.05,3.83l-1.58,1.45a17.25,17.25,0,0,0-19.83-.16c-4.75,3.32-8.95,10.67-4.83,21l-1.49,1.36a18.65,18.65,0,0,1,6-24.54,20,20,0,0,1,10.25-3Zm-60,1.21c.12,0,.31.41.29.9s-.28,1.38-.68,1.54-.74-1.17-.74-1.17A5.32,5.32,0,0,1,70.82,108.81Zm72.64.47a3.57,3.57,0,0,1,.47,0c.45.06.45.47,0,.86s-.7.44-1.17.1-.43-.52-.08-.78A1.6,1.6,0,0,1,143.46,109.28Zm-77.93.09L66.88,111l-4.67,3.76-.55,0L26,144.54V141.9Zm74.61,4-4.86,4c-9.72-5.07-17.52,4-14.77,12.17l-4.2,3.67c-7.53-20.73,14.47-27.82,23.83-19.87Zm-25.46-3.16s0,0,0,0,.06,0,.1.06a10.31,10.31,0,0,1-.43,3.42,1.64,1.64,0,0,0-.16.54,21.49,21.49,0,0,1-1.6,3.35A8.29,8.29,0,0,0,112,119c-.57,2.72-1.78-1.65-1.35-4.19.2-1.2,1.89-3.66,2.38-3.48.25.1.23.28-.21,1.24-1.22,2.66-1.52,4-.24,1.46C114.06,111,114.45,110.27,114.68,110.23Zm-82.62,0a.45.45,0,0,1,.41.32,1.25,1.25,0,0,1,0,.74,1.39,1.39,0,0,1-1.29.9.57.57,0,0,1-.51-.46,1.14,1.14,0,0,1,.31-.9,1.62,1.62,0,0,1,1.07-.6Zm37,.17c.57,0,1.18,1.59.79,2.3s-.37.47-.93-.66a12.56,12.56,0,0,1-.51-1.22l.47-.38a.27.27,0,0,1,.12,0Zm-1,.66a7.92,7.92,0,0,1,.75,2c.09.53.08.43-.51.21a2.79,2.79,0,0,1-.85-.82,6.08,6.08,0,0,0-.38-.58Zm3.64.23c.31,0,.63.3.94,1.06,1.13,2.86,1,6.06-.25,7.57-.21.25-.26.26-.51.11a2.87,2.87,0,0,1,0-1.87,5.92,5.92,0,0,0,.26-1.4c0-1.1-.26-1.24-.41-.22-.16,1.18-.34,2-.66,1.29-.16-.36-.24-.72-.37-1.1C70.1,114.31,70.84,111.38,71.76,111.34Zm-4.92.73s1.08,1.41,1.53,1.92c.16.27.15.34-.1.44-.43.16-1.87-.8-2.44-1.1-.31-.24-.17-.43-.17-.43A12.66,12.66,0,0,1,66.84,112.07Zm42.9.06c.58,0,.58.19,0,1.09-3.46,5-2.76,4.25-.56,1.52,1.22-1.52,1.43-1.67,1.57-1.33a18.32,18.32,0,0,1-2.11,4.29,9,9,0,0,1-2.39,1.82c-1.65.84-1.46.5-.85-1.57C106.13,114.73,108.08,112.14,109.74,112.13ZM64.8,113.85c9.49,23.68-16.48,34.08-28.2,23.12L38,135.88c16.3,11.1,32.38-6.68,25-20.59C63,115.29,63.66,114.73,64.8,113.85Zm2.2.58c1.56.16,3.87,3,4,4.62.24,1.14-.08,1.33-.63.54-.94-1.74-.82-.64,0,1.08.42.87.52,1.92.08,2-.6-.12-1.9-2.2-2.29-3.06a10,10,0,0,1-1.54-4.34C66.48,114.71,66.62,114.43,67,114.43Zm-4.72.77C69.51,129.11,54,145.83,38.16,135l4.74-3.78c8.25,4,17.45-.95,14.82-12.38Zm72.07,2.6-13,10.9C118.64,119.66,128.49,114.5,134.35,117.8Zm-24.2,0c.42-.09.78,2.64.86,6.48s.18,4.13-1,2.75a11.41,11.41,0,0,1-1.35-1.61c-.77-1.46-.53-3-.31-5.15.2-2,.91-1.69.79.41-.07,1.35-.06,3,.15,3s.1-.13,0-.32a33.7,33.7,0,0,1,.55-5.24C110,117.9,110.07,117.79,110.15,117.78Zm-35.92,1.65c.94.37,1.21,3.52.19,6.57a4.39,4.39,0,0,1-2.12,2.7c-.71.38-.88.26-.56-.4a10.71,10.71,0,0,0,1.16-3.57c.09-1.35-.62-.26-.56.32-.55,2.51-1.28,2.89-1.19.24a6.54,6.54,0,0,1,1.24-4.14C72.85,120.48,73.35,119.56,74.23,119.43Zm32.69.32c.38,0,.48.52.13,1.54a29.79,29.79,0,0,0-1,3c.06,0,.94-2.06,1.12-2.39.29-.55.4-.66.66-.63a10.12,10.12,0,0,1-.13,3.33c-.53,2.73-2.39,5.55-3.1,4.71-1.16-1.37-.62-6.91.92-8.6C106.14,120.06,106.62,119.75,106.92,119.75Zm-49.64.42c1.4,9.67-6.55,13.8-13.42,10.88C44,131,57.28,120.17,57.28,120.17Zm32.5.18,1.38,1.82,2.54.13-1.3,1.93,1.29,2.46-2.83,0-1.63,1.88-1.41-1.7-2.48-.13,1.45-2.31-1.17-2.21,2.67-.13Zm-21.29.83a7.13,7.13,0,0,1,2,2.84c.47,1.84.29,5.34-.37,5.22-.72-2.52-.44-3.82-.69-3.53-.45.46.27,4.32,0,5.27-.11.24-.49,0-.92-.67-1.16-1.66-1-8.17-.12-9.12Zm84.73,3.92-31.31,26,1.8,2.33L153.28,129Zm-45.23.45c.14,0,.45.19,1,.83a16.62,16.62,0,0,1,2.51,4.77c.15.57.39,1.33.53,1.68.22.53.24.68.11.84-.54.67-2.81-1-3.54-2.64-1-2.27-1-4.32,0-2.32.37.72.84,1.78.83,1.36a13.93,13.93,0,0,0-.8-2.32C108.43,127.32,107.64,125.62,108,125.55Zm44.9.63.06,2.15-29.16,24.49-1.15-1.4Zm-45.54,1.33c.14,0,.21.21.17.65-.13,1.42-.48,4.52-.41,4.8s.46-2.06.56-2.45c.5-2.06,1.26,2.86.8,5.06-.07.34-.22.9-.3,1.24a4.91,4.91,0,0,1-.41,1.09c-.83,1.3-2.77-3.89-2.44-6.54C105.52,129.71,106.87,127.46,107.35,127.51Zm-33.73,1.14c.38,0,.45.35.39,1.14-.22,2.71-2,5.56-4,6.31s-2.14.61-1-.8c.88-1.07,1.41-2.18,1.26-2.33s-.27.37-1,1.29c-.89,1.15-1,.17-.23-1.52a7,7,0,0,1,2.68-3.12A5.06,5.06,0,0,1,73.62,128.65Zm17.73.82a86.14,86.14,0,0,1-8.88,35.36H77.24c6.4-9.46,10.48-21.18,11.62-35.32Zm2.3,0a10.09,10.09,0,0,1,1.1,1.37c.35.61.45,1.14-.19,1.59-.74.63-1,.4.16,2,.64.82.43,1-.36,1.65s-.86.75-.11,1.72,1,1.19-.1,2-1,.89-.22,2.06.9,1.07-.42,2.18c-1.12,1-1.15.69-.06,2.45.39.64.37.68-.36,1.33-1.8,1.6-1.71,1.5-1.45,1.92,2,2.83,1.08,2.75-.85,4.1-.39.33-.29.71.58,2.12.74,1.2.63,1.46-1.1,2.66s-1.86,1.41-1,2.68.9,1.16-.54,2.45c-.65.58-1.18,1.12-1.18,1.12H84.41s.67-.62,1.13-1c2.62-2,2.61-1.74,1.5-3.15-1-1.24-.88-1.32.11-2,.72-.51,1.68-1,2.4-1.56.39-.28.1-.51-.55-1.74s-.76-1.21.59-2.33,1.5-1.17.7-2.72-.82-1.41.19-2.24c1.51-1.23,1.58-1.17.79-2.6-.63-1.14-.64-1.11.43-2.18s.94-1,.3-2-.61-1.14.24-1.9.79-.77,0-1.82-.74-1,.17-1.76c.48-.42,1-.85.94-1.05a6.16,6.16,0,0,0-1-1.93c-.18-.27.17-.35.75-1s.55-.45.11-1.25c-.24-.44-.69-1.17-.69-1.17Zm-8.55,0,.9,0s.16.21.37.43c.59.6.61.95,0,1.27s-.34.74.13,1.43.49.65-.22,1.37-1.12.78-.31,1.92c.47.53.41,1.07-.31,1.55-.55.36-1.47.67-.5,2.05.47,1,.51.93-.48,1.63-1.31.93-1.56.77-1,2.13.66,1.52.73,1.54-.64,2.55-1.6,1.18-1.65,1.28-1,2.69s.69,1.06-1,2.39c-1.24,1-1.52,1-1.15,1.82.68,1.5,1,1.9-1,2.93-2.31,1.19-2.43,1.28-1.32,3.05.91,1.44.71,1.23-.79,2.09-2.15,1.25-3.1,1.79-3.17,2.18s1.68,1.74,1.68,1.74l-3,.08s-1.26-1-1.75-1.51c-1.37-1.33-1.38-.9,3.14-3.1,2.5-1.22,2.29-.94,1.88-1.65-1.2-2.1-1.24-2.31,1-3.46,2-1,1.62-1.06,1.15-2.56-.42-1.31-.35-1.19.68-2,2.5-1.86,2.43-1.67,2-2.58s-.68-1.32-.39-1.76c.9-1.3,2.82-1.57,2-3.12-.37-1-.5-1.22.6-2.08s1-.73.37-1.83c-.78-1-.67-1.17.47-2,.81-.74.8-.73.34-1.45-.62-1-.59-1,.3-1.82.73-.64.86-.67.39-1.38-.61-.94-.51-1.14.3-1.6.5-.29.49-.4.45-.88a5.84,5.84,0,0,0-.26-.62Zm11.28.06h4.19a34.58,34.58,0,0,0,5,13.46c-5.29,8.54-4.09,15.63-.85,21.91l-13.27,0A117.42,117.42,0,0,0,96.38,129.57Zm-28.75,0c.15,0,.26.24.52.68.84,1.44.25,3.47-1,5.61-.92,1.59-1.09.37-.67-1.92.27-1.45-.46.72-.81,2.47-.18.95-.64,1.71-1.13,1.67s-.32-1.41-.3-1.7c.1-2.1.88-3.58,2.39-5.66C67.22,130,67.45,129.61,67.63,129.6Zm42.76,4.1a1.58,1.58,0,0,1,.82.27l1.08.63c1.16.64,1.26.84.7,1.48-.68.8-1.12.5-2.3-.83C109.9,134.35,109.88,133.72,110.39,133.7Zm-.39,1.75a1.75,1.75,0,0,1,1,.64c.76.88.67,1.63-.18,1.41-.34-.5-.52-1.28-.85-1.85C109.85,135.52,109.89,135.45,110,135.45Zm37.42.12a2.92,2.92,0,0,0-2.22,2c-.72,3-.72,2.92-.07,3.36l.42.29c.38.3.9.76,1,.67.61,0,1.55-3.91,1.52-4.71s.07-1-.15-1.34A.46.46,0,0,0,147.42,135.57Zm-38,.06a.24.24,0,0,1,.18.08,5.73,5.73,0,0,1,.93,2,1.41,1.41,0,0,1-.12.48c-.42.81-1.08,0-1.15-1.37,0-.78,0-1.14.16-1.17Zm37.87.6h.09c.5,0,.42.54-.27,1.29-.37.4-1.12.58-1.36.34s.38-1.33,1.19-1.56A1.8,1.8,0,0,1,147.31,136.23Zm-84.14.43h.08a.92.92,0,0,1,.65.33,1.78,1.78,0,0,1,0,1.58c-.39,1.4-3,4.1-3.93,4.11-.55-.1,1.77-3.06,1.85-3.56-.18-.17-1.62,1.5-2.29,2.66a6.47,6.47,0,0,1-.84,1.28c-.49.06-1,.37-1,0,.08-1.48,3-4.71,3.95-5.6a2.52,2.52,0,0,1,1.55-.84Zm7,.14c2.24,0-2.16,4.88-5,5.58a6,6,0,0,1-2.63.1c-.12-.19,0-.34.37-.43a15.26,15.26,0,0,0,3.49-2.23c0-.28-1.2.18-2.22.84-.67.43-1,.35-.62-.17a7.87,7.87,0,0,1,6.61-3.69Zm38.63,0c.13,0,.26.26.34.82.4,1.06.42,1.34,0,1.65-.66.53-.82.38-.81-.83,0-1,.22-1.66.43-1.64ZM35.25,138.2s.81.31.47.7-1.23,0-1.24,0Zm112.11,0c.26,0,.27.23.13.85-.08.33-.4,2-1,2.52a3.5,3.5,0,0,1-1.11-.67c-.11-.11-.43-.35-.47-.51a1.6,1.6,0,0,1,.4-1.53,1.14,1.14,0,0,1,.63-.2,3.35,3.35,0,0,0,.85-.28A1.84,1.84,0,0,1,147.36,138.23ZM35.53,139.42a5.42,5.42,0,0,1,1.76.24A22.68,22.68,0,0,1,42.41,142c.68.64-1.08,1.33-3.21,1.36-1.12,0-1.33-.22-2.89-1.16-.2-.13-1.11-.73-.84-1s1.15.09,2.24.64c.35.18,1.21.13,1.21,0a17.3,17.3,0,0,0-3.79-1.51c-1.06-.34-1-.68-.38-.83a5.15,5.15,0,0,1,.78-.05Zm-2.12.74s.44.4,1,.83a7.6,7.6,0,0,1,1.88,1.84c.73.9,1.9,3.15,1.77,3.55-.3.94-3.41-.7-5.95-3.25a18.62,18.62,0,0,1-1.32-1.45l1-.88s.85.71,1.83,1.58c1.85,1.64,1.84,1.08,0-.64l-1-.93C32.61,140.5,32.91,140.22,33.41,140.16Zm76,.08s1,1,1.36,1.51c-6.06,5.94-8.37,14.24-2.52,23.08h-2.81c-5.25-10.38-2.76-18.19,4-24.58Zm-51.2.24c.37,0,0,.43-.64,1.57-1.24,2.13-1.49,2.67-3.52,3.2a9,9,0,0,1-1.57.07c-.87.11-.48,0,.86-.87,1.84-1.21.27-.59-1.44.3-1,.51-2,.48-2.12.22s.41-.53.7-.8c2.6-2.33,3.4-2.23,5.82-3.08A12.05,12.05,0,0,1,58.2,140.48Zm-10.89,2.13a12.28,12.28,0,0,1,2.61.28c.52.12,1.36.22.65.86A8.75,8.75,0,0,1,46,145.62c-.23,0-3.54-.22-2.83-.94a7.36,7.36,0,0,1,1-.13c1.83-.35,1.34-.64-.92-.52-2.83.15-3-.15-.82-.73a18.78,18.78,0,0,1,4.52-.68Zm15.12.22c1.26,0,2.24.21,2.24.7,0,.78-2.37,2.49-3.94,2.83l-1.16.26a21.18,21.18,0,0,1-3.87-.09c-1.41-.52-.43-.72,2.17-1,1.13-.14,1.67-.43,1.67-.65a4.83,4.83,0,0,0-2.08,0c-1.38.17-1.11-.24.61-1.14A10.66,10.66,0,0,1,62.43,142.83Zm-23.3,1.08a6.21,6.21,0,0,1,1.3.45c1.51.44,3.58.94,5,2.49,1.15,1.12,1.43,1.48,1.18,1.87s-3.84.11-5.34-.53a7,7,0,0,1-2.7-2.12c-1.3-1.91-.76-2.41.9-1.08,2,1.61,2.29,1.77,2.65,1.7.14,0-.21-.36-.88-.86-1.68-1.25-2.5-1.93-2.11-1.92ZM51.42,146a6.6,6.6,0,0,1,3.66.87c2,.72,1.54,1.36-2.07,2.26a6.64,6.64,0,0,1-4.94-.68c-2.9-1.8-2.71-2.16.53-1.35,1.07.26,2.13.31,2.2.11a9.41,9.41,0,0,0-2.29-.83c-1.13-.38-.16-.35,2.11-.37ZM135,153.71l-.53.27a13.82,13.82,0,0,1-2.23.28,15.65,15.65,0,0,0-4.94,1,8.08,8.08,0,0,0-3.31,3.27c1.48-.1,9.88,1.42,12.2-1.61.49-.64-1.25,4.79-2.14,5-2.21-.26-3.14,3.22-2.92,3.08-2.23.86-4,1.37-3.39,4,.24,1.14,1.39,2.48,3.81,2.15-.66,4.5,4.84,5.67,5.44.24,0,0,1.07-.21,1.49-.26,2.5-.59,3.11-4.27-.57-5.44-1-.3-1.08-.49-1.08-.49a3.36,3.36,0,0,0-.45-2.67c.81-1.94,2.83-5.68,2.83-5.68Zm.39,1.12c.51.68-2.13,1.8-4.94,2a17.28,17.28,0,0,0-2,.24c-.3.53,5.43.15,7.22-.86.61-.34.66,0,.4.49-2.07,2.68-7.08,2-11,1.55-.22-.23,0-.5.84-1.22a8.46,8.46,0,0,1,5.31-2C131.89,155.05,135.07,154.45,135.39,154.83Zm3.1,2.77a50.25,50.25,0,0,1-2.24,4.67c-.23.23-1.06.39-1-.5s1.79-4.88,2.27-5A.84.84,0,0,1,138.49,157.6Zm1.2.27c.55,4,3.59,5,6.52,6.26.77.35,1.42,1,2.19,1.39,1.44-2-.18-5.82-2.73-7.07-1.89-.89-3.61-1.59-4.67-1.51-.62,0-1.31.44-1.31.93Zm1.56-.24a11.77,11.77,0,0,1,2.5.55,6.48,6.48,0,0,1,4.87,5.11c0,.1.15,2.05-.29,2-.67-.2-1-.87-2.11-1.33a15.71,15.71,0,0,1-4.39-2.36,4.61,4.61,0,0,1-1.56-2.55c-.11-.82.16-.9.84-.24,1.53,1.22,3,1.64,4.55,2.82.42.32,1.93,1.16.9.12a19.22,19.22,0,0,0-3.84-2.47c-1.52-.73-2.34-1.62-1.47-1.63Zm-116.07,4,17.27,27.12C38.2,191,36.1,192,29,191.45l0,.36-3-.17c5.18,8.12,11.58,18.71,9.76,37.2l21.05,0,.36.34c.31.21.77-.37.77-.37l9.49-.05.26.31,4.43,0S52,191,41.78,172.1c-4.18-7.58-8.53-10.94-16.6-10.45Zm108.94.9a2.17,2.17,0,0,1,2.27,2.28,4.63,4.63,0,0,1-.66,1.89l-1.54-1.47-1.47,1.48a2.54,2.54,0,0,1-.92-2.4,2.71,2.71,0,0,1,2.32-1.78Zm-17.87.54c1.47,5.72,3,13.61-9.63,31.84-7.5,10.79-10,21-10.26,33.38H95.6c.36-6.81.41-19.17.41-19.17l.71-.63a4.65,4.65,0,0,1-.47-1.14c-.23-1,0-.7.58-3.49,2.6-13.47,19.42-40.79,19.42-40.79Zm-67.71,2.63,64.27.29L112,167.7l-62.18-.44Zm85.67.48,2.38,2.34-2.33,2.63-2.46-2.58Zm-2,1-1.3,1.39,1.12,1.19c-1.16,2.45-4.25.54-4.15-1.3.13-2.14,2.62-3,4.33-1.28Zm4.12,2.76,1-1.32-1.17-1.29c1.92-1.91,3.73-.23,3.91,1.36S137.7,172.31,136.37,170Zm-76.11-1.62,5.26,0-1.95,3.68-5.34,0Zm11.73,0h4.83l-2,3.73H69.89Zm11.42,0h5.12l-2.08,3.73H81.19Zm11.47,0h5.25l-1.91,3.73H92.78Zm11.7,0h5.06l-2,3.73h-5.21Zm-55.87,0h3.4l-1.39,2.45Zm84.77,2.35a2.33,2.33,0,0,1-1.43,4.19,2.38,2.38,0,0,1-1.23-4.27l1.46,1.34Zm-71.51,2h4.94l-1.86,3.36H62.21Zm11,0h5.42l-1.91,3.35H73.31Zm11.61,0H92L90.2,176.1H84.76Zm11.57,0h5.35l-1.67,3.35H96.17ZM54,172.88H57.4L56,175.56Zm2.57,3.89,50.09.44-.85,1.63h-48Zm1.76,2.92,46.94.11-1.08,2.26L88,182c-3.17-2.38-6.79-1.28-10.91.07,0,0-12.42.13-17.3,0Zm-15.61,9.56,24.76,39.23L62,228.42,38.49,191.51Zm-5,2.55,23.37,36.67c-1.07,0-2.07,0-3.14,0a9.35,9.35,0,0,0-8.28-10.23c1.94-8-3.88-11.37-7.76-12,1.57-10.41-7-11.88-7.13-11.78a9.79,9.79,0,0,0-.23-2.18l3.17-.5Zm-3.79.58c-.05.22.44,2.3-.48,1.92l-.07-1.91Zm-4.92.06c.34,1.38,1,1.65,2,2.57,0,0-1.23.21-1.51,0a12.08,12.08,0,0,1-1.57-2.6Zm3.66,2.33a1.08,1.08,0,1,1-1.07,1.08A1.07,1.07,0,0,1,32.7,194.77Zm2.12.83c3.08-.2,7.53,3.11,6.36,9.3a10.7,10.7,0,0,0-1-2.06c-2.12-2.87-4.61,1.07-2.93,2.67.82.79,1.21,1.1,1.12,1.17a2.24,2.24,0,0,0-2.54,3.19c1.32,2.42,3.14,1.14,4.2-.3,0,0,.65,2.17,1.3,2.45a2.23,2.23,0,0,0,2.82-1.32c.69-1.79-1-2.24-1.36-3.24,3.55.12,8.08,5.34,6,9.86.27-1-.83-3.34-3-2.74-1.07.37-1.44,1.94-.58,3.54a5.51,5.51,0,0,0,.43.71,5.09,5.09,0,0,0-1.17.27c-2.78,1.72.8,6.41,2.87,3.48a6.85,6.85,0,0,1,.55-.75c.35.65.45,1.57,1.07,1.89,2.56,1.29,3.7-1.44,2.63-2.78-.61-.75-1.29-1.62-1.29-1.62-.11-.48,7.67,1.56,6.72,9.16l-20.62,0c1.91-11.67-2.72-25-5.08-29.09l1-1.36c.25.51.68,1.78,1.43,2,2.39.77,3.12-.9,2.8-2.63-.17-.92-1.45-1.66-1.86-1.79Zm5.46,11a1,1,0,1,1-1,1A1,1,0,0,1,40.28,206.58ZM48,218.74a1,1,0,1,1-1,1A1,1,0,0,1,48,218.74Z" transform="translate(0.1 0.1)"/></g></g><path id="path147-0-8-1-3-6-7-5-8" d="M130.52,223c7.82-.17,11.33-9,5.54-15.81-.84-1-.93-1.57.61-.61,3.9,2.6,11.37.89,11.76-7.08.47-9.82-13.25-12.65-15.83-2.21-.14,1.1-1,1.08-.82-.49a32.67,32.67,0,0,1,3.39-12.08h-9.3a32.47,32.47,0,0,1,3.38,12.08c.22,1.57-.68,1.59-.81.49-2.58-10.44-16.3-7.61-15.83,2.21.38,8,7.86,9.68,11.76,7.08,1.54-1,1.45-.39.61.61-5.79,6.83-2.28,15.64,5.54,15.81Z" transform="translate(0.1 0.1)"/><path id="path147-0-8-1-0-3-83-6-6-4" d="M48.07,26.47c7.82.17,11.32,9,5.53,15.81-.84,1-.93,1.57.61.61C58.11,40.29,65.59,42,66,50c.47,9.82-13.25,12.65-15.83,2.21-.13-1.1-1-1.08-.81.49a32.47,32.47,0,0,0,3.38,12.08h-9.3A32.48,32.48,0,0,0,46.8,52.67c.21-1.57-.68-1.59-.82-.49C43.41,62.62,29.68,59.79,30.16,50c.38-8,7.85-9.68,11.75-7.08,1.54,1,1.46.39.62-.61-5.8-6.84-2.29-15.64,5.53-15.81Z" transform="translate(0.1 0.1)"/></g></g></svg>