<svg id="svg4946" xmlns="http://www.w3.org/2000/svg" viewBox="0 0 178.79 249.65"><defs><style>.cls-1{fill:#fff;stroke:#000;stroke-width:1px;}.cls-2{fill:#e2cf00;}.cls-3{fill:#d40000;}.cls-4{fill:#131f67;}</style></defs><title>12DIAMOND</title><g id="layer1"><g id="g7107"><rect id="rect7166-7" class="cls-1" x="0.5" y="0.5" width="177.79" height="248.65" rx="8.5"/><path id="path6307-8" class="cls-2" d="M112.26,21.37s20.19,29.29,27,34.49c.5.24,8.94-1.38,8.94-1.38-4.32-10.4-7.11-21.16-4.3-33.22ZM123.48,67.7c-13.92,3.94-27.82,7.65-42.91,1.22l-16.48,16C64,85.32,84,94,84.34,93c-9.83,26.55,5.49,31.37,15.25,2.17,12.77-1.68,28.09-3.42,40.75-12.24A60,60,0,0,1,123.48,67.7ZM39.75,72.42c-5.28-3.25-9.4,3.44-5.54,6.78-.45,2-.61,4.86,1.27,6.13,1.73,1.1,5,0,5.42,0,0,0,.08,3.52-.19,3.51-.5,0-2.38-1.63-3.55-2-3.93-1.19-9.46-1.77-9.36-1.57s-1,1.15,3.41,3.92c1.63,1,6.78-.13,10.88,1.17,2.5.79,4.74,2.05,6.1,1.4,3.58-1,5-5.68,4.73-5.64-.12-.14-10.82,2.76-9.81,3.27l0-4.07c4.22.46,8-2.61,3.89-7.87,3.08-3.08-1.24-10.42-7.21-5ZM57.33,91.06c-10.38,10.5-31.59,30.2-31.59,30.2L26,136l20.73,18.62c1.64-19.76,12.83-38.21,23.48-47.43C71.15,104.35,59.58,92,57.33,91.06Zm73.94,3.63c-1.56,12.15-3,28.72-23.52,47.14,3.56,6.08,8.09,12.27,14.61,15.23.46,1,18.84-19.09,30.15-28.61l-.06-12.9ZM38.71,97.3c0,.26-.8,3.45-1,3.37,0,.17,2.1-.78,2.34-1.66s.68-1.8.71-2C40.3,93.78,39.41,96.11,38.71,97.3ZM31,105.79a17.46,17.46,0,0,0-1.19,7.29c3.68,1.85,4.68-5.83,3.69-6.57A9.75,9.75,0,0,0,31,105.79ZM144.58,141c-.34,1.54-.27,2,.41,2.29,1.19.52,1.72-.11,2.68-2.6.57-1.49,1.07-3.73.61-4.61-2.25-1.58-3.44,3.77-3.7,4.92Zm-64.31,12.9c-15.09,2.4-30.19,3.88-42.17,13.26C39.45,167,54,180.71,54.72,182.64,76.92,171.76,98.48,180,98.48,180l16.24-15.72c.63-.29-17.66-7.86-21.11-9.13,12.46-33.66-7.27-28.61-13.34-1.21Zm59.4-3.84a12.25,12.25,0,0,0-2.25,2.55l.78,1.26,2-2.2Zm-14.21,14.16c2.09-1,9.52-4.56,9.83-3.73l-.15,3.62c-1.14-.37-8.47.84-4.23,8.44-2.67,6,3.28,9.15,7.45,5.16,8.73,3,7.56-5.77,5.76-7.19,1.42-2.21-.36-6.93-1.25-6.94,0,0,7.62,1.72,6.88.36a6.55,6.55,0,0,0-2.46-2.83c-2-1.31-5.39-.83-8.16-1.42-3-.62-4.88-1.69-7.38-1.84-3.76.35-7.28,3.67-6.29,6.37ZM40.51,192.71,30,195.53a77.59,77.59,0,0,1,4.58,15,73.31,73.31,0,0,1,.29,18l30.48.15Z" transform="translate(0.1 0.1)"/><path id="path6309-7" class="cls-3" d="M67.88,228.57C54.5,209.4,42.11,191.18,25.66,171.09c0,0,0-7.77.07-15.47l50.55,72.76ZM95,197.63a79.77,79.77,0,0,0-2.23-11.75l9.23-8.73c-1,7.8-2.53,13.79-7,20.48Zm44.11-27.53c2.06,2.75-1.42,4.28-2.74,3.05C133.66,170.67,137.57,168.1,139.07,170.1ZM47.55,152.75c-1.53,1,2.76-24,14.51-36.93C69.22,136.38,56.6,147.91,47.55,152.75Zm58-.09-7.81-2.12,3.68-11s7.55,1.73,6.92,4a84.06,84.06,0,0,1-2.79,9.08Zm-36.15-4.21a67,67,0,0,0,5.2-11.28l7.82-.16L78.5,147.87Zm47.07-15.39c-6-12.08,1.08-31.2,14.23-36.46A58.22,58.22,0,0,1,116.48,133.06Zm-40.62-3.43A63,63,0,0,0,75,116.86a152.1,152.1,0,0,0,27.49,3.68l1,11.56A126,126,0,0,0,75.86,129.63Zm20-17.62a58.41,58.41,0,0,1,3.59-10.48l9.52-.45c-.05-.19-4.06,6.36-5,11.09-1.52-.16-8.09-.16-8.09-.16Zm-18.06-2.86c-2.78-1-6.58-1.26-8.06-3.42l2.9-9.2,8.56,2.64Zm24-87.76,6.71-.07s32.25,41.42,44.34,57.54c-.4,1.64.13,15.55.13,15.55C135.86,70.22,101.8,21.39,101.8,21.39ZM40,79.18a1.51,1.51,0,1,1,2.26-1.93C43.26,78.78,40.91,80.21,40,79.18Zm36.19-6.79c.11-9.6,6.89-21,6.82-20.7-.08,0,1,9.38,2.27,12.34C84.87,64.55,76.46,73,76.14,72.39Z" transform="translate(0.1 0.1)"/><path id="path6311-0" class="cls-4" d="M24.28,19.8V229.65h130V19.8Zm119.09,1.59C142.31,33,142.13,42,148.13,54.05c-1.08,1.14-9.26,1.47-11.83,2.82-.05.32.66.88.66.88,2.69-1.25,13.2-2.4,13.2-2.4-4.4-7.69-8-22.6-5.29-34h7.88V77.47s.1,10.66.32,16.74c-4-5.23-9.24-12.41-12.74-17.84-4.24-6-9-13-13.81-19.61-1.43-2.08-3.47-4.77-5.13-7.2-2.61-3.75-4.77-6.66-7.48-10.69-2.9-4.18-5.67-8-9.11-12.82-2.91-4.13-3-4.66-3-4.66Zm-49.81,0C98.48,30,107.28,33,109.49,33.55l1.29,1.89A28,28,0,0,1,92.24,22.57a2.87,2.87,0,0,1-.18-1.18Zm-4.87,0a23.44,23.44,0,0,1-5.06,7.16l.06-2.08a19,19,0,0,0,3.61-5.08Zm2.38,0A3.43,3.43,0,0,1,91,22.5c-1,3.37-7.51,9.78-7.33,8.82l-.06-1.65c0,.07,4.86-4.77,6.14-8.28Zm-4.7,0c-.5.95-2.39,3.89-2.56,3.1l.17-3.1Zm14.78,0c.81,1.19,1.55,2.15,2.41,3.36a.94.94,0,0,1,.22.61c-.13.34-.52.09-1.59-.87a25.48,25.48,0,0,1-3-3.1Zm-6.54,0H96.2a23.13,23.13,0,0,0,11.23,9.15c.55.6,1.13,1.7,1.36,2C103.28,31,97.11,26.21,94.61,21.39Zm3.86,0c1.75,2.54,4.5,4.39,6,5.61.84.65,1.93,2,1.83,2.25-3.44-1.09-7.47-5-9.32-7.86ZM91.72,23l1,1.53a32.51,32.51,0,0,1-9.11,10l0-2C88,29.4,89.85,26.21,91.72,23Zm1.55,2.21a29.42,29.42,0,0,0,18.28,11.26,10.69,10.69,0,0,1,1.34,1.58c1,1.37,1,1.42,1.15,3.67A45.65,45.65,0,0,0,116.79,55c-.17.88-.32,1.32-2,3.55-6.84,9.27-21.42,18-28.6,6.07-2.4-3.83-2.63-11.19-2.78-15.77,0,0,0-.33.06-.41.18-.84.41-.71,1.71-.35,1.31.57,2.68.11,4.07-.27,1.59-.64,1.72-.15.19,1.28a9.93,9.93,0,0,0-1.11,1.22,8.88,8.88,0,0,0,1.35-.7c1.22-.94,1.51-.58,1.06.45-1.92,4.35-2.26,4.52.44,5.73a5.18,5.18,0,0,1,1.26.81c1.85,1.75,1.18.81.67,0-.8-1.25-.08-1.92,1.26-1.14a4.26,4.26,0,0,0,2.71.74c1.24-.41,1.62-1.77,1.25-3.28-.29-.83-2-2.29-1.6-.76a1.45,1.45,0,0,1,1,2.39c-.67.9-1.86.42-3.69-.8-1-.76-2.24-.37-2.19.57,0,.63-.86.48-1.44-.32-.32-.45-.1-1.73.5-2.94,3.8-7.65.6-15.07-6-13-.72.23-1.37.41-1.37.41l0-2.92a35,35,0,0,0,9.68-10.32ZM97.1,39c-1,1.2-.64,2.27,1.54,1.19a7,7,0,0,1,3.94-1c2.74-.1,5.2.78,8.24,2.65,2,1.24,2.31,1.34,1.76.56C111,39.21,101.33,34.46,97.1,39Zm-9.3.36c1.91.48,3.73,1.74,3.41,2.26-.11.19-.22.22-.47.1a7.29,7.29,0,0,0-6.8-.44c-.36.15-.55-.09-.55-.51,0-.83,1.39-1.5,2.86-1.55A6.93,6.93,0,0,1,87.8,39.35Zm11,2.42c-1.13.6-1.52.91-2,.65-1.15-.63-.91-.14-.19,1.13.5.9.5,1.08.42,1.63s-.07.62.51,1.26a15.79,15.79,0,0,0,3.78,3.88,8.73,8.73,0,0,0,1.23.72c.16,0,.1-.12-.19-.4-2.08-2-3.71-3.8-1.6-3,2.46.81,4.8-.19,6.71-.85a11,11,0,0,1,1.81-.44c1.77,0,2.19-.74,1.05-1.87C106.55,40.13,103.37,39.12,98.84,41.77Zm9.09.81c.79.74,1.21,1.13,1.13,1.33s-.69-.15-1.72-.69a9.25,9.25,0,0,0-7.29-.52c-2.26.66-1.59-.38.92-1.36a6.55,6.55,0,0,1,7,1.24ZM86.83,41.1a7.22,7.22,0,0,1,4.72,1.58c.84.72.23.89-1.13.33a6.44,6.44,0,0,0-5.49-.2,5.66,5.66,0,0,1-1.31.53.89.89,0,0,1-.16-1.14A5.21,5.21,0,0,1,86.83,41.1Zm28.45.59c.13,0,.32.21.6.61.52.73.54,1.09.11,2.36-.52,1.56-.73,1.3-.87-.87-.08-1.4-.08-2.11.16-2.1ZM117,44c.2,0,.43.32.8,1,.25.5.19.65-.61,3-.33,1-.65,1.77-.66,1.77-.25.2-.21.18-.32,0-.57-.73-.53-2.16,0-3.87.38-1.3.58-2,.83-2Zm-15.55.18a3.4,3.4,0,0,1,.44.07c0,3.49,2.65,2.79,3,.31,0,0,.67-.07.77.1.32.52-.42,2-1.53,2.5a2.47,2.47,0,0,1-2.56-.33,5.24,5.24,0,0,1-.63-2.18c.13-.31.32-.46.51-.47Zm-1.6.4h.08a.55.55,0,0,1,.56.41l.57,1.77c-.42.51-2-.52-2-1.29a.86.86,0,0,1,.82-.89Zm-10.93,0c.41,0,.55,0,.6.39A2.5,2.5,0,0,1,87,47.48a1.9,1.9,0,0,1-2.17-2.06c0-.83.72-.93.8-.27.22,1.89,1.84,2,2.58,1C88.49,45.69,88.43,44.68,88.91,44.62Zm17.68.39a1.28,1.28,0,0,1,.49.11c1.49.48,1.53.71.26,1.17-1.52.54-1.62.62-1.26-.45C106.28,45.25,106.34,45,106.59,45Zm-15.74.16c1.1.07,1.19,1,.23,1.32-1.44.64-1.93.59-1.37-.35C90,45.48,90.28,45.18,90.85,45.17ZM84,45.51a.74.74,0,0,1,.44.17c.17.5.45.89.67,1.4A.92.92,0,0,1,84,47c-.69-.55-.57-1.52,0-1.52Zm34.6,1.08c.43,0,.86.68,1,1.19-1.49,1.92-1.26,5.52-1.6,6.6-.3.89-.4.12-1.23-2.16-.34-.93,1.35-5.52,1.74-5.62Zm1.53,2a1.78,1.78,0,0,1,.86,1.32,4.72,4.72,0,0,1-.28,1.45,38.45,38.45,0,0,0-.85,5.79c-.07.93-.06,1.76-.1,1.84-.45.89-1.4-1.49-1.32-3.39.29-1.51.46-6.8,1.69-7Zm2.1,2.72a2.08,2.08,0,0,1,.41.77,4.66,4.66,0,0,1-.24,2.09,26.84,26.84,0,0,0-.14,9.48c.1.69-.38.35-1.11-.85a6.76,6.76,0,0,1-.78-2.64,33.49,33.49,0,0,1,.65-8c.18-1.11.31-2.09,1.21-.84Zm1.14,1.81,1.2,1.45a46.72,46.72,0,0,0-.51,5.12,79.67,79.67,0,0,0,.82,8.5c-.74-.83-1.08-1.31-1.89-2.36-.09,0-.79-7.14-.31-9.88a21.15,21.15,0,0,1,.69-2.83ZM125.22,56c.2,0,.46.22.78.68a2.1,2.1,0,0,1,.45,1.25c0,.37-.17.66-.18,1.32a58.26,58.26,0,0,0,1.17,11.25c.23,1.29-.23.76-1,0a4.23,4.23,0,0,1-1.08-2.08c-.08-.21-.82-7.48-.81-8a13.13,13.13,0,0,1,.35-4.07Q125,56,125.22,56Zm-4.35,7.93s-1.4.72-1.77.47c-.59-1.62-2.71-5.94-2.75-6.7a9,9,0,0,1,.87-1.39C118.4,58.84,119.46,61.46,120.87,63.9ZM94.59,58.71c-.42.5-.92.29-1.94-.16-.52-.16-.44.06-1.3.5a2.28,2.28,0,0,1-1.34.36c-.58,0-.79-.21-.79.2A9.8,9.8,0,0,1,89,61.4c-.18.72-.35,1-.24,1.16.29.28.54.11,1.17-.5,1-1,1.73-.71,2.89-.34,1.31.43,1.58.58,2.78.16,1.7-.6,2.73-.6,3.41-.16,1.16.74,1.52.7,1-1.34-.16-.66-.17-1.68-.27-1.86s-.4.37-.71.58c-.6.41-.9.4-2.24,0-.8-.26-1.68-1.12-2.28-.35Zm21.54.27c.52,1.22,2.58,5.32,2.52,5.77-.41.37-.94.63-1.26.31a37.73,37.73,0,0,1-2.18-5c-.25-.51.5-1.8.92-1.05Zm11.08-.15c.14,0,.45.28.67.58a2.58,2.58,0,0,1,.77,2.09,45,45,0,0,0,1.58,11.36,15.81,15.81,0,0,1,.55,1.57c-.35.51-2-.85-2.44-2.92a59,59,0,0,1-1.28-7.14c-.27-3.14-.26-5.38.15-5.54Zm-12.38,2c.6,1.15,1.34,3.13,1.85,4.32.23.52-1,.93-1.22.75-.47-.35-.69-1.34-1-1.93-1-2.16-1.15-2.2-.61-2.87C114.18,60.66,114.58,60.09,114.83,60.86Zm14.7,1.32c.09,0,.2.08.34.26a5.92,5.92,0,0,1,1.21,1.85,7.69,7.69,0,0,1,.06,1.41c.11,1.87.6,4.44,2,9.68a7,7,0,0,1,.29,1.28c-.13,1-1.54-.6-2-2.21a50,50,0,0,1-1.6-6.33c-.52-3.43-.81-5.94-.35-5.94Zm-15.94,1.38c1.17,2.74,1.27,2.74.53,3s-.83.15-1.74-1.72c-.67-1.36-.8-1.53-.24-2C113,61.77,113.22,62.73,113.59,63.56ZM97.3,62.91c-.13,0-.53.3-.92.46a6.74,6.74,0,0,1-3.73.09c-1.85-.75-1.33.22.31.82,1.27.42,3.79.09,4.18-.7C97.38,63.32,97.47,62.91,97.3,62.91Zm14.09,1.44c1,1.62,1.36,2.27,1.19,2.39a1.77,1.77,0,0,1-1.34.32c-.42-.21-.8-1.21-1-2,.13-.38.81-1.07,1.13-.71ZM85.23,65c.47,0,1.69,1.64,1.44,1.94-.07.15-.52,0-1.59-.29-.35-.13-1.16-.24-.9-.75A3,3,0,0,1,85.23,65Zm25,2.25c-.1.28-.89.34-1.22.32a4.59,4.59,0,0,1-.45-1.28c.11-.24.65-.86.92-.74a8.61,8.61,0,0,1,.75,1.7ZM132,65.7c.17,0,.46.3.88.91.81,1.16.7,1.08,1.28,3.85.66,3.15,1.45,5.39,2.25,8.6,0,.54-.21.4-.8,0-1-.58-1.28-1.24-1.58-2.94-.52-2.82-1.61-5.43-2-8.76-.22-1.1-.24-1.7,0-1.69Zm-24.29,1.12c.57,0,.5.86.33,1-.41.36-1.56.25-1.76.27C105.84,67.41,107.34,66.85,107.71,66.82Zm27.18,3c.17,0,.62.66,1.46,1.84s.63,1,1.12,2.83c.68,2.59,1.81,4.46,2.47,6.85,0,.27-.32.24-.64.11a7.14,7.14,0,0,1-1.68-1.12c-.35-.39-.35-.87-1.4-4.49-.37-1.31-.47-1.64-.94-3.63-.4-1.65-.58-2.42-.39-2.39ZM47.3,77.56c2.75,5.07,1.73,7.32-4.17,8-.43-.06,0,2.6,0,3.79,3-1.7,6.54-2.1,9.84-3.17-.9,2.89-2.48,6.16-7.25,5.66-5-3.88-10.87-1.55-14.86-3.12a5.31,5.31,0,0,1-3-3.64c2.6.26,5.54.82,8.06.63-2.75-2.12-2-5.07-1.56-6.42-3.22-4.07-.53-8.66,4.14-7.59a9.36,9.36,0,0,1,1.44.58c4.51-4,9.75-.24,7.42,5.25Zm91.3-2.47c.19,0,.6.47,1.43,1.64a74,74,0,0,1,4.54,6.83c-.1.59-2.66-.45-3.31-1.3a29.28,29.28,0,0,1-2.8-6.75C138.46,75.25,138.5,75.1,138.6,75.09ZM38.67,89.85c1.28.19,1.63.3,1.62.8s-3.1.48-3.53.16.1-.8.44-.93a3.32,3.32,0,0,1,1.47,0Zm88.39.46c-17.91,8.49-25.24,31.08-16.2,48.39l-1.24.9c-8.87-18.3-2.27-37.91,12.13-47.82.58-.41,1.87-.74,2.47-1.13,0,0-5.87,1.34-7.86,2.12a4.89,4.89,0,0,0-2.86,1.79,40.13,40.13,0,0,0-4.49,6l-9.24.38v.34l9.08-.21c-9.35,15.45-7,30.15-1.28,40.43l.14.1c.34.23,1.22-.42,3.05-2.16l2.12-2a55.38,55.38,0,0,0,3.85-4.13c-6.29-12.86-.09-29.79,14.62-37.43a12.76,12.76,0,0,0-.16-1.64s-.55-.5-.88-.45c-16.39,7.24-23,25.23-16.29,41.59l-1.1,1.2c-8.37-16.94.62-38.11,16.29-44.11,0-.39-.35-.87-.77-.58a33.53,33.53,0,0,0-16,45.17l-1,.93c-9.42-18.79.51-39.84,16.08-47,.46-.1-.41-.67-.41-.67Zm-91.17.17s-.12,1,.23,1.34c.16.72-.1.64-.7.5-1.49-.36-.33.49.89,1.18s1,.65,0,1.32c-.7.44-.63.61-.54,1,.15.51.24.17.53-.1a2.23,2.23,0,0,1,1.65-.7c.82,0,.9.66.76,1.17-.33,1.07-1.43,1-2.34.75-1.48-.44-3.89-3-3.86-4.53C32.4,91,34.25,90.42,35.89,90.48Zm6.65.33c.57.22,1.3.5,2.09.83A12.23,12.23,0,0,1,47.55,93a4.87,4.87,0,0,1,1.9,4.67L38.17,108.44s-.64-.31-1.24-.62c-1.89-1-2.35-1.48-1.3-2a1.65,1.65,0,0,0,.75-1.37c.1-.74.06-.61.5-.94.76-.59.8-.83.8-1.8a2.32,2.32,0,0,1,.3-1.34,5.9,5.9,0,0,0,.51-1.75c0-.12,0-.44,0-.55a1.67,1.67,0,0,1,.45-.91,3.92,3.92,0,0,0,.47-1c.32-.89.26-.76.77-.66.73.14.63.57.55,1.26a1.3,1.3,0,0,1-.19.49,3.13,3.13,0,0,1,.65-.34c.24,0,.47,0,.53.4a7.55,7.55,0,0,1-.05.89,10.53,10.53,0,0,0,.22,2.27c.84,2.91.67,2.5.39.09a9.85,9.85,0,0,1-.07-2.13,4.2,4.2,0,0,1,.4-1.45c.49-.87.52-1-.56-1.47-.39-.16-1.07-.43-1.21-.71a2.2,2.2,0,0,0-1.35-1c-1.62-.38-2.57-1.95-2.33-2.18s.8,0,1.22.06c1.47,0,1.79,0,2.44-.59.35-.3.51-.57.79-.59a3.25,3.25,0,0,1,.88.29Zm76.75,1.74c-15.14,12.3-17.8,32.2-10.24,47.56l-1.31,1c-9.5-18-3.12-37.44,8.55-48.07ZM31.84,94c.26,0,.56.37,1.62,1.51a11,11,0,0,0,1.85,1.66c.89.43.7.25,0,1-.76.88-.34,1.59-1.25,1.16-2.35-1.11-4-4.39-2.48-5.17A.93.93,0,0,1,31.84,94Zm-1.18,3.44a.43.43,0,0,1,.19,0c.29.07.64.62,1,1a7.37,7.37,0,0,0,2.37,1.9c.82.37.84.46.26,1.1a2,2,0,0,0-.38.67c0,.16-.06.36-.24.39-.92.18-4-1.68-4.09-3C29.89,98.39,30.19,97.5,30.66,97.46Zm6.47.36c.53,0,.84.45.83,1.22,0,.53-.3.75-.9,1-1.3.48-2.1-.45-1.19-1.47A1.93,1.93,0,0,1,37.13,97.82Zm-.79,3.12c1,0,1.26.83.54,1.54s-2,.68-2-.06a1.88,1.88,0,0,1,1.49-1.48Zm-6.06,1c.66.19,2.27,1.36,3,1.49,0,.4-.44.5.23,1.24.3.34.33.57.07.71-.81.43-3.61-.94-3.79-2.34C29.67,102.34,29.9,102,30.28,101.93Zm3.65,1.68c1,0,2,.07,1.93.53s-.43,1.22-.87,1a1.89,1.89,0,0,1-.57-.44C33.91,104.26,33.77,103.6,33.93,103.61Zm36.37,4c2.81,2.54,13,29.14-8.23,48.52l-4.5,1.36c20.37-16.06,17-38.85,11.48-48.68,0-.29-.08-.26-.58.21s-.5.49-.32.56c6.22,9.59,8.54,36.69-15.94,49.77-.41.43.42.36.42.36,0-.35,11-3,10.25-3.09C73.11,147.54,82,125.89,70.93,107c-.27-.17-.63.59-.63.59Zm-3.53,3-.14.6c8.88,17.5.4,38.93-16.11,46.87a5.39,5.39,0,0,0,.88.48c18.73-10.12,24.12-31.54,16-48.13Zm-1.48,1.24-.11.63c7.35,14.9,1.52,35.56-16,43.94-.16.91,0,.64.83.6,20.3-10.93,22.2-31.71,15.85-45.2ZM64,113.64c-.57.77-1.62,1.16-2,2.14,5.9,15.64-1.72,30.7-14.62,37.05,0,.79-.58,2.74.79,2.42,15.94-7.24,22.87-26.51,15.9-41.68l-.1.07Zm80.07,30.25c.59,0,1.12.22,1.66.29,2,.26,3.27,1.71,2.38,2.59-.29.29-.7.12-2-.51-.59-.29-.69-.56-.81-1.21s-.3-.87-.5-.26-.42,1-1.09.84C141.85,145.19,142.57,143.88,144.09,143.89Zm-21.18,13.32c-4.75-2.71-10.62-7.59-14-13.14a79.57,79.57,0,0,0-3.63,8.86l-7.46-2.09-.09.16,7.38,2.13-.72,2.47c-.08.27-1.22,3.08-1.22,3.08l11.52,5.4a19.33,19.33,0,0,1-2.48,2.89,2.24,2.24,0,0,0-.58,1.35l16-15.29a37,37,0,0,0,2.82,3.76c.72.65.94.81.11,1-3.76.55-6.67,3.4-5.65,7.23.16.42.49.27,1.2-.18,2.49-2.27,8.58-4.36,8.79-3.83l0,2.43c-6.56.1-5.89,4.94-5.41,7.53,0,.06-1.89,1.72-1.89,1.72a18.07,18.07,0,0,1,1.94,1.16c-.57,3.22,2.17,7.9,7.55,5.51.46.48.9,1,1.42,1.56a10.81,10.81,0,0,0,1.18-2.15c2.68,1.22,8.22-1.5,5.39-7.73l1.56-1.49-1.5-1a7.64,7.64,0,0,0-1.23-4.37,29.19,29.19,0,0,0,4.39.75h0c1.16.11,2.13.14,2-.56a15.12,15.12,0,0,0-.31-1.55c-.56-1.63-3.45-2.83-6.25-3-.46,0-1,0-1.05-.13s.14-.55.45-.49a2.92,2.92,0,0,0,3.28-2.32,3.44,3.44,0,0,1,.81-1.22c.8-.88.87-.86.85-2.13a2.2,2.2,0,0,1,.55-1.66,4.08,4.08,0,0,0,.5-3.08,2.53,2.53,0,0,1-.13-1.77c.47-1.46-.57-2.8-1.92-3.56-.11,0-.08.08-.17.19a4,4,0,0,1-2.73-.5c-.31-.16,1-8.08,3.86-7.37.47.28.67,1.66.63,1.69.13,0,.2-.81,0-1.35a1.24,1.24,0,0,0-1.47-.95,4,4,0,0,0-1.74,1.43c-1.31,1.68-1.33,2.75-1.77,4.54-.21.85-.23.8-1.4-.12-.83-.65-1.24-.86-1-1.25.13-.17.67-.72.67-.72l10.66-9.84v98.88H94.67l.4-13c1.08-8.9-.82-27.6-2.26-29.36,1.11-1.25,4.56-4.27,4.37-4.4l-.46-.28-1.82,1.69-4.5-1.37a19.33,19.33,0,0,0-5.9-3.08c-3.32-.86-9.71,1.86-9.71,1.89a52.71,52.71,0,0,0-18.26,4.89,8.75,8.75,0,0,1-1.05-1.71C50.22,176.08,45.05,172,38,167l8.94-5-21.2-22.23-.18-18.06L56.26,92.22c.18-.51,9.8,6.82,13.38,12.78a71.34,71.34,0,0,1,3-8.42c.11-.26,6.11,2.23,7.89,2.33a.65.65,0,0,0,.48-.26l-7.92-2.59,1.62-4.65s.57-1.27-.07-1.48c-3.61-1.17-7-3.23-10.45-5,0,0,1.61-1.8,1.64-1.88s.68-1,.52-1.38c-1.76,1.71-16.09,15-16.09,15a7,7,0,0,0-2.44-4.5,6.56,6.56,0,0,0,2.64-1.29c2.1-1.54,3.24-4.28,3-5.88a44.53,44.53,0,0,1-6.36,1.86,8.11,8.11,0,0,0-3.58,1.59L43.39,86s3.39.59,5-1.69c1.35-2,.79-4.22.48-5.37,0-.26,0-.23.55-.77.43-.4,1.1-.91,1.1-.91,0-.15-1.75-.81-2.05-1.41.47-4.74-3.3-6.57-6.49-5.73-.59.19-.88.3-1.59-.5l-1-1s-.38.87-.57,1.25c-.63,1.24-.8.87-2.15.94-3.41.16-4.94,2.93-4.15,6.33.18.8.1.68-.42,1.69-.27.51-.7,1.17-.7,1.17s.62.35,1,.54c.63.28.66.61.66,1.23A6.38,6.38,0,0,0,34.3,85.2a19.52,19.52,0,0,1-7.15-1c.37,3.74,3.11,5.13,6.48,5.68a2.71,2.71,0,0,1-.73.48,1.7,1.7,0,0,0-1.27,1.55,2.89,2.89,0,0,1-.85,1.5A2.3,2.3,0,0,0,30,95.75a2.12,2.12,0,0,1-.53,1.5,2.78,2.78,0,0,0-.57,2.28,9.62,9.62,0,0,1,.1,2.26c-.14,1.55.41,2.13,1.12,3.23.45.71.36.73.25,1.24a28.14,28.14,0,0,1-.79,2.81c-.61,2.1-.63,3.7-.13,4.11a2.12,2.12,0,0,0,2,.31c3-.93,2.46-3.86,2.62-5.83.08-.51.26-.75.42-.72a9.26,9.26,0,0,0,2.88,2.18c-4,4-6.5,6.52-11.5,10.94V21.39H83.11s.06.83-.08,4.4C82.78,33,82.48,40.63,83,48a66.65,66.65,0,0,0,.4,7.61c.35,2.46.51,5.12,1.66,7.42.46,1.24.47,1.15-1.28,2.78a6.76,6.76,0,0,0-1.57,1.8c0,.05,0,.24.1.13s.72-.7.79-.79c.48-.56,1.28.16,4,.93A7.31,7.31,0,0,1,88.9,69c4.06,3.44,9.78,2.37,14,.49a9.05,9.05,0,0,1,3.46-.81,67,67,0,0,0,14.91-4l.94,1.55a.64.64,0,0,1,.61.33C127,74.37,140.57,83.36,140.33,83l-8.86,4.92c6.45,8,21.28,21.57,21.28,21.57v19.5a128.89,128.89,0,0,0-11.34,10.38c-1,1-1.71,1.56-1.33,1.58.9-.14,1.68.75,2.42,1.37.46.52.35.48-.19,1.19-.37.5-.51.64-.51,1a1.78,1.78,0,0,1-.61,1.69,2.45,2.45,0,0,0-.68,1.37,2.36,2.36,0,0,1-.46,1.45c-.67.14-.73,1.12-.61,1.56a1.4,1.4,0,0,1,.44,1.29c-1.33,1.45-2.73,2.71-1.84.68a6,6,0,0,0,.55-1.39s-.65.67-1,1c-.52.47-.7.19-.72-1.29a10.23,10.23,0,0,0-.72-3c-.11-.17-.13.12-.08,1.2a6.37,6.37,0,0,1-.26,3.26c-.68,1.92-1.16,2.19-.06,2.12s1.91-.07,2.36.55a2.17,2.17,0,0,0,.77.78,7.89,7.89,0,0,1,2,1.5c1.53,1.68,1.09,3.17-1.87,2.16-1.56-.54-.54-1.21,1.14-1.05,1,.09,1.2-.29.31-.56-1.66-.31-1.93-.5-3,.81a10.67,10.67,0,0,1-8.42-5.14c-.52-.88-.68-1-.31-1.54.14-.2,0-.14-.19.13s-.92.5-1.14.7c-1.54,1.54-3.11,3.2-4.5,4.46Zm20-10.83c.78.1.76.76.07,1.39s-1.11.59-1.48.22C140.87,147.34,141.7,146.38,142.92,146.38Zm2.27.46a3.87,3.87,0,0,1,2.38,1.08c1.14,1,1.4,3.25.36,3.64-.44.17-.51,0-1.44-.88a8.13,8.13,0,0,0-2-1.46c-1.37-.66-1.55-.91-.62-1.35a1.85,1.85,0,0,0,.56-.52c.24-.39.31-.51.74-.51Zm-1.48,3.06a2,2,0,0,1,.8.32c2.31,1.27,3.44,3.25,2.66,4.37-.51.74-1.35.46-2-.59a6.44,6.44,0,0,0-2.39-1.88c-1.24-.63-1.27-.72-.37-1.15a1.87,1.87,0,0,0,.82-.75c.21-.37.22-.33.46-.32Zm.74,4.73c1.74,1.75,1.54,2.69.41,3.4-.77.49-2,.61-2.42.21-.66-.58-.64-1.24.08-1.45s.43-.42-.21-.58c-2.26-.65-3.65-1.85-1.19-1.59a2.27,2.27,0,0,0,1.76-.92c.53-.65,1.25.61,1.57.93Zm-119,.67,50.85,72.86H35.16c1.45-11.59-1.45-24.45-5.29-32.84A122.08,122.08,0,0,0,42,192.4l-.8-1.06a49.25,49.25,0,0,1-13.28,3.08c5.48,9.37,7.44,22.28,5.8,33.74H25.9V171.6Zm9.11,10.85a4,4,0,0,1,2.73,2.19,22.92,22.92,0,0,0,1,2.46c0,.21,1.77,3.41,1,3.13-1.55-2.11-4.31-5.69-5-7.44C34.28,166.26,34.31,166.15,34.51,166.15Zm5.5,3.2a17.06,17.06,0,0,0,1.06,2.82c1.1,2.38,2.8,6.1,2.45,7.16-.23.72,0,.68-.61-.2-.31-.44-1.26-1.77-1.49-2.07-.56-.75-.18-.07-.5-1.29-.76-3.45-2-5.27-2.78-7.29-.28-.94,1.51.49,1.87.87Zm1,.52c.15.11,2.17,1.53,2.37,1.74.72,2.55,3.58,10.74,2.84,12.2a6.55,6.55,0,0,1-1.5-2.2A27.55,27.55,0,0,0,41.81,172C41.43,171.08,41.14,170.2,41,169.87Zm3.8,2.88a4.56,4.56,0,0,1,1.68,1.67,6.87,6.87,0,0,1,.61,2c.73,3.34,2.13,6.72,1.5,10.29-.39.53-1.24-.68-1.36-1.87a46.59,46.59,0,0,0-2.14-10.48C44.82,173.48,44.61,172.78,44.79,172.75ZM48,175.81c.14,0,.42.26.89.7a2.69,2.69,0,0,1,1,2.59c0,2.08.72,4.47.83,6.57a29.12,29.12,0,0,1,.09,4.54c-.26.37-1.43-1-1.34-3a24.72,24.72,0,0,0-1-8.55c-.48-2-.72-2.8-.51-2.85Zm94.07-12.39c3.64,2.34,2.35,6.67,1.57,7.2,5,6.38-2.78,9.64-5.26,7.35-3.67,3.66-10,.59-7.55-5.44,0,0-4.61-8.84,4.48-8.25,0,0,.16-3.57-.1-3.74-3.24-.21-7.65,2.92-8.9,3.79-.7.42-.85.22-.85.22-.17-1.85-.18-2.7.58-3.74,1.31-1.8,3.47-2.41,6.31-3,3.52,1.09,6.88,2.8,10.14,2.53a11.2,11.2,0,0,1,5.37,1.24c1.17.56,1.79,2.64,1.79,2.64-1.85,1-7.58-.76-7.58-.76Zm-1.74-13.11a1.41,1.41,0,0,1,1.43-1.26.84.84,0,0,1,.24,1.64c-.25.2-1.05-.1-1.09.13.05.39-.34.22-.41.08A.92.92,0,0,1,140.36,150.31Zm-.58,2.49a1.86,1.86,0,0,1,1-.31c.54-.07,1.24,0,1.4.59s-.93.89-1.8.91c-.45,0-1,.09-1.09-.22s.3-.83.48-1ZM29.6,112.49c.71-2.45.27-3.82,1.44-6.84l2.85.95a16.09,16.09,0,0,1-.46,4.61C32.86,112.86,31,114.18,29.6,112.49Zm21.23,66.27c.34,0,1.16,1.22,1.53,2.3s.23,2.27.48,3.35a38.67,38.67,0,0,1,.38,8.51c-.07.56-.43.33-.92-.2-.71-.77-.62-.79-.61-2.94a67.84,67.84,0,0,0-.58-7.3,15.09,15.09,0,0,1-.41-3.61C50.72,178.79,50.77,178.75,50.83,178.76Zm33.33.44c3.67.59,6.6,3.11,8.28,7.24s2,10,2.28,15.24c0,1.26-.54.94-1.9.16s-1.8-.52-4,0c-1.35.31-1.23-.62,1-2.15.75-.49,1.64-1.16,1.35-1.25a2.23,2.23,0,0,0-1.32.53c-2.18,1.77-2.77,2.2-2.15.48.16-.44.67-1.65.88-2.23.79-2.16-.12-3.08-2.81-4.45-.67-.35-1.11-.92-.44.28.55,1-.58,1.77-2,.62a2.78,2.78,0,0,0-3.57.73,2.51,2.51,0,0,0,.93,3.34c1.06.46,1.46.13.43-.59-1.33-.92-1.07-2.48.42-2.47A10.16,10.16,0,0,1,84.24,196c1.17.63,2,.36,2-.59,0-.64.36-.58,1.13-.2,1,.52.93,1,.38,2.42-.37,1-.56,2.16-.9,3.21-.87,3.54-1,7.56,0,8.81,2.58,3.32,5.31,3,7.66.77L94.4,214c-2.39,1.92-5.18,3.23-9.49,10.37-1.5-1.9-8-9.64-18.29-11.39l-2.32-3.2c0-.2-1.74-11.88-2.9-15.86,0,0,1.27-1.94,2.44-3.38,4.64-5.74,12.48-12.31,20.32-11.38Zm-13.48,3.32c-.4.13-.53-.67-.32-.82a5.34,5.34,0,0,1,1.13,0c.36,0,.35.44-.81.81Zm-17.45-.6A10.73,10.73,0,0,1,55,184.19c.34.5.15,1.33.2,2.15l.29,4.26a12.51,12.51,0,0,1-.39,4.91c-.34.83-1,.26-1.21-.88,0-.27.19-3.09.19-4.63,0-2.66-.68-5.95-.84-8.08Zm15.65,0a.43.43,0,0,1,.44.15c.56.71.78,1.15.28,1.54-.68.56-1.29.42-1.66-.65C67.7,182.19,68.27,182,68.88,181.91Zm-2.07.63a3.46,3.46,0,0,1,1.25,2.23c0,.21-.22.39-.62.72s-.53.34-1-.37c-.7-1.09-1-1.81-.89-2.19A1.22,1.22,0,0,1,66.81,182.54Zm24.43.14a20.92,20.92,0,0,1,3,.77l-1.49,1.45C92.28,184.16,91.77,183.42,91.24,182.68Zm-26.66.75A8.07,8.07,0,0,1,66,186.72a1.64,1.64,0,0,1-.59.58c-.18,0-.35-.27-1-1.37-1.07-1.91-1.39-2.45-.83-2.68A1.27,1.27,0,0,1,64.58,183.43Zm-2.17.44a11.93,11.93,0,0,1,2.08,4.19,1,1,0,0,1-.22.58c-.9,1-.67.81-2-2-1.14-2.28-1.44-2.51-.68-2.77a1.55,1.55,0,0,1,.84,0Zm-2.16.75c.39,0,.5.66,1.27,2.16,1.29,2.86,1.77,3.25,1.48,3.56s-.57.77-.91.22c-.77-1.27-1.54-2.89-2.27-4.31-.58-1.05-.63-1.18-.26-1.44a1.34,1.34,0,0,1,.69-.19Zm23,.81c-.48.14-2.43.75-1.23.87.24,0,.85-.13,1.28-.16,1.2-.09,3.71.14,3.62-.09C86.67,185.18,83.89,185.26,83.23,185.43Zm-24.67.27s.32.6.63,1.14c1.83,3.55,2.85,4.85,2.52,5.41-.27.34-.68.76-.93.66s-.91-1.32-2.22-3.95-1.5-2.92-.8-3.28c.28-.13.63-.23.8,0ZM56.74,187c.84,1.37.73,1.19.72,5.66,0,2.78-.36,4.55-.83,5.23-.24.36-.67.15-.88-.55-.1-.32.18-.8.23-1.31.33-3.34.1-6.68.11-9.85C56.34,186.11,56.6,186.72,56.74,187ZM78.43,188a2.65,2.65,0,0,1,.3,1.77c0,1.07.07,1.15.8.61s.71-.51,1.87.28a1.71,1.71,0,0,0,2.12,0c.39-.37.53-.21,1.06-.07.58.33.74.38,2-.23.84-.37.88-.42,1.37-.16.88.77,1,.49.89-.52a7.26,7.26,0,0,1,.21-1.44c.43-1.81-.27-1.82-1.2-.68a1.63,1.63,0,0,1-1.93.28,7.69,7.69,0,0,0-4.05-.09,3,3,0,0,1-2.78-.67c-.34-.29-1.11-.55-1.2-.33s.09.57.56,1.24Zm-20,2.53c.18,0,.47.51.89,1.69.54,1.51-.41,6.78-1,7.64-.3.45-.49.73-1.11-.11-.24-.37-.05-.48.19-1.52a31.07,31.07,0,0,0,.7-5.31c0-1.54.09-2.34.31-2.39Zm1.89,5.11c.14,0,.29.31.51.91a6.64,6.64,0,0,1-.25,3.63,9.6,9.6,0,0,1-.84,2.1c-.13.36-.82.23-1-.56-.12-.5.29-1.11.49-1.91s.43-1.81.55-2.32C60,196.28,60.18,195.67,60.37,195.68ZM75.06,198h0s0,0,0,0,1.43,1.63,1.82,2.08c.21.17,2,2.32.88,1.83a7.52,7.52,0,0,0-8,1.34c-.25.24-.45,0-1.21-.06-1.55-.12-2.11.5-1.17,1.26.15.12.45.17.58.36s.09.48.16.57c3,4,8.53,4.76,12,2.16.44-.33.68-.44,1.09-.32.81.24.88-.44.17-1.39-.31-.42-.7-.89-.47-1,.44-.38.66-1-.11-1.24A2.49,2.49,0,0,1,79.33,202c-.35-1-3.76-3.93-4.28-4Zm-13.59,1.75c.65,0,.68,3.84,0,5-.37.44-1.21-.38-1.08-1.23a25.43,25.43,0,0,1,.94-3.69.28.28,0,0,1,.18-.09Zm13.26,2.41a3,3,0,0,1,1.89.77c.32.3.88,1.56.65,2.05-.07.25-.74.24-.8,0-.37-2.54-2.43-2.91-3.08-.54,0,0-.43.37-.48-.33.15-1.35.78-2,1.82-2Zm16.55.22a1.66,1.66,0,0,1,1.6,1,1.58,1.58,0,0,1,.16,1.12c-.07.16-.29.09-.29.09-1-2.87-2.46-1.55-3,0,0,0-.54.17-.61,0a1.35,1.35,0,0,1,.19-.94,2.2,2.2,0,0,1,1.92-1.32Zm-14,.17a2.37,2.37,0,0,1,1.47.76c.48.49.53.78.14,1.14-.23.22-1.06.43-1.22.06l-.7-1.64c-.07-.16.14-.31.31-.32Zm-5,.08c.41,0,.5.1-.15,1.61-.14.33-1.81-.14-1.49-.77A2.75,2.75,0,0,1,72.3,202.64Zm16.69.12a.45.45,0,0,1,.36.09,10.17,10.17,0,0,0-.78,1.66c-.59-.07-1.31,0-1.43-.48s.11-.74,1-1.06A3.11,3.11,0,0,1,89,202.76Zm4.88.41a.93.93,0,0,1,.69,1.05c-.06.21-.35.21-.57.05a1.71,1.71,0,0,1-.47-.9C93.59,203.1,93.67,203.1,93.87,203.17Zm-31.44,1.48c.2.37.55,2.44.14,2.39s-.59-.73-.66-1.29C61.9,205.63,62.25,204.66,62.43,204.65Zm6.95,1.11a3,3,0,0,1,1.33.52,10.32,10.32,0,0,0,7.05.7c1.42-.37,1.78-.58,2-.34.34.42-.2.83-2.2,1.51-2.2.74-4.49.62-7.49-1.51-.81-.57-.91-.85-.67-.88Zm25.1.57c.38.7-.89,1.36-1.53,1.55a6.64,6.64,0,0,1-4.61-.5l-.28-.19c-1-.71-.55-1.21.5-.67a6.43,6.43,0,0,0,4.69.11c.61-.3,1-.68,1.23-.3Zm-28.09,1.3c-.13,0,.08.35.53.83C70,212,77.4,213.84,81.55,210.24c1.3-1.22,1.1-1.77-1-.79a19.52,19.52,0,0,1-8.28.43,12.21,12.21,0,0,1-4.73-1.54c-.72-.53-1.09-.73-1.2-.71Zm21.34.11a3.17,3.17,0,0,1,1.24.46,7.3,7.3,0,0,0,4.21.07c1.64-.61,2,.16.42,1a4.68,4.68,0,0,1-5.52-.71c-.44-.39-.67-.87-.48-.91C87.62,207.66,87.7,207.73,87.73,207.74ZM67.21,213.9c6.09.56,15.29,7,18.88,14.26H84c-3.61-5.74-9.15-10.69-15.73-12.42-.26-.2-1.23-1.58-1.09-1.84Zm27.05,1.34-.28,2a32.73,32.73,0,0,0-7.54,8.82c-.58,0-.86-.72-.76-1.2,2.22-4.4,4.88-6.83,8.58-9.64Zm-24.63,1.58c1.4-.1,10.5,5.14,13.56,11.34H81.51c-3.44-4.51-7.27-7.78-10.67-9C70,218.33,69.11,216.86,69.63,216.82ZM94,218.22v2.72a24.9,24.9,0,0,0-5,7.22H87.26a4,4,0,0,1-.24-1.55,24.06,24.06,0,0,1,7-8.39Zm-13.82,9.94H78.53a20,20,0,0,0-5.32-5.3c-.77-1-1.63-2.14-1.29-2.34,0-.7,7.26,4.54,8.24,7.64ZM94,222.28l0,1.58c-1.1,1.42-2,2.94-2.92,4.3H89.67c1.27-2.76,4.46-6.62,4.35-5.88Zm-18.77,3.05c.5.14,2.34,2.24,2.28,2.83H76.7A17.92,17.92,0,0,1,75.36,226c-.21-.38-.34-.73-.11-.66Zm18.45.49h0l0,2.34h-1.4a4.66,4.66,0,0,1,1.41-2.34Z" transform="translate(0.1 0.1)"/><path id="path6313-8" d="M101.3,21.13l52.09,74.18,0-16.48L136.72,57.18a62.86,62.86,0,0,1,12.1-2.32c-4.69-10.45-7-20.27-5-33.73C129.24,21,114.58,21,101.3,21.13Zm41.68.35c-.41,4.75-.94,10-.09,15.93-2.71-1-3.34.7-3.79.88-.51-1.14-2.4-3.12-4.54-.8-1.11,1.21-.57,3.48,2,4.5-3,.23-4.49-2.3-5-4.92-1.6-1-3.28-2-3.44-5.64l.82.14a2.52,2.52,0,0,0,3.85,2.59c1-.76,1.09-1.92.7-3.74a2.64,2.64,0,0,0,2.15-3.32c-.67-3.3-4-2.91-5.59-.75-1.28-1.59-3.62-1.88-4.56.59-.53,1.37.67,2.92,2,3.22-3,.58-4.53-3.59-4.7-6.42l-1.25-2.22C129.71,21.47,133.28,21.48,143,21.48Zm-40.83.08h6l44.15,57.35.1,14.28Zm15.3,0h1A12.54,12.54,0,0,0,127,32.06c.26,4.12,2.24,9.72,9.76,11.61-.22,4.66,2.76,9.11,6,11.24a11.67,11.67,0,0,1-1.54.28c-4.28-3.41-5.34-8.44-5.77-10.51-.14-.3-.55-.38-.88-.45a13.27,13.27,0,0,1-8-8l-.79-3.63c0-.46-.1-.25-1.19-.65-2.83-1-5.45-4.12-6.62-7.79a5.59,5.59,0,0,1-.45-2.58Zm-3.89,0h3.38s0,.6.07,1c.46,3.62,3.7,8.15,7,9.66a7.92,7.92,0,0,1,1.27.65c.93,5.93,3.6,9.5,9.25,11.95.09.09.35.15.42.27.77,3.66,2.46,7.91,5.66,10.25l-1.38.14Zm16.55,6.23a1.39,1.39,0,1,1-1.39,1.39A1.39,1.39,0,0,1,130.11,27.8ZM83.33,35.4c.08.2-19,16.36-17.1,46.78l-.55.61.15.22c-.63.72-1.24,1.29-1.92,2a68.93,68.93,0,0,0,10.85,5.21l-1.32,3.06,8.23,2.66-1.1,2.91-8.1-2.7a72.78,72.78,0,0,0-2.73,8.06c-.08.22-.27.12-.56-.3-4.27-7.32-13-12.6-12.75-12.07L25.32,121.46l-.22,18.32,21.54,22.27a103.28,103.28,0,0,0-9.18,5.1c2.29,1.88,4.89,3.33,7.17,5.1,4.71,3.34,7.89,8.25,10.95,11.57A52.51,52.51,0,0,1,97,181.4c-1.46,1.54-3.09,2.88-4.59,4.55,3.64,9.6,2.48,28.66,2.29,29.18a63.3,63.3,0,0,0,17.37-47.95L115.3,164c-.06-.16-8-4.42-11.29-5.35l.92-2.92L97,153.22l.89-2.32,7.88,2.29c1.49-3.68,3.07-8.83,3.07-8.83a40.59,40.59,0,0,0,13.76,13.4l30.94-29.71-.2-19.1L132.28,87.8l8.77-4.58c-.84-.69-2.06-1.33-2.93-2-.06,0,.17-.19.11-.24-.22-.17-.38-.31-.6-.46,0,0-.21.19-.26.15a52.42,52.42,0,0,1-8.3-6.66c0-.06,0-.32,0-.38-1.21-1.31-2.43-2.52-3.66-3.81a19.33,19.33,0,0,1-1.53-2l0-.46-1.33-1.68c-4.28,2.54-22.55,8.91-40.22,1.86l3.36-3.37a25.69,25.69,0,0,1-1.71-6.56c-.92-7.94-.57-22.23-.57-22.23ZM139,39.89a1.47,1.47,0,1,1-1.46,1.47A1.47,1.47,0,0,1,139,39.89Zm4.58,1.75a67.18,67.18,0,0,0,4,12.54l-1.94.22c-1.59-1-3.26-2.54-3.44-4.68-4.28,0-5.54-6.71-4-5.91a2.55,2.55,0,0,0,3.06,3c1.39-.19,2.6-2.12.94-4.25C143,42.26,143.39,42.05,143.62,41.64ZM82.89,52.45A60.8,60.8,0,0,0,85,64.07l-8.47,8A43.9,43.9,0,0,1,82.89,52.45Zm40.61,15.4,1.08,1.55C112.34,76.61,91.46,77.12,78.73,71l1.69-1.62C91.61,74.49,109.83,74.87,123.5,67.85ZM44,70.25a6.86,6.86,0,0,0-4.16,1.61c-5.62-2.56-9.29,3.44-5.82,7.41-.51,2.86-.9,3.4,1.24,6.29-2.28.29-5.15-.31-7.6-.68.41,4.23,6.46,5.22,9,4.75a9,9,0,0,1,5.39.79c1.6.45,2.59,1.22,4.17,1.59,2.6.62,6.4-2.43,7-5.33,0-.39.17-.75,0-.8-1.78.45-3.73,1.09-5.46,1.47a10.26,10.26,0,0,0-4.26,1.85l-.11-3.5c8.8.42,5-8,4.47-8.34,1.64-3.31-.33-7.06-3.74-7.11Zm79.93.27,1.91,4.62-5.08,1.73-1.3-4.53Zm-80.29.14c3,0,5.66,3.19,2.79,6.72,5.56,4.93-1.57,10.21-5,6.54-4.52,4.16-9.32-.18-6.79-4.71-4.82-4.33,1.12-10.13,5.18-6.39A4.4,4.4,0,0,1,43.67,70.66Zm34.7,1.69a1.3,1.3,0,1,1-1.3,1.3A1.3,1.3,0,0,1,78.37,72.35Zm-33.11.1a.38.38,0,0,0-.26.12c-.15,0-.46.55-1.25,1.47-1.37,1.6-1.52,1.61-1.52,1.61a3.62,3.62,0,0,0-3.4.39,6.55,6.55,0,0,1-2.62-1.48c-.69-.58-1.06-.7-1.18-.39s.18.66,1.51,1.56c1.83,1.25,1.72,1.16,1.72,1.16a5,5,0,0,0,.48,2.83,13.14,13.14,0,0,1-1.63,2.49,3.84,3.84,0,0,0-.67,1.17c0,.67.58.22,1.91-1.47.52-.66,1.24-1.61,1.24-1.61a3.57,3.57,0,0,0,3.09-.13s.34.25,1.19.93c1.56,1.25,1.9,1.38,2.09,1.22s.23-.28-.36-.71a14.08,14.08,0,0,1-2.37-2,4.51,4.51,0,0,0-.42-3.29,6,6,0,0,1,1-1.29,9.61,9.61,0,0,0,1.67-2.29A.24.24,0,0,0,45.26,72.45Zm36,.28,4.58,1.43-1,4.77L80,77.35Zm33.12,1.17,1.28,4.66-4.76,1.27-.78-5Zm3.34.08a1.3,1.3,0,1,1-1.29,1.3A1.3,1.3,0,0,1,117.75,74Zm10.83.16,4,3.58L128.14,80,126,75.31Zm-37.74,1,4.65.55-.19,5L90,80Zm-16.14,0,5.18,2.28L78,82.74l-5.3-2.28ZM88,75.64a1.3,1.3,0,1,1-1.29,1.3A1.3,1.3,0,0,1,88,75.64Zm16.73,0,.64,5-4.83.3-.1-5.1Zm3.32.58a1.3,1.3,0,1,1-1.29,1.3A1.3,1.3,0,0,1,108.09,76.22Zm-67.2.47A1.34,1.34,0,1,1,39.55,78,1.33,1.33,0,0,1,40.89,76.69Zm57.16,0a1.3,1.3,0,1,1-1.29,1.3A1.3,1.3,0,0,1,98.05,76.64Zm22.74.32,1.88,5.16-5.27,1.7-1.5-5.29Zm3.7.14a1.3,1.3,0,1,1-1.3,1.3A1.3,1.3,0,0,1,124.49,77.1Zm9.12,1.46L137,81l-1.69.94C134.89,80.86,134.1,79.6,133.61,78.56ZM84.89,79l5,1.09-.77,5.29-5.49-1.09Zm-15,.29,2.68,1.26L70.83,85l-4.32-2.31Zm12,.29a1.3,1.3,0,1,1-1.3,1.3A1.3,1.3,0,0,1,81.87,79.61Zm29.06.29.9,5.29-5.68.8-.35-5.4Zm21.25.1a1.3,1.3,0,1,1-1.3,1.3A1.3,1.3,0,0,1,132.18,80Zm-4,0L130,84.7,124.48,87l-1.64-4.67ZM114,80.37a1.3,1.3,0,1,1-1.29,1.3A1.3,1.3,0,0,1,114,80.37Zm-18.75.53,5.32.1-.06,5.35-5.82-.17Zm42.5.37,2.09,1.46c-21.51,13.88-51.72,15.6-75.3,1.94L66,83.14C87.3,95.91,118.33,94.12,137.74,81.27Zm-45.38.61a1.3,1.3,0,1,1-1.29,1.3A1.3,1.3,0,0,1,92.36,81.88Zm10.91.29a1.3,1.3,0,1,1-1.29,1.3A1.3,1.3,0,0,1,103.27,82.17ZM78,82.89l5.55,1.61-1,4.39-6.08-1.75Zm-3.67,0a1.3,1.3,0,1,1-1.3,1.3A1.3,1.3,0,0,1,74.3,82.92Zm43.09.94,1.33,4.93-6.14,1.32-.74-4.86Zm3.53.71a1.3,1.3,0,1,1-1.3,1.3A1.3,1.3,0,0,1,120.92,84.57Zm-80.15.77V88.8c-1-.84-2.16-1.74-3.34-2.65a6.3,6.3,0,0,0,3.35-.81Zm-12.63.08a14.21,14.21,0,0,0,1.71.23c2.5,0,7.17.77,8.55,1.91a5.84,5.84,0,0,1,1.52,1.32c0,.29-.41.3-1-.07a15,15,0,0,0-5.66-1.73c-.46-.06-.52,0-.52.18s.43.43,1.78.65a14.8,14.8,0,0,1,2.52.57c1,.29.38.67-.7.77-4.38.41-7.66-1.48-8.32-3.64-.05-.14,0-.19.13-.19Zm61,.08,5.51.72-.25,4.62-6-.69Zm-46.86.4c1,.76.3,3.06-.22,3.74-.34.38-1.13.18-1.13-.36s0-2.77.05-3.47a1.29,1.29,0,0,1,1.3.09Zm63.85.21.29,4.77-6,.27,0-4.68Zm-20.28.32a1.3,1.3,0,1,1-1.29,1.3A1.3,1.3,0,0,1,85.86,86.43Zm-33.49.06c.22,3.51-5.14,5.88-7.14,4.81-.89-.48-.52-.77,1.24-1.13,2.28-.6,3.78-1.19,3.78-1.62,0-.26-.35-.23-1.28.12-1.42.48-2.91.68-4.28,1.3-1,.46-1.41.63-1.64.35-.48-.59,1.78-2.07,4.14-2.46,1.76-.29,3.54-1.24,5.18-1.37Zm57.09.44a1.3,1.3,0,1,1-1.29,1.3A1.3,1.3,0,0,1,109.46,86.93Zm-12,.95a1.3,1.3,0,1,1-1.29,1.3A1.3,1.3,0,0,1,97.41,87.88Zm28.87,2.21c8.67,8.29,18.17,17.83,26,25.68l0,12.32-29.94,28.56a38.91,38.91,0,0,1-14.23-14.85,10.73,10.73,0,0,0,1.26-1.13l-1.57.94c-5.52-8.87-7.86-26.53,1.52-40.69l-9.48.35L101.37,98l10.32-.57L115.86,93s1.32-.25,2.42-.5,3.3-.89,4.93-1.42,3-1,3.07-1Zm-70,2.3A37.56,37.56,0,0,1,70.15,107c-16,13.81-22,29.89-23.38,46.63-8.71-8.17-13.1-12.69-21-20.63l.29-11.84Zm33.64,1.54a124.76,124.76,0,0,0-6.06,16.18l-2.48-.74a24.77,24.77,0,0,0,2.31-1.1l-1.28-2.08,2.44-1-1.45-1.76L85.89,102l-1.24-1.56,2.27-1.14-1.41-1.62,2.38-1.33-1.24-1.56Zm.76,0,.69.14c.09,0-.44,1.3-.38,1.34.86.18.91.13,1.17.21l.66-1.37,1.08.21a90.45,90.45,0,0,0-5.86,16.23l-1.28-.27s.38-1.23.38-1.4c-.15,0-.87-.33-1.09-.42-.08.19-.54,1.62-.54,1.62l-1,0a77.68,77.68,0,0,1,6.18-16.26Zm4.15.19L97.11,96l-2.57,1,1.33,1.77-2.72,1,1.56,1.85-2.7,1,1.61,2.23-2.8,1,1.77,2L90.06,109l1.51,1.5S90,111,89.9,111a5.94,5.94,0,0,1-1.31-.2,88.56,88.56,0,0,1,6.25-16.68Zm-55.06,1c-.63.4-.27,1.29-1.05,2-.13.13-.14.45-.19.72s-.66,2.68-.66,2.68a3.37,3.37,0,0,0,.41-1c.21-.67.39-2,.51-2.16.58-.18.66-2.07,1.25-1.81.34.15.27.45.08,1.18-.41,1.45-.58,2.06.14,1.07,1.07-1.29,1.17-2.46,0-2.7a3,3,0,0,0-.46,0ZM56,95.62,28,122l-.09,9.84,9.74,9.9,6.91,6.72C47.05,133.4,52.8,119,67,106.6a33.9,33.9,0,0,0-11-11Zm75.4.28c-16.43,7.75-20.21,23.65-15.12,38C124.06,123.84,130.21,114.34,131.35,95.9Zm-58.5.8,7.47,2.41-2.81,9.62-6.72-2L70.1,105Zm57.68.25a59.74,59.74,0,0,1-14,35.3A28.16,28.16,0,0,1,130.53,97ZM90.32,97l-.47,1.2,1,.29.44-1.21Zm-1,2.83-.42,1.21,1.06.36.39-1.23Zm44,.22c-2.3,17.84-11.9,34.09-22,42.36a39.34,39.34,0,0,0,10.9,11.48l28.59-27.49-.12-9.16ZM57.78,104.8c-.17.66-.24,1-.24,1a6.28,6.28,0,0,1,1.2-.78c5.62-2.82,3.81,1.46,1.16,3-.59.32-1.2.69-1.2.69s.56.13,1.17.25c3.41.71,2.68,2.71-.87,2.4-.53,0-1.14-.15-1.14-.12a13.47,13.47,0,0,0,.45,1.4c1.2,3-1,3.27-2.5,1.34-.21-.27-.67-1-.67-1s-.15.56-.24,1.11c-1.27,4.74-4.4,4.62-3.23-.19.15-.5.32-1.39.32-1.39s-.7.42-1.47.77c-4.06,1.82-4.72-.06-1-2.79,1-.78,1.41-1.09,1.41-1.09a11,11,0,0,1-1.79-.28c-2.94-.74-3.73-2.51,1-2.43l1.4.06s-.23-1-.48-1.77c-1.13-3.55,1.16-4,3.09-.8.41.68.53.68.53.68a7,7,0,0,1,.59-2.32c2.34-4.35,3.26-.38,2.55,2.24Zm50.56-3.52a39.44,39.44,0,0,0-4.49,10.56l-7.64-.13a41.37,41.37,0,0,1,3.49-10.06C102.81,101.57,105.61,101.43,108.34,101.28Zm-20.17,1.55-.44,1.28,1.11.34.4-1.25Zm-57.12,2.4a47.1,47.1,0,0,0-1.54,6.42c-.19,1.1,0,1.56.66,1.81a2.81,2.81,0,0,0,3-1.22c.43-.61.74-1.88.8-4.11l.08-2a19.17,19.17,0,0,1-3.05-.9Zm56.09.28-.37,1.18,1.07.39.41-1.18Zm49.47.44a4.13,4.13,0,0,1,2.72.85l2.27,2.34a3.14,3.14,0,0,0,2.16,5.41,5.49,5.49,0,0,0,2.2-.9l3.6,3.74c-2.1.92-4.15-1.2-4.93-2a1,1,0,0,1-.22-.33,1.46,1.46,0,0,1,0,.52c-.3,1.66-1.94,6.58-3.5,6.32-1.76-.3,0-7.33,0-7.16-1.21,1.28-7.12,2.65-6.7,1.22.82-2.86,5.23-4,5.82-4.45-2.35-1.42-5.33-5.35-3.42-5.52ZM31.34,106a5.58,5.58,0,0,1,1.77.36c.23.06.25.26.27.45,0,.84.22,3.31-.56,3.34a3.62,3.62,0,0,0-2.25.6c-.45.35-.6.1-.48-.8s.55-2.7.74-3.44A.53.53,0,0,1,31.34,106Zm23.34,0a3.15,3.15,0,1,0,3.13,3.15A3.14,3.14,0,0,0,54.68,106.07Zm0,1.1a2,2,0,1,1-2,2A2,2,0,0,1,54.68,107.17Zm16.15,0c7.18,12.44,6.35,29.5-2.11,41.92l9.09-.64-1.19,2.34-9.7.94c-1.48,1.37-2.83,2.92-4.29,4.38v.51a87.06,87.06,0,0,0-10,2.9c-1.79-1.77-5.16-5.29-5.13-5.38l.21-1.14c23.06-11.81,16.32-35.5,14.69-37.45a70.73,70.73,0,0,1,8.48-8.38Zm64,2.26a1.7,1.7,0,1,1-1.69,1.7A1.7,1.7,0,0,1,134.84,109.47Zm7.52.46,2.83,2.93a2,2,0,1,1-2.83-2.93ZM45,110.29a1.7,1.7,0,1,1-1.69,1.7A1.7,1.7,0,0,1,45,110.29ZM32.43,111c.8.26.61,1-.41,1.66a1.74,1.74,0,0,1-1.85.2C29.06,112.28,31.35,110.62,32.43,111Zm13.08,4.15-10.19,9.9a14.3,14.3,0,0,0,.71-4.93c3.07.32,4.35-1.24,3.9-4.46a18.17,18.17,0,0,0,5.58-.51Zm16.33,1.13c4.72,13.53.62,27.84-14.16,36.13C48.29,139.46,53.71,127.07,61.84,116.29Zm13.46,1.19a107.92,107.92,0,0,0,26.93,3.13,63.76,63.76,0,0,0,1,11.27,100.38,100.38,0,0,0-27.25-3c.42-3.87-.25-8.26-.67-11.43Zm60.14,2-8.64,10.13.37-5.53c2.91.37,3.94-1.17,3.51-4.21A15.05,15.05,0,0,0,135.44,119.48ZM51.52,120l-.69,4c-1.72,0-3.41.66-3.39,4.52l-5.15-.06Zm95,.75a1.7,1.7,0,1,1-1.69,1.69A1.69,1.69,0,0,1,146.57,120.79Zm-102.89.51A1.7,1.7,0,1,1,42,123,1.7,1.7,0,0,1,43.68,121.3ZM142.79,123l-.9,6.13c-2.35-.21-4.32.16-3.71,4.31a40.86,40.86,0,0,0-6.61.44Zm-8.43,1.11a1.7,1.7,0,1,1-1.69,1.7A1.69,1.69,0,0,1,134.36,124.15ZM31.28,125.47a1.7,1.7,0,1,1-1.69,1.7A1.7,1.7,0,0,1,31.28,125.47Zm5.61,2c2.16.48,1.16,5.54.68,6.91,0,0,6-3.19,6.38-1.76.24,2.85-5,4.84-5,4.84s3.55,3.09,3.65,5c0,1.25-1.48,1-3.42-.57-.83-.82-1.47-1.43-2-2a3.15,3.15,0,0,0-2.05-5.52,3.09,3.09,0,0,0-2.38,1.11l-1.64-1.59c-1.12-1.05-1.91-1.88-1.79-2.26,1.47-1,4.41,1.76,4.67,2C33.72,133.15,35.34,127.77,36.89,127.48Zm-3,6.21s0,.05.05.05Zm92.1-2.27c1,0,1,2.34.59,3.56-.25.93-.49,1.69-.49,1.69a10.1,10.1,0,0,1,1.25-.86c2.79-1.31,3.84.17,2.43,1.9-.68.89-1.61,1.08-2.36,1.83a7.3,7.3,0,0,1,3.22.83c.72.43,1.28,1,1.28,1.28,0,.73-1.78,1.12-3.44.93a9.86,9.86,0,0,1-2-.37,12.6,12.6,0,0,1,.75,1.49c.62,1.73.4,3.75-.49,3.75-1.5-.4-2.24-2.08-2.82-3.28a9.09,9.09,0,0,1-2,3.77c-1.07,1-1.61.17-1.56-1.51a22.36,22.36,0,0,1,.51-2.65c-6.3,2.14-5.83-.75-.91-3.28-3-1.45-4.87-2.75.28-3.05-.14-.12-1-2.89-.07-3.54s2.8,1.47,2.89,1.57a7.16,7.16,0,0,1,1.41-2.95c.69-.79,1.2-1.1,1.58-1.11Zm-5.81,6s0,0,0,0Zm27.58-1.83c-1.1.1-1.78,1.08-2.29,1.93-.1.17-.29.24-.36.46a29,29,0,0,0-1.1,5.42,5.65,5.65,0,0,0,3,.51c.19-.08.13-.58.2-.75a19.25,19.25,0,0,0,1.63-6.1C148.85,136.06,148.5,135.56,147.81,135.62ZM35.09,135.5a2,2,0,0,1,1.26,3.64c-1.31-1.31-2-2-2.86-2.87A2,2,0,0,1,35.09,135.5Zm113.1,1c.28.67-.6,1.4-1.75,1.39-.68,0-.9.1-.6-.5s1.83-2.17,2.35-.89ZM132.85,136a1.7,1.7,0,1,1-1.7,1.69A1.69,1.69,0,0,1,132.85,136Zm-89.23.12a1.7,1.7,0,1,1-1.69,1.69A1.69,1.69,0,0,1,43.62,136.12Zm80,.68a3.15,3.15,0,1,0,3.13,3.15A3.14,3.14,0,0,0,123.64,136.8Zm-41.84.43a51.62,51.62,0,0,1-3.69,10.5c-3,.19-6.28.33-8.43.63,3.58-6.3,3.67-7.78,5-11.11Zm5.19.51c.84.1,1.77.23,2.61.39a98.78,98.78,0,0,1-6.21,16.41l-1.59-.25-.76-.94,2.53-1-2-2,3.27-1-2-2,3.23-.81-1.73-2.11,2.89-1.13-1.83-2.38,3.08-.85Zm36.65.16a2,2,0,1,1-2,2A2,2,0,0,1,123.64,137.9Zm-33.46.31,1.07.18-.33,1.15,1.23.27.39-1.25a6.6,6.6,0,0,1,1.1.17,141.83,141.83,0,0,1-5.89,16.19l-1.17-.17.31-1.11-1.09-.16h0l-.52,1.21-1.16-.1a114.25,114.25,0,0,0,6.06-16.37Zm57.15.42c.86,0,.81.44.18,2.08s-.8,2.14-1.09,2.34c-.68.49-2.14.08-2-.63.38-2.29.52-3.26,1.11-3.57A8.7,8.7,0,0,1,147.33,138.63Zm-52.83.19,2.81.55L95,140.77l1.49,1.75-2.88,1.23,1.75,1.82-2.78,1.14,1.69,2-2.89,1.23,2,1.71-3.25,1,1.23,1.89-1.22.69L88.56,155c2.5-5.86,4.11-10.68,5.94-16.2Zm6.9,1.4,5.5,1.5,1.1,2-2.58,8.75-7.33-2.16Zm-10.93.85L90,142.5l1.21.25.47-1.48Zm-1.06,3.29-.52,1.44L90,146l.54-1.45Zm-1.07,2.9-.54,1.43,1.11.23.53-1.43ZM140,149.89a6.45,6.45,0,0,0-.71.59c.12.33.47.83.42,1.16s-.32.45-.74.89c-1,1.21-1.4,1.08-.8-.21a4.32,4.32,0,0,0,.29-.78,7.36,7.36,0,0,0-.58,1.05l-.66,1.28a5.41,5.41,0,0,1,1.52,1s.22-.58.37-1.14a2,2,0,0,1,1.12-1.37,3.17,3.17,0,0,0,.63-.48,5,5,0,0,1-.86-2Zm-52.81.35-.56,1.52,1.1.27.61-1.55ZM25,154.07c-.1,6.05.1,10-.11,16.57l16.34,21.25-2.55.86s0,.3-.17.34c-3.49,1-9.15,1.92-9.15,1.92,4.21,9.65,6.94,21.72,5.06,33.78l42.28-.11Zm89.43,10.26L113,165.8c-21.5-11.68-51.12-11.64-72.73,2.5L38.46,167c23.58-15.17,52.6-15.08,75.95-2.68Zm-88.64-8.14L75.54,228,69.7,228,25.82,170.42Zm106.81,1.3s-1.44.37-2.65.76c-3.46,1.11-5.08,3.12-4.76,5.91.1.82.31.81,1.72-.09,3.3-2.09,3.5-2.18,7.61-3.39a2.26,2.26,0,0,1,.78,0l-.18,3.26c-6.85,0-6.48,5.43-4.51,8.27-.69,1.31-2.19,5.89,2.77,7.63a6.4,6.4,0,0,0,5-1.63c4.57,2.17,9.87-1.46,5.74-7.76,1.55-2.75.46-4.79-1-6.55,0,0,.26,0,2.42.43a20.58,20.58,0,0,0,4.53.5c0-3-2.44-4.29-7.54-4.69C138.89,160.63,132.58,157.46,132.58,157.49Zm-55.1.34h.74L78,162.9l-5.55.25-.37-5c1.92-.13,3.7-.27,5.42-.28Zm6.66.13,6,.72-.9,4.74-5.49-.6Zm48.33,0c.49.06.33.63-.34.77-1.07.21-3.82,1.81-3.82,2.23s.13.23,1.14-.31a25.08,25.08,0,0,1,2.33-1c.77-.29,1.66-.65,2-.79.93-.42,1.38-.13,1.05.66-.22.53-.31.57-2.45,1.25a11.08,11.08,0,0,0-3.52,1.57c-.46.29-1.27.76-1.81,1-1.27.66-1.52.66-1.52-.22-.07-2.63,2.82-4.59,6.74-5.16a1,1,0,0,1,.23,0Zm-51.57.62A1.35,1.35,0,1,1,79.55,160,1.34,1.34,0,0,1,80.9,158.63ZM66.15,159l.45,4.6L61.13,165l-1.25-4.75c2.09-.51,4.18-.87,6.27-1.26Zm70.39.35c1.49.23,1.37,3.68.61,4.27-1.18.85-1.9-.93-1.38-3.29.15-.71.42-1,.77-1Zm-67.29.19a1.36,1.36,0,1,1-1.35,1.35A1.35,1.35,0,0,1,69.25,159.52Zm26.69.39,6.18,1.7-1.51,4.79-5.8-1.63Zm-3.36.1a1.36,1.36,0,1,1-1.35,1.35A1.34,1.34,0,0,1,92.58,160Zm50.53.4c2.66,0,6.17,1.37,6.18,3.43-.06.59-5.58-.19-8.13-1.22-.9-.37-2-1.48-2-1.94,0-.28.54-.26.76,0,.36.44,1.63.89,4.55,1.63,2.24.57,2.46.59,2.47.25s-1.33-.74-2.77-1a22.16,22.16,0,0,0-2.5-.43c-.52,0-.65-.33-.21-.55a5.57,5.57,0,0,1,1.65-.2Zm-4.7,1.07c.67.31.91.94,1.28,1.27a3,3,0,0,1-1.41.5,4.89,4.89,0,0,1,.13-1.77Zm-80.89.37a1.36,1.36,0,1,1-1.35,1.35A1.36,1.36,0,0,1,57.52,161.85Zm-3.63.38,1.45,4.69-5.22,2.28-1.85-4.65A47.25,47.25,0,0,1,53.89,162.23ZM78,163s4.16,0,5.59,0l-.33,5.3-5.19,0Zm-5.56.29.29,5.29-5,.67-1-5.32Zm31.6.05a1.35,1.35,0,1,1-1.35,1.35A1.35,1.35,0,0,1,104.07,163.34Zm36.15.12c3,0,5.95,3.53,2.94,7.21,4.93,3.8-.43,10.2-4.79,6.47-6.23,6.15-9.71-2.19-7.14-4.41-3.8-6.28.88-10.25,5.7-7.48A3.91,3.91,0,0,1,140.22,163.46Zm-50.93.15,5.48,1.22-1.1,5.23L88.32,169Zm18.15.13,5,2.5L108.56,170l-2.89-1.44Zm-32.14.59A1.36,1.36,0,1,1,74,165.68,1.36,1.36,0,0,1,75.3,164.33Zm10.83.17a1.36,1.36,0,0,1,0,2.71,1.36,1.36,0,0,1,0-2.71Zm-25,.76,1.23,5.23-5.08,1.72-1.82-5.09Zm3.49.37A1.36,1.36,0,1,1,63.3,167,1.35,1.35,0,0,1,64.65,165.63Zm75.17,2.42c-.38.47-.88,1-.88,1a3.49,3.49,0,0,0-3.31.25L134,168c-1.37-1.12-1.83-1.37-1.84-.9a5.14,5.14,0,0,0,1,1.06A11.06,11.06,0,0,1,135,170a3.27,3.27,0,0,0,.35,3.17s0,.14-.52.71c-1,1.05-2,2.67-1.77,2.91s1.12-.41,2.15-1.82c.74-1,1-1,1-1,1.26.34,2,.65,3.22-.39a5,5,0,0,1,1.43.93c1.48,1.23,2,1.49,2.17,1.08S143,175,141.71,174c-.82-.62-1.72-1.35-1.72-1.35a3.14,3.14,0,0,0-.46-3.08s0,.07,1.38-1.68c.9-1.17,1.06-1.32.76-1.57-.4-.52-1.72,1.56-1.85,1.73Zm-39.16-1.5,4.94,2.08-1.76,5.19-4.78-1.95Zm-54.43.35a1.35,1.35,0,1,1-1.35,1.35A1.35,1.35,0,0,1,46.23,166.9Zm50.6.14a1.35,1.35,0,1,1-1.35,1.35A1.34,1.34,0,0,1,96.83,167Zm-54.06.37,1.62,4-3.68-2.75Zm40.6,1,4.93.59-.78,4.71-4.25-.38Zm-5.38,0,0,4.84-4.68.2-.4-4.84Zm-24.08.88a1.36,1.36,0,1,1-1.35,1.35A1.35,1.35,0,0,1,53.91,169.34Zm-3.74.09,1.91,4.87-2.95,1.44-4-3.77Zm17.62.07.76,4.63-4.88,1.21-1.18-4.71Zm69.77,0a1.94,1.94,0,1,1-1.92,1.93A1.94,1.94,0,0,1,137.56,169.54Zm-57.11.15A1.36,1.36,0,1,1,79.1,171,1.36,1.36,0,0,1,80.45,169.69Zm13.29.5L99,171.88l-1.75,4.18-4.5-1.22Zm-23.07.17a1.36,1.36,0,1,1-1.35,1.36A1.35,1.35,0,0,1,70.67,170.36Zm19.79.5a1.36,1.36,0,1,1-1.35,1.36A1.35,1.35,0,0,1,90.46,170.86Zm-33,1.59,1.79,4.14-4.89,2.13-2.13-4.23Zm3.47.25a1.36,1.36,0,0,1,0,2.71,1.36,1.36,0,0,1,0-2.71Zm18,1.25A55.09,55.09,0,0,1,100,178l-1.73,1.63c-18.9-6.52-31.25-3.58-43.93,2l-1.28-1.59A58.43,58.43,0,0,1,78.92,174Zm21.38.05A1.36,1.36,0,1,1,99,175.35,1.35,1.35,0,0,1,100.3,174Zm-49.24,3c1.08.06,1.18,2.1.68,1.51l-1.21-1.4A1.1,1.1,0,0,1,51.06,177Zm50.51.84c0,1.54-1.49,11.86-6.4,19A50.31,50.31,0,0,0,93.05,186s5.28-4.89,8.52-8.21ZM38.84,193.45,64.36,228l-2.68,0a16.79,16.79,0,0,0-3-7.07A12,12,0,0,0,54,217.08c-1.39-.64-1.57-.5-1.66-1.58-.42-6-5.29-9.84-9-11.28A14,14,0,0,0,37.15,194Zm-2.48.83c2.33,1.61,4.88,3,6.26,9.34.1,1.33.19,1.19,1.22,1.58,4.07,1.19,7.61,6.1,7.92,10.39,0,1.29.42,1.41,2,2.08a12.61,12.61,0,0,1,5.12,4.27,14.26,14.26,0,0,1,2.16,6H59.64c-1-6.32-5-8.84-9.15-10,.33-8.92-6.58-11.71-9-12.12.14-6.43-4-9.08-6.68-11.24a8.47,8.47,0,0,1,1.54-.3Zm-4.13.88c2.09.69,3.67,3.61,3.51,5,2.75.35,5.64,3,5,5.8a.68.68,0,0,1-.85-.18c.74-5.39-7.29-2.72-4.08,1.18l-1.43.94a67.55,67.55,0,0,0-4.12-12.36C30.83,195.34,32.23,195.16,32.23,195.16Zm6.65,11.32a1.3,1.3,0,1,1-1.3,1.3A1.29,1.29,0,0,1,38.88,206.48Zm6.89,5.83a5.57,5.57,0,0,1,4,5.12l-.67,0c-1.08-4.93-6.69-2.25-4.35,1.69-3,1.11-2.76,3.88-1.87,5a3.19,3.19,0,0,0,5.26-.86c2.92,3.78,6.93-.47,3.39-4,2.9,1.07,3.37,5,2.93,6.2A5.94,5.94,0,0,1,57.11,228H35.36s1-8.81-.07-15.46c1.45.34,2.42.7,4.09-1.27,2.69,2.24,4.63.55,4.49-1.38a3.62,3.62,0,0,0-2.06-2.74c2.36-.58,4.14,3.51,4,5.13Zm2.43,6.21a1.34,1.34,0,1,1-1.33,1.33A1.33,1.33,0,0,1,48.2,218.52Z" transform="translate(0.1 0.1)"/><path id="path7198-0" class="cls-3" d="M14.45,56.2a45.25,45.25,0,0,0-5.8-8,44.81,44.81,0,0,0,5.8-8,44.76,44.76,0,0,0,5.79,8A45.2,45.2,0,0,0,14.45,56.2Z" transform="translate(0.1 0.1)"/><path id="path7202-9" class="cls-3" d="M164.14,209.2a44.81,44.81,0,0,0-5.8-8,45.25,45.25,0,0,0,5.8-8,45.2,45.2,0,0,0,5.79,8A44.76,44.76,0,0,0,164.14,209.2Z" transform="translate(0.1 0.1)"/><path id="path7204-2" class="cls-3" d="M48.25,64.75c-4.13-6.83-8.48-13.47-13.91-19.14,5.43-5.67,9.78-12.31,13.91-19.14,4.13,6.83,8.47,13.47,13.9,19.14C56.72,51.28,52.38,57.92,48.25,64.75Z" transform="translate(0.1 0.1)"/><path id="path7222-2" class="cls-3" d="M130.34,223c-4.14-6.83-8.48-13.47-13.91-19.14,5.43-5.67,9.77-12.31,13.91-19.14,4.13,6.83,8.47,13.47,13.9,19.14C138.81,209.52,134.47,216.16,130.34,223Z" transform="translate(0.1 0.1)"/><path id="path37-2-1-6-5" class="cls-3" d="M8.66,29H6.46V26h2.2s0-1.61.08-4.46c.13-6.08.28-7,2-8.69,3.47-3.3,9.28-.61,9.21,4.36-.1,7,0,13.69-.23,14.64-.37,1.67-.4,1.76-.26,2.07.31.61,2.93.87,2.93.7v3A5.48,5.48,0,0,1,18,36.44a6.6,6.6,0,0,1-6.47.79C9.68,36.36,8.28,34.12,8.66,29Zm7.42,5.24c-1.09-1.58-2.92-3.73-4.64-4.49-.11,1.81.05,3.33.68,4.14a2.53,2.53,0,0,0,4,.35ZM17,17c-.8-2.3-2.88-3.07-4.4-1.64-.94.89-1.1,1.83-1.12,6.93,0,3.15,0,4.47,0,4.47,3,1,5.71,4.4,5.69,4.36l.07-9.51A26.24,26.24,0,0,0,17,17Z" transform="translate(0.1 0.1)"/><path id="path37-3-27-1-5" class="cls-3" d="M169.93,220.41h2.19v3h-2.19s0,1.61-.08,4.46c-.14,6.08-.29,7-2,8.69-3.47,3.3-9.27.61-9.21-4.36.1-7,0-13.69.24-14.64.36-1.67.4-1.76.25-2.07-.31-.61-2.93-.87-2.93-.7v-3a5.46,5.46,0,0,1,4.44,1.18,6.58,6.58,0,0,1,6.47-.79c1.85.87,3.24,3.11,2.87,8.19Zm-7.43-5.24c1.09,1.58,2.92,3.73,4.65,4.49.1-1.81-.05-3.33-.69-4.14a2.53,2.53,0,0,0-4-.35Zm-.9,17.32c.81,2.3,2.88,3.07,4.4,1.64.95-.89,1.1-1.83,1.12-6.93,0-3.15,0-4.47,0-4.47-2.95-1-5.71-4.4-5.69-4.36l-.07,9.51a26.24,26.24,0,0,0,.23,4.61Z" transform="translate(0.1 0.1)"/></g></g></svg>