<svg id="svg4946" xmlns="http://www.w3.org/2000/svg" viewBox="0 0 178.78 249.65"><defs><style>.cls-1{fill:#fff;stroke:#000;stroke-width:1px;}.cls-2{fill:#e2cf00;}.cls-3{fill:#131f67;}.cls-4{fill:#d40000;}</style></defs><title>12SPADE</title><g id="layer1"><g id="g6503"><rect id="rect7399-8-3" class="cls-1" x="0.5" y="0.5" width="177.79" height="248.65" rx="8.5"/><path id="path7431-0-1" d="M14.11,40.25C10.68,44.62,7,47.14,6.94,50.55a3.32,3.32,0,0,0,2.75,3.34A2.85,2.85,0,0,0,13,51.14c0-.39.47-.38.46.16a10.37,10.37,0,0,1-1.56,4.9h4.5a10.37,10.37,0,0,1-1.56-4.9c0-.54.47-.55.47-.16a2.85,2.85,0,0,0,3.27,2.75,3.32,3.32,0,0,0,2.74-3.34C21.22,47.14,17.54,44.62,14.11,40.25Z" transform="translate(0.1 0.1)"/><path id="path7435-3-6" d="M164.47,209.2c-3.43-4.37-7.1-6.89-7.17-10.3a3.32,3.32,0,0,1,2.75-3.34,2.85,2.85,0,0,1,3.27,2.75c0,.39.47.38.46-.16a10.34,10.34,0,0,0-1.56-4.9h4.5a10.45,10.45,0,0,0-1.56,4.9c0,.54.47.55.47.16a2.85,2.85,0,0,1,3.27-2.75,3.32,3.32,0,0,1,2.74,3.34c-.06,3.41-3.73,5.93-7.17,10.3Z" transform="translate(0.1 0.1)"/><path id="path37-0-2-9" d="M8.32,29H6.12V26h2.2s0-1.61.08-4.46c.14-6.08.29-7,2-8.69,3.47-3.31,9.28-.61,9.21,4.36-.1,7,0,13.69-.23,14.64-.36,1.67-.4,1.76-.25,2.07.3.61,2.93.87,2.93.7v3a5.46,5.46,0,0,1-4.44-1.18,6.62,6.62,0,0,1-6.48.79C9.34,36.36,7.94,34.12,8.32,29Zm7.42,5.23c-1.08-1.57-2.92-3.72-4.64-4.48-.11,1.81.05,3.33.68,4.14a2.53,2.53,0,0,0,4,.34ZM16.65,17c-.81-2.3-2.89-3.07-4.4-1.64-.95.89-1.1,1.83-1.12,6.93,0,3.15,0,4.47,0,4.47,3,1,5.71,4.4,5.68,4.36l.08-9.51A27.24,27.24,0,0,0,16.65,17Z" transform="translate(0.1 0.1)"/><path id="path37-0-5-5-3" d="M170.26,220.41h2.2v3h-2.2s0,1.61-.08,4.46c-.14,6.08-.29,7-2,8.69-3.47,3.3-9.28.61-9.21-4.36.1-7,0-13.69.23-14.64.36-1.67.4-1.76.25-2.07-.3-.61-2.92-.87-2.92-.7v-3a5.48,5.48,0,0,1,4.44,1.18,6.57,6.57,0,0,1,6.47-.79c1.84.87,3.24,3.11,2.86,8.19Zm-7.42-5.24c1.08,1.58,2.92,3.73,4.64,4.49.11-1.81,0-3.33-.68-4.14a2.53,2.53,0,0,0-4-.35Zm-.91,17.32c.81,2.29,2.89,3.07,4.4,1.64.95-.89,1.1-1.83,1.12-6.93,0-3.15,0-4.47,0-4.47-3-1-5.72-4.4-5.69-4.36l-.08,9.51a27.24,27.24,0,0,0,.23,4.61Z" transform="translate(0.1 0.1)"/><path id="path4075-4-3-9" class="cls-2" d="M81.7,228.6l18.69-34.16a92.91,92.91,0,0,0,9.74,3.14c-5.07,13.24,0,30.71,0,30.71S81.68,228.57,81.7,228.6ZM30.46,170.27c-1.06-14.51.62-26.81,1.29-40.13.05-.19-6.07-4-6.07-4L40.05,118c1.44.75,2.26.62,2.6-.76-1.45-4.94-1.74-9.73,1.58-13.82,2.49-3,8.17-1.45,9.83-1.46,1.28,0,4.34-10.21-.83-13.22-1.1-.63-1.62,6-2.37,8.73-3.33-2-9.49-3.6-10.31-7-.42-1.9,5.63-5.57,4.44-7.72-1.73-3.14-6.2-7.82-8.11-6.53-1.81,1.63-6.13,5-6.1,7.27,1.35,4.11,4.78,4.4,6.58,8.28a51.15,51.15,0,0,0,3.75,4.37c-1.24,1.91.77,5.24.87,4.73L26.29,94s3.6,27.13-.2,31.14c-.4.43,3.36-1.06,3.43-.83,1.14,1.45,13.8,9.53,17.43,12.43,6.44-9,8.79-13,17.08-21,1.83-1.51,5.89-4.27,8.21-7.58a11.7,11.7,0,0,0,2.3-8c-.43-3-.7-5.07-2.55-7.47-4.28-5.54-11.08-10.82-11-10.92l2.32-1.89S71.74,86.9,75.3,92c2.39,3.44,1.32,7.4,3.38,8.11.5.17,3.89-.12,5,.1.14,0,24.69,17.4,20.24,18.4-6.16,1.39-16,.49-16,.49-7-6.87-10.4-9.13-14.58-7,0,0-10.6,9.3-16.72,16.58-3.48,4.14-9,12.82-9,12.82-.41-.19-12.54-9.8-12-8.72,0,0,2.91,26.34,1.61,36-.89,8.18-2.1,17-2.65,24.53,1.73-.38,4.26-.87,4.74,1.77.43,3.59-4.19,2.76-4.3,2.45,0,0,2.58,5.54,2.58,5.54s-4,6.92-3.89,6.62-3.63-6.14-3.63-6.14,2.75-5,3.16-6c.28-.7-4.21,1.82-4.38-1.83s4.68-2.85,4.43-2.38c-.6-8-1.95-16.32-2.8-23.08Zm60.12,18c.11-.08-10.61-4.31-20.46-3.91-3.47-1.36-9.13-2.78-12.9-.25A139.72,139.72,0,0,1,45.57,175c1,0,5.54-25.85,7.51-34-1.14-10.91,9.34-10.9,10.25-2.17,11.3,11.71,25.12,23.82,39.37,35.73-2.26,4.72-10.45,8.31-12.12,13.81Zm24.69-77.17C102.4,98,75.45,74.46,75.45,74.46L88.07,62.12c6.62,2,13.42,3.63,21.11,3.71,0,0,8.43,3.83,12.9,0l11.65,9.25s-4.83,25.46-7.67,34.35c.06,3.52-1.27,7.81-4.73,8.45-3,.54-5.24-3.67-6.06-6.72Zm26-30.49c1.34-8.27,1.62-14.3,2.55-24-5.81,1.71-5.73-6.14,0-4.07l-2.65-5.85,3.92-6.58,3.59,6.25L145.59,52c6.43.32,4.88,6.31-.66,4.86,1,9.25,3.34,18.6,3.23,27.74,2,14.67-2.45,35.08-1.71,35.57l6.27,4.32-1.07,31.92-9.91-4.35-2.94,2c.94,1.88,2.15,3.68,2.55,5.72,0,0,6.82,5.63,5.88,7.38.44.26-4.86,7.28-6.41,7.11-3-.34-6.4-4.18-7.39-6.91-.83-2.75,6.13-5.44,5.25-7.45-1.05-2.41-3.7-3.57-6.05-4.27a10.37,10.37,0,0,1-4.88-3.55s-1.26,10.2-2.47,9.39c-4.88-3.29-1.54-13.69-.63-13.4a39.15,39.15,0,0,0,4.64.72c8.87.94,8.27-10,6.55-15.29-.61-2.06,2-1.4,3.13-1.71,4.31-1.28,11-5.73,11-5.73a156.76,156.76,0,0,1-18.54-12.42,85.42,85.42,0,0,1-11.13,14.76c-4.4,4.4-5.11,5.9-12.47,11.57-.14.11-5.58,6.62-3,14.22,2.21,6.51,12.85,13.55,12.78,14l-2.1,2c.09.12-15.06-9.42-14.71-19.68,0-.38-6.88-.52-6.88-.52l-20-18.54,16.91-.07,8.68,7.1,5.42.29c.36.31.55-1.44,5.33-5,9.13-6.83,20.44-24.35,20.44-24.35l12,8.43c-.6-12.66-2.64-26.28-1.4-37.2ZM97.75,20.82S85.32,44.22,78.51,55.24l-9.65-2.77c4-10.76.17-31.27-.85-31.79Z" transform="translate(0.1 0.1)"/><path id="path4073-4-2-4" class="cls-3" d="M24,19.46V230H154.6V19.46Zm90.29,152.7a112.85,112.85,0,0,1,18-14c2.22-1.34,2.9-1.53,3.77-.74,1.42,1.3,2.31,2.43,1.84,3.34a3.14,3.14,0,0,1-.44.54l-3.42-1.3,1.11,3.89c-3.08,1.25-3,4.59,0,6.36l-2,4.71,4.74-2.09a3.15,3.15,0,0,0,5.68,0l4.29,2.09-1.48-5.26c1.41-1.35,2.23-3.49,0-5.48l1-4.12-3.87,1.26c-1-1.33-1.53-1.24-1.76-1.6a6.05,6.05,0,0,0-.72-2.71,18.36,18.36,0,0,0-1.71-2.47c-.3-.51-.06-.56,1.49-1.4.72-.39,1.32-.79,1.32-.79s7.58,3.84,10.69,5.3v70.53H111.19c-4.71-14.07-1.33-26.29-.08-31.41-2.19-.18-13.5-3.86-13.84-5.12,4.48-7.14,10.56-13.62,17-19.54ZM32.93,192.7c-5.45-1.77-5.51,4.82-2.72,5.33a4.74,4.74,0,0,0,2.6-.13c.28.06-3.26,5.52-3.26,5.52s2.84,5.17,4.2,7.37L38,203.15l-2.81-5.28c4.4,2.24,6.67-4.45,2.06-5.32a5,5,0,0,0-2.35.41l2.43-22.89c2,1.34,5.52,4,5.52,4,.82,12.61.22,23.11,7.25,41.45l.07,12.7H25.73V161.67l4.48,3c.09.37-.67.12-.26,4.76.37,4.19,1.64,11.45,3,23.24ZM119.56,21.42a5.14,5.14,0,0,1,.35,1.25c1,3.26,4.37,7.18,7.08,8.21.94.36,1.31.91.76,1.45-.69.7-3.54-1.2-5.64-3.66-1.92-2.23-3.19-4.08-3.47-5.48a4.09,4.09,0,0,1-.13-1.8.59.59,0,0,1,1,0Zm3.38-.35c.36,0,.84.42,1.13,1.18a9.07,9.07,0,0,0,3.48,4.43c.46.32.63.79.41,1.07a.69.69,0,0,1-.33.19c-1.32.37-4.82-3.69-5.1-6.21-.06-.55.13-.66.41-.66Zm4.35.05c.71,0,1,1.47.64,2.25-.27.24-.86-.14-1.38-1.11S126.29,21.12,127.29,21.12Zm-2.37,0c.16,0,.49-.09.65.14a6.93,6.93,0,0,0,2.34,3.52c.16.29.23.9-.11,1.05-.8.36-3.22-2.4-3.24-4,0-.48.15-.71.36-.72Zm-3.06,1a11.88,11.88,0,0,0,4.73,6.24c1.32.84,1.82,1.32,1.21,1.75a1.24,1.24,0,0,1-.34.18c-3.07-1.18-6.85-5.65-7-8.81.67-.86,1.26.1,1.38.64Zm-10.65,12.1A13.34,13.34,0,0,0,106,35.32c-2.24,1-2.8,1.69-2.47,1.94s1.67-.45,2.4-.54c3.9-1,6.58-1.21,9.12-.1,2,.86,2,.47.66-1a6.13,6.13,0,0,0-4.5-1.45ZM125,36.36a4.24,4.24,0,0,1,3.08.89c.36,2-.61,1.06-1.39.67a6.66,6.66,0,0,0-3.64-.79c-.78.12-.8.08-.36-.17a4.85,4.85,0,0,1,2.31-.6Zm-15.28.76c-3.69.28-5,2.15-7.34,4.08-1,.75-.76,1.33.43,1.13a6.68,6.68,0,0,1,4.07.5c2.19.75,3.76,1.06,5,.6,2.27-.88,2.08-.73-1.18,2.43-1.74,1.4-1,1.33.73.12a10.3,10.3,0,0,0,2.47-2.29c.13-.28.15-1.27.39-1.27.83,0,.4-1-.35-1.48-.5-.35-.38-.72.26-1.4,1-1.06.66-1.54-.43-.88-.19.11-.29-.22-1-.62a5.34,5.34,0,0,0-3.06-.92Zm2.66,1.38c.89.76.51,1-1.44,1a14,14,0,0,0-5,.8c-2.22.74-2.35.76-1.05-.35C106.64,38.37,110.28,36.83,112.33,38.5Zm11.52-.64a4.42,4.42,0,0,1,2.33.48c1.85,1,2.27,1.92.2,1.19a7.81,7.81,0,0,0-4.26-.05c-1.25.34-1.47.47-1.3-.21C121,38.44,122.36,37.89,123.85,37.86Zm-14.61,3c.44,2.21,2.11,1.49,2.28.15h.61c-.26,1.78-2.67,3.27-3.61-.15.2,0,1.07,0,.72,0Zm13.35,0H123c.3,1.69,1.87,2.25,2.56.13h.55c-.42,3.54-4.16,1.81-3.56-.13ZM108,41.09c.3.1.44.93.39,1.15-.11.46-1.59,0-1.9-.47C106.76,41.44,107.49,40.92,108,41.09Zm20.1.37v.62c-.69.17-1,.55-1.61.43a2.35,2.35,0,0,1,.34-1.41,1.11,1.11,0,0,1,1.27.36Zm-14.89.72a1.41,1.41,0,0,1-.73.27c-.07-.59-.17-1.26.57-1.26A.58.58,0,0,1,113.17,42.18Zm8.51-1c.26,0,.57.66.6,1-.07.62-1.59.37-1.59-.24,0-.26.63-.8,1-.8Zm-13.9,23.43c-1.17-.58-10.07-6-12.34-15.59L95,50c1,2.29,2.39,6,2.39,6-.06-.32.37,2.5,1.27,7.28a5.74,5.74,0,0,1-1.53-.27c-1.17-4.38-1.45-7.81-2.44-12.1l-.43,1.2s1.24,7.69,2.08,10.7C95.84,62.8,95,62.6,95,62.6c-.7-3.24-1.24-5.42-1.9-8.67l-.6.79a50.92,50.92,0,0,1,1.64,7.61,4.78,4.78,0,0,1-1.76-.46s-.9-4.67-1-4.74a2.25,2.25,0,0,0-.48.79,18.91,18.91,0,0,1,.72,3.67A18,18,0,0,1,89.3,61a4,4,0,0,0-.84,1c.34,1.49,20.75,4.7,19.53,3.47,0,.13,9,4,14,.71,0,0,8.74,6.5,12.15,9.09a7.64,7.64,0,0,0,2.42,2.55L140,80.49c1,.78,1.4.21,1.56-1.26.17-1.65,1.36-12.72,1.63-15.08,1-8,1-7.87-.16-7.5-1.84.56-3.5-.17-3.5-2.06A2.54,2.54,0,0,1,141.33,52a4,4,0,0,1,1.32-.12c.24,0,.68.07.73.08.59,0-2.27-5.22-2.27-5.22s2.73-4.88,4-6.7l3.54,6.42-2.9,5.67c5.64-.43,5.09,6.68-.43,4.3,0,0,0,2.11,0,2,0-.61,0-1.12.23-1.24,5.35,2,6.44-5.78.68-5.42.95-1.66,2-3.37,3-5.2L145.07,39l-4.7,7.85,2.36,4.9a3.89,3.89,0,0,0-1.52,0c-3.49.72-2.74,6.34,1.24,5.57a5.84,5.84,0,0,0,1.14-.43l-2.57,23s-.25.21-1.29-.54-3.69-2.73-3.84-2.92a93.65,93.65,0,0,0-7-39.84c-.27-.74-.11-15.33-.11-15.33h24V89c-1.24-.79-2.72-1.82-4-2.72a1.13,1.13,0,0,1-.46-1.28c-.42.91-.16,1.29-.16,1.29l5.24,4.2-.21,66.64s-8.46-4.37-13.67-6.48c-2.35-1-2.45-.69-2.45-.69s1.66,3.74,1.19,4.42c1.12,1.08,3,3.34,3.09,5.55a7,7,0,0,1,2,2.23l3.15-1.14-.72,3.28c3.35,2.35.13,5.51-.49,5.22a36.77,36.77,0,0,1,1.81,4.62,33.75,33.75,0,0,1-3.91-1.82c-1.92,3.79-5.16.61-5.18.05l-3.6,1.6,1.27-4.1c-2.31-1.41-3.87-3.54-.13-5.84l-.87-3.2,3.08,1.21,1-1.6c-1.15-5-8.72-4.07-11.15-8.59a67.15,67.15,0,0,1-1.2,7.68c-.24,5.4-4-.06-4-5.77,0-1.29,1.61-5.63,2.16-5.84s6,2.54,9.6-.06c1.65-1.72,4.5-6.57,1.76-14.16-.91-1.75,1.72-2,2.57-1.38,0,0,7.9-4.14,11.46-6.14-6-3.29-18.41-12.05-18.4-12.47-1.66,2.64-3.56,4.85-6.23,8.59-4.32,5.11-7.71,10-13.2,14-7.72,5.64-9.54,11.32-7.38,18,.87,2.88,2.62,5.8,5.5,6.81,1.46,1.48,7.34,7.06,7.34,7.06-9.81,9-16.55,16.33-21.27,24.47,4,2.1,13.6,5.15,13.6,5.15-3.57,11.9-1.94,21.36.41,30.85,0,0-27.91,0-42.39-.42a4.4,4.4,0,0,1-1.71-.06c-.06-1.06,2.61-4,3.4-3.57.41-.4,1.25-.6,1.1-1.09-2-.24-5,3.23-5.15,4.66H64.42c-.24-.22,2.16-5.85,7-6.3,0,.2.64-.44.12-.71-5.62.67-8.24,6.92-8.08,7h-.86a11.47,11.47,0,0,1,9.77-8.37s.93-.32.69-.86c-6.37,1.11-9.54,3.87-11.07,9.23H60.83c.83-5.44,6.4-10.2,12.7-10,.2-.13.44-.28.34-.89-7,.79-10.48,3.13-13.35,9.15-2.57-6.69-9.71-9.86-9.8-9.89s-.17-1.87.23-1.8c6.09,2.22,8.41-3.09,8.16-6.17a26.13,26.13,0,0,0-.62-5.13,22.57,22.57,0,0,1-.85-4.65c0-.95.34-1.14,1-1.46,1.3-.59,2.12-2.74,1.83-3-.67,1.56-2.44,1.83-3.26,2.88-.65.87-.37,2.24.8,7,.7,2.91-.14,1.57-1.79.66l-1.1-.63c.74.77,1.52,1.49,2.28,2.23s.29,1-.68.65a5.74,5.74,0,0,0-5.1.47c-.4.29-.55.26-.65,0-.45-7.43.33-12,2.78-17.58,1.59-3.8,4-6.64,7.1-6.84s7.74.85,11.89,3.67c4.86,3.32,9.61,8.36,10.11,14.55a3.4,3.4,0,0,0,.54-.85c.22-.73-.59-2.94-1.86-5.5-.23-1.93-.9-5.31-1.41-7.59a1.6,1.6,0,0,1,1.47.21c.89,3.77,1.52,6.72,2.29,11.78,0,.49.64-.73.64-1.06-.11-.75-2.21-10.66-2.17-10.43,0-.34,2,.1,1.72.42,0,0,1.51,8.3,1.62,8.05l.51-.71s-1.44-6.07-1.26-7.24c.12-.17,1.24.19,1.59.38.45.6.73,2.76.92,4.24.51.39.61-.74.57-1-.37-.59-.76-2.78-.47-2.9a4.11,4.11,0,0,1,1.76.64c.29.26,1.4-1.29,1.12-1.55a61.17,61.17,0,0,0-19.36-3.76,9.56,9.56,0,0,1-3.89-.92c-5.2-1.89-9.49,0-10.12.58C50.76,179.7,43.68,173.53,38,169.59a2.77,2.77,0,0,0-1-.28c-.89,6.86-1.51,14.79-2.28,21.12-.31,2.5-.34,2.7-.23,2.77s.3,0,.37-.08c1.86-.68,3.53-.24,4.42,1.44a2.56,2.56,0,0,1-3.86,2.85c-.82-.43-.93-.34-.56.46.65,1.44,2.51,5.24,2.51,5.24s-2.52,5.15-3.79,6.56c-1.24-2-2.83-4-3.52-6.25,1-1.91,2.82-4.38,3.41-6.27a1.51,1.51,0,0,0-.94.18c-3.22,1.53-3.74-1.35-3.7-2.39.09-2.1,1.92-2.55,4.57-1.57-2.87-19.12-3.48-30-2.75-28.83a59.45,59.45,0,0,1-5.18-4.17L25.73,21.2H66.84c4.23,11.36,3.07,25,.54,32.15a41.24,41.24,0,0,1,14.14,4.83C72.87,70.9,59.29,84.65,44.58,93.45c-.84.38-3.58-1.33-3.9-3-.07-.4.15-1.17.59-1.16,1.08.35,2.12.84,3.18,1.27,0,0-1.47-3.7-.76-4.26a6.52,6.52,0,0,0,1.13-.87,3,3,0,0,0-.14-4.12,4.62,4.62,0,0,0-1.24-.92s1-2.88,1.56-4.24l-4.09,1.35c-1.32-1.84-3.75-3.27-5.54-.53-.35.73-.28.62-2.8-.51-1.43-.63-2.32-1-2.32-1,.54,1.61,1.24,3.11,1.86,5-2.82,1.8-2.17,4.83.19,5.74l-1.24,4.09s2.65-1,4.1-1.38a7.66,7.66,0,0,1,1.63,2.49,10.67,10.67,0,0,0,3,4.44,20.47,20.47,0,0,1-4,2.34l6,2.42c-.37-1.26-1.16-2.2-1.24-3.81a2.53,2.53,0,0,0-1-2.33c-1.63-1.42-1.8-3.11-2.34-4.22a4.17,4.17,0,0,1-1.58-1.88c-.39-.83-3,1.11-3.35.74S33,86,32.9,85.7c-1-.09-4-2.39-.49-5l-1.12-4.16s2.67,1.17,4,1.82c.88-4.16,4.93-2.16,5.58-.37,0,0,3.21-1.06,3-.2s-.61,2.69-.61,2.69c2.89,2.57,2.29,3.82,0,5.5a15.45,15.45,0,0,0,.53,3.47,24.89,24.89,0,0,0-2.71-1c-.43.43-.92,1.21-.83,1.61.73,3.24,4.71,4.14,10.6,7.45.21-2.09,1.64-5,1.81-7.46.1-1.83.16-1.86,1.45-1.28,3.37,2.45,2.34,9.18,1.11,11.94-.73,1.56-.85,1.52-2.27,1.07a14.28,14.28,0,0,0-7.34.27c-2.64,1.09-3.89,7-3.92,8.79a12.44,12.44,0,0,0,1,5.51c.37,1.35-.31,2.39-1.52,2-.27-.08-.92-.33-.92-.33L28.74,124l2.15,1.27s-1.59-1-.61-1.46l9.78-5.12c1.82.71,1.58.86,2.76-.38a1.88,1.88,0,0,1,2-.65c5.76.55,8.31-.29,9.31-2.71.15-.36.09-.35.68-.65a2.36,2.36,0,0,0,1.66-2.16c0-.63.31-.72.79-1.16a2.25,2.25,0,0,0,.51-2.92c-.26-.5-.47-.66-.36-1.18a3.14,3.14,0,0,0-1-2.74c-.95-1.1-.95-.91.86-2.6,3.55-3.39,6.67-6,10.13-9,2.36-2.09,2.1-1.94,3-1a14.25,14.25,0,0,1,3.19,13.86c-.07.23-.11.2.07,0,1-1.09,1-6.56.17-9-1-3-2-4.54-5.26-7.46C66.56,87.05,61,81.67,61,81.67c8.15-7.09,16.92-15.9,21.85-24C80.28,55,68.57,52.45,68.57,52.45c1.46-3,4.34-16.66-.59-31.77,14.49.67,29.08-.39,43.56.59l.34-.11c.41-.11.61.17.51.63-.31,1.15-2,3.85-3.19,3.63-.53-.21-.38.81-.62,1.24,1.88-.25,4.08-2.63,4.63-5,.3-.5.5-.58.8-.49s.26.44-.11,1.59c-1.18,2.86-3.56,5.51-6.33,5.25l-.36,1c3.74-.06,6.62-3.57,7.48-6.2.59-1.56.62-1.77,1.22-1.62.49.46.19,1.12,0,1.66-1.88,6-7,7.63-9.61,7.37-.31,0-.36.25-.27.74,5.52.37,9.91-4.4,10.54-8.49.3-1.14.82-1.53,1.13-1a2.56,2.56,0,0,1,0,1.37c-1.51,6.46-8.38,10.12-12.57,9.08-.2-.19-.51.71-.06,1,8.47-.33,11.09-4.71,13-8.58,2.3,3.48,4.19,7.08,9.71,9.19,0,0,.55,1.22.11,1.49-.23.14-.58.08-1.08,0-6.73-1.09-9,5.21-6.09,14.64.78,2.58.43,2.18-1.25,3.8-.8.77-1.18,2.13-1,2.16.29-.16.39-.6,1.09-1.18.3-.26.93-.5,1.39-.82,1.24-.72,1.23-1.21.78-2.93-.33-1.27-1.18-5.14-1.18-5.53,0-.75.18-.67,1.1,0,1.29,1,2,.89.46-.34A6.2,6.2,0,0,1,121,43.7c-.25-.36-.09-.6.41-.44a7.31,7.31,0,0,0,6.56-.69c.26,6.21-.59,15.64-5.79,22.39-4,4.49-11.61,1.09-14.43-.33Zm6.1-14.28a2.9,2.9,0,0,0-1,.32c-1.53.88-1.17,4,.5,4.41a3.1,3.1,0,0,0,2.41-.28,3.72,3.72,0,0,1,1.88-.47c.55.24.73-.26.85-.81.26-1.24-1.76-1.27-3.38,0-2,1.62-3.59-.77-1.67-2.56.64-.42.62-.63.46-.62ZM98.08,57l1.71,2,1.07,4.72a2.92,2.92,0,0,1-1.44-.26A59.37,59.37,0,0,1,98.08,57Zm23.27,1.18-.06,0a3,3,0,0,1-.83.22c-.25,0-.64-.15-.91-.13a6.18,6.18,0,0,0-1.64.34.68.68,0,0,1-.65,0,3.94,3.94,0,0,0-2.67.06,2.08,2.08,0,0,1-1.73,0c-.2-.11-.42-.38-.45-.34a14.49,14.49,0,0,0-.49,1.93c0,.18-.12.48,0,.51s.41-.24.78-.43c.78-.4,1.65-.37,3.17,0,1.88.46,2.61.33,3.72-.24a2.64,2.64,0,0,1,2-.4c.15,0,.53.24.58.19s-.18-.66-.42-1.21-.24-.56-.36-.55Zm-20.29,2.13a17.51,17.51,0,0,0,2.57,2.21l0,1.52a8,8,0,0,1-1.91-.17c-.19-.59-1-3.54-.61-3.56Zm13.58,1a2,2,0,0,0,.5.23c2.63,1-.12.74-.38,1.69,0,.08.12.09.25,0a10.49,10.49,0,0,1,4.11-.39c1.3.44,1.38.14.13-.52-.92-.36.19-.61.57-.92.77-.5.24-.71-.75-.23a4.73,4.73,0,0,1-3.55,0,3.39,3.39,0,0,0-.87-.36c-.33,0-.15.34,0,.45ZM104.29,63l1.54,1.21-1.57-.15ZM69.44,93.37a.57.57,0,0,0-.57.56.58.58,0,0,0,.57.57.57.57,0,0,0,.56-.57A.56.56,0,0,0,69.44,93.37Zm2,.57L64.43,97.3l1.87.62,0,1.94L68,99.31l.73,1.81Zm.32,1.58a.57.57,0,1,0,0,1.13.57.57,0,0,0,0-1.13Zm-9,3.44a.57.57,0,0,0-.57.56.58.58,0,0,0,.57.57.57.57,0,0,0,.56-.57A.56.56,0,0,0,62.86,99ZM65,100l-7.93,3.65,2.35.72-.62,2.42,1.91-.8,1.07,1.63Zm.23,1.74a.57.57,0,1,0,.56.56A.56.56,0,0,0,65.26,101.75Zm-15.72.36c3,0,6.32,1.14,7.46,3.69.3,1.28-1,2-3.63,1.31-4.42-1.22-5.25-1.36-4.51-.6a2,2,0,0,0,1,.57,23.13,23.13,0,0,0,5.76,1.14c1.19-.16,2,.39,1.72,1.39s-1.88,1.59-4.2,1.26a32.74,32.74,0,0,1-4.53-.86c-1-.31-1.06-.28-.57.44.25.37.27.68.65.75a31.32,31.32,0,0,1,4.73.35c2.62.23,3,1,1.11,2.11-.91.54-3.64.39-5.18-.16-1.11-.4-3.65-1-2.67-.2.24.19.15.64.56.79,1.35.18,5.14.45,5.73,1,.38.34-.48,1.22-2.25,1.68-2.66.51-6.65.3-7.7-.42-1.95-4-.9-10.5,2.15-13a7.49,7.49,0,0,1,4.42-1.18ZM67,104.19a.57.57,0,1,0,.56.56A.56.56,0,0,0,67,104.19Zm2.35.6-8.18,4.09,2.07.62-.49,2.38,1.92-.79,1.16,1.61Zm.07,2a.58.58,0,0,0-.57.57.57.57,0,0,0,.57.56.56.56,0,0,0,.56-.56A.57.57,0,0,0,69.43,106.79Zm4.75,4.82c-3.62,3.54-7.71,6.35-11.45,9.79l.81,0,2-1.84,57.31-.18-1.34,2,.56.25a19.65,19.65,0,0,0,1.6-2.67c-12.59,0-22.31,0-36.12.1-2.52-2.5-5.18-4.84-7.81-7.22Zm-17.42,2.27a.57.57,0,0,0-.56.57.56.56,0,0,0,1.12,0A.57.57,0,0,0,56.76,113.88Zm74.82.43c4.95,3.69,10.82,8.21,15.69,10.89,1.95.85,1.76,1.14-.22,2.08-2,1.21-5.19,2.78-7.89,4.14-1.17.45-1.68-.13-2.52,0a1.59,1.59,0,0,0-1.12.74c-.59.78-.43.75-3.56.61s-4.46-.07-5.14.28-1.77,1.47-1.77,2a1.38,1.38,0,0,1-1,1.23,1.9,1.9,0,0,0-1.6,1.72,3,3,0,0,1-1,1.4,2.11,2.11,0,0,0-.55,2.47,1.91,1.91,0,0,1,.21,1.42c-.21,2.56-.39,2.35,2.35,4.25l-14,12.23c-.33.25-.42.23-.72,0a11.12,11.12,0,0,1-3.57-5.47c-2.37-6.53.52-11.9,4.35-15.18,1.33-1.14,3.12-2.49,3.62-2.83,7.22-6.18,13.5-14.93,18.45-22Zm-72.73.48-8,3.79,2.58.44-.49,2.23,1.86-.71,1,1.88Zm.49,1.77a.57.57,0,0,0-.56.57.56.56,0,0,0,1.12,0A.57.57,0,0,0,59.34,116.56Zm73.29,2.49-.91-2.16s-2.52,6.24-3.06,8.36c2.14-1.11,8.41-4.31,8.41-4.31l-2.68-.5.3-2.44Zm-91.36.38a.58.58,0,0,0-.57.57.57.57,0,0,0,.57.56.56.56,0,0,0,.56-.56A.57.57,0,0,0,41.27,119.43Zm2.45.52s-6,2.8-8.64,4l2.51.52-.44,2.45,2.26-.88.91,2.41Zm.31,1.84a.57.57,0,0,0-.56.57.57.57,0,0,0,1.13,0A.57.57,0,0,0,44,121.79Zm84.23.41a.56.56,0,0,0-.56.56.56.56,0,1,0,1.12,0A.56.56,0,0,0,128.26,122.2Zm9.73.51-2.83,7.9,7.66-3.87-2.08-.57v-2l-1.71.5Zm-90.54,1.9a.57.57,0,1,0,0,1.13.57.57,0,0,0,0-1.13Zm83.79.14a.57.57,0,0,0-.56.57.56.56,0,0,0,.56.56.57.57,0,0,0,.57-.56A.58.58,0,0,0,131.24,124.75Zm-81.44.58-8.12,4,2.52.59-.28,2.54,2-1.17,1.11,2.32Zm.51,1.68a.54.54,0,0,0-.54.57.57.57,0,0,0,.57.56.56.56,0,0,0,.56-.56A.59.59,0,0,0,50.31,127Zm84.41.5a.57.57,0,0,0-.56.57.57.57,0,0,0,1.13,0A.57.57,0,0,0,134.72,127.51Zm-11.18,2.6-.76-2.13-3,7.8,8.08-3.71-2.57-.6,0-2Zm-8.21-1.68c-.09,0-.17,0-.17.08a24.83,24.83,0,0,1-2.07,2.21l-23.84.22s2,.54,2,.54c3.13,2.5,8,7,8,7l5.91-.24c3.28-3.22,8.21-5.68,10.4-9.67a.47.47,0,0,0-.25-.09ZM137.68,130a.57.57,0,1,0,0,1.13.57.57,0,0,0,0-1.13Zm-18.4,2.72a.56.56,0,0,0-.56.56.56.56,0,1,0,1.12,0A.56.56,0,0,0,119.28,132.76Zm12.1.82c1.71,0,3.35,0,3.78.37,2.64,2.23,1.39,12.66-1.94,14-3.65.82-6.18,1-9.35-1.12-.9-.44-2.69-1.77-2.34-2.87.48-1.35,1.78-1.25,5.53-.08,1.37.43,2.12.34,2.47.07s-.1-.52-.8-.53a16.4,16.4,0,0,1-2.51-.61,9.62,9.62,0,0,0-2.75-.62c-1.55-.1-2-.16-2-1.11,0-1.77,2.46-2,7-1a10.91,10.91,0,0,0,1.77.26c.17.07-.35-.59-.44-1-.16-.14-.45-.21-1.22-.23-2.92-.29-5.34-.49-5.39-.87-.26-1.88,3.51-2.39,7.42-.88,1,.38,1,.22,1-.07,0-.54-1.7-1.49-4.18-1.46s-2.07-1.2-.09-2.13c.68-.31,2.32-.14,4-.15Zm-9.32,2a.57.57,0,0,0-.56.57.56.56,0,1,0,1.12,0A.57.57,0,0,0,122.06,135.59Zm-8.69,3.9-.51-2.1-3.28,8.19,8.29-4.23-2.74-.51.24-1.73Zm-4.22,3.29a.57.57,0,1,0,.56.57A.57.57,0,0,0,109.15,142.78Zm8.25,2.33-.69-2-2.79,7.13,7.07-3.16-2.09-.58.3-2.16Zm-5.62,0a.57.57,0,1,0,0,1.13.57.57,0,0,0,0-1.13Zm1.81,2.73a.56.56,0,1,0,.56.56A.56.56,0,0,0,113.59,147.86ZM110,149.53l-2.38,6.76,6.64-3.23-1.94-.64s.11-1.52-.08-1.45l-1.36.39Zm5.92.81a.56.56,0,1,0,.56.56A.56.56,0,0,0,116,150.34Zm-8.81,3.25a.56.56,0,0,0-.56.56.56.56,0,1,0,1.12,0A.56.56,0,0,0,107.14,153.59Zm2.54,2.61a.57.57,0,0,0-.57.56.58.58,0,0,0,.57.57.57.57,0,0,0,.56-.57A.56.56,0,0,0,109.68,156.2Zm-35,31.13c-.31,0-1.1-.68-1.25-1a1.37,1.37,0,0,1,1.17.18C74.77,186.69,74.92,187.2,74.65,187.33Zm2.4-.49c-.11.82.4,2.32.31,2.67-.26.13-1.59-1.29-1.91-1.64a6.28,6.28,0,0,1,0-1.34,2,2,0,0,1,1.57.31Zm2.38.41c.28,1.83,1.09,4.77,1,5.76a14.93,14.93,0,0,1-1.89-2.17,14.53,14.53,0,0,1-.64-3.93A2.13,2.13,0,0,1,79.43,187.25ZM63.49,187a6,6,0,0,1-2.9.71c-.93,0-2.53-.48-2.36-.36.42.75,1.52.36,1.55.85-.28.49-1,.45-1.38.92-.08.12.11.23.63.17a7.8,7.8,0,0,1,5.5-.08c.39.08.13-.3,0-.4a2.37,2.37,0,0,0-1-.41c-1.64-.29-.92-.46.18-.95.8-.29,1-1-.23-.45Zm3.56,2.33a9.22,9.22,0,0,0-1.37.54,4.76,4.76,0,0,1-3.3-.07,3,3,0,0,0-2.79.36,2.23,2.23,0,0,1-2.25.29c-.8-.46-.8-.3-.4.83.1.28-.1,1.13.25,1.33s.57-.35.78-.42,1.49.51,2.21-.13c1.28-.46,1.67.29,2.56.22,1.44-.51,2.34-1,3.58-.06a8.6,8.6,0,0,1,.82-2.86.08.08,0,0,0-.09,0Zm-2.63,5.8c-1,0-1.6.65-2.94.53a1,1,0,0,0-1,1.57c.32.48.74.57,2.2-.1.6-.27,1.43-.88,1.92-.83,1.43.14,1.77,1.53.58,2.69-.57.34-.58.71-.4.72a2.07,2.07,0,0,0,1.63-1.2c.59-1.79-.47-3.41-2-3.38Zm4.65,8.27a8.17,8.17,0,0,0-3.95,2.84c-.62,1-1.22,2.09-.78,2.64s.85.89.89,1.13-.25.42-.52.73c-1.19,1.33-.91,1.4.76.54.84-.44,1.23-.62,1.78-.47a8.94,8.94,0,0,0,5-.38c.62-.23,1.22-.53,1.26-.38A6.73,6.73,0,0,1,66.8,212c-.19-.05-.34,0-.34,0s.32.42,1,.72c1.14.51,3.87,0,5.58-1.28,3.38-2.22,5.24-4.34,2.58-3.45-1.22.41-1.68.33-3.16-.34-2.23-1-3.93-1.3-5.77-.66-2.34.82-.55-1.11,2.08-2.78.57-.36.64-.78.3-.77ZM56.49,209.2h-.78c-.56-1.88-1.9-1.87-2.48,0l-.65,0c.63-2.34,3-2.83,3.91,0Zm13.84.16-.59,0c-.35-1.13-1.6-2.14-2.48-.27l-.41-.08c.72-3,3.59-1.33,3.48.33Zm-3.9-1.72c.37,0,.46.42,0,1.09-.29.48-.63.43-1,.08s-.3-.37.05-.68A1.47,1.47,0,0,1,66.43,207.64Zm4.31,0a3,3,0,0,1,.79.24c.89.3,1.09.55.73.91a1.24,1.24,0,0,1-1.35.26c0-.44-.46-.79-.47-1.24C70.44,207.71,70.58,207.66,70.74,207.66Zm-13.9,0c.61,0,1.44.34,1.38.7s-.67.64-1.17.68c-.34,0-.33-.09-.41-.33s-.18-.48-.24-.7c-.14-.41.12-.34.44-.35Zm-4.21.14s-.34,1-.5,1.38c-1.28-.07-1.16-.64-.55-1.05A2.1,2.1,0,0,1,52.63,207.81Zm-1,2.44a5.89,5.89,0,0,1,.93.34,9.54,9.54,0,0,0,4.51,0c.71-.16,1-.38,1.2-.27s0,.9-1,1.35a6.49,6.49,0,0,1-4.9,0c-1.32-.68-1.46-1.39-.71-1.38Zm-.35,1.47a5.72,5.72,0,0,0,3.91.92c2.23-.09,2.63-.36.74.64-1.73.92-4.41.75-4.93-.25C50.7,212.46,50.89,211.77,51.28,211.72Zm10.82,1.34h0c.18,1.21,2.21,2.31,3.18,2.57,2.06.92,5.33,0,7.8-1,1.8-.78,2.45-2,.3-1.29-3.45,1.08-7.78,1.16-10,.32a7.89,7.89,0,0,0-1.31-.56Zm-11.35,4.53c4.32,1,9.53,7.66,9.52,10.58h-1.4a14.11,14.11,0,0,0-8.18-9.48c-.24-.91.07-1.12.06-1.1Zm-.07,1.88a13.61,13.61,0,0,1,7.72,8.7H56.9A11.57,11.57,0,0,0,50.67,221a3.47,3.47,0,0,1,0-1.52Zm0,2.28c2.63.78,4.95,4.25,5.61,6.42H55a7.87,7.87,0,0,0-4.34-4.87,3.87,3.87,0,0,1,.05-1.54Zm0,2.36a5.82,5.82,0,0,1,3.62,4.06h-1.2a7,7,0,0,0-2.41-2.91C50.64,225,50.63,224.11,50.63,224.11Zm.12,2c.14-.08,2,1.58,1.67,2H50.76c0-.52,0-2,0-2Z" transform="translate(0.1 0.1)"/><path id="path4071-9-6-8" class="cls-4" d="M97.78,21.15c-3.13,6.08-19.19,33.46-19.35,34.42l4.11,1.82,20-36.1S98.37,21.15,97.78,21.15ZM145,44.07l-1.74,2.48,1.42,2.83,1.71-2.7ZM71.57,71.49s-5.76,5.74-8,8.42c4.84,4.84,14.08,10.92,14.15,20.27l6.38,0,20.63,18.51s18.69.14,19,0,7-9.62,7-9.62l11.84,8.66s-.57-9.32-1-15c-.14-3.82-.27-6.17,2.52-7.86-3.83-1.83-3.59-5.19-.77-7.66-.93-1.29-2.32-1.53-2.53-6.09a11.89,11.89,0,0,0-1.87-1.54l-.77.69c-2.45,2.21-4.13,4.47-4.4,5.94-.53,2.79,2.3,4.71,3.94,2.66.46-.57.87-.41.87.34,0,1.53-1.91,2.39-3.53,1.59a2,2,0,0,0-.74-.27c-.06.06,1.6,4.14,2.05,5.05a11,11,0,0,1,1.2,4.58c.06,1.68,0,1.9-.76,4.81-.74,2.74-.39,4.37.93,4.37.75,0,.72.71,0,1-1.6.55-2.59-.63-2.64-3.15,0-1.53-.06-1.57-.85-1.2-2.73,1.29-5.7-1-4.41-3.43.27-.5.59-.34.75.38a2.15,2.15,0,0,0,2.31,2c2.95,0,4.18-4.19,2.48-8.4-.34-.84-.51-.8-1,.27-.71,1.68-1.88,2.17-2.86,1.2-.32-.33-.48-.86-.26-.89l.72,0c1.72,0,2.31-1.73,1.51-4.24a22.7,22.7,0,0,1-1-3.81,7.3,7.3,0,0,1,.81-5.05,22.09,22.09,0,0,1,2.42-2.72C137,80,138.07,79,138.07,79c-1.21-1-2.32-1.83-3.69-2.86,0,0-8.79,24.19-8.16,33.61-1.12,12.41-10.22,9-10.89.38Zm-.39,3.63c3-.05,5,3.93,6.11,12.19.37,2.74,2,6.57,3.24,7.48,3,2.28,7.81.52,7.81-2.89,0-4.25-5.94-4.88-6-.64,0,1-.54,1-1,.1a3.19,3.19,0,0,1,.81-3.24c.55-.51.5-.61-.54-1.18-3.62-2-5.16-5-3.22-6.27.84-.55,2,.15,1.47.9-.83,1.17-.84,1.35-.15,2.32s1.72,1.66,3.94,2.31a18.21,18.21,0,0,1,3,1,4.85,4.85,0,0,1,2.79,6.13c-.21.58-.41,1.16-.45,1.28s.06.27,1.83,0c2.81-.38,5.94.63,7.48,2.41A8.75,8.75,0,0,1,99.77,102a12.27,12.27,0,0,0,.24,1.73c.13.61.3,1.64.38,2.29.74,6.14,5.84,9.29,8,5,1.39-2.72-1.82-5.45-3.45-2.93-.57.88-1.16.47-.83-.58.64-2,3.18-2.39,4.91-.67a4.87,4.87,0,0,1,.93,4.38c-.24.7-.21.75.31.57a4.41,4.41,0,0,1,3.89.76c1.71,1.82,1.36,4-.73,4.72a1.78,1.78,0,0,1-2.38-1.13c-.16-.8.39-1,.81-.34.79,1.28,2.52.25,2.11-1.27-.46-1.72-1.93-2.09-4.64-1.15-4.32,1.49-5.71,1.36-7.77-.69-1.48-1.47-2-2.74-2.43-5.54-.44-3.1-.48-3.18-1.24-2.53-3.65,3.12-8.48-1.59-5.38-4.68.95-1,1.66-.13.8.95-1.26,1.56.38,3.74,2.43,3.23,3.74-.92,3-6.4-1.07-7.69-1.23-.39-4.62-.22-7.22.35-7.27,1.6-10.49-1.51-12-11.6a37.37,37.37,0,0,0-1.07-4.59c-.82-3-3.61-4.64-5.13-3-1.21,1.3-.57,3.06,1.12,3.07s1.16,1.16-.59,1.31c-3,.28-3.57-4.8-.65-6.26a4.58,4.58,0,0,1,2-.55ZM31.42,76.94l1,3.67,3.76,1.07L35,78.24Zm9.7,1.13-1,3.28,2.8-1,1-3.14ZM72,83.43A1.09,1.09,0,1,1,71,84.51,1.08,1.08,0,0,1,72,83.43ZM36.1,85.33l-3.26,1.09L32.26,89l3-.67Zm6.82,1.17-2.34-.72.55,2.68,2.57,1.05ZM148,86l-1.56,1.21c4.54,4-.36,7.77-.51,7.52,3.28,2.17,2.7,5.61,2.27,8.76-.78,5.61-1.08,10.92-1.93,16.67a45.12,45.12,0,0,0,6.59,3.8s0-33.76,0-33.76ZM92,91.08a1.09,1.09,0,1,1-1.09,1.08A1.09,1.09,0,0,1,92,91.08ZM25.61,93.86l.13,31.5,6.5-11.66-4.47-5.18,3.87-4.14A109.85,109.85,0,0,1,25.61,93.86Zm63.3,4.8a1.09,1.09,0,1,1-1.08,1.08A1.08,1.08,0,0,1,88.91,98.66Zm14.76,3.22a1.09,1.09,0,1,1-1.08,1.08A1.08,1.08,0,0,1,103.67,101.88ZM146,137l4.78,4.91L147,146.55l5.92,10-.09-30.93ZM25.55,126.63l.22,33.88,5.11,3.74L32.17,163c-3.29-3.53-1.32-6.15,1.16-7.67-4.38-1-3-6.85-2.79-9.56-.11-5,1.73-10.74,1.16-15.56ZM55,131.34l-7.32,10.23s-8-6.11-12.1-8.87c.43,4.41.83,10.05,1.37,14.79,1.31,6.94-2.11,7.06-2.14,7.72,5.44,4.14.87,8,0,7.82,2.9,1.58,2.66,6.39,2.66,6.39l1.38.78s.44-.27.63-.37a12.18,12.18,0,0,0,4.42-5.49c.93-3.16-1.81-5.79-3.53-3.39-.85,1.19-1.53.4-.83-1a2.67,2.67,0,0,1,3.38-1.28c.64.34.5-.55-.49-3a28.56,28.56,0,0,1-1.07-3.59,10.8,10.8,0,0,1,.51-6.14c1.13-3.16.73-5.14-1.08-5.31-1-.1-1.06-.4-.28-.85,1.75-1,3.45.43,3.38,2.83,0,1.3,0,1.32.66,1,3.46-1.39,6.2,2.21,3.78,5-.74.85-1.21.31-.72-.82.75-1.75,0-3-1.72-3-2.55,0-4,3.51-3,7.4.31,1.21.36,1.23,1.21.42s1.31-1,1.89-.78c1.21.36,1.53,1.65.37,1.49-2-.27-2.51,1.82-1.39,5.54,1.5,4.93,0,8.94-4.43,11.8l-.58.42a29.41,29.41,0,0,0,5,3.77l8-32.57s-.14-1.85-.33-2.72c0-8.74,8.12-9.58,10.66-1.64A19.78,19.78,0,0,0,65,140.63l42.33,37.67s7.9-7.66,7.8-7.86c-6-6.07-14.12-10.36-14.41-20-1.44,0-6.25.05-6.25.05L73.85,131.56c-6.46,0-12.19-.42-18.89-.22Zm11.53.71c1.13,0,2.27.55,2.27,1.5s-.55,1-1,.34c-.63-.93-1.36-1-2.11-.21-2.06,2.17,1.15,4.16,4.84,3,2.26-.71,3.35-.91,4.18-.74,3.49.7,5.17,3.06,5.47,7.66.15,2.34.15,2.33,1.16,1.4a3.83,3.83,0,0,1,6.54,2.32,3.11,3.11,0,0,1-2.74,3.22c-.57,0-.48-.6.13-.89a2.34,2.34,0,0,0,.1-4c-1.9-1.21-4.41.68-4.38,3.3q.06,4.74,7,4.35l3.78-.18c2.22-.1,4.6-.51,6.86,1.2,2.37,1.88,3.94,5.63,4.61,11.06,1.06,6.67,1.88,8.46,4.11,8.62a2.35,2.35,0,0,0,2.45-2.36,1.73,1.73,0,0,0-2.15-1.43c-1.12.37-1.35-.85-.25-1.31,1.53-.64,3.4.59,3.82,2.52.24,1.12-1,3.28-2.35,3.82-3.46,1.4-5.92-1.47-6.73-7.88a39.26,39.26,0,0,0-1.68-7.44c-1.68-4.63-4.44-6.53-7.44-5.15-3.4,1.57-2.73,6.67.87,6.63,2,.16,2.4-1.3,2.44-2.86.05-1.15,1.35-.07,1.46.72A3.54,3.54,0,0,1,96.27,162c-1.23.82-.79.77.46,1.1,3.37.63,5.88,5.1,3.86,6.62-1,.64-2.16-.3-1.43-1.23,1.15-1.47-.8-3.8-4.36-4.58-4.66-1-6.51-4.5-4.83-8.07.55-1.19.6-1.16-1.67-1-5,.28-6.78-.41-8.45-3.32-.51-.87-.73-2.05-.84-4.38-.19-4.17-.57-6.76-1.1-7.48-2.59-3.6-8-2.53-7.32,1.46a2.24,2.24,0,0,0,4,1.24c1.11-1.15,1.63-.08.55,1.12-2.62,2.9-7.16-.48-5.81-4.32.31-.88.35-.85-1.32-.9-3.73-.11-5.5-3.31-3.1-5.58a2.43,2.43,0,0,1,1.6-.61Zm9,13.73a1.09,1.09,0,1,1-1.08,1.08A1.08,1.08,0,0,1,75.48,145.78Zm15,3.85a1.09,1.09,0,1,1-1.08,1.08A1.08,1.08,0,0,1,90.46,149.63Zm-3.22,7.08a1.08,1.08,0,1,1-1.08,1.08A1.08,1.08,0,0,1,87.24,156.71Zm47.61,4.21.68,3.21,2.49.66-.39-2.75Zm8.68,1.11-.05,1.91,2.2.26.79-3.28Zm-37.06,2.88a1.09,1.09,0,1,1-1.08,1.08A1.08,1.08,0,0,1,106.47,164.91Zm31.7,4.41-2.59.73-1.25,3.61,3.32-1.2Zm5.08.33.32,2.68,3.19,1.45L145.68,170ZM96.12,192.48l-19.85,36,5.43-.07,18.73-33.94ZM33.7,201.2l-1.76,2.36,1.67,2.75,1.91-2.76Z" transform="translate(0.1 0.1)"/><path id="path4069-2-6-0" d="M67.43,20.25c3.65,11.11,4,22.06.82,32.59a44,44,0,0,1,14,4.8c-.8,2.08-13.11,17.25-21.46,24.09,2.38,2.36,5,4.72,7.73,7.32,4.16,4,5.62,6.67,5.9,11.8a14.37,14.37,0,0,1-2.5,7.7,17.46,17.46,0,0,1-5,4.57c-2.33,1.55-5.75,4.89-10,9.81-1.64,1.88-4.4,5.3-6.69,8.56-.86,1.18-3.41,4.88-3.41,4.88A124.46,124.46,0,0,0,29,124.09s9.18-4.91,11.11-5.91c1.48.95,3.5.13,2.53-2a14.46,14.46,0,0,1,1.72-13.14c.55-.83,1.87-1.31,4-1.46.92-.06,1.9,0,2.88,0a4.77,4.77,0,0,1,1.82.42c1.74,1,2.09-.27,3.17-4.39s-.66-9.28-3.13-9.29c-.58,0-.9.21-.79,1.66a4.47,4.47,0,0,1-.45,2.37,16.59,16.59,0,0,0-1.14,5c.36.07-2.3-2.65-6.48-3.73-2.72-.33-4.1-3.72-4-3.73A5.7,5.7,0,0,1,41,88.57,19.32,19.32,0,0,0,44,89.87s-.25-1.37-.35-1.74c-.51-1.89-.48-2.18.25-2.58,1.81-1,2-2.72.59-4.31a3.1,3.1,0,0,0-1.14-.87l.89-3.56s-.81.17-1.47.37c-1.89.58-1.75.6-2.55-.32-1.76-2-4.44-1.63-4.84.69,0,.25-.16.66-.16.66l-4-2a42.77,42.77,0,0,0,1.17,4.16c-3.53,2.75-.55,5.19.42,5.44,0,0-.83,2.64-1.11,3.73l4-1.14a3.89,3.89,0,0,0,1.57,1.87c.22,2.25,1.95,4.06,3.14,5.15a4.16,4.16,0,0,1,.06,1.34c-.25,1.31,1.07,3.38,1.29,3.5C36.2,98.06,30.51,95.37,25,92.73l.34,67.79s1.28,1.15,3.82,3c1.22.88,1.22.88,1,1.89-.34,1.33-.26,2.35.88,11.12.6,4.64,1.25,9.45,1.83,13.76a23.55,23.55,0,0,1,.27,2.58c-1.21-.57-3-.62-3.9.41a2.78,2.78,0,0,0,2,4.63,2.39,2.39,0,0,0,1.35-.5.77.77,0,0,1,.64,0l-3.48,6.14,4,6.77,4-7.24-2.91-5.73a1.33,1.33,0,0,1,.68.17,4.09,4.09,0,0,0,1.28.37c2,0,2.45-.92,2.66-2.59,0-2.15-1.7-3.12-4-2.31a3.47,3.47,0,0,1-.78.16l2.47-23.64,1.32,1,.43-.23-1.15-1c.25-3.79-1-5.13-2.35-6.05,4.5-2.57,2.55-6.62-.44-7.87,0,0,1.95-1.14,2.34-2.34s.2-2.76-.17-5.77c-.28-4.63-1.28-14.21-1.28-14.21,3.93,3,8,6.16,11.77,9.16l7.6-10.6,18.34.13s13.94,12.69,21,19.16l6.06.05s.06.65.12,1.08c.58,6.27,4.77,10.58,8.59,13.59,1.55,1.41,5.39,5.09,5.39,5.09l-7.12,7.2L63.88,138.74s-.21-.57-.3-.92c-1-4.14-3.74-5.87-6.22-5.58s-4.84,2.89-4.73,7.27a15.22,15.22,0,0,0,.26,1.88l-8,33.3s-3.18-2.44-4.9-3.61l-.38.22,4.66,3.51.35-.15,1.32,1,.1.71c4.09,2.79,11,8,11,8,3.26-2.43,6.7-1.62,10.14-.7a16.54,16.54,0,0,0,3.83.83,57.91,57.91,0,0,1,19,3.75L67.18,229l43.62.09c-2.15-8.53-4.43-17.18-.35-31.72-4.3-.87-13.87-4.71-13.87-4.71s0-.22.36-.72c1.77-2.53,6.24-9.41,10.43-13.39.51-.36,7.82-7.47,7.89-7.7a1.67,1.67,0,0,1,.5-.79c.67-.45,2.46-2.15,2.46-2.15l-9.14-8a2.24,2.24,0,0,1-.53-.11c-1.28-.72-3.58-4.71-4.15-7.39-1.3-6.15,1.11-11,7.91-16,6.64-4.56,19.23-22.26,19.27-22.66,6.79,5.64,12.09,8.56,18.06,12.26-3.61,2.07-6.55,3.46-9.08,4.84-1.63.93-1.86,1.13-3.24.74-1.57,0-2.11.61-1.71,2,2.37,3.76,1.35,12.52-1.86,14.21a9.14,9.14,0,0,1-7.73.24c-1.73-.56-1.7-.56-2.48,1a11.14,11.14,0,0,0-.23,10.14c1.28,2.79,3.19,4.06,3.42.3.14-2.2,1.11-4.78,1.08-7.15a11.23,11.23,0,0,0,6.43,4c2.14.34,4.42,3,4.35,4.13-.59.6-.77,1.36-.87,1.3-1-.34-3.3-1.3-3.3-1.3l1,3.41a3.09,3.09,0,0,1-.62.39c-2.13,1.09-2,4,.24,5.21.46.23.49.35.3,1-.28,1.39-.89,2.33-1.22,3.72a13.75,13.75,0,0,0,2.85-1.17l1-.47.6.65a2.69,2.69,0,0,0,4.29,0l.63-.66,1.77.9c1.67.85,2.11,1,2.11,1s-1-3.74-1.14-4.16a1,1,0,0,0-.44-.52c-.24-.09-.2-.15.43-.65,1.61-1.28,1.77-3,.4-4.37a5.78,5.78,0,0,1-.59-.62l.83-3.46-3.44,1.14a3.78,3.78,0,0,0-1.95-1.92c-.06-1.57-.25-3.17-2.93-5.62.9-.83-.18-2.82-1.06-4,1.51.51,5.28,2.11,5.28,2.11l.57,0,1.8.86.21.32s5.66,2.68,8.26,3.94c0-.14,0-3,0-33.84,0-18.42,0-33.56,0-33.66a10.24,10.24,0,0,0-1.31-1.07c-1.19-.9-1.43-1.07-3-2.09-1.21-.81-1.13-.8-.88-1.74s.28-2.56-.1-5.33c-.28-2-1.31-9.24-2-15-.5-4.08-.62-5-.74-5.64a9.07,9.07,0,0,1,0-2.39c5.68,2.47,6.13-5.72.43-4.61,1.09-2.21,2-3.24,3-5.59-1.19-2.57-3.83-6.91-3.83-6.91l-4.16,7.28,2.45,5c-2.82-.51-4.32,1.55-3.8,3.4A2.43,2.43,0,0,0,143,56.69c1.06-.42,1.06-.52.12,7.46-.28,2.36-1.51,13.4-1.68,15-.12,1.1-.19,1.41-.64,1.17a11.53,11.53,0,0,1-1.56-1l-.34.32c.54.44,1.18,1,1.84,1.61-.15,2.93-.09,4.62,2.33,6.05-4.4,2.76-1.82,7,.76,7.63-1.54.4-3.06,2.38-2.69,6.33l1.25,16.27-11.93-8.88-7,10-18.44,0L84.27,99.88s-4.56-.06-6.43-.1c.22-.1-.39-5.82-3.4-9.56-3.27-3.9-10.72-10.34-10.71-10.34l7.82-8,43.9,39.64s.22,1.12.33,1.6c1.47,6.25,8.57,6.63,10.07.26a16.77,16.77,0,0,0,.43-3.71,17.05,17.05,0,0,1,.49-2.33c2.36-9.28,4.37-17.29,6.7-26.21.32-1.22.66-2.59.75-3,.38-1.81.33-1.8,2.21-.38,1.16.88,1.64,1.19,1.64,1.19l.36-.38c-1.29-1-3.51-2.61-3.51-2.61l0-.69c-7.13-5.12-8.59-6.48-12.82-9.83-3.27,2.89-7.94,1.72-10.87.7-.76-.3-2.62-.79-2.62-.79A61.84,61.84,0,0,1,88.86,62l23.36-41.72h-9l-.32.36H98.19l0-.36Zm86.13,137.21ZM94.05,21.19l3.19.06L78.34,55.08l-2-.79s.18-.1.18-1.52a4.31,4.31,0,0,0-1-3.09c-.58-.78-.82-.83.86-.59a4.45,4.45,0,0,0,4.53-6.22c-.53-1.13-.46-1.2.94-1.34a4.5,4.5,0,0,0,2.62-7.71c-.56-.51-.31-.84.74-.61,3.32.72,5.9-3,4.58-5.88-.43-.81,0-.94.56-1a4.66,4.66,0,0,0,3.72-5.12Zm-25.47,0H83.37c-2,3.05,1.53,4.86,2,4.65-3.19,1.74-2.31,4.21-.66,5s4,.08,3.37-3.47l.79-.35c.77.88,1.54,6.29-4.33,5.54-1.05-.14-1.61.84-.74,1.38,4.64,5.35-2.62,7.72-2.94,6.83l0-.91c2,.37,4.47-2.17,2.27-4.43-1.25-1.28-4.89-.66-4.26,3.24-2.15-3.22-4.49-2.25-5.12-.55A2.55,2.55,0,0,0,76,41.61c-2.39,2-1.23,4.25.41,4.74,1.82.55,3.67-.19,3.17-3.5,0-.31.66-.21.71-.23,1.88,4.7-2.6,6.42-5,5.45-.89-.35-1.36,1-.41,1.75,1.45,1.07,1,4.15.83,4.18a42.35,42.35,0,0,0-6.39-1.72,58.29,58.29,0,0,0-.68-31.09Zm23.59,0H93.5a4.27,4.27,0,0,1-4.08,4.65,5.51,5.51,0,0,0-.15-1.55c1.22-.28,2.85.06,2.9-3.1Zm5.83.1,4.27,0L82.19,57.07,79,55.41ZM87.47,24a1.37,1.37,0,1,1-1.36,1.37A1.37,1.37,0,0,1,87.47,24ZM78.92,39.6a1.27,1.27,0,1,1-1.27,1.27A1.27,1.27,0,0,1,78.92,39.6Zm66.09,1,3.4,5.94-3.88,6.88-3.23-6.6Zm-.06,2-2.39,4,2.17,4.06,2.47-3.86Zm.05,1.7,1.23,2.39-1.5,2.43-1.25-2.56Zm-3.3,8a2.14,2.14,0,0,1,.82.18c2.29,1,1.56,4.45-.89,4.23a2.5,2.5,0,0,1-1-.41A2.24,2.24,0,0,1,141.7,52.37Zm5.6.07a2.23,2.23,0,0,1,1.1,4.14,2.46,2.46,0,0,1-3.14-.79,2.36,2.36,0,0,1,.86-3.06A2.44,2.44,0,0,1,147.3,52.44Zm-2.78,4c.2,0,.42,1,.62,2.69.07.61.26,2.15.43,3.41.31,2.7.64,5.21.92,7.81,0,.51.19,1.6.3,2.41,1.16,8.45,1.42,11.15,1.15,11.87-.73,2.51-4.16,2.71-5.59,1.24-1.08-1.1-1.24-2.32-.81-5.48.24-1.83.34-2.75,1.07-9.73.17-1.64.41-3.81.54-4.84.29-2.73.63-5.29,1-8C144.25,56.85,144.38,56.41,144.52,56.42ZM88.41,62.7s11,3.63,19.32,3.46a6.76,6.76,0,0,1,3,.49c.9.3,2.33.7,3.16.89a11.78,11.78,0,0,0,6.84-.46c.32-.13.78-.52,1.25-.37.28.08.69.65.69.65-7.3,2-24.41,1.59-35.05-2.91Zm56.37,1.15s-.09.07-.14.16c-.18.28,0,2.14.63,8,1.27,11.3,1.27,11.54-.27,12.72-.76.59-.88.82-.51,1s.25.16.8,0c1.29-.36,1.83-1.39,1.82-3.5a36.7,36.7,0,0,0-.53-5.73c-.17-1.37-.41-3.29-.52-4.28-.84-7-1-8.5-1.28-8.46ZM87.3,65c10.93,3.92,22.34,5,36.1,2.91,0,0,1.32.86,2,1.28l-.46.11.2,1.91,2.34-.38s1.27,1,2.21,1.63c-12.27,3.76-32.08,3.11-44.31-2.34a7.43,7.43,0,0,1-.73-.48,4.45,4.45,0,0,1,.9-1.4l2.23.64.65-2-1.71-.63Zm2.87,2.44-.72,2,3.12.93.53-2Zm4.77,1.24L94.53,71l3.13.58.39-2.22Zm5.18,1.08L99.87,72l3.33.36.2-2.24Zm22.83,0-2.83.31.18,2,2.86-.34Zm-5,.56-2.8.19.1,2,2.82-.18Zm-12.63,0V72.6l2.87.11,0-2.21Zm7.9.27h-2.65v2.06h2.68Zm-30.71.36c.28,0,.93.63,1.2,1.35.53,1.4.29,3-.54,3.47-1.13.71-2.46-.39-1.68-1.39a1.22,1.22,0,0,1,.49-.39c.58-.19.72-1.11.4-2.7C82.34,71.18,82.4,71.07,82.52,71.07Zm4.23.54A76,76,0,0,0,125.82,74s-6.55,26.83-6.69,26.85Zm-5.8.08c.63,0,.74,1.06.18,1.62-.72.72-2.09.15-1.8-.76A3,3,0,0,1,81,71.69Zm3.4.62c.13,0,.38.25.76.78,1.33,1.79,1.44,3.79.25,4.71-1.4,1.07-2.42-.59-1.25-2,.3-.37.34-1.07.16-2.6-.06-.55,0-.83.08-.84Zm45.86.65a3,3,0,0,1,1,.38c.85.42,1.14,1,.74,1.52-.6.72-2.22-.7-1.92-1.67,0-.15.1-.22.22-.23Zm-1.28.94c.21,0,.55.41.95,1.2.25.51.4.66.82.81,1,.37,1.2,1.42.31,1.73s-1.68-.36-2.12-2.06c-.3-1.13-.23-1.71,0-1.68Zm-42.3.75c.15,0,.43.32.87,1,1.33,2,.87,5.71-.79,6.59a1.36,1.36,0,0,1-1.84-.29c-.86-.86-.65-1.55.63-2,1.09-.4,1.44-1.64,1.1-3.9-.13-.91-.13-1.35,0-1.36Zm6.3.62C101,82,108.29,89.11,117.69,97.47c2.23-6.89,5.48-21.19,5.49-21.24C122.83,76.53,107.4,78.72,92.93,75.27Zm30.25,1s0,0,0,0Zm5-.94a4.94,4.94,0,0,1,.75,1.92,4.67,4.67,0,0,0,1.31,2.27c1.59.27,2.27,1.16,1.48,2-.58.58-1.83.25-2.43-.64-1.13-1.66-1.9-5.5-1.11-5.5Zm-90.1.92a2.12,2.12,0,0,1,2.11,1.86c.27,1.46-.55,2.52-1.24,2.35s-1-1.48-1-1.48a5.36,5.36,0,0,1-.49,1.47c-.68,1-2.1-.5-1.85-2a2.52,2.52,0,0,1,2.48-2.21Zm57.47.38a96.38,96.38,0,0,0,26.86.53l-5,19.25Zm-6.64,0c.13,0,.4.25.82.69,1.36,1.45,1.76,3.46.87,4.46-.54.6-.91.67-1.48.28-.73-.5-.79-1.26-.12-1.61s.68-1,.19-2.37c-.37-1-.47-1.46-.28-1.45Zm-57.37.5,3.21,1.33,1.15,2.73-3.2-.83Zm12.15.36-1,2.71-2.47.93,1-2.94Zm83.81.57c.12,0,.3.34.51,1,.53,1.75.76,2.19,1.24,2.43a.89.89,0,0,1,.1,1.67c-.47.22-.63.18-1-.27a6.55,6.55,0,0,1-1-3.19c-.07-1.11,0-1.69.14-1.69ZM91.74,79.27c.1,0,.23.13.44.37,1.25,1.49,1.38,3.77.26,4.46s-2.59-.71-1.65-1.49l.44-.35c.26-.2.28-.32.31-1.61,0-1,0-1.37.2-1.38Zm9.49.16,15.38,14,3.53-13.87A109.87,109.87,0,0,1,101.23,79.43Zm-37.79.71c4.86,5.14,11.22,9.3,12.73,14.42a17,17,0,0,1-5.62,19.9,60.13,60.13,0,0,0-9.77,8.82c-4.68,5-7.81,10.46-10.93,14.42-.53.67-1.93,2.76-1.93,2.76s-.68.79-3-1.14C38.89,133.91,32.52,130,26,126.25l2.74-1.54A125.34,125.34,0,0,1,47,137.34s4.81-7,6.34-9.06c2.23-2.9,3.79-4.76,5.86-7,5.3-6.56,10.76-8.73,13-12a14.45,14.45,0,0,0,.73-15.55c-2.7-4.69-8-7.91-11.45-11.8Zm46.13.38h6s-.88.73-1.56,1.19c-.42.28-.92.24-1.86-.15s-2.59-1-2.59-1Zm6.88,0,1.41,0a22.58,22.58,0,0,1-3.53,3.34c-.19.08-.29.12-.71,0-2.88-1-5.51-2.17-8.31-3.31l2.49,0s1.2.39,3,1.14c2.07.86,2.6,1.12,3.4.6s1.41-1.29,2.24-1.77Zm2.84,0-.5,1.84a34,34,0,0,1-4,3.46c-.33.17-.32.2-1.77-.36A84.89,84.89,0,0,1,105.14,82l-1.09-1s1.4.4,2.32.76c.62.25,1.69.66,2.37.91s2.18.89,3.19,1.29c2.31.92,2.18.94,4.4-1a33.72,33.72,0,0,1,3-2.47Zm-81,.17,2.33,2.68L37.54,86l-2.35-2.77Zm88.5,0a11.2,11.2,0,0,0,1.77,3c.66.63.82,1.11.43,1.47-1,.63-1.19-.39-1.5-1-.56-1.17-1.23-2.75-.7-3.46ZM42.47,81h.19c2.48,0,3.07,3.72.73,4.61a2.27,2.27,0,0,1-2.32-.35c-.51-.51-.58-.94-.23-1.2a4.22,4.22,0,0,1,1.82-.41A14.55,14.55,0,0,1,41,82.92c-1-.59-.13-1.9,1.5-2Zm51.22,0c.14,0,.38.3.72.86,1.26,2.08,1.19,6-.12,7a1.48,1.48,0,0,1-2.09-.19c-.75-.83-.52-1.67.59-2.17s1.3-1.54.86-4.18C93.5,81.41,93.51,81,93.69,81ZM33.33,81a2,2,0,0,1,1.81.85c.27.43.14.75-.36,1a12.76,12.76,0,0,1-1.75.46,10.82,10.82,0,0,1,1.79.45c.84.37.77,1.06-.46,1.65-2.37,1.13-4.61-2-2.66-3.74A2.59,2.59,0,0,1,33.33,81Zm62.39,1.49h0c.22,0,.62.34,1,.88,1.41,1.88,1.66,4.7.45,5.25S95.07,88,96,87c.65-.74.57-1.82-.29-4-.13-.32-.1-.47,0-.49Zm30.54.09c.11,0,.31.44.64,1.35.72,2,1.33,2.85,2.07,2.85a1,1,0,0,1,.69,1.8c-1.45,1-3.35-1.48-3.49-4.59,0-.93,0-1.4.09-1.41Zm-7.66,1-.43,1.64s-1,1-1.7,1.58c-1.12,1-1.4,1.16-2.28.86-1.37-.47-2.72-.9-4.14-1.33l-3.29-2.73,7.5,2.94s.65.19.88,0c1-1,2.06-1.75,3.46-2.92Zm7.07,1.53c.1,0,.19.1.26.4.34,1.55.83,2.66,1.24,2.84a.81.81,0,0,1,.51,1.14c-.64,1.34-2.32-1-2.32-3.27,0-.64.15-1.07.31-1.11Zm-27.07.11c.1,0,.24.13.47.37,1,1,1.36,3.91.52,4.75-1.2,1.2-2.49-.59-1.32-1.85.31-.33.31-.35.24-1.83C98.46,85.67,98.45,85.26,98.6,85.25Zm-62.82.29L35,88.24l-2.59.67.6-2.22Zm3.1.27a1.17,1.17,0,0,1,.69.25,2.38,2.38,0,0,1,.65,3,2.26,2.26,0,0,1-2.38,1.12A2.16,2.16,0,0,1,35.78,88a2.28,2.28,0,0,1,.74-1.68c.31-.22.56-.13.83.32S38,88,38,88a8.31,8.31,0,0,1,.15-1.53.81.81,0,0,1,.7-.67Zm2,.24,1.88.64.74,2.56-2.1-.82Zm107,.48A22.13,22.13,0,0,1,151,88.8c.64.51,1.72,1.48,1.72,1.48l-.06,33.37-6.09-3.79.32-2.92s.84-8.83,1.48-13.45c.44-5.16,1.43-6.64-2-8.82,3.7-2.33,2.66-6,.33-7.47Zm-30.18.13-.34,1.52c-1.22,2.09-2.31,2-4.18,1l-2.24-1.91a34.66,34.66,0,0,1,3.65,1.21,1.25,1.25,0,0,0,1.46-.37c.57-.52,1-.91,1.65-1.47Zm-16.61.8c.76.83,1,1.65.9,3.67-.15,1.44-.09,2.51-1.26,3.32a2,2,0,0,1-2,0c-1.06-.72-.47-2.15.92-2.22.88,0,1.24-2.9.74-4.7-.07-.28,0-.47.09-.48a1.05,1.05,0,0,1,.63.41Zm23.8-.11c.18,0,.48.44.66,1.15a2.67,2.67,0,0,0,1.19,1.92c.74.37,1,1.09.51,1.52-.94.85-1.89-.17-2.2-2.34C125,89.36,124.6,87.37,124.88,87.35Zm20,.35A3.14,3.14,0,0,1,148.18,91a3.41,3.41,0,0,1-2,3.11c-3.06.91-4.73-1.15-4.7-3.14A3.33,3.33,0,0,1,144.92,87.7Zm-42,1.16c1.75,1.76,1.83,5.52.12,5.52-2.06-.69-.45-1.9-.41-2.22a8.15,8.15,0,0,0-.44-3.33C102,88.11,102.71,88.65,102.9,88.86ZM145,88.69c-.37,0-.34.36.33.94a1.67,1.67,0,0,1-.92,3c-.71,0-.89.49-.27.74,2.41,1,4-2.69,1.89-4.22A2.21,2.21,0,0,0,145,88.69Zm-91.82.49c1.93.66,2.6,4.36,2.67,5.66.09,2.27-1,6-1.9,6.71-2.43,1.92-3.57-4.86-1.49-9.22a2.81,2.81,0,0,0,.32-1.73c-.08-.89.07-1.41.4-1.42Zm63.85.36a12.08,12.08,0,0,1-.5,1.71c-.3.7-.52.73-1.22.13-.39-.34-1-1-1-1,.61.1,1.15.42,1.66.16A2.9,2.9,0,0,0,117.06,89.54Zm7.33.06c.14,0,.32.39.55,1.15.63,2.09,1.19,2.88,2,2.88a1.07,1.07,0,0,1,.38,2.1,1.71,1.71,0,0,1-1.26,0c-.93-.25-2.2-3.4-2-5,.09-.75.19-1.13.32-1.12Zm-85,1.22c.51,0,.71.23,1,.85a5.25,5.25,0,0,0,2,2c1.81.89,3.72,1.59,5.52,2.49,2.32,1.17,4.41,4.76,3,5.13a5.31,5.31,0,0,1-1.64.08,2.94,2.94,0,0,1-.75-.88,9.86,9.86,0,0,0-6.1-4.24c-2.16-.56-4.09-3.22-4.51-4.48-.1-.32-.11-.57.18-.66a5.4,5.4,0,0,1,1.33-.28Zm65.56.21c.1,0,.24.11.46.34,1.28,1.38,1.44,3.9.29,4.62s-2.35-.51-1.37-1.6c.44-.48.43-.48.44-1.92,0-1,0-1.41.18-1.44Zm18.69,1.61c.15,0,.38.43.66,1.27.4,1.19.45,1.29.91,1.52.76.4.89,1,.32,1.56-1,1.05-2.1-.64-2.1-3.38,0-.66.07-1,.21-1Zm-16.78.19a1.36,1.36,0,0,1,.57.46c1.57,1.87,1.26,6.25-.5,6.91-.58.22-.76.23-1.13.07-1.3-.57-1.14-2,.47-2.83C107.43,96.78,106.57,92.84,106.82,92.83ZM26.43,94.2l6.49,3.24s1.78,3.75,2.6,5.16c.56,1,1.69,1.92.52,2.58-1.95,1.32-3.06,2.08-3,2.9s.84,1.35,2,2.67c1.59,1.88,1.58,1.45.13,4.33A32.12,32.12,0,0,0,33,121.67l-6.56,3.39a40.56,40.56,0,0,1,6.82-11.5,30.42,30.42,0,0,1-5.19-4.88,37.53,37.53,0,0,1,4.38-4.45,28.76,28.76,0,0,1-6-10Zm82.1.06h0c.27,0,.89.7,1.44,1.79.7,1.41.77,3.18.14,3.81-1.08,1.08-2.49-.31-1.47-1.47.71-.52.51-1.81-.05-3.15-.26-.65-.25-.95-.1-1Zm-82.82.63a61.68,61.68,0,0,0,5.52,9.31L27,108.64a45,45,0,0,0,5.09,5c-2.72,3-4.5,7.27-6.28,11.28Zm97.17.08c.14,0,.35.45.56,1.33.27,1.1.46,1.39,1.1,1.66,1,.44,1,1.43,0,1.79-.36.13-1-.24-1.34-.73a5.34,5.34,0,0,1-.56-2.47C122.62,95.49,122.71,95,122.88,95Zm23.42.67c1.6.45,2.18,2,1.86,5-.41,4-.9,8.4-1.3,12-.46,4.22-.84,6.9-.84,6.9l-.39-.31s.11-2.28.26-3.68c.36-3.14.55-5.9.86-9,.68-7,.51-9.21-.75-9.86-1-.5-1.4-.2-.68.48,1.38,1.06,1.33,1.5-.14,18.73-.15,1.79-.21,3-.21,3l-1.86-1.16s-.14-1.48-.32-3.71c-.42-4.2-.66-8.68-.94-12.71-.3-4.29.5-5.8,3.16-5.9a4.29,4.29,0,0,1,1.29.13ZM112,98.14c.2.56,1.13,4.8-1.24,3.58-.63-.35-.67-.91-.2-1.46a3,3,0,0,0,.38-2.73c-.16-.76-.35-1.39-.35-1.39.46.17,1.35,1.85,1.41,2ZM41.55,96.81a11.21,11.21,0,0,1,5.63,3c.88.94.83,1.69-.54,1.78s-1.36.41-2-.14a3.47,3.47,0,0,0-1.47-.87C41.18,100.29,40.16,96.54,41.55,96.81Zm80.93,1.11a10.49,10.49,0,0,1,.41,1.49c.3,1.34,1.22,2.33,2,2.21.56-.07,1.32.1,1.41.77a1.11,1.11,0,0,1-.75,1.34,1.92,1.92,0,0,1-2-.45c-1.24-1.16-2-5-1.07-5.36Zm-9.64,0c.72.28,1.63,2.58,1.73,4.42,0,1.31-.2,3-1.33,3.58a1.25,1.25,0,0,1-1.78-.44,1.36,1.36,0,0,1,.72-1.94c1-.45,1.33-2.49.72-4.48,0-.34-.54-1.28-.06-1.14Zm-76.59,1,5.29,2.69a13.1,13.1,0,0,0-1.79,3.14A23.26,23.26,0,0,1,36.25,98.93Zm78.58.92c.09,0,.39.29.66.55,1.32,1.28,1.89,3.61,1.09,4.46-.64.68-1.75.63-1.94-.08a3,3,0,0,1,.47-1.32,4.39,4.39,0,0,0-.08-2.79C114.86,100.23,114.71,99.85,114.83,99.85Zm-36.76.53,6,.2,20,18.1-1.88-.05L83.79,101.81l-5.72,0Zm-34.44,3.26a14.47,14.47,0,0,0-1.51,12.3c1.07,2.89-1.26,3.06-2.21,1.16a13.16,13.16,0,0,1-.93-6.55c.31-4.27,2.28-8.55,3.85-9.07s1.25,1.57.8,2.16Zm82.06,8.75c-.61,2.85-1.73,4.26-3.33,4.86-6.54,2.42-9.38-10.81-3.32-14,5.78-1.93,7.45,5.35,6.65,9.11Zm-48-8.64,5.64.12c5.14,4.69,10.66,9.06,16.16,14.76H96.85l-1-.92c-5-4.45-8.66-8.09-13.45-12.22l-5-.14Zm43,.87c-3,.13-3.29,4.27-3.2,5.84.22,2.26,1.12,5.6,4,5.34,2.1-.21,3.07-2.71,2.88-5.7-.18-2.82-1.33-5.48-3.65-5.48ZM77.19,106l5,.11c4.36,3.81,9,8,13.55,12.52H93.53s-.57-.54-.73-.71c-3.71-3.36-7.48-7.11-11.08-10.13l-5.13-.2Zm43.62.16c.86.32,1,2.44.25,3.31-.52.6-1.71-.53-1.81-2A1.25,1.25,0,0,1,120.81,106.16ZM39,106.42a25,25,0,0,0-.82,4.57l-2.07-2.64ZM122.38,109a.92.92,0,1,1-.92.92A.92.92,0,0,1,122.38,109Zm-41.57.46,9.86,9.3-2.81,0-8.08-7.36-5.14-.19,1-1.75Zm38.35.16a.92.92,0,1,1-.92.92A.92.92,0,0,1,119.16,109.59Zm11.73,0a190.55,190.55,0,0,0,21.56,14.74,9.6,9.6,0,0,1-2.58,1.4,124,124,0,0,1-18.57-12.47c-4.41,6.52-12.89,18.37-20.42,23.85-4.76,3.41-7.15,7.61-7.14,12.53,0,5.09,1.81,8.4,6.79,12.56,3.22,2.69,6.74,6.12,6.74,6.12l-1.85,1.6a109.38,109.38,0,0,1-10.55-9.62c-2.83-2.85-4.09-9.11-3.6-12.48.65-4.59,2.18-7.88,6.51-11.43a45.79,45.79,0,0,0,4.82-3.77c13.48-14.46,18.29-23,18.29-23Zm-9,2.36c.51,1,.79,2.43-.81,2.52-.94.06-1.48-1.52-.66-2.93.62-1.11,1.17-.17,1.47.41Zm-47.5-.28,5.32.16s5.25,4.59,7.9,7.13h17.83c9.8,0,17.86,0,17.9.09s-1.26,2-1.26,2l-58.8,0s3.63-3.24,4.93-4.15a29.14,29.14,0,0,0,6.18-5.25Zm-36,2.22a22.33,22.33,0,0,0,1.37,4.19l-4.08,2.17a46.17,46.17,0,0,1,2.71-6.36ZM151.7,125.75a45.28,45.28,0,0,1-5.5,10.16c-.51.66-.86,1.17-.86,1.17l5,4.81L146,146.52a28.41,28.41,0,0,1,5.59,9.54,37.14,37.14,0,0,1-5.5-2.61c-.69-1.72-1.39-3.55-2.16-5.13-1.77-3.6-1.75-3.25-.3-4.31,2.11-1.55,2.74-1.91,2.19-2.69-.38-.55-2.88-3.53-3-3.62s-.13-.58.3-1.29a40.46,40.46,0,0,0,3.37-8Zm.94.18.13,30.27c-1.79-3.62-3.65-7.31-5.73-9.62-.07-.16,4.53-4.67,4.53-4.67-1.68-1.57-2.67-2.51-5-4.69C148.84,133.9,150.65,129.56,152.64,125.93ZM25.81,127l5.74,3.34c-.31,4.27-.69,9.87-1.28,15.56-.49,4.44-.69,6.48.09,7.71a9.72,9.72,0,0,0,2.46,1.88c-3,1.22-4.18,4.83-.8,7.54a14.65,14.65,0,0,0-1.19,1l-4.7-3.52Zm89.75,1.53a34.25,34.25,0,0,1-5.39,5.13,34.52,34.52,0,0,0-5.36,4.48s-3.38,0-5.66-.11l-7.89-7s.28-.11-10.45,0c-13.87.11-25.11,0-25.11,0l1.58-2.22Zm28.11,1.39a25,25,0,0,1-3.5,7,17,17,0,0,0-1.29-4.48Zm-111.39.8.68.49s-.41,5.22-.54,6.75c-.24,2.83-.36,5.37-.61,8.25-.49,5.71-.41,6.56.71,7.44.86.64,1.44.35.68-.47a2.28,2.28,0,0,1-.65-1.58,23.83,23.83,0,0,1,.06-4.34c.85-15.09,1-15.6,1-15.6l1.71,1.11c-.09.23,1.57,15.21,1.4,18.94-.2,4.35-6,3.39-6.32.16-.11-.74,1-13,1-13Zm47.66.88,2.3.06,14.15,13.05,4.82.11-.42,1.64H96.13Zm8.78,0h2.22l8.1,7.36,5,.08-1,1.42-5-.15Zm-2.77,0,12,10.82,4.09.22-.63,1.48L96.54,144,83.09,131.61Zm-11.54,0H76.9l18.71,16.9,4.91.09-.08,1.52-5.9,0Zm63,.48c1,.24,1.47,1.2,2.17,4.76.81,4.16-.95,10.9-3.15,12.16-1.14.9-2.38-.05-1.58-1.23,2.63-3.83,3-10.1,1.42-13.6C135.76,133.07,136.27,131.9,137.39,132.11Zm-79.4.62c6,.07,7.52,12.39,1.64,14.12-3.82.56-5.79-2.91-6.34-6C52.63,136.92,54.34,132.69,58,132.73Zm-3.29,7.39c.36,2.47,1.88,5.3,4.1,5,2.92-.31,3.29-4.22,3-6.19-.35-2.37-1.65-4.52-3.74-4.64C55,134.16,54.43,138.22,54.7,140.12Zm3.21-4.8c.83,0,1.45,1.11,1.22,2.5-.15.89-.49,2-1.5,1.25a3.64,3.64,0,0,1-.77-2.63c.07-.62.37-1.1,1-1.12Zm82.46,2.85,2.8,3.26L140,143.67A15.09,15.09,0,0,0,140.37,138.17Zm-80.43.3a.92.92,0,1,1-.91.92A.92.92,0,0,1,59.94,138.47Zm-3.27.56a.92.92,0,1,1-.92.92A.92.92,0,0,1,56.67,139Zm1.85,1.19a2.05,2.05,0,0,1,1,.93,2.33,2.33,0,0,1,.26,2.54c-.88,1.05-2.26-.07-2.09-1.69.12-1.19.44-1.9.83-1.78Zm7.84,3.59a1.22,1.22,0,0,1,.55,2.31c-.73.5-.9,2.1-.44,4.33.37,1.6.17,1.85-.78.4-1.63-2.62-1.21-7,.67-7Zm-3.07.85c1.15,0,1.52.84.85,1.51a2.79,2.79,0,0,0,.08,2.55c.63,1.37.48,1.79-.68.47-1.61-1.73-1.59-4.48-.25-4.53Zm76.13.67a30.19,30.19,0,0,1,3.53,6.59l-5.67-2.61Zm-82.79,7c-.4-.46-.59-2-.92-2.61s-.48-1.23-.89-1.2c-2.4.2-2.3-2.09-.92-2.53,2.84-.9,3.88,6,2.73,6.34ZM68.51,150c-.41,1.2-.11,1.92,0,3.2.08.59.11.74-.37.29-1.14-1-1.74-4.38-.72-5C68.77,147.66,69.18,149.08,68.51,150Zm56.76-1.61a1.66,1.66,0,0,1,1.5,1.2,14.49,14.49,0,0,1,.18,5.46c-.35,2.29-.9,4.39-1.12,6-.81,1-2.78-2.43-3-5.1-.31-2.12.42-6.51,2-7.44a.81.81,0,0,1,.37-.09Zm7.65.36c.5,0,.38.14.75.53a2.84,2.84,0,0,0,1.57,1c1.63.52,3.41,2.79,2.72,3.48-.54.43-2-.39-2.53-.56l-1.51-.52c-1.36-.46-3.32-3-2.71-3.48a3.79,3.79,0,0,1,1.71-.42Zm-4,.42c1,0,1.28.26,1.86,1.34a7.24,7.24,0,0,0,4.74,3.4c2.94.9,5.47,2.61,5.35,5.78a7.21,7.21,0,0,0-2.1.27,6.4,6.4,0,0,0-4.58-4c-4-.92-7.75-5-6.69-6.63a2.78,2.78,0,0,1,1.42-.15Zm-69.33.2,34.72,30.33c-14.66-5.45-28.1-5.34-41.1-3.32Zm14.8,2c-.06,1-1.35,1.15-1.62,1.38-.65.57-.56,2.21-.29,4.11.22,1.15-.07,1.1-.67.2a7,7,0,0,1-.33-6c.9-2.09,3-1.05,2.91.27Zm-20-1.48c1.33.14,1.69,2,1.75,3.16,0,1.66-.47,1.6-.73,0-.13-.71-.35-1-.92-1.15C53.27,151.53,53.19,149.91,54.47,149.91Zm16.13,1.86c-.34.37-.35,2.13,0,3.31.17.66-.14.71-.58.19-1.44-1.69-1.57-4.55-.24-5.11,1.09-.28,1.37,1.05.86,1.61Zm-15,3.38c0,1.69-.35,1.85-.86.23a2.13,2.13,0,0,0-.52-.87c-1-.65-1.12-1.15-.57-1.7C55,151.71,55.56,154.65,55.58,155.15Zm5.07-1.48-4.71,20.14c11.59-1,16.86-1.18,29.24,1.24Zm14,.33c.71.18,1,1.11.13,2-.27.35-.53.89-.2,2.31.46,2-.3,1.33-1.23-.51C72.8,156.6,73.07,153.59,74.69,154Zm-22.16.06c1.26,0,2.42,2.05,2.44,4.29,0,1.82-.24,1.69-.91,0-.48-1.14-.86-1.56-1.71-1.86-1.59-.55-1.45-2.38.18-2.38Zm8.5.58,21.81,19.12a92,92,0,0,0-26.21-.47Zm18.15.72c1.71,0,2.39,2.12.29,2.86-1.25.45-.72,3-.49,4.49.09.57-.09.61-.45.1-1.32-1.95-2-6.87.65-7.45Zm-2.31,2.39a2.39,2.39,0,0,0-.13,2c.56,2,.7,2.43-.46,1.39-1.22-1.3-1.75-3.85-.73-4.61s2.18.09,1.32,1.26Zm-43.09-1.58c2,0,3.5,1.3,3.42,3.13A3.27,3.27,0,0,1,34,162.7a3.23,3.23,0,0,1-3.39-3.26,3.06,3.06,0,0,1,3.17-3.27Zm0,.81a2.45,2.45,0,0,0-1.27,4.47c.83.61,1.48.43.8-.21a2.07,2.07,0,0,1,.91-3.59c.83-.18.51-.67-.44-.67Zm28.2.52-2.78,13.56A78,78,0,0,1,77.1,171Zm-9.39.51c1.39-.07,1.79,2,1.81,2.86,0,1.08-.13,1.64-.33,1.06-.47-1.36-.93-2.1-1.43-2.1a1.33,1.33,0,0,1-.72-.43.85.85,0,0,1,.67-1.39Zm9.65.55,1.84,1.56c-1.18-.52-2.19.83-2.19.83Zm18.92,2.56c-.53.67-.53,2.09-.11,3.74.11.46-.32.12-.75-.43a4.41,4.41,0,0,1-1.06-3.26c.16-2.52,3.36-2,1.92,0Zm-29.08-1.21c1.19.13,1.64,2.62,1.61,3.38s-.22,1.32-.37.84a6.56,6.56,0,0,0-1.49-2.88c-.94-.59-.67-1.26.25-1.34Zm91.09,2.79a2.32,2.32,0,0,1-.86,2.07c-.55.29-.89-.11-1.22-1.12l-.33-1s-.2.93-.26,1.13c-.43,1.29-1.84,1.3-2.42-.14-.63-1.69,1.12-3.41,2.46-3.35a2.58,2.58,0,0,1,2.63,2.44Zm-79.46-1.88a10.88,10.88,0,0,1,2,.73L67.33,163s-1.48-.65-2-.83c-1.25-.45-1.23-.45-2.24.38S61.2,164,61.2,164l.32-1.84s1.52-1.34,2.16-1.34Zm-10.59,4.52c.24,1.94-.31,2.11-.83.25-.45-1.59-.9-2.17-1.66-2.17a1.21,1.21,0,0,1-.62-2.31C52.37,160.44,53,164.57,53.09,165.34ZM135,161.07l2.2,1,.47,2.29-2-.5Zm-49.43.21a1.3,1.3,0,1,1,.76,2.46c-1,.23-1,1.78-.7,4,.06.51.2,1.13.17,1.22-.15.4-.66-.22-1.34-1.65-1-2.62-.7-5.54,1.11-6.05Zm60.67,0-.61,2.65-1.87-.13-.07-1.62ZM83.44,163c-1,1.49-.11,2.86.12,4,0,.68-.83,0-1.33-1-1-2.05-1.1-3.71-.17-4.45C83.38,160.8,84,162.18,83.44,163Zm-19.14-.36a7.13,7.13,0,0,1,1.88.6l2.58,1,2.38,2.11s-2.09-.77-3.55-1.39c-3.28-1.39-2.81-1.43-5.4.55-.75.57-1.53,1.22-1.53,1.22L61,165a20.3,20.3,0,0,1,2.2-1.86c.53-.38.77-.57,1.13-.57Zm-30.52.8A3.38,3.38,0,0,1,37,166.2a7.48,7.48,0,0,1,0,2.5c-1.16,8.91-1.67,17.17-2.73,25.42-.13.39-.28.25-.45-.46-1.23-7.48-2-15.69-3.07-23.1-.24-2.76-.95-6.38,2.54-7.09l.54-.06Zm-.1,1a2.42,2.42,0,0,0-1.93,1.2c-.63,1.34-.47,4.07.74,12.26.1.68.24,1.82.31,2.53a17.81,17.81,0,0,0,.71,4.22c.39.62.44,0,.16-2.17-.14-1.08-.34-2.74-.44-3.69-.54-3.88-.66-6.64-1-10.19-.17-1.74.53-3,1.84-3.37.71-.19.75-.51.08-.73a1.47,1.47,0,0,0-.48-.06Zm111,.11a2.45,2.45,0,0,1,1,4.66c-.9.45-2.39.24-2.76-.48a.83.83,0,0,1,.47-1.12,9.43,9.43,0,0,1,1.33-.54s-1.3-.25-1.66-.87c-.79-1.33.66-1.62,1.66-1.65Zm-92.26,3.71c0,.65-.36.39-.44,0a5.06,5.06,0,0,0-1.28-2.17c-.56-.45-.69-1.06-.31-1.44,1.42-1.26,2,3.21,2,3.61Zm83.2-3.72a2.89,2.89,0,0,1,2,.74c.69.7.66,1-.51,1.39l-1,.37s.53.21.92.32c1.12.37,1.06,1,0,1.8-1.4,1-3.65-.35-3.62-2.19a2.23,2.23,0,0,1,2.12-2.43Zm5.17,0,2.24,2.48-2.62,2.72L138,167Zm-76.12.23h.1c.69,0,1.8.49,4.52,1.58,1.49.61,3.22,1.29,3.22,1.29L75,169.76a46.62,46.62,0,0,1-4.51-1.64c-.26-.13-.81-.37-1.24-.53s-1.48-.58-2.35-.93c-1.87-.75-1.89-.75-2.51-.22-.27.22-.92.74-1.46,1.14l-1.73,1.32c-.49.37-1.11.94-1.11.94l.39-2.09s.35-.34,1-.83l1.93-1.48c.56-.43.85-.69,1.33-.72Zm24,1.84c.07.43,0,.52-.47,1s-.71,1.7-.25,3.08a4,4,0,0,1,.25.86c-.67.66-2.42-3.55-2-4.81.51-1.51,2.15-1.53,2.48-.16Zm-38.44.18a1.4,1.4,0,0,1,1.26,1c.72,2,.28,4.53-.46,2.2a4.52,4.52,0,0,0-.78-1.28c-.26-.28-.84-.6-.83-1.05s.4-.9.81-.92Zm15,.06a5.12,5.12,0,0,1,1.39.44c.63.27,2.43.87,3.45,1.26,1.58.61,3.23,1.42,3.23,1.42l-3.58-.2s-1.22-.41-1.94-.71c-2.63-1.08-2.48-1.07-3.79-.08a14,14,0,0,0-1,.93l-1.83.1a17.73,17.73,0,0,1,2.1-1.83c.4-.3.95-.73,1.22-1a1.15,1.15,0,0,1,.8-.37Zm28,.71a1.28,1.28,0,0,1,1.48,1.36,1.88,1.88,0,0,1-1.61,1.48,11.3,11.3,0,0,0-.42,4.88c.26,1.16-.23,1.19-.73.07-.82-1.81-2-7.17,1.28-7.79Zm-2.85,2a4,4,0,0,0-.34,2.78c.26,1.27.32,1.59-.4.79-1.4-1.86-1.6-4.83-.32-5.17A1,1,0,0,1,90.48,169.5Zm-41.81-1.39c2.18.34,2.82,4.06,2.51,5.65-.57,1.93-.54.63-.75-.17-.53-1.94-1.15-3-1.81-3.11-1.79-.29-1.54-2.62.05-2.37Zm16.68.73h.11c.71.12,2.63.71,1.8.91l-2.83,0c-.55,0,.36-.9.92-.94Zm76.23.61c.27,0,.65.3,1.09.75,1,1,.56,2.65-.8,3.45a2.46,2.46,0,0,1-3.39-3.29c.64-1.19,1.42-1,2.08.71.12.2,0-.21.22-.73s.52-.87.8-.89Zm-3.58.12-.65,2.59-2.6,1.25.95-3.19Zm5.41.44,2.07.17,1.15,3.36-3-1.28Zm-49,1.9A1.16,1.16,0,0,1,95.2,174a2.53,2.53,0,0,0-.55,2.22c0,.48.14,1.06.13,1.13,0,.23-.2.2-.46-.09C92.73,175.55,92.94,171.85,94.41,171.91Zm-45.63.56c.95,0,2,2.75,1.5,3.8-.33.62-.66.46-.78-.25a1.51,1.51,0,0,0-1.16-1.36C47.22,174.3,47.59,172.47,48.78,172.47Zm48.38,1.66a1,1,0,0,1,.14,1.69c-.51.37-.64.68-.72,1.67.16,2.26-1.1.82-1.22-1.23C95.3,175.15,95.9,173.49,97.16,174.13Zm-49.19.7c.69,0,1.5,1.23,1.32,1.95s-.39.47-.81.05a2.54,2.54,0,0,0-.7-.31.85.85,0,0,1,.19-1.69Zm19.5.94c9.28,0,18.92,1.44,26.94,4.65l-.66,1.19-2.11-.73-.72,1.92,1.74.66-.82,1.77c-9.46-3.13-19.67-5.45-36.62-2.93-.85-.59-2.37-1.75-2.37-1.75l1.36-.3L54,178.36,50.6,179l-1-1.05a74.79,74.79,0,0,1,17.87-2.15Zm31.11.42c.88,0,1.44,1,.78,1.43-.45.3-1.46.38-1.67.13C97.27,177.25,97.87,176.19,98.58,176.19Zm-32.42,1.17,0,2,2.8-.09.06-1.86Zm4.89,0v1.93l2.72.09.12-1.89Zm-7.1.13-2.75.19.09,1.79,2.72-.12Zm12.27.3-.07,1.86,2.77.3.2-1.88Zm-17.38.09-2.76.35.23,1.85,2.69-.3Zm22.72.6-.27,1.94,2.58.38L84.2,179Zm5.11,1.09-.26,1.95,2.62.56.35-1.82Zm-18.54,2.25a65.29,65.29,0,0,1,23.29,4A10.91,10.91,0,0,1,90.25,188a61.77,61.77,0,0,0-18.46-3.8,9.76,9.76,0,0,1-3.21-.38c-4.21-1.39-7.92-2-11.34.06l-1.4-1a78.65,78.65,0,0,1,12.29-1ZM31.41,193c2,0,2.94,3.08.84,4.37a2.15,2.15,0,0,1-1.9,0,2.27,2.27,0,0,1,.15-4.18,2.43,2.43,0,0,1,.91-.19Zm65,.1c.72.44,3.34,1.6,3.34,1.6L81.27,228.23l-4.47,0Zm-59.55.08a2.27,2.27,0,1,1-.08,4.53c-2.24-.13-3.24-4.16.08-4.53Zm63.5,1.74c.49.27,2.29.57,2.44.92.07.17-.07.51-.11,1a5,5,0,0,0,.81,3.18c1.06,1.47-.08.8-1.13.79-2.38-.61-5.4,2.63-4.25,6,.26.74.21.8-1.06,1.19a4.62,4.62,0,0,0-2.76,6.69c.72,1.43.74,1.36-.53,1.47-3.53.29-5.58,3.44-4.1,6.65.23.5.09.63-.69.78-2.41.44-3.49,2.46-3.79,4.68l-3.19,0Zm3.06,1.18,6.12,1.68c-2.54,8.68-2.89,18.76.17,30.43H95.6c2-1.76,1.18-4.2-1.1-4.73,2.22-1.28,2.22-4.68-.44-5.09-2.34-.36-3.55,1.87-2.51,4.1l-1,.28A4.44,4.44,0,0,1,90,222c-.88-2.58,1-5.14,4.11-5.13,1.94,0,2.35-.55,1.27-1.74a3.91,3.91,0,0,1,1.19-6.33,2.15,2.15,0,0,1,1.84-.19l.06,1.42-.84.1c-2.76.45-2.25,4.87.56,4.83a2.69,2.69,0,0,0,2.66-2.89v-1.17c1.42,2.44,3.86,2.61,4.9.63,1.22-2.34-1-3.81-3.22-3.57,0,0,.46-.3.76-.45A2.48,2.48,0,1,0,100,206.2c.1.28.32.74.32.74l-1.07.27a1.87,1.87,0,0,1-.36-.36c-1.83-2.87,1.12-6,4.83-5.33,1.36.43,1.32-.51.55-1.36-.82-1.23-1.43-2.62-.83-4ZM34.13,197.4l3.22,5.68-3.6,6.56-3.58-6.14Zm-.31,3-2.24,3.08L33.77,207l2.07-3.58Zm-.1,1.16,1.45,1.95-1.46,2.4-1.44-2.25Zm66.48,6.14A1.23,1.23,0,1,1,99,208.89,1.24,1.24,0,0,1,100.2,207.66Zm-8.66,15.42a1.27,1.27,0,1,1-1.27,1.27A1.27,1.27,0,0,1,91.54,223.08Zm-1.92.86a2.72,2.72,0,0,0,.28,1.62c-1.83.11-2.32,1.51-2.49,2.7H85.77c.27-4,3.73-4.1,3.85-4.31Z" transform="translate(0.1 0.1)"/><path id="path153-6-3-1-9-55-1-6" d="M48.06,26.47C40.72,37,32.85,43,32.72,51.19c0,2.65,1.39,7.15,5.87,8,2.91.56,6.92-1.8,7-6.58,0-1,1-.93,1,.37a27.22,27.22,0,0,1-3.34,11.76h9.63A27.08,27.08,0,0,1,49.54,53c0-1.3,1-1.33,1-.37.08,4.78,4.08,7.14,7,6.58,4.49-.86,5.92-5.36,5.87-8C63.27,43,55.41,37,48.06,26.47Z" transform="translate(0.1 0.1)"/><path id="path153-6-3-1-8-6-8-8-0" d="M130.52,223c-7.35-10.49-15.21-16.53-15.34-24.72,0-2.65,1.39-7.15,5.87-8,2.91-.55,6.91,1.8,7,6.59,0,1,1,.93,1-.37a27.2,27.2,0,0,0-3.33-11.76h9.62A27.35,27.35,0,0,0,132,196.46c0,1.3,1,1.33,1,.37.09-4.79,4.09-7.14,7-6.59,4.48.87,5.91,5.37,5.87,8-.13,8.19-8,14.23-15.34,24.72Z" transform="translate(0.1 0.1)"/></g></g></svg>