<svg id="svg4946" xmlns="http://www.w3.org/2000/svg" viewBox="0 0 178.79 249.65"><defs><style>.cls-1{fill:#fff;stroke:#000;stroke-width:1px;}.cls-2{fill:#131f67;}.cls-3{fill:#e2cf00;}.cls-4{fill:#d40000;}.cls-5{fill:#100f08;}</style></defs><title>13DIAMOND</title><g id="layer1"><g id="g7120"><rect id="rect7234-2" class="cls-1" x="0.5" y="0.5" width="177.79" height="248.65" rx="8.5"/><path id="path6351-0" class="cls-2" d="M24.29,19.8c.06,63.29-.05,140.91,0,209.85h130V19.8ZM62.34,21c22.44.61,45,0,67.62.13,0,0-8.21,14.4-10.7,18.94-.54,1-.6,1.7-.3,2.11a2.1,2.1,0,0,1-.1,2.35,1.34,1.34,0,0,0-.33.6c0,.16.13.34.24.63.4,1.38-.63,2.33-1.72,2.78a10.3,10.3,0,0,1-3.55.43c-7.5-.35-22.21-6.74-28.27-7.24C81,40.54,75.58,41,71.1,41.21c-.84,0-.69-1.93-.69-1.93C69.7,32.72,65.09,27,62.34,21Zm68.84.72h21.47v3.35l-9.09,9.21c-.84.86-1.5,1.57-1.5,1.57L142,44.15c-6.09-3.29-7.3-7.22-8.41-11.55-10.17,7.56-10.64,24.09.46,32.6.09-3.7,2.88-11,7.84-11.5L142,82.49l-6.1-6-13.25.18c2.18-3.57,2.23-6.41.82-9.76-2.38-5.46-6.06-17.95-5.78-17.9a.62.62,0,0,1,.41-.34,2,2,0,0,0,1.48-2.6c-.06-.41-.06-.31.22-.85a4,4,0,0,0-.2-3.87Zm-70.33,0,8,14.54a5.49,5.49,0,0,0-.06,1,3.69,3.69,0,0,0,.57,1.58,3.28,3.28,0,0,1,.41,1.26c.08.72.08.72,1.12,1.67.22.19.27.32.18.52-.34.88-.14,2.68.55,4.83.86,2.71,1.08,2.68-.53,6.31-.33.75-.74,1.77-1.17,2.7-2,4.1-2.3,5.22,1.11,7.4A1.91,1.91,0,0,1,72,66c-.19,1-.22,1.59.24,2.13.3.35.57.41.49.68a5.12,5.12,0,0,0-.2,1.67c.2,1.82-1.89,4.5-3.79,5.44-.38.27-.49-.06-.71-.44-2-3.48-6.88-2.07-7.21,2.08-.09,1.1-.05,1.57-.33,1.81a4.26,4.26,0,0,1-.39.24s-7.35,4.81-12,7.29c-.3.16-.57.43-.79.47a.59.59,0,0,1-.59-.15c-1.72-3.31-.76-7.21-.62-8.59,0-.5-.45-.58-1.08-.59a3.65,3.65,0,0,0-2.92,2.08c-.29.86-.47,1.42-.72,1.42s-.39-.35-1-1.59a17.88,17.88,0,0,0-2.78-4.41c-1-1.19-1.84-1.35-2.82-.46-.67.62-.65.08-1.23-.23-1-.69-2.49-.08-2.53.88,0,.81,0,1.41-.84,1.47s-1.3,1.23-1,2.9c.13.88.16,1-.11,1.34a2.84,2.84,0,0,0-.51,3.25c1.37,4.19,3.35,7,5.22,10.81,0,0-4.6,2.71-7.41,4.28v-78Zm91.94,4.19.11,67.66-10.15-10s-.2-13-.19-18.26.08-10.6.06-11.59.06-5.18.09-9.49c.06-9-.76-7.9.91-9.63ZM132.94,34l.56,1.64c-4.25,2.45-9.46,16.13.1,26.18l-.19,2.07C123.39,54.75,125.24,41.63,132.94,34Zm.73,1.93c1.46,3,3.12,5.73,5.39,7.37a11.92,11.92,0,0,0,.32,10.53c-1.45.8-3.46,2.93-5.55,7.28C126.29,53.45,128,42.33,133.67,35.94Zm-56.1,5.74a44.07,44.07,0,0,1,12.54,1.91c2.52,12.83,7,21.46,6.93,26.49a3.25,3.25,0,0,1-1.09-.6,4,4,0,0,0-5.49,1.1c-1.22,1.6,0,3.82-.62,4.76-1.18,1.73-4.21,5-4.71,4.84s-.31-.24,1-2.25,2.39-4,1.94-4.44c-.19-.2-.29.22-1.3,2-2.37,4.15-4.45,6.71-5.28,6.38-.39-.16-.19-.5,1.57-2.84,2-2.64,2.53-4.28,2.33-5-.15-.56-.45.34-1.28,2a52.86,52.86,0,0,1-3.74,5.46,3.38,3.38,0,0,1-1.6,1.35,4.25,4.25,0,0,1-1.74.51c-.23,0-.07-.17.25-.48a30.28,30.28,0,0,0,5.94-8.36c.19-.36-.08-.89-.4-.5-1.89,3.35-4.52,7.53-7.38,9.38a4.13,4.13,0,0,1-2.37.66c-1.41,0-.91-.36.37-1.19,2.74-1.77,6.6-6.88,7.22-8.68.14-.43,0-.67-.29-.64-2.26,3.63-5.24,7.64-8.71,9.31-1.87.9-4.22,1.08-5.38.51-.85-.42-.64-.56.87-.66,3.62-.36,7.87-3.79,10-7.41,1.23-2,.36-1.55-1,.39-2.4,3.3-7.17,6.47-10.13,6.22s-4.71-2.51-4.32-4.51a3.45,3.45,0,0,1,2.76-2.8c2.86-.6,4.73,4,2.11,4.83-.89.29-1.23.07-.91-.29A1.8,1.8,0,0,0,65,75.61a2,2,0,0,0-2.27,2.16c0,1.2,1,2.37,3,2.4,2.33,0,5.91-1.66,8.08-4.77,1.54-2.38.12-1.58-1,0a13.68,13.68,0,0,1-4.54,3.29l.12-1.62c0,.28,5-3.16,4.75-5.72-.19-1.86.08-2.43,2-2.41,1.44,0,3.27.53,3.8,1.19s1.16.87.89-.24c-.44-1.8.09-2.09-1-1.75-.71.23-1.35-.35-2.06-.86a4.73,4.73,0,0,0-3-.76c-.89,0-1.29,0-1.15-.86a3,3,0,0,0,0-1.53c-.28-.63-1.39-1.29-2.64-2.22-1.49-1.1-1.21-1.16,2-8.5,1.32-3.08,1.33-3.71.53-6-1.25-3.59-1.45-5,.91-5.53a34.37,34.37,0,0,1,4.1-.23ZM91,43.76l1.22.35s3.82,13.13,6,19.54a27.7,27.7,0,0,1,1.3,7.08c-.06,3.42-2,5.87-4.3,6.14a4.15,4.15,0,0,1-4.26-2.52,3.32,3.32,0,0,1,1.82-4.55c3.45-1.24,6,3.19,2.59,4.56-1.75.7-3.41-.57-2.62-2a1.36,1.36,0,0,1,2.47.15c.3,1.14.8.6.59-.17a2,2,0,0,0-4,.39c0,2.81,3.06,3.47,4.88,1.89C98,73.31,98.16,71,97.81,69.05c-.49-4.11-2.8-9.43-4.44-15.51A85.13,85.13,0,0,1,91,43.76Zm48.67.15,2.3.91-.06,7.62-1.94.68c-2.55-3.92-.43-9.21-.3-9.21Zm-46.56.49,1.69.65c.92,5.38,5.27,15.67,6.8,23.34.43,4.62.5,6-2.61,8.43v0H97.26s0-.1.73-.65c4.07-3.06,1.64-9.81.11-15-2.68-8.28-5.07-16.75-5-16.74Zm-15.73.54-.65,0c-2.54.14-3,.3-3,.86,0,1,.41,1.51,2.77,1.25a15.7,15.7,0,0,1,7.05,1c2.32,1,2.87,1.25,3.71,1.68,2.1,1.09,1.73,0-.16-1.25-3.88-2.57-6.56-3.58-9.76-3.54Zm18.32.37,1.58.6s.42,1.24.57,2c1.53,6.87,5.71,14.6,6.2,22.63.11,2.63-.33,5.09-2.25,6.27H100.3c1.55-1.54,2.58-2,2.15-7.37C101.76,62.48,97.24,53.85,95.65,45.31Zm2.8,1.11,1.46.54c1.68,9.28,10,23.14,4.7,29.82h-1.32a8.84,8.84,0,0,0,1.49-6c-.52-8.43-4.79-16.61-6.33-24.38Zm2.44.86,1.57.48c2.13,9.4,10.31,24.8,4.48,29.05l-1.15,0C110.19,68.51,103.52,60,100.89,47.28Zm2.74.87a9.05,9.05,0,0,0,1.69.56c1.65,7.1,4.67,14.09,6,20.71.46,3.62-.32,6.33-2.59,7.36h-.48c2-3.08,1.65-7,.56-11.17C107.4,60,104.57,53.73,103.63,48.15Zm-24.71.13a7.14,7.14,0,0,0-2.3.36c-.82.31-.72,1,0,.83l1-.18c1.88-.33,4.2.35,7,2.07.68.41,1.41.81,1.6,1,.51.39,1.06.38.87-.11a8.32,8.32,0,0,0-2.11-1.58c-2-1.25-4-2.32-6.14-2.34Zm27.37.61,1.58.25c3,13.75,9.5,22.29,3.92,27.4h-1.4a7.78,7.78,0,0,0,1.71-6.94c-.51-3-2-7.67-3.3-11.81-1.46-4.8-2.64-8.86-2.51-8.9Zm2.27.39,1.34.25c1.57,5.59,4.23,12.52,5.83,18.29,1,3.55.59,7.92-1.61,8.73l-1.13,0c1.87-2.51,2.13-5.13,1.28-8.52C112.52,61.11,109.87,55,108.56,49.28Zm8.26,0A171.74,171.74,0,0,0,122.58,67c1.55,3.11,1.09,7.73-1.24,9.56l-1.11,0c1.34-1.26,1.79-3.37,1.58-5.56-.6-6.2-5-14.79-6.53-21.39Zm-5.87.27,1.38.13c1.38,6.06,4.07,12,5.82,18a15,15,0,0,1,.49,4.27c-.24,2.58-1.3,4.61-2.23,4.61h-1c1.94-2.33,1.85-5.51,1-8.92C115.1,62,111.78,55.22,111,49.56ZM75,49.59c-.58,0-.59.54.33,1.35.56.49.52.33.49.64-.14,1.34.07,2.57.62,1.19.14-.37.36-.78.57-.73.41.12.2.87.4,1.25.33.67,0,.83-.83.63-.57-.15-.61.16-1,.57-.62.7-.52,1.12.44.9a.82.82,0,0,1,.42,0,3.89,3.89,0,0,1,1.3.81A9.32,9.32,0,0,0,80.86,58c1.36.23,1-.42-.06-.85-1-.37-2.14-1.39-2.13-1.67s.3-.09,2-.57a16,16,0,0,0,2.23-.87,2.87,2.87,0,0,1,1.91-.3c2,.06,2.24,0,.88-1-2.76-2.06-6.43-3.4-8.38-2.54-.59.26-.58.1-1-.15A3,3,0,0,0,75,49.59Zm39.44.19c1.91,7.41,5.6,14,6.5,21.07a6.64,6.64,0,0,1-1.79,5.68H118c-.16,0,1.57-2.68,1.42-5a13.25,13.25,0,0,0-.44-3.85c-2.17-6.25-4.31-11.91-6-17.87ZM80.08,52.23c.43.08.44.29.29.55S79.75,54,79.75,54s-.52.1-.63,0,.43-1.52.78-1.7a.28.28,0,0,1,.18,0Zm1.2.22a.83.83,0,0,1,.24.07c.5.2,1.37.61,1,.93a3.41,3.41,0,0,1-2.08.38L81,52.76C81.13,52.54,81.18,52.45,81.28,52.45ZM76,58.93a.18.18,0,0,0-.11,0c-.1.06.12.46.45.92,1.53,2.07-.58,2.68-2.08,1.57s-3.6-1-3.29.16c.12.41,0,.61.8.62a2.07,2.07,0,0,1,1.52.49c2.42,1.67,5.55-.57,4-3A2,2,0,0,0,76,58.93Zm6,3.23c-.88,0-1.44.66-.33.86,3.93.71,1.29,4.82-1.48,2.7-2.51-2.27-5.85-2.26-5.89-.64,0,.4,0,.42.6.53a20.83,20.83,0,0,1,4.28,1.31,8.58,8.58,0,0,0,1.09.49c1.67.61,3.81-.18,4.23-1.59s.08-3.66-2.5-3.66ZM32.6,75.39a2,2,0,0,1,1.48,1.15c.93,1.57,2.05,4.21,2.77,5.66a1.63,1.63,0,0,1,.17.87c.06.86.35,1.18.85.8s1.18-1,.37-1.12c-.81-.61-1.26-1.51-.76-2.06s.23-.67-.07-.69c-1.13,0-2.82-3.41-2-4.14,1.08-1,2.27.23,4.8,5.29,1.12,2.23,1.17,4.68.21,3.47-.32-.31-.26-.15-.64.81a5.26,5.26,0,0,1-1.61,2.13A10.62,10.62,0,0,0,36,90.09c-.06.42.72,0,1.28-.72,1.27-1.24,1.32-1.57,1.3.07s-.08,1.77.18,1.76c.42,0,.64-1.2.84-2.62a3.7,3.7,0,0,1,2-2.64c.3-.2.31-.33.25-.9-.2-1.81.82-5.18,1.29-4.35.06.19.26.63.37.94.09.47.39,1,.84,1.05.57.42.56.65.76,2.21a8.76,8.76,0,0,0,.44,1.68c.3.76.56,1.2.4,1.43l-.33.32-9.21,5.5s-.73.4-1,.51a1.07,1.07,0,0,1-1.53-.46,62.31,62.31,0,0,1-4.67-9.26c-.82-1.8,0-3,1.05-1.54.41.57.2.93,0,2,0,.2.14.12.48.18.54-.06.8.42.78,1.24-.34,1.18.13.55.35.49.43,0,.52.26.76.75.15.69.45.49.89,0s.37-.36-.36-1.24a18.61,18.61,0,0,1-3.48-6.4,2.21,2.21,0,0,1,0-1.22c.57-1.29,1.36-1.3,2.23.51a9.71,9.71,0,0,0,.65,1.11,2.49,2.49,0,0,1,.52,1.67c-.25.65-.29.66-.07.75a3,3,0,0,1,1.57,2.12c0,.91.2,1.39.91.85s.47-.86-.33-1.65c-.84-1-.89-1.88-.4-2.6.09-.24,0-.31-.26-.28a1.38,1.38,0,0,1-1.24-2.09c.31-.55.28-.7-.16-.71a2.32,2.32,0,0,1-.8-.07c-.28-.54-.89-1.3-.88-1.92.28-.88.72-1.23,1.19-1.22Zm57.77,0a18.74,18.74,0,0,0,5,2.49A27.48,27.48,0,0,1,78.89,91.09a3.4,3.4,0,0,0,1.26,2.52,11.12,11.12,0,0,1-.35-2.22c7.71-2,14.5-9.59,16.24-13.51l33.9-.37c-25.13,24.27-26.13,58.44-5.62,87.08L122,166c-15.81-23.83-15.64-46.8-10.9-62.18a61.8,61.8,0,0,1,14-24s-18.38-.25-27.53.09a39.42,39.42,0,0,1-4.36,5.65s4.65-4.52,4.53-5.31c8.48,0,17.23-.49,25.69.1-9.9,11.94-14.79,24.27-15.64,35.87,0,1.5-.12.66-.61,1.22l-1.57,2.44-1.25-2.54c-.86-.28-2.53.17-3.24-.09-3.49,15.66,0,34.56,4.62,46.9a5,5,0,0,1-2.57.54c-1.55-.35-1.93.08-3.27.36-1.55.29-2.09.29-2.43.69a3.69,3.69,0,0,1-.92.73c-3.77,1.38-8.19,6.54-8.19,6.47l-4.14-1.87c3.82-7.55,8.3-10.27,16.18-13.62l-.73-3.38c-8.4,3.15-13.74,6.92-17.95,14.24-5.11-.07-25.81-.22-25.83-.15,8.44-9.67,15.1-24.26,15.83-35.63.18-2.21-.13-1.15.84-1.81L74,128.88l1.2,1.81s.87,1.11,1.42.18C78.18,115,76.55,96.93,69,84.33a6.54,6.54,0,0,1,4,.64,80.93,80.93,0,0,1,5.48,21.4,103.13,103.13,0,0,1-.16,24.47l.51.07a102.7,102.7,0,0,0-.38-29.55,75.94,75.94,0,0,0-4.48-15.73c-.43-1-.76-1.21-.36-1.35,9.25-.78,13.5-3.89,16.82-8.85Zm-25.64.84a1.29,1.29,0,1,1-1.28,1.29A1.28,1.28,0,0,1,64.73,76.27Zm69.5.65a76.52,76.52,0,0,0-7.16,7.75c6.76,9.37,14.27,19.52,20.59,27.62a16.58,16.58,0,0,0,2.18-1.46c0-.09-.18-.52-.22-.42a11.18,11.18,0,0,1-1.77,1.17l-20-26.43,1.41-1.72c1.56-.51,5.88-5.9,6.09-5.79,3.39,2.61,13.61,13.69,17.54,17.08l0,30.75c-.4,1.23-11.3,6-19,23.66-3.87,2.18-8.15,3.35-12.14,5.25a14.73,14.73,0,0,0,1.51,2.05c-.61-1.33-.72-1.58.66-2.15l28.79-11.81-.05,2.39c-2.89,2.24-22,16.15-27.85,19.43-27.54-38.66-10-71.73,6.07-87.19ZM44.54,79c.75,0,.56,1.77.28,2.38-.55.44-1.11,0-1.1-.78,0-.26,0-.52-.11-.56C43.19,79.78,43.89,79,44.54,79Zm16.82,1.1a3.49,3.49,0,0,1,1.1,1.77c-.85-.13-3.14-.79-2.07-1.31ZM57.2,82.39c19.86,30.25,19,62.38-3.2,86.74l28.05,0C85.62,162,91.57,157.67,99.18,155l.67,2.23c-8.75,2.83-13.18,7.52-16.69,14H49.7c12.85-13.93,18.74-25.69,19.67-41.6.88-15.16-3-29-14.58-45.65Zm5.6.35L67.48,85l-.69,4.84-4.91-2.28ZM54.35,84.1c25.05,38.16,14.31,65-5.69,87.34l-3.69.07-8.59-8,.16,48.82s-8.38,8.27-9.34,9.26-1.66-.5-1.66-.5l0-64.72.37-2.54.12-13.95L31.38,137l20,26.42a7,7,0,0,1-1.18,1.4c.43,1,1.85-1.43,2-1.82-7.26-9.06-20.76-26.79-20.76-26.79l-5.62,2.95s.16-11.58.06-16c.22-1.05,1-.77,1.52-1.24,7.31-4.78,13.34-11.65,18.47-23.37,3.89-1.28,8-3.09,11.89-4.72l-5.63-8.51ZM39,84.58a3.09,3.09,0,0,0-1.48.91c-1.34,1.23-3.11,3.24-3.12,3.63.36.13.68-.08,1-.37,1.12-1.67,2.86-2.33,3.88-3.79.15-.27,0-.38-.25-.38Zm12.62,1.78s3.88,5.7,4.88,7.21c-10.25,4.09-21,9.48-30.46,13v-2.29S43.87,90.79,51.62,86.36Zm15.23,3.76,3.84,2L69.6,96.47l-3.86-2.18ZM70,97.36l3.15,2.31-1.44,3.69-3.17-2.19Zm-25.68,2.71a19.31,19.31,0,0,1-1.3,3.24c-3.9,6.82-7.71,12.88-15.59,18.14a14.22,14.22,0,0,1-1.16-1.78l-.07-2c4.17-3.38,7.78-5.86,13.31-15.77l1.6-.66,1.37.6.92-1.66Zm16.38,0c-3.63,7.75-7.2,15.75-13,21.79l15.82,22.24C68.76,128.42,66.83,113.7,60.71,100.09ZM40.8,101.78,40,103.1l1.31.77.76-1.33Zm-2.15.14a33.29,33.29,0,0,1-12.82,15l-.22-9.47Zm1,1.93-.76,1.32,1.32.77.75-1.33Zm32.34.27,2.86,2.73-1.7,3-2.92-2.44Zm43.71,1.34h0c-5,15.69-3.51,30.68,3.37,43.73a91.24,91.24,0,0,1,12.74-23.12c-4.06-5.35-15.69-20.78-16.1-20.62Zm-77.17.26-.8,1.3,1.29.8.8-1.3Zm21.88,1.83a43.11,43.11,0,0,1,1.71,29.19L50.85,122.38A105.08,105.08,0,0,0,60.42,107.55Zm-23.05,0-.85,1.27,1.25.86.86-1.26Zm-1.26,1.81-.93,1.21,1.19.94.94-1.21Zm37.19,1.29,2.56,2.44-1.61,3.17-2.6-2.39Zm-38.66.59-1,1.16,1.16,1,1-1.16Zm82.46.35,11.38,14.79a77.57,77.57,0,0,0-9.8,15.74C115.51,132.14,114.07,122.3,117.1,111.62ZM33,113.11,32,114.22l1.09,1.06,1.05-1.11Zm26.6,1.48-5.21,7.59,6,7.68A37.21,37.21,0,0,0,59.64,114.59Zm-28.3.25-1.12,1,1,1.13,1.12-1Zm-1.65,1.48-1.18,1,1,1.19,1.18-1Zm44.51.78,2.14,2.52-2.17,2.59-2-2.3Zm27.2.45,1.46.06c-2.39,23.67,2.3,35.65,6.44,46.06,0,0,0,.42-.15.55a3.14,3.14,0,0,1-3.13-.49c-5.58-14.43-6.8-32.21-4.62-46.18Zm-73.62.31-1.23.89.89,1.24,1.23-.89Zm91.09.84c-.37,0-.69,9.74.7,14.5l5.24-7.16Zm-13.55,1.61,1.75,2.37-1.86,2.55-1.9-2.42Zm-79,.64c.09,0,.23.23.51.43s.23.26-.07.49c-.46.37-.59.31-.59-.27s.08-.64.15-.65Zm48,1.78,1.93,2.79L74.1,128.3l-1.84-2.92Zm30.85,3.54,2,2.5-1.75,2.75-2.23-2.63Zm47.24.53.18,2.88-.71-1.05-1.29,1,.9,1.21,1.13-.89.07,1.16c-7.18,5.23-10.28,11.23-13.2,15.74l-1.29.55-1.48-.47-.72,1.28-1.26.3a60.09,60.09,0,0,1,6.9-11.13A77.17,77.17,0,0,1,152.4,126.8Zm.83,4.51.06,10.26-12.86,5C143.77,140.84,147.7,135.53,153.23,131.31Zm-3.2-1.25-1.17,1,1,1.17,1.17-1Zm-1.8,1.55-1.13,1,1.05,1.13,1.13-1Zm-42.94.57,2.43,2.59-1.78,3.07-2.52-2.43Zm41.11,1.09-1.06,1.09,1.16,1.12,1.07-1.09ZM144.73,135l-1,1.14,1.24,1.08,1-1.14Zm-1.68,1.94-1,1.2,1.29,1,1-1.21Zm-36.93,1.84,3,2-1.48,3.63-3-2.32Zm35.47,0L140.7,140l1.37.94.9-1.29Zm-1.37,2-.83,1.29,1.39.9.82-1.33ZM139,142.69l-.75,1.32,1.43.82.76-1.34Zm-1.1,2-.76,1.33,1.59.69.63-1.26Zm-30.12.82,3.1,2.12-1.37,3.8-3.28-2.33Zm44.88,3.74v78.39h-33.9s-1.6-2.84-4.94-9.38c-1.42-2.76-2.61-3.94-2.74-6.13a3.54,3.54,0,0,0-1.51-3.34c-.35-.2-.94,0-.74-.51s-.45-1.54-.63-1.73c-.21-.36-.08-.44-.1-1.75a8.84,8.84,0,0,0-.36-2.74c-.67-2.4-.82-3.61-.44-4.85a69.58,69.58,0,0,1,3.42-8.55c.8-1.73.67-2.4-1.75-3.66-1.82-.94-2.06-.93-1.83-2.3a2.61,2.61,0,0,0,.07-1.36,2.25,2.25,0,0,0-.56-.6c-.24-.21-.16-.63.08-.94s.24-.75,0-1.48c-.5-1.54.62-3.58,2.75-5,.94-.63.91-.5,1.89.54,2.86,3,7.11,1.12,7.12-3.14,0-1.33-.45-1.25.8-1.88,4.23-2.71,12.91-7.64,12.85-7.5a18.81,18.81,0,0,1,1.12,3.4c.3,1.07.26,1.15.15,3.24-.1,1.88-.16,2.32.28,2.44,2.51.28,3.08-.61,3.56-2.24.21-.72.61-.57.85-.27,1,1.75,2.16,3.56,3,4.81,1,1.58,2.65,2.37,3.53,1.62.18-.62.33-.63,1.44-.38a1.66,1.66,0,0,0,2.23-1.45c.06-.39-.23-.38.49-.77,1.78-1.33,1.1-3.14.83-4.23a1.62,1.62,0,0,0,.78-1.48c.09-5.31-4.48-13-4.38-12.76Zm-43,3.06,3.62,1.77-.85,4.36-3.73-1.69Zm35.29,1.62c2.09,2.44,3.6,6.51,4.38,9.16.39,1.32.43,2.82.09,3s-.5,0-.43-.8.07-1.17-.21-1.16c-.81.21-.84-1-.76-1.32a3.71,3.71,0,0,1,.2-.43c.2-.48-.32-.42-.86-.42s-.6-.28-.58-.74-.68-.41-1.06,0-.27.76.2,1.05c.67.42,1.31,1.44,2.88,5,.91,2,.64,3.49-.45,3.48-.75,0-1.63-2.1-2.34-3.63-.18-.4.28-.84.44-1.05.41-.55.35-.73-.27-.74s-.82,0-1.17-.67a1.79,1.79,0,0,1-.18-.95c.3-.79-.31-1-.91-.68s-.74,1,.4,2.09c.74,1.22.54,1.13-.15,1.95-.15.29-.06.47.25.47.88-.27,1.84,1.33,1.58,1.88-.27.24-1,1.09-.3.93,1.46-.4,2.35,1.75,1.49,2.47-1.28.65-1.58.45-3.55-3.51-.61-1.23-1.35-2.55-1.44-2.69a1.88,1.88,0,0,1-.13-.79c.09-.72-.21-.88-.83-.6-.47.12-.89.5-.3.87.69,1.19.93,1.38.55,1.68-.85.69-.48.66.48.86a1.2,1.2,0,0,1,.84.68c.5,1.12,1.38,2.7,1.46,3,.3.82-.23,1.19-1,1.15s-1.1-.58-1.47-1.09c-1.37-1.91-2.35-3.81-3.75-6l.19-2a1.18,1.18,0,0,0,.57,0c.4-.2.64-.84.87-1.68s2.54-2.41,3.37-3.31a.59.59,0,0,0,.28-.37c0-.33-.94-.11-1.56.61-.9.8-1.29.53-1.26-.51-.09-1.27-.86-.63-.9.61a2.84,2.84,0,0,1-1.12,2.14c-1.29,1-1.08.78-1,2.22.11,2.52-.86,4.59-1.49,3.22-.22-.49-.49-1.05-1.05-1.07-.4,0-.6-.41-.82-1.39-.32-1.57-.78-2.59-1.2-4Zm-32.15,5.43L117,161l-.78,4.41-4.14-1.6Zm31.87.4-.1,0a40.47,40.47,0,0,1-3.54,2.67,2.75,2.75,0,0,0-1.05,1.22c0,.2.57.19,1.13-.06a20.79,20.79,0,0,0,3.57-3.36c.21-.23.19-.51,0-.5Zm-38.38,5.35c1,0,.41.29-1.75,1.8s-5.57,6.12-6,7.84c-.19.79.31.85.86-.23,2.56-5,7.39-9.47,11.82-9.27,2.17.1,3.34.69,1.55.95-4.92.61-8.6,3.43-11.82,9.07,0,.12.29.12.63-.1,2.94-3.63,6.26-8.43,12.09-8,4.21.25,5.41,5.29,1.91,7-3,1.5-5.85-2.15-3.32-4.32.82-.7,1.33-.39.54.33-1.69,1.54.38,4.29,2.44,3.24a2.36,2.36,0,0,0,.66-3.69c-2.46-3-7.75-.73-11.43,4.17-.39.51-.72,1.63-.4,1.51a3,3,0,0,0,1.26-1.19,11.06,11.06,0,0,1,4.1-3.75c1.38-.76,1.46-.62.95.7a1.89,1.89,0,0,1-.92,1.09c-2.25,1.54-3.64,3.61-3.7,4.93,0,1,.66,2.22-.1,2.47-1.28.61-4.79.12-5.73-1.1-.68-.88-1-.37-.44,1.05.34.94.33,1.47.84,1.38.64-.35,1.08-.27,2.33.42a10.77,10.77,0,0,0,2.32.79c1.19.28,1.43.16,1.41.68a8.15,8.15,0,0,1,0,.88c-.19,1.56,1.1,2.09,2.86,3.11,1,.6.62,1.21-.57,4.18-.62,1.34-1.15,3.14-1.91,4.5a7.6,7.6,0,0,0-.32,5.11c.86,3.54,1.47,5.33,0,5.65-3.91.6-12.56.57-17.28-1.25-1.2-9.12-7.6-22.66-6.78-26.16,1.64,2.49,8.5,1.83,6.43-5.12a16.81,16.81,0,0,1,1.68-2c2.88-2.94,3.6-3.43,2.23-.83A36,36,0,0,0,90.26,176c0,.4.29.5.53.18a7.61,7.61,0,0,0,.58-1.26c1.72-4.05,4.66-7.7,6.68-8.57.52-.23.49,0,.13.46a31.44,31.44,0,0,0-5.49,9.34.33.33,0,0,0,.63.17c2.24-4.71,2.9-5.78,5.65-9.1,1.08-1.31,2.08-2,2.88-1.89s.49.17-.15.86c-.49.53-1.22,1.26-2.39,2.74-2.06,2.62-4.14,6.88-3.37,6.66.13.35.78-.78,1.33-1.86,1.51-2.55,3.11-5.93,6.7-8.14a6.18,6.18,0,0,1,2.29-.5Zm-69.34.82,6.39,6.42,12.84-.16c-2.12,3.31-1,8.45.18,11.45,2.29,5.89,5.64,15.6,5.39,15.74,0,0-1.86.49-2,1.68-.25,1.77.51,1.63-.59,3.23a1.77,1.77,0,0,0,.18,1.58,1.49,1.49,0,0,1,0,1.45L48,227.64H26.26V223.7l11-11-.13-8.08C43,206.41,45,212.51,45.49,217c10.61-9.75,10.34-24.42.32-33.62-2,9.73-9,11.75-8.79,11.56Zm79.86,1.15a6,6,0,0,1,2.25.51,4.15,4.15,0,0,0-1,.87A6.41,6.41,0,0,0,116.78,167.08Zm17.8.07c.58,0,1.28,1.69.88,2.08a1.38,1.38,0,0,1-1.23.14C133.89,169.12,134.06,167.16,134.58,167.15Zm-20.25,2.93a1.34,1.34,0,1,1-1.33,1.34A1.34,1.34,0,0,1,114.33,170.08ZM57.85,172l1,0c-1.75,2.35-2,4.38-1.36,7.32.7,3.3,6,15.73,6.36,19.15,0,.16,0,.59,0,.59l-1.31.09s-.09-.35-.13-.49c-1.83-6.2-3.66-10.92-4.93-14.53-1.27-3.9-3.21-9.67.38-12.16Zm7,0s0,0,0,0h.92a16.48,16.48,0,0,0-1.48,4.68,18.75,18.75,0,0,0,1,6.33c1.55,4.64,3.83,9.82,5.09,15.68,0,.07.15.64.15.64l-1.37-.19s-.13-.6-.14-.68c-1-5.16-3.59-10.52-5.16-15.59a17.59,17.59,0,0,1-1.08-7.32,6.76,6.76,0,0,1,2-3.56Zm11.18,0A11.17,11.17,0,0,0,74.13,177a22.11,22.11,0,0,0,1.56,7.61,140.6,140.6,0,0,1,4.92,17.68l-1.32-.57s-.05-.34-.08-.44c-.7-3.81-.75-3.48-4.89-16.3-1-3.08-1.89-5.77-1.71-8.34,0-1.46,1.31-4.34,2.64-4.58Zm1.58,0h1.24s-.68.72-.88,1c-2.15,3-1.53,6.22-.46,10.07,1.47,5.28,4.19,11.19,5.61,19.25,0,.15,0,.92,0,.92l-1.47-.59c-1.33-7.39-4.61-15-6.19-21.69-.93-3.9-.67-6.37,1.48-8.49a3.29,3.29,0,0,1,.67-.46Zm-15,0h.93s-1.54,2.54-1.54,4c-.26,2.68.7,5.65,1.81,8.75,1.7,4.77,3.95,10.54,4.64,13.58,0,.12.12.66.12.66L67,199a8.45,8.45,0,0,0-.18-1.07c-1.85-6.53-3.66-10.76-5.79-16.72a15.72,15.72,0,0,1-.23-6.79,3.54,3.54,0,0,1,1.85-2.37Zm-2.46,0,1,0-.53.93c-1.81,3.3-1,6.32.13,9.68,1.49,4.48,3.85,10,5.31,15.14a11.37,11.37,0,0,1,.2,1.17l-1.43,0s-.3-1.05-.31-1.17c-.81-4.8-5.17-12.81-6.31-18.9-.62-3.27-.08-5.29,1.95-6.86Zm13.3,0a15.27,15.27,0,0,0-1.71,4.26c-.28,3,.66,5.46,1.74,8.83C75.35,191,78,197.8,78.2,200.92l0,.48-1.62-.58s-.07-.33-.1-.44c-1.41-5.64-3.07-11.26-5.31-17.6-.55-2.13-1.27-4.28-1.21-6.12a6.2,6.2,0,0,1,2.19-4.57Zm7.1,0,1.3,0a6.53,6.53,0,0,0-1.31,1.21c-5.13,4.72,3.19,18,5.11,30.17,0,.13.08.59.08.59l-1.43-.52c-.14-.6-.24-1.34-.4-2-1.56-6.2-3.63-12.58-5.54-18.36-1.06-4.21-1.45-7.93.46-10a4.53,4.53,0,0,1,1.73-1.11Zm-13.37,0,1.39,0a9,9,0,0,0-1.65,5,19,19,0,0,0,1.18,6.22c1.39,4.37,3.37,9.11,4.73,15,.08.39.14.64.18.81a5.53,5.53,0,0,0,.21.7l-1.46-.3s-.15-.38-.25-.58a6,6,0,0,1-.41-1.15c-.7-3.07-3.31-10.05-4.89-14.94-1.26-3.08-1.6-8.47,1-10.78Zm17.28,0A4,4,0,0,1,88.22,175a3.46,3.46,0,0,1-1.75,4.05c-2.67,1.37-5.55-2.26-3.44-4.26,1.6-1.51,4-.39,3.45,1.54a1.33,1.33,0,0,1-2.55.07c-.08-.42-.29-.84-.44-.61-1,2.33,2.32,3.41,3.69,1.25a2.62,2.62,0,0,0-3-3.54c-3.12.58-3.49,4.58-2.19,9.24,1.82,7.37,6.14,17.28,6.13,21.83,0,.06,0,.25,0,.25l-1.38-.41a1.38,1.38,0,0,1,0-.14c-.83-6.36-5.52-16.88-6.86-25-.58-3.69.84-6.37,4-7.1a3.6,3.6,0,0,1,.55-.07Zm-13.57.06a9,9,0,0,0-1.62,4.63A22,22,0,0,0,70.57,183c1.52,5.24,5.06,14.9,4.94,16.71,0,.2.13.8.13.8l-1.37-.41s0-.09-.16-.34c-.45-1.79-2.62-9.49-5-16.15A18.21,18.21,0,0,1,67.73,177a7.61,7.61,0,0,1,2-4.83ZM97,180.88c-3.55.2-3.21,4.56-1,5.29.79.22,1.25,0,1.37-.14s0-.49-.53-.57c-1.49-.49-2-2.26-.68-3,.74-.39,1.91-.14,3.33.92,2.53,1.88,5.63,2,5.23.09-.1-.46-.3-.52-2.15-.78a6.69,6.69,0,0,1-2.84-1A5.42,5.42,0,0,0,97,180.88Zm-50.8,4.05c9.16,9,7.81,23.14,0,30.21-.16-.57-.5-2-.54-1.93,5.89-6.17,8.67-16.28.14-26.65a15.37,15.37,0,0,0,.43-1.63Zm57.45.24a.8.8,0,0,0-.23,0c-2.37.66-2.87,3-1.33,4,1,.6,1.67.23.5-.49a1.22,1.22,0,0,1,.71-2.22c.53,0,.89.24,2.25,1.24,1.11.83,2.16.9,2.4-.22.15-.67-.08-1-.79-.8-.31.08-.49-.1-.92-.4a5.43,5.43,0,0,0-2.59-1.13Zm-58.4,1.77c8.26,9.65,5.61,19.72,0,25.63A17.16,17.16,0,0,0,40,205.18c1.41-3.15,2.25-6.45-.39-10.62A20.41,20.41,0,0,0,45.22,186.94Zm53.69,3.52c-.39,0-.26.37.65,1,2.18,1.49,2.36,1.76.25,1.73a6.29,6.29,0,0,0-1.85.51c-2.75.92-2.88.85-4.2.54-.44-.1-.89-.29-1.08-.11s-.63.45-.26.86a7.69,7.69,0,0,0,1.4.88c3.2,1.84,3.49,2.29,7.25,2.38.44,0,.66-.21.91-.21a2,2,0,0,1,1.56.71c1.13,1.05,1.19.29.51-1.08-.35-.72-.66-.89-.49-1.44.4-1.25-.17-1.49-.91-.39-.55.86-.62.84-1.14-.27-.7-1.38-.37-2,.68-1.12.8.69,1,.18,1.32-.37.41-.71.35-1.35-.38-1.29a1.43,1.43,0,0,1-1.15-.53A6.08,6.08,0,0,0,98.91,190.46Zm.9,3.75a.18.18,0,0,1,.18.13,5.42,5.42,0,0,1-.56,1.89c-.08.21-.22.24-.42.28-.66.12-.7-.08-.59-.49.25-.64.45-1.54,1.3-1.8Zm-1.67.32c.26,0,.27.09.17.34a6.18,6.18,0,0,1-.78,1.12c-.53.34-1.39-.71-1-1a4.52,4.52,0,0,1,1.49-.46l.13,0Zm-59.2.69a1.19,1.19,0,0,1,.44.09,8.54,8.54,0,0,1,.31,9.14.32.32,0,0,1-.43.14,11.94,11.94,0,0,0-2.15-.78v-8c.65-.13,1.22-.63,1.83-.63Zm52.7.65c-.16,0-.22.11,0,.31,2.92,2.12,6.93,4.59,10.63,3.63.34-.07.62-.26.55-.61s-.41-.41-.82-.3a10.34,10.34,0,0,1-3.15.14c-2.54-.42-4.79-2.06-6.75-3a.66.66,0,0,0-.43-.15Zm-.85,2c-.13,0-.12.13,0,.37.41,1.23,4.53,4.1,7.79,5.05,2.8.81,6.82,0,6.59-1.32-.12-.7-.63-.87-2.42-.64-3.93.77-7.71-.85-10.59-2.65a7.54,7.54,0,0,0-1.33-.81ZM65,199.58a29.14,29.14,0,0,1,5.26.43,45.84,45.84,0,0,1,11.25,3.37c6,2.25,13.47,4,19.84,3.76a28.6,28.6,0,0,0,4.91-.27c1.42-.32,1.81,0,2.15,1.75.06.39.18.5.67.84.76.51.63,1,.54,2.16-.08.95.5,1.49,2.8,5.76,2.61,4.86,5.16,10.51,5.16,10.51-22.93,0-44.82-.87-68.29-.13,2.11-5,7.87-14.13,11.48-21.43-.88-2.24.2-2.62-.25-3.15a2.28,2.28,0,0,1,1.34-3.39A28.38,28.38,0,0,1,65,199.58Z" transform="translate(0.1 0.1)"/><path id="path6353-8" class="cls-3" d="M49.6,227.91s7.52-15.3,10.69-19.88c4.55-5.82,25.12,2.52,35.35,4.61,4.16.81,13.79.43,13.79.43l8.06,14.62ZM34,210.53l-.31-47.64L36,164.37l.54,47.85L26.4,222l-.06-2.87Zm6.16-5.44c2.42-4.91-.28-10.91-.28-10.9,1.4.35,5.32-7.14,5.67-6.92,6,7.4,7,18.43-.29,25.26a19.46,19.46,0,0,0-5.1-7.44Zm4.47-33.69c4.56-4.68,8.17-8.33,11.78-13.58.29-.42-19.21-25.38-18.91-25.81,3-3.35,7-5.81,10.18-9.86,0,0,16,21.09,16.37,20.91,1.62-6.6,2.81-12.58,2.5-19.48-1-17.65-8.48-28.45-8.54-28.24-2.53,16.22-27.42,40.78-32.33,39l0-11.33c.29.56,15.77-10,19.85-24,.29-1,12.3-4.87,12.21-5C57.2,92.68,52,85.2,52,85.2a21.32,21.32,0,0,1,2.36-1A68.38,68.38,0,0,1,68,114.65c2.13,11.52,3.5,33.17-19.44,56.82Zm68.77-29.8a63.94,63.94,0,0,1-1.84-30.93c2.51-14.7,11.74-25.22,19.13-33.24h3.21l-5.23,5.45a81.57,81.57,0,0,0-5.87,8.54l19.15,25.2,10.91-2.38s-.33,11.27,0,11.27c-8.48,7.07-14.58,13.47-19,23.76-2.68,1-11.57,4.86-11.57,4.86-4.23-1,12.57-27.56,9.38-28-1.32-1.09-15.89-20.89-16.18-20.85-6.71,20.71-.16,42.46,11.66,57.65a8.54,8.54,0,0,1-2.45,1.35c-5.06-7.07-9.49-15.51-11.36-22.67Zm-35-10.38c.75,1.18,4.16-25.27-4.79-46.44.85-.65,8.24-2.08,8.24-2.08l2,6.34-5,2.15.93,3c3.91-1.91,12.37-4.73,17.58-13.44,0,0,25.31-.22,25.85-.17S118,86.08,112.63,97.19a50.45,50.45,0,0,0-4.84,19.34c-.08,1.53-5.79-7.15-5.79-7.15,1.43-7.34,5.23-14.56,9-21.77,0,0-5.82-.34-9.89-.22-6.32,7-10.29,10.63-19.82,14,3.47,11.21,24.74,16.61,20,15.58-1-.23-2.19,10.31-1.16,22.19.19,9.49,5.27,25.32,5.45,25.19,0,0-3.39.77-3.66.22.57-.13-5,1.29-5,1.29l-2-5.9,5.42-2.51-.88-3.33s-12,3.64-17.81,14.13l-26.16,0c10.09-11,14.2-21.92,16.39-36.34,2.14.39,6.53-.67,6.53-.67Zm64.33-95.16c3.29-2.77,9.89-10,9.89-10l.09,3.7-7.49,7.85.07,48.43-2.53-2.44Zm-3.46,17.73c-1.35.65-4,3.83-5.32,7.41-8.68-7.81-5.11-22.16-.35-25.15,1.37,3.14,5.37,7.29,5.27,7.2C138,46.53,137.27,49.86,139.29,53.79ZM62.44,21.27l66.94.12C125.56,29,122.06,35.08,118,42.53c-2.11,2.57-47.83-8.28-48-7.2Z" transform="translate(0.1 0.1)"/><path id="path6355-9" class="cls-4" d="M26.25,218.27l-.44-63.6,7.61,7.44L33.87,211Zm34.92-12.33c-1.58.25-.68-1.22-.4-2.62.16-.77-.58-1.51-.58-1.74,0-1.38,1.05-2,5.7-1.91,11,.76,16.65,4.3,22.94,6,6,1.57,12,1.54,18.66,1.39.49.28,2.27,4.9,1.94,5.36-15.05,3-34.25-8.13-48.26-6.43ZM88.29,173a9.6,9.6,0,0,0-4.54-1.62c2.58-4.57,5.7-8.74,10.92-11.34l2.43,6A25.44,25.44,0,0,0,88.29,173ZM56.59,157.3a27.74,27.74,0,0,1-4.38,5.51c-6.32-8.53-20.45-26.7-20.45-26.7l-6,3.06a35.6,35.6,0,0,1,.12-3.76c16.19-8.41,27.31-24.29,32.2-39.16,0,0,2.61,2.68,2.26,3.81a74.89,74.89,0,0,1-22.88,32.32ZM76.79,140l20.44,0,.91,7.16c-7.83,2.64-14.29,8-20.33,14.28l-9.7-.17c3.18-7,7.6-14.13,8.68-21.3Zm75.7-30.15c.66,2,0,4.19.25,4.1-24.49,12.2-31.49,39-31.49,39s-2.33-3.7-2.22-4.27c12.67-28.37,21.16-29.22,22.78-32.3L122.53,91.21l4.37-6,20.67,27.1C149.63,111.38,150.8,110.58,152.49,109.84Zm-12.08,36.7c4.15-7.52,8.44-11.89,12.71-14.9l-.21,9.93ZM25.91,117l.11-9.63,12.61-5.46C35.15,109.58,30.41,113.69,25.91,117Zm56.2-8.65-.74-6.78a56.13,56.13,0,0,0,19.88-14c5.87-.28,9.88.12,9.85,0a81.23,81.23,0,0,0-9.29,21.25Zm63.45-71.15,7-7.09.22,63.42-7-6.84ZM84.3,88.76l-2.21-6.28c3.48-1.31,6.11-4.17,8.56-7a12.88,12.88,0,0,0,4.56,2.32C96.23,78,88.16,87.8,84.3,88.76ZM71.23,41.24s-.87-.51-.77-1.22c.29-.93-.93-3-.93-3,14.84-4.54,36.46,8.22,49.29,5.54a10.3,10.3,0,0,1-.33,2.83c.41,1.8.69,1.86-1.06,3-9,2.56-18.51-2.91-27.32-5.53-7.18-2.28-13-1.7-18.88-1.57Z" transform="translate(0.1 0.1)"/><path id="path6357-5" class="cls-5" d="M61.67,20.38l2.72,5.14-.47.32c.73,1.24,1.36,2.63,2.12,3.86l.54-.06C67.47,31.36,67.83,32,69,34h-.53c.27.9,1,1.5,1,2.15,0,.81-.2,1.63.3,2.18s.65.82.53,1.2a1.6,1.6,0,0,0,1.51,2A46.29,46.29,0,0,1,91.5,43.47c4.76,1.51,9,3.2,13,4.39a31.7,31.7,0,0,0,6,1.13c6.08.45,9.49-.79,8.47-3.34-.08-.2-.27-.35-.28-.46s0-.4.34-.69c1-1,.44-1.77-.17-2.9,0,0,7.81-14,11.71-21Zm67.6,1.26-5.7,9.91a3,3,0,0,0-3.81,2.38c-4-1-3.35,4.15-1.36,4.49.13.75-3.25,1.68-5-.07,2.74.37,3.71-3.28.37-4.09,4.41-3.3-3.86-8.24-4-1.41-3.89-.69-3.38,4.48-.92,4.88-1.26,1.41-5,1.44-6.91-1.51,3.3,1.73,5.08-2.72,1.66-4,4.23-3.73-4-7.18-3.86-1.14-3.12-1.87-5.27,2.88-1.1,3.61-.24.85-5.69.86-7.08-1.35,3.87.89,4-3.85.63-4.24,3.43-4.38-5.27-6.59-3.81-.61C85,27.18,83.75,31.4,87,32.75c.19.67-5.3,1.24-7.21-1.18,4.21-.64,2.74-4.75,0-4.42a5.19,5.19,0,0,1,.19-.52c1.29-4.12-5.64-4.47-4.68-.09.15.4.32.94.32.94-1.91-.39-3.07.39-2.94,2.19.48,2.4,1.74,2.22,3.34,1.74.68.71-3.88,3.09-6.73,1,3.5-1,1.72-5.15-1.21-4.59-.12-1.32-1.54-3.17-3.4-2.26l-2-3.89Zm5.72,55-4.11.06c-2.89,3-23.81,22.37-20.29,51.68,1.51,12.53,5,23.38,14.28,36.19l2.49-1.47.38.26,25.75-14.92,0-4.53-29.9,12.63a14.43,14.43,0,0,1-1.44-2.13l12-5.13s.29-.73.38-1.07c3.94-10,11.94-17.3,18.9-22.91,0-9.88-.08-30.56-.08-30.56l-18-18.07a81,81,0,0,0-6.41,6.69l20.68,27.41-1.83,1.2L127.32,84.73A105,105,0,0,1,135,76.67Zm18.38,17.82s-.1-47.06-.24-69.79h0L142.4,35.79l0,47.7Zm-.92-65.31-7.58,7.88L145,85.55,143,83.62V36.43l9.47-10ZM78.65,28a1.3,1.3,0,0,1-.23,1.42c-1.56,1.94,3.32,5.3,6.82,4.72,2.67-.45,4.94-2.06,4-3.29-.8-1-.27-2,.69-2s1.77.8.92,1.88c-1.9,2.41,1,5.23,5.44,5.29,3.14,0,4.18-.73,4-3-.08-1.05.13-1.34.86-1.5,1.16-.26,1.75,1.09.78,2.11-2.08,2.21.29,5.47,4.23,5.68a4.5,4.5,0,0,0,3.33-.92c1.26-.71,1.71-1.79,1.09-2.63a1.22,1.22,0,0,1,1.51-1.84c.88.38,1.32,1.06.34,2.22-1.28,1.51-.67,2.77,1.8,3.61,1.92.66,3.25.58,4.15-.25.28-.26.91-.8.9-.63-.61,1-1.14,2-1.14,2A6,6,0,0,1,111,39.21c-4.16,2.42-7.84,1.91-11-2.14A10.51,10.51,0,0,1,89.31,34c-4.21,2.13-8.14,1.24-11.62-1.15-2.58,2.45-5.29,2.84-8.11,1.66l-.83-1.69c.21-.08,1.12,1.7,5.53.87,1.48-.28,4-2.79,2.6-4-.65-.93-.67-1.35-.09-1.91a1.25,1.25,0,0,1,1.86.28ZM67.84,30.23c.25.48.28,1.28,0,.8-.15-.25-.89-1.38-.86-1.41.35,0,.7.33.85.61Zm84.62.39,0,62.57-6.46-6.45-.31-49Zm-74.79,3,2,1.29-3.64,0ZM89.1,34.73l1.71,1.67-3.59-.76Zm32,.86-.77,1.58C119.88,36.67,119.76,35.62,121.09,35.59Zm12.9,26c1.3-2.93,3-6.67,5.84-7.85-2.09-4.18-1.82-8.36-.34-10.65a21.3,21.3,0,0,1-5.64-7.79C127.15,41.27,126.07,53.5,134,61.61Zm-.2-25.15.46,1.14c-6,7.36-4.12,17,.2,22.16l-.62,1.29C128.55,55.44,126.24,43.59,133.79,36.46ZM98.13,40.62c6.91,2,12.45,5.22,20.44,2.39l0,1.56c-5.09,3.29-15.22-.18-22.07-2.73a57,57,0,0,0-25.69-3.38c-.53-.11-1-1.52-.1-1.53C82.19,36.8,80.34,35.36,98.13,40.62Zm1.56-2.77L102,40.27a36.28,36.28,0,0,1-4.9-1.88Zm34.65.6.44.61c.2.27-1.25.41-1,.1Zm-39,4.43c8.26,3.12,17.34,6.24,23.3,3.44,0,0,0,1.19-.64,1.53a6.11,6.11,0,0,1-2.73.8c-9.65.8-15.91-3.22-23.7-5.6A52.86,52.86,0,0,0,79,40.86a65.13,65.13,0,0,0-7.32.28c-1-.08-1-.65-1-1.22A48.31,48.31,0,0,1,95.33,42.88Zm39.91-3,.32,0L136.4,41l-1,1.6A8.24,8.24,0,0,1,134.07,41C133.82,40.46,134.49,39.93,135.24,39.89Zm-24.32.31,2.62,2a14.72,14.72,0,0,1-6.37-.7Zm22.14,1c.2,0,.42.21.67.65.49.83.42,1-.52,1.3-1.24.4-1.34.31-.94-.81C132.55,41.59,132.79,41.22,133.06,41.21Zm4,.51,1.76,1.49a13,13,0,0,0,.35,10.46c-.22,0-1.49,1.28-1.89,1.49-1.12-.47-3.58-9.7-.22-13.44Zm-2,2-.45,2.82c0,.23-2-1.34-1.78-2.12.34-.93,1.51-.73,2.23-.7Zm-3.17,1c.23,0,.59.57,1,1.3s.28.8-.5,1.5c-1.13,1.15-1.36.78-1.1-1.19.12-1,.29-1.61.56-1.61Zm2.35,2.56a.58.58,0,0,1,.38.12l.13,2.75c0,.25-2.13-.1-2.41-1.14-.36-.68,1.06-1.75,1.9-1.73Zm-2.84,2.33c.16,0,.64.3,1.09.57.79.47.81.68.13,1.56-.8,1-1.2.87-1.32-.93C131.22,50.1,131.17,49.59,131.36,49.56Zm3.15,1a.28.28,0,0,1,.19.07,6.59,6.59,0,0,1,.71,3.37c-.34.41-2.17-.14-2.58-.78S133.85,50.61,134.51,50.61Zm-2.24,3.25a2.91,2.91,0,0,1,1.16.41,2.58,2.58,0,0,1,1,.75c.22.47-.15,1.17-.63,1.75-.32.38-.61.1-1.23-1.19C132.13,54.54,131.92,53.88,132.27,53.86Zm3.7,1.23a.2.2,0,0,1,.11,0c.63.35.52,1.38-.21,2.15-.89.91-1.66.22-1.05-.94.39-.74.85-1.23,1.15-1.24ZM84.51,80.76a2.94,2.94,0,0,0-1.75,1,1.26,1.26,0,0,1-1.38.48,6.51,6.51,0,0,0-2.81.7,4.59,4.59,0,0,1-2.09.46,6,6,0,0,0-1.52.21,9.19,9.19,0,0,1-1.1.38c-.91.27-.59.53-.06,1.72a89.53,89.53,0,0,1,5.29,21.49,101.55,101.55,0,0,1-.5,23.58c-2.56,0-4.17-.11-6.86-.06-1.84,15-6.83,27-16.79,37.74l26.94.06c3.09-8.29,17.18-14.61,17.64-14.14l.74,3s-10.13,1.46-17,14.41c.7-.43,3.24-.13,4.92,1.62a27.92,27.92,0,0,1,8.89-7l.18-.51a16.28,16.28,0,0,1,1.89-.52,8.66,8.66,0,0,0,1.26-.3,3.33,3.33,0,0,1,1.82-.35,10.8,10.8,0,0,0,3.8-.39c-5.72-15.88-7.07-30.22-4.83-46.88,2.1,0,6.73.1,6.73.1a65.37,65.37,0,0,1,2.48-13.78A53.24,53.24,0,0,1,118,88c2-3,3.76-5.19,5.84-8l-26.38.06C94,86,87.29,90.9,81.88,93c-1.84.7-2.1.6-2.4-.27-.55-1.56-.52-1.49.92-1.91.48-.14,2-1,4.42-2.08,5.09-2.61,8.59-7.37,10.65-10.59.82-1.27.27-1-1.13-1a4.28,4.28,0,0,1-3-1.59c-.43-.39-.61-.68-.81-.66-1.5,2.18-4,5-6,5.9Zm6.19-5A7,7,0,0,0,95.14,78,29.6,29.6,0,0,1,84.42,88.56l-2.12-6C87.48,80.15,88.86,77.72,90.7,75.74Zm43,1.9c-27.89,26-26.25,58.71-6.72,85.3l-2,1.24c-18.35-24.76-21.67-61.38,6.36-86.65Zm-17.58,3.17,6.84,0-4.66,6.08-6.25,0Zm-1.08,0-3.8,6L101,87A43.15,43.15,0,0,1,81.53,100.9l-1.31-6.51A31.49,31.49,0,0,0,97.73,80.77Zm-10.42.49L102.23,84l2.47,2.53L107,84Zm5.38-.06-2.4,2.52,1.87,2.54,2.5-2.46Zm-11.87.46-.41,4,3.1,1,.45-3.39ZM117,81.9l-2.25,3.54,3.38,0L120.47,82Zm-35.4.9,2.19,6.13-1.92.94-2-6.4Zm-2.6,1,2.26,6.33-1.89.63-2.08-6.59Zm2.71,25c.26,8.82.38,14.13-1.08,21.87-.08.41-1.65.05-1.65.05.2.07.89-8.75.83-14.29a87.09,87.09,0,0,0-6-31.45,9.49,9.49,0,0,1,2.72-.72c2.59,7.92,4.89,16.45,5.17,24.54ZM54.29,84.37c9,12,15.45,28.35,14.37,44.46-1,18.73-8.08,29.52-20.47,42.49l-3.19.07c14.66-14.15,21.14-26.26,21.66-42.24.58-18.38-5-30.6-14.38-43.63Zm-28.8,16.54,0,4.38L56.2,92l-4.42-6.56ZM97.4,86.56l-3.34.17.11,3.39L97.65,90Zm29.77-.65,19.88,26.25-4.92,3.68L123.18,91.17ZM111.59,87.7l6,.1-2.3,3.84-5.76,0Zm-1.1.1c-2.74,5.12-6.51,11-8.63,20.41H82.27a50.47,50.47,0,0,0-.64-6.46c8.45-3.11,15-7.76,19.79-13.91Zm3.62.27-2.55,1.48,1.56,1.81,2.81-1.09ZM90.79,90,90,93.3l3.17,1.23.59-4Zm18.27,2.5,5.71,0-2.41,4.83-5.65-.08Zm13.59-.64,18.82,24.56-1.77,1.41-18.38-24Zm-11.42,1L108.65,95l1.94,2.26L113,95.35C113,95.31,111.23,92.85,111.23,92.85Zm-25,.17-.79,3.25,3.31.89.59-3.49Zm-4.56,2.17L81,98.39l3.11.84.65-3.08ZM56,94.86c.16,0-.52,3.81-1.52,4.51-.48.33-.72.25-1.14-.2s-1.58-2.43-1.58-2.43l1.11-.56c1.34,2.16,1.34,1.11,1.84-.73Zm-5.16,2.22c.44,0,1,.54,1.57,1.6.87,1.54.84,1.64-.58,2.08-2.57.68-3.52.85-2.73-.86s1.18-2.82,1.74-2.82Zm7.64-.31,1.76,3q-10.56,27.08-34,38.83l0-3C44.61,125.07,52.17,112.59,58.49,96.77Zm47.87,1.31,5.54.1-1.48,4.26-5.89,0Zm-57.17-.19c-4.51,10.82-10.67,20.27-23,28.24l-.05-2.88C40,114.86,46,99.13,46,99.12Zm70,0c3.28.09,6.73,3.69,6.38,6.66-.24,2.1.16,3.65.72,2.79,1.25-1.89,4.93-.63,4.9,1.64,0,1.21-.82,1.41-1.28.32-.68-1.62-2.59-1.66-2.87,0s1.07,2.75,4.63,4c4.18,1,6.7,4.76,5.21,6.93-.52.57-.83.71-.92.41,0-.08-.13-.53-.23-1-.47-2.27-1.56-3.23-2.87-2.45-.66.4-.57.91-.19,1.6.51.91.19,1.26-.73.8-1.44-.74-1.92-2.47-.52-3.27,1.67-.67,1.11-.81-1-1.54-4.53-1.56-6.48-4.42-6.71-9.87.08-2.49-.25-3.37-1.41-3.71s-2.27,1-1.51,1.76c.42.39.76.74.54,1-.71.69-2.47-.43-2.45-1.63,0-.78.3-1,1.47-1.87.32-.26.05-.74-.43-.74C118.14,100.32,118.27,98,119.22,97.87ZM109,98.5l-2.77,1.61,1.44,2,3.07-1.45Zm-53.89,1.58a.58.58,0,1,1-.58.58A.58.58,0,0,1,55.06,100.08Zm5.68.25a61.5,61.5,0,0,1,3.16,42.22L48.12,121.87a68.86,68.86,0,0,0,12.62-21.54Zm-21.36.94-14.08,6-.08,10.64C33.09,112.46,36.43,106.92,39.38,101.27Zm13.54-.09c1.39,0,.71,3.73-1.1,5-.66.51-1.1.45-1.32-.57a8,8,0,0,0-1.37-2.56c-.81-1-.8-1.07.39-1.15s2.38-.61,3.4-.74Zm-1.37,1.61c-1,0-1.33.46-.72,1.12s.92.44,1.27-.36C52.31,103.06,52.12,102.8,51.55,102.79ZM26.14,116.58l0-9,12-5.11a36.82,36.82,0,0,1-12.08,14.13Zm107,7.3-1.61,1.62L116,105.09l1-2.58ZM47.93,103.23c.52,0,1.71,1.83,2,3.13.24,1,0,1.18-1.84,1.45-.76.21-2.8,0-2.64-.54a23.61,23.61,0,0,1,2.44-4Zm56.35.21,5.67.06-1.3,4.68-5.94-.08Zm2.5.28-2.64,1.84,2.09,2.08,2.8-1.75Zm8.91,2,15.73,20.56c-4.69,6-9.38,12.92-12.45,22C113.37,135.15,111.31,122.31,115.69,105.74Zm-63.9,1.75a.58.58,0,1,1-.58.58A.58.58,0,0,1,51.79,107.49Zm-1.81.78c1,.07.05,3.22-1.43,4.37-1.16.9-1.66.48-1.93-1.17a8.12,8.12,0,0,0-1.27-2.42c-.62-.9-.37-1,1.19-.68A15.1,15.1,0,0,0,50,108.27Zm52.58.77,6,0-.92,7.11Zm-58,.33c.94.88,2.12,4,1.52,4.19a9.22,9.22,0,0,1-4.27-.49c-.24-.25-.24-.25.28-1,.29-.38.83-1.16,1.22-1.72C43.67,110,44.06,108.88,44.58,109.37Zm3.32.11c-.91,0-1,.15-.54,1.13.35.81.59.88,1.19.35C49.39,110.23,49,109.44,47.9,109.48Zm104.44.61.21,3.51C129.68,125,121.12,152,121,152l-1.66-3.11c10.5-26,24.46-33.59,33-38.8ZM44.56,114.24c1.36,0,1.76-.12,1.75.39a5.16,5.16,0,0,1-2.8,4c-1,.49-1.07.5-1.19-.73a9.53,9.53,0,0,0-.89-3.16c-.15-.36-.74-1.19,0-1a12.26,12.26,0,0,0,3.13.42Zm3-.31a.58.58,0,0,1,0,1.16.58.58,0,0,1,0-1.16Zm-7.29.8c.25,0,.49.5.77,1.25.61,1.64.79,2.52.61,2.91-.28.59-4,.21-4.67-.46A40.36,40.36,0,0,1,40.32,114.73Zm2.71.4c-.54,0-.26.37.14,1.31.28.66.65.76,1.08.3s.65-1.1.29-1.36A3.64,3.64,0,0,0,43,115.13Zm109.47,3.55,0,1.18c-.89-.27-1.44-.65-2.46-1-.62-.21-1-.36-.44-1a10.69,10.69,0,0,1,2.84-2.32v1.33c-1.67.75-1.51,1.44,0,1.82Zm-66.12-1.19H92.7v4.2h4.94l-.38,4.79H92.7v4.2H86.38v-4.2H81.87l.36-4.79h4.15Zm14.27,0c-3.2,16-.26,32.92,4.68,46.73l-2.5.27c-3.84-11-6.9-26.76-3.79-47,0,0,1.11,0,1.61,0Zm46.91.31a.58.58,0,0,1,0,1.16.58.58,0,0,1,0-1.16ZM36.39,119.15a14.46,14.46,0,0,1,1.42.43,8.57,8.57,0,0,0,2.32.36c1.57,0,1.77,0,1.1,1.32a7,7,0,0,1-2.35,2.55c-1.09.59-1.51.51-1.44-.57a8.15,8.15,0,0,0-.72-2.9C36.4,119.63,36,119.16,36.39,119.15Zm6.64.51a.58.58,0,0,1,.58.58.58.58,0,1,1-1.15,0A.58.58,0,0,1,43,119.66Zm106.33-.07a5.12,5.12,0,0,1,1.91.6c1.85.91,1.8,1.12-.71,2.9-1.81,1.39-2.24,1.55-2.31-.64-.06-1.85.13-2.84,1.11-2.86Zm-113.92.53c.73,0,1.55,3.85.89,4.19-1,.54-4.21-.5-4.19-1.38a14.7,14.7,0,0,1,3.3-2.81ZM147.16,120c.43,0,.49.33.45,1.55a20.2,20.2,0,0,0,.14,2.2c.09,1,0,1.1-.8.64a7,7,0,0,0-2.69-.87c-.93-.08-1-.47-.71-1.08A5,5,0,0,1,147.16,120Zm-109,.58c-.64,0-.48.34-.08,1.3.28.68.77.75,1.27.17.7-.82.56-1.25-.46-1.41a7.13,7.13,0,0,0-.73-.06Zm108.15.91a2.39,2.39,0,0,0-.81.35c-.6.38-.84.66,0,1s1.19.38,1.13-.29c0-.41,0-1-.35-1ZM87,122v4.19h5V122Zm54.82.36a.58.58,0,1,1-.57.58A.58.58,0,0,1,141.81,122.31ZM47.64,123l15.87,20.51-1.06,2.67L46.11,124.5Zm105-.1,0,2.68c-1.8,1.32-13.18,9.63-19.08,23.61l-3.08,1.33a57.09,57.09,0,0,1,22.12-27.62ZM31.86,124a25.31,25.31,0,0,0,3,1.17c1.12.13,1.51.06,1.2.64a6.51,6.51,0,0,1-3.31,3.12c-1,.32-1.43.2-1.28-.4a10.22,10.22,0,0,0,.3-3.1c.15-.56-.33-1.35.09-1.43Zm-1.21.23c.66.57.53,4.16-.21,4.93-.38.4-1.49,0-3.17-.92-1.09-.63-1.29-1-.75-1.39.93-.56,3.63-2.75,4.13-2.62Zm113.39.08a5.18,5.18,0,0,1,1.28.17c2,.45,2.42.9.73,2.25a14.06,14.06,0,0,0-1.48,1.36c-.9,1.12-1.53.31-1.73-1.73-.14-1.42.07-2.23,1.2-2.05Zm-2.48.19c.33,0,.53.17.53.58a19.2,19.2,0,0,0,.56,3.35c.36,1,.1,1.27-.76.82a7.58,7.58,0,0,0-3.17-.52c-1,.08-1-.2-.69-1.06.53-1.52,2.57-3.16,3.53-3.17Zm-108.73.75c-.39,0-.4.52-.14,1.72.09.38.41.36,1-.08s.7-.84-.12-1.33a1.66,1.66,0,0,0-.77-.31Zm4.5.13a.58.58,0,0,1,0,1.16.58.58,0,1,1,0-1.16Zm102.36,2.25a1.74,1.74,0,0,0,1.47.09,1.71,1.71,0,0,0-.08-1.55C140.5,126,139.34,127.21,139.69,127.64Zm-95.26,2.21c.34,1.66,2.66,1.57,2.4-.16-.16-1-.19-1,.31-1,2.39.12,2,3.91-.78,3.62-.57.07-.65.31-.16.51a16.7,16.7,0,0,0,2.62.68c3,0,7.32,4.63,7.21,8.75-.07,2.69.84,4.63,1.76,4.85.74.17,1.81-.5,1.72-1.33-.13-1.14.79-.78,1.32,0,.8,1.12-.24,2.75-2.16,2.63-.82.16.6.68,1.65,1,1,.06.15,1.24,0,1.45-.54.63-2.3.15-3.69-1-1.7-1.38-2.43-3.23-2.63-6.87-.12-2.34-.3-2.81-1-1.85-1.22,2.15-4.13,1.1-4.49-1.17-.2-1.2.85-2.07,1.19-1,.9,2.26,3.11,1.72,2.75-.53-.24-1.49-1.72-2.31-4.63-3.13-3.51-1-4.55-2.2-5.23-5.1-.3-1.28-.26-1.95.42-2.62.33-.33.75-.67.75-.67s.47,1.95.67,2.85ZM136.11,128a.58.58,0,1,1,0,1.16.58.58,0,0,1,0-1.16Zm-110,.55c1,.38,1.94.95,3,1.32.7.24.51.8-.21,1.6a7.17,7.17,0,0,1-2.72,2v-1.62c1.36-.48,2.23-1.62-.06-2Zm112.73.91a8.23,8.23,0,0,1,1.61.15c1.66.35,1.86.5.86,1.67l-1.22,1.47c-1,1.38-1.52.9-2-.88S137.41,129.31,138.83,129.47Zm-107.52.66a.58.58,0,1,1,0,1.16.58.58,0,0,1,0-1.16Zm105.84,1.26c.16.59.4,1.34.59,1.87.9,2,.33,1.23-1.29,1.05-1.09-.12-2.82.07-3.25-.23-.18-.25,0-.89.34-1.62a5.81,5.81,0,0,1,2.05-2.29c1.68-.78,1.29.22,1.56,1.22ZM40,130.68l18.13,24.14-1.42,2L38,132Zm113.61.09A46.34,46.34,0,0,0,139.82,147l13.81-5.37Zm-18,.79c-.52.14-1.26,1.11-.94,1.48a1.71,1.71,0,0,0,1.32.09c.56-.2.18-1.58-.38-1.57Zm-79.44,26.1-3.87,4.9L32.17,136.35l5.08-3.69Zm96.43-25.47.14,9-11.82,5A48.75,48.75,0,0,1,152.59,132.19Zm-80.8.76,4.73,6.21L70.74,139Zm59.84.51a.58.58,0,1,1-.57.58A.58.58,0,0,1,131.63,133.46Zm3.47,1.47c2.17,0,2.89.15,2.26,1.22-.84,1-1.34,2-2.25,3-.53.55-1.19-.57-1.74-2.36-.45-1.44-.22-1.81.62-1.82S135,134.93,135.1,134.93Zm-2.5,1.95a12.59,12.59,0,0,0,.92,2.08,7,7,0,0,1,.68,1.32c-.06.27-.31.29-.88.08-1.23-.56-4.13,0-4.21-.25-.43-.62.22-2.3,1.43-3.47a3,3,0,0,1,1.46-.94c.31,0,.37.43.6,1.18Zm-101.12-.44L52,163.21,50.54,165,29.83,137.66s-3.27,1.61-4.23,2.15l.13,13.84-.56,0,.09,70.13,11.42-11.47-.15-47.59c2.43,2.3,4.5,4.75,7.27,7l4.75,0c12.41-12.7,19.2-23.57,20.69-43,1-13-3.3-29.4-14.7-45.27l-2.78,1.7,5.5,8.35L45.61,98.6c-4.64,9.84-10.14,18.93-20.2,24.14l-.05,12.74-.18.27.14,4Zm100.1.91c-.55,0-1.4,1.22-1,1.63a1.27,1.27,0,0,0,1.46-.19A1.07,1.07,0,0,0,131.58,137.35ZM70.5,140.11l6,0-1.58,5.2-5.85-.11Zm57.12,0a.58.58,0,0,1,0,1.16.58.58,0,1,1,0-1.16ZM97,140.25l.77,6.74A45.35,45.35,0,0,0,78,161c-1.06-.07-9.49.08-9.49.08.21,0,7.82-14.42,8.69-20.69Zm-23.82.62-2.75,1.91,2.15,2.31,2.85-1.94Zm57.39,0a12.81,12.81,0,0,1,2,.18c1,.2,1.16.22.82,1.07a16.48,16.48,0,0,1-1.75,3.3c-.93.58-3-3.59-2.29-4.31a2.09,2.09,0,0,1,1.22-.24Zm-2.64,1.28c.27,0,.62.5.73.95a9.28,9.28,0,0,0,1.65,2.58c.75.83.71.95-.36,1a13.49,13.49,0,0,0-3.22.62c-1.11.4-1.26.31-1.12-1,.22-2,1.52-4.12,2.32-4.19Zm-1,4.06c.13.38,1.85-.32,2-.77,0-.21-.69-1.39-1.1-1.44-.68.1-1,1.67-.85,2.21Zm-58-.26,5.68.05-1.86,4.71H67.13Zm2.54.63-2.72,1.73,2.12,2.07,2.61-1.81Zm57.79.85c.49,0,1,0,1.1.22.3.5-.92,3.3-.92,3.3l-2,.8a12.33,12.33,0,0,1-1.34-2.79c-.07-.42.14-.57.6-.84a6,6,0,0,1,2.57-.69Zm-5.36.23a.58.58,0,0,1,0,1.16.58.58,0,1,1,0-1.16ZM98,147.77s1.23,7,1.3,6.22c-9.48,3.59-15,8.89-17.65,14.07H63.85l4-6.21,10.52-.05a43.13,43.13,0,0,1,19.64-14Zm-2.27,1.65-.88,2.82,2.66,1.7,1-3Zm29.12.05c.23,0,.45.36.91,1.18.34.6.78,1.48.78,1.48l-.79.3c-.65-2.21-1.23-1.39-1.3.56l-1.09.43a8.55,8.55,0,0,1,.74-3c.36-.63.55-1,.75-1Zm-58,1.93,5.51.07-2.3,4.81-5.6-.16Zm24,.39-.44,3.56,3,.64.41-3.39Zm-21.69,0-2.73,1.77L68.28,156l2.62-1.77ZM86.65,155l-.56,3.29,2.78.64.64-3.31Zm-60.5.2,7,6.95.38,48.51-6.93,7Zm37.91,1.77s5.56.16,5.56.16l-2.24,4.06-1.91-.08L68,159.33l-1.61-2.07L63.79,159l1.44,2.1L61.46,161Zm35.94,1.2,1.89,6.3-2.27.4-1.71-5.93a13.2,13.2,0,0,1,2.09-.77Zm-17.88.4,0,3.77,3,.26.12-3.54Zm15.1.6,1.73,6-1.44.41-2.07-5.67A5.8,5.8,0,0,1,97.22,159.12Zm-2.63,1.23,2.22,5.86a25.94,25.94,0,0,0-8.66,6.62,9.21,9.21,0,0,0-3.92-1.75,24.76,24.76,0,0,1,10.36-10.73ZM61,161.82l5.84.18-4.07,6.11H56.18Zm17.39.23L78,165.62l3.13,1.87.48-3.68Zm-3.77.5-2.22,2.37,2.36,2.71L77,164.8Zm-5,.12L67,165.11l2.1,2.77,2.41-2.78ZM36,165l.26,47.4-9.71,9.47-.07-2.55,7.71-8.11q0-24.06-.09-48.1Zm25.83-1.53-2.69,3.68h3.18l2.31-3.57ZM45.3,186.35c-1,3.83-5.93,8-6,7.92,2.41,3.48,2.33,8.44.2,10.89,0-.06,3.88,3.18,4.42,4.86.31.66.43,1.48.82,2.14.1.18.43.62.43.62C54.61,203.13,50.11,191.82,45.3,186.35Zm.15,1c9.17,11.46,3.12,21.95-.08,24.87l-.61-1c6.82-8,3.93-17.78,0-22.42Zm-1,2.23c.06.18.42.72.16.69l-.46-.09Zm-.07,1.27a.52.52,0,0,1,.46.21c.19.31-.76,2.94-1.35,2.33-.17-.35-.38-.65-.54-1s-.07-.64.37-1.07a1.7,1.7,0,0,1,1.06-.46Zm1.32.72c.47,0,1.13,1.51,1.19,2.56a3.69,3.69,0,0,1-2-.74A4,4,0,0,1,45.7,191.58Zm-3.59,1.2c2.77,5.59,2.59,10,.16,14l-1.9-1.65a11.26,11.26,0,0,0-.25-10.46Zm1.87,1.4a4.42,4.42,0,0,1,1.3.24c1.85.59,1.92,1.81.14,2.7-.74.37-1,.21-1.39-1.65-.21-.92-.37-1.26-.05-1.29Zm3.57,2.14c.35,0,.52.68.56,1.85s-.19,1.19-1.08.4-1.13-1.06-.25-1.76c.26-.21.6-.49.77-.49ZM45,198.15a3.53,3.53,0,0,1,1.18.7c1.27,1,1,1.63-.45,2.1-1,.33-.95.37-.92-1.36C44.85,198.73,44.8,198.17,45,198.15Zm16.73,1.58a2.22,2.22,0,0,0-1.68,3c.24.57.59.57.17.92-.46.54-.7,1.78-.19,2.24s.75-.26.12.92L48.56,228.33l69.76-.13-8.39-15.81s.67-2.61-.67-2.92a1.11,1.11,0,0,1-.76-.89,2.66,2.66,0,0,0-.81-2.14,47,47,0,0,1-17.15-.6c-6.85-1.55-11.75-4.24-14.94-5.09a36.24,36.24,0,0,0-13.84-1Zm3.76.15a41.52,41.52,0,0,1,15.69,3.48A58.31,58.31,0,0,0,95,207.25a56.31,56.31,0,0,0,11.47-.05,1.19,1.19,0,0,1,1.12.31c.77.86.25,1.4-1.67,1.58a47,47,0,0,1-10.33-.36,61.76,61.76,0,0,1-16-4.32c-6.15-2.33-11.81-3.1-16.27-2.42-2.45.38-2.81.44-2.8-.23,0-1.29,1.08-1.88,5-1.88Zm-17.71,3.75c-.24.55-1.92-1.24-1.9-1.75a9.71,9.71,0,0,1,1.93-1.48c.26-.2.25-.1.25.14A12.89,12.89,0,0,1,47.81,203.63Zm-2.59-1.32c.78.1,2.05,2.21.93,2.54s-1.9.48-2-.2c.51-1.65.7-2.3,1-2.34Zm45.11,7.2a72.47,72.47,0,0,0,15.7,1.05c2.44-.25,3-.17,2.94.85,0,.64.06.62-3.09.62a60,60,0,0,1-7.49-.24A50.72,50.72,0,0,1,84,209.09c-4.87-1.27-9.1-3.72-13.87-4.22-4.37-.43-8.3.35-9.13.81-.27,0-.42-.42-.4-.8a1.1,1.1,0,0,1,.46-.9c12.54-3.18,19.25,3.64,29.26,5.53Zm-43.47-4.22c.41,0,.28.63-.4,2-.58,1.12-.81,1.12-1.14,0s-.32-1.37.38-1.55c.41-.1.76-.31,1.16-.37Zm-2.93.63c.49,0,1.19,2.24.83,2.66s-1.3.11-1.6-.29C42.68,207.66,43.29,205.91,43.93,205.92Zm21.92.6a31.45,31.45,0,0,1,5.66.5,20.07,20.07,0,0,0-3.11,1.35A19.33,19.33,0,0,0,65.85,206.52Zm2.53,2.71c6.87-3.86,9.77,1.47,10.76,2.33,6-1.34,7.19-.68,10.54,3,6-3,8.93-.45,11.44,1.15,2.95-2.78,6.69-2.85,8.63-1.46a10.9,10.9,0,0,1,.91,1.62c0,.18-.24,0-.92-.51-3.53-2.55-9.39.62-7.83,4,.43.9.36,1.29-.27,1.65a1,1,0,0,1-1.37-1.43c1-1.73.25-3.18-2.28-4.51-3.58-1.88-9.41.23-8.21,3,.77.89,0,1.51-1,1.48s-1.54-.81-.8-1.64c.92-1.05.68-2.13-.4-3.35-3.2-4.6-9.7-2.77-8.84,1.26.38,1-.69,1.41-1.81,1-.7-.28-.6-1.39.18-1.78.89-.09,1-1.39.91-2.22-.16-1.22-1.94-2.42-3.7-3a7.87,7.87,0,0,0-3.39-.47,2.83,2.83,0,0,0-2.75,3.55c.19,1.19-.14,2.43-1.53,1.77-.76-.36-.57-1.22.21-2,2.73-2.69-2.77-6-6.09-3.71a2.5,2.5,0,0,1-1,.55c2.09-5.22,8.61-.33,8.55-.12Zm9.05-.7,4.15,1.57a12.1,12.1,0,0,0-2.31.74Zm-10.84,1.7c-3.83-.73-4,3.58-1.54,4.28-3.44,4.75,5.55,6.59,3.9.73,4.56.83,3.74-4.39.35-4.35.79-1.94,7-.47,6.78,1-4.23.45-2.54,4.33-.71,4.33-4.42,4.22,4.42,8.1,4.19,1.75,3.55.75,4-4,.55-4.31,1.25-1.77,5.72-.65,7,1.38-3.52.47-3.3,3.58-.54,4.08-3.5,4.48,5.1,6.14,4.21.93,3.08,1.07,4.77-3.07.78-4.25,4.09-2.46,8.53,1.2,8,1.27-4.67-.27-3.74,4.43-.37,4.18-2.14,4.89,6.37,5.16,4.21.09,3.83.07,3.49-4.4-.17-4.7,2.31-1.69,4.91-1.84,6.59-.25-3.5.92-2,5,1.47,3.87.32,3.42,3.08,2.7,3.14,2.6l2.47,4.64-66.93.1L55.68,217a2.72,2.72,0,0,0,3.11-3.18c2.24,1.61,4.66-2.4,1.37-3.55,2.69-2.83,6.67-.22,6.43,0Zm-21.79-.3c-.14.15-.18.23-.41,0C43.81,209.27,45.4,209.22,44.8,209.93Zm13.84,1.78c.29.24.09.91-.15,1.14-.6.65-.8.59-.27-.53.15-.34.3-.61.42-.61ZM88,212l3.48.85-1.66.94A20.37,20.37,0,0,0,88,212Zm10.87,1.41,3.79.24A10.39,10.39,0,0,0,101,215,12.07,12.07,0,0,0,98.84,213.42Zm12.61,3.89a18.48,18.48,0,0,1,1,2C111.2,219.54,110.87,217.71,111.45,217.31Z" transform="translate(0.1 0.1)"/><path id="path12536" class="cls-4" d="M48.25,64.75c-4.13-6.83-8.48-13.47-13.91-19.14,5.43-5.67,9.78-12.31,13.91-19.14,4.13,6.83,8.47,13.47,13.9,19.14C56.72,51.28,52.38,57.92,48.25,64.75Z" transform="translate(0.1 0.1)"/><path id="path12538" class="cls-4" d="M14.45,56.2a45.25,45.25,0,0,0-5.8-8,44.81,44.81,0,0,0,5.8-8,44.76,44.76,0,0,0,5.79,8A45.2,45.2,0,0,0,14.45,56.2Z" transform="translate(0.1 0.1)"/><path id="path12540" class="cls-4" d="M130.34,184.71c-4.14,6.83-8.48,13.47-13.91,19.14,5.43,5.67,9.77,12.31,13.91,19.14,4.13-6.83,8.47-13.47,13.9-19.14C138.81,198.18,134.47,191.54,130.34,184.71Z" transform="translate(0.1 0.1)"/><path id="path12542" class="cls-4" d="M164.14,193.25a45.25,45.25,0,0,1-5.8,8,44.81,44.81,0,0,1,5.8,8,44.76,44.76,0,0,1,5.79-8A45.2,45.2,0,0,1,164.14,193.25Z" transform="translate(0.1 0.1)"/><path id="path12544" class="cls-4" d="M15.08,34.85h2.65l-3.89-9.72-3,4.11,0,5.61H13v2.9H5.63v-2.9H8.05V14H5.63V11.43h7.46v2.62H11l0,10.18L17.49,14h-2.3V11.43h7.93V14H21l-5.36,8.4,5.25,12.5h2.33v2.89H15.11l0-2.9Z" transform="translate(0.1 0.1)"/><path id="path12546" class="cls-4" d="M163.5,214.6h-2.64l3.88,9.72,3-4.11,0-5.61H165.6v-2.9H173v2.9h-2.42v20.9H173V238H165.5V235.4h2.05l0-10.18-6.51,10.27h2.3V238h-7.93v-2.53h2.09l5.36-8.4-5.25-12.5h-2.32l0-2.89h8.16l0,2.9Z" transform="translate(0.1 0.1)"/></g></g></svg>