<svg id="svg4946" xmlns="http://www.w3.org/2000/svg" viewBox="0 0 178.78 249.65"><defs><style>.cls-1{fill:#fff;stroke:#000;stroke-width:1px;}.cls-2{fill:#d40000;}.cls-3{fill:#e2cf00;}.cls-4{fill:#131f67;}</style></defs><title>13HEART</title><g id="layer1"><g id="g6155"><rect id="rect6355-6-85-90-3-5" class="cls-1" x="0.5" y="0.5" width="177.79" height="248.65" rx="8.5"/><path id="path163-0-2-7-7-1-8-7-00-1-2" class="cls-2" d="M14.11,56.2S12.34,53.65,10,50.66c-1.6-2-2.88-4.16-3-6a3.88,3.88,0,0,1,3.49-4.38c2.34-.1,3.29,1.65,3.67,3.09.39-1.44,1.33-3.19,3.67-3.09a3.87,3.87,0,0,1,3.49,4.38c-.12,1.87-1.4,4-3,6C15.88,53.65,14.11,56.2,14.11,56.2Z" transform="translate(0.1 0.1)"/><path id="path163-0-2-7-7-1-8-1-9-4-6-8" class="cls-2" d="M164.47,193.25s-1.77,2.54-4.16,5.53c-1.6,2-2.88,4.17-3,6a3.88,3.88,0,0,0,3.49,4.38c2.34.1,3.29-1.65,3.67-3.09.39,1.44,1.34,3.19,3.67,3.09a3.87,3.87,0,0,0,3.49-4.38c-.12-1.87-1.4-4-3-6-2.39-3-4.16-5.53-4.16-5.53Z" transform="translate(0.1 0.1)"/><path id="path39-51-8-0-0" class="cls-2" d="M16,35.86h2.64L14.8,26.14l-3,4.1,0,5.62h2.09v2.89H6.59V35.86H9V15H6.59V12.44H14v2.61H12l-.05,10.19L18.45,15h-2.3V12.44h7.93V15H22l-5.36,8.39,5.25,12.5H24.2l0,2.89H16.06l0-2.89Z" transform="translate(0.1 0.1)"/><path id="path39-3-9-6-0-8" class="cls-2" d="M163.84,214.6h-2.65l3.89,9.72,3-4.11,0-5.61h-2.08v-2.9h7.34v2.9h-2.42v20.9h2.42V238h-7.45V235.4h2.06l0-10.18-6.5,10.27h2.29V238H155.8v-2.53h2.09l5.35-8.4L158,214.59h-2.33V211.7h8.15l0,2.9Z" transform="translate(0.1 0.1)"/><path id="path3876-2-1-7" class="cls-3" d="M64.94,211.34a228,228,0,0,0,43,.93c3.81,5.3,11.45,16.12,11.45,16.12L50.11,229ZM47,215c1.85-3.78,2.21-7.42,1.86-12.67-.28-4,2.22-7.16,4.79-6,2,.93,1.08,4.74-1,3.93-.79-.31-1.48,0-1.38,1.78.18,4.47,1.36,9.49.35,13.77C50.89,220,45.23,218.12,47,215Zm-17.4-5.83a3.31,3.31,0,0,1,4.18-4.88c1.17.55,1,1.74-.46,1.11-2.05-.89-4.26,2.25-2.47,3.52.82.58,1.13.5.51-.23-1.67-1.94,2.58-2.81,2.46-1.52a23.67,23.67,0,0,1-.47,2.53c-.86,1.36-2.53.66-3.75-.53Zm6.1-13.92a3.65,3.65,0,0,1,.31-5.23c.7-.77-5.63-12.68-4.83-12.75,8-.86,16.08-.21,24.09,0,0,0-4.27,7.75-6,11.59-.68,1.54.92,3.36.26,4.51-2.06,2.28-.78,4.8-2.07,4.91a26.14,26.14,0,0,0-11.07,0c-.32,0-.27-2-.71-3Zm34.61-82.74c4,20.77-1.92,42.78-15.58,57.3-1.93-1.87-3.41-5.42-5.33-7.73-5.34-1.62-9.19.28-12.93,2.15a21.15,21.15,0,0,0-10.73-3L25.58,158c3.7-.08,7.6.27,10.89,2.32l5.15-2.11L25.56,141.42l.22-2.87,19.49,19.84,2.51.09c-5.52-14.79-.69-38.29,22.49-45.94Zm27.17,26.05,2.82,13.56S84.46,168,76.16,176l-6.94-.64c3.46-5.2,5.44-10.47,7.74-15.71Zm56,18.6c-6.62,7.47-14.52,12.23-23.3,17.46-3.51-4-7.77-8.3-10.23-12.21,7.66-4.12,15-7.32,22.46-14.55-.41.47-9.57,3.6-9.54,3.24-.33,1.54-.13,2.49-1.62,2.9-1.76-2.48-3.47-4.5-6.25-5.61a6.4,6.4,0,0,1-2.71-.67c.78-.17.43-9.7,0-9.81.85-.28,1.71-.94,2.89.37.55.37,5.82-5,7.62-6.83,7.05-.58,13.3.12,20.24-.07-.05,8.49.44,17.29.43,25.78Zm-44.79-21.5c-.17-.36-2-14.43-.26-23.25,4.64-14.84,3.46-19,15.45-33.58.79-.78,3.55,1.74,5.62,6.08,6,3.81,13.66-1.1,13.66-1.1s3,2.45,9.72,3.8l-.11,2.64c0,.77-7.58-.82-9.21-2.35,0,0-5.65,1.9-5.65,2.25,0,1.48,15,15.52,15,15.52l-.08,3.29c.1,0-20.64-21.71-20.91-19.44,5.87,25.51-4.12,38.43-23.28,46.14Zm-24.93-4.48-.34-13.49,12.7.15.53,13.63ZM25.6,116.62c.34-.47-.5-25.14-.44-25.14,8.08-8.12,16-12.66,23.91-17.6,3.59,3.59,6.63,6.61,9.27,11l-10.93,6.8c.41,1.66-.67,2.26,6.38,8.71.12-.44,2.45-1.75,2.85.21-1,4.15.43,7.68.61,9.91-1,1.31-3.12-.1-3.12-.1-1.39-1.46-6.85,5.77-8.41,6.58-6.79-.25-20.5.21-20.12-.33ZM102,72.77c0,.09,7,0,6.92.18-1.26,3.12-4.14,9.35-7,16.24-2.41,4-19.65,20.7-19.65,20.7-.82-4.84-2-9.57-3.33-14.28Zm30-23.25c2.5,1.08,9.53.51,10.64,0,1.43,1,.54,2.28.36,3,1.46,1.87,2.27,2.54.6,5.56-.38,0,5.12,12.51,5.27,12.52,0,0-5.81-2.79-7.86-4.67l-4,5.39-4.66-6.08c0,.55-9,6.55-9.08,6.26-.28-.29,8.18-9.49,6.5-14.89-.4-1.3.52-2.63,1.15-3.77.44-.79-.14-2.31,1.09-3.36Zm-4.64-1.12c.37-.44-2.18-11.75.59-16.32,1.17-1.66,3.29-1.75,4.17-.39.68,1.89-1.33,4.53-1.74,5.81-1.31,3.58.64,8.3-.31,11.69-2.85,7.39-7.89-.73-2.71-.79Zm19-5c-1.51.07-.46-4.46-.21-5.76,0-.26,2.75-.9,3.74.88,1.6,2.66-.33,6-3.54,4.88Zm-17.9-22.84L114.25,37.9C100,36.24,85.62,35.18,71,37.44L59.25,20.87Z" transform="translate(0.1 0.1)"/><path id="path3874-3-1-4" class="cls-4" d="M154.6,19.46H24V230H154.6Zm-26.35,1.09L112.59,40l-.38.13a90.49,90.49,0,0,0,4,9.86c2.27,4.73,8,13.41,4.41,20.36-.35.6-.68.89-1.11.89-.6,0-.59-.36-.23-1.06a15.21,15.21,0,0,0,1-7.1,28,28,0,0,0-2.16-6c-6-11.1-7.81-17-7.47-17a1.33,1.33,0,0,0-.43-.17l-.59-.2c2.07,7,5.42,12.92,8.07,18.39,2.17,5.08,2.41,7,1.27,10.74-.44,1.44-1.24,2.35-2,2.35-.59,0-.55-.12-.15-.85,2.08-3.78,1.6-7.91-1-12.71-3.76-7.93-6-13-7.36-18,0,0-.69-.22-.92-.28,1.11,5.3,4.23,11.41,7.13,17.66,2.4,4.81,3.09,8.32,2.23,11.09-.29,1.2-1.19,3-2.33,3-.45,0-.52-.24-.1-.86,1.78-3.08,2.09-5.92-1.09-12.39-2.92-6-5.86-12.61-6.86-18.43-.07-.48-1.34-1-1.06-.25,1.57,6.87,4.7,13.91,8,20.76,1.87,4.26,2.06,7,.66,9.37-.79,1.33-1,1.64-1.57,1.65s-.69,0-.3-.77c1.69-3.58,1.41-6.74-.85-11.91-3.11-7.1-5.73-13-6.85-19.22-.2-.06-1.26-.47-1.11-.16A102,102,0,0,0,109.53,56a58.17,58.17,0,0,1,2.81,7.6c.88,3.59-1.12,8.53-3.73,8.78-1,.09-.86-.4.23-1.42,1.87-1.77,2.23-4.58,1.6-7.84A41.51,41.51,0,0,0,108,55.14c-2.28-5.53-4.77-11.32-5.55-16.43,0-.46-1-.46-.73,0a58.83,58.83,0,0,0,3.39,11.48c1.62,4.16,4,8.81,4.81,13.92.64,4.17-1.93,8.11-5.06,8.35-3.76.28-4.5-3.49-3.59-5.25,1.47-2.64,5.76-1.13,4.49,1.56a1.48,1.48,0,0,1-2.88-.56c0-.15.21-.62.17-.64s-.41.26-.51.45c-.76,1.37,1.52,3.22,3.11,2.12,5.33-2.92,1.73-11.83-.59-17.27a56.19,56.19,0,0,1-4.61-14.34c-.19-.13-1.07-.36-.95-.2.64,2.51.94,4.62,1.58,6.72,1,3.3,2.81,7,4.29,10.69s2.68,6.74,2.07,10.53a2.12,2.12,0,0,1-.44,1c-.24.25-.44.21-.51-.75,0-.13-.19-.31-.21-.48a11.94,11.94,0,0,0-.33-4.18,20.47,20.47,0,0,0-2.16-4.45c-.49-.81-1.79-3.3-1.33-1.58a23.12,23.12,0,0,0,2.07,4.69,9.67,9.67,0,0,1,1,4.13c-.19.5-.62.53-.83.36s-.18-.86-.22-1.3a13.84,13.84,0,0,0-3.28-6.18c-.91-1,2.14,4.36,2.36,5.79.09.61.28,1.11.08,1.4s-.41.2-.68.13-.25-.25-.52-1.17a9.25,9.25,0,0,0-2.24-3.8c-.41-.49-.68.12,0,.91A9.22,9.22,0,0,1,102,65.07c-.58.84-.87.68-2.1-1.45-.81-1.41-1.29-1.77-1.5-1.76-.54,0,0,.7,1.47,3.1.78,1.29.8,2.08-.09,2.08a9.53,9.53,0,0,1-2.4-2.69c-.35-.68-.79-1.2-.79-.37a10.63,10.63,0,0,0,1.76,2.89c1.13,1.33,1.45,1.59,1.6,2.18.06.28.2.76.3,1.08.29,1,.14,1.23-.45.72-.26-.7-.48-.78-1.2-1.32a12.24,12.24,0,0,1-2-2.48c-.21-.31-.39-.71-.61-1-.54-1-1.27-1.12-.75-.08a16,16,0,0,0,1.08,1.87c.71,1,.56,1.55-.28,1.55-.36,0-1.37-1.34-2-2.38-.41-.69-1-1.17-1-.49a8.08,8.08,0,0,0,1.26,2.3c.81,1,.91,1.56.13,1.55-.54,0-1-.52-1.68-1.57s-1-1.35-1.24-1.24.93,2.13,1.89,3.21.24,1.61-.8.7a11.77,11.77,0,0,1-2-2.67c-.56-1.25-.93-.91-.56.08a9,9,0,0,0,1.79,3.07c.4.41,1.22.73,1.62,1.08,1.13,1,1.85,1.91,1.76,2.07-3.24.19-5.89-3.31-6.62-5.42-.51-1.39-1.1-1.59-.54.37,1.57,4.87,6.49,7.41,9.89,5.22,2-1.32.24-4.75-1.44-3.64-.46.3-.48,1.15.1.69,1.09-.85,2.19,1.26,1,1.89-1.68.88-3.53-.85-2.39-2.93s5.63-.92,4.75,2.54a6.19,6.19,0,0,1-4.88,3.54c-3.73.07-6.3-2.82-7.74-5.68-.18-.36-.51-1.09-.78-1.67a9.41,9.41,0,0,0-.44-.89c.41,3.47,3.68,7.75,6.61,8.46,4.87,1.16,6.2-1.78,9.39-4.81,0,0,2.33.3,2.41.25a29.48,29.48,0,0,1,4.66-.2,106.38,106.38,0,0,0-1.12,98.74c1,2.11,1.17,1.71-.48,1.28s-3.23.24-4.61-.08c-2.85-.59-3.45,1.38-5.64,2.43-2.73,1-2.12,3-2.77,4.82-.2.28-.35.52-.24.48a1.74,1.74,0,0,0,.81-1.08,4.43,4.43,0,0,1,1-2.69c.47-.47.8-.7.91-.5a1.71,1.71,0,0,1-.21,1.15c-.66,1.26.22,5.5.27,2.49a7.55,7.55,0,0,1,3.48-6.16c1.61-.79,2.1-.71.8.51A8.67,8.67,0,0,0,98.85,180c0,1,.36,1.77.49.91,0-4.43,4.31-9.35,9-6.9.24.17.43.49.37.67-4.54-.77-8.48,1.74-7.9,7.67a20.32,20.32,0,0,0,.63-2.32c.72-3.64,4.78-5.23,7.63-4.23.54.23,1,1,.88,1.1-3.48-1.11-7.31,2.22-7.53,5.83-.07,1.18,0,2.18.55.06,2.25-8,9.19-4.38,8.34-3.72-5.37-.65-7.32,3-7.2,7.23.08.39.28.52.44.88a13.18,13.18,0,0,1,1.1,5.85c-.06.75.55,5.49-.06,5.29-2-.73-3.43-1.59-6.82-.05-.3,0-.4-.16-.3-.43a10.6,10.6,0,0,1,1.59-2.11c2.08-2.24.89-1.64-.82-.09-1.1,1-.86.32.18-3.11.42-1.39.16-1.55-1.66-2.49s-3.15-1.1-1.57-.1a12.22,12.22,0,0,0,2,1.07c.82.46.73.65.12,2.65-1.18,3.89-1.6,5.32-1.53,7.93.15,6.36,6.14,5.73,9.55,4.3l.14,4.19,12.86,18.31s-44.93,0-69,.35c1.37-3.33,15.9-17.45,16.77-20,.08,0-1.61-5.16-2.5-7.41-4.2-10.63-9.73-15.1-6.53-22.08.69-1.38.81-1.85,1.33-1.85.71,0,.94.48.14,1.84-3.43,5.82,3.89,15.87,6.37,22.29A73.59,73.59,0,0,1,68.28,209c0,.5,1.19.67.86.09-.91-3.28-2.06-6.85-2.59-8.14-2-4.74-4-8-5.92-12.59-1.07-2.93-1.63-6.3,0-9.33.6-1.11.77-1.72,1.17-1.78s.54.12.56.41a3.3,3.3,0,0,1-.61,1.59c-2.89,5,2.24,13,4.79,18.73a45.69,45.69,0,0,1,3.65,11.2.58.58,0,0,0,1,.45c-1.1-6.61-4.33-13-7.16-19.21-2.42-4.83-3.33-9-.1-13,.29-.28.89-.23.93.18a5,5,0,0,1-.69,1.86c-2.85,6,1.56,10.91,3.63,16.66,2,4.8,3.9,8.84,4.65,14,.57.22.85.5.92-.23-1.48-7.23-4.66-13.73-7.42-20-1.28-2.72-1.73-4-1.82-5.85-.12-2.51,1.13-5.68,2.25-6.51.29-.22.47-.26.73-.11s.29.33-.42,1.7a10,10,0,0,0-.22,8.69c2.19,4.78,4,8.71,5.35,12.23a42.25,42.25,0,0,1,2.57,10.2s1,.44.83-.21a56.05,56.05,0,0,0-3.47-12.31c-1.41-3.49-3.17-6.86-4.59-10.33a8.84,8.84,0,0,1,3.25-11l1.63,0c-.1-.05-3.72,1.41-3.91,6.65-.18,5,2.15,8.07,3.84,12.3,2.07,5.1,3.91,9.57,4.35,15a1.53,1.53,0,0,0,1,.15,53,53,0,0,0-3-11.44c-1.61-4.56-3.21-6.58-4.7-11.36-1-3.24-.87-7.62,1.38-9.62,3.36-3.44,8-1,6.88,2.94-.91,2.77-4.66,2.22-4.64-.37a1.46,1.46,0,0,1,2.71-.87c.16.25.26,1.33.33,1.37a3,3,0,0,0,.28-1.05,2.3,2.3,0,0,0-3.21-1.84c-1.88,1-3.11,3.16-3,6.11.13,3.13.69,5.16,3.22,10.07,3,5.72,3.94,11.92,4.57,16.1.27-.12.6,0,.7,0a48.23,48.23,0,0,0-4.58-16.41c-2.8-5.89-3.58-9.49-2.65-12.13.14-.39.27-.68.44-.7s.41.45.7,1.51a3.77,3.77,0,0,1-.09,1.23c-.25,2.42,1.43,7.44,3,9.67.46.64,1,.62.54-.51a19.18,19.18,0,0,1-2.71-9.12c0-1,1.16-.57,1.19-.05a12.06,12.06,0,0,0,1.06,5.11c1.62,2.82,2.52,2.94.86-.2-.37-.73-1.42-3.81-1-4.87.24-.21.53-.25.67,0a12.15,12.15,0,0,0,2.27,4.81c.6.7.7.38.39-.49-.53-1-2.19-4.38-1.43-5.14.25-.2.1-.09.77,1a12.42,12.42,0,0,0,1.9,2.59c.6.6.75.2.12-.85-1.24-2.1-2-3.85-1.51-4.29s.54-.23,1.52,1.46c.43.75,1.07,1.86,1.28,2.12s.42.33.42.12a8.27,8.27,0,0,0-2.66-4.78,11.63,11.63,0,0,1-.07-1.8c2.61,1.36,2.71,2.89,4.44,5.24.18.18.43,0,.36-.36a14.62,14.62,0,0,0-1.73-3.26c-.5-.68-.52-1.07-.1-1.26.69-.32,1.66.72,2.68,2.57.48.86,1.12,1.36,1.12.91a10.34,10.34,0,0,0-1.5-3.11c-1-1.06-.51-1.81.67-.82a5.25,5.25,0,0,1,2,2.41c.44.95.82,1.07.82.31a6.53,6.53,0,0,0-2.37-3.51c-.74-.45-1.16-.95-1-1.28.64-1,3.26,1.49,4.16,3.78.26.67.72,1,.84.72s-.33-1.8-.88-2.56c-.9-1.74-3-3.42-4.28-3.22-.24,0-.91-1.39-.91-1.39,3.21-.52,6.33,3.36,6.88,4.82,1.06,2.76,1.59,2.43.67,0-1.8-4.73-7.39-7.38-10.49-5.09-1.77,1.3-.71,4.42,1.11,3.89.72-.27,1.42-1,.15-.77a1.27,1.27,0,0,1-.43-2.47c2.32-.7,2.85,3,1,3.87a2.52,2.52,0,0,1-3.69-2.57c.34-4.08,5.29-5.26,10.19-2,1.37.93,3.06,3.95,3.64,5.86.2.64.84.86.92.78s-1.35-3.55-1.86-4.41c-2.13-4.92-9.83-5.17-9.83-4.91a28,28,0,0,0-5.69,5.07l-6.89-.64c17.54-28.44,18.91-70.27.93-99.88.23.15,3.46,1,4.57.11a1.92,1.92,0,0,1,2-.21,3.06,3.06,0,0,0,3.21-1c.84-.77.85-1,1.39-.94,1.6.21,2.66-.74,3-3.06.13-.92.22-1.87.09-1.73a8.72,8.72,0,0,0-.38,1.37,3.69,3.69,0,0,1-1.15,2.31c-.87.74-1.37.33-1-.79a4.92,4.92,0,0,0,.16-3.41c-.08-.15-.1.43-.22.88-.95,3.65-1.94,5.5-3.66,5.93-.81.2-1.18.07-.92-.4,3-3.26,2.83-6.87,2.6-6.57-.65,2.1-1.84,5.21-3.81,6.5a5.5,5.5,0,0,1-5.56.28c-.79-.53.4-.69,2.18-.71,3,0,5.79-4.08,5.32-7.48-.11-.63-.28,0-.52,1.08-1.11,3.68-3,6.27-7.33,5.5a2,2,0,0,1-.75-.41c-.7-.5-.44-.84,1-.65,3.13.41,5.85-2.55,5.84-6.14,0-1.71-.26-1.69-.53-.41-.38,1.8-1.77,7.34-6.83,5.53-.91-.5-1.41-1.14-1.08-1.23,2.95.6,5.65-.06,6.7-4a8.2,8.2,0,0,0-.11-4.73c-.15-.94-.46-1.66-.57-2.61a54.13,54.13,0,0,1-.56-8.19c.24-.24.28-.19,1.13.38,1.67,1.12,2.93.86,4.63.2,2.18-.8,2-.65-.3,2a14.56,14.56,0,0,0-1,1.31c-.58,1.1.51.29,1.32-.74,1.14-1.44,1.38-1.77,1.6-1.77a18.64,18.64,0,0,1-.77,4.72c-.37,1.42-.37,1.74.52,2.1.39.16,1.13.47,1.55.67,1.86.9,1.69.17.2-.68-2-1.15-2-1.09-1.45-3A46,46,0,0,0,82,49.19c.91-5.47-3.18-8.48-8.6-6.57-.31.16-.67-2.87-.62-3.67,0-.29-.82-.23-1.53-1.11.22-.2-8-10.6-11.82-16.91,23.81.06,47.27-.43,68.81-.38ZM110.61,40.09l.08.06S110.63,40.09,110.61,40.09ZM129.2,21h23.63v50.3l-2.34,0s-3.84-6.68-4.85-9.83c-.25-.79-.69-1.87-.86-2.3-.39-1-.67-1.08-.15-1.67a4,4,0,0,0-.17-4.72c-.32-.37-.48-.25-.46-1.16a3.94,3.94,0,0,0-.12-1.68c-.34-.67-.57-.72-.08-1.46a12.46,12.46,0,0,0,1.47-3c.47-1.6.14-1.9,1.17-1.52a3.52,3.52,0,0,0,4.69-3.67,3.71,3.71,0,0,0-4.5-3.6c-.55.14-.66.1-1.51-.44a5.31,5.31,0,0,0-.93-.6c-.39-.15-.72-.14-.88-.42a3,3,0,0,0-2.54-1.39,5.24,5.24,0,0,1-2-.37c-.43-.23-1.62,0-3.13-.28a5.76,5.76,0,0,0-1.55.17c-.93,0-.55-.1-.73-.82-1.16-3.73-4.58-3.29-6.14-.48a14,14,0,0,0-1.21,4.42l-9.19-.13Zm-71.14.11c3.43,4.42,6.71,9.37,10.18,13.87,4.26,5.46,4.4,6.09,3.25,11.59-.64,3.1-.91,3.82-2.21,3.59a2.14,2.14,0,0,0-2.41,2c-.31,2.3,1.88,3.71,4.08,2.56,1.17-.6,1.2-.67.82,1.34-.56,2.87-1.67,5.34-2.38,5.26-1.85-4-6.35-1.14-4.85,3-.47.72.14,1.63.38,2.38a12.69,12.69,0,0,1-2.56,1c-12.6,3.77-28,13.62-36.51,22.86V21.34Zm72.31,9.44a2,2,0,0,1,1.46.54c1.1,1,.84,2.39-.68,5-1.59,3.66-1.16,6.54-.79,10.39,0,2.23-.76,4.35-2,5.26a2.11,2.11,0,0,1-3.29-2.52c.51-1,1.59-.41,1.85-1.36.35-3.49-.51-7.06-.57-10.48a12.76,12.76,0,0,1,1.21-4.91,3.43,3.43,0,0,1,2.76-1.93Zm3,6c-.43.36-1.16.37-1.25-.09a5.14,5.14,0,0,1,.64-2.18C134.36,33.92,133.86,36.16,133.4,36.56Zm2.36-2.4c1.3,0,2.16,3.32,1,5.29-.21,0-1.79,0-1.8.07a9.42,9.42,0,0,1,.19-1.73,3.33,3.33,0,0,0,0-1.63c-.43-1.55-.7-1.84.59-2Zm2.48.05h.15c1.33,0,2.08,2.59,1.66,5.41-.06.41-.09.83-.24.93a6.16,6.16,0,0,0-2.11.4,2.88,2.88,0,0,1,.11-1.68,5.71,5.71,0,0,0,0-3.61c-.31-1.2-.32-1.43.39-1.45Zm3.3.74c1.45.25,1.54,4.32,1,5.65-.15.19-.69.14-.89.22-1.24.36-1,.54-.82-1.45a13.37,13.37,0,0,0-.08-3.55c-.1-.5-.13-.84.22-.87a1.44,1.44,0,0,1,.62,0Zm-7.25,1.6c.57.8.11,2.66-.33,3.35s-.71.82-.43,1.15a1.69,1.69,0,0,1,.21,1.17c-.28.56.43.66,1.08,1,1,.55,1.55,1.57,2.34,3.44.27.65.83.44.56-.26a20.43,20.43,0,0,1-.49-2.06c-.16-.61,0-.91.71-.73,1,.26.89,0,1.27-.13.83-.46,1.38.2.88.56a6.33,6.33,0,0,1-1.58.53c-.58.16-.44.72.14.72a17.32,17.32,0,0,0,3.07-.75c2.87-.88,3-1.35,2.7.31a5,5,0,0,1-3.48,4.38,17.43,17.43,0,0,1-7.36-.17c-1.65-.76-1.76-1.29-2.26-2.77-.69-2-1.09-5.45-.31-7.44.7-1.68.63-1.51,1.29-1.42a1.42,1.42,0,0,0,1.57-.39c.09-.18.31-.5.42-.49Zm11,1.21a4.41,4.41,0,0,1-.13,2.52c-.17.33-1.18.31-1.57.32-.23,0-.21-3.05,0-3.38.58-.89,1.34-.18,1.66.54Zm-29.13-.53,2.84,0V38l-3.36,0Zm9.95.12v.91h-4.29V44h4.8l0,1.19-6.41,0,0-7.8h5.86Zm21.77-.19c4.39,1,2.43,5.91.78,6.2-2.05.38-3.79.14-3.22-1.69.57-1.24.18-2.79.34-3.91A2.82,2.82,0,0,1,147.87,37.16Zm-33.11,1.73,4.23,0v1l-4.83,0Zm9.39.87a1.24,1.24,0,0,1,0,2.48,1.24,1.24,0,0,1,0-2.48Zm11.92.49c.79.09.86,1.31.54,1.67a.89.89,0,0,1-1.42-.4A1,1,0,0,1,136.07,40.25Zm-22.49.53,5.41,0v.76l-5.46,0-.14-.49Zm30.43.33c.75,0,1.21.62.74,1.17C144.05,43.07,142.61,41.86,144,41.11Zm-57.6,1.67c-1.21,1-.24,2,1.37,1.07,3.46-2.11,8.55-.43,11.88,1.32.65.34.74-.45.1-1-3.07-2.75-9.62-4.32-13.35-1.4Zm52.38-1.44c.85,0,.83,1.07.29,1.45a.93.93,0,0,1-1,0c-.5-.19-.13-1.48.7-1.48Zm3,0c1,0,.89,2.1-.62,1.36A.78.78,0,0,1,141.78,41.35Zm-27.94,1.06,5.26,0v.87l-4.92,0Zm-33.95,2c1.44,1.15,1,1.22-1.38.37a7.25,7.25,0,0,0-4.08.27c-1.15.46-1.42.33-.92-.46,1.34-1.52,5-1.21,6.38-.18Zm6.91,1.91c-.15.36-.64-.29-1.31-.16-.95.18-.67.22.33,1.38s1.34,1.44,1.27,1.88c-.09.66.1,1,.74.95.31,0,.68.33,1.15.77a17.58,17.58,0,0,0,3,2.5c2.18,1,1.2-.12-.19-1.1-2.32-1.62-3.13-2.7-1.48-2.13a8.16,8.16,0,0,0,5.91-.57c.67-.41,1.1-1,2-.74,1.34.44,1.85-.36,1.48-.81-.61-.39-2-.86-3.31-1.76a8.14,8.14,0,0,0-7.74-.24c-1.16.68-1.57.2-.43-.48,4.57-2.5,8.18-.1,11.11,1.69.5.31.86.29.86.07-.08-.73-1.38-1.17-1.91-1.5-4.07-2.52-8.35-3.32-11.54.25Zm27.73-2.21h4.57v.92l-4.23,0ZM77.38,45.32c1.27,0,4,1.14,4,2.1,0,.36-.74,0-1.34-.34a6.77,6.77,0,0,0-4.6-.59c-1.28.24-1.69.46-1.88.3C73.09,45.78,76.21,45.32,77.38,45.32Zm49.37.68v1.64c-2.48.18-3,3-1.4,4.53,1.3,1.28,3.46.78,4.54-1,.19-.33.21-.52.33-.36a2.73,2.73,0,0,1,.19.7c.17.86-.07,1.08-.63,1.82a3.63,3.63,0,0,0-.46,3.81c.15.31.48.74.42,1,.32,0-2.81,8.88-7.38,13.37-.77.51-1.32-.1-.93-.93,3.73-8.64-3.4-16.67-6.17-24.4l11.48-.1ZM93.63,47.49l.65.06c-.53,4-4.33,3.34-4.48.1l.55,0c.74,3,3.28,1.78,3.28-.14Zm-21.51.08a2,2,0,0,1,.28.7c0,.92,0,2.26,0,2.67-.22,3.83-5,4.54-4.65,1.26a1.26,1.26,0,0,1,2.45-.28c.62,1.58.73-.39.74-1a18.25,18.25,0,0,0,1.22-3.35Zm23.08.27a1.45,1.45,0,0,1,.83.48c.31.35.19.52-.54.9s-1.16.38-.87-.46C94.8,48.24,95,47.84,95.2,47.84ZM131,48c.11,0,.39.15.32.57-.1.7-.7,1.09-.85.93C130.6,49.17,130.72,48.19,131,48ZM89.48,49.39c-.09.28-.25.16-.67-.2s-.44-.65,0-.94c.68-.42.72.88.63,1.14Zm-14.5-1c.8,2.56,2.43,2.24,3.16.12h.7c-.16,3.3-4.27,3.25-4.31,0Zm-1.44.32c.24,0,.07.82.07.82s-.68-.36-.28-.73A.42.42,0,0,1,73.54,48.67Zm6,.22a.75.75,0,0,1,.41.17c.4.27.33.43-.13.81-.7.6-1,.27-.64-.53C79.37,49,79.48,48.89,79.59,48.89Zm52.57.55a6.55,6.55,0,0,1,1.6.36,17,17,0,0,0,8.47-.14c.88-.25,1.53,1.31,1.06,2.45-.21.5-.17.56.46,1.23a3.44,3.44,0,0,1,.37,3.9c-.5,1-.47.92.12,2.67a62.33,62.33,0,0,0,5.11,10.76l-2.62-1S134.88,80,126.52,80.41l3,4.79a14.19,14.19,0,0,0,13.67-1.33c-.11.4,5.3,3.08,9.74,3.37l0,3.23c-3.29-.38-6.63-.45-9.69-2.41,0,0-2.81,1.2-5.63,2.09l15.78,16.57v2.77s-6.74-6.38-13.67-13.58l.15,35.39,13.65.27c-.43,9.21-.25,15.06-.16,25.61a90.24,90.24,0,0,1-23.53,17.48A68.23,68.23,0,0,1,120,162.37c-.06-.09.28-.27.22-.36s-.57-.18-.66-.32c-1.7-2.58-5.67-9.73-5-9.89,1.21.08,6.83-.63,7.95-4.05a5.45,5.45,0,0,1,0-1.54,13.32,13.32,0,0,0-.08-6.46c-1.21-3.22,2.43-2.19,2.55-2V125.59c-4.73,3.85-9.5,7.64-15.83,9.22-3.93-20.12,2.31-45.15,20.09-62.13l-1-.08c-18.27,19.19-23.06,40.29-19.95,62.51,0,0,.12.7.14.93,0,.56-.09.77-.58,1.17s-.88.64-.84,1c.08.71-.59.73-1.48.73-.4-.36-1,.09-1.28.26s-.69-1.83-1.27-.44c-.22.88-.65.94-1.62.51-.62-.19-.63.12,0,.85.81.89,1.5,2.22,1.37,2.62a1.66,1.66,0,0,0,1.07,2.3c-.07,0-.75,2.73,1.18,2.66a17.21,17.21,0,0,1,2.18.32,1,1,0,0,1-.31,1.05l-1.34-.69-.35,1.63-1.79-.13,4.35,5.46.51-4.26,5.09.66c.82,2.15,6,14.09,15.8,23-.11.29-6.77,3.08-6.77,3.08l-1-3.32-.84,1.24-1.51-.4-.17,1.4-1.34.44,2.41,1.59-6.12,1.77c-17.16-28.09-24.88-66.82-3.52-108.08l5.4.07-1.05,1.83,1.53-.24.44,1.33,1.12-.54,1.14,1.44,1.29-3.85s3.82.09,4.3,0,8.08-6.61,7.91-6.86-8.39,6-8.67,5.72c0,0-.83.2-.18-.58a30.21,30.21,0,0,0,3.16-4.51,21.59,21.59,0,0,0,3.28-8.2,1.59,1.59,0,0,0-.08-.78c-.74-1.49-.58-2.47.76-4.24.46-.61.49-.77.36-1.15a1.94,1.94,0,0,1,.6-2.16,1.06,1.06,0,0,1,.64-.36Zm-45.48,6c3.39,1.41.67,4.54-1.85,1.81-1.32-1.43-2.36-1.34-3.08-.29-.32.47.15,1.29.57,1s.78-.53,1.35,0c4.28,4,7.36-1.6,3.67-3-.46-.21-1.11.26-.66.45Zm-14-.14a.21.21,0,0,1,.11,0,4.4,4.4,0,0,1,0,2.11c-.53,3-2.65,10-7,6.59-1.73-1.36-.16-4.78,1.91-3.62,1.61.91.52,3.08-1.23,1.83-.84-.6-.57.64.14,1,1.22.64,3.41-.46,4.44-2.43a18.65,18.65,0,0,0,1.23-4.16c.22-1,.24-1.36.38-1.37Zm.36,5.22c.36,2.18-1.28,6-3.6,6.56-1.78.43-4-.74-3.83-1.83,0-.32.18.1,1.79.37,2.25.38,3.69-.86,5-3.7a8.85,8.85,0,0,1,.65-1.4Zm5.61,1a8.75,8.75,0,0,1-.22,1.32c-.24,1-.39,1.41.71.9a3.06,3.06,0,0,1,2.9-.05,4,4,0,0,0,3.8-.06c1.24-.42,1.85-.43,2.54,0,1.27.74.84.27.67-1.6-.11-1.31-.46-1.14-.92-.64a1.28,1.28,0,0,1-1.57,0,2.4,2.4,0,0,0-2.29.08c-.38.31-.92.35-1.65-.15-.49-.33-.76-.16-1.36.11a1.47,1.47,0,0,1-1.89-.21c-.49-.36-.71-.25-.72.29Zm-4.88,1.56c.13,0,.14.5.05,1.52-.41,3.73-3.29,5.82-6.68,4-1.49-.86-1.29-1.47.18-.93,2.33.86,4.69-.35,5.84-3.42C73.51,63.51,73.71,63.11,73.82,63.11Zm8.28,2.67c1.68.7,3.54.48,4-.15s-.29-.58-.71-.48a4.85,4.85,0,0,1-3.08,0C80.59,64.43,80.7,65.17,82.1,65.78ZM64.59,67.87a42.12,42.12,0,0,1,4.34,6.31C82.63,97.79,87,127.63,78,154.71a97.46,97.46,0,0,1-9.87,21.22l-4.69,0,1.61-1.87-2.18.16L62.75,173l-1.66.55-.8-1.86L58.79,176l-8.69,0c20.36-20.09,24.37-44.44,20.58-64,0,0,1.7-1.08,1.94-1.71a3.53,3.53,0,0,1,.3-.9c.75-.51,1.26-1,1.63-.9a.75.75,0,0,1,.48.39c.72,1.07.87,1.23,1.27.16.28-.77.16-1,1.08-.91.54.3,1.26.29,1.19.18s-.81-1-1.18-1.52c-.86-1.22-1.1-1.45-1-2a2.19,2.19,0,0,0-.93-1.93c.12-2.21-.72-2.43-3.08-2.92a2,2,0,0,1,.22-1L74,100.07l.5-2.08,1.89.1-5.47-5.37a39.79,39.79,0,0,1,0,4.51c-2.56-.15-5.09-1-5.13-.82A69.45,69.45,0,0,0,50.17,73.87l6-3,1.71,3.32.42-1.88,1.5.27.25-1.21,1.66-.23-1.83-1.77Zm36,3.88c.24.3.42.32.73.59l-.62.44a2.72,2.72,0,0,0-.11-1ZM60.37,72.86a.95.95,0,0,0,0,1.89.93.93,0,0,0,.93-.94A1,1,0,0,0,60.37,72.86Zm5.05.15a.95.95,0,1,0,.93.95A.93.93,0,0,0,65.42,73Zm-16.26.69c3,2.53,5.75,5.82,9.09,11l-.07.69,1,.39s5.55,7.42,5.26,10.71c-1.91.41-3.65-.12-7.06,3.12-1.61-.88-2.56-.6-4.23-.11a1.17,1.17,0,0,0,.61,1,2.16,2.16,0,0,1,3-.38c-.24.11-.84,7.48.33,9.05.88,2.5-1.43,2-3,1.41l.46,11.71c5.29-6.12,16.44-10.2,15.65-9.76,5.6,30-7.71,50.06-21.65,64.74l7.31,0s-6.3,10.25-6.77,13.09c.36.94,1.35,2.89-.32,4.26-.57.63-.63,3.49-.63,3.49-3.84.13-7.17-1.22-11.6.36-.45.15-.55-2.45-.58-2.92-2.47-2.23-.2-6,.13-5.77a91.79,91.79,0,0,0-6-13.07l-3.9-.21c-.3-.26-.5-7.21-.19-7.37C36.88,170,54,169,54,169l-4.59-6.52c-5.67-2.24-13.44,1.59-13.07,1.79,0,0-6.22-3.45-10.54-3l.14-3.4a19.82,19.82,0,0,1,10.48,2.56l5.26-2L25.57,141.31l.19-2.83C31,143.41,39.63,153,39.63,153v-36l-13.86,0-.37-7.27-.36-.64-.16-5.22.38-.53L25.14,101l-.13-.32-.18-5.33.3-.45.05-3.35c6.69-6.66,24-17.85,24-17.85Zm11.84,1,1.62,7.19,1.08-1.37,1.67.53.11-1.65L67,78.87Zm55.07,1.2a.95.95,0,1,0,.93.94A.94.94,0,0,0,116.07,75.91Zm-4.36.59a.95.95,0,1,0,.93.94A.94.94,0,0,0,111.71,76.5Zm-53.4.84a.95.95,0,0,0,0,1.89.95.95,0,0,0,0-1.89Zm56.74.57-6.48,6.18,1.82-.07.32,1.8,1.63-.75,1.32,1.23ZM117.81,80a.95.95,0,1,0,.93.94A.94.94,0,0,0,117.81,80ZM66.26,81.2a.95.95,0,0,0,0,1.89.95.95,0,0,0,0-1.89Zm4,.79a.95.95,0,0,0,0,1.89.95.95,0,0,0,0-1.89ZM66.64,83.4c.17,2.53.47,5.53.53,8.06l1.23-1.23,1.42.59.5-1.56,1.55-.07Zm39.91,2.11a.95.95,0,1,0,.93.95A.93.93,0,0,0,106.55,85.51ZM64,85.68a.95.95,0,0,0,0,1.89.95.95,0,0,0,0-1.89Zm46.28.22a1,1,0,0,0-.93.95.93.93,0,1,0,1.86,0A1,1,0,0,0,110.24,85.9Zm-.55,2-5.38,5.61,1.76.16.56,1.6,1.12-1,1.37,1Zm3,1.2a.95.95,0,1,0,.93.95A.93.93,0,0,0,112.64,89.15ZM70.27,90.9a.95.95,0,0,0,0,1.89.95.95,0,0,0,0-1.89Zm-23,.77-1.35,1a4.12,4.12,0,0,1,1.74,1.39,22.83,22.83,0,0,1-.39-2.44Zm27.37.63a.95.95,0,1,0,.93,1A.94.94,0,0,0,74.68,92.3ZM68,93.65a.95.95,0,1,0,.93.95A.94.94,0,0,0,68,93.65Zm38.48,1.91a.95.95,0,1,0,.93.94A.94.94,0,0,0,106.48,95.56Zm-3.67,1.38a.95.95,0,1,0,.93,1A.94.94,0,0,0,102.81,96.94Zm37.52.24,1.94,2.13v31.24l-1.89,0ZM65,97.4c1.57,0,3.33.23,3.89,1.2.87,1.09-1,.67-2.54.91s-.6.48,1.43.6c2.8.16,3.9.24,4.32.89a5,5,0,0,1,.11,1.68L69,102.53a17.84,17.84,0,0,0-3.11.1c-.38.1-.27.42-.14.55a23.85,23.85,0,0,0,2.81.13c4,.11,4.86.24,5.15,1.54s-.75,1-4.84.56a5.64,5.64,0,0,0-3.06.42c-.45.22,1.3.44,1.87.34a31.61,31.61,0,0,1,4,.42c.81.12.1.1-.31.6s-.19.9-.62,1.13-1.55.28-3.4.28c-2.12,0-3.11.52-.2.65,1.88.08,2,0,2.14.6.43,1.36-.48,1.6-2.39,1.9a15.91,15.91,0,0,1-3.31,0c-4.05-.29-5.46-1.27-6-3.09-2-6.77.48-10.9,6.39-11.23q.5,0,1,0Zm41,.3-4.58,6.76,1.76-.7.84,1.84,1.41-1,1.42.89Zm-34.27.82c.24.3.14.52-.26.73a1.63,1.63,0,0,1-1.27-.11c-.49-.22-.54-1.11-.13-1.21a1.86,1.86,0,0,1,1.66.59Zm-33.17-.34-2.1,2.32s1.94-.7,3-1.11Zm70.29,1a1,1,0,1,0,.93,1A.95.95,0,0,0,108.83,99.21Zm34.1.82s2.33,2.34,3.29,3.32h-.87l0,1.84,2.76,0,1.51,1.51-4.21,0v1.89h5.21l0-.81,2.06,1.9.24,20.95-9.94,0c0-10.32,0-20.26-.06-30.58ZM74.71,102.3c-.15.46-.47.46-1,.23-.81-.33-.69-1.24-.08-1.33,1.15-.13,1.37.41,1.09,1.1Zm3.13.4a.95.95,0,1,0,.93.94A.93.93,0,0,0,77.84,102.7Zm-3.28.72a1.64,1.64,0,0,1,.93.42c.51.52.33,1-.24,1.31s-1.09-.12-1.28-.89A.62.62,0,0,1,74.56,103.42Zm29.24,2.48a1,1,0,1,0,.93.95A.95.95,0,0,0,103.8,105.9ZM73,107.05a.79.79,0,0,1,.62,1.31,1,1,0,0,1-1.67-.23A1,1,0,0,1,73,107.05Zm27.44.39a.95.95,0,1,0,.93.94A.94.94,0,0,0,100.46,107.44Zm3.31.62-4.17,7.1,1.69-.67,1,1.36,1-.93,1.6.79Zm-32.71,1.19c.74,0,1,.6.41,1.14a.81.81,0,0,1-1.21,0C69.61,109.91,70.11,109.25,71.06,109.25Zm35.63.09a.95.95,0,1,0,.93.94A.93.93,0,0,0,106.69,109.34Zm-30.35.74a.91.91,0,0,0-.89,1,.93.93,0,1,0,1.86,0,1,1,0,0,0-1-1Zm69.06.21v2h5.25v-2Zm-69,1.79-2,7.46,1.68-1,1,1.09,1-1.22,1.75.47Zm3.58.81a.95.95,0,1,0,.93.94A.94.94,0,0,0,80,112.89Zm-6.56.38a.95.95,0,0,0,0,1.89.95.95,0,0,0,0-1.89Zm72,.58v1.81h5.25v-1.79Zm-43.23,2.36a.95.95,0,1,0,.93,1A.94.94,0,0,0,102.17,116.21Zm43.23,1v1.94h5.25v-1.94Zm-108.31.23,1.85,0,0,33.84-1.8-1.93Zm-.77.07-.09,30.93-3.5-3.73.93,0v-2.1l-3,0-1.29-1.28h4.32v-2.07l-5.13,0v1.25L26,137.73l0-20.19Zm66,1-2.81,7.35,1.77-1,.91.91.94-.87,1.61.8Zm-73.77.35,0,2h5.17v-2Zm76.95.4a.95.95,0,1,0,.93.94A.94.94,0,0,0,105.49,119.22Zm-6.34.1a.95.95,0,0,0,0,1.89.95.95,0,0,0,0-1.89Zm-21.92.35a1,1,0,1,0,.93,1A.95.95,0,0,0,77.23,119.67Zm68.17.77v2.08h5.25v-2.08Zm-68.29,1.17-.78,1.22-1.78-.61L77,129.68l3-7.78-1.75,1Zm-48.57.54v2h5.15v-2Zm116.86,1.78V126h5.25v-2.06ZM28.54,125.65v2h5.15v-2Zm73.7.37a1,1,0,1,0,.94,1A.95.95,0,0,0,102.24,126Zm-28,1a1,1,0,1,0,.93.95A.95.95,0,0,0,74.2,127Zm6,.18a1,1,0,1,0,.93.95A.94.94,0,0,0,80.18,127.19Zm65.22.13v1.86h5.25v-1.86Zm-43.17.87-1.11,1.19-1.6-.46,3.63,6.86L105,128.4l-1.6,1Zm-73.69.7v2.24h5.15v-2.24Zm48.61,1a.95.95,0,1,0,.93.94A.94.94,0,0,0,77.15,129.91Zm-.06,2c-.4.29-.58.79-1,1l-1.71-.73,1,9.35,4.72-8.84-2.16.37Zm-48.55.31v2.33h5.15v-2.33Zm77.35,1.08a1,1,0,0,0,0,1.9,1,1,0,0,0,0-1.9Zm-6,.11a1,1,0,1,0,.94.95A.95.95,0,0,0,99.84,133.36Zm-71.3,2.2v2.34h5.15v-2.34Zm74.68.52a1,1,0,1,0,.93.95A.95.95,0,0,0,103.22,136.08Zm13.2.08c5,.16,5.74,1.79,5.77,7.44,0,4.51-1.3,6.27-4.53,7.14a22,22,0,0,1-6.83-.39c0-.38-.64-1.28-.78-2a18.62,18.62,0,0,1,3.22.24c1.55.15,2-.1,1.46-.41-2.91-.7-4.89-.51-7.68-1.05a4.43,4.43,0,0,0-.71-1.84c.15-.06,4.3.39,6.49.32,1,0,.39-.5,0-.58-2.55-.37-4.21-.31-6.91-.66a2.59,2.59,0,0,0-.72-1.87s1.37,0,4.19,0c1.48,0,2.77.08,3.42.06,1.09,0,1-.52,0-.59-1.16-.13-5.69-.15-5.69-.15a4,4,0,0,0,.61-2.24s1.17,0,1.92,0c3.63-.14,4.25-.08,4.32-.22.48-.44-.81-.61-2.15-.61-.58,0-1.42.13-1.42-.19a3.23,3.23,0,0,0-.3-1.51,15.15,15.15,0,0,1,6.28-.94Zm-43.18,1.15a1,1,0,1,0,.93.95A.95.95,0,0,0,73.24,137.31Zm35.72.2c.62,0,.82,1.13.24,1.31-.89.27-1.38.06-1.35-.48,0-.3.71-.83,1.11-.83Zm-29.61,1a1,1,0,1,0,.93.95A.95.95,0,0,0,79.35,138.49ZM106,139.56c2.12,0,1,2.9-.61,1.85A1.05,1.05,0,0,1,106,139.56Zm-33.47,2.33s-.07,0-.06.15l.49,8.88L78,142.63l-2,.76-.87-1.34-1.1.87c-.45.36-1.3-1-1.53-1Zm31.51.91c1,.14,1.58,1.1.92,1.57C103.46,145,102.66,142.87,104,142.8Zm-2.28,1.95a1,1,0,1,0,.93.95A.95.95,0,0,0,101.74,144.75Zm3.59.81a.82.82,0,0,1,.39,1.55,1.13,1.13,0,0,1-.9,0c-.94-.71-.45-1.45.51-1.52Zm-35,1.46a1,1,0,1,0,.93.95A.95.95,0,0,0,70.32,147Zm71.44,1.19-3.47,1.18v1.67c1.51-.49,2.38-1.74,3.47-2.85Zm-32.49.8c.6.26.77,1.09.25,1.36a1.91,1.91,0,0,1-1.78-.17c-.7-1.14.81-1.46,1.53-1.19Zm-32.67.33a1,1,0,1,0,.93.95A.95.95,0,0,0,76.6,149.34ZM72.77,151a.84.84,0,1,0,.82.84A.84.84,0,0,0,72.77,151Zm38.87,1.41a1,1,0,1,0,.94,1A.95.95,0,0,0,111.64,152.39Zm-41.89.06,0,8.39L75.22,154l-1.91.42-.82-1.7-1.18.78Zm35,1.93a1,1,0,1,0,.94,1A.94.94,0,0,0,104.74,154.38Zm27.59,0-.91,1.57,2.57-1.45Zm-23.85,1.12a.95.95,0,1,0,.93.94A.94.94,0,0,0,108.48,155.53Zm3.15,1-1.12,1.62-1.48-.48-.43,1.54-1.77-.06,5.75,5.07Zm-44.78.65a1,1,0,1,0,.93,1A.94.94,0,0,0,66.85,157.2Zm86,2.28v69h-32l-13.45-18.91a25,25,0,0,1,1.14-10.23c1.32.93,4.2.42,4.1-3.16-.07-2.35-3.63-3.55-5.41-1.78.1-2.27,1-5.68,2.31-6.69.9.83,1.1,2.06,3.12,1.72a2.8,2.8,0,0,0,2-3.79,5.1,5.1,0,0,1-.24-1.46,9.24,9.24,0,0,0,0-1.49,10.62,10.62,0,0,1-.14-1.08c15-3.45,28-12.66,38.68-22.11Zm-79.44.28a.95.95,0,1,0,.94,1A.94.94,0,0,0,73.39,159.76Zm-4.41.92a1,1,0,1,0,.94.95A.95.95,0,0,0,69,160.68Zm46.28.46a1,1,0,1,0,.94,1A.95.95,0,0,0,115.26,161.14Zm-49.63,1L64.17,171l6.37-6.6-1.73,0-.34-1.51-1.62.53ZM108.92,164a1,1,0,1,0,.94,1A.94.94,0,0,0,108.92,164Zm4.13,1a1,1,0,1,0,.94,1A.94.94,0,0,0,113.05,165.07Zm-51.39,1.15a1,1,0,1,0,.94.95A.95.95,0,0,0,61.66,166.22Zm55.11.72-1.52,1.17-1.4-.87-.33,1.88-1.2.64,5,3.56Zm3.71,2.53a1,1,0,1,0,.93.95A.94.94,0,0,0,120.48,169.47Zm-52.89.32a1,1,0,1,0,.93,1A.94.94,0,0,0,67.59,169.79ZM63.43,171a1,1,0,1,0,.94.95A.94.94,0,0,0,63.43,171Zm54.65,2.51a1,1,0,1,0,.94,1A.94.94,0,0,0,118.08,173.54Zm-3.92.85a1,1,0,1,0,.93,1A.94.94,0,0,0,114.16,174.39ZM78,175.74h0a1.64,1.64,0,0,1,.14,1.41c-.15-.07-.82-.7-.65-.92s.4-.5.49-.5Zm-21.22,1.49a6.09,6.09,0,0,1,1.1.13,5.3,5.3,0,0,1-.46,1.32,11.89,11.89,0,0,0-.17,9.19c1.95,4.21,7.44,14.16,7,15.07L52.09,203l.06-1.88c3.41-.13,3.94-2.25,3.09-4a2.94,2.94,0,0,0-3.75-1.27c-2.18.92-2.32,2-3.1,3.71l-.34-.45a3.94,3.94,0,0,0,.82-2.7c-.06-1-.08-.68.24-1.21a4.59,4.59,0,0,0,.66-4.77c-.23-1.65,5.69-12.22,7-13.19ZM29,177.5c3.45,2.79,6.44,12.18,6.26,12.33a4.1,4.1,0,0,0,0,5.95,5.56,5.56,0,0,0,.37,2.67c-1.25,2.62-1.47,2.82-1.57,5,0,0-.22,0-1.38,0-5.72,0-6,7.36-.27,7.76.78.06,1-.12,1.52.35s.91,1.21,1.73.9a1.57,1.57,0,0,1,.84.49A2.4,2.4,0,0,0,39,214a5.08,5.08,0,0,1,1.25.31,2.15,2.15,0,0,0,2,.41,1.25,1.25,0,0,1,.91,0,2.07,2.07,0,0,0,2-.09c.77-.41.94.24.9.84a2.65,2.65,0,0,0,1.77,3.15c2.75.86,4.13-.85,4.72-4.26.15-.74.28-1.63.28-1.63L62,213l-13.2,15.47h-23v-51c1-.06,2.13,0,3.12,0Zm82.69,2.77c1.67.66,1.81,1.86.14,1.34a5,5,0,0,0-6.24,3.24,3.59,3.59,0,0,1-.31.86c-.37.47-.36,0-.24-1.29a4.65,4.65,0,0,1,4.38-4.55,7,7,0,0,1,2.27.4Zm-.84,1.83a3,3,0,0,1,2,.7c.63.7.45,1.17,0,1.14-2.27-1-5.16.2-6.29,3.12-.7,1.78-.82.83-.51-.56a5.25,5.25,0,0,1,4.84-4.4Zm-15.8.69a3.72,3.72,0,0,0-2.41.66c-.91.88-.16.89,1.49.31a6.23,6.23,0,0,1,3.34.19c.82.29,1.12.42,1.07.16,0-.79-1.84-1.32-3.49-1.32Zm18.53,2.93c.41,1,.14,2.68-1.32,2.85-1.72.21-2.61-2.73.54-2.21-.41-1.17-1.82-.85-2.52-.55-1.42.63-2.38,2-3.25,4.64-.26.77-.45,1.18-.55,1.1a4.83,4.83,0,0,1,.14-2.77c.68-2.6,2.35-4.17,4.12-4.22a2.74,2.74,0,0,1,2.84,1.16Zm-24.64-1.13c-.16,0,.11.58.53,1.43a4.51,4.51,0,0,1,.39,1.19c0,.46.35.58.86.28s.68-.6,1.52-.22a2.27,2.27,0,0,0,2.29.26c.39-.23.65-.22,1.4,0,.91.24,1,.28,1.7,0a2.34,2.34,0,0,1,2.1.13c.2.24.08-.09.55-1.19.22-.51.53-1.13.44-1.3s-.89,0-1.75.25a3.17,3.17,0,0,1-1.78-.16,5.34,5.34,0,0,0-4.21.18c-.66.31-2.29-.12-4-.8,0,0-.07,0-.09,0Zm3.67,5.07a2.19,2.19,0,0,0-2,1.26c-.4,1,.29,2.88,1.34,3s.9-.44.43-.6c-.71-.24-1.55-1.27-1-2.17.37-.62,1.5-.62,2.28.14,1.58,1.54,3.39,1.64,3.73.31.11-.53-.29-1.25-.91-1a3.18,3.18,0,0,1-2.51-.44,2.52,2.52,0,0,0-1.39-.49Zm16.67,4.88c4-.24,2.29,5.34,0,3.91-.83-.51-.46-2.4,1.74-2.36-2.16-1.71-3.64.37-3.11,2.71a19.82,19.82,0,0,0-.94,3c-.49.94-.87-1.52-.38-3.9s1.29-3.31,2.72-3.4Zm-22.8.19c-.83,0,0,.92.16,1,2.51,2,3.73,3.24,1.71,2.58-3.28-.79-4.12.15-6.62,1.27-.46.22-.59.08-1.14-.09-2.19-.65-2,.74.26,2,3.46,1.91,6.32,2.34,9,.91,1.73-.92,1.82-.32.21.7-2.75,1.63-5.65,1.38-10.1-1.43-1.44-.91-1.64-.3-.17.65,3.36,2.06,7.89,3.93,11.58.89.73-.65.87-1,1.43-.71,1.48.75,1-.56,0-1.78-.36-.44-.62-.79-.6-1.09.09-1.06-.49-1.06-1-1s-.57-.18-1.34-1c-1.14-1.27-2.52-2.62-3.36-2.85ZM52.92,200.4c-1.4.11-1.72.18-1.38,3.08.07.54.31,2.18.37,2.79.83,7.6.16,11-1.92,11.89a2.61,2.61,0,0,1-2,0c-1.32-.54-1.87-2.16-.91-4.1a12.07,12.07,0,0,0,.7-1.8c.12-.46.4-1.48.62-2.27a21.69,21.69,0,0,0,.5-7.57,5.12,5.12,0,0,1,.3-3.3c1-1.88,1.66-2.84,3.8-2.86,2.38.25,3,3.92,0,4.15Zm51.28-.17-.66,0c-.78-2.65-2.42-1.79-2.7.07h-.55c.1-3.55,4.47-2.59,3.91-.1Zm-61.3-2c4.46.45,5.27,1.57,5.62,7,0,2.65-.14,4.24-.54,4.84-.67.33-1.31-.28-2.26.33-.52.33-.42.36-.65,0a6,6,0,0,1,.38-2.84c.33-1.06-.23-1.68-1.71-3a5.54,5.54,0,0,1-1.1-1.61c-.77-2.09-1.16-1.17-.52.63.32.77.39,1.16-.57.82a1.79,1.79,0,0,0-1.49.27c-1.23.32-2.28-.36-1.22-.77a10.79,10.79,0,0,1,2.16-.6q.39,0,.39-.18c0-.53-2.36-.47-4.16.16-2.21,1-2.33.85-2.13-.76.52-4.07,4.25-4.57,7.8-4.29Zm43.57.36a2.13,2.13,0,0,1,2,2.39l-.54,0c-.25-2.12-2.23-2.21-2.75.16l-.78,0c.49-1.83,1.32-2.51,2.1-2.54Zm13.24,0c.45.27.14,1-.34,1.15-.18,0-.76-.36-.62-.61a2,2,0,0,1,1-.54Zm5.1.36a.73.73,0,0,1,.78.59c0,.62-.45.49-.61.44-.31-.29-.43-1-.17-1Zm-15.61.5c.83.1,1.14,1.16.19,1.23C89,200.83,89,199.76,89.2,199.51Zm-5.08.12c.1,0-.06.87-.27,1-.41.25-.94,0-.92-.29,0-.63.8-.72,1.19-.71Zm14.57,2.12a8.19,8.19,0,0,0,5.6.51c.71-.27,1.28-.59,1.28-.29s-.56.81-1.58,1.1a5.2,5.2,0,0,1-5-.73c-.41-.31-.55-.6-.25-.59Zm-.66.91c2.58,1.53,4.91,1.68,7,.57.85-.3.87,0,.87.52-3.78,3.37-8.5-.12-7.88-1.09ZM34.7,205c-.64,1.31-1,4.53-2,5.49C25.54,210.06,30.13,200.52,34.7,205Zm44.18-1.07c-.41.21,0,1.24.58,1.52,5.46,2.38,8.25,2.66,11.35,1.57a3.11,3.11,0,0,0,2-2c.08-.62-.75-.68-2.2,0-4.42,1.76-7.2.38-10.77-1a1.41,1.41,0,0,0-1-.05ZM58,204l0,8.07L52.79,212l.06-1.2,3.88.12-.06-5.76-4.5,0V204L58,204Zm1.2,0h5.19l.25.82H59.2V204Zm-20.9,2.56a1,1,0,0,1-1.18.13c-.54-.56,0-1.59.89-1.59s1,.87.29,1.46Zm2.39-1.31c.78,0,1,.75.45,1.35-.41.37-.61.39-1,.12A.89.89,0,0,1,40.69,205.26Zm-5.11.2a.51.51,0,0,1,.52.22c.47,1-1.09,1.68-1.41.94S35.05,205.48,35.58,205.46Zm29.29.11.31,1-6,0v-1Zm-21.37.3c.89.11.76,1,.34,1.42-.71.67-1.4.45-1.22-.45.12-.56.47-1,.88-1Zm-4.8,3c-.31,1.14.36,3.44.16,3.68-.44.52-1.14.25-1.45.08-1.08-.71-1.15-4.83-.1-5.08.67.34,1.12-.27,1.43-.36s.1.48,0,1.68Zm15.78-1.69a1.08,1.08,0,1,1-1.06,1.08A1.07,1.07,0,0,1,54.48,207.15Zm4.72.14h6.11a1.25,1.25,0,0,1,.23,1.22H59.2v-1.23Zm-17.93.14c.28,0,.42.6.23,1.3a8.12,8.12,0,0,0-.09,3.68c.16.51.31.86.22,1-.32.5-1.28.16-1.7-.51-1-1.89-.84-5.41.36-5.14C40.74,208,41,207.64,41.27,207.43Zm-5.39.48c-.29.47-.08,3.16-.11,3.38s-.79.13-1.21-.06c-1-.49-.76-1.75-.56-2.76.23-.79.73-.85,1.34-.92.34,0,.79,0,.54.36Zm8.31.14c.33,0,.38.24.3,1.23a8.34,8.34,0,0,0,0,2.18c.27,1.55.3,2-.09,2.28a1.19,1.19,0,0,1-1.55-.17c-1-.79-1-4.66-.28-5,.72.18,1.17-.4,1.58-.53Zm21.1,1.17-.88,1.23H59.2v-1.22h6.09Zm-18.57,1.64c.81,0,.68,1.47.24,2.39-.37.55-.64.6-1.2.09S45.88,210.86,46.72,210.86Zm17.05.41L63,212H59.22v-.68Z" transform="translate(0.1 0.1)"/><path id="path3872-3-7-5" class="cls-2" d="M38.21,182.16l-6.33-5c7.53-.17,15.05,0,22.58.14l-7.52,5.44c-1.54-1.71-2.45-4-4.63-5.11C40.68,178.27,39.57,180.62,38.21,182.16Zm55.21-1.83c-.18-.11-.29-.36-.41-1.17-1.88-8.89-11.12-8.26-11.06-8-.07-.35,11.48-10.94,18.27-19.24,2,6.34,8.27,20.84,8,20.79,0,0-1.8,0-6.46-.1-4.25,1.94-7.2,3.84-7.07,6.58,0,1-.25,1.37-.57,1.29S93.65,180.38,93.42,180.33Zm21-28.55c6-.1,7.14-3.08,7.83-3.44,3.94-.66,6.38,1.95,8.11,4.74,2.21,1.35,1.93.1,2.39-2l5.5-1.63v1.77a28.12,28.12,0,0,0-4.22,3.31l-1.67-.1-1,1.3c-3.82,2.09-7.57,4.59-11.59,6.21,0,0-4.83-6.33-5.38-10.16Zm-74.85.55-.06-35.16C42,117,46.61,117,46.61,117c1.91-3.42,4.52-5,7.21-7a119.12,119.12,0,0,1,.44,12.81c-7.12,8.82-11.08,19.67-6.69,35.9l-2.63-.3Zm39.34,2a123.54,123.54,0,0,0,4.26-22.46l13.55-.2.27,4.71Zm46.15-16-.25-13.15c9.89-12,10.48-22.46,6.81-35.69,3.26.77,5,3.35,8.06,6.92v34.31c-2.16.32-7.53.64-7.53.64-.16,1.61-4.69,5.45-7.09,7ZM83.22,117.56l-.6-5.81,17.61-17.07c-1.46,7.4-3.21,15-3.73,22.87ZM54,99.44c-1.26.83-5.89-4.06-6.65-7.34,1.16-1.59,11.36-6.66,11.36-6.66s6,7.76,5.72,11c-2.65.71-5,.91-7,3.1C56.32,99.65,55.92,98.34,54,99.44Zm-8-6.57c1.42.23.51,2.17.29,3.6l-7.49,2.25c2.57-2.23,4.4-4.13,7.2-5.85ZM70.36,75.7c1.54,0,3.14.6,4.33.12A4.2,4.2,0,0,1,77,75.56c2.24.7,3-1.81,4.45-1.82,1.85,0,2.87-1.3,2.89-3.93,0-1.14.09-1.27.3-1.38a1,1,0,0,1,1.39.76C87.36,74,90.7,78.38,96,78c-4.2,4.34-17,17.71-17,17.71a130.94,130.94,0,0,0-8.64-20Zm54.37-4.17,7.7-5.67L137,71.55l4-5.41c2.34,1.7,7.66,5.49,7.66,5.49s-16,.24-24-.1Z" transform="translate(0.1 0.1)"/><path id="path3870-4-7-1" d="M129.1,20.12l-70.77.46L72.08,39.22c14.61-3,27.33-1,40.53,1.29Zm-1.81.94L122.58,27c-1.3-1.19-4.21-.76-3.8,1.86-3.61-1.91-4.37,3.32-1.31,3.11-.38,1-3.48,1.29-4.35-.57-3.18,1.81-4.15.06-5-1.08,4,2.78,6-2.94,1.56-3.26,1.74-3.59-4.49-5.22-4.12-.55-4.11-.94-3.17,4.92-.15,3.72-2,3-5.17,1-5.82.4-1.66,1.26-4.78,1.3-5.66-.71,4.57.93,4.07-5.18,0-3.77,2.17-4.7-5-4.07-3.28-.22-4.1-.16-3.19,5,.41,4.1-3.2,3-5.6.2-6.1.14-1.89,2.12-5.22,1-5.67-.29,3.26,1.31,4.33-4.25.22-3.92,1-3.58-4.87-4-3.56.05-3.26-.75-3.44,4.55.21,3.72.23,1.46-2.64,2.84-4.41,1.44-1.3.72-2.71,1.84-4.4.18,2.57-.42,3-4.82-1.16-3.87.2-2.71-1.33-2.85-3.22-2.17l-3-4.16ZM78.47,27.71c-.23.5-.61.85-.52,1.23a4.65,4.65,0,0,0,.84,1.35C82.33,35,89.51,34.81,91.67,30c.44-.89.35-1.1-.18-1.86a1.12,1.12,0,1,1,1.67.07c-1.22,1.56,2.14,5.1,5.49,5.65,4.3.71,8.37-2.35,7.8-5.1,0-.16-.11-.31-.14-.47-.46-2.3,3.14-1.2,1.84.27-.48.53-.75.69-.68,1.27,1,4.87,6.87,5.38,9.65,3.88-3.58,5.93-9.26,1.36-10.26-2.79-5,7.38-11.08,5.84-14.45-.64.4.41-6.64,11.62-14.62.12-3.38,9.26-9.55,3-9.13,2.62,2.84,1.6,8,1,8.47-3.93.07-.61-.38-.65-.65-1.13-1.34-2.45,3-2.46,2-.23Zm-13.31.61c.64.06.75.33.64,1Zm54.92,1.74-.93,1.18C118.93,30.66,118.93,30.13,120.08,30.06Zm10.09.39c-2.2.09-3.9,3.18-3.79,7.3.05,2,.4,7,.53,7.75.19,1,0,2.46-.37,2.61-1,.39-1.32.64-1.57,1.1a2.22,2.22,0,0,0,1.29,3.17c1,.43,2.28-.17,3.15-1.48a6.88,6.88,0,0,0,1-2.87,9.94,9.94,0,0,0,0-3.52c-.51-2.9-.13-6.53.85-8.23,1.77-3.05,1.74-5.05-.09-5.68a2.37,2.37,0,0,0-1-.15Zm-.11.46a1.81,1.81,0,0,1,1.07,3.41,1.93,1.93,0,0,1-1.9-.14c-.76-.45-.65.06.13.63s1.31.64.82,2.23a19.41,19.41,0,0,0-.45,6.49c.69,5,.1,7.45-2,8.32a1.83,1.83,0,0,1-2.39-1c-.44-1.29.34-2.41,2.28-2.09,0,0,.14-.42-.36-4.73-.71-6-.43-10.19.66-11.66A3,3,0,0,1,130.06,30.91Zm17.38,6.19a3.87,3.87,0,0,0-1.9.55s-.08,2.7-.15,3.11c-.44,2.28-.31,2.55.74,2.87,2.54.79,4.63-.92,4.54-3.61A3.19,3.19,0,0,0,147.44,37.1Zm.34.36c1.39,0,2.65,1.61,2.52,3.16a2.77,2.77,0,0,1-3.4,2.55c-.47-.07-1-.16-1.1-.51-.31-.49.19-.67,1.25-.67s1.37-.15,1.76-.81c.76-1.31-.22-3-1.46-2.65-.42.11-.48.3,0,.44,1.53.7,1,1.67.43,2.06s-1.66-.17-1.84-.56l.1-2.52a2.7,2.7,0,0,1,1.73-.49ZM132.11,49.13a4.2,4.2,0,0,0-.86.55,2.09,2.09,0,0,0-.45,2.3c.14.38.12.45-.35,1.06-1.33,1.76-1.5,2.64-.82,4.23.31.72.31.72,0,1.68a37.6,37.6,0,0,1-6.38,11.93,3.27,3.27,0,0,0-.57,1,2.89,2.89,0,0,0,1-.21c2.73-1.37,5.62-4,8.3-5.8-4.24,3.49-8.76,6.62-8.76,6.62l5.77.31c-1.45,1.51-26.76,23.28-20,62.33,7.9-2,11.58-5.31,15.79-9.13,0,3.14.11,11.61.14,11.61s-3.66-1.43-2.77,1.69a16.84,16.84,0,0,1-.14,8.5c0,.1.4.26.36.36s-.6.11-.6.11c-1.44,2.72-5.13,3.31-6.95,3.23-.68-.06-.4.87-.32,1.21.34,1.4,1.93,4.39,4.9,9.2l.78.11-.46.42a20,20,0,0,0,1.29,1.87l0,.41s1.63,2.3,2.5,3.38c.06.07.2-.1.26,0,.48.59,1.06,1.25,1.55,1.84,0,.05-.07.21,0,.26.92,1,2.75,3.1,2.75,3.1l.36-.09,1.43,1.64c11.89-5.49,24.32-17.63,24.19-17.61l.1-26.13L140,131,140,96.42,154,110.53l-.1-4c-3.19-3.07-16-16.21-16-16.21a15.54,15.54,0,0,0,5.43-1.84,15.81,15.81,0,0,0,10.07,2.23V86.82a12.34,12.34,0,0,1-8.8-3.17L142,83.56c-4.85,3.75-8.28,2-12,1.27l-2.55-3.72L153.58,81l-.18-9-4,.09-2.58-1.93,3,1.28a3.87,3.87,0,0,0-.64-1.44,61.55,61.55,0,0,1-4.88-10c-.59-1.74-.59-1.67-.09-2.69a3.73,3.73,0,0,0-.37-4.06c-.64-.67-.62-.81-.41-1.31a1.77,1.77,0,0,0-1.2-2.59c-4.38,1.71-10.25-.05-10.14-.11Zm10.17.72c.88,0,1,.39,1,1-.08,1.21-1.63,1.65-2.33,1.81-3.36.78-9.21.32-9.59-1.27-.28-1.17.44-1.81,2.82-1.23C138,51,140.35,50.14,142.28,49.85Zm-10.83,3.38a1,1,0,0,1,.88.94,3.71,3.71,0,0,1-.84,2.32c-1.07.85-2-.47-1.32-1.89.42-.83.83-1.37,1.28-1.37Zm11.45.16a1.3,1.3,0,0,1,.63.17c.85.61.93,2.71.13,3s-1.55-.54-1.54-1.88c0-.81.3-1.31.78-1.3Zm-2.68.44a1.09,1.09,0,0,1,.54.11c.7.33,1.05,2.54.35,3.24a1.23,1.23,0,0,1-2.05-.62c-.41-1.35.23-2.69,1.16-2.73Zm-5.95.06c1,0,1.26,2.33.25,3.29-.84.8-2.13,0-1.73-1.58C133,54.81,133.46,53.94,134.27,53.89Zm2.93.37c1.51.26,1.38,4-.6,3.64C135.48,57.1,135.51,54.32,137.2,54.26Zm-6.6,4,2.13.2s-3.39,7.17-6.38,9.07a57.66,57.66,0,0,0,4.25-9.27Zm12.79,0a106.22,106.22,0,0,0,4.23,10.24c-2.59-2.53-4.88-6.41-7-10.06Zm-10,.32,1.41,0A10.77,10.77,0,0,0,137,63.43a21.63,21.63,0,0,0,1.86-4.64l1.12,0c.43.26-1.32,6.85-3,7.65C135.14,64.92,133.61,60.88,133.36,58.64Zm-.6,1.56c-.12.16,2.2,5.8,4.15,7.61a15.33,15.33,0,0,0,3.81-7.06l6.07,8.64-5.92-4.11a30.38,30.38,0,0,1-3.93,5.47,71.06,71.06,0,0,1-4.51-5.9c-2.28,1.71-3.88,3.55-6.84,5.15C125.6,70.06,131.39,63.66,132.76,60.2Zm-.57,6.14,4.13,5.12-11-.16Zm8.94.08,6.93,4.85-10.33.11ZM85.9,68.81a3.39,3.39,0,0,0,.12.49c1.23,5.09,4.63,9.33,9.73,8.83L79,95.16a99.21,99.21,0,0,0-8.39-19.34l1.82.38a4.5,4.5,0,0,0,1.89-.07c.43-.07.76-.35,1.14-.44a4,4,0,0,1,1.89.25c1.15.23,1.94-.43,3.38-1.72.38-.35.53-.26,1-.26,1.8,0,3-1.57,2.76-4l-.1-1.08-.22,1.22c-.44,2.3-.74,3.29-3,3.39-.55,0-.75.39-1.61,1.14-1.2,1-2,1.14-2.9.73s-1-.17-1.78.23a5.27,5.27,0,0,1-3.54,0c-1.72-.5-1.51-.34-1.51-.34,10,18,13.48,35.31,13.26,50.66a99.37,99.37,0,0,1-14.47,50.18s1.13-.12,2.15-.27a2.1,2.1,0,0,1,1.34.17,2.47,2.47,0,0,0,1.23.1,9,9,0,0,1,1.72.09c1.23.18,1.31,0,2.65-1.31,3.79-3.73,3.55-3.6,6.29-3.51,4.13.14,7.43,2.9,8.8,7.38.17.56.4,1.36.43,1.36L93,178.93c-1.2-6-6.26-8.2-10.48-8.12l17.82-18.13c-.09,0,4.13,13.8,7.8,19.94a7,7,0,0,0-3.16-.22,10.87,10.87,0,0,1-3.06-.12c-.9,0-1.45.24-2.58,1.18a5.76,5.76,0,0,1-1.79,1.24c-2.17.93-3,1.89-3,4.3,0,.44-.06,1-.06,1.22a.58.58,0,0,0,0,.16s.09-.09.13-.15a4.25,4.25,0,0,0,.5-1.61c.3-1.8.67-2.44,2.36-3.23a15,15,0,0,0,2-1.28c1.55-1.26,2.06-1.54,3.32-1.25a5.8,5.8,0,0,0,2.29.14,4.41,4.41,0,0,1,2.43.12c.83.22,1.86.43,1.86.43-17.27-35.2-16.7-67.84.34-101,0,0-5,.06-5.26.19a4.53,4.53,0,0,1-1.36-.13c-1.37-.25-1.07-.08-4.31,3.23-4,4.08-10.42.82-12.35-6a3.19,3.19,0,0,0-.34-.83,2,2,0,0,0-.17-.21Zm16.32,4c.75.08,1.3.28,1.21,1L79.64,97.46l-.37-1.52Zm5,.15c-.29.58-1.09,1.32-1.44,1.87l1.3,1.64-.72,1.32-2-1.7L100.6,79.9l3.16,3.6-3,3.06-1-1.14,1.58-1.68L98.9,81.41l-4.32,4.26,3.52,3.64-2.58,2.51-1-1,1.35-1.52-2.3-2.41-4,4.17,3.18,3.6-2.46,2.48L89.15,96l1.18-1.26-2.28-2.42L84,96.46l3.33,3.67-2.45,2.22-.86-.93,1.18-1.29L82.91,97.7,80.37,100l-.43-1.6L105.13,73Zm1.45.37-1.06,2.16-.82-.91,1.07-1.12Zm-59.41.14c-.65.16-15.65,8.64-24.18,18l0,3.47-.32.41.15,5.37.22.29.07,2.19-.34.57v6l.46.08.07,7.36,14,0v35.14s-8.24-9.19-14.17-14.62l0,4.11,15.69,16.45a12.15,12.15,0,0,0-4.6,1.61,17.26,17.26,0,0,0-11-2.24l0,4.18a15.47,15.47,0,0,1,11.05,2.84c3.24-2.22,7.14-3.58,13-1.81a39.31,39.31,0,0,0,3.84,5.56l-27.78.21,0,8.47c1.23,0,4.31,0,4.31,0,1.56,3.11,4.63,7.35,5.91,12.69-1.75,2.13-1.61,3.85.09,6,0,1-.3,2,.77,3.12,3.54-1.75,7.53-1,10.5-.08,1,.31,1.38-.86,1.35-2.32-.09-.84-.09-1.2.55-1.76,1.51-1.33.57-4.06.33-4.12-.08-2.4,7.48-14.4,7.48-14.18l-1.5.56-6.47,0c17-16.64,24.12-35.63,22.63-57.07a34.13,34.13,0,0,0-1.16-7.88c-6,2.7-10.91,4.66-15.7,9.86l-.31-11.17a2.38,2.38,0,0,0,2.83.34c.55-.36.6-.75.1-2.11-.73-2-.91-6.19-.36-7.62a6.19,6.19,0,0,0,.16-1c.06-.59-.06-.62-.12-.61.14,0,.73.08.8,0a10.82,10.82,0,0,1,6.92-3.09l.07-1.33c-2-5.11-3.68-7.12-5.49-10a2,2,0,0,0-.83-.11l.41-.44c-2.53-4.09-6.14-7.8-9.45-11.33,0,0,0,0,0,0Zm-.11.7L51,75.87A95.46,95.46,0,0,0,25.59,94.51l.11-3.06A107.9,107.9,0,0,1,49.17,74.19Zm55.11,3,1.08,1.1-1.5,1.76,1,1-.54,1.34-2.49-2.62Zm-53.57.14a1,1,0,1,1-1,1A1,1,0,0,1,50.71,77.38Zm73.43,1.44c17.49,19.76,8.5,48.48-14.84,55.38l-.26-1.63c23.55-8,29.08-35,13.79-51.94ZM53.74,79l1.12,1.31c-10,4.83-19.7,12.07-29.1,22.52l-.1-2.64A100,100,0,0,1,53.74,79Zm-6.43.4a1,1,0,1,1-1,1A1,1,0,0,1,47.31,79.35Zm-3.12,2a1,1,0,1,1-1,1A1,1,0,0,1,44.19,81.3ZM54.57,82a1,1,0,1,1-1,1A1,1,0,0,1,54.57,82ZM99,82.7l1,1.1L98.4,85.45l2.31,2.45,2.22-2.17L101.81,89,82.23,108.83l-.41-2.08,1.54-1.58L81,102.78l-.42-1.6L82.91,99l1,1-1.36,1.59,2.19,2.19,4-3.71L85.4,96.4l2.71-2.66.94.93L87.75,96,90,98.53l4.08-4L90.76,91l2.69-2.69,1,1-1.36,1.65,2.32,2.27,4-4-3.28-3.5Zm-57.86.7a1,1,0,1,1-1,1A1,1,0,0,1,41.14,83.4Zm16.13.2.78,1.32C46.18,91,38,97.1,25.82,111.11v-1.76A95,95,0,0,1,57.27,83.6Zm-6,.16a1,1,0,1,1-1,1A1,1,0,0,1,51.31,83.76Zm91.85.4c2.1,1.89,6.49,3.77,9.33,3.57l.07,2.28c-4.94.47-9.26-2.74-9.26-2.74a14.4,14.4,0,0,1-11.72,1.63L130,85.52c6,2.82,11.61.13,13.13-1.36Zm-23.66.61a3.57,3.57,0,0,0,1,.89c4.61-1.22,6.05,3.61,3.9,6.36l.62,2a5.42,5.42,0,0,1,2.13.85,3.91,3.91,0,0,1,1.59,3.59c.16,1.56-2.13,3-2.26,2.9l0,2.22a8.84,8.84,0,0,1,1.92,1.85,3.51,3.51,0,0,1-1,5,3.62,3.62,0,0,1-2.16.71l-1.06,2.53a3,3,0,0,1,1.35,2.1,4.06,4.06,0,0,1-1.89,3.94,5.11,5.11,0,0,1-3.67.1l-1.51,1.53a5.23,5.23,0,0,1,.29,2.91,3.76,3.76,0,0,1-4.1,2.54,4.11,4.11,0,0,1-2.21-1l-1.67.65s0,2.16-.82,2.82a11.51,11.51,0,0,1-1.21.9l-.23-1.49a2.9,2.9,0,0,0,1-2.52l3.62-1.8a3.58,3.58,0,0,0,1.66,1.25,2.38,2.38,0,0,0,2.85-2.11,8.15,8.15,0,0,0-.55-1.88l3.07-3.23c1.27.45,2.17.52,2.74.19a2.55,2.55,0,0,0,1.15-2.71,3.66,3.66,0,0,0-1.11-1.61l1.72-4.4a3.06,3.06,0,0,0,1.91-.54A2.39,2.39,0,0,0,127,106a2.51,2.51,0,0,0-1.69-1.11l.12-4.57s1.74-.84,1.92-1.86c.28-1.5-.35-2.45-2.16-2.88-1-.23-1,0-1,0l-1.43-4.13c2.27-1.41,1.55-3.65.4-4.4a3.54,3.54,0,0,0-2.93-.06s-.79-.79-1.38-1.42Zm-60.87.84a48.23,48.23,0,0,1,5.44,9.78,5.63,5.63,0,0,1,0,1c-4,.36-5.42,2-6.85,3.1-1.12-.58-1.59-1.26-3.6,0,0,.06-5.12-3.14-6.1-7.49a115.28,115.28,0,0,1,11.08-6.37Zm-20.49,0a1,1,0,1,1-1,1A1,1,0,0,1,38.14,85.64Zm9.7.2a1,1,0,1,1-1,1A1,1,0,0,1,47.84,85.84Zm70,1.28c1.76,2.35,4.42,6.81,5,10.75.89,5.55.3,11.38-2.21,15.45-4.55,8.69-12.44,10.54-12.44,10.85l-.08-1.79c.07.4,6-2.14,10.08-7.89a23.06,23.06,0,0,0,3.44-13.81c-.3-6.26-4.68-12-4.72-12.05ZM35,88a1,1,0,1,1-1,1A1,1,0,0,1,35,88Zm9.69,0a1,1,0,1,1-1,1A1,1,0,0,1,44.64,88ZM132,89.73c2.27.25,5,4.43,7.58,6.81l0,34.07-7.55.15c-1,2.4-3.26,4.77-6.89,7.1V125.1c12.39-13.47,9-28.21,6.85-35.37Zm-99.82.39a1,1,0,1,1-1,1A1,1,0,0,1,32.17,90.12Zm9.33.19a1,1,0,1,1-1,1A1,1,0,0,1,41.5,90.31Zm95.81.08,15.43,15.79-.05,2.32L135.3,90.56ZM47.16,91.87l.4,2c-.49-.8-.51-1.09-1.38-1.23Zm-8.36.58a1,1,0,1,1-1,1A1,1,0,0,1,38.8,92.45Zm-9.24.29a1,1,0,0,1,0,2.08,1,1,0,0,1,0-2.08Zm86.81,0,3,2.19-1,3.95L115.31,96ZM46,93.06l.54.33-.63,2.7-7,2.57a51.85,51.85,0,0,1,7.1-5.6Zm1.15,1.26a36.25,36.25,0,0,0,2.9,7.47c-.9.47-4.13,2.33-4.13,3.19.46,1.57,3.88,3,3.88,3a39.8,39.8,0,0,0-3.54,7.54c-.58-1-.65-5,.61-6.64a16.25,16.25,0,0,1-4.23-2.81c.83-3,4.38-4.78,4.54-4.8-.07.15-1-6.24,0-7Zm-11.39.5a1,1,0,1,1-1,1A1,1,0,0,1,35.74,94.82Zm78.11.09c4.55,8.6,1.84,16.08-5.42,21.44l.17-2c5-3.69,8.25-10.95,4.59-17.88Zm-86.75.24a1,1,0,0,1,0,2.08,1,1,0,0,1,0-2.08Zm72.82.06a105.54,105.54,0,0,0-3.65,21.86l-13,.11-.5-4.56Zm-51.81.35s2.81,2.65,5.34,5l-.3.61-2.46.33A48.75,48.75,0,0,1,48.11,95.56Zm-2.33,1.38h0L46,98.83c-.85,0-10,3.84-17,10a21.52,21.52,0,0,1,4.51-5.18c3.62-3.61,12.28-6.72,12.28-6.72Zm-13,.43a1,1,0,1,1-1,1A1,1,0,0,1,32.82,97.37Zm5.74,1.19.52.54-2.42,1.27Zm16.87.55h.11a1.28,1.28,0,0,1,.74.41,5.51,5.51,0,0,0-1.38-.13.77.77,0,0,1,.53-.28Zm-9.26.39.22,1.41c-5.24,3-11.49,5.89-20.57,14.6v-2.9A65.4,65.4,0,0,1,46.17,99.5Zm7.06.13a1.8,1.8,0,0,0,.92,0s-.19.39-.42.4-.5-.41-.5-.41Zm2.23.08c.66,0,1.11.58,1,1.36a17,17,0,0,0,.06,7.28c.42,1.47.53,2,.18,2.24-3.09,2.16-4.79-7.6-2.21-10.37a1.68,1.68,0,0,1,1-.51Zm-25.26.35a1,1,0,1,1-1,1A1,1,0,0,1,30.2,100.06Zm88.89.24,1.93,3.27-2.68,3.05-1.63-3.54Zm-66.21,1.77-.1,1.14a9.7,9.7,0,0,0-3.62,1.92c-.2.17,3.2,1.73,3.56,1.37v1.21c-.05.39-5.62-1.41-6-2.75.63-.89,4.16-3,6.17-2.89Zm-25.38.61a1,1,0,1,1-1,1A1,1,0,0,1,27.5,102.68Zm15.21,1.19a8.24,8.24,0,0,0-1.09,2.88c-3.83,2.36-7.75,4.56-12.52,10H26.52l-.05-.69a70.14,70.14,0,0,1,16.24-12.14Zm9.86.32,0,1.43a3.85,3.85,0,0,1-2-.63,3.74,3.74,0,0,1,2-.8Zm28.79.16.71.76-.44.42Zm-38.77,3,1.42.9a39.35,39.35,0,0,0-10.81,8.51H30.4c3.54-3.9,7.36-7.4,12.19-9.41Zm75.56,1,.28,3.87-3.56,2,.07-4.08Zm-67.66,0,2.45.28.25,1a38.2,38.2,0,0,0-5.55,4.49,22.5,22.5,0,0,1,2.85-5.82Zm-5.87.42,1.05.49-.41,1.82a27.51,27.51,0,0,0-7.95,5.64H34.43a41.28,41.28,0,0,1,10.19-7.95Zm9.11,1.71h0l.38,11.92c-10.57,12.56-10,24.71-6.91,35.72l-2-.09a69.84,69.84,0,0,0-5.46-6V117.38l7.29,0c1.72-4,6.45-6.91,6.72-6.94Zm-8.61,1.67.09,1.59a21.31,21.31,0,0,0-3.89,3H38.59C40.48,114.92,42.36,113.12,45.12,112.14Zm24.85.78.4,1.88c-24.53,9-29,35.19-14.49,53.17l-1,1.11C38.27,151,45.57,121.36,70,112.92ZM45.32,114.8s.13,1.43.17,1.91H42.74A4.81,4.81,0,0,1,45.32,114.8Zm69,.6-1.58,3.74-4.22.06,1.92-3.74ZM87.65,118h3.84v3.73H87.65ZM71,118.33l.07,1.64c-1.71.88-1.28,2.28-1.71,2.26A29.31,29.31,0,0,0,65.55,124a2.4,2.4,0,0,0-2.92-.24,2.91,2.91,0,0,0-.8,3l-2.93,3.49c-1.42-.62-2.8-.58-3.49.38s-.48,2.43.8,3.94l-1.6,4.16c-.18-.25-2.86.55-2.9,2.16s2.22,2.83,2.21,3l-.1,4.59c-.1-.22-2.3.69-2,2.89.27,2,3,1.78,3,2l1.48,4.4c-.1-.13-2,1.76-.84,3.55,1,1.49,3.79.52,3.77.43l.78,1.12-.86.95s-.38-.46-.59-.42a4.21,4.21,0,0,1-4.36-1.39c-1.2-1.88.14-4.81.57-4.79l-1-2.53a3.75,3.75,0,0,1-3.5-3.12,4.4,4.4,0,0,1,2.21-4.16l.07-2.74a4,4,0,0,1-2.3-3.25,4.49,4.49,0,0,1,2.51-3.53l1-.48.92-2.25a6,6,0,0,1-1-3.84c.63-2.91,4.37-2.71,5-2.43l1.74-2.21A3.59,3.59,0,0,1,63,121.85a14,14,0,0,1,3.27.43l2.22-1.16c0-1.24,1.29-2,2.52-2.79Zm12.66,4.08H87v3.72H83.67Zm8.77,0h3.72v3.72H92.44Zm-21.16.93,0,1.43C50,135.23,58.67,156.91,61.7,159.43L61,161c-3.73-2.3-13.36-27.31,10.26-37.62Zm16.37,3.78h4l0,3.83h-4ZM70.36,129l-1.27,3.49-3.91.33,1.45-3.48Zm79.8,2.55,2.67,0c-5,5.93-10.39,10-15.71,12.19a2.82,2.82,0,0,1,.14-1,2.92,2.92,0,0,0-.08-1.17,38,38,0,0,0,13-10.09Zm-13.7.05a8.66,8.66,0,0,1-2.45,2.13l-.38-2.16C134.45,131.54,136.46,131.58,136.46,131.58Zm4.7,0c.28.69-7,4.68-7,4.34v-1.33l3.94-3Zm1.58,0h2.06c-1.85,3-11.64,8.35-11.23,7.59L134,137a44.71,44.71,0,0,0,8.78-5.43Zm3.45,0h2.7c-4.06,5.23-8.17,7.14-12.12,9.39a1.7,1.7,0,0,0-.87-.1l-1.35-1.07C134.8,140,143.62,134.75,146.19,131.54Zm-75.47.18-.09,1.58c-5.68,5-8,11.29-5,18.64l-.71,1.57c-3.17-7.84-2.24-15.46,5.8-21.79Zm25.85.25.3,4.27L79.25,153.65A129,129,0,0,0,83.39,132ZM153,133v2.37c-7,7.77-14,11.25-20,12.66l-.13-.91,2.8-1.75c9-4,13-8,17.33-12.37Zm-21.09.07c.12,1.71-1.38,4.94-3.09,6.76h-2.94l-.33-1.29a18.83,18.83,0,0,0,6.36-5.46Zm.89.51c1.08,1.76-.54,6.32-.61,6.14-.13.32,9.24,2.33-.38,7,.21,1.38,1.11,4.33.41,6.15-.21-.7-1.89-5.43-3.18-6.64,3-.87,5.16-2.73,4.93-3.35-.49-.87-1.83-1.95-4.1-2.73a16.91,16.91,0,0,0,2.93-6.6ZM64,134.41l.3,3.6-3.42,2.09-.27-3.95Zm59.5,3.34a1,1,0,0,1,.64.21c1.69.7,1.82,9.06.28,9.91a1.22,1.22,0,0,1-1.86-.63,25.13,25.13,0,0,0,0-8.92c0-.39.53-.57,1-.57Zm29.47.13v3c-9.93,10.45-20.64,18.69-31.56,23.32l-1-1.72A99.28,99.28,0,0,0,153,137.88Zm-1.74.27c-4.61,6.5-10.21,10.74-17.89,12.67l-.14-1.85C142.8,146.77,151.51,138.15,151.27,138.15Zm-125.22,1c6,6.22,12.14,12.38,18.24,18.76l-2.43.13L26,141.37Zm71.34.31.21,1.54L95.86,143l2.75,3,.14.71-2.36,2.51-1.07-1.07,1.31-1.49-2.23-2.37-4.11,4L93.68,152l-2.56,2.47-1-1.06,1.31-1.53-2.28-2.44L85,153.72l3.17,3.56L86,159.66l-1-1.07,1.09-1.27-2.31-2.4-4,3.94,3.32,3.73-2.7,2.73-1-1,1.51-1.68-2.49-2.41-2,1.92s.75-1.9.86-2.22c.16-.47.82-.85,5-5.05,5-5.06,10.15-9.81,15.15-15.34Zm28.73,1a14.18,14.18,0,0,1,5.17,1c2.24,1.2,1.54,2.14.08,2.85a11.69,11.69,0,0,1-5.14,1.31l0-1a13,13,0,0,0,3.34-1.13,2.32,2.32,0,0,0,.88-.71,5.09,5.09,0,0,0-1.76-1.09,13.48,13.48,0,0,0-2.53-.39Zm-65.53,1.3,1.84,2.8-2.18,3.72-2.1-3.2Zm37.19.3c.06.53.72,2.59.38,2.19l-1.23-1.4Zm28.46.28a8.29,8.29,0,0,1,2.83.48,5.83,5.83,0,0,1-2.81,1Zm25.58,1.4a1.13,1.13,0,1,1-1.12,1.13A1.12,1.12,0,0,1,151.82,143.81Zm-57.53,2,.95.93L94,148.16l2.23,2.38L99,147.92l.37,1.66L73.51,175.41l-1.44-.1,1.65-2-1.87-1.94.76-1.39,2.21,2,4-3.93-3.27-3.5,2.8-2.91,1.06.92-1.61,1.77,2.34,2.43,4.23-4.23-3.31-3.65,2.64-2.56,1,.93-1.23,1.32,2.41,2.55,3.57-3.76-3.24-3.63,2.88-2.85.88.9-1.33,1.51,2.43,2.54L95,151.78l-3.2-3.52Zm54.94.67a1.14,1.14,0,1,1-1.11,1.14A1.13,1.13,0,0,1,149.23,146.44Zm-21,.05a12.42,12.42,0,0,1,3,6.93,21.15,21.15,0,0,0-5.53-5.74l.4-1.05Zm24.8.18v2.52a84.92,84.92,0,0,1-27.11,20.53l-1.66-2.05C135.79,162.43,144.15,155.94,153,146.67Zm-11.52,1.76-3.18,2.5v-1.08l3.18-1.42Zm-16.37.18a13,13,0,0,1,6.32,7,119.71,119.71,0,0,1-11.61,6.16,54.25,54.25,0,0,1-5.18-9.77c5.95-.05,7.59-3.35,7.63-3.38,1.43.55,1.74.62,2.84,0Zm21.39.5a1.14,1.14,0,0,1,1.13,1.09,1.12,1.12,0,1,1-2.23,0c.12-.79.61-1.1,1.1-1.09Zm-8.24.74v1.09c-1.52,1.36-4.47,3.55-4.47,3.55l-1.23-.07.4-3.1a48.4,48.4,0,0,0,5.29-1.47ZM60.48,150l2.92,2.43-.89,3.78L59.64,154Zm39.17.71.27,1.09L76,175.83l-1.36-.23Zm44.21.93a1.13,1.13,0,1,1-1.12,1.13A1.12,1.12,0,0,1,143.86,151.62Zm8.84,0c.14,0,.29,0,.29.12v2.08a1.16,1.16,0,0,1-.37.07,1.06,1.06,0,0,1-1-1.14A1.12,1.12,0,0,1,152.7,151.61Zm-2.7,2.53a1.13,1.13,0,1,1-1.11,1.13A1.12,1.12,0,0,1,150,154.14Zm-9.37,0a1.13,1.13,0,1,1-1.11,1.13A1.12,1.12,0,0,1,140.63,154.15Zm-8,.35,1.14,0-2.13,1.28a9.84,9.84,0,0,0,1-1.32ZM153,155v2.32a89.29,89.29,0,0,1-23,16.89l-1.35-1.38A86.48,86.48,0,0,0,153,155Zm-15.57,1.26a1.14,1.14,0,1,1-1.11,1.14A1.13,1.13,0,0,1,137.44,156.29Zm9.91.09a1.13,1.13,0,1,1-1.11,1.13A1.13,1.13,0,0,1,147.35,156.38Zm-111,4.54c3.78-2.23,6.82-2.49,11.16-1.82l1.29,2.6c-4.22-.76-8.66-.69-12.46,2.28-3.94-2.52-6.93-3.25-10.17-2.84l-.06-2.73a14.32,14.32,0,0,1,10.24,2.51Zm98-2.46a1.13,1.13,0,1,1-1.12,1.13A1.12,1.12,0,0,1,134.37,158.46Zm10.19.46a1.13,1.13,0,1,1-1.11,1.13A1.13,1.13,0,0,1,144.56,158.92ZM131,160.61a1.13,1.13,0,1,1-1.12,1.13A1.12,1.12,0,0,1,131,160.61Zm10.39.66a1.13,1.13,0,1,1-1.11,1.13A1.11,1.11,0,0,1,141.41,161.27Zm-13.83,1.34a1.15,1.15,0,1,1-1.13,1.15A1.13,1.13,0,0,1,127.58,162.61Zm10.85.95a1.13,1.13,0,1,1-1.11,1.13A1.13,1.13,0,0,1,138.43,163.56Zm-14.15.78a1.14,1.14,0,1,1-1.12,1.13A1.12,1.12,0,0,1,124.28,164.34Zm-49.28,1,2.77,2.57-2.87,2.92-1.05-1,1.6-1.69-1.08-1.48Zm60.36.25a1.13,1.13,0,1,1-1.12,1.13A1.12,1.12,0,0,1,135.36,165.62Zm-3.21,1.91a1.13,1.13,0,1,1-1.12,1.13A1.12,1.12,0,0,1,132.15,167.53Zm-3.49,1.92a1.14,1.14,0,1,1-1.12,1.14A1.13,1.13,0,0,1,128.66,169.45Zm-57.33,3.2.91.75-1.42,1.74-1.09,0Zm-17.51,4.69A27.23,27.23,0,0,0,47,181.87l-3.16-4.44Zm-21.5,0,8.42.12-2.8,4A17,17,0,0,0,32.32,177.37Zm10,.43c.91.3,3.29,3.75,4.42,5.64,2.39-1.94,4.73-4.09,7.29-5.26a57.52,57.52,0,0,0-7.61,9.89c-.54-1.47-2-5.67-3.93-7.5a17.47,17.47,0,0,0-4.17,6.25,54.18,54.18,0,0,0-5.79-8.17c-.37-.51,2.73,1.44,5.8,4.47.86-2.21,3.17-5.23,4-5.32ZM32.24,180c1.45,1.17,5.37,6.29,5.83,9.36l-1.89.12c-1-3.16-2.68-6.31-3.94-9.48Zm20.92.53c-1.42,3-3.18,6-4.45,9.26l-1.86-.08C48.89,185.16,49.63,184.34,53.16,180.5ZM42.5,181.82a0,0,0,0,1,0,0,17.78,17.78,0,0,1,3.12,7.72l-1.36-.05a27.24,27.24,0,0,0-1.61-3.94c-.42-.62-.76-.54-1.06,0a16.84,16.84,0,0,0-1.31,3.79l-1.57-.11c-.29-2.2,3.19-7.35,3.74-7.4Zm-.25,8.43c.64,0,1.31.71,1.31,1.95,0,.58-.4,1.86-.88,1.93-.89.48-1.94-1-1.68-2.26.23-1.06.69-1.63,1.25-1.62Zm-3.09.24c1.26.11,1.53,3,1,3.57a1.51,1.51,0,0,1-2.29-.85c-.5-1.3.42-2.71,1.27-2.72Zm6.22,0c1.38.19,1,3.35.32,3.81-1.1.6-2-.39-1.57-1.88C44.43,191.21,44.88,190.5,45.38,190.47Zm3.18.52c1.58.18.67,3,0,3.53-1,.79-2-.4-1.48-1.81.37-1.09,1-1.73,1.5-1.72Zm-12.71.09c1.14.18,1.81,2.82,1.13,3.57-.36.43-1.4-.2-1.87-.92S35.08,191.07,35.85,191.08Zm12.2,5.73c.13,1.38-.89,1.38-3.85.71a17.11,17.11,0,0,0-5.5.12c-2.28.42-2.6.26-2.6-.68,0-1.09,1.29-1.71,4.24-1.81C42.46,195.09,47.72,195.07,48.05,196.81Zm4.6-.81c-3.53.34-4.46,4.82-4.07,6.47a22.11,22.11,0,0,1-.35,7.58,23.79,23.79,0,0,1-1.32,4.06c-.93,1.87-.69,3.26.69,4a2.78,2.78,0,0,0,3.39-.55c1.57-1.71,1.76-5.36.8-13.63-.34-2.92-.16-3.5,1.23-3.33,2.93,0,2.81-4.61-.37-4.61Zm-.42,3.76c-.79-.3-1.33.42-1.22,2.23a22.34,22.34,0,0,0,.26,2.43c1.14,7.93.72,13.25-1.68,13.51-2.09.34-3.51-1.22-2.49-2.84.58-.91,1.08-1,2.2-.55,1.55,1,1.16-.45-.23-1.49-.89-.64-1-.64-.48-2.64a23.41,23.41,0,0,0,.62-8c-.33-2.42.47-5.62,3.5-5.81s2.14,4.32-.48,3.21ZM30.59,210.22a3.39,3.39,0,0,0,2.92,0A18.57,18.57,0,0,1,35,204.84a3.7,3.7,0,0,0-5.88.83,3.35,3.35,0,0,0,1.45,4.55Zm3-5.86c1.13.24,1,1.45-.1,1-2.54-1.21-4.6,2.44-2.56,3.81,1,.59,1.51.25.47-.56-.42-.5-.31-.7-.06-1.2.53-1,2.46-.83,2.33-.11-.44,2.31-.73,3-1.42,3-3.93.21-4.67-7.27,1.34-6ZM67,208.51S55.28,222,49.64,228.85l70.75-.33-13.46-18.86C95.38,212.37,81.81,211.59,67,208.51Zm-.35,4.3c1.77,0,3.78,1.32,5.52,5.66.09,0,7.78-11.85,14.43.46,1.09-2.76,7.36-10,14.61-.72,2.57-6.19,8.51-4.09,9.06-1.93-.12-.47-5.65-1.8-8,2.3a1.83,1.83,0,0,0,0,2.18c1.2,1.16-.1,2.81-1.46,1.87a1.19,1.19,0,0,1-.2-1.69c1.21-.91-1.26-3.74-3.28-4.76-2.78-1.4-6.66-.78-8.53,1.22A6.52,6.52,0,0,0,87,220.23a.75.75,0,0,0,.18.78c.81,1,.28,2.35-.82,2.19-1.43-.22-1.24-1.58-.28-2.32.29-.15.18-.32.09-.58-2.61-7.48-12.37-6.05-13.42-.87a1.24,1.24,0,0,0-.08.57c.11.5.39.92.28,1.31a1.26,1.26,0,0,1-2.49-.19c0-.59.59-.78.9-1.32a1.27,1.27,0,0,0,.1-1.15c-2.65-5.62-7.18-4.44-9.43-3.17-.05,0,2-2.7,4.59-2.67Zm-2.93,3.26a3.32,3.32,0,0,1,2.67,1.41c2.77-1.49,4.74,1.09,4.41,1.34-3.92-2.59-5.2,3.44-1.33,3.21-1.7,3.56,4.37,5.09,3.69.53,3.74,1.33,4.36-3.89.57-3.81,1.22-2.15,4.4-1.56,5.75-.21,1.58-2,5.46-.09,5.85,1.58-4.36-2.26-4.8,4.66-.58,3.19-1.25,4.41,5.46,3.78,3.61,0,4.17,1.39,3.61-4.94-.5-3.66-.25-.33,3.25-4,5.79-.55.34-.6,4.31-2.59,6.48.53-4.7-1.62-3.81,4.81-.44,3.53-.9,4.26,5.18,3.57,3.62-.06,4.72,1.21,2.63-6.08-.68-3.39.54-2.92,4.5-1.71,4.45-1.26,0,0,2.11-2.31,4.46-.62-3.68.32-2.42,5.35,1,3.92a2.32,2.32,0,0,0,3.26,2.26l3,4.22L51,228.65l5.41-6.56c1.82,1.52,3.69.8,3.93-1.58,3.94,2.45,5-3.38,1.26-3.63a4,4,0,0,1,2.12-.81ZM59.93,218c.23.17-.09,1-.6.75Zm52.89,1.7.54.77C113.46,220.69,112.3,220.29,112.82,219.66Z" transform="translate(0.1 0.1)"/><path id="path163-0-2-5-8-7-5-6-5-5" class="cls-2" d="M48.06,64.75s-3.71-6.11-8.73-13.28c-3.35-4.81-6-10-6.28-14.49-.29-5.12,2.42-10.25,7.32-10.5s6.88,3.95,7.69,7.41c.81-3.46,2.8-7.66,7.7-7.41s7.6,5.38,7.32,10.5c-.25,4.48-2.93,9.68-6.29,14.49-5,7.17-8.73,13.28-8.73,13.28Z" transform="translate(0.1 0.1)"/><path id="path163-0-2-5-8-7-7-8-9-1-8" class="cls-2" d="M130.52,184.7s-3.72,6.11-8.73,13.28c-3.35,4.81-6,10-6.28,14.49-.29,5.11,2.42,10.25,7.32,10.5s6.88-3.95,7.69-7.41c.81,3.46,2.8,7.66,7.69,7.41s7.61-5.39,7.32-10.5c-.25-4.48-2.93-9.68-6.28-14.49-5-7.17-8.73-13.28-8.73-13.28Z" transform="translate(0.1 0.1)"/></g></g></svg>