<svg id="svg4946" xmlns="http://www.w3.org/2000/svg" viewBox="0 0 178.78 249.65"><defs><style>.cls-1{fill:#fff;stroke:#000;stroke-width:1px;}.cls-2{fill:#131f67;}.cls-3{fill:#e2cf00;}.cls-4{fill:#d40000;}</style></defs><title>13SPADE</title><g id="layer1"><g id="g6583"><rect id="rect7467-2-2" class="cls-1" x="0.5" y="0.5" width="177.79" height="248.65" rx="8.5"/><path id="path7499-2-5" d="M14.11,40.25C10.68,44.62,7,47.14,6.94,50.55a3.32,3.32,0,0,0,2.75,3.34A2.85,2.85,0,0,0,13,51.14c0-.39.47-.38.46.16a10.37,10.37,0,0,1-1.56,4.9h4.5a10.37,10.37,0,0,1-1.56-4.9c0-.54.47-.55.47-.16a2.85,2.85,0,0,0,3.27,2.75,3.32,3.32,0,0,0,2.74-3.34c-.06-3.41-3.74-5.93-7.17-10.3Z" transform="translate(0.1 0.1)"/><path id="path7503-7-0" d="M164.47,209.2c-3.43-4.37-7.1-6.89-7.16-10.3a3.3,3.3,0,0,1,2.74-3.34,2.85,2.85,0,0,1,3.27,2.75c0,.39.47.38.46-.16a10.34,10.34,0,0,0-1.56-4.9h4.5a10.45,10.45,0,0,0-1.56,4.9c0,.54.47.55.47.16a2.85,2.85,0,0,1,3.27-2.75,3.32,3.32,0,0,1,2.74,3.34c-.06,3.41-3.73,5.93-7.17,10.3Z" transform="translate(0.1 0.1)"/><path id="path39-5-1-0" d="M14.75,34.85h2.64l-3.88-9.72-3,4.11,0,5.61h2.08v2.89H5.3V34.85H7.72V14H5.3V11.43h7.45v2.62H10.69l0,10.18L17.15,14H14.86V11.43h7.93V14h-2.1l-5.35,8.4,5.24,12.49h2.33v2.9H14.77l0-2.9Z" transform="translate(0.1 0.1)"/><path id="path39-5-7-0-0" d="M163.84,214.6h-2.65l3.89,9.72,3-4.11,0-5.61h-2.08v-2.9h7.34v2.9h-2.42v20.9h2.42V238h-7.45V235.4h2.06l0-10.18-6.5,10.27h2.29V238H155.8v-2.53h2.09l5.35-8.4L158,214.59h-2.33V211.7h8.15l0,2.9Z" transform="translate(0.1 0.1)"/><path id="path4096-2-4-0" class="cls-2" d="M24,19.46H154.6V230H24Zm92.71,209.19c-4.86-8.86-12.53-23.29-12.76-23.4-2.84,1.52-31.78,5.41-45.71,1.64-4.76,7.19-9.43,14.32-13.58,21.45ZM72.24,202.16c-.73,0-1.54.46-1.39.07.08-.23.29-2.5.38-3.31.22-.36.52.59.49,1.47,0,.5.22.14,1.87.23a23.1,23.1,0,0,1,3.85.56c2.11.46,6.18.13,7.93-1.15.95-.69,1.31.06.33.8-4.4,3.35-7.9,2.07-11.72,1.51a10.07,10.07,0,0,0-1.74-.18ZM74.11,199a.67.67,0,0,0-.8,0c-1.36.63-1-.28,0-1.19.45-.42.43-.63.1-1.07-.18-.23-.46-.25-.39-.59.29-1.44,2.3-3.61,4.54-4.58.94-.41,1.09,0-.1.73-1.81,1.08-2.4,2-1.37,1.62,2-.72,3.81-.21,6.35,1.06a2.51,2.51,0,0,0,1.69.37c.45-.38.86.08,1.15.32s.21.21.42.17c1.45-.35.58.58-1.4,2-3.55,2.52-7.43,3.7-10.16,1.15Zm5.46.62a12.8,12.8,0,0,0,4.31-2.31c1.32-1.16.57-1-.94-.25a11.94,11.94,0,0,1-6.2,1.31c-2.07-.05-2-.13-2.08.12-.26.91,2.58,1.84,4.91,1.13Zm-4-3.54a2,2,0,0,0,.11-1.08c-.19-.31-.6-.08-1.13.58-.32.41-.28.47,0,.79a3.54,3.54,0,0,0,.38.24c.44.19.51-.22.6-.53Zm.91.53c.63-2.17,2-2.12,3.07-.05h.72c-1.48-4-4.32-2-4.42,0a1.2,1.2,0,0,0,.63,0Zm5.31-.36c.67-.38.57-.63-.28-1.08-.61-.31-.93-.37-1-.17a2.76,2.76,0,0,0,.28,1.44C81,196.58,81.38,196.42,81.78,196.22ZM72.37,190c-.13-.21-.1-.58.36-.8,2.88-1.34.79-4.16-1.44-2a2.6,2.6,0,0,1-2.56.5c-.76-.33-.78-1.27.23-1.47a5.1,5.1,0,0,0,1.5-.46c3.87-2.08,5.92,2.44,3.18,3.94-.57.33-1.16.51-1.27.33Zm-10.83-4.1a2.47,2.47,0,0,1-.32-4.16c.94-.64,1.9-.82,4.48.46,1.82.91,2.86-.07,2.81,1,0,.64-.06,1.28-1.12,1.44-1.72.25-2.9-2.1-5.11-1.88a1.26,1.26,0,0,0-.24,2.47c1.54.51.6,1.13-.5.68Zm28.85.36c-.29.13-.43-.5-.3-.84.78-1.86,1.5-3.35,2.21-5.1.57-1.39,1-2,1.21-2s.38.21-.06,1.07c-.66,1.73-3.06,7-3.06,6.86Zm-12.88-.49c-.7-.49-.58-1.23.21-.67,1,.71,2.68-.6,2.34-1.83-.41-1.5-2.39-1.86-4-.52-2.61,2.11-5.48,2.22-5.48.57,0-.48-.06-.58,1-.66a8.35,8.35,0,0,0,3.4-1.1c3.18-1.94,6.56-.6,5.86,2.65A2.33,2.33,0,0,1,77.51,185.81ZM65.85,181c-.26,0-.73.26-.87.16s-.22-.78-.44-1.39c-.39-1.1,0-.76.67-.46a3.64,3.64,0,0,0,2.58,0,8.16,8.16,0,0,1,3.54,0,7,7,0,0,0,3.35-.23c1.34-.42,1-.26.76.56a5.15,5.15,0,0,1-.5,1.45,2,2,0,0,0-2.23,0,3.32,3.32,0,0,1-2.52.27,1.56,1.56,0,0,0-1.85,0c-1.06.52-1.53-.34-2.49-.39Zm19.93-2.27c.19-.33.46-.78.71-1.29,2.07-4.12,2.21-5.27.75-6.65-2-1.87-3.63-1.06-5.5,2.66-.46.91-.73,1.59-.91,1.86s-.46.08-.59-.05,1.85-4.18,2.67-5.05a3.44,3.44,0,0,1,5.85,2.62c-.12,1.55-.42,2.4-1.82,5.23-.35.7-.66,1.3-.84,1.58-.66.45-.51-.57-.32-.91Zm-19.46-.16c.32-1.47,5-2.15,6.24-.23.12.19,0,.18-.48,0-2.38-.79-2.85-.75-5.14.16-.34.13-.58.18-.62,0Zm17.86-.28a4.65,4.65,0,0,1,.44-1.21c1.56-3.09,2-3.84,1.52-4.42-.93-1.13-2.18-.15-3.32,3.09-.43,1.21-.72.95-.93.76-.4-.37,1.37-4.13,2.22-4.69,1.94-1.24,3.46.19,2.61,2.72-.67,1.14-1.22,2.9-1.85,3.82-.29.41-.69.29-.69-.07Zm-7-5c-.09-.16.09-.37.76-1.81.92-2,1.21-2.72.83-3.85a2.93,2.93,0,0,0-4.71-1.19A4.45,4.45,0,0,0,73,168a25,25,0,0,1-1.34,3.15c-.28.29-.68.35-.66-.15a17.22,17.22,0,0,1,1.4-3.47c2.14-4.68,8.32-2.51,6.87,2.41a13.16,13.16,0,0,1-1.52,3.57A.32.32,0,0,1,77.18,173.28Zm-1.43-.86a7.83,7.83,0,0,1,.48-1.2c1-2.6,1-3.39-.48-3.43-.91.12-1,.5-1.84,2.54a7.45,7.45,0,0,1-.56,1.34c-.16.22-.47.09-.6,0-.33-.33,1.1-3.69,1.85-4.32,1.73-1.51,4,.64,2.93,2.57a14.58,14.58,0,0,1-1.21,2.68c-.26.37-.58.31-.57-.14ZM38.87,142.19l-5.26-.37a47.57,47.57,0,0,1,0,16.29,31.88,31.88,0,0,0-.58,9.83c.28,3.81,1.89,7,2.29,11.07a30.93,30.93,0,0,1-.93,8.9c-1,4.86-.76,5.37-.62,11.08.13,5.29-.36,5.1-.66,4.79a12.36,12.36,0,0,1-.08-2.09c0-1.12-.06-3.84-.13-5.73a39.28,39.28,0,0,1,.6-8.48c.61-2.8,1.31-5.66.88-8.75-.87-3.9-2.09-7.8-2.52-11.56-.52-4.64.77-9.3,1.2-12.67s0-8.88-.87-11.22a6.25,6.25,0,0,0-.84-1.8,16.83,16.83,0,0,0-2.7-.21c-.06,22.34,0,44.68,0,67l4.9,4.57,5-4.81Zm.36,25.62s7.48,4.34,15.74,8.6c-.79-4.88,1.7-5.61,4-6.18-.56-9.41,8-7.48,9.33.7h.85c1.49-4.08,3-6.89,6.34-7.56,2.62-.52,5.21,1.15,5.86,5.08-.11-.28,8.7-5.2,8.94,5.2,4-2.49,6.86-.34,8,2.84,1.69-2.59,5.92-2.71,7.27-2.9.47-.54,1.3-.85,2.81-.84,1.3-.07,3-1,3.93.14,1.36.22,2.4,0,3.56.87.93.71,2,2.29,3.5,1.2,2.93-1.42,6.24-2.06,8.86-3.78,0,0-.69-.9-.49-.77a2.89,2.89,0,0,0,.89.67,9.34,9.34,0,0,0,1.79-.9c-10.94-12.67-19.93-37.42-14-60.31.16-.39-.5-.54-.82-.68.1-.18,1.7.06,1,1.52-.69,4.38-1.46,9.14-1.64,12.77,0,.45,0,.84,0,.84,24.53,11.38,21.52,36,15.22,44.6l1,1.33c.44.3,19.3-10.76,18.67-11.21l3.57-1.79-.58-48.33-14.11-1.08s.15-.41.33-.51c.13-3-.13-7.32,0-11,.06-10.44.16-14,0-14.27-4.35-2.89-10.84-7.1-16.3-9.15.23.07-.09,4.33-.25,4.57-5.11,1.64-2.74,3.74-4.63,6a4.06,4.06,0,0,1-5.67,0c-1.72-1.67-2.52-5.5-2.52-5.5-2.7,2.91-2.15,6.42-5.77,7.75-5.81,2.9-7.66-5.78-7.32-5.58-2.23,2.16-8.49,3.92-9.17-5.21-2.81,2.61-6,1.31-7.3-1.89-1.72.06-3.64,1.41-5.38,2.15a13.48,13.48,0,0,1-5.21,1.1A12,12,0,0,1,64.45,76a3.44,3.44,0,0,1-3.2-1.66,2.21,2.21,0,0,0-2.44-.9C56,74.94,53,75.3,49.72,76.85c-.2.15.29.42.12.36s-1.73.82-1.73.82c16.72,22.11,17.62,44.42,14.12,60.24a1.34,1.34,0,0,0,.15,1.37c-.53-.09-.54.07-.64-.27l1.74-13.28c.05-1.6.25-1.48-1.15-2.08a26.64,26.64,0,0,1-3.59-1.75c-4.08-3-8.68-6.77-10.93-11.44-6.4-10-4.29-22,.51-31.47L47.13,78.1A106.28,106.28,0,0,0,24.85,92.78l.06,47.42,14.39,1.67Zm-6.95-31.66a1.85,1.85,0,0,0-2.13-.22c-.11.1-.35.6-.42.58-.65-.17-1.11-.3-1.19-.86l.69-1.05a3.82,3.82,0,0,1,2.67-1.44c.47-.11,1.18-.21,1.44-.32,1-.43,1.34-1.37.33-1-.74.2-1.77.13-1.91-.55a.92.92,0,0,0-1.11-.71,10.26,10.26,0,0,0-2.73,1.26c-.39.24-1.11.76-1.11.76-.12.18-.54-1.13-.15-1.52a2.65,2.65,0,0,0,1.39-.13c1.19-.47,2.34-1.05,3.54-1.51.76-.3.83-.28.63-.82a2.14,2.14,0,0,1,0-1.22c.14-.38.12-.56-.12-.72-.54-.37-1.83,0-3.66.85a6.72,6.72,0,0,0-1.27.66c.23-.58.1-.68.09-1.29a3.41,3.41,0,0,0,2-.52,6.08,6.08,0,0,1,2.38-.68c.37,0,.21-1.41-.21-1.8a2.47,2.47,0,0,0-2.24-.08,3.84,3.84,0,0,0-2.64,1.39c-.78.75,0-1.23,1.44-2a16.9,16.9,0,0,0,2.33-.38c.55-.12.64-1.42-.16-2-.5-.43,1.82-.45,1.77-.31s-.05.63.13.77a1.53,1.53,0,0,1,1.07,1.47c1.15,1.89,1.71.7,2.5,0-.17,4.12,1.27,4.59,1.46,4.85-2,3.69-.49,3.78,1.36,4.63a3.39,3.39,0,0,1-1.17.26,5.71,5.71,0,0,0-2.75,1.34c-.34.29-.35.05-1.71,0a3.09,3.09,0,0,0-2,.32c-1.15.51-1.14,1,0,.8a2.11,2.11,0,0,1,2.5,1.53.64.64,0,0,1,0,.5c-.25,0-.81.05-.8-.07a1.52,1.52,0,0,0-.22-.88Zm1.75-5a.71.71,0,0,0,.09-1,2,2,0,0,0-1.65.18c-.7.55.57,1.47,1.56.86Zm.69-2.48a1.16,1.16,0,0,0,.11-1.51,1.34,1.34,0,0,0-2.22.64c-.08,1,1.28,1.53,2.11.87Zm-.5-3.4a1,1,0,0,0-1.48-1c-.92.48-.36,1.51.8,1.45.64,0,.64,0,.68-.5Zm-2.71-3.33a.59.59,0,0,0,0,1C33.09,123.9,32.6,121.48,31.51,121.94ZM145,126.85c-.71-2.65-2.68,0-2.68,0-.07-2.71.44-3.91-1.58-4.84,2-3.09,1.6-3.52-.55-4.7.2,0,2.86-.58,3.31-2.11.1.07,4.17,1.08,4.68-1.15-1.23.56-3.64.64-3.67-1.76.23-.07.8,0,.75.13-.32,1.54,2.47,1.92,2.92.7a7.06,7.06,0,0,0,1.35.73,5.38,5.38,0,0,1-2.46,2.14c-2.16.72-2.91.92-2.91,1.35,0,.17.35.19,1,.33,1.34.09,1.32.38,1.49.83s.31.47.76.43a7,7,0,0,0,3.36-1.86c.13,0,.28,1.13.37,1.17,0-.18-1.09.14-2.77,1.13a23.48,23.48,0,0,0-2.09,1.15c-.13.16.2.67.24,1.23s-.28.69,0,.83a1.59,1.59,0,0,0,1.21,0,10.26,10.26,0,0,0,3.13-1.42c-.23.43.15,1.53.15,1.53a1.1,1.1,0,0,0-1-.18,24.25,24.25,0,0,1-2.55,1,1.43,1.43,0,0,0-.64.24c-.17.15-.15.5-.15,1,0,.36-.1.69.12.8a4.58,4.58,0,0,0,2.53-.25c.44-.19,1.37-.7,1.37-.7l-.29,1.52c-.39-.44-1.51-.12-2.26.18a.83.83,0,0,0-.58.69.93.93,0,0,0,.6,1.14,1.65,1.65,0,0,0,.7.07c-1.94.74-1.55,1-2.68.45a4.51,4.51,0,0,1-1.16-1.78Zm2,0a1.19,1.19,0,0,0-1.21-.44c-.29.15-.18.48-.09.73.24.68,2,.46,1.3-.29ZM145.9,125c.45-.6-.05-1.41-.89-1.41a.78.78,0,0,0-.88.82c0,.87,1.39,1.09,1.77.59Zm-.93-2.28a1,1,0,0,0,.51-1.65,1.89,1.89,0,0,0-2-.09c-.89,1,.1,2.13,1.54,1.74Zm.7-3c.49-.25.58-.68.15-1.16-.79-.68-2.18-.15-1.73.84a1.16,1.16,0,0,0,1.58.32ZM44.41,96.88a16,16,0,0,0,2.06-1.29c.53-.29.37-.25-.3-.65-.53-.24-1.6-1.32-1.7-1.07A8.11,8.11,0,0,0,44.41,96.88ZM63.2,123.34c0-.51.09-1.29.07-1.86.1-1.08-.09-.77-.67-.41s-1.13.7-1.4.84c-1.07.54-.94.57.56,1.3,1.27.57,1.41.51,1.44.13Zm-1.47-2.54c1-.65,1.36-1,1.41-1.71s-.09-1.14-.82-.56c-2.49,2-5.06-1.91-2.78-4.07a4.5,4.5,0,0,0,1.06-1.3c0-1.25-1.36,0-2.5,1.68-1.27,1.57-2.06,3.52-1,5.4.89,1.37,2.87,1.64,4.58.56Zm-5.66-2.53a4.09,4.09,0,0,1,.2-1.5c.28-.71.27-.8-1-.21a6,6,0,0,1-1.34.31c-1,0-.78.32.7,1.57s1.55,1.36,1.43-.17Zm3.53-6c.15-.37-.17-.52-.49-.45,0,0-.57.42-1.21.92-1.93,1.54-3.35,1.72-4.31.55s-.57-2.59,1.61-4.2c1-.71,1.19-.76.73-1.07s-.38-.2-1.76.74c-2.78,1.9-3.61,3.19-3.33,5.08a1.92,1.92,0,0,0,.85,1.48c2.65,2.36,6.33-.9,7.91-3Zm2.8,1.12-.16-2.61a22.67,22.67,0,0,1-6.44-10.11c-.95-3.09-.19-9.53,0-9l-1.53-2.91a19,19,0,0,0-.46,12.6c1.22,4.08,3.68,9,8.64,12.08Zm-11.91-1.52c.9-1.73.93-1.55-.81-1.56-2,0-1.76-.26-.64,1.44C49.93,113.12,49.78,113.24,50.49,111.87Zm1.19-2.38a6.51,6.51,0,0,0,2.4-1.27c1.74-1.14,1.81-1.76.06-.89-2.24,1.13-4.21.84-4.94-.63-.65-1.31.71-2.94,2.95-3.58.76-.22,1.17-.4,1.17-.74,0-1-3.81.35-5.38,1.9-3,3-.37,6.54,3.74,5.21Zm-4.9-4.66c.1-.15.38-.53.63-.92,1.07-1.25.17-.87-.78-1.22a3.75,3.75,0,0,0-1.32-.33c-.57.09.19,1.2.38,1.91C46.2,105.87,46.14,105.82,46.78,104.83ZM50.84,102c1.92-.18,2.11-.37,2.12-.77s-.24-.32-1.2-.19c-2.56.36-4.25-.29-4.61-1.66s1.35-2.76,3.66-2.68c1.24,0,2.08-.39,1.32-.81a16.38,16.38,0,0,0-4.62.06c-2.28.67-3.21,2-3,3.72.31,2.18,1.5,2.81,4.39,2.66.55,0,1.26-.26,1.94-.33Zm1.48-7.11c0-.34-.54-.39-2.35-.66-2.42-.36-3.5-2.61-2-4a3.59,3.59,0,0,1,2.6-.6c1.59.29,2.56.62,2.58.08s-.46-.52-3.45-1.16c-4.51-1-7,3.5-3.38,5.68,1.37.83,6,1.3,6,.62Zm1.12-6.38c0-.17-.14-.3-.48-.44a6.51,6.51,0,0,1-2-1c-1.49-1-1.95-3-.95-4.07s-.77-2.24-2.16-1.08-1.31,3.08.34,4.58S53.44,89.27,53.44,88.47Zm-7.31-.27c1.57-.74,2.7-.31,1.5-1.33-.68-.63-1.25-2.42-1.72-.9a13.93,13.93,0,0,0-.63,2.65C45.38,88.73,45.36,88.54,46.13,88.2Zm55.49-3.84a3.82,3.82,0,0,1-2.55-4.54,19.24,19.24,0,0,1,1.52-4c.79-.63.68.21,0,1.66s-1.18,2.68-1,3.56a2.88,2.88,0,0,0,2.09,2.54A2.93,2.93,0,0,0,104,83c.77-.54,1.5-2,2.37-3.9.28-.54.65-2.22,1.12-1.2.22.53-1.64,4.06-2.33,5A3.69,3.69,0,0,1,101.62,84.36Zm10.77-1.18a3.72,3.72,0,0,0,3.3,1c2.36-.84,3.43-3.08,2.54-6.68-.46-2-.84-3.27-1.23-3.52-.19-.12-.4.11-.58.39s.08.6.35,1.55c1.13,4,.83,5.81-.54,6.57-2,1.11-3.71-.16-4.28-3-.1-.44-.37-1.34-.37-1.34-.15-.4-1.39-.31-.94,1A10,10,0,0,0,112.39,83.18ZM122.5,72.7c0-1.41-3-7.52-3.18-6.87a14.24,14.24,0,0,0,.11,2,2.39,2.39,0,0,0,.32.64c2.56,4.58,2.16,7.82-.06,8.53-.75.34-.92.68-.58,1,.69.74,2.4-.73,2.73-1.27C122.68,75.55,122.57,73.36,122.5,72.7Zm-42.83-1a29.08,29.08,0,0,0,3.73-6.78c2-5.83,4.11-12.55,4.69-18.75.07-.78.11-2,.15-2.08a2.3,2.3,0,0,0-1.49.09c-.16.21,0,.68-.11,1.28a85.22,85.22,0,0,1-5,19.8,30.79,30.79,0,0,1-3.37,6.61c-.22.35-.51.7-.62.9-.33.47-.09.78.29.58a8.28,8.28,0,0,0,1.74-1.65Zm-3.29,1.7a48.41,48.41,0,0,0,7-15.4,94.52,94.52,0,0,0,2.58-11.88c.12-.86.22-1.44,0-1.7a2.2,2.2,0,0,0-1.46.17c-.17.25-.06.75-.21,1.91a83.53,83.53,0,0,1-2,9.94c-2.63,8.72-5,13.6-8.21,17.87-.25.36-.48.59-.46.75s.34.2.84-.11a13.05,13.05,0,0,0,1.88-1.55Zm-4.69,2.26c1.51-.86,4.16-4.6,6-8.62a93.94,93.94,0,0,0,5-14.77,51.83,51.83,0,0,0,1.1-7.47c-.12-.39-1.59-.06-1.38.21a109.57,109.57,0,0,1-3,12.69C76.5,66,74,71.71,71.26,74.44L70.2,75.5s0,.31.24.36a1.77,1.77,0,0,0,1.25-.24Zm-2.3-.33c3.4-1.91,7.37-10.84,10.62-22.06.55-1.91,1.57-8.34,1.57-8.34s-1.35,0-1.62.34-.22,1.38-.59,3.72a76.08,76.08,0,0,1-7,20c-1.43,2.83-3.81,5.5-5.31,6.26-.84.42-1.09.89-.47.93,1,0,1.12.25,1.87-.16Zm46.52,99.86c-2.55,0-4.71,2.46-6.64,5.55-4.09,6.34-6.85,16.93-7.52,22.55l1.55-.29c-.24.11,2.89-15,7.64-21.44,2.57-4.08,2.47-4.14,3.91-4.51,1.82-.47,3.29,1.52,2.38,2.71-.33.41-.68.11-.58-.47.32-1.84-2.35-2.2-3.1-.38-.86,2.08,1.43,3.94,3.66,3.12,2-.71,2.82-3.51,1.43-5.59a3.89,3.89,0,0,0-2.73-1.25Zm-13.4-.25c-3.05,3.85-4.56,7.82-6.43,13.23a70.48,70.48,0,0,0-3.8,16.76l1.65-.21c-.06-3.9,4.18-22.48,10.14-29.44a3,3,0,0,0,.58-.91C104.31,173.4,102.9,174.53,102.51,174.9Zm6.73-1.44c-3.95,3.26-7.11,10.38-9.19,17-2.25,7.12-3.26,13.65-3.09,13.65l1.57-.23c-.11-.42,4.41-25.51,12.81-30.08.73-.36.88-.73.27-.89a3.45,3.45,0,0,0-2.37.58Zm4.42,0c-8.62,1.15-14.26,27.82-14.45,30,0,0,0,.21,0,.21l1.72-.36s0-.08,0-.12a70.26,70.26,0,0,1,5-17.76c2.1-4.56,5-10.4,9.31-11,.35,0,.68.09.56-.32-.26-.65-1.55-.74-2.15-.72Zm-51.41-8.4c-3.11.81-3.22,4.58-1.14,9.39.16.37.13.56.29.7.35.32.63-.12.67-.41a4.34,4.34,0,0,0-.45-1.88c-1.29-3.33-1-5.25.29-6.1,3.26-1.69,4.14,1.79,4.63,3.39.12.39.17.92.38,1a1.3,1.3,0,0,0,1-.14,41.78,41.78,0,0,0-1.39-4.12,3.51,3.51,0,0,0-4.23-1.78Zm-22.62,3.56,0,39.71-6,5.65c-2.56-2.21-5.92-5.68-5.92-5.68l.1-67.13L25.89,141c-.47,28.84,0,58.26,0,87.16H43.38l14.61-23a4.25,4.25,0,0,0,.24-.42c.18-.45.16-1.11.07-3.55a8.41,8.41,0,0,0-.07-2c-.15-.23-.46-.06-.75.07s-.47.09-.31-.27c.09-.2.38-.64.63-1.05.82-1.36,1-1.8.75-3.3a3.88,3.88,0,0,0-.7-1.12c-2.46-3.66-3.46-9.09-2.24-13.06A3.49,3.49,0,0,0,55,177Zm77.25-42.69c-1.6-.84-1.57-.82-1.58.76,0,1.17,0,1.46.47,1.3.63-.33,1.41-.62,2-.87,1.11-.39-.3-.89-.88-1.19Zm6.36,4.09c-1.25-1-.79-.89-1.14,1.37-.21,1.36-.49,1.4.91.95.8-.28,2.43-.1,1.7-1C124.72,131.32,123.48,130.23,123.24,130Zm-50,34.71c-1.91,1.17-3.86,6.82-3.86,6.82-6.67.8-9.47,7.43-9.77,12.95-.23,4.36-.53,9.46-.09,9.9,4.38-2,6.06.31,6.48-.31.19-.27-1-1.16-2.43-2a9,9,0,0,1-1.06-.68c-.53-.45,1.06-.07,2.07.63,1.28.88,1.5.69.94-1.88-.61-2.81-.71-3.15,1.43-4.26a6,6,0,0,0,2-1.51c.49-.56.61-.69.43.12-.31,1.41-1.55,2-2.67,2.6a1.51,1.51,0,0,0-.79,1.36,32.1,32.1,0,0,0,.84,4.12c.25.83.34,1.66.53,2.51a8.36,8.36,0,0,1,.28,4.23,8.08,8.08,0,0,0-.17,2c0,.52.12,1.22.12,1.22s-1.19-1.24-3.81-.2a5,5,0,0,1-4.43-.59,9.53,9.53,0,0,0-.16,2.8,95.14,95.14,0,0,0,28,.91,90.56,90.56,0,0,1,3.25-16.43,44,44,0,0,1,2.94-7.68A8.61,8.61,0,0,1,95,179c.08,0,.09-.08.09-.11v-.21a2.07,2.07,0,0,0-.5-1.4c-.9-.73-2.34.21-2.81,1.82a51.74,51.74,0,0,1-2.45,5.1c-.11-.07-.37-.07-.27-.4.72-1.7,1.71-3.5,2.27-5,.78-2.19,2.46-3.36,3.72-2,.43.48.6.91.8,1.07s.35,0,.47-.16c.48-.72-.62-2.35-1.8-2.68-1.7-.48-3,.78-4.9,4.84-1.12,2.35-1.32,2.94-1.49,2.76,0,0-.34,0-.23-.44a33.14,33.14,0,0,1,2.78-5.62c1.59-2.67,4.53-2.88,5.77-.57.19.32.2.73.41,1,.38.5,1,.4,1.16-.42-.17-.54-1.21-2.48-1.92-2.82a4.14,4.14,0,0,0-5.36.6c-.39.34-.79,1.05-1.91,3.34-1.65,3.69-1.69,3.71-2.14,3.11.66-1.79,2.41-4.71,3.11-6.49a1.63,1.63,0,0,0,.15-.83c0-1.3.17-3.6-2.55-5.23a4.76,4.76,0,0,0-6.43,2.55c-.8,1.9-1.38,3.21-1.79,3.48-.56.38-.46-.15-.4-.34.8-1.72,1.93-3.46,2.11-5.2a4.68,4.68,0,0,0-7.65-4.06Zm-24.32-88a63.69,63.69,0,0,1,9.94-3.71c.5-.22.58-.27,0-1.35C56.49,67,63,63.18,65.22,67.84c.3.62.36,1,.66.67a29.68,29.68,0,0,0,1.86-2.91c2.49-3.9,3.62-8.35,5-12.28a50.36,50.36,0,0,0,1.54-7.19c-5-8.69-13.64-24.62-13.64-24.62H25.86V91.18c9.68-8.15,16.26-11.1,23-14.41Zm38.95-2.56c.42-.45.78-1.19,2.29-4.31.26-.56.69-1.42.87-1.82.22-.74,1.07-1.2.66.12a11.62,11.62,0,0,1-.51,1.17c-.5.91-1,2-1.33,2.75C87.88,76,88,78.29,90.12,80a4.62,4.62,0,0,0,6.78-.78,8.19,8.19,0,0,0,.58-1.11A16.27,16.27,0,0,1,99,75c.79-1,.92.24-.27,2.2a5.8,5.8,0,0,0-.21,6.37,4.64,4.64,0,0,0,7.17.57h0a15.13,15.13,0,0,0,2.64-5c.15-.47.31-.81.42-1.08.18-.42.43-.58,1.08-.7,4.44-.86,8.17-5.47,8.7-10.5.07-.68.26-1.88.33-2.6.14-1.43.14-8.81,0-9.25a.45.45,0,0,0-.49-.36,3.24,3.24,0,0,0-1,.24,4.32,4.32,0,0,1-3.56.16,2.45,2.45,0,0,0-1-.21c-.62,0,.21,1,2,2,.78.42,1.39,1,.76.95a27.75,27.75,0,0,1-2.67-1.34c-1-.61-.74.16-.22,2.21.69,2.74.29,3.51-1.86,4.58a5.85,5.85,0,0,0-1.2.89c-1.13,1.7-.84.45-.27-.46,1-1,.38-1.38-1.62-.67-2.29.82-3.32.22-4-1.06-.72-1.45.64-3.32,1.77-3.28.37,0,.3.14-.24.52a2,2,0,0,0-1,1.65c-.14,1.57,1,2.24,2.53,1.19a6,6,0,0,1,1.86-1c.55-.13,1.38.08,1.38.52a4.4,4.4,0,0,0,0,.74c.15.49.93-.21,1.28-.46,1.17-.88,1.13-1.06.81-2.49-.52-2-.79-3.84-1.28-5.88a8.59,8.59,0,0,1-.15-3.35c.08-.55.29-1.66.33-2.43s0-1.86,0-1.86c1.17.9,1.64,1,2.77.62a4.61,4.61,0,0,1,4.34.06c.55.27,1.05.45,1.05.45l.07-2.3s-1.37-.28-3.9-.62c-7.62-1-23.24-1.22-23.83-.3-.14.24-.29,1.89-.71,4.17-.92,4.76-2,9.49-3.33,14.13-.29.95-.56,1.33-.41,1.36s.34-.36.47-.51c.74-.86.18,1.19-.94,3.66a2.19,2.19,0,0,0-.19.54A26.63,26.63,0,0,1,85.3,70c-.3.65-.55.84-.54.43C85.1,69,86,67.14,86.12,65.88c-.78,1.14-1.93,3-2.8,4.17-.16.31,0,.4.15.78.52,1.4,1.79,1.53,2.52.26.4-.71,1.67-3.39,2.11-4.56A6,6,0,0,1,89,64.61c.3-.16.36.53-.18,1.67-1.63,3.45-2.32,5.39-3.12,6.11a1.47,1.47,0,0,1-2.28-.47c-1-1.67-1.87-1.12-1,.6a2.46,2.46,0,0,0,4.28.34,51.43,51.43,0,0,0,2.71-5.33,4.51,4.51,0,0,1,.75-1.42c.59-.23-.08,1.53-1.79,5.08-.56,1.37-1.44,2.8-2.65,3.25-2.92.64-3.31-.92-4.33-2.7-.5-.44-.94.27-.75,1.05a3.64,3.64,0,0,0,1.76,2.4,4.21,4.21,0,0,0,5.36-1Zm13,7.41a2.58,2.58,0,0,1-.09-1.75,14.35,14.35,0,0,1,1.4-3.57c1-.45.23,1.37.11,1.64-1.16,2.44-1.27,3.38-.19,3.66s1.43-.33,2.3-2.51c.45-1.12.63-1.62.79-1.69.33-.13.5,0,.48.35a16.07,16.07,0,0,1-2,4.13c-.94.79-2.34.79-2.82-.26Zm-8.68-1.87a4.6,4.6,0,0,1-1.58-1c-1.63-1.51-1.36-3.6.66-7.54.16-.3.75-1.49.94-1.88.34-.7.67-.42.67,0a18.74,18.74,0,0,1-1,2.22c-2.24,4.42-2.16,6.23,0,7.28s3.07.43,4.77-2.94c1-2.54,1.46-2.58,1.4-1.61a18.14,18.14,0,0,1-2,3.91C95,79.82,94,80.11,92.19,79.75Zm.16-2.14a2.31,2.31,0,0,1-.69-2.87c.45-.88,1.6-4.23,2.14-4.42.87,0,.41.7-.67,2.76-1.27,2.74-1.23,3.47-.24,3.89s1.34-.41,2.68-3.61c.21-.5.5-1,.67-.91s.59.15-.12,1.59c-.17.35-.45,1.08-.76,1.75-.92,2-2,2.48-3,1.82Zm15.05-5.8c-.37-.19-2.09-.87-1.83-1.43,0-.06.13,0,.18,0a4.57,4.57,0,0,0,5.57-.14c.35-.31.61-.1.41.28C111.11,71.78,108.36,72.31,107.4,71.81ZM102.34,70a7.37,7.37,0,0,0,.31-1c.19-.72.15-1.24.32-1.15a3.06,3.06,0,0,0,2.61,0,3.18,3.18,0,0,1,2.58-.22,1.13,1.13,0,0,0,1.6-.14c.57-.45.58-.26,1.61.1.77.27,1.07.45,1.39.39.13,0,.38-.3.46-.29.25,0,.27.76.5,1.57s.09.89-.55.46a4.52,4.52,0,0,0-3.25,0,3.25,3.25,0,0,1-2.06.06c-1.92-.33-3.31-.58-4.74.25-.76.45-1,.68-.78-.06Zm-4.78-3.55c-.93-1.88,1.21-4.38,3.09-3.49.63.29,1.18,1.39.26.89C96.63,63,97.7,69.32,102.29,66c3.06-2.05,5.22-2.36,5.4-.39-.09.73-.73.62-1.21.68a10.15,10.15,0,0,0-3.2,1c-2.23.71-4.41,1.29-5.72-.82Zm16.74.87c-1-.27-2-.68-3-.88s-1.56-.76-1.37-1.52,1.29-.88,2.91.12c1.8,1.1,3.1,1.37,3.76,1,1.33-.85.61-2.22-.66-2.58-1-.26-.25-.64.77-.33,1.66.63,1.69,3.65,0,4.27a4.62,4.62,0,0,1-2.36,0Zm-14.57-10a18.73,18.73,0,0,0,2.81-1.89c.22-.23.83-1,.35-.79-2.47,1.5-5.35.26-7.43-.77-1-.47-.76-.26-1.52-.21-.53,0-.94.14-1-.23,0-.17-.33-.1-.52-.12-.77-.07-.28-1.1,1.34-2.24a14.89,14.89,0,0,1,5.22-2.57,5,5,0,0,1,4.75,1.09c.49.48.45.8.9.5,1-.67,1,.22.17,1-.6.56-.38.72.35,1.26.34.25.06.5-.13.87a3.17,3.17,0,0,0,0,.66c-.17.8-3.8,3.65-5.11,4.13-.91.17-.43-.52-.09-.74Zm2.52-5.23h-.6c-.68,2.12-2,2.84-3,.3l-.48.05C98.14,54.64,101.8,56,102.25,52.13Zm-4,2c-.25-.43-.53-1.39-.79-1.41-.71,0-1.69.1-1.45.55C96.41,54,98.58,54.6,98.29,54.12Zm4.85-.38c.65-.4.79-.67.37-1.11s-.84-.27-1,.63S102.46,54.15,103.14,53.74Zm-8.85-1.49c4.37-2,6-2.25,7.81-1.76a4.73,4.73,0,0,0,1,.33c.85,0,.31-1-1.21-1.56-1.75-.63-2.85-.34-6.2,1.42-2,1-3.56,2.56-1.4,1.57ZM107,49.83c-.06-.12-.32-.91-.4-1.2s-.14-.59-.22-.59a11.4,11.4,0,0,1-4.29-.18,14.18,14.18,0,0,0-8.25.29,8.19,8.19,0,0,0-1.27.62c-.18.17-.44,0-.44-.23a6.72,6.72,0,0,1,2.22-1.75,11.35,11.35,0,0,1,8.37-.71,5.32,5.32,0,0,0,4.49.08c.61-.27.18.41,0,1.3a4.2,4.2,0,0,0,0,1.5c.08.85,0,1.27-.23.87Zm45.68,178.36V158.33c-17.42,12.11-25,14.52-33.23,17.49,2.74,5.63-3.3,10.45-6.76,4.73-3.56,4-8.47,18.17-8.64,22.86,0,0,9.47,16.54,14.1,24.78Zm-63.33-22.9a71.81,71.81,0,0,1,3.38-16.41,55.74,55.74,0,0,1,3.81-9.24c.66-1,.71-1.45,0-1.07a16.46,16.46,0,0,0-2.75,3.12c-3.11,6.62-4.55,14.58-5.68,20.65a25.92,25.92,0,0,0-.34,3.06Zm2.28-.29c.74-8.54,3.85-20.07,8.53-27.59.44-.71,1-1.33,1-1.58-.06-.73-1.86.53-3.26,2.69a73.07,73.07,0,0,0-4.32,10.14,65.55,65.55,0,0,0-3.4,16.53Zm4.49-.72c.47-4.92,2-9.43,3.26-13.95a45.7,45.7,0,0,1,6-13.27c.78-1.17,1.69-2.27,2.56-3.4a.82.82,0,0,0,.2-.47,2,2,0,0,0-1.44.32,8.12,8.12,0,0,0-1.94,1.83c-3.44,4.43-5.29,9.59-7,14.81a55.93,55.93,0,0,0-3.07,14.37ZM65.2,200.51c.7,0,1.14.08,1.34-.11s.14-.68.2-1.31c.13-1.35,0-1.28-.84-.4-1.39,1.44-3.93,2-5.43,1.13-.76-.44-1.29-.75-1.36-.38a.88.88,0,0,0,.35,1C61.29,201.26,63,200.68,65.2,200.51Zm-1.63-1a4.91,4.91,0,0,0,2.49-1.64c.53-.75.52-.86.12-.71-2,1-3.24,1.46-5,1.19-2.36-.36-2.46-.06-.9.93A3.46,3.46,0,0,0,63.57,199.48Zm-3.47-3c.37-.27.46-1.38.16-1.45s-.73.49-.84.94.32.75.68.51Zm3.66,0,.63-.06c-.32-2.78-3.32-2.9-3.87.28l.47.07c.62-2.53,2.43-2.46,2.77-.29Zm2-.45c.91-.51.6-1.15-.64-1.4-.81-.19-.77.48-.35,1.39.21.45.36.37,1,0Zm-7.06-3.41a3.19,3.19,0,0,0-.28-1.11,16.52,16.52,0,0,1-1.52-8c.09-2.29.12-3-.36-3-.66.32-1.05,4.6-.21,8.16C56.91,191.12,58.73,194.23,58.68,192.54Zm0-3.48c-.07-1.2.19-3.89.06-4.47a3.3,3.3,0,0,0-.88-1.66c-.39-.28-.49.27-.36,1.71.33,3.38.87,5.94,1.18,4.42Zm.33-6.15c.26-.48.16-1-.42-2.11-2.26-4.46-2.55-7.5-.19-8.61.27-.12.43-.15.61-.25.75-.41.46-1.17-.65-.86-3.09.86-3.69,3.77-1.1,9.16,1.33,2.68,1.53,3.06,1.75,2.67Zm.56-2.53c0-.19.12-.92.15-1.07a14.09,14.09,0,0,0-.61-1.43c-.87-2.25-.89-3.18.06-3.83.3-.18.62-.19.67-.4s.07-.86-.13-1a2.17,2.17,0,0,0-2.22,1.57c-.36,1.2,0,3,1.08,5.14.52.69.79,1.93,1,1Zm1-2.9c.73-1.48,0-3.4-1-2.75-.65.43-.68.88-.29,2.11.49,1.5.78,1.6,1.25.64Zm2.55-4c.29-.29,0-.71-.51-2.35-.46-1.4-.25-2.35.63-2.63,1.26-.31,1.71,1.76,2,2.64.14.67.58.86,1,.39.11-.13.14-.24,0-1-.81-3.21-1.87-4.24-3.58-3.44s-1.38,2.41-.23,5.9c.15.47.26.82.37.87S63,173.68,63.14,173.52Zm1.4-1.1c.38-.37.36-.2-.07-1.54-.49-1.53-.75-1.85-1.28-1.33-.32.33-.16.68.21,1.93.43,1.46.55,1.54,1.14.94Zm65.74-5.24c2.51-1.74,1.47-4.86-1.82-6-.39-.13-.82-.3-1-.36-1.51-.74-2.69-1-2.69-.39,0,.34.45.51,1.9,1.22,2.14,1.05,2.63,2.27,1.57,3.81-.76,1.1.67,2.37,2,1.74Zm2.27-3.8c.22-.89.54-1.66.7-2.18.21-.81-.06-.62-.6-.49-1.38.72-2.36.33-1.69,1.32C131.7,163.35,132.32,164.37,132.55,163.38Zm-.17-3.12a3.18,3.18,0,0,0,.5-5,5.76,5.76,0,0,0-1.84-1,11.3,11.3,0,0,0-4.84-.46c-.19.22-.19.56,0,.66a6.53,6.53,0,0,0,1.3.22c2.39.24,3.57,1,3.46,2.67s-1.52,2.44-4,1.88c-1.36-.3-2-.15-1.45.17a12.74,12.74,0,0,0,3.41,1.15,5.24,5.24,0,0,0,3.51-.3Zm-8.25-.44c1.94-4.38,3-15.86-8.1-24.16l.37,2.3a20.22,20.22,0,0,1,6.73,19.8ZM134,152a14.54,14.54,0,0,1-2.16,1.32c-.53.24-.54.3.18.7a5.64,5.64,0,0,1,1.15.78c.38.42.83.58,1,.43C134.15,154.55,134.37,152.39,134,152Zm-3.27.83c2.24-.71,3.44-1.8,3.18-3.62-.37-2.66-2.58-3.22-6.72-2.18-2,.5-2.18,1.44-.28,1,2.38-.62,4.26.31,4,2.07-.15,1.52-1.37,2.41-3.49,2.41-1.13,0-1.48.1-1.32.51S129.81,153.09,130.73,152.8Zm-3.7-6.33c3.66-1.26,5.37-3.23,4.53-5.43-1-2.59-4.18-2.62-7.39-.21-1.5,1.11-1.27,1.52.18,1,1.89-.88,3.1-1,3.87-.32,1.39,1.25.45,3.44-1.66,4.22-1,.43-1.35.67-1.35,1,0,.48.18.37,1.82-.2Zm6.18,0c.09-.77-.77-3.43-1.14-2.82a5.25,5.25,0,0,1-.87,1.31c-1.26,1.13-1,.7.23,1.05C132.12,146.16,133.11,146.66,133.21,146.43Zm-9.68-5.69c3.7-2.16,5.11-5.24,3.19-7.29-1.72-1.85-4.58-.77-7.23,2.58-1.22,1.53-.31,1.34,1.33-.12,1.91-1.7,4.35-.88,4.33,1.24,0,.91-1.28,2.44-2.48,3.15-.38.22-.43.55-.3.77s.44.09,1.16-.33Zm6.48-2.25c-.19-.58-1.58-3.08-1.88-3-.32.64-.34,1.48-.72,2.16-.51,1-.45.86,1.2.85,1.22,0,1.37.17,1.4,0Zm-10.87-2.82c3.11-3.25,3.38-7.06.47-7.93-1.62-.49-4.2.69-4.2,1.9,0,.76.13.89.79.62,2.74-1,4.92,1.63,2.4,4.69-.62.89-.7,1.11-.52,1.29s.38.14,1.06-.57Zm33.5-27.8V21.51H134.43L120,44.45l0,5.63c0,.2.32.32.54.07.82-.64.5,0-.44,1.48s-.67,2.67.38,4.24c2.21,3.31,3.37,9.4,2.42,12.62a3.55,3.55,0,0,0-.2,2.38,2.62,2.62,0,0,0,1.2,1.69,131.24,131.24,0,0,1,15,8.37l0-40.48,5.58-5.39,5.9,5.68.21,66.83c0,.71,2.12,1.35,2.12.3Zm-3.2-66.94L144.5,36.3l-4.88,4.56c0,21.77.13,66.45.13,66.45l4.84.35a8.28,8.28,0,0,0-.09-3.65c-.68-4-.64-8.78.45-16.13a30.49,30.49,0,0,0-1-12.53,19.57,19.57,0,0,1-.76-7.73c.34-3.91,1.41-6.86,1.54-12.49.07-3.2-.08-6.35,0-10.3,0-.53.27-.47.31.08.15,3.58.29,7,.32,10.48-.11,4.55-1.21,9.23-1.33,13.39a15.66,15.66,0,0,0,1.07,7.39c1.9,5.52.65,14,.62,14.14-.8,5.43-1.39,12.38,1.33,17.58l2.63.23ZM115.48,82c1.46-.68,1.75-1.87,1-4.73-.14-.51-.3-1.12-.35-1.35-.17-.71-.49-.79-.91-.23-.25.34,0,.42.37,2,.58,2.39.25,3.17-.63,3.17s-1.39-.65-1.61-2.2a3.09,3.09,0,0,0-.32-1.1c-.21-.35-.46-.29-.67.1s.24,2.59.9,3.6,1.22,1.23,2.26.75Zm-.39-2.14c.31-.59-.08-2-.28-3-.18-.53-.39-.65-.74-.57-.52.13-.49.7-.3,1.63C114.15,79.85,114.35,80.09,115.09,79.86Zm4.42-3.44c1.67-1,1.83-2.61.71-5.61-.46-1.23-1-2.1-1.35-2.11-.12.79-.24,1.2-.1,1.51s.35.72.51,1.09c1,2.21.69,3.49-.22,4.18s-.32,1.19.45.94ZM65,75.26c3.9-.84,7.43-7.17,9.65-12.81,2-5.68,4.17-11.93,4.51-17.14,0,0-1.48.07-1.66.38a8.4,8.4,0,0,0-.4,1.89,75.18,75.18,0,0,1-3.6,12.93,48.55,48.55,0,0,1-5.92,11.42,6.1,6.1,0,0,1-3.94,2.37,6.48,6.48,0,0,0-1.24.1c-.3.22,0,.7.74.9a4.22,4.22,0,0,0,1.86,0Zm53.84-.74c.59-.63.65-1.39,0-3-.18-.45-.27-.7-.49-.64-.47.13-1,1.38-.7,2.44.42,1.37.67,1.78,1.21,1.2Zm-55.21-1A5.94,5.94,0,0,0,67.26,71,42.18,42.18,0,0,0,72,62.44c.88-2,2.47-6.39,2.9-8a78.26,78.26,0,0,0,1.84-7.93,1.46,1.46,0,0,0,0-.69,2.42,2.42,0,0,0-1.75.26,81.24,81.24,0,0,1-2.75,10.94c-1.58,5.47-6.06,14.21-8.5,14.63-1.32.22-2.82-.93-2.58-2.11.15-.73.25-1,.6-1.19.85-.3,1.35.29.41.67-1.08,1,.87,2.4,2.07,1.38,2-1.71-1-5-3.39-3.49-2.71,1.67-2,4.57-.31,6a3.72,3.72,0,0,0,3.06.63Zm19.14-3.93a17.2,17.2,0,0,0,3.84-6.75,106.44,106.44,0,0,0,4.21-19.11s-1.43-.14-1.75.16,0,.42-.61,4.54a80.25,80.25,0,0,1-4.66,17.12A20.93,20.93,0,0,1,82,69c-.86,1.53-.54,1.92.72.61Zm37.05-13.08c-.16-.08-.14,0-.21,0-.23.16-.08,1,.44,2.2,1.36,2.21,1.52,6.51,1.43,8.12a2.63,2.63,0,0,0,.07,1.19c.14.43.4.92.8.09a17.08,17.08,0,0,0-1.11-9.2,7.47,7.47,0,0,0-1.42-2.42Zm1,9.38a14.09,14.09,0,0,0-.75-5.44c-.22-.48-.62-.52-.57,0,0,1.17-.13,3.41,0,4.07.59,1.38,1,2.26,1.31,1.34Zm-3.09-13.71h-.64c0,2.22-1.93,2.84-2.65.17l-.58.14c.77,3.76,4.24,2,3.87-.31Zm-3.9,1.67c-.34-1-.2-1.34-1.05-.9-.64.34-1,.7-.12,1.14s1.38.39,1.17-.24Zm4.89-.56c.27-.55.24-1-.17-1s-.4.24-.48.77c-.16.95.23,1.12.65.27Zm.34-3.69c.25-.08.18-.43.11-.88-1.06-1.48-3.68-1-4.62-.73a2.19,2.19,0,0,1-2.1-.12c-.61-.11-.69,0-.84.33a5,5,0,0,0-.2,1.61c0,.72,0,1.06.24.83a6,6,0,0,1,3.73-2,7.45,7.45,0,0,1,3.68,1Zm-7.21,2c0,.3.25.11.9-.3a5.76,5.76,0,0,1,5.72-.54c.45.15.73-.32.24-.72C116.36,48.07,113.42,49.33,111.89,51.61Zm8.52-9.12,12.75-21.25-71,0L74.18,43.75a107.48,107.48,0,0,1,46.23-1.26Z" transform="translate(0.1 0.1)"/><path id="path4098-7-2-7" class="cls-3" d="M57.4,208.71c1.5-2.26,9,1.77,9.35,3.36,4.41-3.5,9.77-3.75,14.08.63,4.43-4.88,9.17-4.55,14.11-1.72-.56-1.1,6.31-6,10.48-2.88l11.27,20.24-72.25.23C48.71,222.12,52.49,214.41,57.4,208.71ZM25.84,103.14c-.39-1.09-2-12.34,2-12.62,6.5,2.91,14.8,13.29,18.65,19.64,4.76,7.87,9.58,26,6.92,25.17-.38-.11,8.2,8.55,8.8,9.4,1,1.39-14.48,27.33-17,26.4-.77-.29-5.91-3.38-5.91-3.38l.14-8.66.13-17.46-14.16-1.24.49-3.8c4.75.39,9.63,1.29,14,.26,2.89-5.34,1.79-13.31-1.7-16.52-1.84-1.13-3.58-.77-5.44-.53C25.2,118.53,29.13,105.65,25.84,103.14Zm126.82,5.78,0,3.19c-5,1.1-13.81-3.17-16.48,3.7.33,7.41,2,10.74,3.13,13,.86,2,6.93-.28,9.07,1.74,6.14,7.61,4.69,17.75,4.74,26.88l-2.66,1.35C132.11,147.83,118,113.87,116,104.2,115.9,98,132.9,78,132.9,78s6.19,3.78,6.19,3.78c.15.06-.13,26.18-.12,26.06C143.83,108.13,148.54,108.61,152.66,108.92ZM116.19,85c-21.45,37.82-12.68,65.81,3.1,90,0,0-1.36.32-1.51.18-3.46-3.1-5.87-2.56-7.64-2.58-3.38-.06-4.31,1-6.25,1.15-5,.5-4.55.62-8.75-1a56.38,56.38,0,0,0-18-9.45c-4.53.41-11.43,2.57-14,.82,18.17-33.78,15.45-55.41-3.36-90.82,1.56.46,1.81,1.93,3,2.29,3.87,1.51,9.19.94,12.38-.47,5.08-2.32,10.49,3.93,26.07,10.81,1.27.66,2.88-.38,4.28-.67,2.88-.58,5.34-1.82,7.48-1.1.69.24,3.32.86,3.32.86ZM72.89,40.83C72,39.1,62.51,21,62.51,21l70.34.42L122.3,38.89c-1,1-6,3.6-11-2.4-.09.86-7.5,6.19-13.87-.22-3.83,3.51-7.74,5.54-14.19,1.59-.14,1.1-5.17,6-10.34,3Z" transform="translate(0.1 0.1)"/><path id="path4094-0-9-9" class="cls-4" d="M80.59,212.29c-6.82-6.44-13.91-.62-13.75-.26-2.7-2.76-5.34-5-8.89-3.91,0,0,0-1,0-1,10.61,2,26.84,2.46,45.82-1.55l1,2.06c-5.09-1.83-7.71.64-10,3.51C86.63,206,84.64,210.52,80.59,212.29Zm15.89-74.91,4.83-.09c.9,14.15,12.62,35.81,12.9,35.81-.81-1.14-8.55-.24-8.49-.1C101.47,161.55,96.8,150.11,96.48,137.38ZM68.36,171s-1.55-4.06-2.48-5.79c5.06-8.73,9.22-17.76,11.35-27.8l3.45,0C79.65,151.26,68.66,172.32,68.36,171Zm62-1.86c7.6-13.83,6.29-33.77-15.26-44.78,0,0,.56-14.62,2.16-14.65.37.11,9.76-.12,9.76-.12,2.46-6.1,6.42-13.47,12-18.44l.14,16.33c-4.1.41-6.6,1.73-7.84,5l-5.67,1.27c.42,16.41,6.54,31.58,24.68,45.19-4.34,3.76-19.16,11.4-19.1,11.27ZM39.48,158.79l.17-17c2.75-.6,4.92.21,7.19-4.77,0,0,3.81,1.83,5.08,2.5C48.35,146,45.28,152.82,39.48,158.79ZM75.6,128.68l.19-8.64,8.12.24a16.26,16.26,0,0,0,0,8.78Zm18.54-.11c.55-2.82,1-5.67-.2-8.66l8.79.15-.21,8.6ZM77.41,111.69C76,94.75,64.45,75.58,64.29,76c1.35.22,3.74.9,5,.27a6,6,0,0,0,3-.06c.11-.59,10.69,24.59,9.28,35.46-.17.36-3.91.39-4.25,0Zm20.33.14c1.24-7.82,4.44-22.13,12-33.74a43.48,43.48,0,0,0,2.76,6.11c-5.7,8.37-9.22,18-11.35,27.73Zm-52.59-4.21C41.68,100.49,27.28,89.26,28,90.4c6-5.4,12.61-8.82,19.25-12.29,0,0,1.18,1.13,1,1.42-4.08,6.49-6.06,20.25-2.11,28.13,3.8,8.42,10.53,13.4,17.4,17.31a92.16,92.16,0,0,1-2.08,14.3s-4.31-2.29-7.85-3.76c-.56-9.95-2.6-18.84-8.48-27.89ZM83.29,37.75c5.08,3.13,9.62,2.8,14-1.44a10.23,10.23,0,0,0,14.05.42A9.62,9.62,0,0,0,121.21,40l-1.1,2.34c.26-1.24-30.75-3.27-45.75,1a13.18,13.18,0,0,1-.78-1.78c1.3-.08,5.65,1.54,9.71-3.77Z" transform="translate(0.1 0.1)"/><path id="path4092-7-7-9" d="M61.48,20.4,74,44l.55-.1c17.38-3.43,31.14-3.9,45.92-1.28l13.14-22C109.7,20.38,61.48,20.4,61.48,20.4Zm1.39,1,69.71.08L128.66,28c-2.35-.73-3.66.36-4,2.63a3,3,0,0,0-.83-.19,2.4,2.4,0,1,0-.66,4.75c.82.14.95,0,.95,0-2.86,2.42-4.48.79-5.83,0a3.38,3.38,0,0,1-4.94-.09c3.41.35,3.94-3.11,2.31-4.42A8.12,8.12,0,0,0,115,30a2.11,2.11,0,0,0,.46-2.72c-1-2.16-4.28-2-4.77.33-.19.92-.2,1.08-.2,1.08a2.63,2.63,0,0,0-2.25,4.05,2.92,2.92,0,0,0,2.67.91c-1.4,2-4.6,1.32-6-.33-2.27,2.69-4.85,2.37-6.15.92a2.81,2.81,0,0,0,2.29-.77,2.53,2.53,0,0,0-1.24-4.2,4,4,0,0,0-.67-.16,4.12,4.12,0,0,0,.13-.83c.48-4-5.41-3.58-4.84.33a2.4,2.4,0,0,0,.18.7,2.49,2.49,0,0,0-1,.13c-3.27,1.52-1,5.72,1.51,4.64.24-.1.9-.42,1-.42-3.13,3.93-5.77,1.14-6.46.72-2.12,3.17-5.79,1-5.87.78a3.06,3.06,0,0,0,1.58-.41,2.53,2.53,0,0,0-.13-4.51,4.19,4.19,0,0,0-1.77-.14,5.16,5.16,0,0,0,0-1,2.41,2.41,0,1,0-4.57,1.32,2,2,0,0,0,.37.57,7.81,7.81,0,0,0-.92.65,2.41,2.41,0,0,0,2.66,4c.34-.19.67-.57.77-.54-1.24,2.28-3.11,3.07-5.78,1.19a2.93,2.93,0,0,1-5.1.22c2.51.23,4.14-4.64-.69-4.79-.37-1.33-.35-3.34-3.42-3Zm34.05,8.35a1,1,0,0,1,0,2,1,1,0,1,1,0-2Zm15.57.12A1.07,1.07,0,1,1,111.43,31,1.06,1.06,0,0,1,112.49,29.88ZM82,31.05a1,1,0,0,1,0,2.07,1,1,0,0,1,0-2.07Zm43.74,1.27-.89,1.6C123.83,33.05,124.5,31.91,125.7,32.32Zm-55.93,2.2-.89-1.65C70.46,33,70,34.12,69.77,34.52Zm27-.9c6,6.89,11.34,4.85,14.85.27,1.51,3.91,4.86,6.61,10.63,4A19,19,0,0,1,121,39.6c-5.1,1.38-7.63-1-9.59-3.35-5.19,4.35-10.08,3.3-14.11-.54-3.44,4.37-9,5.32-14.17,1.74-2.36,3.52-5.74,4.94-10,3.18,0,0-.9-1.43-1-1.53.61.53,8.45,3.81,10.36-4.09,2.72,4.68,11.66,4.93,14.23-1.39Zm.6,2.83c6.73,6.36,13.79.86,14,.48.1.35,3.94,5,9.48,3.24l-.9,1.56c-10.42-1.78-20-2.92-41.95.34a10.46,10.46,0,0,0,5.27-3.87C84.25,38.84,91.86,43.14,97.39,36.45ZM73.8,41.72s2.93.35,3.16.41-2.47,1-2.48.9Zm5.94,30.35c-.18,0-.4.2-.77.57-.79.79-1,.89-1.74,1a6.75,6.75,0,0,0-2.56,1.49,2.1,2.1,0,0,1-1,.42l-1.22.21a3.05,3.05,0,0,0-.66.19,2.35,2.35,0,0,1-1.74.11,2.12,2.12,0,0,0-1.56.07,2.75,2.75,0,0,1-2.38,0,2.61,2.61,0,0,0-1.95-.29c-.81.26-2.91-1-2.91-1.76A3.63,3.63,0,0,0,59.72,73c-1.07-.16-10.42,3.57-10.37,3.78C60.83,91.13,70.5,113,63.22,139.69l-1.29-.62a96.93,96.93,0,0,0,1.84-14.72c-21.55-9.4-23.4-31.27-15-45.08l-1.42-1.52C42.24,80.48,37.09,82,24.56,92.66l0,17.19c0,15.55,0,30.69,0,30.69,4.53.51,9.53.93,14.45,1.36,0,0-.06,15.37-.17,21.38-.1,5.09.09,4.77.09,4.77l16.31,8.69c-1.15-4.58,1.68-6.4,4.05-6.21-1.05-4.41,1.55-6.43,4.52-5.86,2,.38,2.7,1.5,3.85,5.19.18.6.44,1.4.44,1.4l1.14,0c1.43-3.11,2.39-7.06,5.76-7.57,4.4-.67,6,2.39,6,5.44,4.27-3.8,9.39-.85,9.05,4.83,2.15-1.4,5.79-2.66,8.08,2.72.87-.18,1.31-1.15,2.52-1.46a8.48,8.48,0,0,0,1.48-.65v-.19a15.28,15.28,0,0,1,2.23-.54c1.1.41.78.4,1.37-.34a5.16,5.16,0,0,1,2.55-.49,3.23,3.23,0,0,0,1.75-.08c.79-.35,1.53-.44,2,.09.33.37.82.19,1.34.17a3.12,3.12,0,0,1,2.86,1.33,8.82,8.82,0,0,0,2,1.33l1.13-.27.13-.42,9.24-3.56C110,150.71,110.52,123.05,115,109.05l1.7.83a56,56,0,0,0-1.79,14.6c17,7.64,25.4,27.4,15.12,44.65l1.08,1.42c4.28-1.82,15-7.92,18.76-11.24l.8.06s2.25-1.47,3.25-2.26l.13-45.77-.79.21-.14-2.67-14-1.13c.18-.13.32-.18.36-.45L139.37,82c-.52-.8-12.24-7.74-16.59-9.36-.18,0-.06.3,0,1,.22,2.49-1.44,4.7-3.37,4.7-.69,0-.81.3-.77,1.73a3.82,3.82,0,0,1-2.79,4.16c-2.51.92-4.21-.41-5.6-5.62-.37-1.37-1.08-1-1.77.84a44.45,44.45,0,0,1-2.1,4.37,4.45,4.45,0,0,1-2.4,1.8,5.05,5.05,0,0,1-3.76-.19c-1.92-1-2.66-2.17-3.22-5.11-.07-.38-.32-.35-.94.12-3.4,2.59-8.18-.08-8.15-4.55,0-1.32,0-1.37-.81-.74-2.3,1.9-5.43.94-6.68-2.06-.29-.7-.45-1-.68-1ZM60.22,73.65c.24,0,1,1,1,1a10.21,10.21,0,0,0,2.58,1.73c.09-.14,11.24,15,13.14,35.85l5.19,0c-1-20.27-6.5-30-9-36.26l1.86-.6c4.17,8.08,9.26,24.48,9.09,38.84H75.46A79.21,79.21,0,0,0,61,75.2c-.54-.82-1-1.39-.8-1.53l0,0Zm-3.28,2.14.87,2.76a1.88,1.88,0,0,1,.37-.89c1.69-1.54,3.31.49,2.55,3.24-.17.85-.51,2.52-.51,2.52a24.86,24.86,0,0,0-2.56-1.16c-2.36-1-3.15-3-1.34-3.24.3,0,.92-.07.92-.07-.75-.59-2.41-2-2.41-2Zm7.93.31a5.35,5.35,0,0,0,3.61.45,4.83,4.83,0,0,1,2.39-.07,7.38,7.38,0,0,0,1.52-.18,97.6,97.6,0,0,1,9.15,35.29l-4,0A85.08,85.08,0,0,0,65.24,77.18c-.27-.41-.63-1.06-.37-1.08Zm16.66.19c1.55,0,3.16,1.57,4,4.12.49,1.42.68,1.33,1.34,1.1,1.68-.58,3.48,1.29,1.22,1.6s-.95,4.75-1.14,5.14c-.9.16-2.59-3.57-2.54-4.68.1-2.71-2.42-5-4-3.84-.74.54-.66.92-.89.72a2.48,2.48,0,0,1,0-3.18,2.59,2.59,0,0,1,2-1Zm45.89.93s.09,3.58,0,4.36c-.27,2.39-3.34,2.64-3.46.73a8,8,0,0,0-1,2.56l-2.18-1.52a12,12,0,0,0,2.23-1.87c-1.62.12-2.53-1.29-1.44-2.5,1.2-1.38,4.53-1.52,5.94-1.76ZM47.18,78.35l1,1.1c-8.6,15.41-5.57,35.1,15.18,45.45a64.92,64.92,0,0,1-1.85,13.94l-7.66-3.76c0-17.41-9.7-34-25.28-44.93a91.76,91.76,0,0,1,18.64-11.8Zm62.7.13c.36,2,2.27,5.72,2.41,5.51,0-.12-7.93,10.24-11.37,27.57H98a97.61,97.61,0,0,1,11.9-33.09Zm24.38.49,1.56,1c-8.2,6.94-13.59,15.73-17.56,25.21l-2.07-1c6.15-13.75,12.22-19.86,18.07-25.17Zm2.18,1.53c.43,0,.94.58,1.73,1s.58.65-.87,1.78c-1.72,1.33-1.88,1.27-1.87-.63,0-1.26.33-2.1.93-2.16Zm-1.88,2a.24.24,0,0,1,.21.1,8.47,8.47,0,0,1-.09,2.79c-.16.75-2.37,2.63-3.15,3.37-.32.21-.46.14-.52-.24,0-.59.08-1.37.09-2.17,0-.25,0-.5.18-.69,1.07-1.29,2.65-3.12,3.28-3.16Zm4.09.61h0a8.19,8.19,0,0,1,0,2.88,6.36,6.36,0,0,1-2.8-.35c-.1-.3,2.33-2.55,2.74-2.54Zm-76.78.84.6,2.53.21-.41c1.19-1.83,2.63-.75,2.61,1.79a40.39,40.39,0,0,1-.73,4s-4.46-2.16-4.81-3.11a1.27,1.27,0,0,1,1-1.83,3.57,3.57,0,0,1,1,0l-1.92-2Zm51,.34,2,.75c-4.22,6.93-8.57,13.78-11.74,29.39H94.69a92.25,92.25,0,0,1,7.87-28l2.61-.82s-7,16.19-7.82,26.6l4.09.09C103.63,102.07,107.71,91.55,112.88,84.25Zm-16,.25c1.13,0,2,.76,1.91,2.2s-.13,1.5-1,1a2.67,2.67,0,0,0-3.25.08c-.59.43-1.18.78-1.18.78a7.85,7.85,0,0,1,1.33-3A3.59,3.59,0,0,1,96.84,84.5Zm-4.35,3.37A8,8,0,0,1,92,89.66s.66-.26,1-.41A2.21,2.21,0,0,1,96,91.39a2.41,2.41,0,0,1-2.35,2.27,2.27,2.27,0,0,1-1.41-.5c.34,1.88.41,2.75-1,3.7a2.35,2.35,0,0,1-3.4-2.22L88,93.35l-1.16.15a2.28,2.28,0,0,1-.67-4.5,3,3,0,0,1,2.16.61,3.65,3.65,0,0,1,.16-3.45c1.63-1.92,4.22-.18,4,1.71Zm28.11-2.5c.17,1.5.76,3.14.59,4.53-.25,1.79-1.75,2.85-2.93,1.69-.15-.14-.41-.44-.41-.44a8.13,8.13,0,0,0-.87,2.61l-2.08-1.3a11,11,0,0,0,1.84-1.61,1.32,1.32,0,0,0,.17-.47,1.52,1.52,0,0,1-1.83-1.9c.63-1.73,3.75-2.37,5.52-3.11Zm14.58,1.09a25.94,25.94,0,0,1,2.94.3c.74.13.33.55-1.31,2.16s-1.47,1.35-2.63,1.33c-2.72,0-3.19,0-1.61-1.71a10.2,10.2,0,0,1,2.15-2,1.51,1.51,0,0,1,.46-.06Zm-4.9.31a.12.12,0,0,1,.09,0c.18.17.12.94.1,2.09s0,1.22-.52,1.86c-.64.81-1.17,1.64-1.85,2.43-.58.63-.56.56-.91-1s-.15-2,1.75-4.1C129.58,87.28,130,86.76,130.28,86.77Zm8.49.85,0,3a50.92,50.92,0,0,0-12,18.65l-2-.79a56.93,56.93,0,0,1,13.94-20.87ZM90.15,89.44a1.7,1.7,0,1,0,1.68,1.69A1.69,1.69,0,0,0,90.15,89.44Zm0,.53A1.18,1.18,0,1,1,89,91.15,1.17,1.17,0,0,1,90.14,90Zm-62.31.72c17.49,11.34,25.34,28.93,25.3,44l-1-.44c-1-21.35-12.51-34.47-24.92-43Zm103.58.16c.39,0,.93.07,1.71.16,1.45.07,1.63.17.63,1.32-.27.32-.8,1-1.17,1.48a4,4,0,0,1-1,1.09,21.48,21.48,0,0,1-3.57-.11c-.24,0,.08-.28,1.32-2.07.94-1.37,1-1.82,1.94-1.86h.17Zm7.28.58s.35,9.73.1,15.94c-4-.15-6.34,1.38-7.31,4.28l-4.19-2.1A55.11,55.11,0,0,1,138.69,91.43Zm-12.35.23c.23,0,.36.47.42,1.41.26,1.67.24,1.87-.45,2.94-.35.53-.82,1.29-1,1.68-.4.68-.68.88-.78.55-.55-1.8-.72-2.92-.53-3.28.32-.6,1.81-2.74,2-3s.27-.28.37-.28Zm-99.8.18c14.07,8.8,24.35,23.83,24.78,42,0,0-3-1.42-4.85-2.46l-.09-1.76,1,0,.32,2,2.14-.07-.57-5-3.36.32L45.2,124l1-.22.57,1.81L49,125l-1.16-4.42-3.38.93-1.08-3,1.12-.4.91,1.78,2.06-.72-1.94-4.43-3.11,1.48-1.58-2.9,1.22-.65,1,1.72,1.93-1-2.38-4.07L39.6,111l-1.48-2.24.91-.65,1,1.18,1.69-1.21-2.59-3.52-2.82,2.24-2.08-2.44,1-.83,1.43,1.3,1.61-1.41-3.08-3.39-2.69,2.47-2-1.75,1-1.1,1.25,1L34,99l-3.35-2.78-2.51,2.51-2.4-1.61V96A22.51,22.51,0,0,1,28.12,97l1.24-1.9-3.59-2.45Zm39.17.75.53,3.1c.5-.84.91-1.42,2-1.1,1.31.54,1.33,2.54.22,5.6-.21.56-.46,1-.46,1a5.9,5.9,0,0,1-1-.51,9,9,0,0,1-2.84-2.28c-.73-1.15-.74-2.76.58-2.63a5.9,5.9,0,0,1,.79.13l-2-2.57Zm-39.94.92,2.44,1.59L27.7,96l-1.93-.88Zm61.05.74c.7,1-1.78,3.93,1.47,5.1a1.18,1.18,0,0,1-.6,1.09c-1.59,1.17-3.87-1-3.16-3.16C85,95.88,86.29,94.25,86.82,94.25Zm6.74.09s1,.72,1.17.91c1.81,1.75,1.83,4.27.19,5.14a2,2,0,0,1-2.75-.73.57.57,0,0,1,.55-.8c.78,0,1.37-1.51,1.14-3.1C93.77,95.13,93.56,94.34,93.56,94.34Zm21.33.58a21.43,21.43,0,0,0,.53,3.1c1,2.67-.27,4.3-2,3.4a3.43,3.43,0,0,1-.7-.7l-.18,3.06L110,103c.55-.89,1.33-1.52,1.92-2.51l-.71,0c-1.51,0-2.06-1.64-.48-3a29.31,29.31,0,0,1,4.18-2.56Zm13.19.71c.31,0,.69,0,1.21,0,1.6,0,2-.22,1.31.79-.28.39-.95,1.48-1.15,1.85-.4.76-.48,1-1.15,1.15a23.53,23.53,0,0,1-3.19.11c-.24,0,.25-.85.53-1.37.68-1.28,1.09-2.15,1.68-2.42a1.81,1.81,0,0,1,.76-.14Zm-5,1c.2,0,.34.34.53,1.07.43,1.69.54,1.73-.16,3.11l-1.19,2.38c-.63,1.26-.66,1.25-1.06.12-.76-2.16-.82-1.94.43-4.36C122.46,97.42,122.85,96.64,123.13,96.62Zm-92.28.59,2.27,1.84-.65.63-1.25-.93-1.85,2,3,2.8L35,101l2.2,2.33-.67.57-1.3-1.26-1.93,1.67,2.89,3.45,2.91-2.24,1.83,2.42-.75.47L39,107.23l-1.9,1.33,2.36,3.36,3-1.72L44.1,113l-.94.46-.95-1.54-2.14,1.24,2,3.93,3.21-1.36,1.29,3-1,.4-.83-1.8-2.16.86,1.45,4.13,3.26-.94.78,3.06-1,.28-.49-1.7-2.07.51.86,4.14,3.31-.22.4,3.35-1,0-.26-2-2.11,0c0,.7.09,2.14.09,2.14l-1.27-.6A46,46,0,0,0,25.82,99.7l-.05-1.52,2.45,1.57s2.25-2,2.63-2.54Zm96.68,3c.7,0,.39.55-.47,2.19-1,1.84-1.12,1.88-2.91,2.32-2.17.53-2.11.65-.93-1.88a6.87,6.87,0,0,1,1.2-2.16c.54-.42,1.6-.26,2.74-.43a1.87,1.87,0,0,1,.37,0Zm-101.64.54c10.45,6.82,17.06,20.92,17.88,29.46a6.38,6.38,0,0,0-.85-.45c-.8-.37-1-.61-1.22-1.78a43.56,43.56,0,0,0-15.77-25.58Zm94.26,1.75c.44-.09,1.25,3.11,1,3.79-.18.48-1.73-.66-2.3-.9-.28-.13,1-2.83,1.29-2.89Zm-50.41.15,0,3.32a6,6,0,0,1,.6-.62c.78-.58,2,.22,2,1.2.07,1.36-.14,1.92-1.22,3.81-.33.58-.83,1.33-.83,1.33a23.78,23.78,0,0,1-2.67-2.32c-1.51-1.52-1.22-3.54.1-3.55a3.6,3.6,0,0,1,1.09.24,20.77,20.77,0,0,0-1.35-2.88Zm40.86,2.49a12.74,12.74,0,0,1,1.47,3.29c.74,2.29-.41,4-2,3.14a2.65,2.65,0,0,1-.58-.49,16.7,16.7,0,0,0,.12,3.12l-2.53-.45A18.85,18.85,0,0,0,108.6,111s-.16.12-.85.12c-2.54,0-2-3,.92-4.74.44-.25,1.93-1.22,1.93-1.22Zm14.53,0c.55,0,.29.51-.31,1.76s-.51,1.27-1.93.53c-2-1-1.86-1.13.65-1.81A6.75,6.75,0,0,1,125.13,105.15Zm-36,.4c2,0,3.45,2,3.16,4.81-.5,4.84-.21,4.54.31,5,.95.88-.34,1.41-1.47.57-.79-.58-1-1.16-1-3.83,0-3.06-.12-3.84-1.2-3.58-.68.17-.89.75-.82,2.82.11,2.9-.08,3.63-1.17,4.56s-2.45.1-1.37-.5c.49-.56.58-1.27.39-3-.21-1.49-1.07-6.86,3.18-6.84ZM139,108c3.83.14,13.49.94,13.49.94l.09,2.89c-.43.26-7.65-.85-13-.75-1.24,0-2.12.58-3,.11.86.37.78,4.72-3,3.66-3.22-1.16-1.65-5.56,2.47-6.67A17.63,17.63,0,0,1,139,108Zm-22,1.93,8.26,4.11c1.16,15.68,6.52,32.24,24.75,44.8a100.9,100.9,0,0,1-18.83,11l-.7-.75c10.06-17.28,2.46-36.31-15.15-44.92A69.3,69.3,0,0,1,117,109.93Zm29.07,2.62c1.58-.06,2,.12,2.13.85s.63.85,1.23.63c1.45-.54,2.34,2.07,1.13,3.22-.74.72-.61,1,0,1,1.52,0,1.48,2-.06,3.16-.64.47-.64.69,0,1,1.13.56.9,1.67-.52,2.58-.78.49-.8.62-.16.79,1.61.45,0,2.77-1.8,2.35a2.62,2.62,0,0,0-2.1.45c-1.89.79-2.21,1-4.24.7-1.79-.34-2.59-.93-3.06-2.52-1.05-3.23-2.18-6.81-2.19-10.33-.16-2.17,3.43-4.12,5.13-4.21,1.39-.21,3,.3,4.48.31Zm-113,.06a3.48,3.48,0,1,1-3.44,3.47A3.45,3.45,0,0,1,33.05,112.61Zm38.21,1-.31,3,.63-.5a1.23,1.23,0,0,1,2,1.26A13.71,13.71,0,0,1,71,122.2a48.45,48.45,0,0,1-3.14-3.74c-.67-1.36.25-2.78,1.47-2.18.18.09.69.47.69.47l-.9-2.89Zm-38,.24c-1.21,0-2.37.8-2.21,1.8.1.43.75-.19,1.39-.59a1.69,1.69,0,0,1,1.63-.12c.5.18.71.64,1,1s.5.55.65.4a.64.64,0,0,0,0-.54,2.37,2.37,0,0,0-2.51-1.94Zm92.59.47,1.23.64c1.66,22.15,12.74,35.18,24.39,42.94l-.93.56a54.8,54.8,0,0,1-24.69-44.14Zm1.86.91s3.09,1.6,4.71,2.34l.06,2-1.08,0-.37-1.88-2.24.16.7,4.63,3.61-.45.51,2.81-1.23.26-.62-1.73-2.08.51,1.35,4.51,3.26-1.07,1,3-1.1.4-.7-1.72-2.14.75,1.66,4.4,3.39-1.1,1.37,2.75-1,.46-1-1.71-2,1.06,2.39,4.1,3.07-1.62,1.43,2.19-1.12.76-1-1.34-1.65,1.1,2.65,3.64,2.64-2,2,2.3-.87.79-1.35-1.38-1.59,1.43,3.14,3.49,2.74-2.39,1.94,1.82-.58.61-1.3-.82-1.73,1.86,3.3,2.9,2.62-2.9,2.23,1.65V153l-2-1-1.33,2,3.32,2.53,0,1c-18.95-11.42-23.94-29.15-24.91-42.33Zm-38.79.22c.82,0,1.68.76,3.11,2.43,4,4.68,2.93,11.91-2.29,15.68-.76.55-1.07.5-2-.31-5.35-4.65-5.66-10.86-.89-16.33.82-.94,1.43-1.45,2.07-1.47Zm19.14.65c1,1.52,2.22,3.09,2.37,4.95-.07,1.83-1.3,2.17-2.56,1.1a9,9,0,0,0,.38,2.83l-2.29-.24a7.85,7.85,0,0,0,.94-2.58,1.58,1.58,0,0,1-2.59-1.52c.45-2,2.08-3.35,3.75-4.54ZM89,117.31a1.49,1.49,0,0,0-.69.39,10.07,10.07,0,0,0-3.06,4A8.52,8.52,0,0,0,87.55,131c1.38,1.37,1.86,1.27,4-1.56a8.28,8.28,0,0,0,1-8.09,8.88,8.88,0,0,0-2.65-3.48c-.44-.36-.67-.53-.91-.51Zm44,.57,1.78.88c2.26,15.11,9.61,24.33,17.84,30.68v1.41l-2.21-1.73-2.65,2.79-2.14-1.77.8-.79,1.22.78,1.57-1.76-3.08-2.78-2.68,2.35-2.23-2.32.68-.57,1.54,1.36,1.73-1.55-3-3.38-2.67,2-1.87-2.5.82-.48,1,1.35,2.06-1.29-2.18-3.39-3.1,1.61-1.59-2.9.9-.43,1,1.62,1.94-.94-1.95-4-3.17,1.06-1.17-3.14.91-.34.8,1.86,2.15-.7-1.46-4.3-3.28.94-.82-3.16,1-.22.53,1.7,2.26-.45-.83-4.1-3.36.43a30.49,30.49,0,0,1-.6-3.28l1-.08.32,1.8,2.26-.07Zm-43.93.33c1.24.17,2.74,2.57,3.08,3.44a7.66,7.66,0,0,1,.11,5.25A11.73,11.73,0,0,1,89.46,131c-.74.41-1.37.11-2.43-1.35-2.09-2.88-2.5-6.34-.84-8.71,1.26-1.81,2.2-2.77,2.93-2.77Zm46.31.75.89.42c1.1,8.76,6.23,20.77,16.34,28v1.1c-7.86-5.7-15.07-15.53-17.23-29.48ZM89,119.55c-3.52,2.68-3,6.88-.29,9.71C91.55,127.34,92.56,122.15,89,119.55Zm-53.7.18c2,0,3.24.65,3.85,2a13.08,13.08,0,0,1,1.26,3.71c.11.64.28,1.62.37,2.17,1,5.87.27,8.08-3.25,9a8,8,0,0,1-3.55.12c-.27-.07-1.25-.07-2-.1a3.68,3.68,0,0,1-2.78-.85,1.79,1.79,0,0,0-.88-.46,1.7,1.7,0,0,1-1-3.12c.76-.68.84-.77.77-.89a1.37,1.37,0,0,0-.72-.12c-1.78,0-1.76-1.86,0-3.18.84-.62,1.23-1.21.67-1.07-1.62.39-2.19-2-.5-2.74.9-.51,1.54-.94.68-1s-1.33-.48-1.1-1.12a2.55,2.55,0,0,1,2.6-1.22c.67.21,1.32.4,1.73.1a4.77,4.77,0,0,1,2.34-1.19,10.78,10.78,0,0,1,1.46-.08Zm59,.45,8.15.16-.24,8.08-7.68-.15a10.51,10.51,0,0,0-.23-8.09ZM76,120.37l7.81.09a12.54,12.54,0,0,0-.33,7.94l-7.64-.12Zm13,0c2.1,1.23,2.67,5.73-.24,8.05C86,125.54,86.57,122,89,120.38Zm-19.27,3.51,2.09.2-.74,3a2.61,2.61,0,0,1,.44-.4c2.69-1.27,2.89,1.62.15,4.23-.61.58-1.58,1.37-1.58,1.37s-.76-1.17-1.36-2.22a4.9,4.9,0,0,1-1-2.79c.17-.88,1.21-1.45,1.87-.92a7.42,7.42,0,0,1,.7.66Zm37.39,2.22s.88.91,1.41,1.5c1.85,2,2.17,4,1.23,4.54a1.62,1.62,0,0,1-2-.41,12.14,12.14,0,0,0,1.11,3.14l-2.76.45a17.91,17.91,0,0,0,.62-3.5,6.51,6.51,0,0,1-.82.55c-1.8.67-2.7-1.4-1.21-3.47a21.32,21.32,0,0,1,2.37-2.8Zm37.71,3.83a3.39,3.39,0,1,1-3.35,3.39A3.37,3.37,0,0,1,144.86,129.94Zm1.65,1.55c-.14,0-.26.37-.28,1.11a1.76,1.76,0,0,1-2.78,1.43c-.56-.28-1-.7-1-.38a3.89,3.89,0,0,0,.76,1.39c1.16,1.05,4,.8,3.92-1.65,0-1.16-.35-1.95-.59-1.9Zm-60.89,1.28a1.48,1.48,0,0,1,1.12.43c.92.64,1.09,1.45,1.15,4.5,0,2.69,0,2.75.43,3.08,1.08.8,1.73-.42,1.42-3.15s.64-4.53,2.21-4.52c.77,0,.92.46.33,1s-.77,1.37-.57,2.89c.49,3.89.06,5.8-1.56,6.59a3,3,0,0,1-4.23-2.27,17.86,17.86,0,0,1-.08-4.75c0-1.69,0-1.88-.59-2.85-.41-.65-.1-1,.37-1ZM43.18,134a2.78,2.78,0,0,1,2.48,1.75c1.4,2.92-1.63,5.32-4.41,5.5A109.39,109.39,0,0,1,25.87,140l.07-2.75c4.44.26,9.45.62,14.84.88-.61-2.57.85-4.1,2.4-4.1Zm25.35.56,2.69.6L69.51,138a1.66,1.66,0,0,1,1.36-.19c1.1.4,1.11,1.8.31,3.11a12.54,12.54,0,0,1-3.63,2.78c-.69-1.48-2.2-4.08-1.6-5.49a1.45,1.45,0,0,1,2-.71c.27.16.79.43.79.43Zm6.35.08,8.18.1c-1.19,8.35-3.52,19.51-8.1,28.61l-1.93.5a95.16,95.16,0,0,0,8-27H76.93c-2.35,10.17-5.83,19.6-11.18,27.79l-2.38-.79c5.72-9.16,10.25-19.38,11.51-29.22Zm18.65.15h9.12c1.67,17,7.36,28.63,15.83,40.11a1.78,1.78,0,0,1-.85,0,5.28,5.28,0,0,0-3-2.13c-7.11-10.35-11.89-24.83-13-35.9H96.17c.62,13.91,4.43,25.31,9.5,36.36l-2.75.51c-4.07-9.89-8.54-18.49-9.39-38.94Zm14.19,2.1c.75.59,1.56,1.16,2.32,1.72,2,1.46,2,4.21,0,4.2l-.7,0s.81,1.81,1.33,2.72c-.84.23-2.57.55-2.57.55a22.12,22.12,0,0,0,.2-3.23,2.73,2.73,0,0,1-.61.5c-1.33.56-2.45-.61-2.28-2,.22-1.86,2.28-4.43,2.28-4.43Zm-60.91.33,4.49,2.25c-3.06,7-6.56,13.63-11.62,18.63l.13-16.25C42.57,141.79,45.41,141.77,46.81,137.25Zm30.69.26h2.76C79,150.49,70.55,168,69,170.16l-.52.4s-1.09-4-2.36-5.41C70.86,158.63,75.87,146.09,77.5,137.51Zm19.41,0h4.17c1.3,10.34,4.46,21.51,12.48,35.08a2.61,2.61,0,0,1-1.43-.3c-1.36-.85-2.31.28-3.13.24a6.84,6.84,0,0,0-2.8.17A96.11,96.11,0,0,1,96.91,137.51Zm-45,2.32,1.49.71C50.16,148,47.29,154,39.7,161.27l0-2.17C45,153.88,48.6,147,51.87,139.83Zm2.17,1A19.05,19.05,0,0,1,56.21,142c.22.09.16.29.16.5-.28.71-1.52,1-2,1.16s-1.13.28-1.23.3c-.65.16-.44-.5.26-1.94.32-.65.44-1.08.63-1.1Zm3,1.59a7.72,7.72,0,0,1,2.63,1.34c.14.43-.25,1.1-.82,2.34-.87,1.91-1,2-1.31.38,0-.27-.3-1.16-.46-1.75-.36-1.38-.4-2.17,0-2.31ZM60.27,144s1,.52,1.39.74c-4.67,14.14-17.12,25.83-17,25.56l-1.94-1.15C51,161.59,57,152.66,60.27,144Zm-4.94.21c.45,0,.06.57-.55,1.93s-.77,1.8-1.31,2a18.43,18.43,0,0,1-2.88.47c-.42.07-.24-.25.41-1.59.76-1.57.81-1.9,2-2.22a16.63,16.63,0,0,1,2.33-.6ZM57,147c.48,1.76.47,2.1.15,2.71-.6,1.14-1.39,2.47-1.61,2.83-.55.9-.7.72-1-1.48a7.5,7.5,0,0,1-.23-2.56c.27-.67,1.08-2.25,1.54-3.17C56.45,143.37,56.81,146.84,57,147Zm8.6-1.52,2.45.81-1.92,2.34a5.36,5.36,0,0,1,.9-.1c1.93.12,1.61,2.06.11,3.23a26.28,26.28,0,0,1-3.66,2c-.33-1.74-1-2.84-.84-4.62.11-1,.19-1.83,1.36-1.85.61,0,.85.6,1.25,1.1Zm44.42,2.1a21.56,21.56,0,0,1,2.85,1.83c1.78,1.39,2.09,3,.3,3.65a3.37,3.37,0,0,1-.79,0,15.86,15.86,0,0,0,1.66,2.15,8.57,8.57,0,0,1-2.33,1,30,30,0,0,0-.44-3,2,2,0,0,1-.53.65c-1.72,1.08-3.07-1-2.14-3.53a14.2,14.2,0,0,1,1.42-2.84ZM91.1,148c4.29-.11,1.77,7-.37,6.54,0-.07,1.77-4.21-.66-4.86-1.12-.31-.16-1.7,1-1.68Zm-7,.5c1.33,0,2.3.94,1,1.54-2,.94-.81,3.2-.77,4.47,0,.78-1.78-.68-2.17-2.26-.5-2.06-.27-3.57,1.91-3.75Zm-31.74.75a1.28,1.28,0,0,1,.59.08c.12.33-.48,1.38-1.35,2.72a2.82,2.82,0,0,1-1,1.09,6,6,0,0,1-2.41.34c-1.18,0-1,0,.33-2.07a9,9,0,0,1,1.3-1.9,14.58,14.58,0,0,1,2.48-.26Zm1.54,1.48c0,2.57.87,3.41.23,4.22A35.45,35.45,0,0,1,52,158c-.61.74-.54.6-.7-1.33a8.86,8.86,0,0,1-.06-2.76c.52-1.26,1.13-1.86,1.78-3.2.5-1.08.87-.9.87,0ZM87.74,152c1.25,0,2,1.35,2,2.58l0,1.18c1.61-.63,3.61,0,3.69,1.58.15,2.7-1.82,2.39-3.49,2.28.17.06.42,2.44-.58,3.36-1.55,1.76-4.46,0-3.73-2.63a6.57,6.57,0,0,0,.19-.87,6.33,6.33,0,0,1-1.41.36c-3.16-.14-2.92-4.65.25-4.12a6.87,6.87,0,0,1,1.09.27s-.07-.29-.18-.69c-.46-1.74.51-3.33,2.26-3.3Zm63.22.8,1.7,1v1.92l-2.42-1.81ZM48.82,154.06c.67,0,1.2,0,1.1.21a14.85,14.85,0,0,1-2.34,3.35c-.74.8-.85.69-2.66.6-.71,0-1.17,0-1.15-.24.83-1.1,2-2.52,2.78-3.71A12,12,0,0,1,48.82,154.06Zm1.66.9c.13,0,.16.27.16.87,0,.45.06,1.85.13,2.45.12,1.1.12,1.1-.35,1.76s-1.15,1.53-1.88,2.24c-1.11,1.23-1,1.3-1-1.34,0-2.06-.14-2.06.28-2.54.22-.27.92-1.14,1.39-1.82.7-1,1.07-1.62,1.25-1.62Zm10.51.36,2.26,1.23L61,158.87a6.22,6.22,0,0,1,.76,0c1.46.28,1.35,1.84-.12,3a34,34,0,0,1-4,1.71,29.19,29.19,0,0,1-.33-3.93,2.91,2.91,0,0,1,.57-1.92,1.21,1.21,0,0,1,1.71-.08,3.18,3.18,0,0,1,.64.81Zm26.74.8a1.63,1.63,0,1,0,1.61,1.62A1.61,1.61,0,0,0,87.73,156.12Zm25.34.38a17.24,17.24,0,0,1,4.31,2.36c1.25,1.06.66,2.79-.58,2.82-.09,0-.62-.07-.62-.07.42.64,1.83,2.23,1.83,2.23l-2.29.94s-.37-1.79-.66-2.79c-.79,1.87-2.77.65-2.9-.51-.32-1.7.4-3.37.91-5Zm-25.34.14a1.13,1.13,0,1,1-1.11,1.13A1.13,1.13,0,0,1,87.73,156.64ZM44,159c.8,0,1.8,0,2.24.06.34.26-.37,1.08-1.74,2.54-1.11,1.17-1.27,1-2.6,1-2.24,0-2.3,0-1.27-1.15a12.6,12.6,0,0,1,2.31-2.4A7.13,7.13,0,0,1,44,159Zm2.73,1.14c.24-.05.17.56.13,1.95l-.06,2.34L45,166.08c-2,1.82-1.78,1.93-1.76.23a8.12,8.12,0,0,1,.28-2.91c.88-1.07,1.8-2,2.8-3.05a1.06,1.06,0,0,1,.35-.26Zm44.29.58c.48,0,1.72,2.1,2,3.9.71,4.09,3.13,6,4.84,4.39.7-1,.78.09.74.59-.36,5.19-6.17,3-6.84-2.12-2,1.34-3.94-1.37-2.73-1.33,2.88-.92,2.1-3.59,2-5.43Zm-6.74,0c.28,1.8-2.92,4.87-4.72,2.72-.92-1.1-.08-3.36,1.08-2,1.29,1,2.54-.15,3.64-.75Zm-44,2.46c.66,0,1.61.12,2,.06.59.06.17.34-1.1,1.52-1.1,1-1.41,1.45-1.54,1-.06-.68,0-1.49,0-2.45a1.08,1.08,0,0,1,.64-.14Zm14.93,1.2,1.95,1.44-1.94,1.8c1.74-.09,1.9,1.56,1.24,2.48-.43.64-2.08,1.32-3.73,1.59l-1.8.28s0-.77-.06-2.06c-.06-2.62.12-3.65,1.12-4.16a1.9,1.9,0,0,1,2.22.87,5.53,5.53,0,0,0,.35.61Zm-12.57.14h0c.11.15-.29,4.42-.29,4.42l-2.83-1.61s2.86-2.76,3.1-2.81Zm74.88.5c2,1,3.53.77,4.89,2a1.6,1.6,0,0,1,0,2.73,3.44,3.44,0,0,1-1,.06,14.4,14.4,0,0,0,2.28,2l-2.49,1a26,26,0,0,0-.65-2.62,1.78,1.78,0,0,1-2.85.7c-.62-.48-.87-2.08-.58-3.47.08-.37.47-2.42.47-2.42Zm-13.25,39.74c-24.46,5.86-44.33,2.23-46.31,1.54l-1.55,2.35c-.19.4-.31,1.59-1.37,1.92L53.42,213l.31.33-1.41,1.24.34.41-1,1.5-.4,0L48.87,220l.36.4L43.8,229l73.5,0c-4.27-8.15-8.84-16.13-13.07-24.3Zm-.44,1.05.44,1.23c-1.22-.15-2.64-.22-4.08-.29A36.33,36.33,0,0,0,103.79,205.8Zm-4.27,1.07a12.45,12.45,0,0,0-4.81,3.76,12.79,12.79,0,0,0-5.07-2.26Zm-41.3.6,1,.12s-.35.27-.6.22A1.28,1.28,0,0,1,58.22,207.47Zm46.82.61.66,1.32c-1.59-.85-8.4-2.8-10.33,4-2-2.78-10.42-6.81-14.67,1.76-1.21-2.32-8.25-9-14.67-.49-2.53-5.29-4.64-5.73-9.29-5,3.3-3.2,7.95.13,9.91,2.86,5.54-4.64,10.17-3.25,14.22.53,5.22-5.74,10.43-4.36,14.09-1.48,2.57-3.82,5.09-5,10.08-3.53Zm-42.77,0c3.3.45,6.59.66,9.88.82a15.55,15.55,0,0,0-5.41,2.74,12.64,12.64,0,0,0-4.47-3.55Zm23.75.54a24.16,24.16,0,0,0-5.28,3.49A16.52,16.52,0,0,0,75.46,209,73.91,73.91,0,0,0,86,208.65Zm21.07,2.71s-.66.11-.87.17a2.5,2.5,0,0,0,.71,4.92,9.85,9.85,0,0,0,1-.11c0,2.8.79,3.48,3.62,3.33l4.8,8.67-71-.31,4.51-7.29c2.27.27,3.69-1,3.19-3a12.12,12.12,0,0,0,1.79.43c2.57,0,3.23-4,.77-4.65-.28-.08-1-.16-1-.18,1.13-2.84,4.22-1.17,5.11,0a3.1,3.1,0,0,1,5.14,1.24s-.37-.21-.49-.3c-2.33-1.72-4.51,1.85-2.22,3.5a3.19,3.19,0,0,0,.7.3,2.65,2.65,0,0,0,2.5,4.51c1.77-.71,1.8-2.05,1.8-3.53,0,0,.61,0,1.16,0,2.12,0,2.73-2.73,1.43-4a3.33,3.33,0,0,0-2.08-.72c2.46-2.43,4.12-.76,5.85.37.26,0,3-3.34,6.26-.07A2.5,2.5,0,0,0,76.46,217c0,1.07.79,2,2.43,2.09a4.87,4.87,0,0,0-.3,1.46,2.47,2.47,0,0,0,3,2.57,2.51,2.51,0,0,0,2-3.2,1.8,1.8,0,0,0-.55-.84,2.4,2.4,0,1,0,.79-4.73,2.47,2.47,0,0,0-2,.9c1.76-3.63,5-2.9,6.17-1.42,1.65-1.21,3.93-2.86,6.65.08A3.92,3.92,0,0,0,93,214a2.26,2.26,0,0,0-.46,4.19,3.59,3.59,0,0,0,1.71.35,2.58,2.58,0,0,0,3.79,2.87c1.3-.79,1.64-2.68.23-4.4,2.36-.1,2.6-3.08,1.23-4.12-1.07-.82-2.32-.43-3.24.65-.29-.85,2-3.82,5.34-1.68,1.74-1.48,3.47-1.94,5.45-.46Zm1,2.32.93,1.7A1.07,1.07,0,0,1,108.12,213.68Zm-11.9,1.73a1.06,1.06,0,0,1,0,2.11,1.06,1.06,0,0,1,0-2.11Zm-43.11.06c.14.56.2,1.13-.82,1.24Zm12,1a1,1,0,1,1-1,1A1,1,0,0,1,65.11,216.49Zm15.94.3a1,1,0,1,1-1,1A1,1,0,0,1,81.05,216.79Z" transform="translate(0.1 0.1)"/><path id="path153-6-3-1-9-0-4-7" d="M48.06,26.47C40.72,37,32.85,43,32.72,51.19c0,2.65,1.39,7.15,5.87,8,2.91.56,6.92-1.8,7-6.58,0-1,1-.93,1,.37a27.22,27.22,0,0,1-3.34,11.76h9.63A27.08,27.08,0,0,1,49.54,53c0-1.3,1-1.33,1-.37.08,4.78,4.08,7.14,7,6.58,4.49-.86,5.92-5.36,5.87-8C63.27,43,55.41,37,48.06,26.47Z" transform="translate(0.1 0.1)"/><path id="path153-6-3-1-8-6-4-8-4" d="M130.52,223c-7.35-10.49-15.21-16.53-15.34-24.72,0-2.65,1.39-7.15,5.87-8,2.91-.55,6.91,1.8,7,6.59,0,1,1,.93,1-.37a27.2,27.2,0,0,0-3.33-11.76h9.62A27.35,27.35,0,0,0,132,196.46c0,1.3,1,1.33,1,.37.09-4.79,4.09-7.14,7-6.59,4.48.87,5.91,5.37,5.87,8-.13,8.19-8,14.23-15.34,24.72Z" transform="translate(0.1 0.1)"/></g></g></svg>