<svg xmlns="http://www.w3.org/2000/svg" viewBox="0 0 179 250"><defs><style>.cls-1{fill:#fff;stroke:#000;stroke-width:1px;}</style></defs><title>Asset 1</title><g id="Layer_2" data-name="Layer 2"><g id="Layer_1-2" data-name="Layer 1"><g id="layer1"><g id="g5120"><rect id="rect6355-6-85-9-3-2" class="cls-1" x="0.5" y="0.5" width="178" height="249" rx="8.5"/><path id="path147-0-8-1-6-1-1-0-9-1-8" d="M89.13,106c-7.77.17-11.25,8.91-5.5,15.69.83,1,.92,1.56-.61.61-3.87-2.59-11.29-.89-11.67,7-.47,9.75,13.15,12.56,15.71,2.19.14-1.09,1-1.07.81.48a32.18,32.18,0,0,1-3.36,12h9.23a32.37,32.37,0,0,1-3.36-12c-.21-1.55.68-1.57.81-.48,2.56,10.37,16.19,7.56,15.72-2.19-.38-7.92-7.81-9.62-11.68-7-1.52,1-1.44.38-.6-.61,5.75-6.78,2.26-15.52-5.5-15.69h0Z"/><path id="path147-6-9-8-7-0-5-0-8-3" d="M164.31,210c3.14-.07,4.55-3.75,2.22-6.61-.34-.42-.37-.66.25-.26,1.56,1.09,4.56.38,4.72-2.95.19-4.11-5.32-5.29-6.36-.93,0,.46-.41.45-.32-.2a13.93,13.93,0,0,1,1.35-5.05h-3.73a13.75,13.75,0,0,1,1.36,5.05c.09.65-.27.66-.33.2-1-4.36-6.54-3.18-6.35.93.16,3.33,3.16,4,4.72,2.95.62-.4.58-.16.25.26-2.33,2.86-.92,6.54,2.22,6.61Z"/><path id="path41-6-3-5-1" d="M6,38V36H8.14l4.55-24h2.59l5,24H22v2H16V36h1.73L17,32H10.58l-.5,4H12v2Zm10.53-8L14,17.12,11.52,30Z"/><path id="path41-6-4-0-2-8" d="M156,212v2h2.14l4.55,24h2.59l5-24H172v-2h-6v2h1.73l-.69,4h-6.46l-.5-4H162v-2h-6Zm10.89,9-2.58,12.88L161.88,221Z"/><path id="path147-6-9-8-7-4-5-6-8-9" d="M14,41c-3.14.07-4.55,3.75-2.22,6.61.33.41.37.65-.25.25-1.56-1.09-4.56-.37-4.72,3-.19,4.11,5.32,5.29,6.35.92.06-.46.42-.45.33.21a14,14,0,0,1-1.36,5h3.73a14,14,0,0,1-1.35-5c-.09-.66.27-.67.32-.21,1,4.37,6.54,3.19,6.35-.92-.15-3.33-3.15-4-4.71-3-.62.4-.59.16-.25-.25,2.32-2.86.92-6.54-2.22-6.61Z"/></g></g></g></g></svg>