<svg xmlns="http://www.w3.org/2000/svg" viewBox="0 0 179 250"><defs><style>.cls-1{fill:#fff;stroke:#000;stroke-width:1px;}.cls-2{fill:#d40000;}</style></defs><title>Asset 2</title><g id="Layer_2" data-name="Layer 2"><g id="Layer_1-2" data-name="Layer 1"><g id="layer1"><g id="g6708"><rect id="rect6367-6" class="cls-1" x="0.5" y="0.5" width="178" height="249" rx="8.5"/><path id="path6399-9" class="cls-2" d="M14.69,56.91a45.2,45.2,0,0,0-5.79-8,44.76,44.76,0,0,0,5.79-8,44.32,44.32,0,0,0,5.8,8A44.75,44.75,0,0,0,14.69,56.91Z"/><path id="path6403-1" class="cls-2" d="M165.05,209.91a44.76,44.76,0,0,0-5.79-8,45.2,45.2,0,0,0,5.79-8,44.75,44.75,0,0,0,5.8,8A44.32,44.32,0,0,0,165.05,209.91Z"/><path id="path6413-1" class="cls-2" d="M89.87,144.57c-4.13-6.83-8.47-13.46-13.9-19.13,5.43-5.68,9.77-12.31,13.9-19.14,4.13,6.83,8.48,13.46,13.91,19.14C98.35,131.11,94,137.74,89.87,144.57Z"/><path id="path41-87-9-4-8" class="cls-2" d="M7,38V36H9.14l4.55-24h2.6l5,24H23v2H17V36h1.73L18,32H11.58l-.5,4H13v2H7Zm10.28-8L14.69,17.12,12.26,30Z"/><path id="path41-8-5-6-1" class="cls-2" d="M157,213v2h2.14l4.55,24h2.6l5-24H173v-2h-6v2h1.73l-.69,4h-6.46l-.5-4H163v-2h-6Zm10.64,8-2.59,12.88L162.63,221Z"/></g></g></g></g></svg>