<svg xmlns="http://www.w3.org/2000/svg" viewBox="0 0 179 250"><defs><style>.cls-1{fill:#fff;stroke:#000;stroke-width:1px;}.cls-2{fill:#d40000;}</style></defs><title>Asset 3</title><g id="Layer_2" data-name="Layer 2"><g id="Layer_1-2" data-name="Layer 1"><g id="layer1"><g id="g11425-5-5"><g id="g9664-0-2"><rect id="rect9666-2-2" class="cls-1" x="0.5" y="0.5" width="178" height="249" rx="8.5"/></g><path id="path9698-0-0" class="cls-2" d="M14.56,56.21s-1.77-2.54-4.16-5.53c-1.6-2-2.88-4.17-3-6-.13-2.13,1.16-4.27,3.49-4.37s3.28,1.64,3.67,3.08c.39-1.44,1.33-3.18,3.67-3.08a3.86,3.86,0,0,1,3.49,4.37c-.12,1.87-1.4,4-3,6C16.33,53.67,14.56,56.21,14.56,56.21Z"/><path id="path9700-3-2" class="cls-2" d="M164.92,193.27s-1.77,2.54-4.16,5.53c-1.6,2-2.88,4.17-3,6-.13,2.14,1.16,4.28,3.49,4.38s3.29-1.64,3.67-3.09c.39,1.45,1.34,3.19,3.67,3.09s3.63-2.24,3.49-4.38c-.12-1.86-1.4-4-3-6C166.69,195.81,164.92,193.27,164.92,193.27Z"/><path id="path9714-6-6" class="cls-2" d="M89.74,143.88S86,137.77,81,130.6c-3.35-4.81-6-10-6.28-14.49-.29-5.12,2.42-10.25,7.32-10.5s6.88,4,7.69,7.41c.81-3.46,2.8-7.66,7.69-7.41s7.61,5.38,7.33,10.5c-.25,4.48-2.94,9.68-6.29,14.49C93.46,137.77,89.74,143.88,89.74,143.88Z"/><path id="path41-87-8-3-9" class="cls-2" d="M7,38V35H9.14l4.55-24h2.6l5,24H23v3H17V36h1.73L18,32H11.58l-.5,4H13v2H7Zm10.15-9L14.56,16.12,12.13,29Z"/><path id="path41-8-5-1-8-7" class="cls-2" d="M157,212v2h2.14l4.55,24h2.6l5-24H173v-2h-6v2h1.73l-.69,4h-6.46l-.5-4H163v-2h-6Zm10.51,8-2.59,12.88L162.5,220Z"/></g></g></g></g></svg>