<svg xmlns="http://www.w3.org/2000/svg" viewBox="0 0 179 250"><defs><style>.cls-1{fill:#fff;stroke:#000;stroke-width:1px;}</style></defs><title>Asset 7</title><g id="Layer_2" data-name="Layer 2"><g id="Layer_1-2" data-name="Layer 1"><g id="layer1"><g id="g8409-3-3"><rect id="rect6355-6-85-62-9-7" class="cls-1" x="0.5" y="0.5" width="178" height="249" rx="8.5"/><path id="path153-0-1-2-5-5-5-3-4" d="M14,41.05c-3.43,4.37-7.11,6.89-7.17,10.3a3.32,3.32,0,0,0,2.74,3.34A2.85,2.85,0,0,0,12.88,52c0-.4.47-.39.47.15A10.34,10.34,0,0,1,11.79,57h4.5a10.34,10.34,0,0,1-1.56-4.9c0-.54.47-.55.46-.15a2.85,2.85,0,0,0,3.27,2.74,3.32,3.32,0,0,0,2.75-3.34C21.15,47.94,17.47,45.42,14,41.05Z"/><path id="path153-0-1-2-5-6-5-9-1-9" d="M164.4,210c-3.43-4.37-7.11-6.89-7.17-10.3a3.32,3.32,0,0,1,2.75-3.34,2.85,2.85,0,0,1,3.27,2.75c0,.39.47.38.46-.16a10.34,10.34,0,0,0-1.56-4.9h4.5a10.34,10.34,0,0,0-1.56,4.9c0,.54.47.55.47.16a2.85,2.85,0,0,1,3.27-2.75,3.32,3.32,0,0,1,2.74,3.34c-.06,3.41-3.74,5.93-7.17,10.3Z"/><path id="path153-6-3-1-6-92-7-2-9-8" d="M89.22,105.72c-7.35,10.5-15.21,16.53-15.34,24.72,0,2.65,1.39,7.15,5.87,8,2.91.55,6.91-1.8,7-6.59,0-1,1-.93,1,.38A27.2,27.2,0,0,1,84.41,144H94a27.35,27.35,0,0,1-3.34-11.75c0-1.31,1-1.34,1-.38.09,4.79,4.09,7.14,7,6.59,4.48-.87,5.91-5.37,5.87-8C104.43,122.25,96.57,116.22,89.22,105.72Z"/><path id="path41-4-9-2" d="M6,38V36H8.14l4.55-24h2.6l5,24H22v2H16V36h1.73L17,32H10.58l-.5,4H12v2Zm10.62-8L14,17.12,11.61,30Z"/><path id="path41-4-2-4-0" d="M157,212v3h2.14l4.55,24h2.6l5-24H172v-3h-6v2h1.73l-.69,4h-6.46l-.5-4H163v-2h-6Zm10,9-2.59,12.88L162,221Z"/></g></g></g></g></svg>