<svg xmlns="http://www.w3.org/2000/svg" viewBox="0 0 179 250"><defs><style>.cls-1{fill:#fff;stroke:#000;stroke-width:1px;}</style></defs><title>Asset 6</title><g id="Layer_2" data-name="Layer 2"><g id="Layer_1-2" data-name="Layer 1"><g id="layer1"><g id="g5421"><g id="layer1-33-1-8-0-7"><rect id="rect6355-6-85-4-0-5" class="cls-1" x="0.5" y="0.5" width="178" height="249" rx="8.5"/></g><path id="path147-0-8-1-6-7-2-1-6-3" d="M89.87,27c-7.76.17-11.25,8.91-5.5,15.7.84,1,.92,1.55-.6.6-3.87-2.58-11.3-.88-11.68,7-.47,9.75,13.16,12.56,15.72,2.19.13-1.09,1-1.07.81.49a32.37,32.37,0,0,1-3.36,12h9.23a32.18,32.18,0,0,1-3.36-12c-.22-1.56.67-1.58.81-.49,2.56,10.37,16.18,7.56,15.71-2.19-.38-7.91-7.8-9.61-11.67-7-1.53,1-1.44.39-.61-.6,5.75-6.79,2.27-15.53-5.5-15.7Z"/><path id="path147-0-8-1-6-1-4-5-4-2" d="M89.87,224c-7.76-.17-11.25-8.91-5.5-15.7.84-1,.92-1.55-.6-.6-3.87,2.59-11.3.88-11.68-7-.47-9.75,13.16-12.56,15.72-2.19.13,1.09,1,1.07.81-.49a32.37,32.37,0,0,0-3.36-12h9.23a32.18,32.18,0,0,0-3.36,12c-.22,1.56.67,1.58.81.49,2.56-10.37,16.18-7.56,15.71,2.19-.38,7.91-7.8,9.62-11.67,7-1.53-.95-1.44-.39-.61.6,5.75,6.79,2.27,15.53-5.5,15.7Z"/><path id="path147-6-9-8-7-0-5-4-9-1" d="M165.05,210c3.14-.07,4.55-3.75,2.23-6.61-.34-.42-.38-.65.24-.25,1.57,1.09,4.57.37,4.72-3,.19-4.11-5.32-5.29-6.35-.93-.06.46-.42.45-.33-.2a14,14,0,0,1,1.36-5.05h-3.73a14.21,14.21,0,0,1,1.36,5.05c.08.65-.28.66-.33.2-1-4.36-6.54-3.18-6.35.93.15,3.33,3.15,4,4.72,3,.61-.4.58-.17.24.25-2.32,2.86-.92,6.54,2.22,6.61Z"/><path id="path147-6-9-8-7-4-5-9-2-7" d="M14.69,41c-3.14.07-4.54,3.75-2.22,6.61.34.42.37.66-.25.25-1.56-1.08-4.56-.37-4.71,3-.19,4.11,5.31,5.29,6.35.93.05-.46.41-.45.32.2a14,14,0,0,1-1.35,5h3.73a14,14,0,0,1-1.36-5c-.09-.65.27-.66.33-.2,1,4.36,6.54,3.18,6.35-.93-.16-3.33-3.16-4-4.72-3-.62.41-.58.17-.25-.25,2.33-2.86.92-6.54-2.22-6.61Z"/><path id="path15-9-1-0-1" d="M6.81,39l.13-2.42c.4-5,1.48-6.7,7.58-11.94,3-2.53,3.94-3.79,4.08-5.24C19,16,16,14.91,14,14.89c-2.55,0-5.44,1.53-4.06,5.15l-2.87.86c-.58-3.37,0-6.54,2.7-7.95,3.58-1.83,8.18-1.11,10.5,1.78a6.9,6.9,0,0,1,1.08,6.71C18.88,26.8,9.91,35,9.91,35H19V32h3v6L6.81,39Z"/><path id="path15-5-7-4-9-4" d="M172.53,213l-.13.89c-.4,5-1.48,6.71-7.58,11.94-3,2.54-3.94,3.79-4.07,5.25-.39,3.42,2.64,4.49,4.61,4.51,2.56,0,5.45-1.54,4.07-5.16l2.87-.85c.57,3.37,0,6.54-2.71,7.94-3.58,1.84-8.17,1.12-10.49-1.77A6.88,6.88,0,0,1,158,229c2.44-5.36,11.42-14,11.42-14H160v3h-3v-6l15.53,1Z"/></g></g></g></g></svg>