<svg xmlns="http://www.w3.org/2000/svg" viewBox="0 0 179 250"><defs><style>.cls-1{fill:#fff;stroke:#000;stroke-width:1px;}.cls-2{fill:#d40000;}</style></defs><title>Asset 5</title><g id="Layer_2" data-name="Layer 2"><g id="Layer_1-2" data-name="Layer 1"><g id="layer1"><g id="g6716"><rect id="rect6486-8" class="cls-1" x="0.5" y="0.5" width="178" height="249" rx="8.5"/><path id="path6516-8" class="cls-2" d="M89,65c-4.13-6.83-8.47-13.47-13.9-19.14,5.43-5.67,9.77-12.31,13.9-19.14,4.13,6.83,8.48,13.47,13.91,19.14C97.48,51.52,93.13,58.16,89,65Z"/><path id="path6518-2" class="cls-2" d="M13.82,56.44a44.84,44.84,0,0,0-5.79-8,45.12,45.12,0,0,0,5.79-8,44.68,44.68,0,0,0,5.8,8A44.39,44.39,0,0,0,13.82,56.44Z"/><path id="path6522-0" class="cls-2" d="M164.18,209.44a45.2,45.2,0,0,0-5.79-8,45.12,45.12,0,0,0,5.79-8,44.68,44.68,0,0,0,5.8,8A44.75,44.75,0,0,0,164.18,209.44Z"/><path id="path6538-6" class="cls-2" d="M89,223.22c-4.13-6.83-8.47-13.47-13.9-19.14,5.43-5.67,9.77-12.31,13.9-19.14,4.13,6.83,8.48,13.47,13.91,19.14C97.48,209.75,93.13,216.39,89,223.22Z"/><path id="path15-34-1-4-2" class="cls-2" d="M5.94,38l.13-1.71c.43-5.29,1.56-7.07,8-12.59,3.13-2.67,4.15-4,4.29-5.52.41-3.61-2.78-4.74-4.86-4.76-2.69,0-5.74,1.62-4.28,5.44l-3,.9c-.6-3.56,0-6.89,2.85-8.38,3.78-1.93,8.62-1.17,11.07,1.87a7.26,7.26,0,0,1,1.13,7.08C18.66,26,9.92,28.46,9.2,35H18V32h3v5L6.34,38Z"/><path id="path15-5-4-6-4" class="cls-2" d="M172.07,212l-.14,1.71c-.42,5.29-1.56,7.07-8,12.59-3.13,2.67-4.15,4-4.29,5.52-.41,3.61,2.78,4.74,4.86,4.76,2.69,0,5.74-1.62,4.28-5.44l3-.9c.6,3.56,0,6.89-2.85,8.38-3.78,1.93-8.62,1.17-11.06-1.87a7.26,7.26,0,0,1-1.14-7.08c2.57-5.65,11.31-8.13,12-14.67H160v3h-3v-7l14.66,1Z"/></g></g></g></g></svg>