<svg xmlns="http://www.w3.org/2000/svg" viewBox="0 0 179 250"><defs><style>.cls-1{fill:#fff;stroke:#000;stroke-width:1px;}.cls-2{fill:#d40000;}</style></defs><title>Asset 11</title><g id="Layer_2" data-name="Layer 2"><g id="Layer_1-2" data-name="Layer 1"><g id="layer1"><g id="g11398-8-7"><g id="g9732-9-3"><rect id="rect9734-4-5" class="cls-1" x="0.5" y="0.5" width="178" height="249" rx="8.5"/></g><path id="path9766-0-8" class="cls-2" d="M14.11,56.21S12.34,53.67,10,50.68c-1.6-2-2.88-4.17-3-6-.13-2.13,1.16-4.27,3.49-4.37s3.28,1.64,3.67,3.08c.39-1.44,1.33-3.18,3.67-3.08s3.62,2.24,3.49,4.37c-.12,1.87-1.4,4-3,6C15.88,53.67,14.11,56.21,14.11,56.21Z"/><path id="path9768-3-3" class="cls-2" d="M164.47,193.27s-1.77,2.54-4.16,5.53c-1.6,2-2.88,4.17-3,6-.13,2.14,1.16,4.28,3.49,4.38s3.29-1.64,3.67-3.09c.39,1.45,1.34,3.19,3.67,3.09s3.63-2.24,3.49-4.38c-.12-1.86-1.4-4-3-6C166.24,195.81,164.47,193.27,164.47,193.27Z"/><path id="path9772-1-7" class="cls-2" d="M89.29,64.76s-3.72-6.1-8.73-13.28c-3.35-4.8-6-10-6.28-14.48C74,31.88,76.7,26.75,81.6,26.5s6.88,3.94,7.69,7.4c.81-3.46,2.8-7.65,7.69-7.4s7.61,5.38,7.33,10.5c-.25,4.48-2.94,9.68-6.29,14.48C93,58.66,89.29,64.76,89.29,64.76Z"/><path id="path9786-2-1" class="cls-2" d="M89.29,184.72s-3.72,6.1-8.73,13.28c-3.35,4.8-6,10-6.28,14.48C74,217.6,76.7,222.73,81.6,223s6.88-3.94,7.69-7.4c.81,3.46,2.8,7.65,7.69,7.4s7.61-5.38,7.33-10.5C104.06,208,101.37,202.8,98,198,93,190.82,89.29,184.72,89.29,184.72Z"/><path id="path15-34-0-0-4" class="cls-2" d="M6.22,38l.14-1.71c.43-5.28,1.56-7.07,8-12.59,3.13-2.67,4.15-4,4.29-5.52.41-3.61-2.78-4.74-4.86-4.75C11.09,13.4,8,15,9.5,18.86l-3,.9c-.6-3.56,0-6.89,2.85-8.38,3.78-1.93,8.62-1.17,11.07,1.87a7.28,7.28,0,0,1,1.13,7.08C19,26,10.21,28.46,9.49,35H19V32h3v5L6.63,38Z"/><path id="path15-5-4-5-2-7" class="cls-2" d="M172.36,212l-.14,1.71c-.43,5.29-1.56,7.07-8,12.59-3.13,2.67-4.15,4-4.29,5.52-.41,3.61,2.78,4.74,4.86,4.76,2.69,0,5.74-1.62,4.28-5.44l3-.9c.6,3.56,0,6.89-2.85,8.38-3.78,1.93-8.62,1.17-11.07-1.87a7.28,7.28,0,0,1-1.13-7.08c2.57-5.65,11.31-8.13,12-14.67H160v3h-3v-7L172,212Z"/></g></g></g></g></svg>