<svg xmlns="http://www.w3.org/2000/svg" viewBox="0 0 179 250"><defs><style>.cls-1{fill:#fff;stroke:#000;stroke-width:1px;}</style></defs><title>Asset 9</title><g id="Layer_2" data-name="Layer 2"><g id="Layer_1-2" data-name="Layer 1"><g id="layer1"><g id="g8417-9-8"><rect id="rect6716-2-0" class="cls-1" x="0.5" y="0.5" width="178" height="249" rx="8.5"/><path id="path6748-4-0" d="M14.52,40.05c-3.44,4.37-7.11,6.89-7.17,10.3a3.32,3.32,0,0,0,2.74,3.34A2.85,2.85,0,0,0,13.36,51c0-.4.47-.39.47.15A10.45,10.45,0,0,1,12.27,56h4.5a10.34,10.34,0,0,1-1.56-4.9c0-.54.47-.55.46-.15a2.85,2.85,0,0,0,3.27,2.74,3.3,3.3,0,0,0,2.74-3.34c-.06-3.41-3.73-5.93-7.16-10.3Z"/><path id="path6752-9-1" d="M164.88,210c-3.43-4.37-7.11-6.89-7.17-10.3a3.32,3.32,0,0,1,2.74-3.34,2.85,2.85,0,0,1,3.27,2.75c0,.39.47.38.47-.16a10.34,10.34,0,0,0-1.56-4.9h4.5a10.34,10.34,0,0,0-1.56,4.9c0,.54.47.55.46.16a2.85,2.85,0,0,1,3.27-2.75,3.32,3.32,0,0,1,2.75,3.34c-.06,3.41-3.74,5.93-7.17,10.3Z"/><path id="path6760-2-4" d="M89.7,26.72c-7.35,10.5-15.21,16.53-15.34,24.72,0,2.65,1.38,7.15,5.87,8,2.91.55,6.91-1.8,7-6.59,0-1,1-.93,1,.38A27.08,27.08,0,0,1,84.88,65h9.63a27.21,27.21,0,0,1-3.34-11.75c0-1.31,1-1.34,1-.38.08,4.79,4.09,7.14,7,6.59,4.48-.87,5.91-5.37,5.87-8-.13-8.19-8-14.22-15.34-24.72Z"/><path id="path6774-6-2" d="M89.7,223.28c-7.35-10.49-15.21-16.53-15.34-24.72,0-2.65,1.38-7.15,5.87-8,2.91-.55,6.91,1.8,7,6.59,0,1,1,.93,1-.37A27.08,27.08,0,0,0,84.88,185h9.63a27.22,27.22,0,0,0-3.34,11.76c0,1.3,1,1.33,1,.37.08-4.79,4.09-7.14,7-6.59,4.48.87,5.91,5.37,5.87,8-.13,8.19-8,14.23-15.34,24.72Z"/><path id="path15-3-8-9" d="M6.63,38l.14-1.71c.42-5.28,1.56-7.07,8-12.59,3.12-2.67,4.15-4,4.29-5.52.41-3.61-2.78-4.74-4.86-4.75C11.5,13.4,8.45,15,9.9,18.86l-3,.9c-.61-3.56,0-6.89,2.85-8.37,3.77-1.94,8.62-1.18,11.06,1.86a7.26,7.26,0,0,1,1.14,7.08C19.35,26,10.62,28.46,9.89,35H19V32h3v5L7,38Z"/><path id="path15-3-5-1-4" d="M172.76,212l-.13,1.71c-.43,5.29-1.56,7.07-8,12.59-3.12,2.67-4.14,4-4.29,5.52-.41,3.61,2.79,4.74,4.86,4.75,2.7,0,5.75-1.61,4.29-5.43l3-.9c.61,3.56,0,6.89-2.84,8.38-3.78,1.93-8.62,1.17-11.07-1.87a7.28,7.28,0,0,1-1.14-7.08c2.58-5.65,11.32-8.13,12-14.67H160v3h-3v-7l15.36,1Z"/></g></g></g></g></svg>