<svg id="svg4946" xmlns="http://www.w3.org/2000/svg" viewBox="0 0 178.79 249.65"><defs><style>.cls-1{fill:#fff;stroke:#000;stroke-width:1px;}</style></defs><title>3CLUB</title><g id="layer1"><g id="g5431"><g id="layer1-33-1-4-5-7"><rect id="rect6355-6-85-2-7-5" class="cls-1" x="0.5" y="0.5" width="177.79" height="248.65" rx="8.5"/></g><path id="path147-0-8-1-6-7-2-5-9-2" d="M89.29,26.8c-7.82.17-11.33,9-5.54,15.81.84,1,.93,1.57-.61.62-3.9-2.61-11.37-.9-11.76,7.07C70.91,60.12,84.63,63,87.21,52.51c.14-1.1,1-1.08.82.49a32.48,32.48,0,0,1-3.39,12.08h9.3A32.47,32.47,0,0,1,90.56,53c-.22-1.57.68-1.59.81-.49C94,63,107.67,60.12,107.2,50.3c-.38-8-7.86-9.68-11.76-7.07-1.54,1-1.45.38-.61-.62,5.79-6.83,2.28-15.64-5.54-15.81Z" transform="translate(0.1 0.1)"/><path id="path147-0-8-1-6-1-4-3-4-3" d="M89.29,223.31c-7.82-.17-11.33-9-5.54-15.81.84-1,.93-1.57-.61-.61-3.9,2.6-11.37.89-11.76-7.08-.47-9.82,13.25-12.65,15.83-2.21.14,1.1,1,1.08.82-.49A32.48,32.48,0,0,0,84.64,185h9.3a32.47,32.47,0,0,0-3.38,12.08c-.22,1.57.68,1.59.81.49,2.58-10.44,16.3-7.61,15.83,2.21-.38,8-7.86,9.68-11.76,7.08-1.54-1-1.45-.39-.61.61,5.79,6.84,2.28,15.64-5.54,15.81Z" transform="translate(0.1 0.1)"/><path id="path147-0-8-1-6-1-1-0-4-8-8" d="M89.29,105.92c-7.82.17-11.33,9-5.54,15.81.84,1,.93,1.57-.61.61-3.9-2.61-11.37-.89-11.76,7.08-.47,9.82,13.25,12.65,15.83,2.21.14-1.11,1-1.08.82.48a32.38,32.38,0,0,1-3.39,12.08h9.3a32.36,32.36,0,0,1-3.38-12.08c-.22-1.56.68-1.59.81-.48,2.58,10.44,16.3,7.61,15.83-2.21-.38-8-7.86-9.69-11.76-7.08-1.54,1-1.45.39-.61-.61,5.79-6.84,2.28-15.64-5.54-15.81Z" transform="translate(0.1 0.1)"/><path id="path147-6-9-8-7-0-5-5-1-4" d="M164.47,209.2c3.13-.07,4.53-3.74,2.22-6.59-.34-.41-.37-.65.24-.25,1.56,1.08,4.55.37,4.71-3,.18-4.09-5.3-5.27-6.34-.92-.05.46-.41.45-.32-.21a13.88,13.88,0,0,1,1.35-5h-3.72a14.1,14.1,0,0,1,1.36,5c.08.66-.28.67-.33.21-1-4.35-6.52-3.17-6.33.92.15,3.32,3.14,4,4.7,3,.62-.4.58-.16.25.25-2.32,2.85-.92,6.52,2.21,6.59Z" transform="translate(0.1 0.1)"/><path id="path147-6-9-8-7-4-5-8-2-3" d="M14.11,40.25C11,40.32,9.58,44,11.9,46.84c.33.41.37.65-.25.25C10.09,46,7.1,46.72,7,50c-.19,4.09,5.3,5.27,6.33.92.05-.46.41-.45.32.2a13.88,13.88,0,0,1-1.35,5H16a13.88,13.88,0,0,1-1.35-5c-.09-.65.27-.66.32-.2,1,4.35,6.52,3.17,6.33-.92-.15-3.32-3.14-4-4.7-2.95-.61.4-.58.16-.24-.25,2.31-2.85.91-6.52-2.22-6.59Z" transform="translate(0.1 0.1)"/><path id="path17-9-7-6-4" d="M5.58,32l2-1.49c1.76,2.86,3.72,4.75,6.73,4.43,4.51-.31,6.37-5.05,5.43-8.61a5.21,5.21,0,0,0-7.61-3,7.6,7.6,0,0,1-1.51.73c-.31,0-1-1.4-.92-1.83a92.72,92.72,0,0,1,6.83-8H9v3.41H6.09V11.43H20.86v2.08a49.78,49.78,0,0,0-5.26,6.36,7.15,7.15,0,0,1,6.74,5.4,14.23,14.23,0,0,1-.41,7.26,9.1,9.1,0,0,1-7.4,5.2c-5,.33-7.63-3.16-8.95-5.75Z" transform="translate(0.1 0.1)"/><path id="path17-5-0-1-5-7" d="M173,217.47,171,219c-1.76-2.86-3.72-4.75-6.73-4.43-4.5.31-6.37,5-5.43,8.61a5.21,5.21,0,0,0,7.61,3.05,7.6,7.6,0,0,1,1.51-.73c.31,0,1,1.4.92,1.83a92.72,92.72,0,0,1-6.83,8h7.56v-3.42h2.9V238H157.72v-2.08a50.46,50.46,0,0,0,5.27-6.36,7.18,7.18,0,0,1-6.75-5.4,14.23,14.23,0,0,1,.41-7.26,9.11,9.11,0,0,1,7.4-5.2c5-.33,7.63,3.16,8.95,5.75Z" transform="translate(0.1 0.1)"/></g></g></svg>