<svg id="svg4946" xmlns="http://www.w3.org/2000/svg" viewBox="0 0 178.79 249.65"><defs><style>.cls-1{fill:#fff;stroke:#000;stroke-width:1px;}.cls-2{fill:#d40000;}</style></defs><title>3DIAMOND</title><g id="layer1"><g id="g6725"><rect id="rect6554-0" class="cls-1" x="0.5" y="0.5" width="177.79" height="248.65" rx="8.5"/><path id="path6584-3" class="cls-2" d="M89.29,64.75c-4.13-6.83-8.47-13.47-13.91-19.14,5.44-5.67,9.78-12.31,13.91-19.14,4.13,6.83,8.48,13.47,13.91,19.14C97.77,51.28,93.42,57.92,89.29,64.75Z" transform="translate(0.1 0.1)"/><path id="path6586-2" class="cls-2" d="M14.11,56.2a45.2,45.2,0,0,0-5.79-8,44.76,44.76,0,0,0,5.79-8,44.32,44.32,0,0,0,5.8,8A44.75,44.75,0,0,0,14.11,56.2Z" transform="translate(0.1 0.1)"/><path id="path6590-7" class="cls-2" d="M164.47,209.2a44.76,44.76,0,0,0-5.79-8,45.2,45.2,0,0,0,5.79-8,44.75,44.75,0,0,0,5.8,8A44.32,44.32,0,0,0,164.47,209.2Z" transform="translate(0.1 0.1)"/><path id="path6600-5" class="cls-2" d="M89.29,143.86c-4.13-6.83-8.47-13.46-13.91-19.14,5.44-5.67,9.78-12.3,13.91-19.13,4.13,6.83,8.48,13.46,13.91,19.13C97.77,130.4,93.42,137,89.29,143.86Z" transform="translate(0.1 0.1)"/><path id="path6606-3" class="cls-2" d="M89.29,223c-4.13-6.83-8.47-13.47-13.91-19.14,5.44-5.67,9.78-12.31,13.91-19.14,4.13,6.83,8.48,13.47,13.91,19.14C97.77,209.51,93.42,216.15,89.29,223Z" transform="translate(0.1 0.1)"/><path id="path17-2-9-4-8" class="cls-2" d="M5.58,32l2-1.49c1.76,2.86,3.72,4.75,6.73,4.43,4.5-.31,6.37-5.05,5.43-8.61a5.21,5.21,0,0,0-7.61-3,7.6,7.6,0,0,1-1.51.73c-.31,0-1-1.4-.92-1.83a92.72,92.72,0,0,1,6.83-8H9v3.41H6.09V11.43H20.86v2.08a49.78,49.78,0,0,0-5.26,6.36,7.16,7.16,0,0,1,6.74,5.39,14.26,14.26,0,0,1-.41,7.27,9.1,9.1,0,0,1-7.4,5.2c-5,.33-7.63-3.16-8.95-5.75Z" transform="translate(0.1 0.1)"/><path id="path17-5-3-3-8" class="cls-2" d="M173,217.47,171,219c-1.76-2.86-3.72-4.75-6.73-4.43-4.5.31-6.37,5-5.43,8.61a5.21,5.21,0,0,0,7.61,3.05,7.6,7.6,0,0,1,1.51-.73c.31,0,1,1.4.92,1.83a92.72,92.72,0,0,1-6.83,8h7.56v-3.41h2.9V238H157.72v-2.08a50.46,50.46,0,0,0,5.27-6.36,7.16,7.16,0,0,1-6.75-5.4,14.23,14.23,0,0,1,.41-7.26,9.1,9.1,0,0,1,7.4-5.2c5-.33,7.63,3.16,8.95,5.75Z" transform="translate(0.1 0.1)"/></g></g></svg>