<svg id="svg4946" xmlns="http://www.w3.org/2000/svg" viewBox="0 0 178.79 249.65"><defs><style>.cls-1{fill:#fff;stroke:#000;stroke-width:1px;}.cls-2{fill:#d40000;}</style></defs><title>3HEART</title><g id="layer1"><g id="g11369-4-9"><g id="g9800-8-2"><rect id="rect9802-4-3" class="cls-1" x="0.5" y="0.5" width="177.79" height="248.65" rx="8.5"/></g><path id="path9834-5-2" class="cls-2" d="M14.11,56.2S12.34,53.65,10,50.66c-1.6-2-2.88-4.16-3-6a3.88,3.88,0,0,1,3.49-4.38c2.34-.1,3.29,1.65,3.67,3.09.39-1.44,1.33-3.19,3.67-3.09a3.87,3.87,0,0,1,3.49,4.38c-.12,1.87-1.4,4-3,6C15.88,53.65,14.11,56.2,14.11,56.2Z" transform="translate(0.1 0.1)"/><path id="path9836-5-8" class="cls-2" d="M164.47,193.25s-1.77,2.54-4.16,5.53c-1.6,2-2.88,4.17-3,6-.13,2.13,1.16,4.27,3.49,4.37s3.29-1.64,3.67-3.08c.39,1.44,1.34,3.19,3.67,3.08a3.85,3.85,0,0,0,3.49-4.37c-.12-1.87-1.4-4-3-6C166.24,195.79,164.47,193.25,164.47,193.25Z" transform="translate(0.1 0.1)"/><path id="path9840-3-6" class="cls-2" d="M89.29,64.75s-3.72-6.11-8.73-13.28c-3.35-4.81-6-10-6.28-14.49C74,31.86,76.7,26.73,81.6,26.48s6.88,3.95,7.69,7.41c.81-3.46,2.8-7.66,7.69-7.41s7.61,5.38,7.33,10.5c-.25,4.48-2.94,9.68-6.29,14.49C93,58.64,89.29,64.75,89.29,64.75Z" transform="translate(0.1 0.1)"/><path id="path9850-2-3" class="cls-2" d="M89.29,143.86s-3.72-6.1-8.73-13.28c-3.35-4.8-6-10-6.28-14.48C74,111,76.7,105.85,81.6,105.6s6.88,3.94,7.69,7.4c.81-3.46,2.8-7.65,7.69-7.4s7.61,5.38,7.33,10.5c-.25,4.48-2.94,9.68-6.29,14.48C93,137.76,89.29,143.86,89.29,143.86Z" transform="translate(0.1 0.1)"/><path id="path9854-8-0" class="cls-2" d="M89.29,184.7s-3.72,6.11-8.73,13.28c-3.35,4.81-6,10-6.28,14.49C74,217.58,76.7,222.72,81.6,223s6.88-3.95,7.69-7.41c.81,3.46,2.8,7.66,7.69,7.41s7.61-5.39,7.33-10.5c-.25-4.48-2.94-9.68-6.29-14.49C93,190.81,89.29,184.7,89.29,184.7Z" transform="translate(0.1 0.1)"/><path id="path17-2-9-8-4" class="cls-2" d="M5.58,32l2-1.49c1.76,2.86,3.72,4.75,6.73,4.43,4.5-.31,6.37-5.05,5.43-8.61a5.21,5.21,0,0,0-7.61-3,7.6,7.6,0,0,1-1.51.73c-.31,0-1-1.4-.92-1.83a92.72,92.72,0,0,1,6.83-8H9v3.41H6.09V11.43H20.86v2.08a49.78,49.78,0,0,0-5.26,6.36,7.16,7.16,0,0,1,6.74,5.39,14.26,14.26,0,0,1-.41,7.27,9.1,9.1,0,0,1-7.4,5.2c-5,.33-7.63-3.16-8.95-5.75Z" transform="translate(0.1 0.1)"/><path id="path17-5-3-9-1-3" class="cls-2" d="M173,217.47,171,219c-1.76-2.87-3.72-4.75-6.73-4.43-4.5.31-6.37,5-5.43,8.61a5.21,5.21,0,0,0,7.61,3.05,7.6,7.6,0,0,1,1.51-.73c.31,0,1,1.4.92,1.83a92.72,92.72,0,0,1-6.83,8h7.56v-3.42h2.9V238H157.72v-2.08a50.46,50.46,0,0,0,5.27-6.36,7.18,7.18,0,0,1-6.75-5.4,14.23,14.23,0,0,1,.41-7.26,9.11,9.11,0,0,1,7.4-5.2c5-.33,7.63,3.16,8.95,5.75Z" transform="translate(0.1 0.1)"/></g></g></svg>