<svg id="svg4946" xmlns="http://www.w3.org/2000/svg" viewBox="0 0 178.79 249.65"><defs><style>.cls-1{fill:#fff;stroke:#000;stroke-width:1px;}</style></defs><title>3SPADE</title><g id="layer1"><g id="g8426-7-4"><rect id="rect6784-5-9" class="cls-1" x="0.5" y="0.5" width="177.79" height="248.65" rx="8.5"/><path id="path6816-2-4" d="M14.11,40.25C10.68,44.62,7,47.14,6.94,50.55a3.32,3.32,0,0,0,2.75,3.34A2.85,2.85,0,0,0,13,51.14c0-.39.47-.38.46.16a10.37,10.37,0,0,1-1.56,4.9h4.5a10.37,10.37,0,0,1-1.56-4.9c0-.54.47-.55.47-.16a2.85,2.85,0,0,0,3.27,2.75,3.32,3.32,0,0,0,2.74-3.34c-.06-3.41-3.74-5.93-7.17-10.3Z" transform="translate(0.1 0.1)"/><path id="path6820-0-2" d="M164.47,209.2c-3.43-4.37-7.1-6.89-7.16-10.3a3.3,3.3,0,0,1,2.74-3.34,2.85,2.85,0,0,1,3.27,2.75c0,.39.47.38.46-.16a10.34,10.34,0,0,0-1.56-4.9h4.5a10.45,10.45,0,0,0-1.56,4.9c0,.54.47.55.47.16a2.85,2.85,0,0,1,3.27-2.75,3.32,3.32,0,0,1,2.74,3.34c-.06,3.41-3.73,5.93-7.17,10.3Z" transform="translate(0.1 0.1)"/><path id="path6828-8-3" d="M89.29,26.47C81.94,37,74.08,43,74,51.19c0,2.65,1.39,7.15,5.87,8,2.91.56,6.91-1.8,7-6.58,0-1,1-.93,1,.37a27.22,27.22,0,0,1-3.34,11.76H94.1A27.2,27.2,0,0,1,90.77,53c0-1.3,1-1.33,1-.37.09,4.78,4.09,7.14,7,6.58,4.48-.86,5.92-5.36,5.87-8C104.5,43,96.64,37,89.29,26.47Z" transform="translate(0.1 0.1)"/><path id="path6842-0-7" d="M89.29,223C81.94,212.49,74.08,206.45,74,198.26c0-2.65,1.39-7.15,5.87-8,2.91-.55,6.91,1.8,7,6.59,0,1,1,.93,1-.37a27.22,27.22,0,0,0-3.34-11.76H94.1a27.2,27.2,0,0,0-3.33,11.76c0,1.3,1,1.33,1,.37.09-4.79,4.09-7.14,7-6.59,4.48.87,5.92,5.37,5.87,8-.13,8.19-8,14.23-15.34,24.72Z" transform="translate(0.1 0.1)"/><path id="path6844-7-0" d="M89.29,105.59C81.94,116.08,74.08,122.12,74,130.3c0,2.65,1.39,7.16,5.87,8,2.91.56,6.91-1.8,7-6.59,0-.95,1-.93,1,.38a27.17,27.17,0,0,1-3.34,11.75H94.1a27.16,27.16,0,0,1-3.33-11.75c0-1.31,1-1.33,1-.38.09,4.79,4.09,7.15,7,6.59,4.48-.86,5.92-5.37,5.87-8-.13-8.18-8-14.22-15.34-24.71Z" transform="translate(0.1 0.1)"/><path id="path17-9-11-4" d="M5.58,32l2-1.49c1.76,2.86,3.72,4.75,6.73,4.43,4.51-.31,6.37-5.05,5.43-8.61a5.21,5.21,0,0,0-7.61-3,7.6,7.6,0,0,1-1.51.73c-.31,0-1-1.4-.92-1.83a92.72,92.72,0,0,1,6.83-8H9v3.41H6.09V11.43H20.86v2.08a49.78,49.78,0,0,0-5.26,6.36,7.16,7.16,0,0,1,6.74,5.39,14.26,14.26,0,0,1-.41,7.27,9.1,9.1,0,0,1-7.4,5.2c-5,.33-7.63-3.16-8.95-5.75Z" transform="translate(0.1 0.1)"/><path id="path17-9-1-0-8" d="M173,217.47,171,219c-1.76-2.86-3.72-4.75-6.73-4.43-4.5.31-6.37,5-5.43,8.61a5.21,5.21,0,0,0,7.61,3.05,7.6,7.6,0,0,1,1.51-.73c.31,0,1,1.4.92,1.83a92.72,92.72,0,0,1-6.83,8h7.56v-3.42h2.9V238H157.72v-2.08a50.46,50.46,0,0,0,5.27-6.36,7.18,7.18,0,0,1-6.75-5.4,14.23,14.23,0,0,1,.41-7.26,9.11,9.11,0,0,1,7.4-5.2c5-.33,7.63,3.16,8.95,5.75Z" transform="translate(0.1 0.1)"/></g></g></svg>