<svg id="svg4946" xmlns="http://www.w3.org/2000/svg" viewBox="0 0 178.78 249.65"><defs><style>.cls-1{fill:#fff;stroke:#000;stroke-width:1px;}</style></defs><title>4CLUB</title><g id="layer1"><g id="g5444"><rect id="rect6355-6-85-3-72-9" class="cls-1" x="0.5" y="0.5" width="177.79" height="248.65" rx="8.5"/><path id="path147-0-8-1-6-13-2-06-7" d="M130.52,26.8c-7.82.17-11.33,9-5.54,15.81.84,1,.93,1.57-.61.61-3.9-2.6-11.38-.89-11.76,7.08-.47,9.82,13.25,12.65,15.83,2.21.13-1.1,1-1.08.81.49a32.47,32.47,0,0,1-3.38,12.08h9.3A32.67,32.67,0,0,1,131.78,53c-.21-1.57.68-1.59.82-.49,2.58,10.44,16.3,7.61,15.83-2.21-.39-8-7.86-9.68-11.76-7.08-1.54,1-1.45.39-.61-.61,5.79-6.83,2.28-15.64-5.54-15.81h0Z" transform="translate(0.1 0.1)"/><path id="path147-0-8-1-6-75-2-83-35-3" d="M48.06,26.8c-7.82.17-11.33,9-5.53,15.81.83,1,.92,1.57-.62.61-3.9-2.6-11.37-.89-11.75,7.08C29.68,60.12,43.41,63,46,52.51c.14-1.1,1-1.08.82.49a32.48,32.48,0,0,1-3.39,12.08h9.3A32.47,32.47,0,0,1,49.33,53c-.22-1.57.68-1.59.81-.49C52.72,63,66.44,60.12,66,50.3c-.38-8-7.86-9.68-11.76-7.08-1.54,1-1.45.39-.61-.61C59.39,35.78,55.89,27,48.07,26.8Z" transform="translate(0.1 0.1)"/><path id="path147-0-8-1-6-7-5-5-7-77-6" d="M130.52,223.31c-7.82-.17-11.33-9-5.54-15.81.84-1,.93-1.57-.61-.61-3.9,2.6-11.38.89-11.76-7.08-.47-9.82,13.25-12.65,15.83-2.21.13,1.1,1,1.08.81-.49A32.47,32.47,0,0,0,125.87,185h9.3a32.67,32.67,0,0,0-3.39,12.08c-.21,1.57.68,1.59.82.49,2.58-10.44,16.3-7.61,15.83,2.21-.39,8-7.86,9.68-11.76,7.08-1.54-1-1.45-.39-.61.61,5.79,6.84,2.28,15.64-5.54,15.81h0Z" transform="translate(0.1 0.1)"/><path id="path147-0-8-1-6-75-6-1-2-08-0" d="M48.06,223.31c-7.82-.17-11.33-9-5.53-15.81.83-1,.92-1.57-.62-.61-3.9,2.6-11.37.89-11.75-7.08C29.68,190,43.41,187.16,46,197.6c.14,1.1,1,1.08.82-.49A32.48,32.48,0,0,0,43.41,185h9.3a32.47,32.47,0,0,0-3.38,12.08c-.22,1.57.68,1.59.81.49,2.58-10.44,16.3-7.61,15.83,2.21-.38,8-7.86,9.68-11.76,7.08-1.54-1-1.45-.39-.61.61,5.79,6.84,2.29,15.64-5.53,15.81Z" transform="translate(0.1 0.1)"/><path id="path147-6-9-8-7-0-5-6-17-9" d="M164.47,209.2c3.13-.07,4.53-3.74,2.22-6.59-.34-.41-.37-.65.24-.25,1.56,1.08,4.55.37,4.71-3,.18-4.09-5.3-5.27-6.34-.92-.05.46-.41.45-.32-.21a13.88,13.88,0,0,1,1.35-5h-3.72a14.1,14.1,0,0,1,1.36,5c.08.66-.28.67-.33.21-1-4.35-6.52-3.17-6.33.92.15,3.32,3.14,4,4.7,3,.62-.4.58-.16.25.25-2.32,2.85-.92,6.52,2.21,6.59Z" transform="translate(0.1 0.1)"/><path id="path147-6-9-8-7-4-5-62-79-3" d="M14.11,40.25C11,40.32,9.58,44,11.9,46.84c.33.41.37.65-.25.25C10.09,46,7.1,46.72,7,50c-.19,4.09,5.3,5.27,6.33.92.05-.46.41-.45.32.2a13.88,13.88,0,0,1-1.35,5H16a13.88,13.88,0,0,1-1.35-5c-.09-.65.27-.66.32-.2,1,4.35,6.52,3.17,6.33-.92-.15-3.32-3.14-4-4.7-2.95-.61.4-.58.16-.24-.25,2.31-2.85.91-6.52-2.22-6.59Z" transform="translate(0.1 0.1)"/><path id="path19-0-7-3" d="M14.29,37.75V35.42h2.1V31.59H5.91V28.88L17.25,11.43H19.1V28.88h3.21v2.71H19.1L19,35.42H20.8v2.33Zm2.1-19.93L9.19,28.88h7.2Z" transform="translate(0.1 0.1)"/><path id="path19-4-4-9-1" d="M164.29,211.7V214h-2.1v3.83h10.48v2.71L161.33,238h-1.85V220.57h-3.21v-2.71h3.21l.06-3.83h-1.76V211.7Zm-2.1,19.93,7.2-11.06h-7.2Z" transform="translate(0.1 0.1)"/></g></g></svg>