<svg id="svg4946" xmlns="http://www.w3.org/2000/svg" viewBox="0 0 178.79 249.65"><defs><style>.cls-1{fill:#fff;stroke:#000;stroke-width:1px;}.cls-2{fill:#d40000;}</style></defs><title>4HEART</title><g id="layer1"><g id="g11338-3-7"><g id="g9868-8-1"><rect id="rect9870-7-0" class="cls-1" x="0.5" y="0.5" width="177.79" height="248.65" rx="8.5"/></g><path id="path9902-6-7" class="cls-2" d="M14.11,56.2S12.34,53.65,10,50.66c-1.6-2-2.88-4.16-3-6a3.88,3.88,0,0,1,3.49-4.38c2.34-.1,3.28,1.65,3.67,3.09.39-1.44,1.33-3.19,3.67-3.09a3.87,3.87,0,0,1,3.49,4.38c-.12,1.87-1.4,4-3,6C15.88,53.65,14.11,56.2,14.11,56.2Z" transform="translate(0.1 0.1)"/><path id="path9904-6-0" class="cls-2" d="M164.47,193.25s-1.77,2.54-4.16,5.53c-1.6,2-2.88,4.17-3,6-.13,2.13,1.16,4.27,3.49,4.37s3.29-1.64,3.67-3.08c.39,1.44,1.34,3.19,3.67,3.08a3.85,3.85,0,0,0,3.49-4.37c-.12-1.87-1.4-4-3-6C166.24,195.79,164.47,193.25,164.47,193.25Z" transform="translate(0.1 0.1)"/><path id="path9910-2-6" class="cls-2" d="M48.06,64.75s-3.71-6.11-8.73-13.28c-3.35-4.81-6-10-6.28-14.49-.29-5.12,2.42-10.25,7.32-10.5s6.88,3.95,7.69,7.41c.81-3.46,2.8-7.66,7.7-7.41s7.6,5.38,7.32,10.5c-.25,4.48-2.93,9.68-6.29,14.49C51.78,58.64,48.07,64.74,48.06,64.75Z" transform="translate(0.1 0.1)"/><path id="path9916-8-0" class="cls-2" d="M130.52,64.75s-3.72-6.11-8.73-13.28c-3.35-4.81-6-10-6.28-14.49-.29-5.12,2.42-10.25,7.32-10.5s6.88,3.95,7.69,7.41c.81-3.46,2.8-7.66,7.69-7.41s7.61,5.38,7.32,10.5c-.25,4.48-2.93,9.68-6.28,14.49C134.24,58.64,130.52,64.74,130.52,64.75Z" transform="translate(0.1 0.1)"/><path id="path9930-7-9" class="cls-2" d="M130.52,184.7s-3.72,6.11-8.73,13.28c-3.35,4.81-6,10-6.28,14.49-.29,5.11,2.42,10.25,7.32,10.5s6.88-3.95,7.69-7.41c.81,3.46,2.8,7.66,7.69,7.41s7.61-5.39,7.32-10.5c-.25-4.48-2.93-9.68-6.28-14.49C134.24,190.81,130.52,184.71,130.52,184.7Z" transform="translate(0.1 0.1)"/><path id="path9932-9-8" class="cls-2" d="M48.06,184.7s-3.71,6.11-8.73,13.28c-3.35,4.81-6,10-6.28,14.49-.29,5.11,2.42,10.25,7.32,10.5s6.88-3.95,7.69-7.41c.81,3.46,2.8,7.66,7.7,7.41s7.6-5.39,7.32-10.5c-.25-4.48-2.93-9.68-6.29-14.49C51.78,190.81,48.07,184.71,48.06,184.7Z" transform="translate(0.1 0.1)"/><path id="path19-3-8-2-9" class="cls-2" d="M14.29,37.75V35.42h2.1V31.59H5.91V28.88L17.25,11.43H19.1V28.88h3.21v2.71H19.1L19,35.42H20.8v2.33Zm2.1-19.93L9.19,28.88h7.2Z" transform="translate(0.1 0.1)"/><path id="path19-4-46-0-1-9" class="cls-2" d="M164.29,211.7V214h-2.1v3.83h10.48v2.71L161.33,238h-1.85V220.57h-3.21v-2.71h3.21l.06-3.83h-1.76V211.7Zm-2.1,19.93,7.2-11.06h-7.2Z" transform="translate(0.1 0.1)"/></g></g></svg>