<svg id="svg4946" xmlns="http://www.w3.org/2000/svg" viewBox="0 0 178.79 249.65"><defs><style>.cls-1{fill:#fff;stroke:#000;stroke-width:1px;}</style></defs><title>4SPADE</title><g id="layer1"><g id="g8436-8-0"><g id="g8473-4-9"><rect id="rect6852-0-4" class="cls-1" x="0.5" y="0.5" width="177.79" height="248.65" rx="8.5"/><path id="path6882-1-0" d="M48.06,26.47C40.72,37,32.85,43,32.72,51.19c0,2.65,1.39,7.15,5.87,8,2.91.56,6.92-1.8,7-6.58,0-1,1-.93,1,.37a27.22,27.22,0,0,1-3.34,11.76h9.63A27.08,27.08,0,0,1,49.54,53c0-1.3,1-1.33,1-.37.08,4.78,4.08,7.14,7,6.58,4.49-.86,5.92-5.36,5.87-8C63.27,43,55.41,37,48.06,26.47Z" transform="translate(0.1 0.1)"/><path id="path6884-6-5" d="M14.11,40.25C10.68,44.62,7,47.14,6.94,50.55a3.32,3.32,0,0,0,2.75,3.34A2.85,2.85,0,0,0,13,51.14c0-.39.47-.38.46.16a10.37,10.37,0,0,1-1.56,4.9h4.5a10.37,10.37,0,0,1-1.56-4.9c0-.54.47-.55.47-.16a2.85,2.85,0,0,0,3.27,2.75,3.32,3.32,0,0,0,2.74-3.34c-.06-3.41-3.74-5.93-7.17-10.3Z" transform="translate(0.1 0.1)"/><path id="path6888-1-5" d="M164.47,209.2c-3.43-4.37-7.1-6.89-7.16-10.3a3.3,3.3,0,0,1,2.74-3.34,2.85,2.85,0,0,1,3.27,2.75c0,.39.47.38.46-.16a10.34,10.34,0,0,0-1.56-4.9h4.5a10.45,10.45,0,0,0-1.56,4.9c0,.54.47.55.47.16a2.85,2.85,0,0,1,3.27-2.75,3.32,3.32,0,0,1,2.74,3.34c-.06,3.41-3.73,5.93-7.17,10.3Z" transform="translate(0.1 0.1)"/><path id="path6890-4-9" d="M130.52,26.47C123.17,37,115.31,43,115.18,51.19c0,2.65,1.39,7.15,5.87,8,2.91.56,6.91-1.8,7-6.58,0-1,1-.93,1,.37a27.35,27.35,0,0,1-3.34,11.76h9.62A27.35,27.35,0,0,1,132,53c0-1.3,1-1.33,1-.37.09,4.78,4.09,7.14,7,6.58,4.48-.86,5.91-5.36,5.87-8-.13-8.19-8-14.23-15.34-24.72Z" transform="translate(0.1 0.1)"/><path id="path6902-7-5" d="M48.06,223c-7.34-10.49-15.21-16.53-15.34-24.72,0-2.65,1.39-7.15,5.87-8,2.91-.55,6.92,1.8,7,6.59,0,1,1,.93,1-.37a27.22,27.22,0,0,0-3.34-11.76h9.63a27.08,27.08,0,0,0-3.34,11.76c0,1.3,1,1.33,1,.37.08-4.79,4.08-7.14,7-6.59,4.49.87,5.92,5.37,5.87,8-.13,8.19-8,14.23-15.34,24.72Z" transform="translate(0.1 0.1)"/><path id="path6904-9-7" d="M130.52,223c-7.35-10.49-15.21-16.53-15.34-24.72,0-2.65,1.39-7.15,5.87-8,2.91-.55,6.91,1.8,7,6.59,0,1,1,.93,1-.37a27.35,27.35,0,0,0-3.34-11.76h9.62A27.35,27.35,0,0,0,132,196.46c0,1.3,1,1.33,1,.37.09-4.79,4.09-7.14,7-6.59,4.48.87,5.91,5.37,5.87,8-.13,8.19-8,14.23-15.34,24.72Z" transform="translate(0.1 0.1)"/><path id="path19-08-0-9" d="M14.29,37.75V35.42h2.1V31.59H5.91V28.88L17.25,11.43H19.1V28.88h3.21v2.71H19.1L19,35.42H20.8v2.33Zm2.1-19.93L9.19,28.88h7.2Z" transform="translate(0.1 0.1)"/><path id="path19-08-1-1-4" d="M164.29,211.7V214h-2.1v3.83h10.48v2.71L161.33,238h-1.85V220.57h-3.21v-2.71h3.21l.06-3.83h-1.75V211.7Zm-2.1,19.93,7.2-11.06h-7.2Z" transform="translate(0.1 0.1)"/></g></g></g></svg>