<svg id="svg4946" xmlns="http://www.w3.org/2000/svg" viewBox="0 0 178.79 249.65"><defs><style>.cls-1{fill:#fff;stroke:#000;stroke-width:1px;}.cls-2{fill:#d40000;}</style></defs><title>5DIAMOND</title><g id="layer1"><g id="g6746"><rect id="rect6690-8" class="cls-1" x="0.5" y="0.5" width="177.79" height="248.65" rx="8.5"/><path id="path6722-9" class="cls-2" d="M14.11,56.2a45.2,45.2,0,0,0-5.79-8,44.76,44.76,0,0,0,5.79-8,44.32,44.32,0,0,0,5.8,8A44.75,44.75,0,0,0,14.11,56.2Z" transform="translate(0.1 0.1)"/><path id="path6724-6" class="cls-2" d="M130.52,64.75c-4.13-6.83-8.48-13.47-13.91-19.14,5.43-5.67,9.78-12.31,13.91-19.14,4.13,6.83,8.48,13.47,13.91,19.14C139,51.28,134.65,57.92,130.52,64.75Z" transform="translate(0.1 0.1)"/><path id="path6726-3" class="cls-2" d="M164.47,209.2a44.76,44.76,0,0,0-5.79-8,45.2,45.2,0,0,0,5.79-8,44.75,44.75,0,0,0,5.8,8A44.32,44.32,0,0,0,164.47,209.2Z" transform="translate(0.1 0.1)"/><path id="path6728-7" class="cls-2" d="M48.06,64.75c-4.13-6.83-8.47-13.47-13.9-19.14,5.43-5.67,9.77-12.31,13.9-19.14C52.19,33.3,56.54,39.94,62,45.61,56.54,51.28,52.19,57.92,48.06,64.75Z" transform="translate(0.1 0.1)"/><path id="path6736-0" class="cls-2" d="M89.29,143.86c-4.13-6.83-8.47-13.46-13.91-19.14,5.44-5.67,9.78-12.3,13.91-19.13,4.13,6.83,8.48,13.46,13.91,19.13C97.77,130.4,93.42,137,89.29,143.86Z" transform="translate(0.1 0.1)"/><path id="path6744-9" class="cls-2" d="M48.06,223c-4.13-6.83-8.47-13.47-13.9-19.14,5.43-5.67,9.77-12.31,13.9-19.14,4.13,6.83,8.48,13.47,13.91,19.14C56.54,209.51,52.19,216.15,48.06,223Z" transform="translate(0.1 0.1)"/><path id="path6746-2" class="cls-2" d="M130.52,223c-4.13-6.83-8.48-13.47-13.91-19.14,5.43-5.67,9.78-12.31,13.91-19.14,4.13,6.83,8.48,13.47,13.91,19.14C139,209.52,134.65,216.16,130.52,223Z" transform="translate(0.1 0.1)"/><path id="path21-9-8-2-7" class="cls-2" d="M5.83,30.94l2.57,0a5.34,5.34,0,0,0,3.06,3.65,6.16,6.16,0,0,0,7.74-4.12c1.07-3.32,0-8-2.9-9.65-2.38-1.37-5.91-.21-7.54,2.73L7,22.39l1-11H19.71V14H10.16L10,18.59a7.55,7.55,0,0,1,7.27-.43c3.89,1.9,5.7,6.2,4.95,11.28-1.05,5-3.37,7.9-8.58,8.31-5.8,0-7.85-4-7.82-6.81Z" transform="translate(0.1 0.1)"/><path id="path21-3-0-8-6" class="cls-2" d="M172.75,218.51l-2.57,0c-.49-1.59-1.58-3.21-3.06-3.65a6.16,6.16,0,0,0-7.74,4.12c-1.07,3.32,0,8,2.9,9.65,2.38,1.37,5.92.21,7.54-2.73l1.8,1.13-1,11H158.87v-2.59h9.55l.15-4.57a7.55,7.55,0,0,1-7.27.43c-3.89-1.9-5.7-6.2-4.94-11.28,1-5,3.36-7.9,8.57-8.31,5.8,0,7.85,4,7.82,6.81Z" transform="translate(0.1 0.1)"/></g></g></svg>