<svg id="svg4946" xmlns="http://www.w3.org/2000/svg" viewBox="0 0 178.79 249.65"><defs><style>.cls-1{fill:#fff;stroke:#000;stroke-width:1px;}.cls-2{fill:#d40000;}</style></defs><title>5HEART</title><g id="layer1"><g id="g11305-8-4"><g id="g9936-1-0"><rect id="rect9938-9-5" class="cls-1" x="0.5" y="0.5" width="177.79" height="248.65" rx="8.5"/></g><path id="path9970-5-6" class="cls-2" d="M14.11,56.2S12.34,53.65,10,50.66c-1.6-2-2.88-4.16-3-6a3.88,3.88,0,0,1,3.49-4.38c2.34-.1,3.29,1.65,3.67,3.09.39-1.44,1.33-3.19,3.67-3.09a3.87,3.87,0,0,1,3.49,4.38c-.12,1.87-1.4,4-3,6C15.88,53.65,14.11,56.2,14.11,56.2Z" transform="translate(0.1 0.1)"/><path id="path9972-9-9" class="cls-2" d="M164.47,193.25s-1.77,2.54-4.16,5.53c-1.6,2-2.88,4.17-3,6-.13,2.13,1.16,4.27,3.49,4.37s3.29-1.64,3.67-3.08c.39,1.44,1.34,3.19,3.67,3.08a3.85,3.85,0,0,0,3.49-4.37c-.12-1.87-1.4-4-3-6C166.24,195.79,164.47,193.25,164.47,193.25Z" transform="translate(0.1 0.1)"/><path id="path9978-0-4" class="cls-2" d="M48.06,64.75s-3.71-6.11-8.73-13.28c-3.35-4.81-6-10-6.28-14.49-.29-5.12,2.42-10.25,7.32-10.5s6.88,3.95,7.69,7.41c.81-3.46,2.8-7.66,7.7-7.41s7.6,5.38,7.32,10.5c-.25,4.48-2.93,9.68-6.29,14.49C51.78,58.64,48.06,64.75,48.06,64.75Z" transform="translate(0.1 0.1)"/><path id="path9984-9-5" class="cls-2" d="M130.52,64.75s-3.72-6.11-8.73-13.28c-3.35-4.81-6-10-6.28-14.49-.29-5.12,2.42-10.25,7.32-10.5s6.88,3.95,7.69,7.41c.81-3.46,2.8-7.66,7.69-7.41s7.61,5.38,7.32,10.5c-.25,4.48-2.93,9.68-6.28,14.49C134.24,58.64,130.52,64.75,130.52,64.75Z" transform="translate(0.1 0.1)"/><path id="path9986-7-3" class="cls-2" d="M89.29,143.86s-3.71-6.1-8.73-13.28c-3.35-4.8-6-10-6.28-14.48C74,111,76.7,105.85,81.6,105.6s6.88,3.94,7.69,7.4c.81-3.46,2.8-7.65,7.7-7.4s7.6,5.38,7.32,10.5c-.25,4.48-2.94,9.68-6.29,14.48C93,137.76,89.29,143.86,89.29,143.86Z" transform="translate(0.1 0.1)"/><path id="path9998-0-9" class="cls-2" d="M130.52,184.7s-3.72,6.11-8.73,13.28c-3.35,4.81-6,10-6.28,14.49-.29,5.11,2.42,10.25,7.32,10.5s6.88-3.95,7.69-7.41c.81,3.46,2.8,7.66,7.69,7.41s7.61-5.39,7.32-10.5c-.25-4.48-2.93-9.68-6.28-14.49C134.24,190.81,130.52,184.7,130.52,184.7Z" transform="translate(0.1 0.1)"/><path id="path10000-8-2" class="cls-2" d="M48.06,184.7s-3.71,6.11-8.73,13.28c-3.35,4.81-6,10-6.28,14.49-.29,5.11,2.42,10.25,7.32,10.5s6.88-3.95,7.69-7.41c.81,3.46,2.8,7.66,7.7,7.41s7.6-5.39,7.32-10.5c-.25-4.48-2.93-9.68-6.29-14.49C51.78,190.81,48.06,184.7,48.06,184.7Z" transform="translate(0.1 0.1)"/><path id="path21-9-5-1-8" class="cls-2" d="M5.83,30.94l2.57,0a5.34,5.34,0,0,0,3.06,3.65,6.16,6.16,0,0,0,7.74-4.12c1.07-3.32,0-8-2.9-9.65-2.38-1.37-5.91-.21-7.54,2.73L7,22.39l1-11H19.71V14H10.16L10,18.59a7.55,7.55,0,0,1,7.27-.43c3.89,1.9,5.7,6.2,4.95,11.28-1.05,5-3.37,7.9-8.58,8.31-5.8,0-7.85-4-7.82-6.81Z" transform="translate(0.1 0.1)"/><path id="path21-3-0-6-3-8" class="cls-2" d="M172.76,218.51l-2.58,0c-.49-1.59-1.58-3.21-3.06-3.65a6.16,6.16,0,0,0-7.74,4.12c-1.07,3.32,0,8,2.9,9.65,2.38,1.37,5.92.21,7.54-2.73l1.8,1.13-1,11H158.87v-2.59h9.55l.15-4.57a7.52,7.52,0,0,1-7.27.42c-3.89-1.89-5.7-6.19-4.94-11.27,1-5,3.36-7.9,8.57-8.31,5.8,0,7.85,4,7.83,6.81Z" transform="translate(0.1 0.1)"/></g></g></svg>