<svg id="svg4946" xmlns="http://www.w3.org/2000/svg" viewBox="0 0 178.79 249.65"><defs><style>.cls-1{fill:#fff;stroke:#000;stroke-width:1px;}</style></defs><title>5SPADE</title><g id="layer1"><g id="g8447-5-9"><g id="g8459-0-4"><rect id="rect6920-5-5" class="cls-1" x="0.5" y="0.5" width="177.79" height="248.65" rx="8.5"/><path id="path6950-9-9" d="M130.52,223c7.35-10.49,15.21-16.53,15.34-24.72,0-2.65-1.39-7.15-5.87-8-2.91-.55-6.91,1.8-7,6.59,0,1-1,.93-1-.37a27.35,27.35,0,0,1,3.34-11.76h-9.62A27.2,27.2,0,0,1,129,196.46c0,1.3-1,1.33-1,.37-.09-4.79-4.09-7.14-7-6.59-4.48.87-5.91,5.37-5.87,8,.13,8.19,8,14.23,15.34,24.72Z" transform="translate(0.1 0.1)"/><path id="path6952-6-0" d="M164.47,209.2c3.43-4.37,7.11-6.89,7.17-10.3a3.32,3.32,0,0,0-2.74-3.34,2.85,2.85,0,0,0-3.27,2.75c0,.39-.47.38-.47-.16a10.34,10.34,0,0,1,1.56-4.9h-4.5a10.34,10.34,0,0,1,1.56,4.9c0,.54-.47.55-.46.16a2.85,2.85,0,0,0-3.27-2.75,3.32,3.32,0,0,0-2.75,3.34c.07,3.41,3.74,5.93,7.17,10.3Z" transform="translate(0.1 0.1)"/><path id="path6956-5-0" d="M14.11,40.25c3.43,4.37,7.11,6.89,7.17,10.3a3.32,3.32,0,0,1-2.75,3.34,2.84,2.84,0,0,1-3.26-2.75c0-.39-.48-.38-.47.16a10.37,10.37,0,0,0,1.56,4.9h-4.5a10.37,10.37,0,0,0,1.56-4.9c0-.54-.47-.55-.47-.16a2.84,2.84,0,0,1-3.26,2.75,3.32,3.32,0,0,1-2.75-3.34c.06-3.41,3.74-5.93,7.17-10.3Z" transform="translate(0.1 0.1)"/><path id="path6958-4-1" d="M48.06,223c7.35-10.49,15.21-16.53,15.34-24.72.05-2.65-1.38-7.15-5.87-8-2.91-.55-6.91,1.8-7,6.59,0,1-1,.93-1-.37a27.08,27.08,0,0,1,3.34-11.76H43.25a27.22,27.22,0,0,1,3.34,11.76c0,1.3-1,1.33-1,.37-.08-4.79-4.09-7.14-7-6.59-4.48.87-5.91,5.37-5.87,8,.13,8.19,8,14.23,15.34,24.72Z" transform="translate(0.1 0.1)"/><path id="path6970-5-5" d="M130.52,26.47C137.87,37,145.73,43,145.86,51.19c0,2.65-1.39,7.15-5.87,8-2.91.56-6.91-1.8-7-6.58,0-1-1-.93-1,.37a27.35,27.35,0,0,0,3.34,11.76h-9.62A27.2,27.2,0,0,0,129,53c0-1.3-1-1.33-1-.37-.09,4.78-4.09,7.14-7,6.58-4.48-.86-5.91-5.36-5.87-8,.13-8.19,8-14.23,15.34-24.72Z" transform="translate(0.1 0.1)"/><path id="path6972-5-8" d="M48.06,26.47C55.41,37,63.27,43,63.4,51.19c.05,2.65-1.38,7.15-5.87,8-2.91.56-6.91-1.8-7-6.58,0-1-1-.93-1,.37a27.08,27.08,0,0,0,3.34,11.76H43.25A27.22,27.22,0,0,0,46.59,53c0-1.3-1-1.33-1-.37-.08,4.78-4.09,7.14-7,6.58-4.48-.86-5.91-5.36-5.87-8,.13-8.19,8-14.23,15.34-24.72Z" transform="translate(0.1 0.1)"/><path id="path6980-6-3" d="M89.29,143.86c7.35-10.49,15.21-16.53,15.34-24.71.05-2.65-1.39-7.16-5.87-8-2.91-.56-6.91,1.8-7,6.59,0,1-1,.93-1-.38a27.16,27.16,0,0,1,3.33-11.75H84.48a27.17,27.17,0,0,1,3.34,11.75c0,1.31-1,1.33-1,.38-.09-4.79-4.09-7.15-7-6.59-4.48.86-5.91,5.37-5.87,8,.13,8.18,8,14.22,15.34,24.71Z" transform="translate(0.1 0.1)"/><path id="path21-4-5-5" d="M172.76,218.51l-2.58,0c-.49-1.59-1.58-3.21-3.05-3.65a6.15,6.15,0,0,0-7.74,4.12c-1.08,3.32,0,8,2.89,9.65,2.38,1.37,5.92.21,7.54-2.73l1.81,1.13-1,11H158.87v-2.59h9.55l.15-4.57a7.52,7.52,0,0,1-7.27.42c-3.89-1.89-5.7-6.19-4.94-11.27,1-5,3.36-7.9,8.57-8.31,5.8,0,7.85,4,7.83,6.81Z" transform="translate(0.1 0.1)"/><path id="path21-4-9-2-8" d="M5.83,30.94l2.57,0c.5,1.59,1.58,3.2,3.06,3.65a6.16,6.16,0,0,0,7.74-4.12c1.07-3.32,0-8-2.9-9.65-2.38-1.37-5.91-.21-7.54,2.73L7,22.39l1-11H19.71V14H10.16L10,18.59a7.55,7.55,0,0,1,7.27-.43c3.89,1.9,5.7,6.2,4.95,11.28-1.05,5-3.36,7.9-8.58,8.31-5.8,0-7.85-4-7.82-6.81Z" transform="translate(0.1 0.1)"/></g></g></g></svg>