<svg id="svg4946" xmlns="http://www.w3.org/2000/svg" viewBox="0 0 178.78 249.65"><defs><style>.cls-1{fill:#fff;stroke:#000;stroke-width:1px;}</style></defs><title>6CLUB</title><g id="layer1"><g id="g5468"><rect id="rect6355-6-85-3-2-3-6" class="cls-1" x="0.5" y="0.5" width="177.79" height="248.65" rx="8.5"/><path id="path147-0-8-1-6-13-2-5-7-1" d="M130.52,26.8c-7.82.17-11.33,9-5.54,15.81.84,1,.93,1.57-.61.61-3.9-2.6-11.38-.89-11.76,7.08-.47,9.82,13.25,12.65,15.83,2.21.13-1.1,1-1.08.81.49a32.47,32.47,0,0,1-3.38,12.08h9.3A32.67,32.67,0,0,1,131.78,53c-.21-1.57.68-1.59.82-.49,2.58,10.44,16.3,7.61,15.83-2.21-.39-8-7.86-9.68-11.76-7.08-1.54,1-1.45.39-.61-.61,5.79-6.83,2.28-15.64-5.54-15.81h0Z" transform="translate(0.1 0.1)"/><path id="path147-0-8-1-6-75-2-83-8-8-7" d="M48.06,26.8c-7.82.17-11.33,9-5.53,15.81.83,1,.92,1.57-.62.61-3.9-2.6-11.37-.89-11.75,7.08C29.68,60.12,43.41,63,46,52.51c.14-1.1,1-1.08.82.49a32.48,32.48,0,0,1-3.39,12.08h9.3A32.47,32.47,0,0,1,49.33,53c-.22-1.57.68-1.59.81-.49C52.72,63,66.44,60.12,66,50.3c-.38-8-7.86-9.68-11.76-7.08-1.54,1-1.45.39-.61-.61C59.39,35.78,55.89,27,48.07,26.8Z" transform="translate(0.1 0.1)"/><path id="path147-0-8-1-6-7-5-5-7-8-7-8" d="M130.52,223.31c-7.82-.17-11.33-9-5.54-15.81.84-1,.93-1.57-.61-.61-3.9,2.6-11.38.89-11.76-7.08-.47-9.82,13.25-12.65,15.83-2.21.13,1.1,1,1.08.81-.49A32.47,32.47,0,0,0,125.87,185h9.3a32.67,32.67,0,0,0-3.39,12.08c-.21,1.57.68,1.59.82.49,2.58-10.44,16.3-7.61,15.83,2.21-.39,8-7.86,9.68-11.76,7.08-1.54-1-1.45-.39-.61.61,5.79,6.84,2.28,15.64-5.54,15.81h0Z" transform="translate(0.1 0.1)"/><path id="path147-0-8-1-6-75-6-1-2-0-6-8" d="M48.06,223.31c-7.82-.17-11.33-9-5.53-15.81.83-1,.92-1.57-.62-.61-3.9,2.6-11.37.89-11.75-7.08C29.68,190,43.41,187.16,46,197.6c.14,1.1,1,1.08.82-.49A32.48,32.48,0,0,0,43.41,185h9.3a32.47,32.47,0,0,0-3.38,12.08c-.22,1.57.68,1.59.81.49,2.58-10.44,16.3-7.61,15.83,2.21-.38,8-7.86,9.68-11.76,7.08-1.54-1-1.45-.39-.61.61,5.79,6.84,2.29,15.64-5.53,15.81Z" transform="translate(0.1 0.1)"/><path id="path147-0-8-1-6-7-5-7-3-0-9-6-4" d="M130.52,105.92c-7.82.17-11.33,9-5.54,15.81.84,1,.93,1.57-.61.61-3.9-2.61-11.38-.89-11.76,7.08-.47,9.82,13.25,12.65,15.83,2.21.13-1.11,1-1.08.81.48a32.36,32.36,0,0,1-3.38,12.08h9.3a32.56,32.56,0,0,1-3.39-12.08c-.21-1.56.68-1.59.82-.48,2.58,10.44,16.3,7.61,15.83-2.21-.39-8-7.86-9.69-11.76-7.08-1.54,1-1.45.39-.61-.61,5.79-6.84,2.28-15.64-5.54-15.81h0Z" transform="translate(0.1 0.1)"/><path id="path147-0-8-1-6-75-6-6-5-3-0-0-2" d="M48.06,105.92c-7.82.17-11.33,9-5.53,15.81.83,1,.92,1.57-.62.61-3.9-2.61-11.37-.89-11.75,7.08-.48,9.82,13.25,12.65,15.82,2.21.14-1.11,1-1.08.82.48a32.38,32.38,0,0,1-3.39,12.08h9.3a32.36,32.36,0,0,1-3.38-12.08c-.22-1.56.68-1.59.81-.48,2.58,10.44,16.3,7.61,15.83-2.21-.38-8-7.86-9.69-11.76-7.08-1.54,1-1.45.39-.61-.61,5.79-6.84,2.29-15.64-5.53-15.81Z" transform="translate(0.1 0.1)"/><path id="path147-6-9-8-7-0-5-6-4-2-8" d="M164.47,209.2c3.13-.07,4.53-3.74,2.22-6.59-.34-.41-.37-.65.24-.25,1.56,1.08,4.55.37,4.71-3,.18-4.09-5.3-5.27-6.34-.92-.05.46-.41.45-.32-.21a13.88,13.88,0,0,1,1.35-5h-3.72a14.1,14.1,0,0,1,1.36,5c.08.66-.28.67-.33.21-1-4.35-6.52-3.17-6.33.92.15,3.32,3.14,4,4.7,3,.62-.4.58-.16.25.25-2.32,2.85-.92,6.52,2.21,6.59Z" transform="translate(0.1 0.1)"/><path id="path147-6-9-8-7-4-5-62-0-2-9" d="M14.11,40.25C11,40.32,9.58,44,11.9,46.84c.33.41.37.65-.25.25C10.09,46,7.1,46.72,7,50c-.19,4.09,5.3,5.27,6.33.92.05-.46.41-.45.32.2a13.88,13.88,0,0,1-1.35,5H16a13.88,13.88,0,0,1-1.35-5c-.09-.65.27-.66.32-.2,1,4.35,6.52,3.17,6.33-.92-.15-3.32-3.14-4-4.7-2.95-.61.4-.58.16-.24-.25,2.31-2.85.91-6.52-2.22-6.59Z" transform="translate(0.1 0.1)"/><path id="path23-8-1-4" d="M6.39,29.65a53.57,53.57,0,0,1,0-9.63c.82-5.19,2.8-7.56,6.11-8.34s7.75.09,8.74,4.42l-2.69,0C17,13.22,13.36,14,11.28,15.28c-1.66,1-2.4,5.26-2.08,5.52,0,0,3.13-2.32,5.6-2.15,5.27.55,7.45,5.13,7.26,9.46-.16,5.2-1.81,9.36-7.4,9.64-5.32-.21-7.76-3.11-8.27-8.1ZM19.5,28.28c0-3.61-1.6-6.32-4.7-6.61s-6.22,2.72-6,6.4,1.65,6.81,5.4,6.79c4,0,5.29-4,5.31-6.58Z" transform="translate(0.1 0.1)"/><path id="path23-6-8-9-6" d="M172.19,219.8a53.57,53.57,0,0,1,.05,9.63c-.82,5.19-2.79,7.56-6.11,8.34s-7.74-.09-8.74-4.42l2.7-.06c1.45,2.94,5.14,2.15,7.21.88,1.66-1,2.41-5.26,2.08-5.52,0,0-3.13,2.32-5.6,2.15-5.27-.55-7.45-5.13-7.26-9.46.17-5.2,1.81-9.36,7.4-9.64,5.32.21,7.76,3.11,8.27,8.1Zm-13.11,1.37c0,3.61,1.61,6.32,4.7,6.61s6.23-2.73,6-6.41-1.65-6.8-5.4-6.78c-4,0-5.29,4-5.31,6.58Z" transform="translate(0.1 0.1)"/></g></g></svg>