<svg id="svg4946" xmlns="http://www.w3.org/2000/svg" viewBox="0 0 178.79 249.65"><defs><style>.cls-1{fill:#fff;stroke:#000;stroke-width:1px;}.cls-2{fill:#d40000;}</style></defs><title>6DIAMOND</title><g id="layer1"><g id="g6758"><rect id="rect6758-6" class="cls-1" x="0.5" y="0.5" width="177.79" height="248.65" rx="8.5"/><path id="path6790-5" class="cls-2" d="M14.11,56.2a45.2,45.2,0,0,0-5.79-8,44.76,44.76,0,0,0,5.79-8,44.32,44.32,0,0,0,5.8,8A44.75,44.75,0,0,0,14.11,56.2Z" transform="translate(0.1 0.1)"/><path id="path6792-5" class="cls-2" d="M130.52,64.75c-4.13-6.83-8.48-13.47-13.91-19.14,5.43-5.67,9.78-12.31,13.91-19.14,4.13,6.83,8.48,13.47,13.91,19.14C139,51.28,134.65,57.92,130.52,64.75Z" transform="translate(0.1 0.1)"/><path id="path6794-1" class="cls-2" d="M164.47,209.2a44.76,44.76,0,0,0-5.79-8,45.2,45.2,0,0,0,5.79-8,44.75,44.75,0,0,0,5.8,8A44.32,44.32,0,0,0,164.47,209.2Z" transform="translate(0.1 0.1)"/><path id="path6796-2" class="cls-2" d="M48.06,64.75c-4.13-6.83-8.47-13.47-13.9-19.14,5.43-5.67,9.77-12.31,13.9-19.14C52.19,33.3,56.54,39.94,62,45.61,56.54,51.28,52.19,57.92,48.06,64.75Z" transform="translate(0.1 0.1)"/><path id="path6806-6" class="cls-2" d="M48.06,143.84c-4.13-6.83-8.47-13.47-13.9-19.14,5.43-5.67,9.77-12.31,13.9-19.14C52.19,112.39,56.54,119,62,124.7,56.54,130.37,52.19,137,48.06,143.84Z" transform="translate(0.1 0.1)"/><path id="path6808-6" class="cls-2" d="M130.52,143.85c-4.13-6.83-8.48-13.47-13.91-19.14,5.43-5.67,9.78-12.31,13.91-19.14,4.13,6.83,8.48,13.47,13.91,19.14C139,130.38,134.65,137,130.52,143.85Z" transform="translate(0.1 0.1)"/><path id="path6812-0" class="cls-2" d="M48.06,223c-4.13-6.83-8.47-13.47-13.9-19.14,5.43-5.67,9.77-12.31,13.9-19.14,4.13,6.83,8.48,13.47,13.91,19.14C56.54,209.51,52.19,216.15,48.06,223Z" transform="translate(0.1 0.1)"/><path id="path6814-4" class="cls-2" d="M130.52,223c-4.13-6.83-8.48-13.47-13.91-19.14,5.43-5.67,9.78-12.31,13.91-19.14,4.13,6.83,8.48,13.47,13.91,19.14C139,209.52,134.65,216.16,130.52,223Z" transform="translate(0.1 0.1)"/><path id="path23-5-3-5-5" class="cls-2" d="M6.39,29.65a53.57,53.57,0,0,1,0-9.63c.82-5.19,2.8-7.56,6.11-8.34s7.75.09,8.74,4.42l-2.69.06C17,13.22,13.36,14,11.28,15.28c-1.66,1-2.4,5.26-2.08,5.52,0,0,3.13-2.32,5.6-2.15,5.27.55,7.45,5.13,7.26,9.46-.16,5.2-1.81,9.36-7.4,9.64-5.32-.21-7.76-3.11-8.27-8.1ZM19.5,28.28c0-3.61-1.6-6.32-4.7-6.61s-6.22,2.72-6,6.4,1.65,6.81,5.4,6.79c4,0,5.29-4,5.31-6.58Z" transform="translate(0.1 0.1)"/><path id="path23-6-5-6-6" class="cls-2" d="M172.19,219.8a53.57,53.57,0,0,1,.05,9.63c-.82,5.19-2.8,7.56-6.11,8.34s-7.75-.09-8.74-4.42l2.69-.06c1.46,2.94,5.14,2.15,7.22.88,1.66-1,2.4-5.26,2.08-5.52,0,0-3.13,2.32-5.6,2.15-5.27-.55-7.45-5.13-7.26-9.46.17-5.2,1.81-9.36,7.4-9.64,5.32.21,7.76,3.11,8.27,8.1Zm-13.11,1.37c0,3.61,1.6,6.32,4.7,6.61s6.22-2.73,6-6.41-1.65-6.8-5.4-6.78c-4,0-5.29,4-5.31,6.58Z" transform="translate(0.1 0.1)"/></g></g></svg>