<svg id="svg4946" xmlns="http://www.w3.org/2000/svg" viewBox="0 0 178.79 249.65"><defs><style>.cls-1{fill:#fff;stroke:#000;stroke-width:1px;}.cls-2{fill:#d40000;}</style></defs><title>6HEART</title><g id="layer1"><g id="g11270-7-7"><g id="g10004-9-9"><rect id="rect10006-6-1" class="cls-1" x="0.5" y="0.5" width="177.79" height="248.65" rx="8.5"/></g><path id="path10038-5-0" class="cls-2" d="M14.11,56.2S12.34,53.65,10,50.66c-1.6-2-2.88-4.16-3-6a3.88,3.88,0,0,1,3.49-4.38c2.34-.1,3.29,1.65,3.67,3.09.39-1.44,1.33-3.19,3.67-3.09a3.87,3.87,0,0,1,3.49,4.38c-.12,1.87-1.4,4-3,6C15.88,53.65,14.11,56.2,14.11,56.2Z" transform="translate(0.1 0.1)"/><path id="path10040-7-6" class="cls-2" d="M164.47,193.25s-1.77,2.54-4.16,5.53c-1.6,2-2.88,4.17-3,6-.13,2.13,1.16,4.27,3.49,4.37s3.29-1.64,3.67-3.08c.39,1.44,1.34,3.19,3.67,3.08a3.85,3.85,0,0,0,3.49-4.37c-.12-1.87-1.4-4-3-6C166.24,195.79,164.47,193.25,164.47,193.25Z" transform="translate(0.1 0.1)"/><path id="path10046-1-1" class="cls-2" d="M48.06,64.75s-3.71-6.11-8.73-13.28c-3.35-4.81-6-10-6.28-14.49-.29-5.12,2.42-10.25,7.32-10.5s6.88,3.95,7.69,7.41c.81-3.46,2.8-7.66,7.7-7.41s7.6,5.38,7.32,10.5c-.25,4.48-2.93,9.68-6.29,14.49C51.78,58.64,48.06,64.75,48.06,64.75Z" transform="translate(0.1 0.1)"/><path id="path10048-2-0" class="cls-2" d="M130.52,143.86s-3.72-6.1-8.73-13.28c-3.35-4.8-6-10-6.28-14.48-.29-5.12,2.42-10.25,7.32-10.5s6.88,3.94,7.69,7.4c.81-3.46,2.8-7.65,7.69-7.4s7.61,5.38,7.32,10.5c-.25,4.48-2.93,9.68-6.28,14.48C134.24,137.76,130.52,143.86,130.52,143.86Z" transform="translate(0.1 0.1)"/><path id="path10052-3-1" class="cls-2" d="M130.52,64.75s-3.72-6.11-8.73-13.28c-3.35-4.81-6-10-6.28-14.49-.29-5.12,2.42-10.25,7.32-10.5s6.88,3.95,7.69,7.41c.81-3.46,2.8-7.66,7.69-7.41s7.61,5.38,7.32,10.5c-.25,4.48-2.93,9.68-6.28,14.49C134.24,58.64,130.52,64.75,130.52,64.75Z" transform="translate(0.1 0.1)"/><path id="path10056-4-2" class="cls-2" d="M48.06,143.86s-3.71-6.1-8.73-13.28c-3.35-4.8-6-10-6.28-14.48-.29-5.12,2.42-10.25,7.32-10.5s6.88,3.94,7.69,7.4c.81-3.46,2.8-7.65,7.7-7.4s7.6,5.38,7.32,10.5c-.25,4.48-2.93,9.68-6.29,14.48C51.78,137.76,48.06,143.86,48.06,143.86Z" transform="translate(0.1 0.1)"/><path id="path10066-9-2" class="cls-2" d="M130.52,184.7s-3.72,6.11-8.73,13.28c-3.35,4.81-6,10-6.28,14.49-.29,5.11,2.42,10.25,7.32,10.5s6.88-3.95,7.69-7.41c.81,3.46,2.8,7.66,7.69,7.41s7.61-5.39,7.32-10.5c-.25-4.48-2.93-9.68-6.28-14.49C134.24,190.81,130.52,184.7,130.52,184.7Z" transform="translate(0.1 0.1)"/><path id="path10068-1-2" class="cls-2" d="M48.06,184.7s-3.71,6.11-8.73,13.28c-3.35,4.81-6,10-6.28,14.49-.29,5.11,2.42,10.25,7.32,10.5s6.88-3.95,7.69-7.41c.81,3.46,2.8,7.66,7.7,7.41s7.6-5.39,7.32-10.5c-.25-4.48-2.93-9.68-6.29-14.49C51.78,190.81,48.06,184.7,48.06,184.7Z" transform="translate(0.1 0.1)"/><path id="path23-5-2-7-3" class="cls-2" d="M6.39,29.65a53.57,53.57,0,0,1,0-9.63c.82-5.19,2.8-7.56,6.11-8.34s7.75.09,8.74,4.42l-2.69.06C17,13.22,13.36,14,11.28,15.28c-1.66,1-2.4,5.26-2.08,5.52,0,0,3.13-2.32,5.6-2.15,5.27.55,7.45,5.13,7.26,9.46-.16,5.2-1.81,9.36-7.4,9.64-5.32-.21-7.76-3.11-8.27-8.1ZM19.5,28.28c0-3.61-1.6-6.32-4.7-6.61s-6.22,2.72-6,6.4,1.65,6.81,5.4,6.79c4,0,5.29-4,5.31-6.58Z" transform="translate(0.1 0.1)"/><path id="path23-6-5-1-7-1" class="cls-2" d="M172.19,219.8a52.66,52.66,0,0,1,.05,9.63c-.82,5.19-2.79,7.56-6.11,8.34s-7.74-.09-8.74-4.42l2.7-.06c1.45,2.94,5.14,2.15,7.21.88,1.66-1,2.41-5.26,2.08-5.52,0,0-3.13,2.32-5.6,2.15-5.27-.55-7.45-5.13-7.26-9.46.17-5.2,1.81-9.36,7.4-9.64,5.32.21,7.76,3.11,8.27,8.1Zm-13.11,1.37c0,3.61,1.61,6.32,4.71,6.61s6.22-2.73,6-6.41-1.64-6.8-5.4-6.78c-4,0-5.29,4-5.31,6.58Z" transform="translate(0.1 0.1)"/></g></g></svg>