<svg id="svg4946" xmlns="http://www.w3.org/2000/svg" viewBox="0 0 178.79 249.65"><defs><style>.cls-1{fill:#fff;stroke:#000;stroke-width:1px;}</style></defs><title>6SPADE</title><g id="layer1"><g id="g8484-9-4"><rect id="rect6988-1-0" class="cls-1" x="0.5" y="0.5" width="177.79" height="248.65" rx="8.5"/><path id="path7018-7-4" d="M48.06,26.47C40.72,37,32.85,43,32.72,51.19c0,2.65,1.39,7.15,5.87,8,2.91.56,6.92-1.8,7-6.58,0-1,1-.93,1,.37a27.22,27.22,0,0,1-3.34,11.76h9.63A27.08,27.08,0,0,1,49.54,53c0-1.3,1-1.33,1-.37.08,4.78,4.08,7.14,7,6.58,4.49-.86,5.92-5.36,5.87-8C63.27,43,55.41,37,48.06,26.47Z" transform="translate(0.1 0.1)"/><path id="path7020-0-8" d="M14.11,40.25C10.68,44.62,7,47.14,6.94,50.55a3.32,3.32,0,0,0,2.75,3.34A2.85,2.85,0,0,0,13,51.14c0-.39.47-.38.46.16a10.37,10.37,0,0,1-1.56,4.9h4.5a10.37,10.37,0,0,1-1.56-4.9c0-.54.47-.55.47-.16a2.85,2.85,0,0,0,3.27,2.75,3.32,3.32,0,0,0,2.74-3.34c-.06-3.41-3.74-5.93-7.17-10.3Z" transform="translate(0.1 0.1)"/><path id="path7024-7-1" d="M164.47,209.2c-3.43-4.37-7.1-6.89-7.17-10.3a3.32,3.32,0,0,1,2.75-3.34,2.85,2.85,0,0,1,3.27,2.75c0,.39.47.38.46-.16a10.34,10.34,0,0,0-1.56-4.9h4.5a10.45,10.45,0,0,0-1.56,4.9c0,.54.47.55.47.16a2.85,2.85,0,0,1,3.27-2.75,3.32,3.32,0,0,1,2.74,3.34c-.06,3.41-3.74,5.93-7.17,10.3Z" transform="translate(0.1 0.1)"/><path id="path7026-2-6" d="M130.52,26.47C123.17,37,115.31,43,115.18,51.19c0,2.65,1.39,7.15,5.87,8,2.91.56,6.91-1.8,7-6.58,0-1,1-.93,1,.37a27.35,27.35,0,0,1-3.34,11.76h9.62A27.35,27.35,0,0,1,132,53c0-1.3,1-1.33,1-.37.09,4.78,4.09,7.14,7,6.58,4.48-.86,5.91-5.36,5.87-8C145.73,43,137.87,37,130.52,26.47Z" transform="translate(0.1 0.1)"/><path id="path7036-9-6" d="M48.06,105.59c-7.34,10.49-15.21,16.53-15.34,24.71,0,2.65,1.39,7.16,5.87,8,2.91.56,6.92-1.8,7-6.59,0-.95,1-.93,1,.38a27.17,27.17,0,0,1-3.34,11.75h9.63a27,27,0,0,1-3.34-11.75c0-1.31,1-1.33,1-.38.08,4.79,4.08,7.15,7,6.59,4.49-.86,5.92-5.37,5.87-8-.13-8.18-8-14.22-15.34-24.71Z" transform="translate(0.1 0.1)"/><path id="path7038-9-6" d="M48.06,223c-7.34-10.49-15.21-16.53-15.34-24.72,0-2.65,1.39-7.15,5.87-8,2.91-.55,6.92,1.8,7,6.59,0,1,1,.93,1-.37a27.22,27.22,0,0,0-3.34-11.76h9.63a27.08,27.08,0,0,0-3.34,11.76c0,1.3,1,1.33,1,.37.08-4.79,4.08-7.14,7-6.59,4.49.87,5.92,5.37,5.87,8-.13,8.19-8,14.23-15.34,24.72Z" transform="translate(0.1 0.1)"/><path id="path7040-0-9" d="M130.52,223c-7.35-10.49-15.21-16.53-15.34-24.72,0-2.65,1.39-7.15,5.87-8,2.91-.55,6.91,1.8,7,6.59,0,1,1,.93,1-.37a27.35,27.35,0,0,0-3.34-11.76h9.62A27.35,27.35,0,0,0,132,196.46c0,1.3,1,1.33,1,.37.09-4.79,4.09-7.14,7-6.59,4.48.87,5.91,5.37,5.87,8-.13,8.19-8,14.23-15.34,24.72Z" transform="translate(0.1 0.1)"/><path id="path7050-2-9" d="M130.52,105.59c-7.35,10.49-15.21,16.53-15.34,24.71,0,2.65,1.39,7.16,5.87,8,2.91.56,6.91-1.8,7-6.59,0-.95,1-.93,1,.38a27.31,27.31,0,0,1-3.34,11.75h9.62A27.31,27.31,0,0,1,132,132.11c0-1.31,1-1.33,1-.38.09,4.79,4.09,7.15,7,6.59,4.48-.86,5.91-5.37,5.87-8C145.73,122.12,137.87,116.08,130.52,105.59Z" transform="translate(0.1 0.1)"/><path id="path23-1-9-8" d="M6.39,29.65a53.57,53.57,0,0,1,0-9.63c.82-5.19,2.8-7.56,6.11-8.34s7.75.09,8.74,4.42l-2.69.06C17,13.22,13.36,14,11.28,15.28c-1.66,1-2.4,5.26-2.08,5.52,0,0,3.13-2.32,5.6-2.15,5.27.55,7.45,5.13,7.26,9.46-.16,5.2-1.81,9.36-7.4,9.64-5.32-.21-7.76-3.11-8.27-8.1ZM19.5,28.28c0-3.61-1.6-6.32-4.7-6.61s-6.22,2.72-6,6.4,1.65,6.81,5.4,6.79c4,0,5.29-4,5.31-6.58Z" transform="translate(0.1 0.1)"/><path id="path23-1-5-6-4" d="M172.19,219.8a53.57,53.57,0,0,1,.05,9.63c-.82,5.19-2.79,7.56-6.11,8.34s-7.74-.09-8.74-4.42l2.7-.06c1.45,2.94,5.14,2.15,7.21.88,1.66-1,2.41-5.26,2.08-5.52,0,0-3.13,2.32-5.6,2.15-5.27-.55-7.45-5.13-7.26-9.46.17-5.2,1.81-9.36,7.41-9.64,5.31.21,7.75,3.11,8.26,8.1Zm-13.11,1.37c0,3.61,1.61,6.32,4.7,6.61s6.23-2.73,6-6.41-1.65-6.8-5.4-6.78c-4,0-5.29,4-5.31,6.58Z" transform="translate(0.1 0.1)"/></g></g></svg>