<svg id="svg4946" xmlns="http://www.w3.org/2000/svg" viewBox="0 0 178.79 249.65"><defs><style>.cls-1{fill:#fff;stroke:#000;stroke-width:1px;}.cls-2{fill:#d40000;}</style></defs><title>7DIAMOND</title><g id="layer1"><g id="g6771"><rect id="rect6826-9" class="cls-1" x="0.5" y="0.5" width="177.79" height="248.65" rx="8.5"/><path id="path6858-4" class="cls-2" d="M14.11,56.2a45.2,45.2,0,0,0-5.79-8,44.76,44.76,0,0,0,5.79-8,44.32,44.32,0,0,0,5.8,8A44.75,44.75,0,0,0,14.11,56.2Z" transform="translate(0.1 0.1)"/><path id="path6860-1" class="cls-2" d="M130.52,64.75c-4.13-6.83-8.48-13.47-13.91-19.14,5.43-5.67,9.78-12.31,13.91-19.14,4.13,6.83,8.48,13.47,13.91,19.14C139,51.28,134.65,57.92,130.52,64.75Z" transform="translate(0.1 0.1)"/><path id="path6862-0" class="cls-2" d="M164.47,209.2a44.76,44.76,0,0,0-5.79-8,45.2,45.2,0,0,0,5.79-8,44.75,44.75,0,0,0,5.8,8A44.32,44.32,0,0,0,164.47,209.2Z" transform="translate(0.1 0.1)"/><path id="path6864-5" class="cls-2" d="M48.06,64.75c-4.13-6.83-8.47-13.47-13.9-19.14,5.43-5.67,9.77-12.31,13.9-19.14C52.19,33.3,56.54,39.94,62,45.61,56.54,51.28,52.19,57.92,48.06,64.75Z" transform="translate(0.1 0.1)"/><path id="path6870-5" class="cls-2" d="M89.29,104.29c-4.13-6.83-8.47-13.47-13.91-19.14,5.44-5.67,9.78-12.3,13.91-19.13,4.13,6.83,8.48,13.46,13.91,19.13C97.77,90.82,93.42,97.46,89.29,104.29Z" transform="translate(0.1 0.1)"/><path id="path6874-1" class="cls-2" d="M48.06,143.84c-4.13-6.83-8.47-13.47-13.9-19.14,5.43-5.67,9.77-12.31,13.9-19.14C52.19,112.39,56.54,119,62,124.7,56.54,130.37,52.19,137,48.06,143.84Z" transform="translate(0.1 0.1)"/><path id="path6876-6" class="cls-2" d="M130.52,143.85c-4.13-6.83-8.48-13.47-13.91-19.14,5.43-5.67,9.78-12.31,13.91-19.14,4.13,6.83,8.48,13.47,13.91,19.14C139,130.38,134.65,137,130.52,143.85Z" transform="translate(0.1 0.1)"/><path id="path6880-5" class="cls-2" d="M48.06,223c-4.13-6.83-8.47-13.47-13.9-19.14,5.43-5.67,9.77-12.31,13.9-19.14,4.13,6.83,8.48,13.47,13.91,19.14C56.54,209.51,52.19,216.15,48.06,223Z" transform="translate(0.1 0.1)"/><path id="path6882-9" class="cls-2" d="M130.52,223c-4.13-6.83-8.48-13.47-13.91-19.14,5.43-5.67,9.78-12.31,13.91-19.14,4.13,6.83,8.48,13.47,13.91,19.14C139,209.52,134.65,216.16,130.52,223Z" transform="translate(0.1 0.1)"/><path id="path25-43-4-8-8" class="cls-2" d="M10.07,37.75c1.73-9.15,3.57-16,8.4-23.48H8.65v3.21H6V11.43H20.41l1.77,2.84c-5.13,5.61-9.83,23.74-9,23.48Z" transform="translate(0.1 0.1)"/><path id="path25-7-0-7-6" class="cls-2" d="M168.51,211.7c-1.73,9.15-3.57,16-8.4,23.48h9.82V232h2.61V238H158.18l-1.78-2.84c5.13-5.61,9.83-23.74,9-23.48Z" transform="translate(0.1 0.1)"/></g></g></svg>