<svg id="svg4946" xmlns="http://www.w3.org/2000/svg" viewBox="0 0 178.79 249.65"><defs><style>.cls-1{fill:#fff;stroke:#000;stroke-width:1px;}.cls-2{fill:#d40000;}</style></defs><title>7HEART</title><g id="layer1"><g id="g11234-8-5"><rect id="rect10074-2-8" class="cls-1" x="0.5" y="0.5" width="177.79" height="248.65" rx="8.5"/><path id="path10106-2-3" class="cls-2" d="M14.11,56.2S12.34,53.65,10,50.66c-1.6-2-2.88-4.16-3-6a3.88,3.88,0,0,1,3.49-4.38c2.34-.1,3.28,1.65,3.67,3.09.39-1.44,1.33-3.19,3.67-3.09a3.87,3.87,0,0,1,3.49,4.38c-.12,1.87-1.4,4-3,6C15.88,53.65,14.11,56.2,14.11,56.2Z" transform="translate(0.1 0.1)"/><path id="path10108-3-1" class="cls-2" d="M164.47,193.25s-1.77,2.54-4.16,5.53c-1.6,2-2.88,4.17-3,6-.13,2.13,1.16,4.27,3.49,4.37s3.29-1.64,3.67-3.08c.39,1.44,1.34,3.19,3.67,3.08a3.85,3.85,0,0,0,3.49-4.37c-.12-1.87-1.4-4-3-6C166.24,195.79,164.47,193.25,164.47,193.25Z" transform="translate(0.1 0.1)"/><path id="path10110-3-5" class="cls-2" d="M89.29,104.31S85.57,98.2,80.56,91c-3.35-4.8-6-10-6.28-14.48C74,71.42,76.7,66.29,81.6,66s6.88,3.94,7.69,7.4C90.1,70,92.09,65.79,97,66s7.61,5.38,7.33,10.5C104.06,81,101.37,86.22,98,91,93,98.2,89.29,104.31,89.29,104.31Z" transform="translate(0.1 0.1)"/><path id="path10114-8-3" class="cls-2" d="M48.06,64.75s-3.71-6.11-8.73-13.28c-3.35-4.81-6-10-6.28-14.49-.29-5.12,2.42-10.25,7.32-10.5s6.88,3.95,7.69,7.41c.81-3.46,2.8-7.66,7.7-7.41s7.6,5.38,7.32,10.5c-.25,4.48-2.93,9.68-6.29,14.49C51.78,58.64,48.06,64.75,48.06,64.75Z" transform="translate(0.1 0.1)"/><path id="path10116-2-5" class="cls-2" d="M130.52,143.86s-3.72-6.1-8.73-13.28c-3.35-4.8-6-10-6.28-14.48-.29-5.12,2.42-10.25,7.32-10.5s6.88,3.94,7.69,7.4c.81-3.46,2.8-7.65,7.69-7.4s7.61,5.38,7.32,10.5c-.25,4.48-2.93,9.68-6.28,14.48C134.24,137.76,130.52,143.86,130.52,143.86Z" transform="translate(0.1 0.1)"/><path id="path10120-6-5" class="cls-2" d="M130.52,64.75s-3.72-6.11-8.73-13.28c-3.35-4.81-6-10-6.28-14.49-.29-5.12,2.42-10.25,7.32-10.5s6.88,3.95,7.69,7.41c.81-3.46,2.8-7.66,7.69-7.41s7.61,5.38,7.32,10.5c-.25,4.48-2.93,9.68-6.28,14.49C134.24,58.64,130.52,64.75,130.52,64.75Z" transform="translate(0.1 0.1)"/><path id="path10124-1-1" class="cls-2" d="M48.06,143.86s-3.71-6.1-8.73-13.28c-3.35-4.8-6-10-6.28-14.48-.29-5.12,2.42-10.25,7.32-10.5s6.88,3.94,7.69,7.4c.81-3.46,2.8-7.65,7.7-7.4s7.6,5.38,7.32,10.5c-.25,4.48-2.93,9.68-6.29,14.48C51.78,137.76,48.06,143.86,48.06,143.86Z" transform="translate(0.1 0.1)"/><path id="path10134-7-3" class="cls-2" d="M130.52,184.7s-3.72,6.11-8.73,13.28c-3.35,4.81-6,10-6.28,14.49-.29,5.11,2.42,10.25,7.32,10.5s6.88-3.95,7.69-7.41c.81,3.46,2.8,7.66,7.69,7.41s7.61-5.39,7.32-10.5c-.25-4.48-2.93-9.68-6.28-14.49C134.24,190.81,130.52,184.7,130.52,184.7Z" transform="translate(0.1 0.1)"/><path id="path10136-5-7" class="cls-2" d="M48.06,184.7s-3.71,6.11-8.73,13.28c-3.35,4.81-6,10-6.28,14.49-.29,5.11,2.42,10.25,7.32,10.5s6.88-3.95,7.69-7.41c.81,3.46,2.8,7.66,7.7,7.41s7.6-5.39,7.32-10.5c-.25-4.48-2.93-9.68-6.29-14.49C51.78,190.81,48.06,184.7,48.06,184.7Z" transform="translate(0.1 0.1)"/><path id="path25-43-2-3-9" class="cls-2" d="M10.07,37.75c1.73-9.15,3.57-16,8.4-23.48H8.65v3.21H6V11.43H20.41l1.77,2.84c-5.13,5.61-9.83,23.74-9,23.48Z" transform="translate(0.1 0.1)"/><path id="path25-7-0-2-8-2" class="cls-2" d="M168.51,211.7c-1.73,9.15-3.57,16-8.4,23.47h9.82V232h2.61V238H158.18l-1.78-2.85c5.14-5.6,9.83-23.73,9-23.47Z" transform="translate(0.1 0.1)"/></g></g></svg>