<svg id="svg4946" xmlns="http://www.w3.org/2000/svg" viewBox="0 0 178.79 249.65"><defs><style>.cls-1{fill:#fff;stroke:#000;stroke-width:1px;}.cls-2{fill:#d40000;}</style></defs><title>8DIAMOND</title><g id="layer1"><g id="g6785"><rect id="rect6894-2" class="cls-1" x="0.5" y="0.5" width="177.79" height="248.65" rx="8.5"/><path id="path6926-2" class="cls-2" d="M14.11,56.2a45.2,45.2,0,0,0-5.79-8,44.76,44.76,0,0,0,5.79-8,44.32,44.32,0,0,0,5.8,8A44.75,44.75,0,0,0,14.11,56.2Z" transform="translate(0.1 0.1)"/><path id="path6928-9" class="cls-2" d="M130.52,64.75c-4.13-6.83-8.48-13.47-13.91-19.14,5.43-5.67,9.78-12.31,13.91-19.14,4.13,6.83,8.48,13.47,13.91,19.14C139,51.28,134.65,57.92,130.52,64.75Z" transform="translate(0.1 0.1)"/><path id="path6930-6" class="cls-2" d="M164.47,209.2a44.76,44.76,0,0,0-5.79-8,45.2,45.2,0,0,0,5.79-8,44.75,44.75,0,0,0,5.8,8A44.32,44.32,0,0,0,164.47,209.2Z" transform="translate(0.1 0.1)"/><path id="path6932-2" class="cls-2" d="M48.06,64.75c-4.13-6.83-8.47-13.47-13.9-19.14,5.43-5.67,9.77-12.31,13.9-19.14C52.19,33.3,56.54,39.94,62,45.61,56.54,51.28,52.19,57.92,48.06,64.75Z" transform="translate(0.1 0.1)"/><path id="path6938-4" class="cls-2" d="M89.29,104.29c-4.13-6.83-8.47-13.47-13.91-19.14,5.44-5.67,9.78-12.3,13.91-19.13,4.13,6.83,8.48,13.46,13.91,19.13C97.77,90.82,93.42,97.46,89.29,104.29Z" transform="translate(0.1 0.1)"/><path id="path6942-4" class="cls-2" d="M48.06,143.84c-4.13-6.83-8.47-13.47-13.9-19.14,5.43-5.67,9.77-12.31,13.9-19.14C52.19,112.39,56.54,119,62,124.7,56.54,130.37,52.19,137,48.06,143.84Z" transform="translate(0.1 0.1)"/><path id="path6944-9" class="cls-2" d="M130.52,143.85c-4.13-6.83-8.48-13.47-13.91-19.14,5.43-5.67,9.78-12.31,13.91-19.14,4.13,6.83,8.48,13.47,13.91,19.14C139,130.38,134.65,137,130.52,143.85Z" transform="translate(0.1 0.1)"/><path id="path6948-4" class="cls-2" d="M48.06,223c-4.13-6.83-8.47-13.47-13.9-19.14,5.43-5.67,9.77-12.31,13.9-19.14,4.13,6.83,8.48,13.47,13.91,19.14C56.54,209.51,52.19,216.15,48.06,223Z" transform="translate(0.1 0.1)"/><path id="path6950-4" class="cls-2" d="M130.52,223c-4.13-6.83-8.48-13.47-13.91-19.14,5.43-5.67,9.78-12.31,13.91-19.14,4.13,6.83,8.48,13.47,13.91,19.14C139,209.52,134.65,216.16,130.52,223Z" transform="translate(0.1 0.1)"/><path id="path6956-4" class="cls-2" d="M89.29,183.41c-4.13-6.83-8.47-13.47-13.91-19.14,5.44-5.67,9.78-12.31,13.91-19.14,4.13,6.83,8.48,13.47,13.91,19.14C97.77,169.94,93.42,176.58,89.29,183.41Z" transform="translate(0.1 0.1)"/><path id="path27-00-7-8-6" class="cls-2" d="M5.57,30c.13-3.53,1.4-4.86,3.91-6.71a6.08,6.08,0,0,1-2.67-5.39c.41-4.4,3.8-6.6,7.5-6.5s6.89,3,7.14,6.23a5.44,5.44,0,0,1-2.57,5.58c2.33,2,3.82,3.27,3.77,6.75a8.18,8.18,0,0,1-8.17,7.75c-5.15.12-9-4.18-8.91-7.71Zm14.39,0c.22-3.19-2.61-5.35-5.8-5.38a5.88,5.88,0,0,0-5.88,5.49c0,3.08,3.62,4.76,6,4.76A5.65,5.65,0,0,0,20,30.05Zm-1-11.44a4.69,4.69,0,0,0-5-4.54c-2.28.07-4.69,1.81-4.69,4.06,0,2.81,2.74,4.22,5.08,4.28,2.12,0,4.54-1.76,4.59-3.8Z" transform="translate(0.1 0.1)"/><path id="path27-0-1-9-8" class="cls-2" d="M155.93,219.41c.13,3.53,1.4,4.86,3.92,6.7a6.1,6.1,0,0,0-2.68,5.4c.41,4.4,3.8,6.6,7.5,6.5s6.9-3,7.14-6.23a5.42,5.42,0,0,0-2.57-5.58c2.33-2,3.83-3.27,3.77-6.75a8.18,8.18,0,0,0-8.16-7.75c-5.16-.12-9,4.18-8.92,7.71Zm14.39,0c.22,3.19-2.61,5.35-5.79,5.38a5.87,5.87,0,0,1-5.88-5.49c0-3.08,3.61-4.76,5.94-4.76,2.84,0,5.54,2.11,5.73,4.87Zm-1,11.44a4.69,4.69,0,0,1-5,4.54c-2.28-.07-4.69-1.81-4.69-4.06,0-2.82,2.74-4.22,5.08-4.28,2.12,0,4.54,1.76,4.59,3.8Z" transform="translate(0.1 0.1)"/></g></g></svg>