<svg id="svg4946" xmlns="http://www.w3.org/2000/svg" viewBox="0 0 178.79 249.65"><defs><style>.cls-1{fill:#fff;stroke:#000;stroke-width:1px;}.cls-2{fill:#d40000;}</style></defs><title>8HEART</title><g id="layer1"><g id="g11195-3-7"><g id="g10140-6-7"><rect id="rect10142-4-2" class="cls-1" x="0.5" y="0.5" width="177.79" height="248.65" rx="8.5"/></g><path id="path10174-9-0" class="cls-2" d="M14.11,56.2S12.34,53.65,10,50.66c-1.6-2-2.88-4.16-3-6a3.88,3.88,0,0,1,3.49-4.38c2.34-.1,3.29,1.65,3.67,3.09.39-1.44,1.33-3.19,3.67-3.09a3.87,3.87,0,0,1,3.49,4.38c-.12,1.87-1.4,4-3,6C15.88,53.65,14.11,56.2,14.11,56.2Z" transform="translate(0.1 0.1)"/><path id="path10176-9-9" class="cls-2" d="M164.47,193.25s-1.77,2.54-4.16,5.53c-1.6,2-2.88,4.17-3,6-.13,2.13,1.16,4.27,3.49,4.37s3.29-1.64,3.67-3.08c.39,1.44,1.34,3.19,3.67,3.08a3.85,3.85,0,0,0,3.49-4.37c-.12-1.87-1.4-4-3-6C166.24,195.79,164.47,193.25,164.47,193.25Z" transform="translate(0.1 0.1)"/><path id="path10178-8-4" class="cls-2" d="M89.29,104.31S85.58,98.2,80.56,91c-3.35-4.8-6-10-6.28-14.48C74,71.42,76.7,66.29,81.6,66s6.88,3.94,7.69,7.4C90.1,70,92.09,65.79,97,66s7.6,5.38,7.32,10.5C104.06,81,101.37,86.22,98,91,93,98.2,89.29,104.31,89.29,104.31Z" transform="translate(0.1 0.1)"/><path id="path10182-1-9" class="cls-2" d="M48.06,64.75s-3.71-6.11-8.73-13.28c-3.35-4.81-6-10-6.28-14.49-.29-5.12,2.42-10.25,7.32-10.5s6.88,3.95,7.69,7.41c.81-3.46,2.8-7.66,7.7-7.41s7.6,5.38,7.32,10.5c-.25,4.48-2.93,9.68-6.29,14.49C51.78,58.64,48.06,64.75,48.06,64.75Z" transform="translate(0.1 0.1)"/><path id="path10184-9-1" class="cls-2" d="M130.52,143.86s-3.72-6.1-8.73-13.28c-3.35-4.8-6-10-6.28-14.48-.29-5.12,2.42-10.25,7.32-10.5s6.88,3.94,7.69,7.4c.81-3.46,2.8-7.65,7.69-7.4s7.61,5.38,7.32,10.5c-.25,4.48-2.93,9.68-6.28,14.48C134.24,137.76,130.52,143.86,130.52,143.86Z" transform="translate(0.1 0.1)"/><path id="path10188-5-4" class="cls-2" d="M130.52,64.75s-3.72-6.11-8.73-13.28c-3.35-4.81-6-10-6.28-14.49-.29-5.12,2.42-10.25,7.32-10.5s6.88,3.95,7.69,7.41c.81-3.46,2.8-7.66,7.69-7.41s7.61,5.38,7.32,10.5c-.25,4.48-2.93,9.68-6.28,14.49C134.24,58.64,130.52,64.75,130.52,64.75Z" transform="translate(0.1 0.1)"/><path id="path10192-3-6" class="cls-2" d="M48.06,143.86s-3.71-6.1-8.73-13.28c-3.35-4.8-6-10-6.28-14.48-.29-5.12,2.42-10.25,7.32-10.5s6.88,3.94,7.69,7.4c.81-3.46,2.8-7.65,7.7-7.4s7.6,5.38,7.32,10.5c-.25,4.48-2.93,9.68-6.29,14.48C51.78,137.76,48.06,143.86,48.06,143.86Z" transform="translate(0.1 0.1)"/><path id="path10196-7-3" class="cls-2" d="M89.29,145.14s-3.71,6.11-8.73,13.29c-3.35,4.8-6,10-6.28,14.48C74,178,76.7,183.16,81.6,183.41s6.88-3.95,7.69-7.4c.81,3.45,2.8,7.65,7.7,7.4s7.6-5.38,7.32-10.5c-.25-4.48-2.93-9.68-6.29-14.48-5-7.18-8.73-13.29-8.73-13.29Z" transform="translate(0.1 0.1)"/><path id="path10202-2-8" class="cls-2" d="M130.52,184.7s-3.72,6.11-8.73,13.28c-3.35,4.81-6,10-6.28,14.49-.29,5.11,2.42,10.25,7.32,10.5s6.88-3.95,7.69-7.41c.81,3.46,2.8,7.66,7.69,7.41s7.61-5.39,7.32-10.5c-.25-4.48-2.93-9.68-6.28-14.49C134.24,190.81,130.52,184.7,130.52,184.7Z" transform="translate(0.1 0.1)"/><path id="path10204-9-4" class="cls-2" d="M48.06,184.7s-3.71,6.11-8.73,13.28c-3.35,4.81-6,10-6.28,14.49-.29,5.11,2.42,10.25,7.32,10.5s6.88-3.95,7.69-7.41c.81,3.46,2.8,7.66,7.7,7.41s7.6-5.39,7.32-10.5c-.25-4.48-2.93-9.68-6.29-14.49C51.78,190.81,48.06,184.7,48.06,184.7Z" transform="translate(0.1 0.1)"/><path id="path27-00-0-7-4" class="cls-2" d="M5.57,30c.13-3.53,1.4-4.86,3.91-6.71a6.08,6.08,0,0,1-2.67-5.39c.41-4.4,3.8-6.6,7.5-6.5s6.89,3,7.14,6.23a5.44,5.44,0,0,1-2.57,5.58c2.33,2,3.82,3.27,3.77,6.75a8.18,8.18,0,0,1-8.17,7.75c-5.15.12-9-4.18-8.91-7.71Zm14.39,0c.22-3.19-2.61-5.35-5.8-5.38a5.88,5.88,0,0,0-5.88,5.49c0,3.08,3.62,4.76,6,4.76A5.65,5.65,0,0,0,20,30.05Zm-1-11.44a4.69,4.69,0,0,0-5-4.54c-2.28.07-4.69,1.81-4.69,4.06,0,2.81,2.74,4.22,5.08,4.28,2.12,0,4.54-1.76,4.59-3.8Z" transform="translate(0.1 0.1)"/><path id="path27-0-1-0-8-9" class="cls-2" d="M155.93,219.41c.13,3.53,1.4,4.86,3.92,6.7a6.09,6.09,0,0,0-2.68,5.4c.41,4.4,3.8,6.6,7.5,6.5s6.9-3,7.14-6.23a5.42,5.42,0,0,0-2.57-5.58c2.33-2,3.83-3.27,3.77-6.75a8.18,8.18,0,0,0-8.16-7.75c-5.16-.12-9,4.18-8.92,7.71Zm14.39,0c.22,3.19-2.61,5.35-5.79,5.38a5.87,5.87,0,0,1-5.88-5.49c0-3.08,3.61-4.76,5.94-4.77,2.84,0,5.54,2.12,5.73,4.88Zm-1,11.44a4.69,4.69,0,0,1-5,4.54c-2.28-.07-4.69-1.81-4.69-4.06,0-2.82,2.74-4.22,5.08-4.28,2.12,0,4.54,1.76,4.59,3.8Z" transform="translate(0.1 0.1)"/></g></g></svg>