<svg id="svg4946" xmlns="http://www.w3.org/2000/svg" viewBox="0 0 178.79 249.65"><defs><style>.cls-1{fill:#fff;stroke:#000;stroke-width:1px;}</style></defs><title>8SPADE</title><g id="layer1"><g id="g8511-1-4"><rect id="rect7125-2-7" class="cls-1" x="0.5" y="0.5" width="177.79" height="248.65" rx="8.5"/><path id="path7155-4-0" d="M48.06,26.47C40.71,37,32.85,43,32.72,51.19c0,2.65,1.39,7.15,5.87,8,2.91.56,6.92-1.8,7-6.58,0-1,1-.93,1,.37a27.22,27.22,0,0,1-3.34,11.76h9.63A27.08,27.08,0,0,1,49.54,53c0-1.3,1-1.33,1-.37.08,4.78,4.08,7.14,7,6.58,4.49-.86,5.92-5.36,5.87-8C63.27,43,55.41,37,48.06,26.47Z" transform="translate(0.1 0.1)"/><path id="path7157-2-9" d="M14.11,40.25C10.68,44.62,7,47.14,6.94,50.55a3.32,3.32,0,0,0,2.75,3.34A2.85,2.85,0,0,0,13,51.14c0-.39.47-.38.46.16a10.37,10.37,0,0,1-1.56,4.9h4.5a10.37,10.37,0,0,1-1.56-4.9c0-.54.47-.55.47-.16a2.85,2.85,0,0,0,3.26,2.75,3.32,3.32,0,0,0,2.75-3.34c-.06-3.41-3.74-5.93-7.17-10.3Z" transform="translate(0.1 0.1)"/><path id="path7162-7-0" d="M164.47,209.2c-3.43-4.37-7.1-6.89-7.17-10.3a3.32,3.32,0,0,1,2.75-3.34,2.85,2.85,0,0,1,3.27,2.75c0,.39.47.38.46-.16a10.34,10.34,0,0,0-1.56-4.9h4.5a10.45,10.45,0,0,0-1.56,4.9c0,.54.47.55.47.16a2.85,2.85,0,0,1,3.27-2.75,3.32,3.32,0,0,1,2.74,3.34c-.06,3.41-3.74,5.93-7.17,10.3Z" transform="translate(0.1 0.1)"/><path id="path7164-8-3" d="M130.52,26.47C123.17,37,115.31,43,115.18,51.19c0,2.65,1.39,7.15,5.87,8,2.91.56,6.91-1.8,7-6.58,0-1,1-.93,1,.37a27.35,27.35,0,0,1-3.34,11.76h9.62A27.35,27.35,0,0,1,132,53c0-1.3,1-1.33,1-.37.09,4.78,4.09,7.14,7,6.58,4.48-.86,5.91-5.36,5.87-8C145.73,43,137.87,37,130.52,26.47Z" transform="translate(0.1 0.1)"/><path id="path7168-3-2" d="M89.29,66C81.94,76.52,74.08,82.56,74,90.74c0,2.65,1.39,7.16,5.87,8,2.91.56,6.91-1.8,7-6.59,0-1,1-.93,1,.38a27.22,27.22,0,0,1-3.34,11.76H94.1a27.2,27.2,0,0,1-3.33-11.76c0-1.31,1-1.33,1-.38.09,4.79,4.09,7.15,7,6.59,4.48-.86,5.92-5.37,5.87-8C104.5,82.56,96.64,76.52,89.29,66Z" transform="translate(0.1 0.1)"/><path id="path7174-5-0" d="M48.06,105.59c-7.35,10.49-15.21,16.53-15.34,24.71,0,2.65,1.39,7.16,5.87,8,2.91.56,6.92-1.8,7-6.59,0-.95,1-.93,1,.38a27.17,27.17,0,0,1-3.34,11.75h9.63a27,27,0,0,1-3.34-11.75c0-1.31,1-1.33,1-.38.08,4.79,4.08,7.15,7,6.59,4.49-.86,5.92-5.37,5.87-8C63.27,122.12,55.41,116.08,48.06,105.59Z" transform="translate(0.1 0.1)"/><path id="path7176-7-0" d="M48.06,223c-7.35-10.49-15.21-16.53-15.34-24.72,0-2.65,1.39-7.15,5.87-8,2.91-.55,6.92,1.8,7,6.59,0,1,1,.93,1-.37a27.22,27.22,0,0,0-3.34-11.76h9.63a27.08,27.08,0,0,0-3.34,11.76c0,1.3,1,1.33,1,.37.08-4.79,4.08-7.14,7-6.59,4.49.87,5.92,5.37,5.87,8-.13,8.19-8,14.23-15.34,24.72Z" transform="translate(0.1 0.1)"/><path id="path7178-9-4" d="M130.52,223c-7.35-10.49-15.21-16.53-15.34-24.72,0-2.65,1.39-7.15,5.87-8,2.91-.55,6.91,1.8,7,6.59,0,1,1,.93,1-.37a27.35,27.35,0,0,0-3.34-11.76h9.62A27.35,27.35,0,0,0,132,196.46c0,1.3,1,1.33,1,.37.09-4.79,4.09-7.14,7-6.59,4.48.87,5.91,5.37,5.87,8-.13,8.19-8,14.23-15.34,24.72Z" transform="translate(0.1 0.1)"/><path id="path7180-5-1" d="M89.29,183.42C81.94,172.93,74.08,166.89,74,158.71c0-2.66,1.39-7.16,5.87-8,2.91-.56,6.91,1.8,7,6.59,0,.95,1,.92,1-.38a27.22,27.22,0,0,0-3.34-11.76H94.1a27.2,27.2,0,0,0-3.33,11.76c0,1.3,1,1.33,1,.38.09-4.79,4.09-7.15,7-6.59,4.48.86,5.92,5.36,5.87,8C104.5,166.89,96.64,172.93,89.29,183.42Z" transform="translate(0.1 0.1)"/><path id="path7189-7-7" d="M130.52,105.59c-7.35,10.49-15.21,16.53-15.34,24.71,0,2.65,1.39,7.16,5.87,8,2.91.56,6.91-1.8,7-6.59,0-.95,1-.93,1,.38a27.31,27.31,0,0,1-3.34,11.75h9.62A27.31,27.31,0,0,1,132,132.11c0-1.31,1-1.33,1-.38.09,4.79,4.09,7.15,7,6.59,4.48-.86,5.91-5.37,5.87-8C145.73,122.12,137.87,116.08,130.52,105.59Z" transform="translate(0.1 0.1)"/><path id="path27-43-30-7" d="M5.57,30c.13-3.53,1.4-4.86,3.91-6.71a6.08,6.08,0,0,1-2.67-5.39c.41-4.4,3.8-6.6,7.5-6.5s6.89,3,7.14,6.23a5.44,5.44,0,0,1-2.57,5.58c2.33,2,3.82,3.27,3.77,6.75a8.18,8.18,0,0,1-8.17,7.75c-5.15.12-9-4.18-8.91-7.71Zm14.39,0c.22-3.19-2.61-5.35-5.8-5.38a5.88,5.88,0,0,0-5.88,5.49c0,3.08,3.62,4.76,6,4.76A5.65,5.65,0,0,0,20,30.05Zm-1-11.44a4.69,4.69,0,0,0-5-4.54c-2.28.07-4.69,1.8-4.69,4.06,0,2.81,2.74,4.22,5.08,4.28,2.12,0,4.54-1.76,4.59-3.8Z" transform="translate(0.1 0.1)"/><path id="path27-43-3-4-8" d="M155.93,219.41c.13,3.53,1.4,4.86,3.92,6.7a6.09,6.09,0,0,0-2.68,5.4c.41,4.4,3.8,6.6,7.5,6.5s6.9-3,7.14-6.23a5.42,5.42,0,0,0-2.57-5.58c2.33-2,3.83-3.27,3.77-6.75a8.18,8.18,0,0,0-8.16-7.75c-5.16-.12-9,4.18-8.92,7.71Zm14.39,0c.22,3.19-2.61,5.35-5.79,5.38a5.87,5.87,0,0,1-5.88-5.49c0-3.08,3.61-4.76,5.94-4.77,2.84,0,5.54,2.12,5.73,4.88Zm-1,11.44a4.69,4.69,0,0,1-5,4.54c-2.28-.07-4.69-1.81-4.69-4.06,0-2.82,2.74-4.22,5.08-4.28,2.12,0,4.54,1.76,4.59,3.8Z" transform="translate(0.1 0.1)"/></g></g></svg>