<svg id="svg4946" xmlns="http://www.w3.org/2000/svg" viewBox="0 0 178.78 249.65"><defs><style>.cls-1{fill:#fff;stroke:#000;stroke-width:1px;}</style></defs><title>9CLUB</title><g id="layer1"><g id="g5510"><rect id="rect6355-6-85-3-78-4-6" class="cls-1" x="0.5" y="0.5" width="177.79" height="248.65" rx="8.5"/><path id="path147-0-8-1-6-13-2-9-8-8" d="M130.52,26.8c-7.82.17-11.33,9-5.54,15.81.84,1,.93,1.57-.61.61-3.9-2.6-11.38-.89-11.76,7.08-.47,9.82,13.25,12.65,15.83,2.21.13-1.1,1-1.08.81.49a32.47,32.47,0,0,1-3.38,12.08h9.3A32.67,32.67,0,0,1,131.78,53c-.21-1.57.68-1.59.82-.49,2.58,10.44,16.3,7.61,15.83-2.21-.39-8-7.86-9.68-11.76-7.08-1.54,1-1.45.39-.61-.61,5.79-6.83,2.28-15.64-5.54-15.81h0Z" transform="translate(0.1 0.1)"/><path id="path147-0-8-1-6-75-2-83-3-5-0" d="M48.06,26.8c-7.82.17-11.33,9-5.53,15.81.84,1,.92,1.57-.62.61-3.9-2.6-11.37-.89-11.75,7.08C29.68,60.12,43.41,63,46,52.51c.14-1.1,1-1.08.82.49a32.48,32.48,0,0,1-3.39,12.08h9.3A32.47,32.47,0,0,1,49.33,53c-.22-1.57.68-1.59.81-.49C52.72,63,66.44,60.12,66,50.3c-.38-8-7.86-9.68-11.76-7.08-1.54,1-1.45.39-.61-.61C59.39,35.78,55.89,27,48.07,26.8Z" transform="translate(0.1 0.1)"/><path id="path147-0-8-1-6-7-5-5-7-63-0-4" d="M130.52,223.31c-7.82-.17-11.33-9-5.54-15.81.84-1,.93-1.57-.61-.61-3.9,2.6-11.38.89-11.76-7.08-.47-9.82,13.25-12.65,15.83-2.21.13,1.1,1,1.08.81-.49A32.47,32.47,0,0,0,125.87,185h9.3a32.67,32.67,0,0,0-3.39,12.08c-.21,1.57.68,1.59.82.49,2.58-10.44,16.3-7.61,15.83,2.21-.39,8-7.86,9.68-11.76,7.08-1.54-1-1.45-.39-.61.61,5.79,6.84,2.28,15.64-5.54,15.81h0Z" transform="translate(0.1 0.1)"/><path id="path147-0-8-1-6-75-6-1-2-46-5-0" d="M48.06,223.31c-7.82-.17-11.33-9-5.53-15.81.84-1,.92-1.57-.62-.61-3.9,2.6-11.37.89-11.75-7.08C29.68,190,43.41,187.16,46,197.6c.14,1.1,1,1.08.82-.49A32.48,32.48,0,0,0,43.41,185h9.3a32.47,32.47,0,0,0-3.38,12.08c-.22,1.57.68,1.59.81.49,2.58-10.44,16.3-7.61,15.83,2.21-.38,8-7.86,9.68-11.76,7.08-1.54-1-1.45-.39-.61.61,5.79,6.84,2.29,15.64-5.53,15.81Z" transform="translate(0.1 0.1)"/><path id="path147-0-8-1-6-1-1-0-5-61-2-0" d="M89.29,105.92c-7.82.17-11.33,9-5.54,15.81.84,1,.93,1.57-.61.61-3.9-2.61-11.37-.89-11.76,7.08-.47,9.82,13.25,12.65,15.83,2.21.14-1.11,1-1.08.82.48a32.38,32.38,0,0,1-3.39,12.08h9.3a32.36,32.36,0,0,1-3.38-12.08c-.22-1.56.68-1.59.81-.48,2.58,10.44,16.3,7.61,15.83-2.21-.38-8-7.86-9.69-11.76-7.08-1.54,1-1.45.39-.61-.61,5.79-6.84,2.28-15.64-5.54-15.81Z" transform="translate(0.1 0.1)"/><path id="path147-6-9-8-7-0-5-6-5-2-8" d="M164.47,209.2c3.13-.07,4.53-3.74,2.22-6.59-.34-.41-.37-.65.24-.25,1.56,1.08,4.55.37,4.71-3,.18-4.09-5.3-5.27-6.34-.92-.05.46-.41.45-.32-.21a13.88,13.88,0,0,1,1.35-5h-3.72a14.1,14.1,0,0,1,1.36,5c.08.66-.28.67-.33.21-1-4.35-6.52-3.17-6.33.92.15,3.32,3.14,4,4.7,3,.62-.4.58-.16.25.25-2.32,2.85-.92,6.52,2.21,6.59Z" transform="translate(0.1 0.1)"/><path id="path147-0-8-1-6-75-2-9-77-4-4-2" d="M48.06,79.55c-7.82.17-11.33,9-5.53,15.81.84,1,.92,1.57-.62.61-3.9-2.61-11.37-.9-11.75,7.08-.48,9.82,13.25,12.65,15.82,2.2.14-1.1,1-1.07.82.49a32.6,32.6,0,0,1-3.38,12.08h9.29a32.41,32.41,0,0,1-3.38-12.08c-.22-1.56.68-1.59.81-.49,2.58,10.45,16.3,7.62,15.83-2.2-.38-8-7.86-9.69-11.76-7.08-1.54,1-1.45.38-.61-.61,5.79-6.84,2.29-15.64-5.53-15.81Z" transform="translate(0.1 0.1)"/><path id="path147-0-8-1-6-75-2-8-0-6-4-4" d="M48.06,170.57c-7.82-.17-11.33-9-5.53-15.81.84-1,.92-1.57-.62-.62-3.9,2.61-11.37.9-11.75-7.07-.48-9.83,13.25-12.66,15.82-2.21.14,1.1,1,1.08.82-.49a32.48,32.48,0,0,0-3.39-12.08h9.3a32.47,32.47,0,0,0-3.38,12.08c-.22,1.57.68,1.59.81.49,2.58-10.45,16.3-7.62,15.83,2.21-.38,8-7.86,9.68-11.76,7.07-1.54-.95-1.45-.38-.61.62,5.79,6.83,2.29,15.64-5.53,15.81Z" transform="translate(0.1 0.1)"/><path id="path147-0-8-1-6-75-2-9-7-1-36-2-4" d="M130.52,79.55c-7.82.17-11.33,9-5.54,15.81.84,1,.93,1.57-.61.61-3.9-2.61-11.38-.9-11.76,7.08-.47,9.82,13.25,12.65,15.83,2.2.13-1.1,1-1.07.81.49a32.41,32.41,0,0,1-3.38,12.08h9.3a32.62,32.62,0,0,1-3.39-12.08c-.21-1.56.68-1.59.82-.49,2.58,10.45,16.3,7.62,15.83-2.2-.39-8-7.86-9.69-11.76-7.08-1.54,1-1.45.38-.61-.61,5.79-6.84,2.28-15.64-5.54-15.81h0Z" transform="translate(0.1 0.1)"/><path id="path147-0-8-1-6-75-2-8-5-1-55-5-4" d="M130.52,170.57c-7.82-.17-11.33-9-5.54-15.81.84-1,.93-1.57-.61-.62-3.9,2.61-11.38.9-11.76-7.07-.47-9.83,13.25-12.66,15.83-2.21.13,1.1,1,1.08.81-.49a32.47,32.47,0,0,0-3.38-12.08h9.3a32.67,32.67,0,0,0-3.39,12.08c-.21,1.57.68,1.59.82.49,2.58-10.45,16.3-7.62,15.83,2.21-.39,8-7.86,9.68-11.76,7.07-1.54-.95-1.45-.38-.61.62,5.79,6.83,2.28,15.64-5.54,15.81h0Z" transform="translate(0.1 0.1)"/><path id="path147-6-9-8-7-4-5-62-7-8-4" d="M14.11,40.25C11,40.32,9.58,44,11.9,46.84c.33.41.37.65-.25.25C10.09,46,7.1,46.72,7,50c-.19,4.09,5.3,5.27,6.33.92.05-.46.41-.45.33.2a14.1,14.1,0,0,1-1.36,5H16a13.88,13.88,0,0,1-1.35-5c-.09-.65.27-.66.32-.2,1,4.35,6.52,3.17,6.33-.92-.15-3.32-3.14-4-4.7-2.95-.61.4-.58.16-.24-.25,2.31-2.85.91-6.52-2.22-6.59Z" transform="translate(0.1 0.1)"/><path id="path29-2-3-4" d="M6.77,32.68l2.4-.77a4.25,4.25,0,0,0,4.68,3c3.48-.28,4.64-4.17,4.9-7.61a6.88,6.88,0,0,1-5.13,2.09c-5.55-.29-7-4.74-7-9.39-.15-3.93,1.47-6.77,4.25-8.08a9.46,9.46,0,0,1,6.32.13c3.4,1.79,4.66,4.9,4.43,12.3,0,6.1-1.29,13.19-7.81,13.35a6.33,6.33,0,0,1-7-5ZM16.21,26a5.74,5.74,0,0,0,2.28-2.4,4.55,4.55,0,0,0,.44-3c-.31-4.42-2.62-6.93-6-6.43-1.87.28-2.89,1.33-3.48,3.28-1.08,3.6.29,7.82,2.87,8.79A5,5,0,0,0,16.21,26Z" transform="translate(0.1 0.1)"/><path id="path29-6-1-3-7" d="M171.81,216.77l-2.4.77a4.25,4.25,0,0,0-4.68-3c-3.48.27-4.64,4.17-4.9,7.61a6.89,6.89,0,0,1,5.13-2.09c5.55.29,7,4.74,7,9.39.15,3.93-1.47,6.77-4.25,8.07a9.4,9.4,0,0,1-6.32-.12c-3.4-1.79-4.66-4.9-4.43-12.3,0-6.1,1.29-13.19,7.81-13.35a6.32,6.32,0,0,1,7,5Zm-9.44,6.68a5.74,5.74,0,0,0-2.28,2.4,4.55,4.55,0,0,0-.44,3c.31,4.42,2.62,6.93,6,6.43,1.87-.28,2.89-1.33,3.48-3.28,1.09-3.6-.29-7.82-2.87-8.79a5,5,0,0,0-3.87.27Z" transform="translate(0.1 0.1)"/></g></g></svg>