<svg id="svg4946" xmlns="http://www.w3.org/2000/svg" viewBox="0 0 178.79 249.65"><defs><style>.cls-1{fill:#fff;stroke:#000;stroke-width:1px;}.cls-2{fill:#d40000;}</style></defs><title>9HEART</title><g id="layer1"><g id="g11153-5-1"><g id="g10208-4-1"><rect id="rect10210-5-4" class="cls-1" x="0.5" y="0.5" width="177.79" height="248.65" rx="8.5"/></g><path id="path10240-7-9" class="cls-2" d="M48.06,117.49s-3.71-6.1-8.73-13.28c-3.35-4.8-6-10-6.28-14.48-.29-5.12,2.42-10.26,7.32-10.51s6.88,4,7.69,7.41c.81-3.46,2.8-7.65,7.7-7.41s7.6,5.39,7.32,10.51c-.25,4.47-2.93,9.68-6.29,14.48C51.78,111.39,48.06,117.49,48.06,117.49Z" transform="translate(0.1 0.1)"/><path id="path10242-3-8" class="cls-2" d="M14.11,56.2S12.34,53.65,10,50.66c-1.6-2-2.88-4.16-3-6a3.88,3.88,0,0,1,3.49-4.38c2.34-.1,3.29,1.65,3.67,3.09.39-1.44,1.33-3.19,3.67-3.09a3.87,3.87,0,0,1,3.49,4.38c-.12,1.87-1.4,4-3,6C15.88,53.65,14.11,56.2,14.11,56.2Z" transform="translate(0.1 0.1)"/><path id="path10244-4-5" class="cls-2" d="M164.47,193.25s-1.77,2.54-4.16,5.53c-1.6,2-2.88,4.17-3,6-.13,2.13,1.16,4.27,3.49,4.37s3.29-1.64,3.67-3.08c.39,1.44,1.34,3.19,3.67,3.08a3.85,3.85,0,0,0,3.49-4.37c-.12-1.87-1.4-4-3-6C166.24,195.79,164.47,193.25,164.47,193.25Z" transform="translate(0.1 0.1)"/><path id="path10250-9-0" class="cls-2" d="M48.06,64.75s-3.71-6.11-8.73-13.28c-3.35-4.81-6-10-6.28-14.49-.29-5.12,2.42-10.25,7.32-10.5s6.88,3.95,7.69,7.41c.81-3.46,2.8-7.66,7.7-7.41s7.6,5.38,7.32,10.5c-.25,4.48-2.93,9.68-6.29,14.49C51.78,58.64,48.06,64.75,48.06,64.75Z" transform="translate(0.1 0.1)"/><path id="path10254-7-3" class="cls-2" d="M130.52,117.49s-3.72-6.1-8.73-13.28c-3.35-4.8-6-10-6.28-14.48-.29-5.12,2.42-10.26,7.32-10.51s6.88,4,7.69,7.41c.81-3.46,2.8-7.65,7.69-7.41s7.61,5.39,7.32,10.51c-.25,4.47-2.93,9.68-6.28,14.48C134.24,111.39,130.52,117.49,130.52,117.49Z" transform="translate(0.1 0.1)"/><path id="path10256-4-7" class="cls-2" d="M130.52,64.75s-3.72-6.11-8.73-13.28c-3.35-4.81-6-10-6.28-14.49-.29-5.12,2.42-10.25,7.32-10.5s6.88,3.95,7.69,7.41c.81-3.46,2.8-7.66,7.69-7.41s7.61,5.38,7.32,10.5c-.25,4.48-2.93,9.68-6.28,14.49C134.24,58.64,130.52,64.75,130.52,64.75Z" transform="translate(0.1 0.1)"/><path id="path10258-5-9" class="cls-2" d="M89.29,143.86s-3.72-6.1-8.73-13.28c-3.35-4.8-6-10-6.28-14.48C74,111,76.7,105.85,81.6,105.6s6.88,3.94,7.69,7.4c.81-3.46,2.8-7.65,7.69-7.4s7.61,5.38,7.33,10.5c-.25,4.48-2.94,9.68-6.29,14.48C93,137.76,89.29,143.86,89.29,143.86Z" transform="translate(0.1 0.1)"/><path id="path10266-8-9" class="cls-2" d="M130.52,132s-3.72,6.1-8.73,13.28c-3.35,4.8-6,10-6.28,14.48-.29,5.12,2.42,10.26,7.32,10.5s6.88-3.94,7.69-7.4c.81,3.46,2.8,7.65,7.69,7.4s7.61-5.38,7.32-10.5c-.25-4.48-2.93-9.68-6.28-14.48C134.24,138.06,130.52,132,130.52,132Z" transform="translate(0.1 0.1)"/><path id="path10268-2-7" class="cls-2" d="M48.06,132s-3.71,6.1-8.73,13.28c-3.35,4.8-6,10-6.28,14.48-.29,5.12,2.42,10.26,7.32,10.5s6.88-3.94,7.69-7.4c.81,3.46,2.8,7.65,7.7,7.4s7.6-5.38,7.32-10.5c-.25-4.48-2.93-9.68-6.29-14.48C51.78,138.06,48.06,132,48.06,132Z" transform="translate(0.1 0.1)"/><path id="path10270-1-4" class="cls-2" d="M130.52,184.7s-3.72,6.11-8.73,13.28c-3.35,4.81-6,10-6.28,14.49-.29,5.11,2.42,10.25,7.32,10.5s6.88-3.95,7.69-7.41c.81,3.46,2.8,7.66,7.69,7.41s7.61-5.39,7.32-10.5c-.25-4.48-2.93-9.68-6.28-14.49C134.24,190.81,130.52,184.7,130.52,184.7Z" transform="translate(0.1 0.1)"/><path id="path10272-0-7" class="cls-2" d="M48.06,184.7s-3.71,6.11-8.73,13.28c-3.35,4.81-6,10-6.28,14.49-.29,5.11,2.42,10.25,7.32,10.5s6.88-3.95,7.69-7.41c.81,3.46,2.8,7.66,7.7,7.41s7.6-5.39,7.32-10.5c-.25-4.48-2.93-9.68-6.29-14.49C51.78,190.81,48.06,184.7,48.06,184.7Z" transform="translate(0.1 0.1)"/><path id="path29-5-8-5-4" class="cls-2" d="M6.77,32.68l2.4-.77a4.25,4.25,0,0,0,4.68,3c3.48-.28,4.64-4.17,4.9-7.61a6.89,6.89,0,0,1-5.13,2.09c-5.55-.29-7-4.74-7-9.39-.15-3.93,1.47-6.77,4.25-8.07a9.4,9.4,0,0,1,6.32.12c3.4,1.79,4.66,4.9,4.43,12.3,0,6.1-1.29,13.19-7.81,13.35a6.33,6.33,0,0,1-7-5ZM16.21,26a5.74,5.74,0,0,0,2.28-2.4,4.55,4.55,0,0,0,.44-3c-.31-4.42-2.62-6.93-6-6.43-1.87.28-2.89,1.33-3.48,3.28-1.09,3.6.29,7.82,2.87,8.79A5,5,0,0,0,16.21,26Z" transform="translate(0.1 0.1)"/><path id="path29-6-2-3-6-6" class="cls-2" d="M171.81,216.77l-2.4.77a4.25,4.25,0,0,0-4.68-3c-3.48.27-4.64,4.17-4.9,7.61a6.94,6.94,0,0,1,5.13-2.1c5.55.3,7,4.75,7,9.4.15,3.93-1.47,6.77-4.25,8.07a9.52,9.52,0,0,1-6.32-.12c-3.4-1.79-4.66-4.9-4.43-12.3,0-6.1,1.29-13.19,7.81-13.35a6.32,6.32,0,0,1,7,5Zm-9.44,6.68a5.74,5.74,0,0,0-2.28,2.4,4.55,4.55,0,0,0-.44,3c.31,4.42,2.62,6.93,6,6.43,1.87-.28,2.89-1.33,3.48-3.28,1.09-3.61-.29-7.82-2.87-8.79a5,5,0,0,0-3.87.27Z" transform="translate(0.1 0.1)"/></g></g></svg>