<svg id="svg4946" xmlns="http://www.w3.org/2000/svg" viewBox="0 0 178.79 249.65"><defs><style>.cls-1{fill:#fff;stroke:#000;stroke-width:1px;}</style></defs><title>9SPADE</title><g id="layer1"><g id="g8526-6-2"><rect id="rect7195-8-7" class="cls-1" x="0.5" y="0.5" width="177.79" height="248.65" rx="8.5"/><path id="path7225-5-2" d="M48.06,26.47C40.72,37,32.85,43,32.72,51.19c0,2.65,1.39,7.15,5.87,8,2.91.56,6.92-1.8,7-6.58,0-1,1-.93,1,.37a27.22,27.22,0,0,1-3.34,11.76h9.63A27.08,27.08,0,0,1,49.54,53c0-1.3,1-1.33,1-.37.08,4.78,4.08,7.14,7,6.58,4.49-.86,5.92-5.36,5.87-8C63.27,43,55.41,37,48.06,26.47Z" transform="translate(0.1 0.1)"/><path id="path7227-2-8" d="M14.11,40.25C10.68,44.62,7,47.14,6.94,50.55a3.32,3.32,0,0,0,2.75,3.34A2.85,2.85,0,0,0,13,51.14c0-.39.47-.38.46.16a10.37,10.37,0,0,1-1.56,4.9h4.5a10.37,10.37,0,0,1-1.56-4.9c0-.54.47-.55.47-.16a2.85,2.85,0,0,0,3.26,2.75,3.32,3.32,0,0,0,2.75-3.34c-.06-3.41-3.74-5.93-7.17-10.3Z" transform="translate(0.1 0.1)"/><path id="path7229-4-8" d="M48.06,170.23c-7.34-10.49-15.21-16.53-15.34-24.71,0-2.65,1.39-7.16,5.87-8,2.91-.56,6.92,1.8,7,6.59,0,.95,1,.93,1-.38A27.17,27.17,0,0,0,43.25,132h9.63a27,27,0,0,0-3.34,11.75c0,1.31,1,1.33,1,.38.08-4.79,4.08-7.15,7-6.59,4.49.86,5.92,5.37,5.87,8C63.27,153.7,55.41,159.74,48.06,170.23Z" transform="translate(0.1 0.1)"/><path id="path7231-7-8" d="M164.47,209.2c-3.43-4.37-7.1-6.89-7.17-10.3a3.32,3.32,0,0,1,2.75-3.34,2.85,2.85,0,0,1,3.27,2.75c0,.39.47.38.46-.16a10.34,10.34,0,0,0-1.56-4.9h4.5a10.45,10.45,0,0,0-1.56,4.9c0,.54.47.55.47.16a2.85,2.85,0,0,1,3.27-2.75,3.32,3.32,0,0,1,2.74,3.34c-.06,3.41-3.74,5.93-7.17,10.3Z" transform="translate(0.1 0.1)"/><path id="path7233-8-9" d="M130.52,26.47C123.17,37,115.31,43,115.18,51.19c0,2.65,1.39,7.15,5.87,8,2.91.56,6.91-1.8,7-6.58,0-1,1-.93,1,.37a27.35,27.35,0,0,1-3.34,11.76h9.62A27.35,27.35,0,0,1,132,53c0-1.3,1-1.33,1-.37.09,4.78,4.09,7.14,7,6.58,4.48-.86,5.91-5.36,5.87-8C145.73,43,137.87,37,130.52,26.47Z" transform="translate(0.1 0.1)"/><path id="path7235-9-4" d="M48.06,79.21c-7.34,10.5-15.21,16.53-15.34,24.72,0,2.65,1.39,7.16,5.87,8,2.91.55,6.92-1.8,7-6.59,0-1,1-.93,1,.38a27.21,27.21,0,0,1-3.34,11.75h9.63a27.08,27.08,0,0,1-3.34-11.75c0-1.31,1-1.33,1-.38.08,4.79,4.08,7.14,7,6.59,4.49-.86,5.92-5.37,5.87-8C63.27,95.74,55.41,89.71,48.06,79.21Z" transform="translate(0.1 0.1)"/><path id="path7241-7-2" d="M130.52,79.21c-7.35,10.5-15.21,16.53-15.34,24.72,0,2.65,1.39,7.16,5.87,8,2.91.55,6.91-1.8,7-6.59,0-1,1-.93,1,.38a27.35,27.35,0,0,1-3.34,11.75h9.62A27.35,27.35,0,0,1,132,105.74c0-1.31,1-1.33,1-.38.09,4.79,4.09,7.14,7,6.59,4.48-.86,5.91-5.37,5.87-8C145.73,95.74,137.87,89.71,130.52,79.21Z" transform="translate(0.1 0.1)"/><path id="path7245-1-6" d="M48.06,223c-7.34-10.49-15.21-16.53-15.34-24.72,0-2.65,1.39-7.15,5.87-8,2.91-.55,6.92,1.8,7,6.59,0,1,1,.93,1-.37a27.22,27.22,0,0,0-3.34-11.76h9.63a27.08,27.08,0,0,0-3.34,11.76c0,1.3,1,1.33,1,.37.08-4.79,4.08-7.14,7-6.59,4.49.87,5.92,5.37,5.87,8-.13,8.19-8,14.23-15.34,24.72Z" transform="translate(0.1 0.1)"/><path id="path7247-0-6" d="M130.52,223c-7.35-10.49-15.21-16.53-15.34-24.72,0-2.65,1.39-7.15,5.87-8,2.91-.55,6.91,1.8,7,6.59,0,1,1,.93,1-.37a27.35,27.35,0,0,0-3.34-11.76h9.62A27.35,27.35,0,0,0,132,196.46c0,1.3,1,1.33,1,.37.09-4.79,4.09-7.14,7-6.59,4.48.87,5.91,5.37,5.87,8-.13,8.19-8,14.23-15.34,24.72Z" transform="translate(0.1 0.1)"/><path id="path7251-3-6" d="M130.52,170.23c-7.35-10.49-15.21-16.53-15.34-24.71,0-2.65,1.39-7.16,5.87-8,2.91-.56,6.91,1.8,7,6.59,0,.95,1,.93,1-.38A27.31,27.31,0,0,0,125.71,132h9.62A27.31,27.31,0,0,0,132,143.71c0,1.31,1,1.33,1,.38.09-4.79,4.09-7.15,7-6.59,4.48.86,5.91,5.37,5.87,8C145.73,153.7,137.87,159.74,130.52,170.23Z" transform="translate(0.1 0.1)"/><path id="path7255-7-8" d="M89.29,105.59C81.94,116.08,74.08,122.12,74,130.3c0,2.65,1.39,7.16,5.87,8,2.91.56,6.91-1.8,7-6.59,0-.95,1-.93,1,.38a27.17,27.17,0,0,1-3.34,11.75H94.1a27.16,27.16,0,0,1-3.33-11.75c0-1.31,1-1.33,1-.38.09,4.79,4.09,7.15,7,6.59,4.48-.86,5.92-5.37,5.87-8C104.5,122.12,96.64,116.08,89.29,105.59Z" transform="translate(0.1 0.1)"/><path id="path29-33-4-4" d="M6.77,32.68l2.4-.77a4.25,4.25,0,0,0,4.68,3c3.48-.28,4.64-4.17,4.9-7.61a6.89,6.89,0,0,1-5.13,2.09c-5.55-.29-7-4.74-7-9.39-.15-3.93,1.47-6.77,4.25-8.07a9.4,9.4,0,0,1,6.32.12c3.4,1.79,4.66,4.9,4.43,12.3,0,6.1-1.29,13.19-7.81,13.35a6.33,6.33,0,0,1-7-5ZM16.21,26a5.74,5.74,0,0,0,2.28-2.4,4.55,4.55,0,0,0,.44-3c-.31-4.42-2.62-6.93-6-6.43-1.87.28-2.89,1.33-3.48,3.28-1.09,3.6.29,7.82,2.87,8.79A5,5,0,0,0,16.21,26Z" transform="translate(0.1 0.1)"/><path id="path29-33-3-8-6" d="M171.81,216.77l-2.4.77a4.25,4.25,0,0,0-4.68-3c-3.48.27-4.64,4.17-4.9,7.61a6.94,6.94,0,0,1,5.13-2.1c5.55.3,7,4.75,7,9.4.15,3.93-1.47,6.77-4.25,8.07a9.52,9.52,0,0,1-6.32-.12c-3.4-1.79-4.66-4.9-4.43-12.3,0-6.1,1.29-13.19,7.81-13.35a6.32,6.32,0,0,1,7,5Zm-9.44,6.68a5.74,5.74,0,0,0-2.28,2.4,4.55,4.55,0,0,0-.44,3c.31,4.42,2.62,6.93,6,6.43,1.87-.28,2.89-1.33,3.48-3.28,1.09-3.61-.29-7.82-2.87-8.79a5,5,0,0,0-3.87.27Z" transform="translate(0.1 0.1)"/></g></g></svg>